<svg xmlns="http://www.w3.org/2000/svg" viewBox="0 0 248.88 247.07"><defs><style>.a,.d{fill:#4d70b5;}.a{opacity:0.1;}.b,.l{fill:#fff;}.c{fill:#2c4a8b;}.d,.v{opacity:0.2;}.e{fill:#f3f2f3;}.f{fill:#263239;}.g,.u{fill:#4baed3;}.g{stroke:#4baed3;stroke-miterlimit:10;}.h{fill:#efefef;}.i,.j{fill:#dae0e6;}.i,.l{fill-rule:evenodd;}.k{fill:#e62555;}.m{fill:#4db7ab;}.n{fill:#ebbf30;}.o{fill:#f0821a;}.p{fill:#e9505b;}.q{fill:#455a64;}.r{fill:#d4a081;}.s{opacity:0.4;}.t{fill:#ec9a6e;}.v{fill:#010101;}.w{fill:#eabf30;}.x{fill:#d8ecfa;}</style></defs><path class="a" d="M167.34,234.18H73.81a6,6,0,0,1-6-6.43L73,138.68a6.92,6.92,0,0,1,6.8-6.43h93.52a6,6,0,0,1,6.05,6.43l-5.22,89.07A6.93,6.93,0,0,1,167.34,234.18Z" transform="translate(-0.02 -1.16)"/><path class="b" d="M157.92,166.9H91.11a9,9,0,0,1-9.1-9.68h0a10.42,10.42,0,0,1,10.24-9.67h66.81a9,9,0,0,1,9.11,9.67h0A10.42,10.42,0,0,1,157.92,166.9Z" transform="translate(-0.02 -1.16)"/><path class="b" d="M156.4,192.89H89.59a9,9,0,0,1-9.11-9.67h0a10.43,10.43,0,0,1,10.24-9.68h66.82a9,9,0,0,1,9.1,9.68h0A10.42,10.42,0,0,1,156.4,192.89Z" transform="translate(-0.02 -1.16)"/><path class="b" d="M154.88,218.88H88.07A9,9,0,0,1,79,209.21h0a10.43,10.43,0,0,1,10.24-9.68H156a9.06,9.06,0,0,1,9.11,9.68h0A10.42,10.42,0,0,1,154.88,218.88Z" transform="translate(-0.02 -1.16)"/><ellipse class="c" cx="92.93" cy="157.22" rx="5.13" ry="4.84" transform="translate(-83.29 108.02) rotate(-44.16)"/><path class="c" d="M92.34,178.5,93,181a.65.65,0,0,0,.63.47h2.61a.68.68,0,0,1,.34,1.25l-2.21,1.54a.71.71,0,0,0-.29.77l.66,2.48a.72.72,0,0,1-1.11.77l-2-1.53a.67.67,0,0,0-.81,0l-2.21,1.53a.66.66,0,0,1-1-.77l1-2.48a.66.66,0,0,0-.21-.77l-2-1.54a.71.71,0,0,1,.48-1.25h2.61a.75.75,0,0,0,.69-.47l1-2.49A.69.69,0,0,1,92.34,178.5Z" transform="translate(-0.02 -1.16)"/><path class="c" d="M94.18,206.58l-.41,7a1.17,1.17,0,0,1-1.15,1.09H86.51a1,1,0,0,1-1-1.09l.51-8.68a1.17,1.17,0,0,1,1.15-1.09h4.39Z" transform="translate(-0.02 -1.16)"/><path class="b" d="M91.54,203.78l2.64,2.8H92.46a1,1,0,0,1-1-1.09l.1-1.71m-.7-1.92-.11,1.87-.1,1.72a1.86,1.86,0,0,0,.49,1.37,1.83,1.83,0,0,0,1.34.57h3.59L94.77,206l-2.64-2.8-1.29-1.37Z" transform="translate(-0.02 -1.16)"/><path class="d" d="M155.68,156.2h-50a1.48,1.48,0,0,1-1.49-1.57h0a1.71,1.71,0,0,1,1.67-1.58h50a1.47,1.47,0,0,1,1.48,1.58h0A1.69,1.69,0,0,1,155.68,156.2Z" transform="translate(-0.02 -1.16)"/><path class="d" d="M146.2,161.4H105.38a1.48,1.48,0,0,1-1.48-1.58h0a1.7,1.7,0,0,1,1.67-1.57h40.82a1.47,1.47,0,0,1,1.48,1.57h0A1.7,1.7,0,0,1,146.2,161.4Z" transform="translate(-0.02 -1.16)"/><path class="d" d="M154,184.24H140.24a1.7,1.7,0,0,0-1.67,1.58h0a1.48,1.48,0,0,0,1.49,1.57h13.79a1.71,1.71,0,0,0,1.67-1.57h0A1.48,1.48,0,0,0,154,184.24Z" transform="translate(-0.02 -1.16)"/><path class="d" d="M132.18,184.24H104a1.7,1.7,0,0,0-1.66,1.58h0a1.46,1.46,0,0,0,1.48,1.57H132a1.7,1.7,0,0,0,1.67-1.57h0A1.47,1.47,0,0,0,132.18,184.24Z" transform="translate(-0.02 -1.16)"/><path class="d" d="M145.17,179H104.35a1.7,1.7,0,0,0-1.67,1.58h0a1.47,1.47,0,0,0,1.48,1.57H145a1.7,1.7,0,0,0,1.67-1.57h0A1.48,1.48,0,0,0,145.17,179Z" transform="translate(-0.02 -1.16)"/><rect class="d" x="100.83" y="209.08" width="53.14" height="3.15" rx="1.58"/><path class="d" d="M143.64,205H102.82a1.69,1.69,0,0,0-1.66,1.57h0a1.47,1.47,0,0,0,1.48,1.58h40.82a1.71,1.71,0,0,0,1.67-1.58h0A1.47,1.47,0,0,0,143.64,205Z" transform="translate(-0.02 -1.16)"/><path class="e" d="M3.9,167.81c3.24,17.59,12.55,29.12,35.9,44.34s39.33,18.37,88.7,18.37,77.07-9.69,98.62-31.35,35.35-72.46.77-98.84-44.08-41-78.52-43.64-55.82,11-79.95,23.39C48.34,90.9,36.47,82.57,14.87,104.32S.67,150.23,3.9,167.81Z" transform="translate(-0.02 -1.16)"/><path class="f" d="M136.64,247.86,58.47,231.58A17.41,17.41,0,0,1,45,211L85.73,15A17.39,17.39,0,0,1,106.31,1.53l78.17,16.28A17.4,17.4,0,0,1,198,38.38l-40.75,196A17.38,17.38,0,0,1,136.64,247.86Z" transform="translate(-0.02 -1.16)"/><path class="b" d="M183,24.72,167.8,21.57a3.84,3.84,0,0,0-4.48,3.08l-.57,2.75a3.86,3.86,0,0,1-4.48,3.08l-29.55-6.15a3.86,3.86,0,0,1-2.88-4.62l.57-2.75a3.83,3.83,0,0,0-2.88-4.61l-5.33-1.11L104.94,8.47a12.18,12.18,0,0,0-14.41,9.45L50.76,209.22a12.18,12.18,0,0,0,9.44,14.41l78,16.25a12.19,12.19,0,0,0,14.41-9.45L192.4,39.13A12.2,12.2,0,0,0,183,24.72Z" transform="translate(-0.02 -1.16)"/><path class="g" d="M91.57,26.72l96.51,20a3,3,0,0,0,3.47-2.09C193.08,39.22,195,26.92,182,24l-13.91-2.76a3.08,3.08,0,0,0-.8,0c-1.24.1-4.38.84-4.48,5.89a3.34,3.34,0,0,1-3.79,3.31c-3.38-.28-26.81-5.38-30.83-6.26a2.9,2.9,0,0,1-1.57-.92,4.73,4.73,0,0,1-1-3.57,3.21,3.21,0,0,1,.28-1.05c.61-1.34,2.08-5.72-4.09-6.62L103.65,8.28a1.26,1.26,0,0,0-.27,0,11.79,11.79,0,0,0-12.66,8.63,2.68,2.68,0,0,0-.07.27l-1.38,6A3,3,0,0,0,91.57,26.72Z" transform="translate(-0.02 -1.16)"/><path class="h" d="M51.35,205.71s-4.79,15.41,7.43,18.51l80.9,17.09s12.86,1.23,13.29-14.67L191.31,45.8,89,24.27Z" transform="translate(-0.02 -1.16)"/><rect class="b" x="126.05" y="14.29" width="16.86" height="97.28" rx="1.73" transform="translate(45.5 180.65) rotate(-78.27)"/><path class="i" d="M177.74,68.47,109.52,54.3a1.26,1.26,0,0,0-1.49,1h0a1.28,1.28,0,0,0,1,1.5l68.22,14.16a1.25,1.25,0,0,0,1.49-1h0A1.25,1.25,0,0,0,177.74,68.47Z" transform="translate(-0.02 -1.16)"/><path class="i" d="M176.89,72.6l-45-9.35a1.28,1.28,0,0,0-1.5,1h0a1.26,1.26,0,0,0,1,1.49l45,9.34a1.27,1.27,0,0,0,1.5-1h0A1.26,1.26,0,0,0,176.89,72.6Z" transform="translate(-0.02 -1.16)"/><circle class="j" cx="97.3" cy="54.05" r="6.19"/><circle class="k" cx="101.23" cy="59.11" r="2.04"/><circle class="k" cx="98.1" cy="83.89" r="2.04"/><path class="l" d="M176.25,93.91,84.38,74.83a2,2,0,0,0-2.14,1.8L78.77,93.36A2,2,0,0,0,80,95.87L171.88,115a2,2,0,0,0,2.14-1.81l3.47-16.72A2,2,0,0,0,176.25,93.91Z" transform="translate(-0.02 -1.16)"/><path class="i" d="M171.54,98.1,103.32,83.93a1.26,1.26,0,0,0-1.49,1h0a1.26,1.26,0,0,0,1,1.49L171,100.57a1.26,1.26,0,0,0,1.49-1h0A1.26,1.26,0,0,0,171.54,98.1Z" transform="translate(-0.02 -1.16)"/><path class="i" d="M170.68,102.22l-45-9.34a1.27,1.27,0,0,0-1.5,1h0a1.27,1.27,0,0,0,1,1.5l45,9.34a1.26,1.26,0,0,0,1.49-1h0A1.25,1.25,0,0,0,170.68,102.22Z" transform="translate(-0.02 -1.16)"/><circle class="j" cx="91.42" cy="83.75" r="6.19"/><circle class="k" cx="95.35" cy="88.8" r="2.04"/><rect class="b" x="113.27" y="76.16" width="16.86" height="97.28" rx="1.73" transform="translate(-25.27 217.42) rotate(-78.27)"/><path class="i" d="M165,130.34,96.74,116.18a1.26,1.26,0,0,0-1.49,1h0a1.25,1.25,0,0,0,1,1.49l68.21,14.17a1.27,1.27,0,0,0,1.5-1h0A1.28,1.28,0,0,0,165,130.34Z" transform="translate(-0.02 -1.16)"/><path class="i" d="M164.1,134.47l-45-9.34a1.27,1.27,0,0,0-1.5,1h0a1.27,1.27,0,0,0,1,1.5l45,9.34a1.26,1.26,0,0,0,1.49-1h0A1.26,1.26,0,0,0,164.1,134.47Z" transform="translate(-0.02 -1.16)"/><circle class="j" cx="84.51" cy="115.93" r="6.19"/><circle class="k" cx="88.44" cy="120.99" r="2.04"/><path class="i" d="M169.8,106.53,101.58,92.36a1.27,1.27,0,0,0-1.5,1h0a1.27,1.27,0,0,0,1,1.5L169.28,109a1.27,1.27,0,0,0,1.5-1h0A1.27,1.27,0,0,0,169.8,106.53Z" transform="translate(-0.02 -1.16)"/><path class="l" d="M161.87,162.12,70,143c-.93-.19-2,1-2.33,2.72l-4.94,23.79c-.35,1.7.12,3.23,1,3.42l91.87,19.08c.93.19,2-1,2.33-2.72l4.94-23.79C163.28,163.85,162.81,162.32,161.87,162.12Z" transform="translate(-0.02 -1.16)"/><path class="i" d="M157.39,166.86,89.17,152.69a1.28,1.28,0,0,0-1.5,1h0a1.27,1.27,0,0,0,1,1.5l68.22,14.17a1.27,1.27,0,0,0,1.5-1h0A1.27,1.27,0,0,0,157.39,166.86Z" transform="translate(-0.02 -1.16)"/><path class="i" d="M156.53,171l-45-9.34a1.25,1.25,0,0,0-1.49,1h0a1.26,1.26,0,0,0,1,1.49l45,9.34a1.25,1.25,0,0,0,1.49-1h0A1.26,1.26,0,0,0,156.53,171Z" transform="translate(-0.02 -1.16)"/><circle class="j" cx="77.04" cy="151.96" r="6.19"/><circle class="m" cx="80.97" cy="157.02" r="2.04"/><path class="i" d="M155.56,176.46,87.34,162.29a1.26,1.26,0,0,0-1.49,1h0a1.26,1.26,0,0,0,1,1.5l68.22,14.16a1.25,1.25,0,0,0,1.49-1h0A1.26,1.26,0,0,0,155.56,176.46Z" transform="translate(-0.02 -1.16)"/><path class="i" d="M154.7,180.59l-45-9.34a1.25,1.25,0,0,0-1.5,1h0a1.26,1.26,0,0,0,1,1.49l45,9.34a1.27,1.27,0,0,0,1.5-1h0A1.26,1.26,0,0,0,154.7,180.59Z" transform="translate(-0.02 -1.16)"/><path class="i" d="M153.87,185.13,85.65,171a1.25,1.25,0,0,0-1.49,1h0a1.25,1.25,0,0,0,1,1.49l68.22,14.17a1.26,1.26,0,0,0,1.49-1h0A1.28,1.28,0,0,0,153.87,185.13Z" transform="translate(-0.02 -1.16)"/><rect class="b" x="97.56" y="151.24" width="16.86" height="97.28" rx="1.73" transform="translate(-111.28 261.86) rotate(-78.27)"/><path class="i" d="M149.25,205.42,81,191.25a1.27,1.27,0,0,0-1.5,1h0a1.27,1.27,0,0,0,1,1.5l68.22,14.17a1.28,1.28,0,0,0,1.5-1h0A1.26,1.26,0,0,0,149.25,205.42Z" transform="translate(-0.02 -1.16)"/><path class="i" d="M148.4,209.55l-45-9.34a1.25,1.25,0,0,0-1.49,1h0a1.25,1.25,0,0,0,1,1.49l45,9.34a1.26,1.26,0,0,0,1.5-1h0A1.26,1.26,0,0,0,148.4,209.55Z" transform="translate(-0.02 -1.16)"/><circle class="j" cx="68.81" cy="191" r="6.19"/><circle class="n" cx="72.74" cy="196.06" r="2.04"/><path class="o" d="M186.7,60.19,181,58.93c-2-.4-3.16-2.71-2.66-5.13h0c.5-2.41,2.52-4,4.48-3.64l5.71,1.25c2,.41,1.13,2.23.63,4.64h0C188.65,58.47,188.66,60.6,186.7,60.19Z" transform="translate(-0.02 -1.16)"/><path class="f" d="M102.68,206.73l-.54-.39a1.53,1.53,0,1,1,.52-.23Zm-.72-3.47a1.55,1.55,0,0,0-.6,3.05,1.72,1.72,0,0,0,.78-.08h0l.39.28v-.44l0,0a1.51,1.51,0,0,0,.61-.95A1.56,1.56,0,0,0,102,203.26Z" transform="translate(-0.02 -1.16)"/><path class="p" d="M98.42,203a1,1,0,0,0-.81-1,1,1,0,0,0-1.07.64,1,1,0,0,0-.75-1,1,1,0,0,0-1.12.58,1.36,1.36,0,0,0,0,1,4.39,4.39,0,0,0,.53.84l.81,1.09c.4-.23.75-.46,1.15-.7a4.14,4.14,0,0,0,.81-.58A1.35,1.35,0,0,0,98.42,203Z" transform="translate(-0.02 -1.16)"/><rect class="f" x="95.48" y="158.39" width="4.01" height="0.23" transform="translate(-50.97 45.12) rotate(-21.32)"/><path class="q" d="M155.88,145.37c0,.08-17.19-3.42-38.35-7.81s-38.31-8-38.29-8.11,17.18,3.41,38.35,7.81S155.89,145.28,155.88,145.37Z" transform="translate(-0.02 -1.16)"/><path class="f" d="M98.7,219.42a1.67,1.67,0,1,1-1.28-2A1.69,1.69,0,0,1,98.7,219.42Z" transform="translate(-0.02 -1.16)"/><path class="r" d="M109,186.87l5.41-4.22a7.06,7.06,0,0,0,2-2.46c.52-1,1.13-2.18,1.82-3.42a14.14,14.14,0,0,1,4.36-4.28c2.48-1.66,3.45-1.47,5.06-2.29.14,0,.3-.14.44-.18a2.06,2.06,0,0,0,.78-.44c1.46-1,.73-3.26-1.72-3.57-1.84-.23-4.91-.33-10.74,3.63l-.23.18c-3.21,2.76-3.63-7.1-3.34-10.67a3.73,3.73,0,0,0-4.35-3.86l-12.85,3a5.56,5.56,0,0,0-3.44-.59,3.55,3.55,0,0,0-3.09,3.67l3.3,20.39L76.74,228l19.34,4.1Z" transform="translate(-0.02 -1.16)"/><g class="s"><path d="M89.36,163.47A23.41,23.41,0,0,0,92,169.76a7.9,7.9,0,0,0,5.5,3.7c2.28.24,4.77-1.17,5.26-3.4a2.83,2.83,0,0,0,3.72.11,6.39,6.39,0,0,0,2-3.46,3.58,3.58,0,0,0,4.68-.27,5.87,5.87,0,0,0,1.57-4.74,17.29,17.29,0,0,0-1.4-4.94,6.3,6.3,0,0,0,3.37.34,2.18,2.18,0,0,0,1.67-2.56,2.89,2.89,0,0,0-1.41-1.37,10.7,10.7,0,0,0-4.64-1.77c-.43-.09-.27,4.95-13.07,9.15A100.81,100.81,0,0,1,89.36,163.47Z" transform="translate(-0.02 -1.16)"/></g><path class="t" d="M113.67,175.75c0,.05-.75-.25-2-.47a11.5,11.5,0,0,0-9.24,2.28c-1,.78-1.5,1.39-1.54,1.35s.09-.18.32-.45a9.89,9.89,0,0,1,1.08-1.07,11,11,0,0,1,9.42-2.32,8.63,8.63,0,0,1,1.45.44A1.66,1.66,0,0,1,113.67,175.75Z" transform="translate(-0.02 -1.16)"/><path class="u" d="M111.82,156.67c0,.46-.36.72-.59,1-2.37,3.15-4.66,6.37-7.14,9.43-4.09,5.05-.47,11.32,4.55,11.51,0,0,.09.1.13.15l2.85-.4c2.48-1.29,3.87-3.63,5.48-5.75L131,154.19c-.33-.28-.66-.57-1-.84l-9.8-7.45-.15,0c-.9,1.21-1.77,2.44-2.7,3.62-.46.6-.75,1.36-1.51,1.7A24.66,24.66,0,0,1,111.82,156.67Z" transform="translate(-0.02 -1.16)"/><path class="u" d="M140.61,118.65c-.07-.37-.37-.54-.64-.73a69.94,69.94,0,0,1-16.85-18,73,73,0,0,1-8.06-16.71c-.87-2.56-1.77-5.11-2.67-7.67,0-.12-.19-.21-.29-.31A9.56,9.56,0,0,1,110,79.87c-5.67,7.44-11.29,14.93-16.92,22.4-.24.32-.45.67-.67,1,.1.55.59.73,1,1q18,13.62,36.07,27.23c.32.24.67.44,1,.66,1.07-1.4,2.16-2.78,3.21-4.18Q137.14,123.32,140.61,118.65Z" transform="translate(-0.02 -1.16)"/><path class="u" d="M130.43,132.17c-.34-.22-.69-.42-1-.66q-18-13.6-36.07-27.23c-.37-.28-.86-.46-1-1l-.19.07c-.22.34-.43.68-.67,1q-8.64,11.47-17.28,22.94a7.81,7.81,0,0,1-3.65,2.88c6.39.46,12.81.56,19.11,1.86a74.55,74.55,0,0,1,18.08,6.22,5,5,0,0,1,.61.45,27.55,27.55,0,0,1,6,3.32,30.78,30.78,0,0,1,5.63,3.91l.15,0,10.21-13.52Z" transform="translate(-0.02 -1.16)"/><path class="v" d="M130.43,132.17c-.34-.22-.69-.42-1-.66q-18-13.6-36.07-27.23c-.37-.28-.86-.46-1-1l-.19.07c-.22.34-.43.68-.67,1q-8.64,11.47-17.28,22.94a7.81,7.81,0,0,1-3.65,2.88c6.39.46,12.81.56,19.11,1.86a74.55,74.55,0,0,1,18.08,6.22,5,5,0,0,1,.61.45,27.55,27.55,0,0,1,6,3.32,30.78,30.78,0,0,1,5.63,3.91l.15,0,10.21-13.52Z" transform="translate(-0.02 -1.16)"/><path class="w" d="M130.43,132.17v.21a46.54,46.54,0,0,1,5.32,4l.19,0a3.28,3.28,0,0,1,4.68-.74q2.87,2.06,5.64,4.25a3.24,3.24,0,0,1,.63,4.52l-.19.45c.51-.07.8.31,1.15.56l8.88,6.7a2.3,2.3,0,0,0,1,.61c1.34-1.75,2.7-3.5,4-5.27a10.1,10.1,0,0,0-2.05-14.58c-4.71-3.6-9.46-7.15-14.2-10.73l-4-3c-.28-.21-.53-.53-.94-.51q-3.48,4.66-7,9.34C132.59,129.39,131.5,130.77,130.43,132.17Z" transform="translate(-0.02 -1.16)"/><path class="w" d="M157.76,152.73a2.3,2.3,0,0,1-1-.61l-8.88-6.7c-.35-.25-.64-.63-1.15-.56-1.75,1.47-3.2,1.52-5,.15-1.53-1.14-3.05-2.3-4.57-3.45-2-1.55-2.37-2.85-1.33-5.14a46.54,46.54,0,0,0-5.32-4L120.22,145.9l9.8,7.45c.35.27.68.56,1,.84,2.57,1.91,5.14,3.81,7.7,5.73,5.26,3.94,11.41,3.07,15.37-2.21C155.34,156.06,156.68,154.49,157.76,152.73Z" transform="translate(-0.02 -1.16)"/><path class="w" d="M70.6,130.16a7.81,7.81,0,0,0,3.65-2.88q8.61-11.49,17.28-22.94c.24-.32.45-.66.67-1-1.74-1.55-3.66-2.86-5.51-4.25s-3.45-2.77-5.34-3.93a9.4,9.4,0,0,0-.66.74q-8.81,11.66-17.6,23.33c-2.37,3.16-2.34,6.79.24,9.34A7,7,0,0,0,70.6,130.16Z" transform="translate(-0.02 -1.16)"/><path class="v" d="M157.76,152.73a2.3,2.3,0,0,1-1-.61l-8.88-6.7c-.35-.25-.64-.63-1.15-.56-1.75,1.47-3.2,1.52-5,.15-1.53-1.14-3.05-2.3-4.57-3.45-2-1.55-2.37-2.85-1.33-5.14a46.54,46.54,0,0,0-5.32-4L120.22,145.9l9.8,7.45c.35.27.68.56,1,.84,2.57,1.91,5.14,3.81,7.7,5.73,5.26,3.94,11.41,3.07,15.37-2.21C155.34,156.06,156.68,154.49,157.76,152.73Z" transform="translate(-0.02 -1.16)"/><path class="v" d="M70.6,130.16a7.81,7.81,0,0,0,3.65-2.88q8.61-11.49,17.28-22.94c.24-.32.45-.66.67-1-1.74-1.55-3.66-2.86-5.51-4.25s-3.45-2.77-5.34-3.93a9.4,9.4,0,0,0-.66.74q-8.81,11.66-17.6,23.33c-2.37,3.16-2.34,6.79.24,9.34A7,7,0,0,0,70.6,130.16Z" transform="translate(-0.02 -1.16)"/><path class="w" d="M81.35,95.16c1.89,1.16,3.57,2.6,5.34,3.93s3.77,2.7,5.51,4.25l.19-.07c.22-.33.43-.68.67-1,5.63-7.47,11.25-15,16.92-22.4a9.56,9.56,0,0,0,2.12-4.65,8,8,0,0,0-1.26-4.4,6.62,6.62,0,0,0-10.78-.47C93.76,78.57,87.58,86.88,81.35,95.16Z" transform="translate(-0.02 -1.16)"/><path class="u" d="M114.44,142a27.55,27.55,0,0,0-6-3.32c-.52.72-1.05,1.43-1.54,2.16a10.2,10.2,0,0,0,2,13.55c1,.8,2,1.52,3,2.27a24.4,24.4,0,0,0,4-5.43c-.83-.65-1.69-1.29-2.51-2a3.4,3.4,0,0,1-.65-4.88C113.27,143.6,113.86,142.81,114.44,142Z" transform="translate(-0.02 -1.16)"/><path class="u" d="M62.12,77.28A3.37,3.37,0,0,0,59,79.66a3.1,3.1,0,0,0,1,3.59q4.23,3.3,8.55,6.46a3.39,3.39,0,0,0,4.1-5.38C69.82,82.13,67,80,64.09,77.87A2.8,2.8,0,0,0,62.12,77.28Z" transform="translate(-0.02 -1.16)"/><path class="u" d="M78.84,75.47c.17,1.24.26,2.5.54,3.71A3.37,3.37,0,0,0,86,78.25a50.42,50.42,0,0,0-1-7.44,3.38,3.38,0,0,0-6.67,1c.07,1.21.32,2.41.48,3.61Z" transform="translate(-0.02 -1.16)"/><path class="u" d="M61.28,98.63c-1.17.17-2.34.3-3.5.5A3.34,3.34,0,0,0,55,102.69a3.26,3.26,0,0,0,3.36,3.13,43.94,43.94,0,0,0,7.75-1.07,3.34,3.34,0,0,0,2.44-3.92,3.4,3.4,0,0,0-3.76-2.68c-1.17.13-2.33.32-3.5.48Z" transform="translate(-0.02 -1.16)"/><path class="x" d="M135.75,136.42c-1,2.29-.71,3.59,1.33,5.14,1.52,1.15,3,2.31,4.57,3.45,1.85,1.37,3.3,1.32,5-.15l.19-.45a1,1,0,0,1-.7-.25l-10.25-7.78Z" transform="translate(-0.02 -1.16)"/><path class="x" d="M135.94,136.38l10.25,7.78a1,1,0,0,0,.7.25,3.24,3.24,0,0,0-.63-4.52q-2.77-2.19-5.64-4.25A3.28,3.28,0,0,0,135.94,136.38Z" transform="translate(-0.02 -1.16)"/><path class="r" d="M90.73,160.58c1.48,2.15,2.33,4.36,3.89,6.55.71,1,1.76,2.81,2.89,3.25s1.93.45,2.62-.55c.56-.81.14-2.17-.18-3-.83-2.19-1.69-3.94-2.3-5.63-.29-.8.3-.83.44-.46.69,1.1,1.85,2.18,2.44,3.34.8,1.6.62,3.45,3.59,3.47a2.61,2.61,0,0,0,1.14-.22,2.9,2.9,0,0,0,1.37-3.25,9.66,9.66,0,0,0-1.08-2.72c.92,1.61,2,3.33,3.84,3.88a2.7,2.7,0,0,0,3-.89c.84-1.18.28-2.6-.33-3.78a37.81,37.81,0,0,0-3.81-5.95,3.79,3.79,0,0,0-2.17-1.36,3.52,3.52,0,0,0-3.08.46,3.93,3.93,0,0,0-1.38,2.8s-2.24-1.79-4.52-.88a6.51,6.51,0,0,0-3.25,3.08Z" transform="translate(-0.02 -1.16)"/><path class="r" d="M106.23,152.72a3.06,3.06,0,0,1,.35-3.45c.6-.74,1.3-1.44,1.88-1.51,2.55-.31,12.56,3.64,12,5.93s-1.56,3.23-7,1.24c-1-.35-2.48-.86-2.48-.86l-1.78,1.75Z" transform="translate(-0.02 -1.16)"/><path class="t" d="M106.09,162.76a13.81,13.81,0,0,0-4.65-6.38,3.3,3.3,0,0,1,1,.62,9.88,9.88,0,0,1,2,2.06,10,10,0,0,1,1.34,2.54A3.74,3.74,0,0,1,106.09,162.76Z" transform="translate(-0.02 -1.16)"/><path class="t" d="M109.3,156c-.06,0-.63-.66-1.44-1.43-.41-.38-.79-.71-1.08-.93s-.5-.3-.49-.34.26,0,.6.16a5.75,5.75,0,0,1,1.17.89A4,4,0,0,1,109.3,156Z" transform="translate(-0.02 -1.16)"/><path class="t" d="M111.49,154.26a4.57,4.57,0,0,1-1.95-.64,3.62,3.62,0,0,1-1.14-.94c-.24-.3-.31-.53-.28-.54a8.74,8.74,0,0,0,1.57,1.21A14.91,14.91,0,0,1,111.49,154.26Z" transform="translate(-0.02 -1.16)"/><path class="t" d="M98.89,164.24a8.73,8.73,0,0,1-.69-1.43,11.66,11.66,0,0,0-1.85-3.26,5,5,0,0,0-3.24-1.62,6.46,6.46,0,0,0-1.54.16.94.94,0,0,1,.38-.19,3.37,3.37,0,0,1,1.17-.18,4.91,4.91,0,0,1,3.45,1.63,10.07,10.07,0,0,1,1.83,3.38A9,9,0,0,1,98.89,164.24Z" transform="translate(-0.02 -1.16)"/><path class="t" d="M102.07,188.85a32.79,32.79,0,0,1-4.37-.27,31.83,31.83,0,0,1-4.34-.57,32.93,32.93,0,0,1,4.37.27A32.14,32.14,0,0,1,102.07,188.85Z" transform="translate(-0.02 -1.16)"/></svg>