<svg id="Calque_1" data-name="Calque 1" xmlns="http://www.w3.org/2000/svg" viewBox="0 0 178.59 149.07">
  <defs>
    <style>
      .cls-1 {
        fill: #f2f0f0;
      }

      .cls-2 {
        fill: #e13b3a;
      }

      .cls-3 {
        fill: #ce9b80;
      }

      .cls-4 {
        fill: #ecbf2d;
      }

      .cls-5, .cls-8 {
        fill: #fff;
      }

      .cls-6 {
        fill: #4aadd2;
      }

      .cls-6, .cls-7, .cls-8 {
        fill-rule: evenodd;
      }

      .cls-7 {
        opacity: 0.2;
      }

      .cls-9 {
        fill: #e8c20c;
      }

      .cls-10 {
        fill: #415b6b;
      }
    </style>
  </defs>
  <path class="cls-1" d="M3.79,103.73c2.32,12.14,9,20.1,25.76,30.61S57.77,147,93.2,147s55.3-6.69,70.76-21.65,25.37-50,.56-68.26S132.89,28.83,108.17,27s-40,7.59-57.37,16.15c-15.13,7.47-23.64,1.72-39.14,16.74S1.47,91.58,3.79,103.73Z" transform="translate(-1 -17.14)"/>
  <path class="cls-2" d="M136.66,93.78h0A28.89,28.89,0,0,1,98.12,80.52h0a28.66,28.66,0,0,1,13.32-38.38h0A28.88,28.88,0,0,1,150,55.4h0A28.67,28.67,0,0,1,136.66,93.78Z" transform="translate(-1 -17.14)"/>
  <path class="cls-3" d="M51.09,159.29l-4.33-6.43s-2.87-3.24-1.37-9l9.7-29.55A6.84,6.84,0,0,1,56.28,112a5,5,0,0,1,4.95-1.46,4.38,4.38,0,0,1,2.51,3.94,10,10,0,0,1-.76,4.63l-1.68,6.1-.58,2.65L76.43,111,91.37,95.08s3.06-2.2,5.28-1.22c0,0,2.61,1.09,2.58,3.32A5.17,5.17,0,0,1,98,101.55L88.52,111.7,70.46,130.8s6.67-6.93,8.12-7.64c0,0,3.79-1.8,5.83.61a4.86,4.86,0,0,1,1.21,5.38s-.13,2-4,5.19l-3.45,3.78s5.73-6.31,6.53-6.52,2.82-1.51,5.38.71a4.79,4.79,0,0,1,.89,5s.21.41-1.64,2.4L85.61,144s3.72-4.26,4.29-4.35c0,0,2.83-1.33,4.34.08A3.27,3.27,0,0,1,96,143.26s.38,1.53-2.09,4L82.3,158.82a63.08,63.08,0,0,1-15.64,7.09l-5.95.3-5.79-2.61Z" transform="translate(-1 -17.14)"/>
  <g>
    <path class="cls-4" d="M52.53,77.29c1.45-1.41,2.84-1.73,4.34-1.17a3.56,3.56,0,0,1,2.54,3.42c0,4.08,0,8.15-.18,12.22a3.86,3.86,0,0,1-7.71-.07c0-4.07.08-8.15.16-12.22A3.23,3.23,0,0,1,52.53,77.29Z" transform="translate(-1 -17.14)"/>
    <path class="cls-4" d="M39.19,91.07c1,1,2.07,2,3,3.09a3.84,3.84,0,0,1-5.49,5.33,58.67,58.67,0,0,1-6-6.13,3.86,3.86,0,0,1,5.61-5.28c1,.92,2,2,2.91,3Z" transform="translate(-1 -17.14)"/>
    <path class="cls-4" d="M72.34,91.48c1-.93,1.91-1.9,2.9-2.8a3.8,3.8,0,0,1,5.16,0,3.73,3.73,0,0,1,.47,5.22,50.24,50.24,0,0,1-6.4,6.23,3.8,3.8,0,0,1-5.23-.55,3.88,3.88,0,0,1,.21-5.27c.94-1,1.93-1.87,2.89-2.81Z" transform="translate(-1 -17.14)"/>
  </g>
  <path class="cls-5" d="M125.77,83h-12c-3.39,0-5.27-1.89-5.28-5.28V58.86c0-3.34,1.87-5.23,5.18-5.25,2,0,4,0,6,0A4.61,4.61,0,0,1,124.45,58c.09.89.41,1,1.21,1,4.13,0,8.26,0,12.38,0,3.23,0,5.17,1.9,5.2,5.14q0,6.88,0,13.77c0,3.22-2,5.14-5.2,5.15Z" transform="translate(-1 -17.14)"/>
  <g>
    <path class="cls-6" d="M164.6,133.74A17.72,17.72,0,1,0,146.88,151a18,18,0,0,0,7.07-1.43l6.41,2.5a1.13,1.13,0,0,0,1.23-1l-1.18-6.18A17,17,0,0,0,164.6,133.74Z" transform="translate(-1 -17.14)"/>
    <path class="cls-7" d="M129.62,130c.51-2.2,5.25-2.17,8.1.75s6.77,2.17,10.15,4.14.65,5.17,3.33,8.61,4.89,4,2.79,6.2a18,18,0,0,1-11.06,1,17.2,17.2,0,0,1-6.56-2.94c-2.72-1.77-5.23-6-5.23-6A16.82,16.82,0,0,1,129.62,130Z" transform="translate(-1 -17.14)"/>
    <ellipse class="cls-5" cx="136.23" cy="116.6" rx="3.88" ry="3.78"/>
    <path class="cls-8" d="M149.87,133.74c0,.84-.15,2.51-2.68,2.62s-2.68-1.54-2.68-2.62a2.36,2.36,0,0,1,2.68-2.62A2.44,2.44,0,0,1,149.87,133.74Z" transform="translate(-1 -17.14)"/>
    <ellipse class="cls-5" cx="155.39" cy="116.21" rx="3.88" ry="3.78"/>
  </g>
  <g>
    <path class="cls-9" d="M57.75,55.18a10.19,10.19,0,0,1,3.07-4.72,12.47,12.47,0,0,0-8.77-22A12.58,12.58,0,0,0,40.24,40.67a12.38,12.38,0,0,0,4.47,9.85,9.7,9.7,0,0,1,3.18,4.69l9.86,0Z" transform="translate(-1 -17.14)"/>
    <g>
      <path class="cls-5" d="M51.6,55.38h.81L48.75,41.91H49a1.82,1.82,0,0,0,1.27-.54.83.83,0,0,1,.63-.28.82.82,0,0,1,.63.27,1.55,1.55,0,0,0,2.36,0,.82.82,0,0,1,.63-.27,1,1,0,0,1,.63.27,1.67,1.67,0,0,0,1.27.54h.27l-3.48,13.5H54l3.67-14.13c0-.18,0-.36-.19-.45a.4.4,0,0,0-.45.09.78.78,0,0,1-.54.27,1.17,1.17,0,0,1-.73-.26,1.55,1.55,0,0,0-1.17-.54,1.59,1.59,0,0,0-1.18.54.87.87,0,0,1-1.27,0A1.45,1.45,0,0,0,51,40.36h0a1.44,1.44,0,0,0-1.18.55,1,1,0,0,1-.72.27.67.67,0,0,1-.55-.27.4.4,0,0,0-.45-.09.33.33,0,0,0-.18.45Z" transform="translate(-1 -17.14)"/>
      <path class="cls-5" d="M54.47,55.92H51.18L47.41,41.46a.89.89,0,0,1,.45-1.13,1,1,0,0,1,1.09.19l.07.06v0l.08,0a.5.5,0,0,0,.31-.1A2,2,0,0,1,51,39.81a2,2,0,0,1,1.59.72.34.34,0,0,0,.47,0,2.1,2.1,0,0,1,1.56-.71,2.06,2.06,0,0,1,1.53.65c.21.14.28.16.38.15a.31.31,0,0,0,.15-.11,1,1,0,0,1,1.09-.19,1,1,0,0,1,.49.94v.07Zm-5-13.51,3.36,12.36L56,42.4a2.22,2.22,0,0,1-1.22-.67.48.48,0,0,0-.25-.11.27.27,0,0,0-.23.1,2.1,2.1,0,0,1-3.16,0,.27.27,0,0,0-.23-.1.28.28,0,0,0-.24.11A2.39,2.39,0,0,1,49.46,42.41Z" transform="translate(-1 -17.14)"/>
    </g>
    <path class="cls-10" d="M57.77,59.71V58.52a1,1,0,0,0,0-2V55.09l-9.86,0v1.45a1,1,0,1,0,0,2v1.18a1,1,0,0,0,0,2V62a1.62,1.62,0,0,0,1.64,1.62H50a3,3,0,0,0,5.53,0h.58A1.62,1.62,0,0,0,57.78,62v-.28a1,1,0,0,0,0-2Z" transform="translate(-1 -17.14)"/>
    <path class="cls-9" d="M39.21,26.46a.94.94,0,0,0-1.36,0,1,1,0,0,0,0,1.37l2.35,2.34a1,1,0,1,0,1.37-1.37Z" transform="translate(-1 -17.14)"/>
    <path class="cls-9" d="M65.41,26.37l-2.34,2.35a1,1,0,1,0,1.37,1.37l2.34-2.36a1,1,0,0,0-1.37-1.36Z" transform="translate(-1 -17.14)"/>
    <path class="cls-9" d="M52.28,17.14a1,1,0,0,0-1,1l0,3.31v3.33a1,1,0,0,0,1,1,.92.92,0,0,0,1-1V21.44h0V18.12A1,1,0,0,0,52.28,17.14Z" transform="translate(-1 -17.14)"/>
    <path class="cls-9" d="M75.11,39.82l-3.31,0H68.48a1,1,0,1,0,0,1.95h6.64" transform="translate(-1 -17.14)"/>
    <path class="cls-9" d="M28.62,41a1,1,0,0,0,1,1h6.64a1,1,0,0,0,1-1,.91.91,0,0,0-1-1H29.6a1,1,0,0,0-1,1" transform="translate(-1 -17.14)"/>
  </g>
</svg>
