<svg id="Calque_1" data-name="Calque 1" xmlns="http://www.w3.org/2000/svg" viewBox="0 0 179.92 133.65">
  <defs>
    <style>
      .cls-1 {
        fill: #f2f1f2;
      }

      .cls-2 {
        fill: #263239;
      }

      .cls-3, .cls-9 {
        fill: #fff;
      }

      .cls-16, .cls-4 {
        fill: #4aadd2;
      }

      .cls-4 {
        stroke: #4aadd2;
        stroke-miterlimit: 10;
      }

      .cls-5 {
        fill: #eee;
      }

      .cls-6, .cls-7 {
        fill: #d9dfe5;
      }

      .cls-6, .cls-9 {
        fill-rule: evenodd;
      }

      .cls-8 {
        fill: #e52454;
      }

      .cls-10 {
        fill: #4bb6aa;
      }

      .cls-11 {
        fill: #eabe2f;
      }

      .cls-12 {
        fill: #ef8119;
      }

      .cls-13 {
        fill: #d39f80;
      }

      .cls-14 {
        opacity: 0.4;
      }

      .cls-15 {
        fill: #ec9a6e;
      }

      .cls-17 {
        opacity: 0.2;
      }

      .cls-18 {
        fill: #e9bd2f;
      }

      .cls-19 {
        fill: #d7ebf9;
      }
    </style>
  </defs>
  <path class="cls-1" d="M2.92,107.41c2.34,12.72,9.08,21.05,26,32.05S57.31,152.74,93,152.74s55.71-7,71.29-22.66,25.56-52.39.56-71.46S133,29,108.09,27.08,67.74,35,50.29,44c-15.24,7.82-23.82,1.79-39.44,17.52S.59,94.69,2.92,107.41Z" transform="translate(-0.12 -22.73)"/>
  <g>
    <path class="cls-2" d="M105.23,156.35l-44.41-2.9a9.7,9.7,0,0,1-9-10.31L59,31.79a9.69,9.69,0,0,1,10.3-9l44.42,2.9a9.7,9.7,0,0,1,9,10.31l-7.25,111.35A9.69,9.69,0,0,1,105.23,156.35Z" transform="translate(-0.12 -22.73)"/>
    <path class="cls-3" d="M113.45,29.59,104.83,29a2.14,2.14,0,0,0-2.23,2l-.1,1.57a2.15,2.15,0,0,1-2.23,2l-16.79-1.1a2.16,2.16,0,0,1-2-2.33l.1-1.56a2.14,2.14,0,0,0-1.94-2.32l-3-.2-7.54-.49A6.79,6.79,0,0,0,61.9,33L54.83,141.71a6.78,6.78,0,0,0,6.33,7.21l44.33,2.91a6.79,6.79,0,0,0,7.21-6.34l7.08-108.68A6.79,6.79,0,0,0,113.45,29.59Z" transform="translate(-0.12 -22.73)"/>
  </g>
  <path class="cls-4" d="M63.16,37.8,118,41.35a1.66,1.66,0,0,0,1.75-1.42c.42-3.13.52-10.06-6.86-10.67l-7.9-.44a1.34,1.34,0,0,0-.44,0c-.68.15-2.35.8-2,3.6a1.86,1.86,0,0,1-1.84,2.12c-1.88.1-15.21-.89-17.5-1.06a1.62,1.62,0,0,1-.94-.39,2.65,2.65,0,0,1-.81-1.89,2,2,0,0,1,.07-.6c.24-.79.71-3.33-2.77-3.34l-10.35-.62h-.15a6.57,6.57,0,0,0-6.31,5.74,1,1,0,0,0,0,.16L61.61,36A1.67,1.67,0,0,0,63.16,37.8Z" transform="translate(-0.12 -22.73)"/>
  <path class="cls-5" d="M54.88,139.72s-1.44,8.88,5.54,9.64l46,3.14s7.19-.32,6.19-9.13l7.1-102.79L61.57,36.64Z" transform="translate(-0.12 -22.73)"/>
  <g>
    <rect class="cls-3" x="84.96" y="27.33" width="9.4" height="54.22" rx="0.96" transform="translate(29.41 117.67) rotate(-86.29)"/>
    <path class="cls-6" d="M114,54.14,75.22,51.62a.71.71,0,0,0-.75.66h0a.7.7,0,0,0,.65.75l38.76,2.52a.71.71,0,0,0,.75-.66h0A.71.71,0,0,0,114,54.14Z" transform="translate(-0.12 -22.73)"/>
    <path class="cls-6" d="M113.82,56.48,88.27,54.83a.7.7,0,0,0-.75.65h0a.7.7,0,0,0,.66.75l25.55,1.66a.71.71,0,0,0,.75-.66h0A.71.71,0,0,0,113.82,56.48Z" transform="translate(-0.12 -22.73)"/>
    <circle class="cls-7" cx="68.43" cy="30.35" r="3.45"/>
    <circle class="cls-8" cx="70.99" cy="32.84" r="1.14"/>
  </g>
  <circle class="cls-8" cx="71.2" cy="46.76" r="1.14"/>
  <path class="cls-9" d="M115.12,68.3,62.94,64.91a1.13,1.13,0,0,0-1,1.16l-.61,9.51a1.12,1.12,0,0,0,.88,1.29l52.19,3.38c.53,0,1-.49,1-1.16l.62-9.5A1.13,1.13,0,0,0,115.12,68.3Z" transform="translate(-0.12 -22.73)"/>
  <path class="cls-6" d="M112.85,71,74.1,68.46a.71.71,0,0,0-.75.66h0a.7.7,0,0,0,.65.75l38.76,2.51a.71.71,0,0,0,.75-.66h0A.72.72,0,0,0,112.85,71Z" transform="translate(-0.12 -22.73)"/>
  <path class="cls-6" d="M112.7,73.32,87.15,71.66a.71.71,0,0,0-.75.66h0a.71.71,0,0,0,.66.75l25.55,1.66a.71.71,0,0,0,.75-.66h0A.71.71,0,0,0,112.7,73.32Z" transform="translate(-0.12 -22.73)"/>
  <circle class="cls-7" cx="67.49" cy="47.2" r="3.45"/>
  <circle class="cls-8" cx="70.06" cy="49.68" r="1.14"/>
  <g>
    <rect class="cls-3" x="82.72" y="62.48" width="9.4" height="54.22" rx="0.96" transform="translate(-7.77 148.3) rotate(-86.29)"/>
    <path class="cls-6" d="M111.73,89.29,73,86.77a.71.71,0,0,0-.75.66h0a.71.71,0,0,0,.66.75l38.76,2.51a.69.69,0,0,0,.74-.65h0A.69.69,0,0,0,111.73,89.29Z" transform="translate(-0.12 -22.73)"/>
    <path class="cls-6" d="M111.57,91.63,86,90a.71.71,0,0,0-.75.66h0a.71.71,0,0,0,.66.75L111.48,93a.71.71,0,0,0,.75-.66h0A.71.71,0,0,0,111.57,91.63Z" transform="translate(-0.12 -22.73)"/>
    <circle class="cls-7" cx="66.19" cy="65.5" r="3.45"/>
    <circle class="cls-8" cx="68.75" cy="67.98" r="1.14"/>
  </g>
  <path class="cls-6" d="M111.27,74.15H72.43a.7.7,0,0,0-.7.7h0a.7.7,0,0,0,.7.71h38.84a.71.71,0,0,0,.71-.71h0A.71.71,0,0,0,111.27,74.15Z" transform="translate(-0.12 -22.73)"/>
  <path class="cls-9" d="M112.49,107.07l-52.18-3.39c-.53,0-1,.72-1.08,1.68l-.87,13.52c-.07,1,.31,1.77.84,1.8l52.19,3.39c.53,0,1-.72,1.08-1.68l.87-13.52C113.41,107.91,113,107.1,112.49,107.07Z" transform="translate(-0.12 -22.73)"/>
  <path class="cls-6" d="M110.39,110l-38.76-2.51a.7.7,0,0,0-.75.65h0a.71.71,0,0,0,.66.75l38.76,2.52a.71.71,0,0,0,.75-.66h0A.71.71,0,0,0,110.39,110Z" transform="translate(-0.12 -22.73)"/>
  <path class="cls-6" d="M110.24,112.38l-25.56-1.66a.7.7,0,0,0-.74.66h0a.7.7,0,0,0,.65.75l25.55,1.65a.7.7,0,0,0,.75-.65h0A.7.7,0,0,0,110.24,112.38Z" transform="translate(-0.12 -22.73)"/>
  <circle class="cls-7" cx="64.86" cy="85.97" r="3.45"/>
  <circle class="cls-10" cx="67.43" cy="88.45" r="1.14"/>
  <path class="cls-6" d="M110.13,115.47,71.37,113a.7.7,0,0,0-.75.65h0a.71.71,0,0,0,.66.75L110,116.88a.7.7,0,0,0,.74-.66h0A.7.7,0,0,0,110.13,115.47Z" transform="translate(-0.12 -22.73)"/>
  <path class="cls-6" d="M110,117.82l-25.55-1.66a.71.71,0,0,0-.75.66h0a.72.72,0,0,0,.66.75l25.55,1.65a.7.7,0,0,0,.75-.66h0A.7.7,0,0,0,110,117.82Z" transform="translate(-0.12 -22.73)"/>
  <path class="cls-6" d="M109.87,120.39l-38.76-2.51a.7.7,0,0,0-.75.65h0a.71.71,0,0,0,.66.75l38.76,2.52a.71.71,0,0,0,.75-.66h0A.71.71,0,0,0,109.87,120.39Z" transform="translate(-0.12 -22.73)"/>
  <g>
    <rect class="cls-3" x="79.89" y="105.14" width="9.4" height="54.22" rx="0.96" transform="translate(-52.98 185.38) rotate(-86.29)"/>
    <path class="cls-6" d="M108.9,132l-38.76-2.52a.71.71,0,0,0-.75.66h0a.71.71,0,0,0,.66.75l38.76,2.51a.7.7,0,0,0,.75-.65h0A.71.71,0,0,0,108.9,132Z" transform="translate(-0.12 -22.73)"/>
    <path class="cls-6" d="M108.75,134.29l-25.56-1.66a.7.7,0,0,0-.74.66h0a.69.69,0,0,0,.65.75l25.55,1.66a.71.71,0,0,0,.75-.66h0A.7.7,0,0,0,108.75,134.29Z" transform="translate(-0.12 -22.73)"/>
    <circle class="cls-7" cx="63.36" cy="108.16" r="3.45"/>
    <circle class="cls-11" cx="65.92" cy="110.64" r="1.14"/>
  </g>
  <path class="cls-12" d="M118.27,48.88,115,48.62A2.32,2.32,0,0,1,113.15,46h0a2.32,2.32,0,0,1,2.2-2.36l3.24.25c1.12.07.8,1.14.71,2.51h0C119.21,47.77,119.39,49,118.27,48.88Z" transform="translate(-0.12 -22.73)"/>
  <path class="cls-13" d="M91.05,122.72l2.82-3a4.28,4.28,0,0,0,1-1.66c.21-.68.46-1.42.75-2.23a8.63,8.63,0,0,1,2.19-3,14.87,14.87,0,0,1,2.8-1.86,1.65,1.65,0,0,1,.25-.15,1.47,1.47,0,0,0,.43-.34c.76-.77.11-2-1.38-2-1.13,0-3,.28-6.08,3.22l-.12.13c-1.64,2-2.86-3.9-3-6.06a2.27,2.27,0,0,0-3-1.89L80.28,107a3.38,3.38,0,0,0-2.12,0,2.16,2.16,0,0,0-1.49,2.49l4,11.88L75.8,150.47l12,.57Z" transform="translate(-0.12 -22.73)"/>
  <g class="cls-14">
    <path d="M72.57,113.45a13.17,13.17,0,0,0,2,3.27,4.39,4.39,0,0,0,3.32,1.61,2.7,2.7,0,0,0,2.64-2.28,1.59,1.59,0,0,0,2.06-.23,3.6,3.6,0,0,0,.86-2.07,2,2,0,0,0,2.57-.52,3.24,3.24,0,0,0,.49-2.73,9.16,9.16,0,0,0-1.16-2.62,3.55,3.55,0,0,0,1.89-.07,1.2,1.2,0,0,0,.72-1.54,1.5,1.5,0,0,0-.88-.65,6,6,0,0,0-2.7-.62c-.24,0,.24,2.76-6.5,6.07A54.73,54.73,0,0,1,72.57,113.45Z" transform="translate(-0.12 -22.73)"/>
  </g>
  <path class="cls-15" d="M87,118.34s-.44-.08-1.14-.11a6.45,6.45,0,0,0-4.92,2c-.49.51-.72.88-.75.87a1.25,1.25,0,0,1,.15-.28,5.41,5.41,0,0,1,.51-.67,6.16,6.16,0,0,1,2.28-1.59,6,6,0,0,1,2.74-.43,5,5,0,0,1,.83.13A1,1,0,0,1,87,118.34Z" transform="translate(-0.12 -22.73)"/>
  <g>
    <path class="cls-16" d="M93.57,119.09c.07.32-.15.55-.27.81-1.2,2.57-2.35,5.17-3.65,7.69A5,5,0,0,0,94.54,135s.08.05.12.08l2-.7c1.55-1.27,2.19-3.12,3-4.85q3.57-7.51,7.13-15l-.84-.44-8-3.81-.1,0c-.46,1-.89,2-1.37,3-.24.49-.33,1.07-.82,1.41A18,18,0,0,1,93.57,119.09Z" transform="translate(-0.12 -22.73)"/>
    <path class="cls-16" d="M108.29,88.08c-.1-.25-.34-.33-.55-.43A50,50,0,0,1,93.23,77.43,52.89,52.89,0,0,1,85.1,66.84c-1-1.68-2-3.35-3-5,0-.08-.16-.12-.25-.18A6.86,6.86,0,0,1,81,65.23q-4.35,9.1-8.64,18.27c-.13.26-.22.53-.33.8.15.37.52.43.82.57l29.41,13.91c.26.12.54.21.81.31.55-1.13,1.11-2.27,1.65-3.41C105.94,93.15,107.11,90.61,108.29,88.08Z" transform="translate(-0.12 -22.73)"/>
    <path class="cls-16" d="M103.1,99.09c-.27-.1-.55-.19-.81-.31L72.88,84.87c-.3-.14-.67-.2-.82-.57l-.12.07c-.11.27-.21.55-.33.81-2.94,6.23-5.9,12.45-8.82,18.69a5.69,5.69,0,0,1-2.15,2.57c4.57-.61,9.11-1.48,13.74-1.49A53.73,53.73,0,0,1,88,106.69a2.42,2.42,0,0,1,.49.23,19.77,19.77,0,0,1,4.75,1.45,22.7,22.7,0,0,1,4.54,1.93l.1,0,5.22-11Z" transform="translate(-0.12 -22.73)"/>
    <path class="cls-17" d="M103.1,99.09c-.27-.1-.55-.19-.81-.31L72.88,84.87c-.3-.14-.67-.2-.82-.57l-.12.07c-.11.27-.21.55-.33.81-2.94,6.23-5.9,12.45-8.82,18.69a5.69,5.69,0,0,1-2.15,2.57c4.57-.61,9.11-1.48,13.74-1.49A53.73,53.73,0,0,1,88,106.69a2.42,2.42,0,0,1,.49.23,19.77,19.77,0,0,1,4.75,1.45,22.7,22.7,0,0,1,4.54,1.93l.1,0,5.22-11Z" transform="translate(-0.12 -22.73)"/>
    <path class="cls-18" d="M103.1,99.09l0,.15a34.51,34.51,0,0,1,4.34,2.07l.13-.06a2.36,2.36,0,0,1,3.19-1.2q2.33,1,4.59,2.17a2.34,2.34,0,0,1,1.11,3.09l-.07.35c.35-.12.61.1.89.23,2.42,1.13,4.83,2.28,7.25,3.42a1.64,1.64,0,0,0,.81.28c.69-1.44,1.39-2.86,2.06-4.31a7.27,7.27,0,0,0-3.57-10c-3.86-1.85-7.73-3.66-11.59-5.48-1.08-.51-2.15-1-3.24-1.53-.23-.11-.45-.3-.74-.22-1.18,2.53-2.35,5.07-3.54,7.6C104.21,96.82,103.65,98,103.1,99.09Z" transform="translate(-0.12 -22.73)"/>
    <path class="cls-18" d="M125.37,109.59a1.64,1.64,0,0,1-.81-.28c-2.42-1.14-4.83-2.29-7.25-3.42-.28-.13-.54-.35-.89-.23a2.54,2.54,0,0,1-3.54.84l-3.72-1.76c-1.66-.79-2.09-1.66-1.69-3.43a34.51,34.51,0,0,0-4.34-2.07l-5.22,11,8,3.81.84.44,6.26,2.92c4.28,2,8.49.49,10.51-3.81C124.15,112.29,124.86,111,125.37,109.59Z" transform="translate(-0.12 -22.73)"/>
    <path class="cls-18" d="M60.64,106.44a5.69,5.69,0,0,0,2.15-2.57c2.92-6.24,5.88-12.46,8.82-18.69.12-.26.22-.54.33-.81-1.45-.83-3-1.47-4.51-2.19s-2.84-1.44-4.34-2c-.12.2-.25.4-.36.61l-9,19c-1.21,2.58-.66,5.13,1.53,6.55A5,5,0,0,0,60.64,106.44Z" transform="translate(-0.12 -22.73)"/>
    <path class="cls-17" d="M125.37,109.59a1.64,1.64,0,0,1-.81-.28c-2.42-1.14-4.83-2.29-7.25-3.42-.28-.13-.54-.35-.89-.23a2.54,2.54,0,0,1-3.54.84l-3.72-1.76c-1.66-.79-2.09-1.66-1.69-3.43a34.51,34.51,0,0,0-4.34-2.07l-5.22,11,8,3.81.84.44,6.26,2.92c4.28,2,8.49.49,10.51-3.81C124.15,112.29,124.86,111,125.37,109.59Z" transform="translate(-0.12 -22.73)"/>
    <path class="cls-17" d="M60.64,106.44a5.69,5.69,0,0,0,2.15-2.57c2.92-6.24,5.88-12.46,8.82-18.69.12-.26.22-.54.33-.81-1.45-.83-3-1.47-4.51-2.19s-2.84-1.44-4.34-2c-.12.2-.25.4-.36.61l-9,19c-1.21,2.58-.66,5.13,1.53,6.55A5,5,0,0,0,60.64,106.44Z" transform="translate(-0.12 -22.73)"/>
    <path class="cls-18" d="M63.09,80.2c1.5.54,2.9,1.31,4.34,2s3.06,1.36,4.51,2.19l.12-.07c.11-.27.2-.54.33-.8Q76.7,74.35,81,65.23a6.86,6.86,0,0,0,.81-3.59,5.74,5.74,0,0,0-1.52-2.91A4.77,4.77,0,0,0,72.65,60C69.41,66.69,66.27,73.45,63.09,80.2Z" transform="translate(-0.12 -22.73)"/>
    <path class="cls-16" d="M93.27,108.37a19.77,19.77,0,0,0-4.75-1.45c-.25.58-.53,1.15-.76,1.74a7.36,7.36,0,0,0,3.36,9.27c.8.42,1.63.77,2.45,1.16a18,18,0,0,0,2.05-4.43c-.68-.33-1.37-.65-2.05-1a2.46,2.46,0,0,1-1.18-3.35C92.68,109.66,93,109,93.27,108.37Z" transform="translate(-0.12 -22.73)"/>
    <path class="cls-16" d="M46.92,70.41a2.44,2.44,0,0,0-1.87,2.13,2.25,2.25,0,0,0,1.24,2.39c2.3,1.14,4.63,2.24,7,3.3a2.44,2.44,0,0,0,2.1-4.39c-2.3-1.14-4.64-2.22-7-3.31A2.07,2.07,0,0,0,46.92,70.41Z" transform="translate(-0.12 -22.73)"/>
    <path class="cls-16" d="M58.44,66.69c.3.84.55,1.72.92,2.53a2.43,2.43,0,0,0,4.55-1.62,36.79,36.79,0,0,0-1.81-5.1,2.44,2.44,0,0,0-4.55,1.72c.23.84.58,1.65.87,2.47Z" transform="translate(-0.12 -22.73)"/>
    <path class="cls-16" d="M49.46,85.58c-.8.29-1.61.55-2.4.87a2.4,2.4,0,0,0-1.45,2.91,2.36,2.36,0,0,0,2.83,1.72,31.4,31.4,0,0,0,5.31-1.9,2.38,2.38,0,0,0,1.14-3.11,2.43,2.43,0,0,0-3-1.34c-.8.26-1.6.56-2.4.85Z" transform="translate(-0.12 -22.73)"/>
    <path class="cls-19" d="M107.47,101.31c-.4,1.77,0,2.64,1.69,3.43l3.72,1.76a2.54,2.54,0,0,0,3.54-.84l.07-.35a.66.66,0,0,1-.53-.07l-8.36-4Z" transform="translate(-0.12 -22.73)"/>
    <path class="cls-19" d="M107.6,101.25l8.36,4a.66.66,0,0,0,.53.07,2.34,2.34,0,0,0-1.11-3.09q-2.26-1.14-4.59-2.17A2.36,2.36,0,0,0,107.6,101.25Z" transform="translate(-0.12 -22.73)"/>
  </g>
  <path class="cls-13" d="M73.11,111.75c1,1.07,1.62,2.23,2.66,3.31.47.49,1.18,1.41,1.84,1.57s1.1.1,1.4-.51-.09-1.2-.33-1.64c-.62-1.14-1.24-2-1.71-2.93-.22-.41.11-.48.21-.28.47.55,1.19,1,1.61,1.65.56.82.61,1.86,2.25,1.64a1.36,1.36,0,0,0,.61-.22,1.61,1.61,0,0,0,.51-1.89,5.39,5.39,0,0,0-.81-1.42,4,4,0,0,0,2.42,1.84,1.49,1.49,0,0,0,1.58-.73,2,2,0,0,0-.47-2.06,20.83,20.83,0,0,0-2.57-3,2,2,0,0,0-1.3-.58,2,2,0,0,0-1.66.49,2.21,2.21,0,0,0-.55,1.65,2.8,2.8,0,0,0-2.56-.13,3.64,3.64,0,0,0-1.56,2Z" transform="translate(-0.12 -22.73)"/>
  <path class="cls-13" d="M81.05,106.21a1.71,1.71,0,0,1-.07-1.94c.27-.45.6-.89.92-1,1.38-.37,7.21,1,7.07,2.34s-.61,1.91-3.78,1.24l-1.43-.29-.85,1.11Z" transform="translate(-0.12 -22.73)"/>
  <path class="cls-15" d="M81.75,111.76a10.61,10.61,0,0,0-1.3-1.8,10.42,10.42,0,0,0-1.76-1.36,1.79,1.79,0,0,1,.61.26,5.72,5.72,0,0,1,1.27,1,5.21,5.21,0,0,1,.94,1.3A1.7,1.7,0,0,1,81.75,111.76Z" transform="translate(-0.12 -22.73)"/>
  <path class="cls-15" d="M83,107.8s-.4-.32-.91-.68c-.26-.18-.49-.33-.67-.43s-.3-.12-.29-.15.14,0,.34,0a3.22,3.22,0,0,1,.71.39A2.32,2.32,0,0,1,83,107.8Z" transform="translate(-0.12 -22.73)"/>
  <path class="cls-15" d="M84.08,106.65a2.7,2.7,0,0,1-1.13-.21,2.16,2.16,0,0,1-.7-.42c-.16-.15-.22-.27-.2-.28a5.25,5.25,0,0,0,1,.55A6.87,6.87,0,0,1,84.08,106.65Z" transform="translate(-0.12 -22.73)"/>
  <path class="cls-15" d="M77.9,113.13a3.52,3.52,0,0,1-.49-.73,6.26,6.26,0,0,0-1.28-1.65,2.77,2.77,0,0,0-1.92-.65,3.26,3.26,0,0,0-.83.21s.06-.06.19-.14a2.06,2.06,0,0,1,.63-.19,2.77,2.77,0,0,1,2,.64,5.55,5.55,0,0,1,1.27,1.72A6,6,0,0,1,77.9,113.13Z" transform="translate(-0.12 -22.73)"/>
  <path class="cls-15" d="M85.06,124.58a19.35,19.35,0,0,1-2.64.2,18.91,18.91,0,0,1-2.66,0,18.42,18.42,0,0,1,2.65-.21A19.64,19.64,0,0,1,85.06,124.58Z" transform="translate(-0.12 -22.73)"/>
</svg>
