<svg xmlns="http://www.w3.org/2000/svg" viewBox="0 0 458.08 495.88"><defs><style>.a{fill:#dedede;opacity:0.4;}.b,.f,.h{fill:#4d70b5;}.c,.e{fill:#fff;}.c{opacity:0.8;}.d{fill:#233552;}.f{opacity:0.1;}.g{fill:#2c4a8b;}.h{opacity:0.2;}.i{fill:#4eacd2;}.j{fill:#e4e4e3;}.k{fill:#fdfdfd;}.l{fill:#243985;}.m{fill:#f5f3f2;}.n{fill:#ebbf30;}.o{fill:#243553;}.p{fill:#dfc9c6;}.q{fill:#e7e0df;}.r{fill:#d1ddd7;}.s{fill:#d1ded8;}.t{fill:#dcb7b6;}.u{fill:#f7f2f2;}.v{fill:#ece4e1;}.w{fill:#ebe0df;}.x{fill:#4cacd3;}.y{fill:#233a85;}.z{fill:#d7cdc9;}.aa{fill:#d1c5da;}</style></defs><path class="a" d="M472.86,267.36c0,85.36-16.77,107.39-55.88,149.92S309.85,490.92,243.82,496.4,124.59,472.24,96.33,442.6,14.78,337.67,14.78,267.36c0-55.47,12.91-93.33,52.53-146C106.75,69,159.49,38.31,243.82,38.31s160.33,57.62,180.29,87.77S472.86,182,472.86,267.36Z" transform="translate(-14.78 -1.18)"/><path class="b" d="M341.71,491.33H134.48a27.78,27.78,0,0,1-28-29.71L131.78,30.89c1-16.35,15.11-29.71,31.45-29.71H370.46a27.78,27.78,0,0,1,28,29.71L373.16,461.62C372.21,478,358.05,491.33,341.71,491.33Z" transform="translate(-14.78 -1.18)"/><path class="c" d="M341.71,491.33H134.48a27.78,27.78,0,0,1-28-29.71L131.78,30.89c1-16.35,15.11-29.71,31.45-29.71H370.46a27.78,27.78,0,0,1,28,29.71L373.16,461.62C372.21,478,358.05,491.33,341.71,491.33Z" transform="translate(-14.78 -1.18)"/><path class="d" d="M340.48,482.71H139a19.52,19.52,0,0,1-19.65-20.88L144.53,33a22.5,22.5,0,0,1,22.1-20.88H368.08A19.53,19.53,0,0,1,387.74,33L362.59,461.83A22.51,22.51,0,0,1,340.48,482.71Z" transform="translate(-14.78 -1.18)"/><path class="e" d="M338.31,480.4H136.86a19.53,19.53,0,0,1-19.66-20.88L142.36,30.67a22.5,22.5,0,0,1,22.1-20.88H365.91a19.53,19.53,0,0,1,19.66,20.88L360.41,459.52A22.49,22.49,0,0,1,338.31,480.4Z" transform="translate(-14.78 -1.18)"/><path class="f" d="M332.43,464.46H144.61a12.07,12.07,0,0,1-12.15-12.91L143,272.67a13.92,13.92,0,0,1,13.67-12.91H344.43a12.07,12.07,0,0,1,12.15,12.91L346.09,451.55A13.9,13.9,0,0,1,332.43,464.46Z" transform="translate(-14.78 -1.18)"/><path class="f" d="M290.7,41.6H236A4.32,4.32,0,0,1,231.6,37h0a5,5,0,0,1,4.89-4.62h54.75A4.32,4.32,0,0,1,295.59,37h0A5,5,0,0,1,290.7,41.6Z" transform="translate(-14.78 -1.18)"/><path class="d" d="M343.58,31.51h22.18a2.42,2.42,0,0,0,2.38-2.25h0A2.1,2.1,0,0,0,366,27H343.84a2.44,2.44,0,0,0-2.38,2.25h0A2.1,2.1,0,0,0,343.58,31.51Z" transform="translate(-14.78 -1.18)"/><path class="d" d="M343.13,39.23h22.18A2.42,2.42,0,0,0,367.69,37h0a2.1,2.1,0,0,0-2.12-2.25H343.39A2.42,2.42,0,0,0,341,37h0A2.1,2.1,0,0,0,343.13,39.23Z" transform="translate(-14.78 -1.18)"/><path class="d" d="M163.72,39.23H185.9A2.42,2.42,0,0,0,188.28,37h0a2.1,2.1,0,0,0-2.12-2.25H164A2.42,2.42,0,0,0,161.6,37h0A2.1,2.1,0,0,0,163.72,39.23Z" transform="translate(-14.78 -1.18)"/><path class="d" d="M342.67,47h22.19a2.43,2.43,0,0,0,2.38-2.25h0a2.1,2.1,0,0,0-2.12-2.25H342.94a2.42,2.42,0,0,0-2.38,2.25h0A2.1,2.1,0,0,0,342.67,47Z" transform="translate(-14.78 -1.18)"/><path class="e" d="M313.53,329.34H179.36a18.16,18.16,0,0,1-18.29-19.43h0a20.93,20.93,0,0,1,20.57-19.43H315.81a18.16,18.16,0,0,1,18.29,19.43h0A20.93,20.93,0,0,1,313.53,329.34Z" transform="translate(-14.78 -1.18)"/><path class="e" d="M310.47,381.54H176.3A18.16,18.16,0,0,1,158,362.11h0a20.93,20.93,0,0,1,20.57-19.43H312.75A18.18,18.18,0,0,1,331,362.11h0A20.93,20.93,0,0,1,310.47,381.54Z" transform="translate(-14.78 -1.18)"/><path class="e" d="M307.41,433.74H173.24A18.16,18.16,0,0,1,155,414.31h0a20.92,20.92,0,0,1,20.56-19.43H309.69A18.18,18.18,0,0,1,328,414.31h0A20.94,20.94,0,0,1,307.41,433.74Z" transform="translate(-14.78 -1.18)"/><ellipse class="g" cx="183.01" cy="309.91" rx="10.3" ry="9.72" transform="translate(-178.96 213.9) rotate(-44.16)"/><path class="g" d="M181.82,352.64l1.33,5a1.31,1.31,0,0,0,1.27,1h5.24a1.35,1.35,0,0,1,.67,2.51l-4.43,3.08a1.47,1.47,0,0,0-.59,1.55l1.33,5a1.46,1.46,0,0,1-2.23,1.55l-4.06-3.09a1.4,1.4,0,0,0-1.63,0l-4.42,3.09a1.33,1.33,0,0,1-2.05-1.55l1.92-5a1.34,1.34,0,0,0-.42-1.55l-4.06-3.08a1.43,1.43,0,0,1,1-2.51h5.25a1.49,1.49,0,0,0,1.37-1l1.92-5A1.38,1.38,0,0,1,181.82,352.64Z" transform="translate(-14.78 -1.18)"/><path class="g" d="M185.51,409l-.82,14a2.36,2.36,0,0,1-2.31,2.18H170.12a2,2,0,0,1-2.05-2.18l1-17.44a2.34,2.34,0,0,1,2.31-2.18h8.82Z" transform="translate(-14.78 -1.18)"/><path class="e" d="M180.22,403.41l5.29,5.62h-3.44a2,2,0,0,1-2.06-2.18l.21-3.44m-1.41-3.86-.22,3.76-.2,3.44a3.66,3.66,0,0,0,3.68,3.91h7.2l-2.58-2.75-5.29-5.62-2.59-2.74Z" transform="translate(-14.78 -1.18)"/><path class="h" d="M309,307.86H208.63a3,3,0,0,1-3-3.17h0a3.4,3.4,0,0,1,3.35-3.16H309.39a3,3,0,0,1,3,3.16h0A3.42,3.42,0,0,1,309,307.86Z" transform="translate(-14.78 -1.18)"/><path class="h" d="M290,318.3H208a3,3,0,0,1-3-3.17h0a3.4,3.4,0,0,1,3.35-3.16h82a3,3,0,0,1,3,3.16h0A3.41,3.41,0,0,1,290,318.3Z" transform="translate(-14.78 -1.18)"/><path class="h" d="M305.71,364.17H278a3.4,3.4,0,0,0-3.35,3.16h0a2.94,2.94,0,0,0,3,3.16h27.7a3.4,3.4,0,0,0,3.35-3.16h0A3,3,0,0,0,305.71,364.17Z" transform="translate(-14.78 -1.18)"/><path class="h" d="M261.83,364.17H205.32a3.41,3.41,0,0,0-3.35,3.16h0a3,3,0,0,0,3,3.16h56.51a3.41,3.41,0,0,0,3.35-3.16h0A3,3,0,0,0,261.83,364.17Z" transform="translate(-14.78 -1.18)"/><path class="h" d="M287.91,353.73h-82a3.4,3.4,0,0,0-3.35,3.16h0a2.94,2.94,0,0,0,3,3.16h82a3.4,3.4,0,0,0,3.35-3.16h0A3,3,0,0,0,287.91,353.73Z" transform="translate(-14.78 -1.18)"/><rect class="h" x="184.13" y="415.19" width="106.72" height="6.33" rx="3.16"/><path class="h" d="M284.85,405.93h-82a3.41,3.41,0,0,0-3.35,3.16h0a3,3,0,0,0,3,3.16h82a3.4,3.4,0,0,0,3.35-3.16h0A3,3,0,0,0,284.85,405.93Z" transform="translate(-14.78 -1.18)"/><ellipse class="f" cx="256.57" cy="156.67" rx="85.11" ry="80.26" transform="translate(-51.42 221.85) rotate(-44.16)"/><ellipse class="i" cx="256.57" cy="156.67" rx="74.16" ry="69.93" transform="translate(-51.42 221.85) rotate(-44.16)"/><path class="j" d="M204.6,206.88l-.4-.2V196.13c.49-.78,1.22-.7,2-.54a8.25,8.25,0,0,0,1.57.06h32.41a2.89,2.89,0,0,1,1.64.2c.38.45.26,1,.27,1.51,0,1,0,2,0,3s-.22,1.22-1.21,1.25-2.16,0-3.24,0a1.51,1.51,0,0,0-1.11.27c-.38.37-.3.86-.31,1.31,0,1,0,1.92,0,2.88,0,.53-.17.94-.87.93H204.88A.66.66,0,0,1,204.6,206.88Z" transform="translate(-14.78 -1.18)"/><path class="j" d="M204.2,144.79c.58-.34,1.21-.14,1.82-.21a2.34,2.34,0,0,1,1.42-.31H228a3.23,3.23,0,0,1,1.07.12.85.85,0,0,1,.32.21,10.42,10.42,0,0,1,.19,3c-.09.74.22,1.54-.29,2.23a2.56,2.56,0,0,1-1.54.21c-5.51,0-11,0-16.55.1-2.14-.16-4.3,0-6.45-.14a.83.83,0,0,1-.57-.43Z" transform="translate(-14.78 -1.18)"/><path class="k" d="M204.2,149.57l.4.2c1.7.29,1.7.29,1.7,2.14,0,2,0,4,0,6,0,2.65,0,5.3,0,7.95s0,5.3,0,8,0,5.31,0,8,0,5.39,0,8.08c0,.62,0,1.25,0,1.87a15.06,15.06,0,0,1-.18,3.85,1.59,1.59,0,0,0-.13.13,3,3,0,0,0-1.76.41Z" transform="translate(-14.78 -1.18)"/><path class="l" d="M207.81,140.42q4.49-10.74,9-21.48a2.73,2.73,0,0,1,1.86-1.64,2.69,2.69,0,0,1,1-.06h33.8c.34,0,.85-.22,1,.18s-.37.66-.68.89l-16.6,12.36c-3.15,2.35-6.31,4.68-9.45,7.05-.82.63-.81.73-.26,1.62.23.37.76.76.13,1.25a2.88,2.88,0,0,1-1.17.14q-8.58,0-17.17,0A1.8,1.8,0,0,1,207.81,140.42Z" transform="translate(-14.78 -1.18)"/><path class="l" d="M285.71,117.14h4.12c.35,0,.72-.09,1,.16-.3.35-.71.28-1.1.29-.89,0-1.78,0-2.66,0-.65,0-.83.24-.57.85.66,1.55,1.31,3.11,2,4.66,1.21,2.86,2.4,5.73,3.62,8.59a6.34,6.34,0,0,1-1.36,7.47,5.48,5.48,0,0,1-3.76,1.51c-1.34,0-2.69,0-4,0a1.58,1.58,0,0,1-1-.21c-.25-.45.08-.75.29-1.07.62-1,.62-1-.32-1.75-3.12-2.39-6.29-4.71-9.44-7.06q-8.22-6.12-16.45-12.24a2.11,2.11,0,0,1-.23-.19c-.23-.22-.64-.41-.5-.77s.53-.15.81-.15h28.47A2.4,2.4,0,0,0,285.71,117.14Z" transform="translate(-14.78 -1.18)"/><path class="j" d="M303.68,195.73c1.78.06,1.79.08,1.79,1.89v8.13c0,.42.11.88-.39,1.13a1.89,1.89,0,0,1-1,.09H274.87c-1.23,0-1.33-.08-1.36-1.34,0-.86,0-1.72,0-2.58,0-.42,0-.87-.33-1.2a1.81,1.81,0,0,0-1.32-.26c-1.05,0-2.1,0-3.15,0-.44,0-1-.07-1-.6a15.53,15.53,0,0,1,.14-5.09,1.58,1.58,0,0,1,1-.22h34.3a1.53,1.53,0,0,1,.3,0Z" transform="translate(-14.78 -1.18)"/><path class="m" d="M285.71,117.14c-.35.28-.76.16-1.14.16H255.22a25,25,0,0,0,2.86,2.26q12.23,9.09,24.45,18.18c.58.44.76.82.2,1.44a2.93,2.93,0,0,0-.82,1.22,4.2,4.2,0,0,1-1.54,2.07.86.86,0,0,1-.55-.09,11.48,11.48,0,0,1-2-1.32c-7.22-5.41-14.48-10.76-21.69-16.16-1.31-1-1.32-1-2.61,0-5.88,4.44-11.81,8.8-17.73,13.2-2,1.49-3.94,3.1-6.07,4.44a.67.67,0,0,1-.42,0,4.22,4.22,0,0,1-1.56-2.11,3.13,3.13,0,0,0-.82-1.22c-.56-.62-.39-1,.2-1.44q5.44-4,10.86-8.07l16-11.92.54-.45H218.65c.25-.25.56-.17.85-.17h66.21Z" transform="translate(-14.78 -1.18)"/><path class="n" d="M303.68,190v5.74c-.26.21-.57.12-.86.12H281.26c-1.11,0-1.19-.05-1.18-1.17a8.88,8.88,0,0,1,.16-2.86c.38-.42.9-.34,1.39-.35h5.43c5.18,0,8.16-3,8.21-8.2,0-4,0-8,0-11.94V151.92c0-.44,0-.87,0-1.3a.87.87,0,0,1,.95-.91,4.06,4.06,0,0,1,2.13.2,2.34,2.34,0,0,1,.27,1.44c0,1.65,0,3.31,0,5,0,1.16.16,1.29,1.33,1.3h2.47a1.62,1.62,0,0,1,1.2.32v7.91a1.45,1.45,0,0,1-1.19.34c-.92,0-1.84,0-2.76,0-.57,0-.85.25-.85.84,0,1.88,0,3.77,0,5.65,0,.59.28.84.85.84.92,0,1.84,0,2.76,0a1.54,1.54,0,0,1,1.2.33q0,4,0,7.92a1.76,1.76,0,0,1-1.31.32c-.89,0-1.78,0-2.66,0-.57,0-.85.25-.85.84q0,2.92,0,5.85c0,.59.28.83.85.84.88,0,1.77,0,2.66,0A1.79,1.79,0,0,1,303.68,190Z" transform="translate(-14.78 -1.18)"/><path class="o" d="M280.33,142.39l1.58-2,5,0a5.75,5.75,0,0,0,5.5-4.88c.29-1.89-.46-3.48-1.14-5.1q-2.58-6.16-5.22-12.3c-.27-.64-.12-.82.54-.81,1.41,0,2.83,0,4.24,0a2.63,2.63,0,0,1,2.17,1.91q2.76,6.57,5.51,13.13,2.56,6.12,5.11,12.23a1.6,1.6,0,0,1-1.3.33H281.6a2.14,2.14,0,0,1-1.24-.23A2.34,2.34,0,0,1,280.33,142.39Z" transform="translate(-14.78 -1.18)"/><path class="m" d="M273.43,201.5c.42.19.39.57.39.94v3.08c0,1.36,0,1.36,1.31,1.36h29.95c-.3.32-.69.19-1,.19q-49.21,0-98.43,0c-.34,0-.73.13-1-.19h29.94c1.31,0,1.31,0,1.31-1.36v-3.08c0-.37,0-.75.39-.94a.71.71,0,0,1,.38-.09c10.11-.27,20.22-.24,30.33-.13A56.13,56.13,0,0,1,273.43,201.5Z" transform="translate(-14.78 -1.18)"/><path class="j" d="M280.35,144.6l23.3,0c1.85.06,1.84-.3,1.82,1.82,0,.77,0,1.53,0,2.29s-.24,1.18-1.07,1.08a.75.75,0,0,0-.73.2,19.16,19.16,0,0,1-5.4-.1c-5.44.31-10.88.21-16.32.22a2.79,2.79,0,0,1-1.63-.25c-.51-1-.21-2.08-.24-3.13A3.09,3.09,0,0,1,280.35,144.6Z" transform="translate(-14.78 -1.18)"/><path class="o" d="M227.77,140.4l1.57,2a2.21,2.21,0,0,1,0,2.21l-23.3,0,1.79-4.16Z" transform="translate(-14.78 -1.18)"/><path class="j" d="M298.35,149.77h4.2a1.92,1.92,0,0,1,1.13.2c0,2.66,0,5.31,0,8l-3.84,0c-1.44,0-1.44,0-1.44-1.5l0-6.45c-.07,0-.1-.07-.08-.12S298.32,149.77,298.35,149.77Z" transform="translate(-14.78 -1.18)"/><path class="j" d="M303.68,190c-1.42,0-2.83-.05-4.25,0-.66,0-.93-.16-.92-.89q.06-3.18,0-6.36c0-.72.25-.9.92-.88,1.42,0,2.83,0,4.25,0Z" transform="translate(-14.78 -1.18)"/><path class="j" d="M303.67,173.87c-1.41,0-2.83-.05-4.24,0-.66,0-.93-.14-.92-.87.05-2.09,0-4.17,0-6.25,0-.72.24-.91.91-.89,1.41,0,2.83,0,4.24,0C303.66,168.52,303.67,171.2,303.67,173.87Z" transform="translate(-14.78 -1.18)"/><path class="p" d="M241.81,196l-23.29,0H207.07c-.37,0-.8.14-1.11-.21h0a2.2,2.2,0,0,1,1.6-.31h19.34c2.21,0,2.06.12,2.06-2,0-1.46,0-2.92,0-4.37a2.56,2.56,0,0,1,.21-1.36.25.25,0,0,1,.33-.1c.47.72.23,1.52.27,2.28a14.27,14.27,0,0,1,0,1.85c0,.95,0,1.91,0,2.86,0,.62.26.9.89.88.84,0,1.7,0,2.54,0,.69,0,.92-.33.92-1,0-.92,0-1.84,0-2.76s0-2.08,0-3.12a1.44,1.44,0,0,1,.27-1c.65.07.51.61.52,1,.05,1.06.05,2.11,0,3.17.05.79,0,1.58,0,2.37,0,1.22.08,1.3,1.27,1.31h10.33a3,3,0,0,1,1.63.21.27.27,0,0,1,.08.34,1.1,1.1,0,0,1-.74.24c-1.8,0-3.61.12-5.42-.06A1.07,1.07,0,0,1,241.81,196Z" transform="translate(-14.78 -1.18)"/><path class="q" d="M241.81,196H242c.5.71.27,1.53.29,2.31.06,3.08-.4,2.7,2.66,2.71h21.11c1.22,0,1.3-.1,1.32-1.29,0-.83,0-1.65,0-2.48a2.59,2.59,0,0,1,.18-1.17.21.21,0,0,1,.31-.09c0,1.49.05,3,0,4.46,0,.68.19.93.89.9,1.24,0,2.49,0,3.74,0,.31,0,.66-.1.92.19H236.24a9.34,9.34,0,0,1,3.29-.18c2.25,0,2.25,0,2.25-2.29C241.78,198,241.8,197,241.81,196Z" transform="translate(-14.78 -1.18)"/><path class="n" d="M206,191.76l0-1.77a1.56,1.56,0,0,1,1.21-.33c.92,0,1.84,0,2.76,0,.57,0,.85-.25.85-.83,0-2,0-3.91,0-5.87,0-.58-.28-.83-.85-.83-.92,0-1.84,0-2.76,0a1.63,1.63,0,0,1-1.21-.32v-7.91a1.48,1.48,0,0,1,1.19-.34c.93,0,1.85,0,2.77,0,.57,0,.85-.25.85-.83q0-2.83,0-5.67c0-.59-.29-.83-.85-.83-.93,0-1.85,0-2.77,0-.42,0-.87,0-1.18-.36l0-7.9c.26-.49.73-.49,1.19-.5.88,0,1.77,0,2.65,0,.71,0,1-.3,1-1,0-1.68,0-3.36,0-5,0-.48-.08-1,.32-1.4a2.07,2.07,0,0,1,1.25-.18l16,0c.33,0,.65,0,1-.06,0,.06,0,.12,0,.18a.51.51,0,0,1-.25.25,42.15,42.15,0,0,1-5.62.12c-2.17,0-2-.08-2,2,0,.9,0,1.79,0,2.69a.42.42,0,0,1-.16.27c-.44.22-.9,0-1.35.06-2,.28-3.09,1.47-3.45,3.73,0,.92,0,1.83,0,2.74s0,2,0,3,.17,1.25,1.25,1.28c.75,0,1.5,0,2.25,0a1.61,1.61,0,0,1,1.2.31.87.87,0,0,1,.21.54,70.62,70.62,0,0,1-.07,7.56c-.19.44-.59.46-1,.5-2.44.21-3.38,1.08-3.84,3.56,0,.92,0,1.85,0,2.77s0,2.11,0,3.16c0,.8.34,1.11,1.12,1.1q1.66,0,3.33,0a7.8,7.8,0,0,1,2.68.19c.24.63-.34.58-.58.54-1.51-.24-2,.68-2.68,1.86A7.32,7.32,0,0,1,214,192c-2.34.11-4.68,0-7,0A1.14,1.14,0,0,1,206,191.76Z" transform="translate(-14.78 -1.18)"/><path class="j" d="M211.14,150c0,2.29,0,4.58,0,6.86,0,.76-.24.95-1,.95a18.6,18.6,0,0,0-4.22.14c0-2.25,0-4.5,0-6.75,0-.78,0-1.41-1.06-1.24-.1,0-.22-.11-.33-.17,1.84,0,3.68,0,5.52,0C210.47,149.77,210.86,149.65,211.14,150Z" transform="translate(-14.78 -1.18)"/><path class="r" d="M229.32,144.6c0-.74,0-1.47,0-2.21h.35a5.19,5.19,0,0,1,2-.33q23.16,0,46.32,0c.63,0,1.24.11,1.87.16l.42.16c0,.74,0,1.47,0,2.21v5.12a.18.18,0,0,1-.3,0c-.51-1.61-.51-1.6-2.32-1.61s-3.85,0-5.78,0c-1.08.07-2.17,0-3.25,0H230.8c-.58,0-.93.2-1,.84,0,.33,0,.76-.51.85l0-.09c0-.71,0-1.42,0-2.13a1.15,1.15,0,0,1,.33-.21,5.85,5.85,0,0,1,1.77-.11H278c1.85,0,1.86,0,1.85-1.87,0-2.78.31-2.46-2.4-2.46q-22.65,0-45.28,0c-.33,0-.66,0-1,0-.88-.08-1.39.23-1.38,1.19a.91.91,0,0,1-.13.38.26.26,0,0,1-.33.12Z" transform="translate(-14.78 -1.18)"/><path class="s" d="M229.32,144.61l.2,0a3.36,3.36,0,0,1,0,3h-.21Z" transform="translate(-14.78 -1.18)"/><path class="n" d="M221.42,155.12a18.9,18.9,0,0,1-.16-4.81c0-.46.49-.34.79-.34h7.27a1.78,1.78,0,0,1,.32,1.41c-.13,6.53.07,13.05,0,19.58-.08,5,.06,10,0,15a2.44,2.44,0,0,1-.3,1.63c0,2.45,0,4.89,0,7.34,0,.55-.09.84-.75.84q-11.28,0-22.58-.05l0-4c2.39,0,4.79,0,7.19,0a7.61,7.61,0,0,0,7.6-5.13.86.86,0,0,1,.94-.66,4.51,4.51,0,0,0,2-.15,6.55,6.55,0,0,0,.29-2.71c0-1.55.08-3.09,0-4.63a4.37,4.37,0,0,0-2.78-3.74s0-.09-.05-.13v-8.3l.12-.13A3.31,3.31,0,0,1,223,166c.74,0,1.1-.31,1.09-1.07,0-2,.09-4.11,0-6.16a4.13,4.13,0,0,0-2.3-3.3A.68.68,0,0,1,221.42,155.12Z" transform="translate(-14.78 -1.18)"/><path class="j" d="M206,181.79c1.42,0,2.83.06,4.25,0,.65,0,.94.14.93.88q-.07,3.18,0,6.36c0,.73-.27.89-.93.88-1.42,0-2.83,0-4.25.05Z" transform="translate(-14.78 -1.18)"/><path class="j" d="M206,165.83c1.45,0,2.89,0,4.34,0,.58,0,.82.15.81.78,0,2.15,0,4.31,0,6.46,0,.64-.25.77-.82.77-1.44,0-2.89,0-4.34,0C206,171.2,206,168.51,206,165.83Z" transform="translate(-14.78 -1.18)"/><path class="t" d="M267.87,196h-.19c-.15,0-.22,0-.23-.18a.6.6,0,0,1,.27-.23,38.63,38.63,0,0,1,4.81-.12,9.73,9.73,0,0,1,1.08,0c.8.06,1.12-.28,1.1-1.09,0-1.78,0-3.56,0-5.34a1.86,1.86,0,0,1,.3-1.41.21.21,0,0,1,.31.08,4.49,4.49,0,0,1,.19,2c0,1.58,0,3.17,0,4.76,0,.76.31,1.07,1.06,1s1.45,0,2.17,0,1.12-.28,1.11-1.1c0-1.78,0-3.57,0-5.35a1.88,1.88,0,0,1,.3-1.42.33.33,0,0,1,.36.27,7.2,7.2,0,0,1-.15,3.93c0,1.09,0,2.18,0,3.27,0,.48.11.73.65.73q11.34,0,22.68,0c-.33.42-.8.22-1.2.22H269.16Z" transform="translate(-14.78 -1.18)"/><path class="n" d="M279.91,142.23c-.22.31-.54.19-.82.19q-24.45,0-48.91,0l-.49,0,17-12.72c2.45-1.84,4.92-3.65,7.36-5.51a1.07,1.07,0,0,1,1.54,0q11.88,8.88,23.79,17.73C279.57,142,279.74,142.12,279.91,142.23Z" transform="translate(-14.78 -1.18)"/><path class="n" d="M280.36,191.76c0-1.09,0-2.17,0-3.26,0-.31.12-.67-.19-.92a1.26,1.26,0,0,1-1,.3c-1.31-.1-2.66.3-3.94-.27a.76.76,0,0,0,0-.11c.2-.48.64-.4,1-.42.86,0,1.71,0,2.57,0,1.11,0,1.2-.1,1.21-1.17,0-1.75,0-3.51,0-5.26,0-.8-.26-1.15-1.08-1.12s-1.84,0-2.76,0c-.39,0-.89.09-1-.51a2.66,2.66,0,0,1,1.81-.28c2.85,0,2.85,0,2.85-2.91,0-1.16,0-2.32,0-3.48s-.1-1.13-1.12-1.16c-.79,0-1.58,0-2.37,0a1.62,1.62,0,0,1-1.13-.26c.06-.65.6-.5,1-.53,1-.06,2,0,2.95,0,.61,0,.9-.25.9-.88v-5.75c0-.7-.35-.91-1-.91-.95,0-1.9,0-2.85,0-.39,0-.9.1-1-.51.52-.41,1.13-.24,1.71-.29.91-.07,2.06.39,2.68-.23s.21-1.83.25-2.77c.08-1.66-.08-3.31.09-5a18.69,18.69,0,0,0,.13-3.26c0-.35-.12-.73.14-1h.17c3.16,0,6.32.06,9.48.07,2.84,0,5.67,0,8.51,0a.61.61,0,0,1,0,.19c-.88.08-2-.37-2.57.19s-.2,1.76-.2,2.67c0,10.24,0,20.47,0,30.7,0,3.43-1.35,6.14-4.64,7.6a7,7,0,0,1-2.86.63Z" transform="translate(-14.78 -1.18)"/><path class="n" d="M229.34,187.6q0-18.82,0-37.63a.91.91,0,0,0,0-.17,1.57,1.57,0,0,0,.18-.45c.15-1.59.14-1.59,1.77-1.59h39.51l1.28,0a1.81,1.81,0,0,1,.3,1.32c0,11.8,0,23.61,0,35.41a7.77,7.77,0,0,1-7.62,7.51,6.33,6.33,0,0,1-3.39-.26,2.62,2.62,0,0,1-.28-1.62c0-3.33.06-6.66-.05-10a2.32,2.32,0,0,1,0-.37,28,28,0,0,0,.07-3.17c0-.8-.37-1.26-1.19-1.27-3.35,0-6.7,0-10.05,0-.82,0-1.18.45-1.2,1.25,0,1.06,0,2.11,0,3.17v.38c.06,3.5,0,7,0,10.49a1.67,1.67,0,0,1-.28,1.13,1.92,1.92,0,0,1-1.32.29q-5.52,0-11,0a1.74,1.74,0,0,1-1.31-.3c0-1.09,0-2.18,0-3.27,0-.31.12-.67-.2-.92a25.48,25.48,0,0,1-4.94,0A.52.52,0,0,0,229.34,187.6Z" transform="translate(-14.78 -1.18)"/><path class="m" d="M267.5,195.91l.18.05c0,1.49,0,3,0,4.47,0,.62-.13.89-.81.89q-12.06,0-24.1,0c-.68,0-.84-.27-.82-.88,0-1.49,0-3,0-4.47l6.3-.05c.42-.37.93-.26,1.41-.26h16.56A1.71,1.71,0,0,1,267.5,195.91Z" transform="translate(-14.78 -1.18)"/><path class="n" d="M234.69,191.77h13.6l.13.12a8.11,8.11,0,0,1,0,3.7l-.13.13c-4.26,0-8.53,0-12.8.06-.65,0-.86-.2-.83-.85C234.71,193.88,234.68,192.82,234.69,191.77Z" transform="translate(-14.78 -1.18)"/><path class="u" d="M229.52,187.57a16.36,16.36,0,0,1,4.94,0v4.17c-1,.6-2,.25-3.05.31a2.5,2.5,0,0,1-1.88-.31Z" transform="translate(-14.78 -1.18)"/><path class="v" d="M229.53,191.75h4.93c0,1.06,0,2.11,0,3.17,0,.57-.14.85-.77.83-1.14,0-2.29,0-3.44,0-.64,0-.78-.27-.76-.84C229.54,193.86,229.53,192.8,229.53,191.75Z" transform="translate(-14.78 -1.18)"/><path class="w" d="M261.37,195.92H248.3v-.2h0a1.56,1.56,0,0,1,1.1-.3c1.27,0,2.54,0,3.81,0,1,0,2.09,0,3.14,0,1.54,0,3.07-.07,4.61,0a1,1,0,0,1,.33.13A.23.23,0,0,1,261.37,195.92Z" transform="translate(-14.78 -1.18)"/><path class="x" d="M221,185.75c-1.31,0-2.62,0-3.93,0-.6,0-.82-.25-.8-.83,0-1.25,0-2.5,0-3.75a.85.85,0,0,1,.71-.28c1.39,0,2.81-.3,4.17.23a8.28,8.28,0,0,1,.15,4.25C221.34,185.58,221.17,185.67,221,185.75Z" transform="translate(-14.78 -1.18)"/><path class="x" d="M221.22,166.31c-1.28,0-2.57-.07-3.85,0-.84,0-1.11-.31-1.08-1.11.05-1.16,0-2.31.05-3.47a.86.86,0,0,1,.71-.29c1.4.07,2.82-.31,4.18.26a7.26,7.26,0,0,1,0,4.56Z" transform="translate(-14.78 -1.18)"/><path class="x" d="M221,185.75a21.46,21.46,0,0,0,.17-4.53l.12-.12a4.26,4.26,0,0,1,1.81-.17c.52,0,.76-.24.77-.77a6,6,0,0,1,.11-1.74.47.47,0,0,1,.22-.24,14.42,14.42,0,0,1,.1,3.41c0,1.12,0,2.24,0,3.35,0,.41,0,.81-.55.88Z" transform="translate(-14.78 -1.18)"/><path class="y" d="M221.21,161.71h-4.87a15.72,15.72,0,0,1,0-3,2.06,2.06,0,0,1,1.49-.29,17.91,17.91,0,0,1,3.19.1.77.77,0,0,1,.29.22,5,5,0,0,1,0,2.83Z" transform="translate(-14.78 -1.18)"/><path class="y" d="M221.2,181.22h-4.87a14.83,14.83,0,0,1,0-3,1.73,1.73,0,0,1,1.3-.3,17.66,17.66,0,0,1,3.41.12.66.66,0,0,1,.28.24,4.22,4.22,0,0,1-.12,2.91Z" transform="translate(-14.78 -1.18)"/><path class="x" d="M221.2,158.71h-4.86c.45-2.25,1.41-3.25,3.43-3.68a2.56,2.56,0,0,1,1.45.12A4.51,4.51,0,0,1,221.2,158.71Z" transform="translate(-14.78 -1.18)"/><path class="x" d="M221.21,178.22h-4.86c.53-2.7,1.75-3.62,4.88-3.62l0,.06A4.51,4.51,0,0,1,221.21,178.22Z" transform="translate(-14.78 -1.18)"/><path class="x" d="M221.2,158.71c0-1.18,0-2.36,0-3.55l.2,0a3.78,3.78,0,0,1,2.77,3.38.22.22,0,0,1-.07.32,3.88,3.88,0,0,1-2.9-.09Z" transform="translate(-14.78 -1.18)"/><path class="n" d="M261.39,191.77a21.49,21.49,0,0,0,5.48-.4,7.56,7.56,0,0,0,5.17-6.69q0-18.45,0-36.89c2.49,0,5,0,7.46-.06.52,0,.71.19.68.7s0,.85,0,1.28a9.72,9.72,0,0,1-.07,4.26c-.83.51-1.74.25-2.61.27-2.33,0-2.19-.18-2.19,2.23,0,1.65,0,3.31,0,5a1.62,1.62,0,0,1-.13.87c1.15.44,2.33.14,3.49.19,1.91.07,1.64-.25,1.65,1.7s0,3.63,0,5.45c0,.75-.16,1.07-1,1-1.07-.07-2.16,0-3.24,0-.32,0-.67-.1-.94.17a42.63,42.63,0,0,1,.1,5.65,7.35,7.35,0,0,1-.1,2.56c.61.39,1.28.13,1.92.19,1,.1,2.39-.46,3,.23s.16,2,.19,3.07c0,1.32,0,2.65,0,4,0,.7-.22.89-.9.9a21.15,21.15,0,0,0-4.21.11c-.33.28-.23.66-.23,1,0,2.08,0,4.16,0,6.23,0,.85-.26,1-1.06,1-2.16-.05-4.32,0-6.48,0a41.53,41.53,0,0,1-6.11,0h0a6.34,6.34,0,0,1-.12-3.83Z" transform="translate(-14.78 -1.18)"/><path class="j" d="M229.53,147.57c0-1,0-2,0-3,0-2,0-2,2-2q23.74,0,47.47,0c.94,0,1.29.23,1.21,1.2a19.77,19.77,0,0,0,0,2.88c0,.7-.2.92-.89.91-2.54,0-5.08,0-7.62,0Z" transform="translate(-14.78 -1.18)"/><path class="x" d="M224.17,158.72l0-.22c.25.28.17.63.17.95,0,2,0,3.9,0,5.85,0,.69-.21,1-1,1s-1.44,0-2.17,0c0-1.51,0-3,0-4.53h0c.54-.43,1.19-.28,1.79-.29s.87-.27.88-.89A2.76,2.76,0,0,1,224.17,158.72Z" transform="translate(-14.78 -1.18)"/><path class="x" d="M221.21,178.22v-3.55a3.76,3.76,0,0,1,3,3.51l-.06,0a3.33,3.33,0,0,1-2.95,0Z" transform="translate(-14.78 -1.18)"/><path class="v" d="M275.21,187.61a47.9,47.9,0,0,1,4.94,0c0,2.42,0,4.84,0,7.26,0,.68-.17.94-.88.91a30.28,30.28,0,0,0-3.16,0c-.79.05-.93-.28-.92-1C275.23,192.38,275.21,190,275.21,187.61Z" transform="translate(-14.78 -1.18)"/><path class="z" d="M261.38,195.72l6.11,0c0,.05,0,.1,0,.15h-6.13Z" transform="translate(-14.78 -1.18)"/><path class="x" d="M257.44,134.53a2.6,2.6,0,1,1-5.2,0,2.6,2.6,0,1,1,5.2,0Z" transform="translate(-14.78 -1.18)"/><path class="v" d="M275.2,162.31a7.26,7.26,0,0,1-.14-2.46c0-1.65,0-3.31,0-5,0-.7.24-.93.93-.91,1.38,0,2.76,0,4.15,0,.16,2.58,0,5.15.07,7.73,0,.57-.3.63-.75.62Z" transform="translate(-14.78 -1.18)"/><path class="v" d="M275.2,179a6.22,6.22,0,0,1-.13-2.43,38.45,38.45,0,0,1,.13-5.78c1.41,0,2.83,0,4.24,0,.55,0,.76.18.76.74,0,2.25,0,4.51,0,6.76,0,.56-.21.74-.75.73C278,179,276.62,179,275.2,179Z" transform="translate(-14.78 -1.18)"/><path class="x" d="M293.34,181.21c0,1.26,0,2.51,0,3.77,0,.59-.23.83-.82.82-2.11,0-4.21,0-6.32,0-.61,0-.8-.23-.79-.82,0-1.26,0-2.52,0-3.77a1.23,1.23,0,0,1,1-.32q2.94,0,5.88,0A1.23,1.23,0,0,1,293.34,181.21Z" transform="translate(-14.78 -1.18)"/><path class="x" d="M293.34,161.71c0,1.22,0,2.44,0,3.66,0,.68-.3.92-1,.91-2,0-4,0-6,0-.76,0-1-.29-.95-1,0-1.19,0-2.38,0-3.57a1.21,1.21,0,0,1,1-.31q2.94,0,5.88,0A1.25,1.25,0,0,1,293.34,161.71Z" transform="translate(-14.78 -1.18)"/><path class="y" d="M293.34,181.21h-7.88a6.61,6.61,0,0,1,0-3,1.6,1.6,0,0,1,1.12-.31h5.61a1.63,1.63,0,0,1,1.11.32A14.83,14.83,0,0,1,293.34,181.21Z" transform="translate(-14.78 -1.18)"/><path class="y" d="M293.34,161.71h-7.87a6.47,6.47,0,0,1,0-3,1.63,1.63,0,0,1,1.11-.3h5.62a1.71,1.71,0,0,1,1.12.31A14.94,14.94,0,0,1,293.34,161.71Z" transform="translate(-14.78 -1.18)"/><path class="x" d="M293.33,158.72h-7.85a3.89,3.89,0,0,1,3.65-3.73A4,4,0,0,1,293.2,158C293.26,158.27,293.29,158.5,293.33,158.72Z" transform="translate(-14.78 -1.18)"/><path class="x" d="M293.32,178.23h-7.84a3.77,3.77,0,0,1,3.41-3.6,3.84,3.84,0,0,1,4.32,3C293.26,177.84,293.28,178,293.32,178.23Z" transform="translate(-14.78 -1.18)"/><path class="x" d="M248.34,179.8l0-3.47c0-.83.39-1.32,1.24-1.32H260.1c.61,0,1.15.26,1.19.82a11.94,11.94,0,0,1-.1,4,1.75,1.75,0,0,1-1.22.26H249.55A1.51,1.51,0,0,1,248.34,179.8Z" transform="translate(-14.78 -1.18)"/><path class="m" d="M261.18,180c.32.3.17.69.18,1,0,3.58,0,7.16,0,10.74l-.05,0a1,1,0,0,1-.81.3,19.2,19.2,0,0,1-4-.13.64.64,0,0,1-.26-.28.71.71,0,0,1-.09-.28c-.13-3.57-.07-7.14,0-10.7a.93.93,0,0,1,.23-.64A27.6,27.6,0,0,1,261.18,180Z" transform="translate(-14.78 -1.18)"/><path class="m" d="M248.29,191.77l.06-11.74a26.29,26.29,0,0,1,4.94,0,1.31,1.31,0,0,1,.27.93c0,3.35,0,6.71,0,10.07a1.66,1.66,0,0,1-.11.58.7.7,0,0,1-.24.3,9.76,9.76,0,0,1-4.86-.13Z" transform="translate(-14.78 -1.18)"/><path class="y" d="M247.91,167.59a14,14,0,0,1-3,0,1.68,1.68,0,0,1-.3-1.32c0-1.62,0-3.24,0-4.86,0-1.07-.14-1.14-1.22-1.2-.74,0-1.52.21-2.2-.3a7.19,7.19,0,0,1,.22-3,2.13,2.13,0,0,1,1.41-.32H250a2.13,2.13,0,0,1,1.41.32,7.19,7.19,0,0,1,.22,3c-.68.51-1.46.26-2.2.3-1.08.06-1.2.13-1.21,1.2,0,1.62,0,3.24,0,4.86A1.65,1.65,0,0,1,247.91,167.59Z" transform="translate(-14.78 -1.18)"/><path class="y" d="M258,159.92a7.19,7.19,0,0,1,.22-3,2.13,2.13,0,0,1,1.41-.32h7.16a2.12,2.12,0,0,1,1.41.32,7,7,0,0,1,.22,3c-.67.51-1.46.26-2.2.3-1.07.06-1.2.13-1.21,1.2,0,1.62,0,3.24,0,4.86,0,.46.08.94-.3,1.32a14,14,0,0,1-3,0,1.65,1.65,0,0,1-.3-1.31c0-1.62,0-3.24,0-4.86,0-1.07-.14-1.14-1.22-1.2C259.49,160.18,258.71,160.43,258,159.92Z" transform="translate(-14.78 -1.18)"/><path class="m" d="M229.48,158.12c0-1.1,0-2.19,0-3.28,0-.63.15-.91.83-.88,1.15,0,2.3,0,3.46,0,.62,0,.89.19.88.85q0,3.33,0,6.66c0,.64-.22.89-.87.87-1.18,0-2.37,0-3.55,0-.56,0-.76-.2-.74-.75C229.5,160.44,229.48,159.28,229.48,158.12Z" transform="translate(-14.78 -1.18)"/><path class="m" d="M234.62,174.86c0,1.12,0,2.25,0,3.38,0,.58-.19.84-.8.83-1.22,0-2.44,0-3.66,0-.49,0-.71-.15-.7-.68,0-2.32,0-4.64,0-7,0-.48.12-.74.66-.73,1.25,0,2.5,0,3.75,0,.56,0,.76.25.75.79C234.61,172.6,234.62,173.73,234.62,174.86Z" transform="translate(-14.78 -1.18)"/><path class="x" d="M264.72,167.6c0-2.21,0-4.42,0-6.62,0-.84.29-1.12,1.09-1.07s1.77,0,2.65,0c0,2.31,0,4.62,0,6.92,0,.62-.25.82-.82.8C266.69,167.61,265.71,167.61,264.72,167.6Z" transform="translate(-14.78 -1.18)"/><path class="x" d="M258,159.92c.89,0,1.77,0,2.65,0s1.11.23,1.09,1.07c0,2.2,0,4.41,0,6.61-1,0-2,0-2.94,0-.57,0-.83-.18-.83-.8C258,164.54,258,162.23,258,159.92Z" transform="translate(-14.78 -1.18)"/><path class="x" d="M247.91,167.59c0-2.2,0-4.41,0-6.61,0-.84.29-1.12,1.09-1.07s1.77,0,2.65,0c0,2.31,0,4.62,0,6.92,0,.62-.25.82-.82.8C249.88,167.61,248.89,167.61,247.91,167.59Z" transform="translate(-14.78 -1.18)"/><path class="x" d="M241.22,159.92c.88,0,1.77,0,2.65,0s1.11.23,1.09,1.07c0,2.2,0,4.41,0,6.62-1,0-2,0-2.95,0-.57,0-.83-.18-.82-.8C241.21,164.54,241.21,162.23,241.22,159.92Z" transform="translate(-14.78 -1.18)"/><path class="x" d="M251.42,156.93h-10a5.19,5.19,0,0,1,10,0Z" transform="translate(-14.78 -1.18)"/><path class="x" d="M268.23,156.93h-10a5.19,5.19,0,0,1,10,0Z" transform="translate(-14.78 -1.18)"/><path class="aa" d="M253.25,180h-4.9v-.23l12.85,0a.33.33,0,0,0,0,.17l-4.76,0A3.74,3.74,0,0,1,253.25,180Z" transform="translate(-14.78 -1.18)"/><path class="v" d="M248.34,191.74l4.92,0a5.6,5.6,0,0,1,0,4h-5C248.31,194.4,248.32,193.07,248.34,191.74Z" transform="translate(-14.78 -1.18)"/><path class="v" d="M256.42,191.76l4.92,0,0,4h-5A5.6,5.6,0,0,1,256.42,191.76Z" transform="translate(-14.78 -1.18)"/><path class="j" d="M256.42,191.76c0,1.32,0,2.65,0,4h-3.15v-4h0a3.65,3.65,0,0,1,3.16,0Z" transform="translate(-14.78 -1.18)"/><path class="y" d="M221.22,178.23h2.95c0,.77,0,1.53,0,2.29,0,.52-.19.71-.7.7-.76,0-1.51,0-2.27,0Z" transform="translate(-14.78 -1.18)"/><path class="y" d="M224.17,158.72c-.06,1,.43,2.2-.22,2.81s-1.8.13-2.73.17v-3Z" transform="translate(-14.78 -1.18)"/><path class="j" d="M256.42,191.76h-3.16c0-3.92,0-7.83,0-11.74h3.17Z" transform="translate(-14.78 -1.18)"/></svg>