<svg id="Calque_1" data-name="Calque 1" xmlns="http://www.w3.org/2000/svg" xmlns:xlink="http://www.w3.org/1999/xlink" viewBox="0 0 165.8 179.48">
  <defs>
    <style>
      .cls-1 {
        fill: none;
      }

      .cls-2 {
        fill: #ddd;
        opacity: 0.4;
      }

      .cls-10, .cls-3, .cls-7 {
        fill: #4d70b5;
      }

      .cls-4, .cls-6 {
        fill: #fff;
      }

      .cls-4 {
        opacity: 0.8;
      }

      .cls-5 {
        fill: #223552;
      }

      .cls-7 {
        opacity: 0.1;
      }

      .cls-8 {
        fill: #4dabd1;
      }

      .cls-9 {
        fill: #2b498a;
      }

      .cls-10 {
        opacity: 0.2;
      }

      .cls-11 {
        clip-path: url(#clip-path);
      }

      .cls-12 {
        fill: #e3e2e2;
      }

      .cls-13 {
        fill: #fcfcfc;
      }

      .cls-14 {
        fill: #243884;
      }

      .cls-15 {
        fill: #f4f2f1;
      }

      .cls-16 {
        fill: #eabe2f;
      }

      .cls-17 {
        fill: #233552;
      }

      .cls-18 {
        fill: #dec7c5;
      }

      .cls-19 {
        fill: #e6dfde;
      }

      .cls-20 {
        fill: #d0dcd6;
      }

      .cls-21 {
        fill: #d0ddd6;
      }

      .cls-22 {
        fill: #dbb6b5;
      }

      .cls-23 {
        fill: #f6f1f1;
      }

      .cls-24 {
        fill: #ebe3e0;
      }

      .cls-25 {
        fill: #eadedd;
      }

      .cls-26 {
        fill: #4babd2;
      }

      .cls-27 {
        fill: #233984;
      }

      .cls-28 {
        fill: #d6ccc7;
      }

      .cls-29 {
        fill: #d0c4d9;
      }
    </style>
    <clipPath id="clip-path" transform="translate(-6.75 -0.38)">
      <ellipse class="cls-1" cx="93.55" cy="59.5" rx="24.63" ry="24.78"/>
    </clipPath>
  </defs>
  <path class="cls-2" d="M172.54,96.72c0,30.89-6.07,38.87-20.22,54.26s-38.78,26.65-62.68,28.64-43.15-8.75-53.38-19.48-29.51-38-29.51-63.42c0-20.08,4.67-33.78,19-52.83S59.12,13.82,89.64,13.82s58,20.86,65.26,31.77S172.54,65.82,172.54,96.72Z" transform="translate(-6.75 -0.38)"/>
  <g>
    <path class="cls-3" d="M125.07,177.78h-75A10.05,10.05,0,0,1,40,167l9.14-155.9A11.59,11.59,0,0,1,60.48.38h75A10.05,10.05,0,0,1,145.6,11.13L136.46,167A11.59,11.59,0,0,1,125.07,177.78Z" transform="translate(-6.75 -0.38)"/>
    <path class="cls-4" d="M125.07,177.78h-75A10.05,10.05,0,0,1,40,167l9.14-155.9A11.59,11.59,0,0,1,60.48.38h75A10.05,10.05,0,0,1,145.6,11.13L136.46,167A11.59,11.59,0,0,1,125.07,177.78Z" transform="translate(-6.75 -0.38)"/>
  </g>
  <path class="cls-5" d="M124.63,174.66H51.72a7.07,7.07,0,0,1-7.12-7.55L53.71,11.89a8.14,8.14,0,0,1,8-7.56h72.91a7.06,7.06,0,0,1,7.11,7.56l-9.1,155.22A8.15,8.15,0,0,1,124.63,174.66Z" transform="translate(-6.75 -0.38)"/>
  <path class="cls-6" d="M123.84,173.83H50.93a7.06,7.06,0,0,1-7.11-7.56l9.1-155.21a8.14,8.14,0,0,1,8-7.56h72.91A7.07,7.07,0,0,1,141,11.06l-9.11,155.21A8.14,8.14,0,0,1,123.84,173.83Z" transform="translate(-6.75 -0.38)"/>
  <path class="cls-7" d="M121.71,168.06h-68a4.38,4.38,0,0,1-4.4-4.68l3.8-64.74A5,5,0,0,1,58.08,94h68a4.37,4.37,0,0,1,4.4,4.67l-3.8,64.74A5,5,0,0,1,121.71,168.06Z" transform="translate(-6.75 -0.38)"/>
  <path class="cls-7" d="M104.61,15H84.79a1.55,1.55,0,0,1-1.57-1.67h0A1.8,1.8,0,0,1,85,11.67H104.8a1.57,1.57,0,0,1,1.58,1.67h0A1.8,1.8,0,0,1,104.61,15Z" transform="translate(-6.75 -0.38)"/>
  <ellipse class="cls-7" cx="94.26" cy="56.66" rx="30.8" ry="29.05" transform="translate(-19.58 81.3) rotate(-44.16)"/>
  <ellipse class="cls-8" cx="94.26" cy="56.66" rx="26.84" ry="25.31" transform="translate(-19.58 81.3) rotate(-44.16)"/>
  <path class="cls-5" d="M123.75,11.36h8a.88.88,0,0,0,.86-.81h0a.76.76,0,0,0-.77-.82h-8a.89.89,0,0,0-.86.82h0A.77.77,0,0,0,123.75,11.36Z" transform="translate(-6.75 -0.38)"/>
  <path class="cls-5" d="M123.59,14.15h8a.88.88,0,0,0,.87-.81h0a.77.77,0,0,0-.77-.82h-8a.88.88,0,0,0-.86.82h0A.76.76,0,0,0,123.59,14.15Z" transform="translate(-6.75 -0.38)"/>
  <path class="cls-5" d="M58.65,14.15h8a.87.87,0,0,0,.86-.81h0a.76.76,0,0,0-.77-.82h-8a.89.89,0,0,0-.87.82h0A.76.76,0,0,0,58.65,14.15Z" transform="translate(-6.75 -0.38)"/>
  <path class="cls-5" d="M123.42,17h8a.87.87,0,0,0,.86-.82h0a.75.75,0,0,0-.76-.81h-8a.86.86,0,0,0-.86.81h0A.76.76,0,0,0,123.42,17Z" transform="translate(-6.75 -0.38)"/>
  <path class="cls-6" d="M114.87,119.15H66.31a6.58,6.58,0,0,1-6.62-7h0a7.58,7.58,0,0,1,7.45-7H115.7a6.58,6.58,0,0,1,6.62,7h0A7.58,7.58,0,0,1,114.87,119.15Z" transform="translate(-6.75 -0.38)"/>
  <path class="cls-6" d="M113.77,138.05H65.2a6.59,6.59,0,0,1-6.62-7h0A7.59,7.59,0,0,1,66,124h48.56a6.58,6.58,0,0,1,6.62,7h0A7.59,7.59,0,0,1,113.77,138.05Z" transform="translate(-6.75 -0.38)"/>
  <path class="cls-6" d="M112.66,156.94H64.1a6.58,6.58,0,0,1-6.62-7h0a7.57,7.57,0,0,1,7.44-7h48.56a6.58,6.58,0,0,1,6.62,7h0A7.58,7.58,0,0,1,112.66,156.94Z" transform="translate(-6.75 -0.38)"/>
  <ellipse class="cls-9" cx="67.63" cy="112.12" rx="3.73" ry="3.52" transform="translate(-65.74 78.42) rotate(-44.16)"/>
  <path class="cls-9" d="M67.2,127.59l.49,1.8a.46.46,0,0,0,.45.35H70a.49.49,0,0,1,.24.91l-1.6,1.11a.52.52,0,0,0-.21.56l.48,1.81a.53.53,0,0,1-.81.56l-1.47-1.12a.53.53,0,0,0-.59,0l-1.6,1.12a.48.48,0,0,1-.74-.56l.69-1.81a.48.48,0,0,0-.15-.56l-1.47-1.11a.52.52,0,0,1,.35-.91h1.9a.54.54,0,0,0,.5-.35l.69-1.8A.5.5,0,0,1,67.2,127.59Z" transform="translate(-6.75 -0.38)"/>
  <g>
    <path class="cls-9" d="M68.54,148l-.3,5.07a.85.85,0,0,1-.84.79H63a.73.73,0,0,1-.74-.79l.37-6.31a.84.84,0,0,1,.83-.79h3.19Z" transform="translate(-6.75 -0.38)"/>
    <path class="cls-6" d="M66.62,146l1.92,2H67.29a.73.73,0,0,1-.74-.78l.07-1.25m-.51-1.4L66,145.93,66,147.17a1.35,1.35,0,0,0,.36,1,1.31,1.31,0,0,0,1,.41H69.9l-.93-1-1.92-2-.94-1Z" transform="translate(-6.75 -0.38)"/>
  </g>
  <path class="cls-10" d="M113.24,111.38H76.91a1.07,1.07,0,0,1-1.08-1.15h0A1.22,1.22,0,0,1,77,109.09h36.33a1.07,1.07,0,0,1,1.08,1.14h0A1.24,1.24,0,0,1,113.24,111.38Z" transform="translate(-6.75 -0.38)"/>
  <path class="cls-10" d="M106.35,115.16H76.68A1.07,1.07,0,0,1,75.61,114h0a1.23,1.23,0,0,1,1.21-1.15h29.67a1.08,1.08,0,0,1,1.08,1.15h0A1.25,1.25,0,0,1,106.35,115.16Z" transform="translate(-6.75 -0.38)"/>
  <path class="cls-10" d="M112,131.76H102a1.22,1.22,0,0,0-1.21,1.14h0a1.07,1.07,0,0,0,1.08,1.15h10a1.23,1.23,0,0,0,1.21-1.15h0A1.07,1.07,0,0,0,112,131.76Z" transform="translate(-6.75 -0.38)"/>
  <path class="cls-10" d="M96.16,131.76H75.71a1.22,1.22,0,0,0-1.21,1.14h0a1.07,1.07,0,0,0,1.08,1.15H96a1.24,1.24,0,0,0,1.21-1.15h0A1.07,1.07,0,0,0,96.16,131.76Z" transform="translate(-6.75 -0.38)"/>
  <path class="cls-10" d="M105.6,128H75.93a1.23,1.23,0,0,0-1.21,1.14h0a1.07,1.07,0,0,0,1.08,1.15h29.67a1.24,1.24,0,0,0,1.21-1.15h0A1.07,1.07,0,0,0,105.6,128Z" transform="translate(-6.75 -0.38)"/>
  <path class="cls-10" d="M110.94,150.65H74.6a1.24,1.24,0,0,0-1.21,1.15h0a1.07,1.07,0,0,0,1.08,1.14H110.8A1.22,1.22,0,0,0,112,151.8h0A1.07,1.07,0,0,0,110.94,150.65Z" transform="translate(-6.75 -0.38)"/>
  <path class="cls-10" d="M104.49,146.87H74.82A1.24,1.24,0,0,0,73.61,148h0a1.07,1.07,0,0,0,1.08,1.14h29.67a1.23,1.23,0,0,0,1.21-1.14h0A1.07,1.07,0,0,0,104.49,146.87Z" transform="translate(-6.75 -0.38)"/>
  <g class="cls-11">
    <g>
      <path class="cls-12" d="M70.53,84.71l-.18-.09V79.88c.22-.35.54-.32.88-.25a3.38,3.38,0,0,0,.71,0H86.5a1.35,1.35,0,0,1,.74.09c.17.2.11.45.12.68,0,.44,0,.88,0,1.33s-.1.54-.54.56-1,0-1.46,0a.7.7,0,0,0-.5.12c-.17.17-.13.39-.14.59,0,.43,0,.87,0,1.3,0,.24-.08.42-.39.42H70.65A.25.25,0,0,1,70.53,84.71Z" transform="translate(-6.75 -0.38)"/>
      <path class="cls-12" d="M70.35,56.81c.26-.15.54-.06.81-.09a1,1,0,0,1,.64-.14h9.25a1.57,1.57,0,0,1,.48.05.36.36,0,0,1,.14.1,4.7,4.7,0,0,1,.09,1.35c0,.33.1.69-.13,1a1.18,1.18,0,0,1-.69.09c-2.48,0-5,0-7.44,0-1-.07-1.93,0-2.89-.06a.38.38,0,0,1-.26-.2Z" transform="translate(-6.75 -0.38)"/>
      <path class="cls-13" d="M70.35,59l.18.09c.76.13.76.13.76,1s0,1.8,0,2.71c0,1.19,0,2.38,0,3.57s0,2.38,0,3.57,0,2.38,0,3.58,0,2.42,0,3.63q0,.42,0,.84a7.17,7.17,0,0,1-.08,1.73l-.06,0a1.37,1.37,0,0,0-.79.19Z" transform="translate(-6.75 -0.38)"/>
      <path class="cls-14" d="M72,54.85Q74,50,76,45.2a1.24,1.24,0,0,1,.84-.74,1.29,1.29,0,0,1,.44,0H92.47c.15,0,.38-.1.43.08s-.16.29-.3.39q-3.72,2.79-7.46,5.56c-1.41,1.05-2.83,2.1-4.24,3.17-.37.28-.37.32-.12.72.1.17.34.35.06.57a1.35,1.35,0,0,1-.53.06H72.6A.83.83,0,0,1,72,54.85Z" transform="translate(-6.75 -0.38)"/>
      <path class="cls-14" d="M107,44.39h1.85c.15,0,.32,0,.46.07-.13.16-.32.12-.49.13h-1.2c-.29,0-.37.1-.25.38.29.7.58,1.4.88,2.09.55,1.29,1.08,2.58,1.63,3.86a2.85,2.85,0,0,1-.61,3.36,2.48,2.48,0,0,1-1.69.68h-1.82a.71.71,0,0,1-.47-.1c-.11-.2,0-.33.14-.48.28-.43.28-.46-.15-.79-1.4-1.07-2.82-2.11-4.24-3.16l-7.39-5.51-.1-.08c-.11-.1-.29-.18-.23-.34s.24-.07.37-.07h12.79A1,1,0,0,0,107,44.39Z" transform="translate(-6.75 -0.38)"/>
      <path class="cls-12" d="M115,79.7c.8,0,.81,0,.81.85,0,1.22,0,2.43,0,3.65,0,.19,0,.4-.17.51a.82.82,0,0,1-.44,0H102.1c-.56,0-.6,0-.61-.6,0-.39,0-.77,0-1.16a.63.63,0,0,0-.15-.54.82.82,0,0,0-.59-.12c-.47,0-.94,0-1.41,0-.2,0-.44,0-.45-.27a7,7,0,0,1,.06-2.29.71.71,0,0,1,.47-.1q7.71,0,15.41,0H115Z" transform="translate(-6.75 -0.38)"/>
      <path class="cls-15" d="M107,44.39c-.16.13-.34.07-.51.07H93.27a10.25,10.25,0,0,0,1.29,1l11,8.17c.26.19.34.36.09.64a1.37,1.37,0,0,0-.37.55,1.83,1.83,0,0,1-.69.93.43.43,0,0,1-.25,0,5.2,5.2,0,0,1-.88-.59l-9.75-7.26c-.59-.45-.59-.45-1.17,0-2.64,2-5.31,4-8,5.93-.91.67-1.78,1.39-2.73,2a.31.31,0,0,1-.19,0,1.85,1.85,0,0,1-.7-.95,1.49,1.49,0,0,0-.37-.55c-.25-.27-.18-.45.09-.64L85.54,50l7.19-5.36a2.25,2.25,0,0,0,.24-.2H76.84c.11-.11.25-.07.38-.07H107Z" transform="translate(-6.75 -0.38)"/>
      <path class="cls-16" d="M115,77.11V79.7h0c-.12.1-.26,0-.39,0H105c-.5,0-.54,0-.53-.53a3.93,3.93,0,0,1,.07-1.28.74.74,0,0,1,.62-.16h2.45a3.36,3.36,0,0,0,3.68-3.68c0-1.79,0-3.57,0-5.36,0-2.91,0-5.81,0-8.72a5.66,5.66,0,0,1,0-.58.4.4,0,0,1,.43-.41,1.86,1.86,0,0,1,1,.1,1,1,0,0,1,.11.64c0,.74,0,1.49,0,2.23,0,.52.07.58.6.58h1.11a.7.7,0,0,1,.54.14v3.56c-.14.16-.34.14-.53.15h-1.24c-.26,0-.38.12-.38.38,0,.85,0,1.69,0,2.54,0,.26.12.37.38.38s.82,0,1.24,0a.67.67,0,0,1,.54.15v3.56a.77.77,0,0,1-.59.14h-1.19c-.26,0-.38.11-.38.37,0,.88,0,1.76,0,2.63a.33.33,0,0,0,.38.38h1.19A.87.87,0,0,1,115,77.11Z" transform="translate(-6.75 -0.38)"/>
      <path class="cls-17" d="M104.55,55.74l.71-.9h2.26A2.58,2.58,0,0,0,110,52.66a4.17,4.17,0,0,0-.51-2.3q-1.16-2.76-2.34-5.52c-.13-.29-.06-.37.24-.37h1.9a1.18,1.18,0,0,1,1,.85l2.47,5.91q1.15,2.75,2.3,5.49a.72.72,0,0,1-.58.15h-9.33a.93.93,0,0,1-.56-.11A1.06,1.06,0,0,1,104.55,55.74Z" transform="translate(-6.75 -0.38)"/>
      <path class="cls-15" d="M101.45,82.29c.19.09.18.26.18.42V84.1c0,.61,0,.61.59.61h13.45c-.13.14-.31.09-.46.09H71c-.16,0-.33,0-.46-.09H84c.59,0,.59,0,.59-.61V82.71c0-.16,0-.33.17-.42a.35.35,0,0,1,.17,0c4.54-.12,9.09-.11,13.63-.06A25.73,25.73,0,0,1,101.45,82.29Z" transform="translate(-6.75 -0.38)"/>
      <path class="cls-12" d="M104.56,56.73H115c.83,0,.82-.13.82.82,0,.34,0,.68,0,1s-.11.53-.48.49a.34.34,0,0,0-.33.09,8.91,8.91,0,0,1-2.42,0c-2.45.14-4.89.09-7.34.09a1.24,1.24,0,0,1-.73-.11,3.16,3.16,0,0,1-.11-1.4C104.43,57.36,104.34,57,104.56,56.73Z" transform="translate(-6.75 -0.38)"/>
      <path class="cls-17" d="M80.94,54.84l.7.9a1,1,0,0,1,0,1H71.16L72,54.85Z" transform="translate(-6.75 -0.38)"/>
      <path class="cls-12" d="M112.65,59.05h1.88a.88.88,0,0,1,.51.09v3.58h-1.73c-.65,0-.64,0-.65-.68,0-1,0-1.93,0-2.89t0-.06A0,0,0,0,1,112.65,59.05Z" transform="translate(-6.75 -0.38)"/>
      <path class="cls-12" d="M115,77.11c-.63,0-1.27,0-1.91,0-.3,0-.42-.07-.41-.4q0-1.42,0-2.85c0-.33.11-.41.41-.4.64,0,1.27,0,1.91,0Z" transform="translate(-6.75 -0.38)"/>
      <path class="cls-12" d="M115,69.88c-.64,0-1.27,0-1.91,0-.29,0-.42-.06-.41-.39,0-.93,0-1.87,0-2.81,0-.32.11-.4.41-.39.63,0,1.27,0,1.9,0C115,67.48,115,68.68,115,69.88Z" transform="translate(-6.75 -0.38)"/>
      <path class="cls-18" d="M87.25,79.8H71.64c-.17,0-.36.06-.5-.1h0a1,1,0,0,1,.72-.14h8.68c1,0,.93,0,.93-.91v-2a1.14,1.14,0,0,1,.1-.6.12.12,0,0,1,.15,0c.21.32.1.68.12,1a7.85,7.85,0,0,1,0,.84c0,.42,0,.85,0,1.28,0,.28.12.4.4.4H83.4c.31,0,.41-.15.41-.44s0-.82,0-1.24,0-.93,0-1.4a.61.61,0,0,1,.12-.45c.29,0,.23.27.23.44a13.64,13.64,0,0,1,0,1.43c0,.35,0,.71,0,1.06,0,.55,0,.59.58.59h4.64a1.32,1.32,0,0,1,.73.1.12.12,0,0,1,0,.15.52.52,0,0,1-.33.11c-.82,0-1.63,0-2.44,0A.42.42,0,0,1,87.25,79.8Z" transform="translate(-6.75 -0.38)"/>
      <path class="cls-19" d="M87.25,79.8h.08c.23.32.12.69.13,1,0,1.38-.18,1.21,1.2,1.21h9.48c.55,0,.58,0,.59-.58,0-.37,0-.74,0-1.11a1.37,1.37,0,0,1,.08-.53.1.1,0,0,1,.14,0c0,.67,0,1.34,0,2,0,.31.08.42.4.41.56,0,1.12,0,1.68,0,.14,0,.3,0,.41.08H84.74a4.35,4.35,0,0,1,1.48-.08c1,0,1,0,1-1C87.23,80.72,87.24,80.26,87.25,79.8Z" transform="translate(-6.75 -0.38)"/>
      <path class="cls-16" d="M71.17,77.92l0-.8a.76.76,0,0,1,.54-.15c.42,0,.83,0,1.25,0a.33.33,0,0,0,.38-.38V74c0-.26-.13-.37-.38-.37H71.69a.71.71,0,0,1-.54-.14V69.88a.63.63,0,0,1,.53-.15c.42,0,.83,0,1.25,0,.25,0,.38-.11.38-.38V66.8c0-.26-.13-.37-.39-.37H71.69c-.19,0-.39,0-.53-.16V62.72c.12-.22.33-.22.54-.23.39,0,.79,0,1.19,0s.44-.14.44-.45V59.77c0-.21,0-.45.15-.62a1,1,0,0,1,.55-.09H81.2l.44,0,0,.07a.22.22,0,0,1-.11.12,19.39,19.39,0,0,1-2.53.05c-1,0-.89,0-.89.9,0,.4,0,.8,0,1.2a.19.19,0,0,1-.07.13c-.2.1-.4,0-.61,0a1.73,1.73,0,0,0-1.54,1.68c0,.41,0,.82,0,1.23s0,.89,0,1.33.07.56.56.57h1a.71.71,0,0,1,.54.14.42.42,0,0,1,.09.24,29.67,29.67,0,0,1,0,3.4c-.09.2-.27.21-.45.22-1.09.1-1.51.49-1.72,1.6,0,.42,0,.83,0,1.25s0,.94,0,1.41.15.5.5.5h1.5a3.8,3.8,0,0,1,1.21.08c.1.29-.16.26-.27.25-.68-.11-.91.3-1.2.83A3.3,3.3,0,0,1,74.74,78c-1,0-2.11,0-3.16,0A.5.5,0,0,1,71.17,77.92Z" transform="translate(-6.75 -0.38)"/>
      <path class="cls-12" d="M73.47,59.15c0,1,0,2.05,0,3.08,0,.34-.11.42-.43.43a7.55,7.55,0,0,0-1.9.06c0-1,0-2,0-3,0-.35,0-.63-.47-.55-.05,0-.1-.05-.15-.08H73C73.16,59.05,73.34,59,73.47,59.15Z" transform="translate(-6.75 -0.38)"/>
      <path class="cls-20" d="M81.63,56.73c0-.33,0-.66,0-1h.16a2.35,2.35,0,0,1,.91-.15h20.81c.29,0,.56,0,.84.07l.19.08V59a.08.08,0,0,1-.13,0c-.23-.72-.23-.72-1-.72h-2.6c-.49,0-1,0-1.46,0h-17c-.26,0-.42.1-.44.38s0,.34-.23.38v-1a.71.71,0,0,1,.14-.1,2.68,2.68,0,0,1,.8,0H103.5c.83,0,.83,0,.83-.84,0-1.25.14-1.1-1.08-1.1H82.91a3.38,3.38,0,0,1-.45,0c-.4,0-.63.11-.62.54a.39.39,0,0,1-.06.17.12.12,0,0,1-.15,0Z" transform="translate(-6.75 -0.38)"/>
      <path class="cls-21" d="M81.63,56.73h.09a1.48,1.48,0,0,1,0,1.33h-.09Z" transform="translate(-6.75 -0.38)"/>
      <path class="cls-16" d="M78.08,61.45A8.67,8.67,0,0,1,78,59.29c0-.2.22-.15.36-.15h3.26a.8.8,0,0,1,.15.63c-.06,2.94,0,5.87,0,8.8,0,2.25,0,4.5,0,6.75a1.1,1.1,0,0,1-.14.73c0,1.1,0,2.2,0,3.3,0,.24,0,.37-.34.37l-10.14,0V77.92c1.08,0,2.15,0,3.23,0a3.44,3.44,0,0,0,3.42-2.31.4.4,0,0,1,.42-.3,2,2,0,0,0,.91-.06A3,3,0,0,0,79.28,74c0-.7,0-1.39,0-2.08A2,2,0,0,0,78,70.27l0-.06V66.48l0-.06a1.54,1.54,0,0,1,.74-.08c.33,0,.49-.14.49-.48,0-.92,0-1.85,0-2.77a1.86,1.86,0,0,0-1-1.48A.39.39,0,0,1,78.08,61.45Z" transform="translate(-6.75 -0.38)"/>
      <path class="cls-12" d="M71.15,73.44c.64,0,1.27,0,1.91,0,.3,0,.42.06.42.39,0,1,0,1.91,0,2.86,0,.33-.12.4-.42.4-.64,0-1.27,0-1.91,0Z" transform="translate(-6.75 -0.38)"/>
      <path class="cls-12" d="M71.16,66.27c.65,0,1.3,0,2,0,.26,0,.37.06.37.35,0,1,0,1.93,0,2.9,0,.29-.12.35-.37.34-.65,0-1.3,0-2,0Z" transform="translate(-6.75 -0.38)"/>
      <path class="cls-22" d="M99,79.8h-.08c-.07,0-.1,0-.11-.08a.27.27,0,0,1,.13-.1,17.26,17.26,0,0,1,2.16-.06,3.85,3.85,0,0,1,.48,0c.36,0,.5-.13.5-.5q0-1.2,0-2.4a.83.83,0,0,1,.13-.63.1.1,0,0,1,.14,0,2,2,0,0,1,.09.88c0,.71,0,1.42,0,2.14,0,.34.13.48.47.47a8,8,0,0,1,1,0c.36,0,.5-.13.5-.5q0-1.2,0-2.4a.86.86,0,0,1,.13-.64.15.15,0,0,1,.16.12,3.23,3.23,0,0,1-.07,1.77c0,.49,0,1,0,1.47,0,.21.06.32.3.32l10.19,0c-.15.19-.36.1-.54.1H99Z" transform="translate(-6.75 -0.38)"/>
      <path class="cls-16" d="M104.36,55.66c-.09.14-.24.09-.37.09H81.8L89.45,50l3.31-2.47a.49.49,0,0,1,.69,0q5.34,4,10.69,8Z" transform="translate(-6.75 -0.38)"/>
      <path class="cls-16" d="M104.56,77.92V76.45c0-.14,0-.3-.09-.41a.61.61,0,0,1-.45.13,4.81,4.81,0,0,1-1.77-.12l0,0c.09-.21.29-.18.45-.18.39,0,.77,0,1.16,0s.54,0,.54-.53c0-.78,0-1.57,0-2.36,0-.36-.12-.52-.49-.5s-.83,0-1.24,0c-.17,0-.4,0-.46-.23a1.23,1.23,0,0,1,.82-.12c1.27,0,1.27,0,1.27-1.31,0-.52,0-1,0-1.56s0-.51-.5-.52h-1.07a.69.69,0,0,1-.5-.12c0-.29.26-.22.43-.23.44,0,.88,0,1.33,0,.27,0,.4-.11.4-.4V65.32c0-.31-.16-.41-.44-.41-.43,0-.85,0-1.28,0-.18,0-.4,0-.46-.23.24-.18.51-.11.77-.13s.92.17,1.2-.1.1-.82.12-1.25c0-.74,0-1.49,0-2.23a7.9,7.9,0,0,0,0-1.46c0-.16,0-.33.07-.47h.07l4.26,0c1.28,0,2.55,0,3.83,0v.09c-.39,0-.9-.17-1.15.08s-.09.79-.09,1.2c0,4.6,0,9.2,0,13.79a3.42,3.42,0,0,1-2.08,3.42,3.18,3.18,0,0,1-1.29.28Z" transform="translate(-6.75 -0.38)"/>
      <path class="cls-16" d="M81.64,76.05q0-8.46,0-16.91v-.08a.7.7,0,0,0,.08-.2c.07-.71.06-.71.79-.71h18.33a.83.83,0,0,1,.14.59q0,8,0,15.91A3.5,3.5,0,0,1,97.54,78,2.86,2.86,0,0,1,96,77.92a1.15,1.15,0,0,1-.12-.73c0-1.49,0-3,0-4.48a1,1,0,0,1,0-.17,11.22,11.22,0,0,0,0-1.42c0-.36-.16-.57-.53-.57-1.51,0-3,0-4.52,0-.36,0-.53.2-.54.56s0,1,0,1.43a.86.86,0,0,0,0,.16c0,1.58,0,3.15,0,4.72a.76.76,0,0,1-.12.51.89.89,0,0,1-.59.13h-5a.76.76,0,0,1-.58-.14c0-.49,0-1,0-1.47,0-.14.06-.3-.09-.41a11.76,11.76,0,0,1-2.22,0Z" transform="translate(-6.75 -0.38)"/>
      <path class="cls-15" d="M98.79,79.78l.08,0c0,.67,0,1.34,0,2,0,.28-.06.4-.37.4H87.68c-.3,0-.37-.12-.36-.4,0-.66,0-1.33,0-2l2.83,0c.19-.17.42-.12.64-.12h7.44A.77.77,0,0,1,98.79,79.78Z" transform="translate(-6.75 -0.38)"/>
      <path class="cls-16" d="M84.05,77.92h6.1l.06,0a3.77,3.77,0,0,1,0,1.67l-.06,0c-1.92,0-3.84,0-5.75,0-.3,0-.39-.09-.38-.38C84.05,78.87,84,78.39,84.05,77.92Z" transform="translate(-6.75 -0.38)"/>
      <path class="cls-23" d="M81.72,76a6.89,6.89,0,0,1,2.22,0v1.87c-.43.27-.91.11-1.37.14a1.09,1.09,0,0,1-.84-.14Z" transform="translate(-6.75 -0.38)"/>
      <path class="cls-24" d="M81.73,77.91h2.21c0,.48,0,1,0,1.43,0,.25-.06.38-.34.37-.52,0-1,0-1.55,0-.29,0-.35-.12-.34-.38C81.73,78.86,81.73,78.39,81.73,77.91Z" transform="translate(-6.75 -0.38)"/>
      <path class="cls-25" d="M96,79.79H90.16v-.1h0a.69.69,0,0,1,.5-.14c.57,0,1.14,0,1.7,0h1.42c.69,0,1.38,0,2.07,0a.47.47,0,0,1,.15.06A.11.11,0,0,1,96,79.79Z" transform="translate(-6.75 -0.38)"/>
      <path class="cls-26" d="M77.91,75.22H76.14c-.27,0-.36-.11-.36-.37,0-.56,0-1.12,0-1.68a.36.36,0,0,1,.32-.13,5.6,5.6,0,0,1,1.87.1,3.75,3.75,0,0,1,.07,1.91C78.05,75.14,78,75.18,77.91,75.22Z" transform="translate(-6.75 -0.38)"/>
      <path class="cls-26" d="M78,66.48c-.58,0-1.16,0-1.73,0-.38,0-.5-.14-.49-.49,0-.52,0-1,0-1.57a.39.39,0,0,1,.32-.12A5.4,5.4,0,0,1,78,64.4a3.34,3.34,0,0,1,0,2Z" transform="translate(-6.75 -0.38)"/>
      <path class="cls-26" d="M77.91,75.22a10,10,0,0,0,.08-2l.05-.05a1.86,1.86,0,0,1,.81-.08c.24,0,.34-.11.35-.35a2.57,2.57,0,0,1,0-.78.17.17,0,0,1,.1-.1,6.52,6.52,0,0,1,0,1.53c0,.5,0,1,0,1.5,0,.19,0,.37-.24.4Z" transform="translate(-6.75 -0.38)"/>
      <path class="cls-27" d="M78,64.42H75.8a7.5,7.5,0,0,1,0-1.34.93.93,0,0,1,.67-.13A7.58,7.58,0,0,1,77.9,63a.22.22,0,0,1,.13.1,2.2,2.2,0,0,1,0,1.27Z" transform="translate(-6.75 -0.38)"/>
      <path class="cls-27" d="M78,73.18H75.8a6,6,0,0,1,0-1.34.76.76,0,0,1,.58-.14,7.81,7.81,0,0,1,1.53.06.24.24,0,0,1,.13.11,1.88,1.88,0,0,1-.06,1.3Z" transform="translate(-6.75 -0.38)"/>
      <path class="cls-26" d="M78,63.07H75.8a1.78,1.78,0,0,1,1.54-1.65,1.19,1.19,0,0,1,.65,0A2.07,2.07,0,0,1,78,63.07Z" transform="translate(-6.75 -0.38)"/>
      <path class="cls-26" d="M78,71.83H75.81c.23-1.22.78-1.63,2.19-1.63v0A2,2,0,0,1,78,71.83Z" transform="translate(-6.75 -0.38)"/>
      <path class="cls-26" d="M78,63.07v-1.6l.09,0A1.72,1.72,0,0,1,79.33,63a.11.11,0,0,1,0,.15,1.8,1.8,0,0,1-1.31,0Z" transform="translate(-6.75 -0.38)"/>
      <path class="cls-16" d="M96,77.92a9.69,9.69,0,0,0,2.46-.18,3.4,3.4,0,0,0,2.33-3V58.16l3.35,0c.23,0,.32.08.31.31s0,.38,0,.58a4.25,4.25,0,0,1,0,1.91c-.37.23-.77.11-1.17.12-1,0-1-.08-1,1,0,.74,0,1.49,0,2.23a.69.69,0,0,1,0,.4,4.81,4.81,0,0,0,1.56.08c.86,0,.74-.11.75.76s0,1.64,0,2.45c0,.34-.08.48-.44.46s-1,0-1.46,0c-.15,0-.3,0-.42.08a19.55,19.55,0,0,1,0,2.54,3.42,3.42,0,0,1,0,1.15c.27.17.57,0,.86.08.46,0,1.07-.2,1.36.1s.07.91.09,1.38,0,1.19,0,1.79c0,.31-.11.4-.41.4a10,10,0,0,0-1.89,0c-.15.13-.1.3-.11.46,0,.93,0,1.86,0,2.8,0,.38-.12.47-.48.46-1,0-1.94,0-2.91,0a19.28,19.28,0,0,1-2.74,0h0A2.88,2.88,0,0,1,96,78Z" transform="translate(-6.75 -0.38)"/>
      <path class="cls-12" d="M81.73,58.06V56.73c0-.9,0-.9.89-.9q10.67,0,21.33,0c.42,0,.58.1.54.54a7.94,7.94,0,0,0,0,1.29c0,.31-.09.41-.4.41-1.14,0-2.28,0-3.42,0Z" transform="translate(-6.75 -0.38)"/>
      <path class="cls-26" d="M79.32,63.07V63a.59.59,0,0,1,.08.43c0,.88,0,1.75,0,2.63,0,.31-.1.47-.44.44s-.65,0-1,0v-2h0c.25-.19.54-.12.81-.13s.39-.12.39-.4S79.13,63.32,79.32,63.07Z" transform="translate(-6.75 -0.38)"/>
      <path class="cls-26" d="M78,71.83V70.24a1.68,1.68,0,0,1,1.36,1.58l0,0a1.51,1.51,0,0,1-1.33,0Z" transform="translate(-6.75 -0.38)"/>
      <path class="cls-24" d="M102.25,76.05c.74,0,1.48,0,2.22,0,0,1.08,0,2.17,0,3.26,0,.3-.08.42-.4.41a11.21,11.21,0,0,0-1.42,0c-.35,0-.42-.13-.42-.44C102.26,78.2,102.25,77.12,102.25,76.05Z" transform="translate(-6.75 -0.38)"/>
      <path class="cls-28" d="M96,79.69l2.74,0v.06H96Z" transform="translate(-6.75 -0.38)"/>
      <path class="cls-26" d="M94.27,52.2a1.19,1.19,0,0,1-1.17,1.21,1.2,1.2,0,1,1,1.17-1.21Z" transform="translate(-6.75 -0.38)"/>
      <path class="cls-24" d="M102.25,64.69a3.19,3.19,0,0,1-.07-1.11c0-.74,0-1.49,0-2.23,0-.32.1-.42.41-.41.62,0,1.24,0,1.86,0,.08,1.16,0,2.31,0,3.47,0,.26-.14.28-.34.28Z" transform="translate(-6.75 -0.38)"/>
      <path class="cls-24" d="M102.25,72.2a2.72,2.72,0,0,1-.06-1.1,17.24,17.24,0,0,1,.06-2.59h1.9c.25,0,.34.07.34.33q0,1.51,0,3c0,.26-.09.34-.34.33C103.52,72.19,102.88,72.2,102.25,72.2Z" transform="translate(-6.75 -0.38)"/>
      <path class="cls-26" d="M110.4,73.18c0,.56,0,1.13,0,1.69,0,.26-.1.37-.37.37h-2.83c-.28,0-.36-.1-.36-.37,0-.56,0-1.13,0-1.69a.52.52,0,0,1,.44-.14c.89,0,1.77,0,2.65,0A.55.55,0,0,1,110.4,73.18Z" transform="translate(-6.75 -0.38)"/>
      <path class="cls-26" d="M110.39,64.41c0,.55,0,1.1,0,1.65,0,.31-.13.41-.43.41q-1.35,0-2.7,0c-.34,0-.44-.13-.43-.45,0-.53,0-1.07,0-1.6a.54.54,0,0,1,.45-.14q1.32,0,2.64,0A.54.54,0,0,1,110.39,64.41Z" transform="translate(-6.75 -0.38)"/>
      <path class="cls-27" d="M110.4,73.18h-3.54a2.8,2.8,0,0,1,0-1.35.73.73,0,0,1,.5-.14h2.52a.71.71,0,0,1,.5.15A6.66,6.66,0,0,1,110.4,73.18Z" transform="translate(-6.75 -0.38)"/>
      <path class="cls-27" d="M110.39,64.41h-3.53a2.93,2.93,0,0,1,0-1.35.77.77,0,0,1,.5-.14h2.53a.75.75,0,0,1,.5.14A6,6,0,0,1,110.39,64.41Z" transform="translate(-6.75 -0.38)"/>
      <path class="cls-26" d="M110.39,63.07h-3.53a1.76,1.76,0,0,1,1.65-1.68,1.82,1.82,0,0,1,1.83,1.38C110.36,62.87,110.37,63,110.39,63.07Z" transform="translate(-6.75 -0.38)"/>
      <path class="cls-26" d="M110.39,71.84h-3.52a1.67,1.67,0,0,1,1.53-1.61,1.72,1.72,0,0,1,1.94,1.36C110.36,71.66,110.37,71.75,110.39,71.84Z" transform="translate(-6.75 -0.38)"/>
      <path class="cls-26" d="M90.18,72.54c0-.51,0-1,0-1.55s.17-.6.55-.6h4.74c.28,0,.52.12.54.37a5.44,5.44,0,0,1,0,1.8.81.81,0,0,1-.55.11q-2.34,0-4.68,0C90.53,72.67,90.33,72.7,90.18,72.54Z" transform="translate(-6.75 -0.38)"/>
      <path class="cls-15" d="M96,72.63c.14.14.08.31.08.47,0,1.6,0,3.21,0,4.82h0a.45.45,0,0,1-.36.13,8.32,8.32,0,0,1-1.8-.06.23.23,0,0,1-.12-.12.28.28,0,0,1,0-.13c-.06-1.6,0-3.2,0-4.81a.43.43,0,0,1,.11-.28A12,12,0,0,1,96,72.63Z" transform="translate(-6.75 -0.38)"/>
      <path class="cls-15" d="M90.15,77.92l0-5.27a11,11,0,0,1,2.22,0,.57.57,0,0,1,.12.41c0,1.51,0,3,0,4.53a.75.75,0,0,1,0,.26.3.3,0,0,1-.11.14,4.47,4.47,0,0,1-2.18-.06Z" transform="translate(-6.75 -0.38)"/>
      <path class="cls-27" d="M90,67.06a5.91,5.91,0,0,1-1.33,0,.74.74,0,0,1-.14-.59c0-.73,0-1.46,0-2.19,0-.47-.06-.51-.54-.54-.33,0-.69.1-1-.13a3.19,3.19,0,0,1,.1-1.34.94.94,0,0,1,.63-.14c1.07,0,2.15,0,3.22,0a.94.94,0,0,1,.63.14,3.19,3.19,0,0,1,.1,1.34c-.3.23-.65.12-1,.13s-.54.07-.54.54c0,.73,0,1.46,0,2.19A.78.78,0,0,1,90,67.06Z" transform="translate(-6.75 -0.38)"/>
      <path class="cls-27" d="M94.53,63.61a3.19,3.19,0,0,1,.1-1.34.94.94,0,0,1,.63-.14c1.08,0,2.15,0,3.22,0a1,1,0,0,1,.64.14,3.18,3.18,0,0,1,.09,1.34c-.3.23-.65.12-1,.13-.49,0-.54.07-.55.54,0,.73,0,1.46,0,2.19,0,.2,0,.42-.13.59a5.92,5.92,0,0,1-1.33,0c-.17-.17-.13-.39-.14-.59,0-.73,0-1.46,0-2.19,0-.47-.06-.51-.55-.54C95.19,63.73,94.84,63.84,94.53,63.61Z" transform="translate(-6.75 -0.38)"/>
      <path class="cls-15" d="M81.7,62.8c0-.49,0-1,0-1.47,0-.28.06-.41.37-.4.52,0,1,0,1.55,0,.28,0,.4.08.4.38,0,1,0,2,0,3,0,.29-.1.4-.39.39-.53,0-1.07,0-1.6,0-.25,0-.34-.08-.33-.33C81.71,63.84,81.7,63.32,81.7,62.8Z" transform="translate(-6.75 -0.38)"/>
      <path class="cls-15" d="M84,70.32c0,.51,0,1,0,1.52,0,.26-.09.38-.36.37H82c-.23,0-.32-.07-.32-.3,0-1,0-2.09,0-3.13,0-.22,0-.33.3-.33h1.68c.25,0,.34.11.34.35C84,69.31,84,69.82,84,70.32Z" transform="translate(-6.75 -0.38)"/>
      <path class="cls-26" d="M97.54,67.06c0-1,0-2,0-3,0-.38.13-.51.49-.48s.8,0,1.2,0c0,1,0,2.08,0,3.11,0,.28-.11.37-.37.36Z" transform="translate(-6.75 -0.38)"/>
      <path class="cls-26" d="M94.53,63.61c.4,0,.8,0,1.19,0s.5.1.49.48c0,1,0,2,0,3l-1.32,0c-.26,0-.38-.08-.37-.36C94.53,65.68,94.53,64.65,94.53,63.61Z" transform="translate(-6.75 -0.38)"/>
      <path class="cls-26" d="M90,67.06c0-1,0-2,0-3,0-.38.13-.51.49-.48s.79,0,1.19,0c0,1,0,2.07,0,3.11,0,.28-.11.37-.37.36Z" transform="translate(-6.75 -0.38)"/>
      <path class="cls-26" d="M87,63.61c.4,0,.8,0,1.19,0s.5.1.49.48c0,1,0,2,0,3l-1.33,0c-.25,0-.37-.08-.37-.36C87,65.69,87,64.65,87,63.61Z" transform="translate(-6.75 -0.38)"/>
      <path class="cls-26" d="M91.56,62.27H87.08a2.33,2.33,0,0,1,4.48,0Z" transform="translate(-6.75 -0.38)"/>
      <path class="cls-26" d="M99.12,62.27H94.63a2.34,2.34,0,0,1,4.49,0Z" transform="translate(-6.75 -0.38)"/>
      <path class="cls-29" d="M92.39,72.64H90.18v-.11l5.77,0s0,0,0,.07H93.81A1.68,1.68,0,0,1,92.39,72.64Z" transform="translate(-6.75 -0.38)"/>
      <path class="cls-24" d="M90.18,77.91h2.21a2.54,2.54,0,0,1,0,1.78H90.16Z" transform="translate(-6.75 -0.38)"/>
      <path class="cls-24" d="M93.81,77.92H96V79.7H93.81A2.48,2.48,0,0,1,93.81,77.92Z" transform="translate(-6.75 -0.38)"/>
      <path class="cls-12" d="M93.81,77.92V79.7H92.39V77.92h0a1.61,1.61,0,0,1,1.42,0Z" transform="translate(-6.75 -0.38)"/>
      <path class="cls-27" d="M78,71.84h1.33c0,.34,0,.68,0,1s-.09.32-.32.31H78Z" transform="translate(-6.75 -0.38)"/>
      <path class="cls-27" d="M79.32,63.07c0,.43.19,1-.1,1.27s-.81,0-1.23.07V63.08Z" transform="translate(-6.75 -0.38)"/>
      <path class="cls-12" d="M93.81,77.92H92.39V72.64h1.42Z" transform="translate(-6.75 -0.38)"/>
    </g>
  </g>
</svg>
