<svg xmlns="http://www.w3.org/2000/svg" xmlns:xlink="http://www.w3.org/1999/xlink" viewBox="0 0 499.96 526.01"><defs><style>.a{fill:none;}.b{fill:#f2f2f2;}.c{fill:#4dadd3;}.d,.e,.f,.p{fill:#fff;}.d,.e,.f,.l{isolation:isolate;}.d{opacity:0.4;}.e{opacity:0.6;}.f{opacity:0.3;}.g{fill:#ef8219;}.h{clip-path:url(#a);}.i{fill:#d3a081;}.j{fill:#eec500;}.k{fill:#4aaed5;}.ad,.l{fill:#010101;}.ac,.l{opacity:0.2;}.m{fill:#edbf30;}.n{fill:#e9c30f;}.o{fill:#138fb3;}.q{fill:#fafafa;}.r{fill:#bbd1ed;}.s{fill:#50b8ab;}.t{clip-path:url(#b);}.u{fill:#212245;}.v{fill:#f09048;}.w{fill:#2b498c;}.x{fill:#18355d;}.y{fill:#e03a38;}.z{clip-path:url(#c);}.aa,.ah{fill:#d3a080;}.ab{fill:#c3ccd3;}.ae{fill:#353a42;}.af{fill:#f08319;}.ag{fill:#262525;}.ah{fill-rule:evenodd;}.ai{fill:#eabf2f;}.aj{clip-path:url(#d);}.ak{fill:#25378b;}.al{fill:#cca285;}.am{fill:#ab8b6c;}</style><clipPath id="a"><circle class="a" cx="383.55" cy="359.1" r="73.6"/></clipPath><clipPath id="b"><circle class="a" cx="413.01" cy="116.95" r="76.95"/></clipPath><clipPath id="c"><circle class="a" cx="120.38" cy="160.04" r="48.4"/></clipPath><clipPath id="d"><circle class="a" cx="104.58" cy="383.41" r="94.57"/></clipPath></defs><path class="b" d="M459,247c0,75.81-14.9,95.38-49.63,133.15s-95.15,65.39-153.79,70.26-105.89-21.45-131-47.78S52.13,309.4,52.13,247c0-49.27,11.49-82.92,46.68-129.64,35-46.53,81.87-73.78,156.76-73.78S398,94.71,415.69,121.48,459,171.14,459,247Z"/><rect class="c" x="43.28" y="93.89" width="436.98" height="313.93" rx="8.63"/><path class="d" d="M351.8,132.74H190.47c-5.46,0-9.89,6.16-9.89,13.76v23.2c0,7.6,4.43,13.76,9.89,13.76h6l-1.81,14c-.32,2.45,1.75,4.12,3.12,2.52l14.14-16.47h139.9c5.46,0,9.89-6.16,9.89-13.76v-23.2C361.69,138.9,357.26,132.74,351.8,132.74Z"/><path class="d" d="M351.8,257.57H190.47c-5.46,0-9.89,6.16-9.89,13.76v23.2c0,7.6,4.43,13.76,9.89,13.76h6l-1.81,13.95c-.32,2.46,1.75,4.12,3.12,2.52l14.14-16.47h139.9c5.46,0,9.89-6.16,9.89-13.76v-23.2C361.69,263.73,357.26,257.57,351.8,257.57Z"/><path class="e" d="M283.4,195.15H444.73c5.47,0,9.89,6.16,9.89,13.76v23.21c0,7.6-4.42,13.76-9.89,13.76h-6l1.81,13.94c.32,2.46-1.74,4.13-3.12,2.52l-14.13-16.46H283.4c-5.46,0-9.89-6.16-9.89-13.76V208.91C273.51,201.31,277.94,195.15,283.4,195.15Z"/><path class="e" d="M283.4,320H444.73c5.47,0,9.89,6.16,9.89,13.75V357c0,7.6-4.42,13.76-9.89,13.76h-6l1.81,13.95c.32,2.45-1.74,4.12-3.12,2.52l-14.13-16.47H283.4c-5.46,0-9.89-6.16-9.89-13.76V333.74C273.51,326.15,277.94,320,283.4,320Z"/><rect class="f" x="61.49" y="132.74" width="91.57" height="248.76" rx="10.9"/><circle class="g" cx="388.86" cy="359.1" r="73.6"/><g class="h"><polygon class="i" points="376.26 525.21 374.33 533.35 371.76 544.15 363.74 544.15 363.26 533.81 362.89 525.83 376.26 525.21"/><path class="j" d="M401.7,348s6.35-6.79,10.47-1.47,8.71,8.93,15,13-5.6,36.22-13.53,35.56S373.37,369.15,401.7,348Z"/><path class="k" d="M370.13,344.79c1.59-1.18,16.18-6.19,30.41-1.27s-11,18.66-11,18.66l-8.19.35Z"/><path class="i" d="M379.37,335.51s-.28,8.75-1.4,12.67l-8.84,19.1,33.35-7.93-8-11s-2.4-11.73-1.14-16.07S379.37,335.51,379.37,335.51Z"/><path class="l" d="M379.32,336.72s2.64,6.35,7.61,6.21,6.1-5.76,6.1-5.76Z"/><path class="m" d="M376.36,331.58s-1.61-8-2.73-10.44-2.05-13.25,10.36-13.81c0,0,4.76.56,7.37-1,0,0,0,1.58-.65,2.14a8.25,8.25,0,0,1,7.65,2.71c3.36,3.73-2.24,16.79-2,19.87Z"/><path class="i" d="M386.36,340.48c-3.6-.07-10.23-4.86-10.23-10.8v-9.26a3.7,3.7,0,0,1,3.36-3.94h13.74a3.7,3.7,0,0,1,3.36,3.94v8.74C396.59,335.38,390.49,340.55,386.36,340.48Z"/><path class="n" d="M376.13,325.36s0-5.56,4.43-6.42,14.28,2.72,15.68-1.34-19.08-4-20.11-1.4S376.13,325.36,376.13,325.36Z"/><path class="k" d="M391.5,421.83c2.21-6.88,2.17,28.45-6.7,68.19-1.35,6.06-4.38,20.69-6.55,34.84H360.13c-.25-11.43-1.47-27.38-2.24-39.33-2.42-37.46,3.73-65.57,3.73-65.57Z"/><path class="k" d="M414.81,485.53c-.2,11.45-2.52,26.66-2.74,37.82H393.65c-1.24-8.1-3.21-16.44-4.62-23.16A64.43,64.43,0,0,1,387.31,489c0-4.86-3.06-18.89-4.89-31.26v-.05c-.07-.47-.14-.95-.2-1.42a203.91,203.91,0,0,1-1.59-34.4l31.09-1.94S415.35,455,414.81,485.53Z"/><path class="o" d="M359.13,434.37s7,8.47,26,7.25,28.07-4.53,28.07-4.53Z"/><path class="p" d="M413.18,437.09c-6.2.84-48.44,3-54.07-2.72S368.3,350,368.3,350s1.68-.49,4.51-1c1.45-.27,3.19-.55,5.16-.79,0,.61.51,9.88,8.21,13.7,0,0,9.23-3.7,8.33-13.55v-.34c1.23.13,2.48.3,3.73.52a54.43,54.43,0,0,1,7.65,1.89S419.39,436.25,413.18,437.09Z"/><path class="p" d="M362,396.46c-.25.32-1.06,2.8,1.32,5.91,4.88,6.39,12.7,15.68,12.7,15.68a32.28,32.28,0,0,1-.54,5.19c-10.74-5.08-18-9.82-22.81-13.63-6.77-5.36-8.71-8.88-8.71-8.88C354.77,354.84,368.69,350,368.69,350l4.54,27.65S362.72,395.46,362,396.46Z"/><path class="q" d="M398.2,348.54l-2.79,8.5-3.73,5.48-5.36,2.9-5-2.9L372.81,349c1.45-.27,3.19-.55,5.16-.79,0,.61.51,9.88,8.21,13.7,0,0,9.23-3.7,8.33-13.55v-.34C395.7,348.15,397,348.32,398.2,348.54Z"/><path class="i" d="M376,418v.27c0,.58-.06,1.12-.1,1.62A9.88,9.88,0,0,1,375,421a10,10,0,0,1-1.57,1.27l-.81-.4a111.9,111.9,0,0,1-20-12.25,24.05,24.05,0,0,0,10.65-7.24C368.13,408.76,376,418,376,418Z"/><path class="p" d="M429.31,399s-1.88,3.55-8.54,9c-4.74,3.91-11.91,8.79-22.54,14.07a32.06,32.06,0,0,1-.65-5.17s7.64-9.45,12.4-15.93c2.32-3.15,4-5.6,3.7-5.92-.61-.76-8.75-11.48-12.39-16.26l-1.73-2.28,4.6-27.19S417.58,353.37,429.31,399Z"/><path class="i" d="M420.77,408a112.61,112.61,0,0,1-19.83,12.69l-.68.35a13,13,0,0,1-2.32-4.59l.6-.74c2.19-2.74,7.7-9.65,11.44-14.74A24,24,0,0,0,420.77,408Z"/><path class="i" d="M394.47,348a74,74,0,0,0-16.5.19h0S393.24,338.73,394.47,348Z"/><polygon class="r" points="379.15 374.73 378.84 374.73 378.61 360.01 379.4 360.01 379.15 374.73"/><path class="k" d="M378.81,374.35c-.29.43-.93,1.85-.5,2a1.81,1.81,0,0,0,1.37,0C379.88,376.11,379.35,373.54,378.81,374.35Z"/><polygon class="r" points="393.61 374.73 393.29 374.73 393.06 360.01 393.85 360.01 393.61 374.73"/><path class="k" d="M393.26,374.35c-.28.43-.92,1.85-.5,2a1.83,1.83,0,0,0,1.38,0C394.34,376.11,393.8,373.54,393.26,374.35Z"/><path class="k" d="M381.28,362.53l-13-12.51s-2.92-2.08,1.7-5.18S381.28,362.53,381.28,362.53Z"/><path class="k" d="M391.68,362.53l13-12.51s2.92-2.08-1.7-5.18S391.68,362.53,391.68,362.53Z"/><path class="l" d="M408,423.42a7.72,7.72,0,0,1-7-2.65,12.29,12.29,0,0,1-2.4-5,16.49,16.49,0,0,1-.52-3.28v-.36H377v.39a11.74,11.74,0,0,1-1.09,5.78,8.89,8.89,0,0,1-1.52,2.13,8.79,8.79,0,0,1-1.85,1.41,12.59,12.59,0,0,1-6,1.56h-.39v8.86h42.14v-8.88Z"/><path class="l" d="M413.68,395.13s-11.69-15.34-2.44-19.8c3.68-1.78,8.85,19.27,6.07,21.25s-7.33,4.47-7.33,4.47Z"/><path class="l" d="M360.81,392.6s4.06-19.26.5-17.27-8.84,19.27-6.07,21.25,7.33,4.47,7.33,4.47Z"/><path class="j" d="M412,395c-5.34-6.62-7.33-17.38-7.06-28.48a132,132,0,0,1,1.42-16.13l4.38,3.41c0,.07-2.51,4.63-2.7,12.74-.18,7.42-.53,13.07,3.66,26Z"/><path class="o" d="M371.52,529h-9.39c-.83.1-2.13-1.12-2.13-2.87a33.77,33.77,0,0,0-.3-4.92c-1.21-3.25.59-3.43,2.34-3.43h17.09c1.75,0-.92,5.39-.92,7.13l.61,2.28C378.86,528.89,373.26,529,371.52,529Z"/><polygon class="i" points="395.83 525.21 397.76 533.23 400.33 543.86 408.36 543.86 408.83 533.68 409.2 525.82 395.83 525.21"/><path class="o" d="M400.59,529H410c.83.1,2.13-1.12,2.13-2.87a33.77,33.77,0,0,1,.3-4.92c1.21-3.25-.59-3.43-2.33-3.43H392.93c-1.74,0,.93,5.39.93,7.13l-.62,2.28C393.24,528.89,398.84,529,400.59,529Z"/></g><circle class="s" cx="413.01" cy="116.95" r="76.95"/><g class="t"><path class="u" d="M397.81,133.52c-.73-2.75-1.2-7.46-.24-15.52-.06.81-.72,11.07,2,17.5,14,13.54,37.89,54.23,35.92,60.67,0,0-14.43,50.45,17.32,24.43,0,0,39.16-33.1,14.67-64.89-8.69-11.33-21.35-34.56-19.15-42.57s5.58-43.68-20.62-39.32c0,0-3.55-2.46-5.35-2.55a4.83,4.83,0,0,1,1.95,1.42,19.87,19.87,0,0,0-10.6-.1C403.78,75.78,386.65,118.53,397.81,133.52Z"/><path class="p" d="M348.53,189.8c0,3.45,1.78,7.86,4.32,12.41,6.31,11.33,17.35,23.47,17.35,23.47l6.4-8.89s-3.89-9.42-6.47-17.18c-1.55-4.67-2.63-8.74-2.1-9.81,1.4-2.86,29.11-34.84,29.11-34.84l7.53-24.74s-18.43.95-26.28,12.16S348.53,180.51,348.53,189.8Z"/><path class="i" d="M352.85,202.21c6.31,11.33,17.35,23.47,17.35,23.47l6.4-8.89s-3.89-9.42-6.47-17.18C367,201.4,361.66,203.11,352.85,202.21Z"/><path class="i" d="M403.35,138.21c-.09,0,8,4.11,14,2.49,5.69-1.51,9.41-8.72,9.33-8.73-2.41-.47-3.1-3.7-3.05-17.6l-1.09.21-18.33,3.54s.41,5.63.43,10.94C404.67,133.51,404.39,137.73,403.35,138.21Z"/><path class="v" d="M432.75,82.28s-7-11-19.89-4.4C412.86,77.88,419.56,78,432.75,82.28Z"/><path class="l" d="M404.23,118.12s.41,5.63.43,10.94c10.25-.29,15.68-9.42,17.9-14.48Z"/><path class="u" d="M426.33,115.21s6.95-7.09,9.65-13.78c1.93-4.79,3.13-23.68-16.35-24.75a26.88,26.88,0,0,0-11.5,1.83c-4.67,1.9-11.81,6.58-8.49,23.93l.61,5.76Z"/><path class="i" d="M403.4,120.85s21.33,5.19,24.33-9.29,8.09-23.54-6.92-27.38-18.54,1.58-20.75,6.17S393.46,121,403.4,120.85Z"/><path class="u" d="M410.05,81.69s3,18.25,12.48,22.72,14.36,2.71,14.36,2.71A27.74,27.74,0,0,1,431,89S416.63,74.58,410.05,81.69Z"/><path class="u" d="M411.38,83.39s-5.65,2.83-7.6,6.28-4,10.92-6.25,10.22c0,0-2.53-12.5,4.33-17.94C409.13,76.19,411.38,83.39,411.38,83.39Z"/><path class="p" d="M371,257.68c14.75,3.74,83.58,11.12,84.18-5.7.15-4.11,0-9.06-.33-14.43-1-16.61-3.83-37.15-5.17-48.45-.61-5.17,1.43-28.37-.14-41a26.63,26.63,0,0,0-.95-4.83c-3-9.54-16.33-12.13-23.19-12.36l-20.69-.68s-21.37,23.29-24.34,30.44-3.95,31.66-6.26,43.52S363.78,255.86,371,257.68Z"/><path class="l" d="M411.61,200.82s11.51,34.48,43.2,36.73c-1-16.61-3.83-37.15-5.17-48.45-.61-5.17,1.43-28.37-.14-41-.41.08-.78.31-1.21.39C413.39,155,408.44,193.64,411.61,200.82Z"/><polygon class="w" points="389.49 220.61 426.24 216.79 420.28 162.21 383.53 166.03 389.49 220.61"/><polygon class="x" points="420.28 162.21 422.64 162.03 428.18 216.56 426.24 216.79 420.28 162.21"/><path class="p" d="M451.28,186.38s-25.93,7.73-50.72,11.19c0,0-8.17,3.45-4.33,4.39,1,.24,50.61,10.8,58,4Z"/><path class="p" d="M425.36,130.9s13.64.08,19.46,6.56c10.63,11.83,12.73,62.13,9.38,68.45-1.45,2.72-12.51,2.94-17.18-10.22C434.6,188.87,424,143.31,425.36,130.9Z"/><path class="i" d="M403,197.21s-3.05-.27-3.63-1.22c-1.15-1.9-3-1.88-4.51-2.13s-3.23-1.88-3.54-1.55,1.13,2.12,1.93,2.79a6.47,6.47,0,0,1-2.72-.41c-1.08-.5-4.38-4.66-4.9-2.91-1.37,4.6.05,9,3.83,9.39,4.09.38,14.22,2.29,14.22,2.29Z"/></g><circle class="y" cx="120.37" cy="160.03" r="48.4"/><g class="z"><path class="aa" d="M131.94,324.71l1.44,8.44,8.08-1.35s1.45-8.21,1.25-8.21S131.94,324.71,131.94,324.71Z"/><path class="aa" d="M96.35,317.48c0,.27-2.55,6.64-2.55,6.64l5.9,2.36,5-6.37Z"/><path class="ab" d="M102,235.65c-.82,10.47-1.06,21-3.3,31.37-1.49,7,2.94,11.77,1.43,19-.41,2.34-1.08,4.67-1.51,7.28-.77,3.89.57,7.66-.2,11.56-.74,3.38-4.09,6.32-4.55,9.45-.77,3.9,2.82,5.45,6.93,7,6.7,2.27,8.22-1.06,12-6.61,2.9-4.29,5.78-8.32,7.93-13.18A37.82,37.82,0,0,0,123.62,291c.41-3.25-.17-7.18,1.09-10.23l1.63,32.54.63,6.93s0,7.35,6.35,7.53c7,.2,8.7-.73,8.7-.73s5.89-1,4-12.66c-.7-4.22-2.34-33.21-2.15-40.3s.83-17.32.83-17.32L141.8,231a29.06,29.06,0,0,0-18.73-3.51c-10.63,1.7-19.35,2.2-19.35,2.2S102.42,230.67,102,235.65Z"/><g class="ac"><path class="ad" d="M144.81,299.73c-6.3,7-15.79.73-16.81-7.46-2-15.76,4.86-13.14,2.36-24.17-1.28-5.68-3.86-12.35-4.11-18-2.16,4.16-1.7,8.19-1.18,12.77a51,51,0,0,1,0,15.1c-1.19,6.38-4,11.72-11.14,12-4.72.16-10.56-1.68-14.72.78-.18.84-.36,1.69-.51,2.59-.77,3.89.57,7.66-.2,11.56-.74,3.38-4.09,6.32-4.55,9.45-.77,3.9,2.82,5.45,6.93,7,6.7,2.27,8.22-1.06,12-6.61,2.9-4.29,5.78-8.32,7.93-13.18A37.56,37.56,0,0,0,123.62,291c.41-3.25-.17-7.18,1.09-10.23l1.63,32.54.63,6.93s0,7.35,6.35,7.53c7,.2,8.7-.73,8.7-.73s5.89-1,4-12.66C145.68,312.63,145.23,306.65,144.81,299.73Z"/></g><path class="l" d="M139.49,231.13l.85,4.75s-1,6.07-11.62,6.58c-12.41.59-22-4.39-24.43-5-1.87-.5-.65-3.35-.65-3.35C104.13,228,139.49,231.13,139.49,231.13Z"/><path class="aa" d="M127.92,160c.06-.41.13-.8.22-1.16.49-2-2.55-2.81-3-.84a13.19,13.19,0,0,0-.33,2.34,1.32,1.32,0,0,0-1.61.47,1.63,1.63,0,0,0-1.66.15,1.87,1.87,0,0,0-.91-.34,1.69,1.69,0,0,0-2.12-.92v-1.4a.79.79,0,0,0-1.57,0,36.85,36.85,0,0,1-.09,4.46,34.42,34.42,0,0,1-1,3.47c-.53,2.06.87,3.68,2.34,4.92,2.89,2.46,6.4,1.65,9.06-.42a4.14,4.14,0,0,0,1.06-.94l.34-.34a.77.77,0,0,0,.19-.43v-.12C129.07,165.93,128,163,127.92,160Z"/><path class="ae" d="M151.07,339.8c.12,1.16.36,2.71.36,2.71.11,1.06-6.8,1.57-10.94,1.57a30,30,0,0,1-7.07-.61c-.43-.15-1.22-.18-1.28-.83,0,0-.23-2.68-.2-3.16s.45-.93.52-1.54c.13-1.17-.66-2-.41-4.37.06-.59,1-.54,1.54-.75,1-.4,1.92-1.54,3-2,3.15-1.42,5.32.76,5.55,2C142.67,335.82,150.83,337.35,151.07,339.8Z"/><path class="p" d="M101.92,229.57a16.6,16.6,0,0,1-4.52-3.42,28.12,28.12,0,0,0-4.69-3.34c-1.44-.86-3.77-1.7-4.81-3.06-.77-1-.73-2.38-1.12-3.52s-1.94-2.7-1.57-4c0-.07,3.53-10.32,3.91-12.75,1-6.29,2.2-9.68,4.21-15.72A64,64,0,0,0,96.05,174c.19-1.21.39-2.66,1.65-3.32,1-.53,2.41-.24,3.59-.53,9.41-2.3,9.47-4.47,9.47-4.47s.13-3.27,2.86-3.27c1.22,0,2.79-1.87,3.27-.57,0,0-.51,7.75,5.61,9,3.52.69,7-.42,6.22-4.51-.23-1.19-.67-4.8-.67-4.8s2.09-2.38,4.34.39,1.09,3.56,1.57,4.31,1.55.83,2.06,2.11a7,7,0,0,1,.32,3.18c0,.52,5.66,3.68,5.66,3.68s3.33,3.46,3.2,7.11,1.67,12.64,2.87,17.06,6.24,9.08,4,15.94-5.44,12.77-5.75,13l-3.64,2.17a10.15,10.15,0,0,1,.75,2.52c.12.71-.7,1.38-1.27,1.49,0,0-.51.47-5.39-.34s-16.52-.86-20.39.87-13.25.48-14.28-.34S101.92,229.57,101.92,229.57Z"/><path class="l" d="M104.13,230.56s4.66.59,6-2.59,0-7.59,0-7.59a.46.46,0,0,1,.64-.11l.11.11c.4.46,5.41-1.41,7.65-1.54,10.15-.59,13,8.6,16.65,10s3.61,2.76,2.13,3.71a9.28,9.28,0,0,1-3.25,1.22s-11.69-.45-14.25.27-6.41,2.26-9.29,1.53c-3.26-.82-7.19-.46-7.35-1.44S102.85,230.82,104.13,230.56Z"/><path class="af" d="M108.36,167.83a1.55,1.55,0,0,0-1.91-1.07h0s-3.92,1.21-4.46,1.46-.59.66-.59,1.23a.61.61,0,0,0,.41.66l1.1-.29c5.83,8.32,2.08,26.64,2.08,26.64s-.11.53.69.88h0l-.36,1.75a.8.8,0,0,0,.46,1l.18,0c-.14,1-1.25,8.44-3.36,12.17a4.2,4.2,0,0,1,2.2.46c.67.52,1.16.1,1.34-.49s2.61-8.29,2.69-12.12h0a1.23,1.23,0,0,0,.92-1c.1-.79.19-1.85.19-1.85h0c1-.35,1-.88,1-.88C114.44,180.5,109,169.35,108.36,167.83Z"/><path class="af" d="M142.72,198.3h.19a62,62,0,0,0-.5-9.23,46.88,46.88,0,0,0-2-8.58,35.79,35.79,0,0,1-.17-6.21,1.49,1.49,0,0,0-.51-1.52s-2.22-1.59-2.69-1.91-.65,0-.65,0v.88l.86.66a21,21,0,0,0,1.08,9.39c2.85,7.54,2.34,15.38,2.82,17l.2-.06.77,5.18s.34.19.84-.89S142.83,198.94,142.72,198.3Z"/><path class="ae" d="M102.77,337c-.1-.62-1.22-4.51-1.32-4.73a7.11,7.11,0,0,1-.11-3.4c.09-.28.18-.55.28-.82A2.31,2.31,0,0,0,102,327a3.48,3.48,0,0,0-.82-2.73c-.08-.09-.19,0-.15.11l-.19.27a3.18,3.18,0,0,0-2.12-2.08c-1.5-.3-2.84.75-3.87,1.85-.86-.61-.24-1.71-.07-2.74,0-.33-.06-.8-.44-.78a1.19,1.19,0,0,0-.81.55l-.12.09a3.71,3.71,0,0,0-.93,2.3,14,14,0,0,0-.12,1.58c-.45,1.37-1.13,2.44-1.5,3.62h0a5.28,5.28,0,0,0-.06,3,4.62,4.62,0,0,0,.39.88c.08.16.14.31.21.46.19.54.38,1.1.52,1.67a.66.66,0,0,0,.08.38c0,.29,0,.61.06.95a6.8,6.8,0,0,0,1,3.67,6.19,6.19,0,0,0,5.42,3,3.73,3.73,0,0,0,2.58-.57A5.72,5.72,0,0,0,102.77,337Zm-1.58-12.47h-.06v-.06Zm-10.06,4.19Z"/><path class="ag" d="M132.49,134.35s3,1.66,3,4-2.75,7.11-2.75,7.11c-1.15-3.35-2-5.77-2.15-7.55S132.49,134.35,132.49,134.35Z"/><path class="ah" d="M116.57,155.87c-2.56-2.77-3.18-8.09-3-12,.58-11.19,16.78-9.07,20-3.5s1.56,13.23-.47,15.79-4.3,7.1-7.85,5.14l-1.61,1.88-3.84,4.06Z"/><path class="ag" d="M108.13,142.13s-1.94-5.83,3.1-7.18c8.54-2.3,9.91,1.27,9.91,1.27s1.83,3.22.92,5.47a8.92,8.92,0,0,1-1.42,2.25l.46,3.65s-1.56,2.25-1.77,1.09c-.06-.32-1.17-4-2.84-3.77-2.15.31-2.38,2.27-1.52,4.82.72,2.14,2.1,2.44,2.67,3.27.44.63-.89,7.25-1.21,6.59-1.3-2.75-4.3-6.22-5.3-8.25A94.24,94.24,0,0,1,108.13,142.13Z"/><path class="ag" d="M112.13,135.21s-.23-2.47,4-4.53a13.87,13.87,0,0,1,10.77-.77c2.23.91,2.84-1.64,6.93-1.93,1.19-.08,1.87,7.21-2.36,9.66-1.16.67-6.91,2.07-10.16.34C121.34,138,112.46,137.43,112.13,135.21Z"/></g><circle class="ai" cx="104.57" cy="383.41" r="94.57"/><g class="aj"><path class="p" d="M137.29,348.11c7,13.9,1.2,29.91-12.47,35.57S96,386.14,89.05,372.24s-1.79-30.58,11.53-37.2S130.34,334.21,137.29,348.11Z"/><path class="p" d="M99.82,385.52a4.45,4.45,0,0,0,1.15-.12.88.88,0,0,0,.61-1.09.9.9,0,0,0-1.1-.61s-3.22.75-8-3.5c-5.41-4.8-9.19-15.7-3.59-31.91a.88.88,0,1,0-1.67-.57c-7.41,21.43,1.25,31.29,4.09,33.8C95.18,385,98.25,385.52,99.82,385.52Z"/><path class="ak" d="M121.13,402.21C129,404,139,426,143.92,440.06s13.3,31.83,18.77,37.31,41.44,18.17,41.44,18.17-88.91.17-87.09,0S121.13,402.21,121.13,402.21Z"/><path class="l" d="M168.28,488.47c-4.87-.69-22.43,1.57-15-1.56s6.43-7.13,6.43-7.13-10.61,8.87-12.52,1.11c-1.65-6.68-2.28-30.28-8.54-53.94-5.17-11.73-11.93-23.46-17.62-24.74,0,0-.21,8.33-.53,20,2.18,25.84,5.88,63.81,6.82,73.38h48l11-.52S173.13,489.17,168.28,488.47Z"/><path class="ak" d="M92,397.34S66.82,411.4,61,414.39s16.44,90.78,21.4,94.54,48.63.65,53.6-4.09-3.81-19.29.49-48.41-13.16-54.28-15.34-54.22-16.9-4.87-16.9-4.87Z"/><path class="l" d="M82.35,508.93c5,3.76,36.21,3.85,49.51-.29,1.5-.47,8.32-3.18,8.48-5.74-1.61-.3-8,.47-10.57-.13-9-2.07-14-13.21-14-13.21s-5-1.78-16-6.48-6.52-18.9-6.78-25.16-11-26.73-31-42.24l-1.84.82C58.7,430.77,77.76,505.45,82.35,508.93Z"/><path class="al" d="M107.43,487c15.82,3,19.71,6.59,28.33,8,9.78,1.58,8.62,3.74,1.36,3.74s-25.51.28-31.77-1.11S107.43,487,107.43,487Z"/><path class="ak" d="M59,416C46.85,454.81,29.66,498.8,32.4,498.8s72.35,2.81,75.09.47,2-11.34,1.57-12.52-39.58-8.13-39.58-8.13,5.16-10.05,7.11-29.71S61.27,408.69,59,416Z"/><path class="am" d="M101.2,363.65l-9.76,35.69s16.5,25.76,21,23.48-2.54-20.94-2.54-23.48S117,370.66,117,370.66Z"/><path class="l" d="M110.28,401.16a9.28,9.28,0,0,1-.34-1.82c0-2.53,7.07-28.68,7.07-28.68l-15.81-7L98,375.47A61.5,61.5,0,0,0,110.28,401.16Z"/><path class="am" d="M137.75,363c1.86,10.35.63,24.1-8.56,27.59s-20.26-3.19-24.72-14.93-.64-24.1,8.55-27.59S135.53,350.7,137.75,363Z"/><ellipse class="am" cx="101.79" cy="370.63" rx="5.13" ry="6.95" transform="translate(-118.38 55.58) rotate(-19.59)"/><path class="p" d="M137.86,350c-3.13,24.29-32.64,21.16-32.64,21.16s-6.09-8-8.82-3.81,3.79-24.62,20.73-25.53C122.69,341.58,137.86,350,137.86,350Z"/><ellipse class="p" cx="91.88" cy="339.79" rx="15.98" ry="14.99"/></g></svg>