<?xml version="1.0" encoding="utf-8"?>
<!-- Generator: Adobe Illustrator 26.5.0, SVG Export Plug-In . SVG Version: 6.00 Build 0)  -->
<svg version="1.1" xmlns="http://www.w3.org/2000/svg" xmlns:xlink="http://www.w3.org/1999/xlink" x="0px" y="0px"
	 viewBox="0 0 2048 2048" style="enable-background:new 0 0 2048 2048;" xml:space="preserve">
<style type="text/css">
	.st0{display:none;}
	.st1{display:inline;fill:#B9DDEE;}
	.st2{display:inline;fill:#EDADAB;}
	.st3{display:inline;fill:#BAE0DD;}
	.st4{display:inline;fill:#A6B0CC;}
	.st5{display:inline;fill:#F5E1A6;}
	.st6{display:inline;fill:#FCDEC5;}
	.st7{fill:#E7F3F9;}
	.st8{fill:#CFE1E5;}
	.st9{opacity:0.35;fill-rule:evenodd;clip-rule:evenodd;fill:#B9DDEE;}
	.st10{fill:#191947;}
	.st11{fill-rule:evenodd;clip-rule:evenodd;fill:#D29F80;}
	.st12{fill:#606060;}
	.st13{fill:#D29F80;}
	.st14{fill-rule:evenodd;clip-rule:evenodd;}
	.st15{fill-rule:evenodd;clip-rule:evenodd;fill:#EDD79F;}
	.st16{fill-rule:evenodd;clip-rule:evenodd;fill:#F5E1A6;}
	.st17{fill-rule:evenodd;clip-rule:evenodd;fill:none;stroke:#F5E1A6;stroke-width:4;stroke-miterlimit:10;}
	.st18{fill-rule:evenodd;clip-rule:evenodd;fill:#BAE0DD;}
	.st19{fill-rule:evenodd;clip-rule:evenodd;fill:#191947;}
	.st20{fill-rule:evenodd;clip-rule:evenodd;fill:#B4D8D5;}
	.st21{fill-rule:evenodd;clip-rule:evenodd;fill:#EDADAB;}
	.st22{fill:#B9DDEE;}
</style>
<g id="Calque_1" class="st0">
	
		<image style="display:inline;overflow:visible;opacity:0.39;" width="2048" height="2048" xlink:href="illu mail croquis.png"  transform="matrix(0.9814 -0.1918 0.1918 0.9814 -164.7855 225.4379)">
	</image>
</g>
<g id="couleur" class="st0">
	<rect x="25.1" y="-325" class="st1" width="219.5" height="219.5"/>
	<rect x="282.5" y="-325" class="st2" width="219.5" height="219.5"/>
	<rect x="546.7" y="-325" class="st3" width="219.5" height="219.5"/>
	<rect x="804" y="-325" class="st4" width="219.5" height="219.5"/>
	<rect x="1060.2" y="-325" class="st5" width="219.5" height="219.5"/>
	<rect x="1316.4" y="-325" class="st6" width="219.5" height="219.5"/>
</g>
<g id="Calque_10">
	<path class="st7" d="M1330.8,789.8c0-0.1,0-0.2,0-0.3c4.5-16.4,14.7-28.7,27.9-37.9c17.9-12.7,38.1-19.3,59.9-19.8
		c5.9-0.1,9.4-2.9,11.9-8.3c2.6-5.8,4.7-12,9-16.8c8.2-8.9,17.6-16,28.5-21c4.5-1.4,9-2.8,13.6-4.3c4.5-2.3,9.3-3.2,14.3-2.6
		c15-1.7,28.9,2.1,42.5,8.2c7.9,4.9,15.1,10.7,21.7,17.4c6.5,9.5,12.6,19.1,14.4,31c0.6,4.1,2.7,3.8,5.4,1.8c6.4-4.7,13.5-7.8,21-10
		c23-6.5,44.7-3,65.2,9.3c14,10.8,24.8,23.8,28.9,41.8c0.6,2.6,2.8,3.1,4.9,3.7c26,7.8,36.5,22.4,36.1,50.5c-0.5,0.7,0.3-0.8,0,0
		c-8.7,24.6-28.7,36.1-52.4,36.2c-91.2,0.2-182.4,0-273.6,0.2c-9.6,0-18.6-1.2-27.5-5c-21.9-9.4-39.8-22.9-47.8-47.3
		c-3.2-3.3-3.2-7.6-3.3-11.8c0-0.8,0-1.6,0-2.4C1328.6,798,1328.6,793.2,1330.8,789.8z"/>
	<path class="st7" d="M458.8,1263.5c0-0.1,0-0.2,0-0.3c4.5-16.4,14.7-28.7,27.9-37.9c17.9-12.7,38.1-19.3,59.9-19.8
		c5.9-0.1,9.4-2.9,11.9-8.3c2.6-5.8,4.7-12,9-16.8c8.2-8.9,17.6-16,28.5-21c4.5-1.4,9-2.8,13.6-4.3c4.5-2.3,9.3-3.2,14.3-2.6
		c15-1.7,28.9,2.1,42.5,8.2c7.9,4.9,15.1,10.7,21.7,17.4c6.5,9.5,12.6,19.1,14.4,31c0.6,4.1,2.7,3.8,5.4,1.8c6.4-4.7,13.5-7.8,21-10
		c23-6.5,44.7-3,65.2,9.3c14,10.8,24.8,23.8,28.9,41.8c0.6,2.6,2.8,3.1,4.9,3.7c26,7.8,36.5,22.4,36.1,50.5c-0.5,0.7,0.3-0.8,0,0
		c-8.7,24.6-28.7,36.1-52.4,36.2c-91.2,0.2-182.4,0-273.6,0.2c-9.6,0-18.6-1.2-27.5-5c-21.9-9.4-39.8-22.9-47.8-47.3
		c-3.2-3.3-3.2-7.6-3.3-11.8c0-0.8,0-1.6,0-2.4C456.6,1271.7,456.6,1266.9,458.8,1263.5z"/>
	<path class="st7" d="M239.7,325.4c0-0.1,0-0.2,0-0.3c4.5-16.4,14.7-28.7,27.9-37.9c17.9-12.7,38.1-19.3,59.9-19.8
		c5.9-0.1,9.4-2.9,11.9-8.3c2.6-5.8,4.7-12,9-16.8c8.2-8.9,17.6-16,28.5-21c4.5-1.4,9-2.8,13.6-4.3c4.5-2.3,9.3-3.2,14.3-2.6
		c15-1.7,28.9,2.1,42.5,8.2c7.9,4.9,15.1,10.7,21.7,17.4c6.5,9.5,12.6,19.1,14.4,31c0.6,4.1,2.7,3.8,5.4,1.8c6.4-4.7,13.5-7.8,21-10
		c23-6.5,44.7-3,65.2,9.3c14,10.8,24.8,23.8,28.9,41.8c0.6,2.6,2.8,3.1,4.9,3.7c26,7.8,36.5,22.4,36.1,50.5c-0.5,0.7,0.3-0.8,0,0
		c-8.7,24.6-28.7,36.1-52.4,36.2c-91.2,0.2-182.4,0-273.6,0.2c-9.6,0-18.6-1.2-27.5-5c-21.9-9.4-39.8-22.9-47.8-47.3
		c-3.2-3.3-3.2-7.6-3.3-11.8c0-0.8,0-1.6,0-2.4C237.5,333.6,237.5,328.8,239.7,325.4z"/>
	<g>
		<g>
			<path class="st7" d="M195,1760.1c20.3,15.4,42.6,27.4,66.4,36.5c6.1,2.3,13.2-2.6,14.8-8.4c1.9-6.8-2.3-12.4-8.4-14.8
				c-21.8-8.3-42.1-20-60.7-34.1c-5.2-3.9-13.4-0.8-16.4,4.3C187.1,1749.8,189.8,1756.2,195,1760.1L195,1760.1z"/>
		</g>
	</g>
	<g>
		<g>
			<path class="st7" d="M308.8,1652.2c40.9,27.3,83.1,52.4,126.6,75.3c5.7,3,13,1.5,16.4-4.3c3.2-5.4,1.5-13.4-4.3-16.4
				c-43.5-22.9-85.8-48-126.6-75.3c-5.4-3.6-13.3-1.1-16.4,4.3C301,1641.7,303.4,1648.6,308.8,1652.2L308.8,1652.2z"/>
		</g>
	</g>
	<g>
		<g>
			<path class="st7" d="M465.7,1614c33,15.6,67.9,26.5,104,31.8c6.4,0.9,12.9-1.6,14.8-8.4c1.6-5.7-1.9-13.8-8.4-14.8
				c-34-5-67.2-14.7-98.3-29.4c-5.9-2.8-12.9-1.6-16.4,4.3C458.3,1602.8,459.8,1611.2,465.7,1614L465.7,1614z"/>
		</g>
	</g>
</g>
<g id="lettre">
	<path class="st8" d="M1185.9,1540.3c-178,80.8-342.6,120.3-474.8,139.9c-31.3,4.6-44.9,15.5-66.5,25.2
		c-162.3,73.1-287.5,212.3-321,195.6c-1.4-0.7-9.8-5.3-11.3-3.5c-1.8,2.1,6.5,11.9,13.9,19.9c0.9,0.6,1.6,1,2.5,1.5
		c0,0,88.2,86.9,605.6-11c261.1-62.7,460.5-174.5,593.2-266.2c27.9-19.2,49.4-46.3,62.2-77.6c50.4-124.3,100.9-248.6,151.3-372.9
		c1.2-2.9,1.4-5.8,1-8.4c-0.5-3-2.3-4.3-5.8-9.2c-3.1-4.4-2.7-4.6-5.2-8.1c-1.9-2.7-11.5-11.4-12.4-12c-9.4-6.3-136.7,152-208.7,222
		c-149.6,145.5-351.5,192.6-354.7,186.3C1154.7,1560.7,1159.7,1556.1,1185.9,1540.3z"/>
	<path class="st7" d="M1697,1152.6c-117.3,114.7-288.6,252.8-519,357.5c-174.1,79.1-335.1,117.7-464.4,136.8
		c-23.2,3.4-45.4,11.8-65,24.6c-89.2,57.1-317.3,203.4-330.7,216.1c-1.7,1.7-6.7,6.4-5.6,10.6c1.2,4.3,8.4,5.7,10.8,6.2
		c273.9,55.5,608.8-34.8,608.8-34.8c255.4-61.3,450.4-170.7,580.2-260.3c27.2-18.8,48.4-45.2,60.8-75.9
		c49.3-121.6,98.7-243.2,148-364.8C1726.9,1153.9,1708.4,1141.5,1697,1152.6z"/>
	<path class="st8" d="M1004.2,1722.8c-38.7,0-67.1-7.2-79.1-10.1c-34.7-8.5-125.2-28.2-247.9-56c4.7-2,9.7-4,15.1-5.8
		c19.2-6.3,36.9-8.5,51.4-8.8c77.4,19.5,141.7,31.6,188,39.2c55.9,9.2,71.9,9.8,85.6,9.1c80.9-4.2,140.8-45.1,169.6-64.8
		c122-83.4,215.1-176.1,239.6-201c1.4-1.4,1.8-1.8,4.7-4.8c65.8-67.4,152.2-154.9,264.4-265.9c0.5-0.6,4.7-5.7,11.9-5.6
		c5.2,0.1,9.4,2.9,11.8,6.1c0.9,1.3,1.5,2.5,1.8,3.3c-38.8,42.9-71.6,78.1-95.7,103.7c-48,51-72.3,76.1-96.4,101.4
		c-50.1,52.4-54.6,56.8-74,78.4c-3.8,4.2-94.7,104.7-250,210.9c-31.2,21.3-96.1,65.7-186,70.3
		C1013.9,1722.7,1009,1722.8,1004.2,1722.8z"/>
</g>
<g id="looupe">
	<path class="st9" d="M1281.5,459.2c-6,34.2-34.1,73.9-62.4,70.8c-29.1-3.2-51.4-51.1-45-89.6c6.5-38.5,43.2-76.4,71.7-70
		C1273.8,376.7,1287.6,424.2,1281.5,459.2z"/>
	<path class="st10" d="M1225.5,659.6c-7.4,0-13.4-5.9-13.5-13.3l-1.4-112.3c-0.1-7.5,5.9-13.6,13.3-13.7c0.1,0,0.1,0,0.2,0
		c7.4,0,13.4,5.9,13.5,13.3l1.4,112.3c0.1,7.5-5.9,13.6-13.3,13.7C1225.6,659.6,1225.6,659.6,1225.5,659.6z"/>
	<path class="st10" d="M1222.3,543.7c-1.6,0-3.1-0.1-4.6-0.3c-13.7-1.5-26.5-9.6-37-23.5c-16.7-22.1-24.5-54.1-19.8-81.7
		c4.6-27.6,22.4-55.4,45.4-70.8c14.4-9.7,29.1-13.2,42.6-10.2c17.6,4,31.9,18.9,40.3,42.2c7,19.2,9.1,42.5,5.6,62.1v0
		c-3.4,19.3-13,40.1-25.7,55.6C1255,534.4,1238.5,543.7,1222.3,543.7z M1239.3,383.2c-5.3,0-11.6,2.3-18,6.6
		c-16.5,11.1-30.4,32.9-33.8,52.8c-3.4,20,2.7,45.1,14.7,61c5.8,7.7,12.3,12.3,18.4,12.9c17.7,2,42.1-28.7,47.6-59.7l0,0
		c5.5-31.6-7.5-69.3-25.3-73.3C1241.7,383.3,1240.5,383.2,1239.3,383.2z"/>
</g>
<g id="corps">
	<g id="Head_00000130611429172060369370000006369157806445878957_" transform="translate(58.494090, 33.579940)">
		<path class="st11" d="M845.7,500.7c-18.5-31.4-29-67.8-21.1-105.1c22.6-107.5,164.1-58.3,184.6,1.5s6.5,151.3-26.3,172
			c-32.8,20.8-58.7,16.3-87.4-9l-0.8,149.6l-116.7-20.4L845.7,500.7z"/>
	</g>
	<path class="st12" d="M755.4,1533.5c-0.3,0.2-0.5,0.4-0.8,0.6c0.3-0.2,0.6-0.3,1-0.5C755.5,1533.5,755.5,1533.5,755.4,1533.5z"/>
	<path class="st13" d="M777.8,1529.4c22.6-0.8,46.3-2.2,70.8-4.2c13.5-59.8,26.9-119.6,36.3-180.2c12.4-79.6,26.7-87.7,43.4-173.6
		c34.3-176.9,35.5-335.4,25.1-463.5c-46.1,6.7-92.3,13.5-138.4,20.2c9,40.4,19,102.4,14.9,177.7c-4.7,87.4-22.2,76.5-27.1,165
		c-3,55.5,3,74.6,8,267.5c0,0.7,0.1,3.3,0.1,4c-7,29.5-17.8,82.3-28.4,141.6c-2.4,13.3-4.7,28.7-6.8,44.9c0.4,0,0.8,0,1.3,0
		C777.2,1529.1,777.5,1529.2,777.8,1529.4z"/>
	<path class="st13" d="M839.7,1564.7c2.9-13.2,5.9-26.4,8.9-39.6c-24.5,2-48.1,3.4-70.8,4.2C797.9,1541.7,820.2,1554.9,839.7,1564.7
		z"/>
	<path class="st13" d="M760.9,1695.6c-0.4,13.1,31.8,12.7,44.1,4.3c8.8-6,10.8-17.4,11.5-21.4c5.8-33,12.6-65.8,19.8-98.5
		c-19.4-9.6-42-22.7-62.6-35.3C766.8,1602.1,761.8,1666.6,760.9,1695.6z"/>
	<path class="st13" d="M773.7,1544.7c20.6,12.5,43.2,25.7,62.6,35.3c0-0.2,0.1-0.3,0.1-0.5c-19.4-9.6-42-22.7-62.6-35.3
		C773.8,1544.4,773.7,1544.5,773.7,1544.7z"/>
	<path class="st13" d="M776.8,1529.4c0.3,0,0.6,0,1,0c-0.3-0.2-0.5-0.3-0.8-0.5c-0.4,0-0.8,0-1.3,0c0,0.2,0,0.3-0.1,0.5
		C776,1529.5,776.4,1529.5,776.8,1529.4z"/>
	<path class="st13" d="M777.8,1529.4c-0.3,0-0.6,0-1,0c20.3,12.4,43,25.8,62.7,35.8c0-0.2,0.1-0.3,0.1-0.5
		C820.2,1554.9,797.9,1541.7,777.8,1529.4z"/>
	<path class="st13" d="M775.6,1529.5c-0.6,4.8-1.3,9.7-1.9,14.7c20.6,12.5,43.2,25.6,62.6,35.3c1-4.7,2.1-9.5,3.1-14.2
		c-19.7-10-42.4-23.4-62.7-35.8C776.4,1529.5,776,1529.5,775.6,1529.5z"/>
	<path class="st11" d="M1317.3,1040.3c23.7,72.8,75.9,341.6,82.5,359.8c6.8,18.8-31.5,38.2-41.7,15.1
		c-16.1-36.7-54.5-138.3-71.6-200.3c-13.7-49.9-25.3-95.4-32.3-126.1c-86.8,8.5-294.8,34.6-340.5,29.8l-10.9-161.4
		c43.8,4.6,363.6,47,396,56.8C1310.4,1016.9,1316.1,1027.8,1317.3,1040.3z"/>
	<path class="st14" d="M804.3,751.6"/>
	<path class="st11" d="M830.3,691.7c15.9-20.7,42.9-20.8,53.6-9.1c8.9,9.8,8.7,30-4.4,45.4c-16.1,24.6-36.3,52-61.4,80.2
		c-27.2,30.5-54.2,55.2-78.3,74.9c-9.1,10.1-24.8,10.7-34.3,1.8c-9.8-9.2-9.8-25.6,0.6-35.2c18.4-27.3,39.2-55.9,62.5-85.3
		C789.4,738,810.2,713.8,830.3,691.7z"/>
	<path class="st11" d="M761.8,782.6c9.5-11.3,26.4-11.7,35.6-2.4c9.4,9.5,8.6,26.9-3.4,36c-37,46.5-79.4,95.2-127.9,144.5
		c-26.2,26.6-52.1,51.4-77.6,74.4c-7.6,5.9-18,5.1-23.9-0.7c-6.9-6.9-6.4-19.9,2.7-27.1c30.4-37.2,62-74.8,94.9-112.9
		C695.7,855.9,729,818.6,761.8,782.6z"/>
	<path class="st11" d="M569.1,1004.8c5.6-7,15.1-9.1,22.2-5.4c8.4,4.4,11.9,16.2,6.3,25.5c-0.7,9.1-0.8,19.5-0.1,31
		c0.9,12.7,2.7,24,4.9,33.6c-1.7,0.5-4.3,1.1-7.3,0.6c-10.3-1.7-11.8-13.5-18.9-18.9c-16.7-12.7-48.4,23-77.6,11
		c-6.8-2.8-16-9.2-16-16.5c0-11.2,21.9-16.4,53-36.1C550.5,1020.3,561.8,1011.2,569.1,1004.8z"/>
	<path class="st11" d="M929.1,713.9c-17.3-19.6-12.3-46,1.3-54.3c11.3-6.9,31.1-2.8,43.7,13c21,20.4,44.1,45.5,67,75.6
		c24.8,32.5,43.9,63.7,58.6,91.2c8.2,10.9,5.8,26.4-4.7,34c-10.9,7.9-27,4.8-34.4-7.3c-23.3-23.3-47.5-49.1-71.9-77.6
		C966.8,762.9,947,737.9,929.1,713.9z"/>
	<path class="st11" d="M1120.6,880.9c-4.9,12-20.8,17.2-32.7,12.4c-12.2-5-17.5-19.3-9.4-30.2c18.6-48.6,41.5-100.5,69.9-154.7
		c15.3-29.3,31.1-57,47-83.1c5.1-7,15.2-9.5,22.7-6.4c8.9,3.6,13,14.3,6.9,22.7c-15.6,39-32.2,78.8-49.9,119.4
		C1157.2,802.1,1139,842.1,1120.6,880.9z"/>
	<path class="st11" d="M1227.9,631.5c-1.9,8.8-9.5,14.9-17.4,14.8c-9.5-0.2-17.9-9.1-17.1-20c-2.4-2.1-13.8-12.5-13.9-27.7
		c0-2.8-0.1-10.5,5-17.1c2.6-3.5,5.7-5.2,7.2-6.1c27.9-16.5,27.5-19.4,35.6-20.5c10.4-1.3,26.5,1.7,32.5,12.8
		c5.5,10.2-0.1,22.4-4.6,32.1C1247.7,616,1235.9,626,1227.9,631.5z"/>
</g>
<g id="vetement">
	<path class="st15" d="M907.1,952.5c63.3,1.5,95.3,15.8,160.6,26.1c55.9,8.9,118.5,10.2,118.5,10.2c71.7,3.1,105.7-1.1,126.7,23.3
		c4.8,5.6,7.7,11.3,17.7,53.7c10.8,45.6,16.1,68.4,20,95.4c5.3,37.5,16.7,98.4,43.4,200.8c-15.3,12.6-30.6,25.2-46,37.8
		c-12.9-16.8-21.2-31.4-26-40.3c-37-69.1-59.8-177.6-62.1-229.3c-0.3-7-1-28.6-12.4-33.7c-5.5-2.4-11.4-0.2-13.3,0.5
		c-23.7,8.9-179,43.5-278.8,40.3c-13.4-0.4-34.4-1.8-60.2-6.7c-52.4-12.6-91.1-41.7-95.9-74.7C792.2,1007.8,839,950.9,907.1,952.5z"
		/>
	<path class="st16" d="M824,957.9l133.6-36.6c10.8,148-6.2,260.2-24,335.7c-12.3,52.2-26.1,92-74.5,268.1
		c-16,58.2-28.8,106-37.1,137.1c-22.5,0.5-44.9,0.9-67.4,1.4c-0.2-33.4,0.3-85.5,4.5-149.1c10.1-156.2,27.1-152.4,27.7-251.1
		c0.6-104.9-18.4-152.8,10-241C805.8,994.3,816.4,972.2,824,957.9z"/>
	<path class="st17" d="M802.3,1081.4"/>
	<path class="st18" d="M692.9,839c4.3,8.8,12.5,22.5,27,34.9c9.3,7.9,18.5,13,25.7,16.2c8-9.3,19.1-21.7,32.5-36.1
		c7.9-8.5,12-13.1,17.5-18.6c19-19.2,28.5-28.7,31.6-27.3c10,4.5-17.5,87.1-40.8,208.3c-6.9,36.1-12,70.3,1.2,79.1
		c10.1,6.7,23.1-4.4,74.6-29.4c53.4-25.9,55.4-21.8,94.9-43.3c38.2-20.8,36.6-25.3,59.8-33.7c28.5-10.3,54.2-12.3,55.9-23.6
		c0.9-5.9-5.3-11.3-7.6-13.4c-26.6-24-79.2-100.1-86-158.9c-5.8-49.5,23.1-67.6,5.6-105c-8.3-17.8-23.5-29.4-23.5-29.4
		c-7.4-6.3-14.6-10.4-19.9-13c-7.7-0.6-16.3-0.8-25.4-0.5c-9.8,0.3-20.7,1.2-32.6,3.2c0,0-23.5,3.9-43.4,11.4
		c-33.6,12.7-90.8,93.5-90.8,93.5C733.4,775.3,714,804.2,692.9,839z"/>
	<g transform="translate(225.310568, 215.561553)">
		<path class="st19" d="M1120.5,1215.4c3.5,13.2,7,22.3,10.7,27.5c4.4,6.3,12,14.7,22.6,25.3c7.3-5.2,27.9-19.7,151.6-107.2
			c-6.8-20.5-16.2-27.5-28.2-21.1c-11.9,6.4-105.2,7.9-105.2,7.9c-2.3,0.5-3.8,2.7-3.4,5c0,0,0,0.1,0,0.1l4.2,18.4
			c-6.8,12-13.4,20.2-19.8,24.7c-5.2,3.7-13.8,6.6-25.9,8.9v0c-4.6,0.9-7.7,5.3-6.8,10C1120.4,1215,1120.4,1215.2,1120.5,1215.4z"/>
	</g>
	<g transform="translate(225.310568, 215.561553)">
		<path class="st19" d="M522.2,1481.2c-4.7,12.8-7.1,22.3-7,28.6c0,7.7,1.4,18.9,4,33.7c8.9,0,34.2-0.1,185.6-0.8
			c6.2-20.7,2.5-31.8-11-33.4c-13.5-1.6-90.7-53.9-90.7-53.9c-2.2-1-4.7,0-5.6,2.2c0,0,0,0.1,0,0.1l-7.1,17.5
			c-12.4,5.9-22.6,8.8-30.4,8.8c-6.3,0-15.1-2.5-26.3-7.6h0c-4.3-1.9-9.3,0-11.3,4.2C522.3,1480.8,522.2,1481,522.2,1481.2z"/>
	</g>
	<path class="st20" d="M1072.8,965.4c0.9-5.9-5.3-11.3-7.6-13.4c-26.6-24-79.2-100.1-86-158.9c-5.8-49.5,23.1-67.6,5.6-105
		c-5.6-11.9-13.8-21.2-22.4-28.5c-5.9,11-12.9,26.1-18.6,44.8c-1.9,6.2-9.1,30.3-10.8,60.2c-4.5,77,29.4,148.4,44.4,171.1
		c2.1,3.1,9.4,13.8,15.3,29.6c4.8,13,6.8,24.2,7.7,31.1c0.6-0.3,1.6-0.8,2.7-1.4c0.7-0.4,6.9-3.4,14-6
		C1045.5,978.6,1071.1,976.7,1072.8,965.4z"/>
	<path class="st21" d="M953.7,653"/>
	<path class="st18" d="M918.8,689.6c19-18.4,34.1-20.8,43-20.5c28.4,0.9,51.6,33.2,96.7,97.9c5.3,7.6,13.1,19,22.3,33.2
		c16.8,20.6,33.6,41.1,50.5,61.7c-9,36.3-23.5,41.9-28.4,43.2c-6.2,1.6-18.6,1.8-71.9-52.4c-28.7-29.2-43-43.8-60.7-68.5
		C946.8,751.3,930.4,718.8,918.8,689.6z"/>
	<path class="st20" d="M825.3,762.7c0.6-59.1,3.6-74.1,12.3-88.3c4.4-7.3,9.7-13.2,15-18.1c-4.2,1.3-8.6,2.7-12.7,4.2
		c-33.6,12.7-90.8,93.5-90.8,93.5c-15.5,22.1-34.9,50.9-56.1,85.8c4.3,8.8,12.5,22.5,27,34.9c9.3,7.9,18.5,13,25.7,16.2
		c8-9.3,19.1-21.7,32.5-36.1c7.9-8.5,12-13.1,17.5-18.6c16.3-16.4,25.5-25.8,29.8-27.3C825.1,790.9,825.1,775.3,825.3,762.7z"/>
</g>
<g id="cheveux">
	<path class="st19" d="M1065.8,419.4c-3.8-6.7-9.7-13.6-14.6-19.4c-6.3-7.6-13.8-13.7-21.7-19.3c-14.8-10.4-31-18.8-47.6-24.5
		c-30.4-10.5-57.6,1.9-73.7,8.1c-16.2,6.2-31.4,21.6-48.4,38.7c-17,17.1-37.6,30.6-78,29.2c-0.7-0.2-1.3-0.3-2-0.5
		c-7.2-3.6-14.6-6.7-22.1-9.3c-7.2-2.5-14.2-3.7-20.9-4c-4.5-0.7-8.8-0.8-12.9,0c-1.8,0.3-3.6,0.7-5.4,1.2
		c-13.9,2.4-25.8,7.5-34.6,10.9c-16.2,6.2-31.4,21.6-48.4,38.7c-17,17.1-37.6,30.6-78,29.2c-17.6-4.4-40.4-17.2-57.8-13.9
		c-29.2,5.5-51.7,24.3-62.4,53.8c-11.4,31.4-13.2,72.1,11.7,99.1c4.6,5,9.6,8.9,15.7,11.3c5.6,2.3,13.4,4,17.3,9.4
		c4.2,5.8,1.8,16.1,1.9,22.6c0.1,9.4,0.8,19.1,5,27.8c6.9,14.4,21.4,25.1,34.8,31.3c13.7,6.3,28.1,7.5,42.3,5.3
		c9.5-1.5,18.8-3.8,27.5-7.7c4.3-2,7.8-4.6,11.8-7.2c3.8-2.5,6.6-2.2,11-1.2c20.4,4.6,39.7,2.3,58.2-6.3
		c15.6-7.2,32.7-17.9,41.9-33.7c10.1-17.6,18.2-21.5,31.6-15.3c13.7,6.3,28.1,7.5,42.3,5.3c9.5-1.5,18.8-3.8,27.5-7.7
		c4.3-2,7.8-4.6,11.8-7.2c3.8-2.5,6.6-2.2,11-1.2c20.4,4.6,39.7,2.3,58.2-6.3c15.6-7.2,32.7-17.9,41.9-33.7
		c10.1-17.6,3.7-34.4-6.4-51.2c4.3,0.5,14.8-2.1,6.1-7.1c-3.4-2-8.3-1.5-12-2c-4.3-0.6-8.8-1.8-12.7-4c-15.8-8.8-14.1-39-1.7-48.4
		c18.5-14,33.9,13.8,51.6,16c4.7,0.6,8.6-1.1,11.9-3.9c0,0,0,0,0,0c37-18.7,44.3-80.8,37.3-111c9.6-1.2,19.7-0.3,28.8,1.6
		c6.5,1.4,11.9,3.7,16.9,8.6c1.1,1.1,3.8,4.3,5.5,3.9C1069.3,424.5,1066.8,421.1,1065.8,419.4z"/>
	<path class="st22" d="M1618.3,1192.5"/>
	<path class="st22" d="M-1146.5,2733.8"/>
</g>
</svg>
