<svg xmlns="http://www.w3.org/2000/svg" viewBox="0 0 491.42 491.42"><defs><style>.cls-1{fill:none;}.cls-2{fill:#fff;}</style></defs><g id="Calque_2" data-name="Calque 2"><g id="Calque_1-2" data-name="Calque 1"><circle class="cls-1" cx="245.71" cy="245.71" r="245.71"/><path class="cls-2" d="M443.71,279.71c0,19.29-11,35.39-31.46,35.39-22.85,0-28.84-20.78-49.43-20.78-15,0-20.6,9.36-20.6,23.22,0,14.6,6,28.65,5.8,43.06v.94c-2.06,0-4.12,0-6.18.19-19.28,1.87-38.76,5.61-58.23,5.61-13.3,0-27.15-5.24-27.15-20.59,0-20.6,20.78-26.59,20.78-49.44,0-20.41-16.1-31.45-35.39-31.45-19.66,0-37.82,10.86-37.82,32.39,0,23.78,18.16,34.08,18.16,47,0,6.55-4.12,12.36-8.61,16.66-5.81,5.43-14.05,6.56-21.91,6.56-15.35,0-30.71-2.06-45.88-4.5-3.37-.56-6.92-.93-10.29-1.49l-2.44-.38c-.37-.18-.93-.18-.93-.37V170c.74.56,11.79,1.87,13.66,2.24,15.17,2.44,30.53,4.5,45.88,4.5,7.86,0,16.1-1.13,21.91-6.56,4.49-4.3,8.61-10.11,8.61-16.66,0-12.92-18.16-23.22-18.16-47,0-21.54,18.16-32.4,38-32.4,19.1,0,35.2,11,35.2,31.46,0,22.85-20.78,28.84-20.78,49.44,0,15.35,13.85,20.59,27.15,20.59,21.53,0,42.88-4.87,64.23-6V170c-.57.75-1.88,11.8-2.25,13.67-2.44,15.17-4.49,30.53-4.49,45.88,0,7.86,1.12,16.1,6.55,21.91,4.31,4.49,10.11,8.61,16.66,8.61,12.92,0,23.22-18.16,47-18.16,21.54,0,32.4,18.16,32.4,37.82Z"/></g></g></svg>