<svg xmlns="http://www.w3.org/2000/svg" viewBox="0 0 491.42 491.42"><defs><style>.cls-1{fill:none;}.cls-2{fill:#fff;}</style></defs><g id="Calque_2" data-name="Calque 2"><g id="Calque_1-2" data-name="Calque 1"><circle class="cls-1" cx="245.71" cy="245.71" r="245.71"/><path class="cls-2" d="M153.64,214.46a21.15,21.15,0,1,1,21.14-21.16v0a20.87,20.87,0,0,1-20.6,21.14Zm249.07-25.75c0,50.87-38.32,91.83-87.21,97.78v54.83h42.28v27.75H132.5v-70H118.62V242.2a13.55,13.55,0,0,1,13.22-13.87q.33,0,.66,0h42.28a13.54,13.54,0,0,1,13.87,13.2c0,.22,0,.45,0,.67V299H174.78V341.3H287.71V285.81c-46.91-7.93-82.58-48.23-82.58-97.12A99,99,0,0,1,304,89.59h.2C359.1,89.59,402.71,133.86,402.71,188.71Z"/></g></g></svg>