<svg xmlns="http://www.w3.org/2000/svg" viewBox="0 0 491.42 491.42"><defs><style>.cls-1{fill:none;}.cls-2{fill:#fff;}</style></defs><g id="Calque_2" data-name="Calque 2"><g id="Calque_1-2" data-name="Calque 1"><circle class="cls-1" cx="245.71" cy="245.71" r="245.71"/><path class="cls-2" d="M272.41,99.54q13.44,0,20.72,7.56t7.28,19.32q0,14-10.92,24.64a36.65,36.65,0,0,1-26.6,10.65q-13.44,0-20.72-7.28t-6.72-20.17q0-12.87,9.8-23.8T272.41,99.54Zm-57.68,280q-28,0-15.12-49.85l16.8-71.12q3.92-15.67,0-15.68-3.36,0-15.12,5a125.56,125.56,0,0,0-20.16,10.64l-7.3-12.26A242,242,0,0,1,226.75,211q27.72-13.44,42.28-13.44,21.84,0,10.08,45.36l-19.6,74.48q-4.49,17.92,1.68,17.92,12.33,0,33-16.8l8.4,11.2q-23.52,24.09-49,37t-38.86,12.85Z"/></g></g></svg>