<?xml version="1.0" standalone="no"?><!-- Generator: Gravit.io --><svg xmlns="http://www.w3.org/2000/svg" xmlns:xlink="http://www.w3.org/1999/xlink" style="isolation:isolate" viewBox="0 0 50 50" width="50" height="50"><clipPath id="_clipPath_Y4u8A6sotdMGsaisRLtQMoDeV8p4bOSu"><rect x="0" y="0" width="50" height="50" transform="matrix(1,0,0,1,0,0)" fill="rgb(255,255,255)"/></clipPath><g clip-path="url(#_clipPath_Y4u8A6sotdMGsaisRLtQMoDeV8p4bOSu)"><g id="Group"><g id="Group"><path d=" M 25.17 -0.366 C 25.618 -0.349 26.06 -0.301 26.498 -0.201 C 27.312 -0.017 28.089 0.322 28.783 0.791 C 29.11 1.013 29.412 1.262 29.699 1.534 C 35.878 7.631 41.909 13.881 48.015 20.053 C 48.246 20.298 48.467 20.549 48.666 20.823 C 49.112 21.434 49.459 22.12 49.684 22.846 C 49.909 23.564 50.015 24.319 49.998 25.075 C 49.959 26.958 49.137 28.789 47.757 30.054 C 47.267 30.504 46.709 30.881 46.112 31.17 C 45.507 31.461 44.862 31.659 44.201 31.76 C 43.868 31.81 43.538 31.829 43.203 31.835 L 43.182 31.835 L 43.182 45.691 L 43.176 45.896 C 43.141 46.358 43.062 46.808 42.905 47.243 C 42.476 48.434 41.558 49.411 40.407 49.905 C 40.06 50.053 39.697 50.158 39.325 50.214 C 39.122 50.246 39.072 50.246 38.868 50.263 C 29.692 50.497 20.513 50.267 11.335 50.267 C 10.81 50.254 10.296 50.17 9.8 49.986 C 8.554 49.524 7.55 48.505 7.095 47.243 C 6.913 46.743 6.833 46.222 6.818 45.691 L 6.818 31.835 C 6.734 31.835 6.647 31.833 6.562 31.831 L 6.306 31.816 C 5.969 31.785 5.637 31.741 5.304 31.666 C 4.657 31.515 4.029 31.27 3.453 30.938 C 2.876 30.607 2.349 30.19 1.893 29.705 C 0.781 28.527 0.108 26.956 0.013 25.33 C -0.033 24.577 0.046 23.817 0.244 23.089 C 0.444 22.357 0.763 21.66 1.184 21.035 C 1.376 20.75 1.593 20.486 1.818 20.229 C 7.858 13.874 14.066 7.685 20.304 1.532 C 20.591 1.262 20.893 1.011 21.219 0.789 C 21.911 0.32 22.688 -0.017 23.5 -0.201 C 23.938 -0.301 24.383 -0.349 24.831 -0.366 C 25 -0.368 24.998 -0.368 25.17 -0.366 Z  M 24.942 4.235 C 24.374 4.256 23.854 4.476 23.436 4.867 C 17.267 10.954 11.126 17.074 5.153 23.359 C 4.891 23.656 4.699 24.003 4.608 24.393 C 4.37 25.406 4.858 26.493 5.769 26.975 C 6.068 27.132 6.395 27.211 6.732 27.23 C 7.519 27.244 8.304 27.232 9.091 27.232 C 9.36 27.244 9.614 27.278 9.868 27.372 C 10.496 27.602 11 28.113 11.228 28.747 C 11.32 29.004 11.354 29.261 11.364 29.533 C 11.364 34.9 11.364 40.265 11.364 45.632 C 11.364 45.643 11.36 45.655 11.366 45.661 C 11.372 45.67 11.384 45.664 11.393 45.664 C 20.465 45.664 29.536 45.664 38.608 45.664 C 38.616 45.664 38.628 45.67 38.635 45.661 C 38.641 45.655 38.637 45.643 38.637 45.632 C 38.637 40.265 38.637 34.9 38.637 29.533 C 38.647 29.261 38.68 29.004 38.773 28.747 C 39 28.113 39.504 27.602 40.13 27.372 C 40.385 27.278 40.641 27.244 40.909 27.232 C 41.695 27.232 42.482 27.244 43.269 27.23 C 43.608 27.211 43.934 27.132 44.236 26.972 C 45.145 26.493 45.63 25.403 45.393 24.395 C 45.302 24.003 45.108 23.656 44.845 23.357 C 38.847 17.046 32.961 10.592 26.48 4.789 C 26.091 4.459 25.624 4.268 25.116 4.237 C 25.058 4.235 25 4.235 24.942 4.235 Z " fill="rgb(133,143,169)"/><path d=" M 25.175 13.444 C 25.464 13.455 25.75 13.476 26.037 13.522 C 26.755 13.632 27.457 13.862 28.105 14.199 C 29.423 14.882 30.5 16.003 31.143 17.352 C 31.437 17.966 31.639 18.625 31.739 19.297 C 31.846 19.992 31.846 20.7 31.739 21.396 C 31.639 22.068 31.437 22.726 31.143 23.34 C 30.787 24.088 30.298 24.77 29.703 25.343 C 29.109 25.918 28.412 26.381 27.655 26.705 C 26.816 27.067 25.909 27.251 25 27.251 C 24.091 27.251 23.184 27.067 22.346 26.705 C 21.589 26.381 20.891 25.918 20.298 25.343 C 19.703 24.77 19.214 24.088 18.857 23.34 C 18.564 22.726 18.362 22.068 18.262 21.396 C 18.155 20.7 18.155 19.992 18.262 19.297 C 18.362 18.625 18.564 17.966 18.857 17.352 C 19.5 16.003 20.578 14.882 21.896 14.199 C 22.543 13.862 23.246 13.632 23.964 13.522 C 24.25 13.476 24.537 13.455 24.825 13.444 C 25.003 13.441 25 13.441 25.175 13.444 Z  M 24.941 18.044 C 24.603 18.058 24.273 18.139 23.971 18.295 C 23.38 18.601 22.937 19.17 22.787 19.826 C 22.725 20.093 22.712 20.369 22.746 20.641 C 22.775 20.864 22.837 21.085 22.928 21.29 C 23.041 21.543 23.2 21.775 23.396 21.971 C 23.589 22.169 23.818 22.33 24.068 22.445 C 24.343 22.572 24.641 22.639 24.941 22.648 C 25.243 22.654 25.548 22.601 25.83 22.489 C 26.087 22.385 26.323 22.236 26.525 22.049 C 26.73 21.863 26.9 21.637 27.025 21.389 C 27.128 21.191 27.198 20.974 27.237 20.753 C 27.284 20.484 27.284 20.208 27.237 19.939 C 27.121 19.274 26.705 18.684 26.128 18.348 C 25.834 18.178 25.512 18.081 25.178 18.051 C 25.098 18.047 25.021 18.044 24.941 18.044 Z " fill="rgb(133,143,169)"/></g></g></g></svg>