<?xml version="1.0" standalone="no"?><!-- Generator: Gravit.io --><svg xmlns="http://www.w3.org/2000/svg" xmlns:xlink="http://www.w3.org/1999/xlink" style="isolation:isolate" viewBox="0 0 50 50" width="50" height="50"><defs><clipPath id="_clipPath_3VaNWjk7lasbLlHNjpEWJ64N1w0R3BH0"><rect width="50" height="50"/></clipPath></defs><g clip-path="url(#_clipPath_3VaNWjk7lasbLlHNjpEWJ64N1w0R3BH0)"><clipPath id="_clipPath_dMvYA47Culr6aWXVFFlcUOYE8iNC14t2"><rect x="0" y="0" width="50" height="50" transform="matrix(1,0,0,1,0,0)" fill="rgb(255,255,255)"/></clipPath><g clip-path="url(#_clipPath_dMvYA47Culr6aWXVFFlcUOYE8iNC14t2)"><g id="Group"><g id="Group"><g id="Group"/></g></g></g><path d=" M 25.17 0.001 C 25.618 0.018 26.06 0.066 26.498 0.164 C 27.312 0.345 28.089 0.68 28.783 1.142 C 29.11 1.36 29.412 1.606 29.699 1.874 C 35.878 7.883 41.909 14.042 48.015 20.124 C 48.246 20.366 48.467 20.613 48.666 20.883 C 49.112 21.485 49.459 22.161 49.684 22.877 C 49.909 23.585 50.015 24.329 49.998 25.074 C 49.959 26.929 49.137 28.734 47.757 29.98 C 47.267 30.424 46.709 30.795 46.112 31.08 C 45.507 31.367 44.862 31.562 44.201 31.662 C 43.868 31.711 43.538 31.73 43.203 31.736 L 43.182 31.736 L 43.182 45.391 L 43.176 45.593 C 43.141 46.048 43.062 46.492 42.905 46.92 C 42.476 48.094 41.558 49.057 40.407 49.544 C 40.06 49.69 39.697 49.793 39.325 49.848 C 39.122 49.88 39.072 49.88 38.868 49.896 C 29.692 50.127 20.513 49.9 11.335 49.9 C 10.81 49.888 10.296 49.805 9.8 49.623 C 8.554 49.168 7.55 48.164 7.095 46.92 C 6.913 46.428 6.833 45.914 6.818 45.391 L 6.818 31.736 C 6.734 31.736 6.647 31.734 6.562 31.732 L 6.306 31.717 C 5.969 31.686 5.637 31.643 5.304 31.569 C 4.657 31.42 4.029 31.179 3.453 30.852 C 2.876 30.525 2.349 30.114 1.893 29.637 C 0.781 28.476 0.108 26.927 0.013 25.325 C -0.033 24.583 0.046 23.834 0.244 23.116 C 0.444 22.395 0.763 21.708 1.184 21.092 C 1.376 20.811 1.593 20.551 1.818 20.298 C 7.858 14.035 14.066 7.936 20.304 1.872 C 20.591 1.606 20.893 1.359 21.219 1.14 C 21.911 0.678 22.688 0.345 23.5 0.164 C 23.938 0.066 24.383 0.018 24.831 0.001 C 25 0 24.998 0 25.17 0.001 M 24 14.89 M 25.17 0.001 Z  M 17 19.358 C 17 15.248 20.585 11.912 25 11.912 C 29.415 11.912 33 15.248 33 19.358 C 33 23.467 29.415 26.803 25 26.803 C 20.585 26.803 17 23.467 17 19.358 Z " fill-rule="evenodd" fill="rgb(133,143,169)"/><path d=" M 22 19.5 C 22 17.844 23.344 16.5 25 16.5 C 26.656 16.5 28 17.844 28 19.5 C 28 21.156 26.656 22.5 25 22.5 C 23.344 22.5 22 21.156 22 19.5 Z " fill="rgb(133,143,169)"/></g></svg>