<svg width="24" height="24" viewBox="0 0 24 24" fill="none" xmlns="http://www.w3.org/2000/svg">
<path fill-rule="evenodd" clip-rule="evenodd" d="M15.9676 3C15.193 3 14.4515 3.30556 13.906 3.84717L4.92322 12.7649C4.0111 13.6705 3.5 14.8971 3.5 16.1745C3.5 17.452 4.0111 18.6786 4.92322 19.5841C5.83559 20.4898 7.07456 21 8.36796 21C9.66136 21 10.9003 20.4898 11.8127 19.5841L20.7955 10.6663C21.1874 10.2772 21.8206 10.2795 22.2097 10.6715C22.5988 11.0634 22.5965 11.6966 22.2045 12.0857L13.2218 21.0034C11.9332 22.2826 10.1871 23 8.36796 23C6.5488 23 4.80269 22.2826 3.51415 21.0034C2.22536 19.724 1.5 17.9871 1.5 16.1745C1.5 14.3619 2.22536 12.625 3.51415 11.3456L12.4969 2.42783C13.4186 1.51278 14.6672 1 15.9676 1C17.268 1 18.5166 1.51278 19.4384 2.42783C20.3603 3.34313 20.8796 4.58608 20.8796 5.88366C20.8796 7.18124 20.3603 8.4242 19.4384 9.3395L10.4458 18.2573C10.4457 18.2574 10.4459 18.2571 10.4458 18.2573C9.89095 18.8079 9.13965 19.1163 8.35819 19.1163C7.57654 19.1163 6.82546 18.8081 6.27056 18.2573C5.71541 17.7061 5.4022 16.9571 5.4022 16.1745C5.4022 15.3919 5.71541 14.6429 6.27056 14.0918L14.5695 5.86255C14.9617 5.47367 15.5949 5.47635 15.9837 5.86851C16.3726 6.26068 16.3699 6.89384 15.9778 7.28272L7.67963 15.5111C7.67959 15.5111 7.67967 15.511 7.67963 15.5111C7.50122 15.6883 7.4022 15.9271 7.4022 16.1745C7.4022 16.4219 7.50114 16.6607 7.67963 16.8379C7.85836 17.0154 8.10231 17.1163 8.35819 17.1163C8.61406 17.1163 8.85801 17.0154 9.03674 16.8379L18.0293 7.92016C18.5743 7.37884 18.8796 6.64593 18.8796 5.88366C18.8796 5.12122 18.5746 4.38853 18.0293 3.84717C17.4837 3.30557 16.7423 3 15.9676 3Z" fill="#4A4A4A"/>
</svg>
