<svg width="285" height="37" viewBox="0 0 285 37" fill="none" xmlns="http://www.w3.org/2000/svg">
<rect y="0.376953" width="36" height="36" rx="18" fill="#2A9CC8"/>
<path d="M12.167 11.5473C12.167 10.2382 13.6069 9.44013 14.717 10.1339L25.6447 16.9637C26.6891 17.6165 26.6891 19.1376 25.6447 19.7904L14.717 26.6202C13.6069 27.314 12.167 26.5159 12.167 25.2068V11.5473Z" fill="white"/>
<rect x="48" y="10.377" width="2" height="16" rx="1" fill="#AADAED"/>
<rect x="53" y="5.37695" width="2" height="26" rx="1" fill="#AADAED"/>
<rect x="58" y="12.377" width="2" height="12" rx="1" fill="#AADAED"/>
<rect x="63" y="10.377" width="2" height="16" rx="1" fill="#AADAED"/>
<rect x="68" y="4.37695" width="2" height="28" rx="1" fill="#AADAED"/>
<rect x="73" y="7.87695" width="2" height="21" rx="1" fill="#AADAED"/>
<rect x="78" y="10.377" width="2" height="16" rx="1" fill="#AADAED"/>
<rect x="83" y="7.87695" width="2" height="21" rx="1" fill="#AADAED"/>
<rect x="88" y="10.377" width="2" height="16" rx="1" fill="#AADAED"/>
<rect x="93" y="12.877" width="2" height="11" rx="1" fill="#AADAED"/>
<rect x="98" y="6.87695" width="2" height="23" rx="1" fill="#AADAED"/>
<rect x="103" y="10.377" width="2" height="16" rx="1" fill="#AADAED"/>
<rect x="108" y="12.877" width="2" height="11" rx="1" fill="#AADAED"/>
<rect x="113" y="10.377" width="2" height="16" rx="1" fill="#AADAED"/>
<rect x="118" y="10.377" width="2" height="16" rx="1" fill="#AADAED"/>
<rect x="123" y="4.37695" width="2" height="28" rx="1" fill="#AADAED"/>
<rect x="128" y="2.37695" width="2" height="32" rx="1" fill="#AADAED"/>
<rect x="133" y="12.877" width="2" height="11" rx="1" fill="#AADAED"/>
<rect x="138" y="10.377" width="2" height="16" rx="1" fill="#AADAED"/>
<rect x="143" y="10.377" width="2" height="16" rx="1" fill="#AADAED"/>
<rect x="148" y="12.877" width="2" height="11" rx="1" fill="#AADAED"/>
<rect x="153" y="10.377" width="2" height="16" rx="1" fill="#AADAED"/>
<rect x="158" y="12.877" width="2" height="11" rx="1" fill="#AADAED"/>
<rect x="163" y="7.37695" width="2" height="22" rx="1" fill="#AADAED"/>
<rect x="168" y="0.876953" width="2" height="35" rx="1" fill="#AADAED"/>
<rect x="173" y="4.37695" width="2" height="28" rx="1" fill="#AADAED"/>
<rect x="178" y="10.377" width="2" height="16" rx="1" fill="#AADAED"/>
<rect x="183" y="6.87695" width="2" height="23" rx="1" fill="#AADAED"/>
<rect x="188" y="10.377" width="2" height="16" rx="1" fill="#AADAED"/>
<rect x="193" y="12.877" width="2" height="11" rx="1" fill="#AADAED"/>
<rect x="198" y="6.37695" width="2" height="24" rx="1" fill="#AADAED"/>
<rect x="203" y="7.87695" width="2" height="21" rx="1" fill="#AADAED"/>
<rect x="208" y="12.377" width="2" height="12" rx="1" fill="#AADAED"/>
<rect x="213" y="10.377" width="2" height="16" rx="1" fill="#AADAED"/>
<rect x="218" y="4.37695" width="2" height="28" rx="1" fill="#AADAED"/>
<rect x="223" y="10.377" width="2" height="16" rx="1" fill="#AADAED"/>
<rect x="228" y="7.87695" width="2" height="21" rx="1" fill="#AADAED"/>
<rect x="233" y="10.377" width="2" height="16" rx="1" fill="#AADAED"/>
<rect x="238" y="6.37695" width="2" height="24" rx="1" fill="#AADAED"/>
<rect x="243" y="10.377" width="2" height="16" rx="1" fill="#AADAED"/>
<rect x="248" y="15.377" width="2" height="6" rx="1" fill="#AADAED"/>
<rect x="253" y="4.37695" width="2" height="28" rx="1" fill="#AADAED"/>
<rect x="258" y="10.377" width="2" height="16" rx="1" fill="#AADAED"/>
<rect x="263" y="7.87695" width="2" height="21" rx="1" fill="#AADAED"/>
<rect x="268" y="12.877" width="2" height="11" rx="1" fill="#AADAED"/>
<rect x="273" y="10.377" width="2" height="16" rx="1" fill="#AADAED"/>
<rect x="278" y="6.87695" width="2" height="23" rx="1" fill="#AADAED"/>
<rect x="283" y="15.377" width="2" height="6" rx="1" fill="#AADAED"/>
</svg>
