<svg width="50" height="50" viewBox="0 0 50 50" fill="none" xmlns="http://www.w3.org/2000/svg">
  <path fill-rule="evenodd" clip-rule="evenodd" d="M20.8441 5.96287C21.0681 6.79872 20.5721 7.65787 19.7362 7.88184C18.9004 8.10581 18.0412 7.60977 17.8172 6.77392C17.5933 5.93807 18.0893 5.07892 18.9252 4.85495C19.761 4.63099 20.6202 5.12702 20.8441 5.96287ZM21.6654 9.06604C21.2701 9.40863 20.793 9.66922 20.2538 9.81369C19.7146 9.95817 19.1712 9.97103 18.6575 9.87196L17.1385 17.2953L26.6926 14.7353L21.6654 9.06604ZM15.8854 7.29156C16.0545 7.92274 16.3827 8.46881 16.8154 8.89816L14.9786 17.874L8.82963 19.5217C6.1623 20.2364 4.57939 22.978 5.2941 25.6454L9.72195 42.1704C10.4367 44.8377 13.1783 46.4206 15.8457 45.7059L42.0175 38.6932C44.6848 37.9785 46.2677 35.2368 45.553 32.5695L41.1252 16.0445C40.4105 13.3771 37.6688 11.7942 35.0014 12.5089L28.8525 14.1565L22.7739 7.30164C22.9339 6.71348 22.9451 6.07644 22.776 5.44523C22.2661 3.54245 20.3103 2.41325 18.4075 2.9231C16.5047 3.43295 15.3755 5.38878 15.8854 7.29156ZM29.9131 32.8541C29.1674 33.7492 28.1477 34.4308 26.9369 34.7552C23.8177 35.591 20.6116 33.7399 19.7758 30.6207C19.4513 29.4099 19.5318 28.186 19.9341 27.0927L29.9131 32.8541ZM30.9131 31.1221L20.9341 25.3607C21.6797 24.4656 22.6994 23.784 23.9102 23.4596C27.0294 22.6238 30.2356 24.4749 31.0714 27.5941C31.3958 28.8049 31.3154 30.0288 30.9131 31.1221ZM33.0032 27.0764C34.1249 31.2626 31.6406 35.5654 27.4545 36.6871C23.2684 37.8087 18.9656 35.3245 17.8439 31.1384C16.7222 26.9522 19.2065 22.6494 23.3926 21.5278C27.5787 20.4061 31.8815 22.8903 33.0032 27.0764ZM35.5191 14.4408L9.34727 21.4535C7.74687 21.8823 6.79712 23.5273 7.22595 25.1277L11.6538 41.6527C12.0826 43.2531 13.7276 44.2029 15.328 43.774L41.4999 36.7613C43.1002 36.3325 44.05 34.6875 43.6212 33.0871L39.1933 16.5621C38.7645 14.9617 37.1195 14.012 35.5191 14.4408Z" fill="#B0B0B0" />
</svg>