<svg width="237" height="36" viewBox="0 0 237 36" fill="none" xmlns="http://www.w3.org/2000/svg">
<rect y="10" width="2" height="16" rx="1" fill="#B9E3F8" />
<rect x="5" y="5" width="2" height="26" rx="1" fill="#B9E3F8" />
<rect x="10" y="12" width="2" height="12" rx="1" fill="#B9E3F8" />
<rect x="15" y="10" width="2" height="16" rx="1" fill="#B9E3F8" />
<rect x="20" y="4" width="2" height="28" rx="1" fill="#B9E3F8" />
<rect x="25" y="7.5" width="2" height="21" rx="1" fill="#B9E3F8" />
<rect x="30" y="10" width="2" height="16" rx="1" fill="#B9E3F8" />
<rect x="35" y="7.5" width="2" height="21" rx="1" fill="#B9E3F8" />
<rect x="40" y="10" width="2" height="16" rx="1" fill="#B9E3F8" />
<rect x="45" y="12.5" width="2" height="11" rx="1" fill="#B9E3F8" />
<rect x="50" y="6.5" width="2" height="23" rx="1" fill="#B9E3F8" />
<rect x="55" y="10" width="2" height="16" rx="1" fill="#B9E3F8" />
<rect x="60" y="12.5" width="2" height="11" rx="1" fill="#B9E3F8" />
<rect x="65" y="10" width="2" height="16" rx="1" fill="#B9E3F8" />
<rect x="70" y="10" width="2" height="16" rx="1" fill="#B9E3F8" />
<rect x="75" y="4" width="2" height="28" rx="1" fill="#B9E3F8" />
<rect x="80" y="2" width="2" height="32" rx="1" fill="#B9E3F8" />
<rect x="85" y="12.5" width="2" height="11" rx="1" fill="#B9E3F8" />
<rect x="90" y="10" width="2" height="16" rx="1" fill="#B9E3F8" />
<rect x="95" y="10" width="2" height="16" rx="1" fill="#B9E3F8" />
<rect x="100" y="12.5" width="2" height="11" rx="1" fill="#B9E3F8" />
<rect x="105" y="10" width="2" height="16" rx="1" fill="#B9E3F8" />
<rect x="110" y="12.5" width="2" height="11" rx="1" fill="#B9E3F8" />
<rect x="115" y="7" width="2" height="22" rx="1" fill="#B9E3F8" />
<rect x="120" y="0.5" width="2" height="35" rx="1" fill="#B9E3F8" />
<rect x="125" y="4" width="2" height="28" rx="1" fill="#B9E3F8" />
<rect x="130" y="10" width="2" height="16" rx="1" fill="#B9E3F8" />
<rect x="135" y="6.5" width="2" height="23" rx="1" fill="#B9E3F8" />
<rect x="140" y="10" width="2" height="16" rx="1" fill="#B9E3F8" />
<rect x="145" y="12.5" width="2" height="11" rx="1" fill="#B9E3F8" />
<rect x="150" y="6" width="2" height="24" rx="1" fill="#B9E3F8" />
<rect x="155" y="7.5" width="2" height="21" rx="1" fill="#B9E3F8" />
<rect x="160" y="12" width="2" height="12" rx="1" fill="#B9E3F8" />
<rect x="165" y="10" width="2" height="16" rx="1" fill="#B9E3F8" />
<rect x="170" y="4" width="2" height="28" rx="1" fill="#B9E3F8" />
<rect x="175" y="10" width="2" height="16" rx="1" fill="#B9E3F8" />
<rect x="180" y="7.5" width="2" height="21" rx="1" fill="#B9E3F8" />
<rect x="185" y="10" width="2" height="16" rx="1" fill="#B9E3F8" />
<rect x="190" y="6" width="2" height="24" rx="1" fill="#B9E3F8" />
<rect x="195" y="10" width="2" height="16" rx="1" fill="#B9E3F8" />
<rect x="200" y="15" width="2" height="6" rx="1" fill="#B9E3F8" />
<rect x="205" y="4" width="2" height="28" rx="1" fill="#B9E3F8" />
<rect x="210" y="10" width="2" height="16" rx="1" fill="#B9E3F8" />
<rect x="215" y="7.5" width="2" height="21" rx="1" fill="#B9E3F8" />
<rect x="220" y="12.5" width="2" height="11" rx="1" fill="#B9E3F8" />
<rect x="225" y="10" width="2" height="16" rx="1" fill="#B9E3F8" />
<rect x="230" y="6.5" width="2" height="23" rx="1" fill="#B9E3F8" />
<rect x="235" y="15" width="2" height="6" rx="1" fill="#B9E3F8" />
</svg>
