<?xml version="1.0" encoding="UTF-8"?><svg xmlns="http://www.w3.org/2000/svg" viewBox="0 0 24 24"><g id="a"/><g id="b"/><g id="c"/><g id="d"/><g id="e"/><g id="f"/><g id="g"/><g id="h"/><g id="i"><path d="M20.92,13.62c-.05-.12-.12-.23-.22-.33l-5-5c-.39-.39-1.02-.39-1.41,0-.39,.39-.39,1.02,0,1.41l3.29,3.29H8c-.8,0-1.56-.32-2.12-.88-.56-.56-.88-1.33-.88-2.12V3c0-.55-.45-1-1-1s-1,.45-1,1v7c0,1.33,.53,2.6,1.46,3.54,.94,.94,2.21,1.46,3.54,1.46h9.59l-3.29,3.29c-.39,.39-.39,1.02,0,1.41s1.02,.39,1.41,0l5-5c.09-.09,.17-.2,.22-.33,.1-.24,.1-.52,0-.76Z" fill="#000" fill-rule="evenodd"/></g><g id="j"/></svg>