<?xml version="1.0" encoding="UTF-8"?><svg xmlns="http://www.w3.org/2000/svg" viewBox="0 0 24 24"><g id="a"/><g id="b"/><g id="c"/><g id="d"><path d="M13.56,12l6.22-6.22c.43-.43,.43-1.13,0-1.56s-1.13-.43-1.56,0l-6.22,6.22L5.78,4.22c-.43-.43-1.13-.43-1.56,0-.43,.43-.43,1.13,0,1.56l6.22,6.22-6.22,6.22c-.43,.43-.43,1.13,0,1.56,.43,.43,1.13,.43,1.56,0l6.22-6.22,6.22,6.22c.43,.43,1.13,.43,1.56,0s.43-1.13,0-1.56l-6.22-6.22Z" fill="#000" fill-rule="evenodd"/></g><g id="e"/><g id="f"/><g id="g"/><g id="h"/><g id="i"/><g id="j"/></svg>