<?xml version="1.0" encoding="UTF-8"?><svg xmlns="http://www.w3.org/2000/svg" viewBox="0 0 24 24"><g id="a"/><g id="b"/><g id="c"/><g id="d"/><g id="e"/><g id="f"/><g id="g"/><g id="h"/><g id="i"/><g id="j"><path d="M5,7c-.27,0-.52,.11-.71,.29-.19,.19-.29,.44-.29,.71v11c0,.27,.11,.52,.29,.71,.19,.19,.44,.29,.71,.29H16c.27,0,.52-.11,.71-.29s.29-.44,.29-.71v-6c0-.55,.45-1,1-1s1,.45,1,1v6c0,.8-.32,1.56-.88,2.12-.56,.56-1.33,.88-2.12,.88H5c-.8,0-1.56-.32-2.12-.88-.56-.56-.88-1.33-.88-2.12V8c0-.8,.32-1.56,.88-2.12,.56-.56,1.33-.88,2.12-.88h6c.55,0,1,.45,1,1s-.45,1-1,1H5Z" fill="#000" fill-rule="evenodd"/><path d="M21.92,2.62c-.1-.24-.3-.44-.54-.54-.12-.05-.25-.08-.38-.08h-6c-.55,0-1,.45-1,1s.45,1,1,1h3.59L9.29,13.29c-.39,.39-.39,1.02,0,1.41,.39,.39,1.02,.39,1.41,0L20,5.41v3.59c0,.55,.45,1,1,1s1-.45,1-1V3c0-.13-.03-.26-.08-.38Z" fill="#000" fill-rule="evenodd"/></g></svg>