<svg width="24" height="24" viewBox="0 0 24 24" fill="none" xmlns="http://www.w3.org/2000/svg">
<path fill-rule="evenodd" clip-rule="evenodd" d="M20.417 7.81236L21.0234 4.37012C21.1189 3.82815 21.6353 3.46627 22.1769 3.56183C22.7184 3.6574 23.08 4.17422 22.9845 4.71619L21.972 10.4632C21.8765 11.0052 21.3601 11.3671 20.8185 11.2715L15.0761 10.2582C14.5345 10.1626 14.1729 9.64577 14.2684 9.1038C14.3639 8.56183 14.8803 8.19994 15.4219 8.29551L18.7225 8.87797C18.0011 7.38205 16.8177 6.15535 15.3445 5.38148C13.8033 4.57186 12.0346 4.305 10.3234 4.62387C8.61216 4.94275 7.05799 5.8288 5.91122 7.13931C4.76444 8.44982 4.09181 10.1085 4.00167 11.8482C3.91154 13.5879 4.40914 15.3073 5.41433 16.7295C6.41951 18.1516 7.87378 19.1938 9.54287 19.6881C11.212 20.1824 12.9987 20.1001 14.6153 19.4543C16.232 18.8086 17.5844 17.637 18.4547 16.1284C18.7296 15.6518 19.3386 15.4885 19.8148 15.7637C20.291 16.0388 20.4542 16.6483 20.1792 17.1249C19.0853 19.0211 17.3855 20.4936 15.3535 21.3053C13.3215 22.1169 11.0757 22.2204 8.97782 21.5991C6.87991 20.9778 5.05203 19.6679 3.78859 17.8803C2.52515 16.0928 1.89971 13.9316 2.013 11.745C2.1263 9.55835 2.97173 7.47353 4.41314 5.82632C5.85454 4.17912 7.808 3.06543 9.95887 2.66462C12.1097 2.26382 14.3328 2.59924 16.27 3.61687C18.0558 4.55497 19.5028 6.02247 20.417 7.81236Z" fill="#000"/>
</svg>
