<?xml version="1.0" encoding="UTF-8"?><svg xmlns="http://www.w3.org/2000/svg" viewBox="0 0 24 24"><g id="a"/><g id="b"><path d="M20.6,2.48s.09,.07,.13,.11c.25,.25,.33,.61,.22,.94l-6.36,18.18c-.12,.35-.45,.59-.82,.61-.37,.02-.72-.2-.87-.54l-3.49-7.86L1.54,10.43c-.34-.15-.55-.5-.54-.87,.02-.37,.26-.7,.61-.82L19.77,2.38c.27-.1,.59-.07,.84,.1ZM11.18,13.43l6.74-6.74-4.29,12.26-2.45-5.52Zm-1.29-1.29l-5.52-2.45,12.26-4.29-6.74,6.74Z" fill="#000" fill-rule="evenodd"/></g><g id="c"/><g id="d"/><g id="e"/><g id="f"/><g id="g"/><g id="h"/><g id="i"/><g id="j"/></svg>