<svg width="24" height="24" viewBox="0 0 24 24" fill="none" xmlns="http://www.w3.org/2000/svg">
<path fill-rule="evenodd" clip-rule="evenodd" d="M12 3C7.02944 3 3 7.02944 3 12C3 16.9706 7.02944 21 12 21C16.9706 21 21 16.9706 21 12C21 7.02944 16.9706 3 12 3ZM1 12C1 5.92487 5.92487 1 12 1C18.0751 1 23 5.92487 23 12C23 18.0751 18.0751 23 12 23C5.92487 23 1 18.0751 1 12Z" fill="#000"/>
<path fill-rule="evenodd" clip-rule="evenodd" d="M16.5892 8.192C17.0354 8.51739 17.1334 9.14293 16.808 9.58918L12.433 15.5892C12.2502 15.8399 11.9613 15.9916 11.6511 15.9997C11.3409 16.0078 11.0446 15.8714 10.8489 15.6306L8.22389 12.3998C7.87562 11.9712 7.94077 11.3414 8.36941 10.9931C8.79804 10.6449 9.42785 10.71 9.77612 11.1386L11.5822 13.3615L15.192 8.41084C15.5174 7.96459 16.1429 7.86661 16.5892 8.192Z" fill="#000"/>
</svg>
