<svg width="24" height="24" viewBox="0 0 24 24" fill="none" xmlns="http://www.w3.org/2000/svg">
<path fill-rule="evenodd" clip-rule="evenodd" d="M5.36655 3.36787C5.60564 3.13542 5.93577 3 6.28571 3H14V6C14 6.53043 14.2107 7.03914 14.5858 7.41421C14.9609 7.78929 15.4696 8 16 8H19V19.7778C19 20.0927 18.8716 20.4006 18.6335 20.6321C18.3944 20.8646 18.0642 21 17.7143 21H6.28571C5.93577 21 5.60564 20.8646 5.36655 20.6321C5.12841 20.4006 5 20.0927 5 19.7778V4.22222C5 3.9073 5.12841 3.59939 5.36655 3.36787ZM17.986 6H16V4.08084L17.986 6ZM21 7V19.7778C21 20.6416 20.6468 21.4641 20.0276 22.0661C19.4094 22.6672 18.5768 23 17.7143 23H6.28571C5.42324 23 4.59061 22.6672 3.97239 22.0661C3.35322 21.4641 3 20.6416 3 19.7778V4.22222C3 3.3584 3.35322 2.53585 3.97239 1.93388C4.59061 1.33284 5.42324 1 6.28571 1H15H15.2857C15.545 1 15.7942 1.10071 15.9806 1.28089L20.6949 5.83645C20.8899 6.02487 21 6.2844 21 6.55556V7ZM12 8C12.5523 8 13 8.44772 13 9V12H16C16.5523 12 17 12.4477 17 13C17 13.5523 16.5523 14 16 14H13V17C13 17.5523 12.5523 18 12 18C11.4477 18 11 17.5523 11 17V14H8C7.44771 14 7 13.5523 7 13C7 12.4477 7.44771 12 8 12H11V9C11 8.44772 11.4477 8 12 8Z" fill="#000"/>
</svg>
