<svg width="24" height="24" viewBox="0 0 24 24" fill="none" xmlns="http://www.w3.org/2000/svg">
<path fill-rule="evenodd" clip-rule="evenodd" d="M21 7C21 6.44772 20.5523 6 20 6C19.4477 6 19 6.44772 19 7V9H17C16.4477 9 16 9.44772 16 10C16 10.5523 16.4477 11 17 11H19V13C19 13.5523 19.4477 14 20 14C20.5523 14 21 13.5523 21 13V11H23C23.5523 11 24 10.5523 24 10C24 9.44772 23.5523 9 23 9H21V7Z" fill="#000"/>
<path fill-rule="evenodd" clip-rule="evenodd" d="M2.00545 14.6935C2.98124 13.6221 4.32583 13 5.75 13H14.25C15.6742 13 17.0188 13.6221 17.9945 14.6935C18.9675 15.7618 19.5 17.1924 19.5 18.6667V21C19.5 21.5523 19.0523 22 18.5 22C17.9477 22 17.5 21.5523 17.5 21V18.6667C17.5 17.6656 17.137 16.7222 16.5159 16.0402C15.8976 15.3613 15.0802 15 14.25 15H5.75C4.91983 15 4.10241 15.3613 3.48414 16.0402C2.86303 16.7222 2.5 17.6656 2.5 18.6667V21C2.5 21.5523 2.05228 22 1.5 22C0.947715 22 0.5 21.5523 0.5 21V18.6667C0.5 17.1924 1.0325 15.7618 2.00545 14.6935Z" fill="#000"/>
<path fill-rule="evenodd" clip-rule="evenodd" d="M10 2C8.067 2 6.5 3.567 6.5 5.5C6.5 7.433 8.067 9 10 9C11.933 9 13.5 7.433 13.5 5.5C13.5 3.567 11.933 2 10 2ZM4.5 5.5C4.5 2.46243 6.96243 0 10 0C13.0376 0 15.5 2.46243 15.5 5.5C15.5 8.53757 13.0376 11 10 11C6.96243 11 4.5 8.53757 4.5 5.5Z" fill="#000"/>
</svg>
