<svg width="24" height="24" viewBox="0 0 24 24" fill="none" xmlns="http://www.w3.org/2000/svg">
<path fill-rule="evenodd" clip-rule="evenodd" d="M12 8C12.5523 8 13 8.44772 13 9V14C13 14.5523 12.5523 15 12 15C11.4477 15 11 14.5523 11 14V9C11 8.44772 11.4477 8 12 8Z" fill="#000"/>
<path fill-rule="evenodd" clip-rule="evenodd" d="M11 17.5C11 16.9477 11.4477 16.5 12 16.5H12.01C12.5623 16.5 13.01 16.9477 13.01 17.5C13.01 18.0523 12.5623 18.5 12.01 18.5H12C11.4477 18.5 11 18.0523 11 17.5Z" fill="#000"/>
<path fill-rule="evenodd" clip-rule="evenodd" d="M10.2476 2.11111C11.0075 0.729566 12.9926 0.729562 13.7525 2.11111L23.0612 19.0361C23.7943 20.369 22.83 21.9999 21.3088 21.9999H2.69133C1.17012 21.9999 0.205794 20.369 0.938894 19.0361L10.2476 2.11111ZM21.3088 19.9999L12.0001 3.07495L2.69133 19.9999H21.3088Z" fill="#000"/>
</svg>
