<svg width="24" height="24" viewBox="0 0 24 24" fill="none" xmlns="http://www.w3.org/2000/svg">
<path fill-rule="evenodd" clip-rule="evenodd" d="M12.7623 0.352816C12.5723 0.129009 12.2936 0 12 0C11.7064 0 11.4277 0.129009 11.2377 0.352816C10.6483 1.04699 9.83878 2.19646 9.5839 3.26874C9.45544 3.80916 9.41581 4.56205 9.91262 5.18562C10.4081 5.80755 11.1982 6 12 6C12.8018 6 13.5919 5.80755 14.0874 5.18562C14.5842 4.56205 14.5446 3.80916 14.4161 3.26874C14.1612 2.19646 13.3517 1.04699 12.7623 0.352816ZM12 4C11.7131 4 11.5659 3.96254 11.4995 3.93726C11.4997 3.89767 11.5057 3.83194 11.5297 3.73126C11.6008 3.43207 11.7752 3.06798 12 2.69862C12.2249 3.06798 12.3992 3.43207 12.4703 3.73126C12.4943 3.83194 12.5003 3.89767 12.5005 3.93726C12.4341 3.96254 12.287 4 12 4ZM11.5041 3.98704C11.504 3.98712 11.5034 3.98558 11.5027 3.98219C11.5038 3.98527 11.5042 3.98697 11.5041 3.98704ZM12.4959 3.98704C12.4958 3.98697 12.4962 3.98527 12.4973 3.98219C12.4966 3.98558 12.496 3.98712 12.4959 3.98704ZM9 8C9 7.44772 9.44771 7 10 7H14C14.5523 7 15 7.44772 15 8V11L20 11C21.6569 11 23 12.3431 23 14V20C23 21.6569 21.6569 23 20 23L4 23C2.34315 23 1 21.6569 1 20L1 14C1 12.3431 2.34315 11 4 11L9 11V8ZM13 9V11H11V9H13ZM4 13L10 13H14L20 13C20.5523 13 21 13.4477 21 14V14.2246L18.4583 14.8782C18.2641 14.9281 18.0593 14.9185 17.8706 14.8506L16.2925 14.2825C15.6881 14.0649 15.0297 14.0471 14.4143 14.2317L12.2461 14.8822C12.0716 14.9345 11.8861 14.9382 11.7097 14.8928L8.9564 14.1848C8.37364 14.035 7.75928 14.0638 7.19312 14.2676L5.61509 14.8357C5.4136 14.9083 5.19414 14.9142 4.98902 14.8527L3 14.256V14C3 13.4477 3.44772 13 4 13ZM3 16.344L3 20C3 20.5523 3.44772 21 4 21L20 21C20.5523 21 21 20.5523 21 20V16.2897L18.9564 16.8152C18.3736 16.965 17.7593 16.9362 17.1931 16.7324L15.6151 16.1643C15.4136 16.0917 15.1941 16.0858 14.989 16.1473L12.8208 16.7978C12.2973 16.9548 11.7409 16.9659 11.2116 16.8298L8.45832 16.1218C8.26407 16.0719 8.05928 16.0815 7.87056 16.1494L6.29253 16.7175C5.68805 16.9351 5.02969 16.9529 4.41433 16.7683L3 16.344Z" fill="#000"/>
</svg>
