<svg width="24" height="24" viewBox="0 0 24 24" fill="none" xmlns="http://www.w3.org/2000/svg">
<path fill-rule="evenodd" clip-rule="evenodd" d="M14.2929 8.29289C13.9024 8.68342 13.9024 9.31658 14.2929 9.70711L18.5858 14L14.2929 18.2929C13.9024 18.6834 13.9024 19.3166 14.2929 19.7071C14.6834 20.0976 15.3166 20.0976 15.7071 19.7071L20.7071 14.7071C21.0976 14.3166 21.0976 13.6834 20.7071 13.2929L15.7071 8.29289C15.3166 7.90237 14.6834 7.90237 14.2929 8.29289Z" fill="#000"/>
<path fill-rule="evenodd" clip-rule="evenodd" d="M4 2C3.44772 2 3 2.44772 3 3V10C3 11.3261 3.52678 12.5979 4.46447 13.5355C5.40215 14.4732 6.67392 15 8 15H20C20.5523 15 21 14.5523 21 14C21 13.4477 20.5523 13 20 13H8C7.20435 13 6.44129 12.6839 5.87868 12.1213C5.31607 11.5587 5 10.7956 5 10V3C5 2.44772 4.55228 2 4 2Z" fill="#000"/>
</svg>
