<svg width="24" height="24" viewBox="0 0 24 24" fill="none" xmlns="http://www.w3.org/2000/svg">
<path fill-rule="evenodd" clip-rule="evenodd" d="M12.7071 13.7071C13.0976 13.3166 13.0976 12.6834 12.7071 12.2929L8.41421 8L12.7071 3.70711C13.0976 3.31658 13.0976 2.68342 12.7071 2.29289C12.3166 1.90237 11.6834 1.90237 11.2929 2.29289L6.29289 7.29289C5.90237 7.68342 5.90237 8.31658 6.29289 8.70711L11.2929 13.7071C11.6834 14.0976 12.3166 14.0976 12.7071 13.7071Z" fill="#000"/>
<path fill-rule="evenodd" clip-rule="evenodd" d="M8.20711 13.7071C8.59763 13.3166 8.59763 12.6834 8.20711 12.2929L3.91421 8L8.20711 3.70711C8.59763 3.31658 8.59763 2.68342 8.20711 2.29289C7.81658 1.90237 7.18342 1.90237 6.79289 2.29289L1.79289 7.29289C1.40237 7.68342 1.40237 8.31658 1.79289 8.70711L6.79289 13.7071C7.18342 14.0976 7.81658 14.0976 8.20711 13.7071Z" fill="#000"/>
<path fill-rule="evenodd" clip-rule="evenodd" d="M21 20C21.5523 20 22 19.5523 22 19V12C22 10.6739 21.4732 9.40215 20.5355 8.46447C19.5979 7.52678 18.3261 7 17 7L7 7C6.44772 7 6 7.44771 6 8C6 8.55229 6.44772 9 7 9L17 9C17.7956 9 18.5587 9.31607 19.1213 9.87868C19.6839 10.4413 20 11.2044 20 12V19C20 19.5523 20.4477 20 21 20Z" fill="#000"/>
</svg>
