<svg width="24" height="24" viewBox="0 0 24 24" fill="none" xmlns="http://www.w3.org/2000/svg">
<path fill-rule="evenodd" clip-rule="evenodd" d="M1 3C1 1.89543 1.89543 1 3 1H9C10.1046 1 11 1.89543 11 3V9C11 10.1046 10.1046 11 9 11H3C1.89543 11 1 10.1046 1 9V3ZM9 3H3V9H9V3Z" fill="#000"/>
<path fill-rule="evenodd" clip-rule="evenodd" d="M13 3C13 1.89543 13.8954 1 15 1H21C22.1046 1 23 1.89543 23 3V9C23 10.1046 22.1046 11 21 11H15C13.8954 11 13 10.1046 13 9V3ZM21 3H15V9H21V3Z" fill="#000"/>
<path fill-rule="evenodd" clip-rule="evenodd" d="M13 15C13 13.8954 13.8954 13 15 13H21C22.1046 13 23 13.8954 23 15V21C23 22.1046 22.1046 23 21 23H15C13.8954 23 13 22.1046 13 21V15ZM21 15H15V21H21V15Z" fill="#000"/>
<path fill-rule="evenodd" clip-rule="evenodd" d="M1 15C1 13.8954 1.89543 13 3 13H9C10.1046 13 11 13.8954 11 15V21C11 22.1046 10.1046 23 9 23H3C1.89543 23 1 22.1046 1 21V15ZM9 15H3V21H9V15Z" fill="#000"/>
</svg>
