<svg width="24" height="24" viewBox="0 0 24 24" fill="none" xmlns="http://www.w3.org/2000/svg">
<path fill-rule="evenodd" clip-rule="evenodd" d="M12 0C13.941 0 15.5298 1.88539 15.6582 4.27105C18.0884 5.57667 19.7407 8.1426 19.7407 11.0945V12.4227C22.1508 12.7806 23.9999 14.8585 23.9999 17.3682V20C23.9999 21.6569 22.6567 23 20.9999 23H17.8425V22.9995H6.15739V23H3C1.34315 23 0 21.6569 0 20V17.3682C0 14.8584 1.84911 12.7806 4.25928 12.4227V11.0945C4.25928 8.14261 5.91154 5.57669 8.34169 4.27106C8.47009 1.8854 10.0589 0 12 0ZM12 2C12.4096 2 13.1892 2.43311 13.5163 3.50221C13.0259 3.40483 12.5189 3.35376 12 3.35376C11.481 3.35376 10.974 3.40483 10.4837 3.50221C10.8107 2.43312 11.5903 2 12 2ZM12 5.35376C8.82947 5.35376 6.25928 7.92395 6.25928 11.0945V20.9995H17.7407V11.0945C17.7407 7.92395 15.1705 5.35376 12 5.35376ZM2 17.3682C2 16.0038 2.91072 14.8522 4.15739 14.4881V21H3C2.44772 21 2 20.5523 2 20V17.3682ZM19.8425 14.4881V21H20.9999C21.5521 21 21.9999 20.5523 21.9999 20V17.3682C21.9999 16.0038 21.0891 14.8522 19.8425 14.4881ZM9.51849 13.0173C8.41392 13.0173 7.51849 13.9128 7.51849 15.0173V16.9826C7.51849 18.0871 8.41392 18.9826 9.51849 18.9826H14.4814C15.586 18.9826 16.4814 18.0871 16.4814 16.9826V15.0173C16.4814 13.9128 15.586 13.0173 14.4814 13.0173H9.51849ZM9.51849 16.9826V15.0173L14.4814 15.0173L14.4814 16.9826L9.51849 16.9826Z" fill="#000"/>
</svg>
