<svg width="24" height="24" viewBox="0 0 24 24" fill="none" xmlns="http://www.w3.org/2000/svg">
<g clip-path="url(#clip0_3177_68)">
<path d="M5.69232 20.2479L5.69215 20.248C6.1977 20.8258 6.91964 21.1506 7.67771 21.1506H16.483C17.2045 21.1506 17.8533 20.8624 18.3221 20.3943C18.8255 19.8541 19.0788 19.1336 19.0063 18.2992L19.0062 18.2985L18.2944 9.30721C18.1967 8.41162 17.7549 7.6319 17.1042 7.10002C17.0394 7.08371 16.9783 7.05314 16.9287 7.02832L16.9254 7.02669L16.9173 7.02266L16.9101 7.01725C16.4763 6.69186 15.9329 6.47375 15.3892 6.40021C15.3425 6.39922 15.2973 6.38878 15.2559 6.37175C15.1779 6.36627 15.1 6.36282 15.0217 6.36282H14.2349H9.73853H9.06407C8.93372 6.36282 8.80525 6.37108 8.67836 6.38566C8.64825 6.39438 8.61661 6.39957 8.5842 6.40025C8.45339 6.41793 8.32242 6.44417 8.19274 6.47822L8.18397 6.48052L8.17716 6.4823L8.17664 6.48245C8.16172 6.48644 8.14708 6.49065 8.1314 6.49516C8.12697 6.49643 8.12247 6.49773 8.11785 6.49905L5.69232 20.2479ZM5.69232 20.2479L5.68761 20.2432M5.69232 20.2479L5.68761 20.2432M5.68761 20.2432C5.1479 19.7035 4.89478 18.9466 4.96705 18.1876L4.96707 18.1874M5.68761 20.2432L4.96707 18.1874M4.96707 18.1874L5.79124 9.30866M4.96707 18.1874L5.79124 9.30866M5.79124 9.30866C5.79126 9.3084 5.79129 9.30814 5.79132 9.30788L5.79124 9.30866ZM19.9551 18.2085L19.955 18.2077L19.2431 9.21499L19.243 9.21415C19.1431 8.07563 18.6062 7.09223 17.8054 6.4111L19.1601 3.30519L19.1601 3.30521L19.1613 3.30234C19.253 3.07304 19.1657 2.78423 18.9182 2.68525C18.6893 2.59373 18.4012 2.6805 18.3017 2.92691L17.019 5.88423C16.7468 5.74379 16.457 5.63223 16.1538 5.55303L17.4738 2.55613L17.4739 2.55615L17.4752 2.55295C17.5669 2.32365 17.4796 2.03484 17.2321 1.93586C17.0033 1.84438 16.7154 1.93102 16.6157 2.17716L15.1842 5.41523C15.1427 5.41403 15.1011 5.41339 15.0592 5.41339H14.7096V5.06378C14.7096 4.03434 13.8405 3.16525 12.811 3.16525H11.1624C10.1329 3.16525 9.26382 4.03434 9.26382 5.06378V5.41343H9.10153C8.99665 5.41343 8.8928 5.41725 8.79004 5.42452L7.32003 2.17674C7.22023 1.93092 6.93246 1.84443 6.70383 1.93586C6.45633 2.03484 6.36905 2.32365 6.46075 2.55295L6.46066 2.55299L6.46249 2.55704L7.83667 5.59473C7.55388 5.66965 7.25401 5.79018 6.97492 5.93661L5.67134 3.0759C5.57149 2.83018 5.28378 2.74373 5.05519 2.83515C4.80769 2.93413 4.72041 3.22293 4.81212 3.45224L4.81201 3.45228L4.81396 3.45656L6.21271 6.52703C5.46825 7.21227 4.97559 8.16588 4.8803 9.25137C4.88029 9.25147 4.88028 9.25156 4.88028 9.25165L4.05618 18.0921C4.05615 18.0924 4.05612 18.0927 4.05609 18.093C3.94067 19.1343 4.28822 20.1361 4.98053 20.9053C5.67422 21.6761 6.63808 22.1 7.67771 22.1H16.4831C17.4462 22.1 18.3721 21.7148 19.0288 21.0195L19.0288 21.0196L19.0306 21.0176C19.6863 20.2847 20.0318 19.2835 19.9551 18.2085ZM10.2132 5.06378C10.2132 4.55698 10.6555 4.11464 11.1624 4.11464H12.811C13.3178 4.11464 13.7602 4.55698 13.7602 5.06378V5.41343H10.2132V5.06378Z" fill="#000" stroke="#000" stroke-width="0.2"/>
<path d="M6.68375 19.4751L6.68374 19.4752L6.68693 19.4757C6.83357 19.5002 6.95775 19.45 7.04794 19.3659C7.13582 19.2839 7.19144 19.1703 7.2136 19.0595L7.21412 19.0596L7.2151 19.0493L7.96449 11.1432L7.96493 11.1433V11.1338C7.96493 9.72771 9.08173 8.61095 10.4878 8.61095H13.4854C14.8905 8.61095 16.0082 9.72681 16.0082 11.1713H16.0078L16.0087 11.1808L16.7581 19.0494L16.7575 19.0494L16.7595 19.0595C16.8042 19.2828 16.9871 19.4771 17.2323 19.4771H17.2406L17.2487 19.4758C17.3787 19.4541 17.4938 19.3987 17.5771 19.3095C17.6611 19.2194 17.707 19.1009 17.707 18.9649H17.7075L17.7065 18.9554L16.9576 11.129C16.955 9.20247 15.4124 7.66147 13.4854 7.66147H10.4878C8.56145 7.66147 7.01815 9.2017 7.01555 11.0915L6.26691 18.9521C6.24391 19.0972 6.29389 19.22 6.37735 19.3095C6.45937 19.3974 6.57293 19.453 6.68375 19.4751Z" fill="#000" stroke="#000" stroke-width="0.2"/>
<path d="M13.4279 19.2463C13.4603 19.2734 13.4804 19.277 13.4856 19.277C13.4908 19.277 13.5109 19.2734 13.5434 19.2463C13.5744 19.2205 13.6094 19.179 13.6423 19.1213C13.7081 19.0063 13.7603 18.8362 13.7603 18.6276L13.4279 19.2463ZM13.4279 19.2463C13.3968 19.2205 13.3619 19.179 13.3289 19.1213M13.4279 19.2463L13.3289 19.1213M13.3289 19.1213C13.2632 19.0063 13.2109 18.8362 13.2109 18.6276M13.3289 19.1213L13.2109 18.6276M13.2109 18.6276C13.2109 18.419 13.2632 18.2489 13.3289 18.1339M13.2109 18.6276L13.3289 18.1339M13.3289 18.1339C13.3619 18.0762 13.3969 18.0348 13.4279 18.0089M13.3289 18.1339L13.4279 18.0089M13.4279 18.0089C13.4603 17.9818 13.4804 17.9782 13.4856 17.9782M13.4279 18.0089L13.4856 17.9782M13.4856 17.9782C13.4908 17.9782 13.5109 17.9818 13.5434 18.0089M13.4856 17.9782L13.5434 18.0089M13.5434 18.0089C13.5744 18.0348 13.6094 18.0762 13.6424 18.1339M13.5434 18.0089L13.6424 18.1339M13.6424 18.1339C13.7081 18.2489 13.7603 18.419 13.7603 18.6276L13.6424 18.1339ZM14.6097 15.1554H9.36397C9.22884 15.1554 9.10845 15.2009 9.0216 15.2877C8.93474 15.3746 8.88926 15.4949 8.88926 15.6301C8.88926 15.7652 8.93474 15.8856 9.0216 15.9725C9.10845 16.0593 9.22884 16.1048 9.36397 16.1048H13.0109V17.1502C12.5544 17.3951 12.2615 17.9762 12.2615 18.6277C12.2615 19.0587 12.3888 19.4549 12.6044 19.7458C12.8204 20.0371 13.1289 20.2265 13.4856 20.2265C13.8423 20.2265 14.1509 20.0371 14.3668 19.7458C14.5825 19.4549 14.7097 19.0587 14.7097 18.6277C14.7097 17.9762 14.4169 17.3951 13.9603 17.1502V16.1048H14.6097C14.7448 16.1048 14.8652 16.0593 14.9521 15.9725C15.0389 15.8856 15.0844 15.7652 15.0844 15.6301C15.0844 15.4949 15.0389 15.3746 14.9521 15.2877C14.8652 15.2009 14.7448 15.1554 14.6097 15.1554Z" fill="#000" stroke="#000" stroke-width="0.2"/>
</g>
<defs>
<clipPath id="clip0_3177_68">
<rect width="20" height="20" fill="white" transform="translate(2 2)"/>
</clipPath>
</defs>
</svg>
