<svg width="24" height="24" viewBox="0 0 24 24" fill="none" xmlns="http://www.w3.org/2000/svg">
<path fill-rule="evenodd" clip-rule="evenodd" d="M6.38221 4.96818C7.9219 3.73651 9.87494 3 12 3C16.9706 3 21 7.02944 21 12C21 14.1251 20.2635 16.0781 19.0318 17.6178L6.38221 4.96818ZM4.96802 6.38242C3.73644 7.92207 3 9.87503 3 12C3 16.9706 7.02944 21 12 21C14.125 21 16.0779 20.2636 17.6176 19.032L4.96802 6.38242ZM12 1C5.92487 1 1 5.92487 1 12C1 18.0751 5.92487 23 12 23C18.0751 23 23 18.0751 23 12C23 5.92487 18.0751 1 12 1Z" fill="#000"/>
</svg>
