<svg width="24" height="24" viewBox="0 0 24 24" fill="none" xmlns="http://www.w3.org/2000/svg">
<path d="M7.058 20.963C6.76667 20.963 6.51367 20.871 6.299 20.687C6.09967 20.503 6 20.2653 6 19.974V3.989C6 3.69767 6.092 3.46 6.276 3.276C6.46 3.092 6.69767 3 6.989 3H12.555C13.5057 3 14.3567 3.19933 15.108 3.598C15.8747 3.99667 16.4803 4.541 16.925 5.231C17.3697 5.90567 17.592 6.69533 17.592 7.6C17.592 8.41267 17.3697 9.13333 16.925 9.762C16.4957 10.3907 15.9283 10.8813 15.223 11.234C16.235 11.4947 17.0553 12.0007 17.684 12.752C18.3127 13.488 18.627 14.4387 18.627 15.604C18.627 16.662 18.3817 17.5897 17.891 18.387C17.4157 19.1843 16.7487 19.813 15.89 20.273C15.0467 20.733 14.073 20.963 12.969 20.963H7.058ZM7.978 19.1H12.969C13.6897 19.1 14.326 18.962 14.878 18.686C15.4453 18.3947 15.89 17.996 16.212 17.49C16.534 16.9687 16.695 16.34 16.695 15.604C16.695 14.9293 16.534 14.3467 16.212 13.856C15.89 13.3653 15.4453 12.9897 14.878 12.729C14.326 12.4683 13.6897 12.338 12.969 12.338H7.978V19.1ZM7.978 10.452H12.555C13.4597 10.452 14.2033 10.2067 14.786 9.716C15.3687 9.22533 15.66 8.52 15.66 7.6C15.66 6.69533 15.3687 6.013 14.786 5.553C14.2033 5.093 13.4597 4.863 12.555 4.863H7.978V10.452Z" fill="#000"/>
</svg>
