<svg width="24" height="24" viewBox="0 0 24 24" fill="none" xmlns="http://www.w3.org/2000/svg">
<path fill-rule="evenodd" clip-rule="evenodd" d="M21 5C21 5.82843 20.2889 6.5 19.4118 6.5L4.58823 6.5C3.71108 6.5 3 5.82843 3 5C3 4.17157 3.71108 3.5 4.58823 3.5L19.4118 3.5C20.2889 3.5 21 4.17157 21 5Z" fill="#000"/>
<path fill-rule="evenodd" clip-rule="evenodd" d="M21 12C21 12.8284 20.2889 13.5 19.4118 13.5L4.58823 13.5C3.71108 13.5 3 12.8284 3 12C3 11.1716 3.71108 10.5 4.58823 10.5L19.4118 10.5C20.2889 10.5 21 11.1716 21 12Z" fill="#000"/>
<path fill-rule="evenodd" clip-rule="evenodd" d="M21 19C21 19.8284 20.2889 20.5 19.4118 20.5L4.58823 20.5C3.71108 20.5 3 19.8284 3 19C3 18.1716 3.71108 17.5 4.58823 17.5L19.4118 17.5C20.2889 17.5 21 18.1716 21 19Z" fill="#000"/>
</svg>
