<svg width="24" height="24" viewBox="0 0 24 24" fill="none" xmlns="http://www.w3.org/2000/svg">
<path fill-rule="evenodd" clip-rule="evenodd" d="M16 0C16.5523 0 17 0.447715 17 1V2H19C20.6569 2 22 3.34315 22 5V9V15V19C22 20.6569 20.6569 22 19 22H15H9H5C3.34315 22 2 20.6569 2 19V15V9V5C2 3.34315 3.34315 2 5 2H7V1C7 0.447715 7.44772 0 8 0C8.55228 0 9 0.447715 9 1V2H15V1C15 0.447715 15.4477 0 16 0ZM4 16V19C4 19.5523 4.44772 20 5 20H8V16H4ZM8 14H4V10H8V14ZM10 16V20H14V16H10ZM14 14H10V10H14V14ZM16 16V20H19C19.5523 20 20 19.5523 20 19V16H16ZM20 14H16V10H20V14ZM20 5V8H15H9H4V5C4 4.44772 4.44772 4 5 4H7V5C7 5.55228 7.44772 6 8 6C8.55228 6 9 5.55228 9 5V4H15V5C15 5.55228 15.4477 6 16 6C16.5523 6 17 5.55228 17 5V4H19C19.5523 4 20 4.44772 20 5Z" fill="#000"/>
</svg>
