<svg width="24" height="24" viewBox="0 0 24 24" fill="none" xmlns="http://www.w3.org/2000/svg">
  <path fill-rule="evenodd" clip-rule="evenodd" d="M2 4.35294C2 3.05345 3.05345 2 4.35294 2H19.6471C20.9466 2 22 3.05345 22 4.35294V19.6471C22 20.9466 20.9466 22 19.6471 22H4.35294C3.05345 22 2 20.9466 2 19.6471V4.35294ZM18.2515 8.56625C18.6291 8.03753 18.5067 7.30276 17.978 6.9251C17.4492 6.54745 16.7145 6.66991 16.3368 7.19863L11.361 14.1648L8.80289 10.9507C8.39826 10.4423 7.65813 10.3582 7.14975 10.7628C6.64137 11.1675 6.55726 11.9076 6.96189 12.416L10.4913 16.8504C10.7212 17.1392 11.0733 17.3034 11.4424 17.2938C11.8114 17.2842 12.1546 17.1019 12.3691 16.8015L18.2515 8.56625Z" fill="#000" />
</svg>