<svg width="20" height="20" viewBox="0 0 20 20" fill="none" xmlns="http://www.w3.org/2000/svg">
<path fill-rule="evenodd" clip-rule="evenodd" d="M10.6874 0.362233C10.5321 0.13552 10.2749 0 10 0C9.72519 0 9.46802 0.13552 9.31264 0.362233L8.0107 2.26192L5.80167 2.9131C5.53804 2.99082 5.32969 3.19352 5.24475 3.45491C5.15982 3.71631 5.20924 4.00277 5.37684 4.2206L6.78123 6.04585L6.7513 7.13401L2.35767 15.9213C1.80359 17.0294 2.60941 18.3333 3.84838 18.3333H8.33333V19.1667C8.33333 19.6269 8.70643 20 9.16667 20H10.8333C11.2936 20 11.6667 19.6269 11.6667 19.1667V18.3333H16.1517C17.3906 18.3333 18.1965 17.0294 17.6424 15.9213L13.2488 7.13408L13.2188 6.04585L14.6232 4.2206C14.7908 4.00277 14.8403 3.71631 14.7553 3.45491C14.6704 3.19352 14.462 2.99082 14.1984 2.9131L11.9894 2.26192L10.6874 0.362233ZM12.4202 9.20374C12.3359 9.20082 12.2515 9.18507 12.1699 9.15607L10 8.38445L7.83014 9.15607C7.74857 9.18508 7.66415 9.20083 7.57982 9.20374L3.84838 16.6666H16.1517L12.4202 9.20374ZM9.21797 3.44856L10 2.30742L10.7821 3.44856C10.8905 3.60667 11.05 3.72259 11.2339 3.77678L12.5608 4.16795L11.7172 5.26437C11.6003 5.41629 11.5394 5.60385 11.5447 5.79545L11.5827 7.17834L10.2792 6.71483C10.0986 6.65061 9.90143 6.65061 9.72083 6.71483L8.41738 7.17834L8.45541 5.79545C8.46068 5.60385 8.39974 5.41629 8.28285 5.26437L7.43924 4.16795L8.7662 3.77678C8.95006 3.72259 9.10961 3.60667 9.21797 3.44856ZM12.5 14.1667C12.5 14.6269 12.1269 15 11.6667 15C11.2064 15 10.8333 14.6269 10.8333 14.1667C10.8333 13.7064 11.2064 13.3333 11.6667 13.3333C12.1269 13.3333 12.5 13.7064 12.5 14.1667ZM8.33333 12.5C8.79357 12.5 9.16667 12.1269 9.16667 11.6667C9.16667 11.2064 8.79357 10.8333 8.33333 10.8333C7.8731 10.8333 7.5 11.2064 7.5 11.6667C7.5 12.1269 7.8731 12.5 8.33333 12.5Z" fill="#000"/>
</svg>
