<svg width="24" height="24" viewBox="0 0 24 24" fill="none" xmlns="http://www.w3.org/2000/svg">
<path fill-rule="evenodd" clip-rule="evenodd" d="M2.07445 17.2584C2.78075 16.4213 3.77879 15.9092 4.86364 15.9092H10.5909C11.6757 15.9092 12.6738 16.4213 13.3801 17.2584C14.0821 18.0904 14.4545 19.1875 14.4545 20.3031V22.0001C14.4545 22.5524 14.0068 23.0001 13.4545 23.0001C12.9023 23.0001 12.4545 22.5524 12.4545 22.0001V20.3031C12.4545 19.6185 12.2236 18.9891 11.8515 18.5481C11.4837 18.1122 11.025 17.9092 10.5909 17.9092H4.86364C4.42951 17.9092 3.9708 18.1122 3.60303 18.5481C3.23096 18.9891 3 19.6185 3 20.3031V22.0001C3 22.5524 2.55228 23.0001 2 23.0001C1.44772 23.0001 1 22.5524 1 22.0001V20.3031C1 19.1875 1.37245 18.0904 2.07445 17.2584Z" fill="#000"/>
<path fill-rule="evenodd" clip-rule="evenodd" d="M7.72821 8.5C6.52322 8.5 5.54639 9.47683 5.54639 10.6818C5.54639 11.8868 6.52322 12.8636 7.72821 12.8636C8.93319 12.8636 9.91002 11.8868 9.91002 10.6818C9.91002 9.47683 8.93319 8.5 7.72821 8.5ZM3.54639 10.6818C3.54639 8.37226 5.41865 6.5 7.72821 6.5C10.0378 6.5 11.91 8.37226 11.91 10.6818C11.91 12.9914 10.0378 14.8636 7.72821 14.8636C5.41865 14.8636 3.54639 12.9914 3.54639 10.6818Z" fill="#000"/>
<path fill-rule="evenodd" clip-rule="evenodd" d="M0 5C0 3.34315 1.34315 2 3 2H21C22.6569 2 24 3.34315 24 5V16C24 17.6569 22.6569 19 21 19H16C15.4477 19 15 18.5523 15 18C15 17.4477 15.4477 17 16 17H21C21.5523 17 22 16.5523 22 16V5C22 4.44771 21.5523 4 21 4H3C2.44772 4 2 4.44772 2 5V15C2 15.5523 1.55228 16 1 16C0.447715 16 0 15.5523 0 15V5Z" fill="#000"/>
</svg>
