<svg width="24" height="24" viewBox="0 0 24 24" fill="none" xmlns="http://www.w3.org/2000/svg">
<path fill-rule="evenodd" clip-rule="evenodd" d="M21 12C21 16.9706 16.9706 21 12 21C7.02944 21 3 16.9706 3 12C3 7.02944 7.02944 3 12 3C16.9706 3 21 7.02944 21 12ZM23 12C23 18.0751 18.0751 23 12 23C5.92487 23 1 18.0751 1 12C1 5.92487 5.92487 1 12 1C18.0751 1 23 5.92487 23 12ZM13.0002 6.17676C13.0002 5.62447 12.5525 5.17676 12.0002 5.17676C11.4479 5.17676 11.0002 5.62447 11.0002 6.17676V12.1667L8.14023 14.4547C7.70897 14.7997 7.63905 15.429 7.98406 15.8603C8.32907 16.2915 8.95836 16.3615 9.38962 16.0164L12.6249 13.4282C12.8621 13.2384 13.0002 12.9511 13.0002 12.6473V6.17676Z" fill="#000"/>
</svg>
