<svg width="32" height="32" viewBox="0 0 32 32" fill="none" xmlns="http://www.w3.org/2000/svg">
<g id="clock-alert" clip-path="url(#clip0_837_742)">
<g id="Union">
<path d="M0 13.4331C0 6.0142 6.0142 0 13.4331 0C19.53 0 24.675 4.06076 26.3176 9.62233C26.5262 10.3286 26.1228 11.0701 25.4166 11.2787C24.7103 11.4873 23.9687 11.0839 23.7602 10.3777C22.4432 5.91852 18.3161 2.66667 13.4331 2.66667C7.48696 2.66667 2.66667 7.48696 2.66667 13.4331C2.66667 18.3161 5.91852 22.4432 10.3777 23.7602C11.0839 23.9687 11.4873 24.7103 11.2787 25.4166C11.0701 26.1228 10.3286 26.5262 9.62233 26.3176C4.06076 24.675 0 19.53 0 13.4331Z" fill="#000"/>
<path d="M13.4328 5.47729C14.1692 5.47729 14.7662 6.07425 14.7662 6.81063V14.0519C14.7662 14.446 14.5919 14.8199 14.29 15.0732L10.4402 18.3043C9.87615 18.7777 9.03513 18.7042 8.56174 18.1401C8.08834 17.5761 8.16183 16.7351 8.72588 16.2617L12.0995 13.4303V6.81063C12.0995 6.07425 12.6965 5.47729 13.4328 5.47729Z" fill="#000"/>
<path d="M22.6667 17.7334C23.403 17.7334 24 18.3304 24 19.0667V22.0001C24 22.7364 23.403 23.3334 22.6667 23.3334C21.9303 23.3334 21.3333 22.7364 21.3333 22.0001V19.0667C21.3333 18.3304 21.9303 17.7334 22.6667 17.7334Z" fill="#000"/>
<path d="M22.6667 24.5332C21.9303 24.5332 21.3333 25.1302 21.3333 25.8665C21.3333 26.6029 21.9303 27.1999 22.6667 27.1999H22.6747C23.411 27.1999 24.008 26.6029 24.008 25.8665C24.008 25.1302 23.411 24.5332 22.6747 24.5332H22.6667Z" fill="#000"/>
<path fill-rule="evenodd" clip-rule="evenodd" d="M22.6667 13.3334C17.512 13.3334 13.3333 17.512 13.3333 22.6667C13.3333 27.8214 17.512 32 22.6667 32C27.8213 32 32 27.8214 32 22.6667C32 17.512 27.8213 13.3334 22.6667 13.3334ZM16 22.6667C16 18.9848 18.9848 16 22.6667 16C26.3486 16 29.3333 18.9848 29.3333 22.6667C29.3333 26.3486 26.3486 29.3334 22.6667 29.3334C18.9848 29.3334 16 26.3486 16 22.6667Z" fill="#000"/>
</g>
</g>
<defs>
<clipPath id="clip0_837_742">
<rect width="32" height="32" fill="white"/>
</clipPath>
</defs>
</svg>
