<svg width="24" height="24" viewBox="0 0 24 24" fill="none" xmlns="http://www.w3.org/2000/svg">
<path fill-rule="evenodd" clip-rule="evenodd" d="M19.3332 11C19.8855 11 20.3332 10.5523 20.3332 10C20.3332 9.44775 19.8855 9.00003 19.3332 9.00003H16.4141L22.707 2.70714C23.0975 2.31661 23.0975 1.68345 22.707 1.29292C22.3164 0.902399 21.6833 0.902399 21.2928 1.29292L14.9999 7.58582V4.6667C14.9999 4.11441 14.5522 3.6667 13.9999 3.6667C13.4476 3.6667 12.9999 4.11441 12.9999 4.6667V10C12.9999 10.5523 13.4476 11 13.9999 11H19.3332ZM4.66667 13C4.11438 13 3.66667 13.4477 3.66667 14C3.66667 14.5523 4.11438 15 4.66667 15H7.58579L1.29289 21.2929C0.902369 21.6834 0.902369 22.3166 1.29289 22.7071C1.68342 23.0977 2.31658 23.0977 2.70711 22.7071L9 16.4142V19.3334C9 19.8856 9.44772 20.3334 10 20.3334C10.5523 20.3334 11 19.8856 11 19.3334V14C11 13.4477 10.5523 13 10 13H4.66667Z" fill="#000"/>
</svg>
