<svg width="24" height="24" viewBox="0 0 24 24" fill="none" xmlns="http://www.w3.org/2000/svg">
<path fill-rule="evenodd" clip-rule="evenodd" d="M4.22257 4.22218C4.65215 3.7926 5.34863 3.7926 5.77821 4.22218L19.7782 18.2222C20.2078 18.6518 20.2078 19.3482 19.7782 19.7778C19.3486 20.2074 18.6522 20.2074 18.2226 19.7778L4.22257 5.77781C3.793 5.34823 3.793 4.65175 4.22257 4.22218Z" fill="#000"/>
<path fill-rule="evenodd" clip-rule="evenodd" d="M19.7774 4.22218C20.207 4.65175 20.207 5.34823 19.7774 5.77781L5.77743 19.7778C5.34785 20.2074 4.65137 20.2074 4.22179 19.7778C3.79221 19.3482 3.79221 18.6518 4.22179 18.2222L18.2218 4.22218C18.6514 3.7926 19.3479 3.7926 19.7774 4.22218Z" fill="#000"/>
</svg>
