<svg width="24" height="24" viewBox="0 0 24 24" fill="none" xmlns="http://www.w3.org/2000/svg">
<path fill-rule="evenodd" clip-rule="evenodd" d="M6.67569 3C6.95961 2.32832 7.52911 2 7.93865 2H19.3617C19.928 2 20.8002 2.62776 20.8002 3.92308V17.0769C20.8002 18.1326 20.2209 18.7449 19.7 18.9353V6.92308C19.7 4.98965 18.2991 3 16.0615 3H6.67569ZM4.40357 3.00742C4.7654 1.40879 6.05579 0 7.93865 0H19.3617C21.5993 0 23.0002 1.98965 23.0002 3.92308V17.0769C23.0002 18.9418 21.6969 20.8589 19.5966 20.9926C19.2348 22.5912 17.9444 24 16.0615 24H4.63846C2.40085 24 1 22.0103 1 20.0769V6.92308C1 5.05822 2.30325 3.14106 4.40357 3.00742ZM3.2 6.92308C3.2 5.62776 4.07216 5 4.63846 5H16.0615C16.6278 5 17.5 5.62776 17.5 6.92308V20.0769C17.5 21.3722 16.6278 22 16.0615 22H4.63846C4.07216 22 3.2 21.3722 3.2 20.0769V6.92308Z" fill="#000"/>
</svg>
