<svg width="24" height="24" viewBox="0 0 24 24" fill="none" xmlns="http://www.w3.org/2000/svg">
<path d="M4.50014 18.6923V11.2404L3.23089 12.2269C3.05526 12.3552 2.86937 12.4058 2.67322 12.3789C2.47707 12.3519 2.3149 12.2507 2.18672 12.075C2.0585 11.8994 2.00625 11.7135 2.02997 11.5174C2.05368 11.3212 2.14823 11.159 2.31362 11.0308L4.50014 9.35006V7.23081C4.50014 7.01801 4.57194 6.83981 4.71554 6.69621C4.85913 6.55263 5.03733 6.48083 5.25014 6.48083C5.46296 6.48083 5.64116 6.55263 5.78474 6.69621C5.92833 6.83981 6.00012 7.01801 6.00012 7.23081V8.20008L10.9001 4.46353C11.2347 4.21225 11.603 4.08661 12.0049 4.08661C12.4068 4.08661 12.7719 4.21225 13.1001 4.46353L21.6866 11.0308C21.852 11.159 21.9466 11.3212 21.9703 11.5174C21.994 11.7135 21.9417 11.8994 21.8135 12.075C21.6853 12.2404 21.5232 12.3366 21.327 12.3635C21.1309 12.3904 20.9501 12.3398 20.7847 12.2116L19.5001 11.2404V18.6923C19.5001 19.191 19.3235 19.617 18.9703 19.9702C18.6171 20.3234 18.1911 20.5 17.6924 20.5H6.30784C5.80913 20.5 5.38317 20.3234 5.02997 19.9702C4.67675 19.617 4.50014 19.191 4.50014 18.6923ZM6.30784 19H10.8078V15.8077C10.8078 15.4731 10.9229 15.1907 11.153 14.9606C11.3831 14.7305 11.6655 14.6154 12.0001 14.6154C12.3347 14.6154 12.6171 14.7305 12.8472 14.9606C13.0774 15.1907 13.1924 15.4731 13.1924 15.8077V19H17.6924C17.7821 19 17.8559 18.9712 17.9136 18.9135C17.9713 18.8558 18.0001 18.7821 18.0001 18.6923V10.1L12.1828 5.66928C12.1315 5.6244 12.0706 5.60196 12.0001 5.60196C11.9296 5.60196 11.8687 5.6244 11.8174 5.66928L6.00012 10.1V18.6923C6.00012 18.7821 6.02897 18.8558 6.08667 18.9135C6.14437 18.9712 6.21809 19 6.30784 19ZM6.30784 19H18.0001H6.00012H6.30784ZM5.42512 5.38468C5.15718 5.38468 4.94629 5.27443 4.79244 5.05391C4.63861 4.83341 4.6213 4.60458 4.74052 4.36741C4.94052 3.88408 5.25526 3.5001 5.68474 3.21548C6.11423 2.93087 6.59115 2.78856 7.11552 2.78856C7.34372 2.78856 7.55718 2.7267 7.75589 2.60298C7.95463 2.47925 8.08924 2.31162 8.15974 2.10008C8.21744 1.97572 8.3027 1.87668 8.41552 1.80296C8.52833 1.72924 8.65718 1.69238 8.80204 1.69238C9.07639 1.69238 9.28953 1.80424 9.44144 2.02796C9.59338 2.25168 9.60973 2.48533 9.49049 2.72891C9.28409 3.20583 8.96775 3.58499 8.54147 3.86641C8.11518 4.14781 7.63987 4.28851 7.11552 4.28851C6.8873 4.28851 6.67383 4.343 6.47512 4.45198C6.2764 4.56095 6.14178 4.72633 6.07127 4.94813C6.00717 5.0789 5.92128 5.18435 5.81359 5.26448C5.70589 5.34462 5.5764 5.38468 5.42512 5.38468Z" fill="#000"/>
</svg>
