<svg width="24" height="24" viewBox="0 0 24 24" fill="none" xmlns="http://www.w3.org/2000/svg">
<g clip-path="url(#clip0_946_1726)">
<path fill-rule="evenodd" clip-rule="evenodd" d="M21.5933 19.2267C22.0833 19.491 22.6898 19.3135 22.948 18.8304C23.2061 18.3472 23.0181 17.7413 22.5281 17.477L12.8897 12.2793L22.5288 7.08237C23.0188 6.81816 23.2069 6.21227 22.9488 5.72908C22.6907 5.24589 22.0842 5.06838 21.5941 5.33259L10.7999 11.1524L8.82581 10.0878L9.98966 8.18781C10.4005 7.51706 10.5797 6.7191 10.4495 5.95395C10.3183 5.18216 9.87487 4.48712 9.16205 4.08094L6.75851 2.71137C6.04568 2.3052 5.20052 2.266 4.43631 2.52754C3.67866 2.78684 3.04044 3.32319 2.62957 3.99394L2.06325 4.91847C1.65238 5.58922 1.47326 6.38718 1.60338 7.15233C1.73463 7.92412 2.17804 8.61917 2.89086 9.02535L6.28402 10.9588C6.32332 10.988 6.36521 11.0147 6.40957 11.0386L6.68076 11.1849L6.89676 11.308C6.93698 11.3309 6.97816 11.3508 7.02003 11.3678L8.70997 12.2792L7.01176 13.1948C6.97287 13.211 6.9346 13.2297 6.89717 13.2511L6.71737 13.3535L6.4097 13.5194C6.36298 13.5446 6.31901 13.5728 6.27791 13.6038L2.89035 15.5337C2.17747 15.9399 1.7339 16.6348 1.60251 17.4067C1.47225 18.1718 1.65125 18.9699 2.06208 19.6407L2.62833 20.5653C3.03916 21.2361 3.67741 21.7725 4.43511 22.0318C5.19937 22.2934 6.04457 22.2542 6.75744 21.848L9.16153 20.4784C9.87441 20.0723 10.318 19.3773 10.4494 18.6055C10.5796 17.8403 10.4006 17.0423 9.9898 16.3715L8.8256 14.4705L10.7998 13.4061L21.5933 19.2267ZM8.44113 6.27365C8.48718 6.54448 8.42775 6.87955 8.23783 7.1896L7.05687 9.11752L3.92689 7.33402C3.78977 7.25589 3.65671 7.09684 3.61179 6.83264C3.56573 6.5618 3.62516 6.22674 3.81508 5.91669L4.3814 4.99216C4.57133 4.68211 4.84693 4.47022 5.11511 4.37844C5.37672 4.28891 5.58536 4.32457 5.72248 4.4027L8.12602 5.77227C8.26314 5.8504 8.3962 6.00944 8.44113 6.27365ZM8.44102 18.2855C8.48713 18.0146 8.42774 17.6796 8.23787 17.3695L7.05708 15.4415L3.92623 17.2251C3.78896 17.3033 3.65584 17.4625 3.61086 17.7267C3.56475 17.9976 3.62413 18.3326 3.814 18.6426L4.38025 19.5672C4.57012 19.8772 4.8457 20.0891 5.1139 20.1809C5.37554 20.2705 5.5843 20.2348 5.72156 20.1566L8.12565 18.787C8.26292 18.7088 8.39604 18.5497 8.44102 18.2855Z" fill="#000"/>
</g>
<defs>
<clipPath id="clip0_946_1726">
<rect width="24" height="24" fill="white"/>
</clipPath>
</defs>
</svg>
