<svg width="24" height="24" viewBox="0 0 24 24" fill="none" xmlns="http://www.w3.org/2000/svg">
<path fill-rule="evenodd" clip-rule="evenodd" d="M9.4614 3.68867C9.64041 3.50966 9.8832 3.40909 10.1364 3.40909H13.9545C14.2077 3.40909 14.4505 3.50966 14.6295 3.68867C14.8085 3.86768 14.9091 4.11048 14.9091 4.36364V5.31818H9.18182V4.36364C9.18182 4.11048 9.28239 3.86768 9.4614 3.68867ZM16.8182 4.36364V5.31818H18.7273L18.7459 5.31836H20.6364C21.1635 5.31836 21.5909 5.74572 21.5909 6.2729C21.5909 6.80009 21.1635 7.22745 20.6364 7.22745H19.6818V19.6364C19.6818 20.3958 19.3801 21.1242 18.8431 21.6613C18.306 22.1983 17.5777 22.5 16.8182 22.5H7.27273C6.51324 22.5 5.78487 22.1983 5.24783 21.6613C4.71079 21.1242 4.40909 20.3958 4.40909 19.6364V7.22745H3.45455C2.92736 7.22745 2.5 6.80009 2.5 6.2729C2.5 5.74572 2.92736 5.31836 3.45455 5.31836H5.34504L5.36364 5.31818H7.27273V4.36364C7.27273 3.60415 7.57443 2.87578 8.11147 2.33874C8.6485 1.8017 9.37688 1.5 10.1364 1.5H13.9545C14.714 1.5 15.4424 1.8017 15.9794 2.33874C16.5165 2.87578 16.8182 3.60415 16.8182 4.36364ZM6.31818 7.22745V19.6364C6.31818 19.8895 6.41875 20.1323 6.59776 20.3113C6.77677 20.4903 7.01957 20.5909 7.27273 20.5909H16.8182C17.0713 20.5909 17.3141 20.4903 17.4931 20.3113C17.6722 20.1323 17.7727 19.8895 17.7727 19.6364V7.22745H6.31818ZM10.1364 10.0909C10.6635 10.0909 11.0909 10.5183 11.0909 11.0455V16.7727C11.0909 17.2999 10.6635 17.7273 10.1364 17.7273C9.60918 17.7273 9.18182 17.2999 9.18182 16.7727V11.0455C9.18182 10.5183 9.60918 10.0909 10.1364 10.0909ZM14.9091 16.7727V11.0455C14.9091 10.5183 14.4817 10.0909 13.9545 10.0909C13.4274 10.0909 13 10.5183 13 11.0455V16.7727C13 17.2999 13.4274 17.7273 13.9545 17.7273C14.4817 17.7273 14.9091 17.2999 14.9091 16.7727Z" fill="#000"/>
</svg>
