<svg width="24" height="24" viewBox="0 0 24 24" fill="none" xmlns="http://www.w3.org/2000/svg">
<path fill-rule="evenodd" clip-rule="evenodd" d="M2.7561 2C1.23395 2 0 3.23395 0 4.7561V6.5V18C0 19.6569 1.34315 21 3 21H9.5C10.0523 21 10.5 20.5523 10.5 20C10.5 19.4477 10.0523 19 9.5 19H3C2.44772 19 2 18.5523 2 18V6.5V4.7561C2 4.33852 2.33852 4 2.7561 4H9.5C10.8807 4 12 5.11929 12 6.5C12 7.05228 12.4477 7.5 13 7.5H21C21.5523 7.5 22 7.94772 22 8.5C22 9.05228 22.4477 9.5 23 9.5C23.5523 9.5 24 9.05228 24 8.5C24 6.84315 22.6569 5.5 21 5.5H13.8885C13.4338 3.49601 11.6416 2 9.5 2H2.7561ZM23.6066 11.5356C23.9972 11.9261 23.9972 12.5593 23.6066 12.9498L20.071 16.4854L23.6066 20.021C23.9971 20.4116 23.9971 21.0447 23.6066 21.4353C23.2161 21.8258 22.5829 21.8258 22.1924 21.4353L18.6568 17.8997L15.1213 21.4351C14.7308 21.8256 14.0977 21.8256 13.7071 21.4351C13.3166 21.0446 13.3166 20.4114 13.7071 20.0209L17.2426 16.4854L13.7071 12.95C13.3166 12.5594 13.3166 11.9263 13.7071 11.5358C14.0976 11.1452 14.7308 11.1452 15.1213 11.5358L18.6568 15.0712L22.1924 11.5356C22.5829 11.1451 23.2161 11.1451 23.6066 11.5356Z" fill="#000"/>
</svg>
