<svg width="24" height="24" viewBox="0 0 24 24" fill="none" xmlns="http://www.w3.org/2000/svg">
<path fill-rule="evenodd" clip-rule="evenodd" d="M1 12C1 11.4477 1.44772 11 2 11H8C8.33435 11 8.64658 11.1671 8.83205 11.4453L10.5352 14H13.4648L15.1679 11.4453C15.3534 11.1671 15.6656 11 16 11H22C22.5523 11 23 11.4477 23 12C23 12.5523 22.5523 13 22 13H16.5352L14.8321 15.5547C14.6466 15.8329 14.3344 16 14 16H10C9.66565 16 9.35342 15.8329 9.16795 15.5547L7.46482 13H2C1.44772 13 1 12.5523 1 12Z" fill="#000"/>
<path fill-rule="evenodd" clip-rule="evenodd" d="M12 1C12.5523 1 13 1.44772 13 2V8.20145L14.3123 6.95826C14.7132 6.57843 15.3461 6.59553 15.726 6.99647C16.1058 7.3974 16.0887 8.03033 15.6877 8.41016L12.6877 11.2523C12.302 11.6177 11.698 11.6177 11.3123 11.2523L8.31226 8.41016C7.91132 8.03033 7.89422 7.3974 8.27405 6.99647C8.65388 6.59553 9.28681 6.57843 9.68774 6.95826L11 8.20145V2C11 1.44772 11.4477 1 12 1ZM7.24 3.84211L8 3.84211C8.55228 3.84211 9 4.28982 9 4.84211C9 5.39439 8.55228 5.84211 8 5.84211L7.2405 5.8421C7.04381 5.84229 6.85392 5.89461 6.69358 5.9888C6.53347 6.08286 6.41182 6.21283 6.33557 6.35818L6.33411 6.36097L3 12.6691V18.1053C3 18.3246 3.09146 18.5466 3.27353 18.7191C3.45743 18.8933 3.71786 19 4 19H20C20.2821 19 20.5426 18.8933 20.7265 18.7191C20.9085 18.5466 21 18.3246 21 18.1053V12.6691L17.6659 6.36097L17.6644 6.35818C17.5882 6.21282 17.4665 6.08286 17.3064 5.9888C17.1461 5.89461 16.9567 5.84229 16.76 5.84211H16C15.4477 5.84211 15 5.39439 15 4.84211C15 4.28982 15.4477 3.84211 16 3.84211H16.76C17.3073 3.84238 17.8475 3.98709 18.3195 4.26436C18.7913 4.54156 19.1799 4.94237 19.4348 5.42769C19.435 5.42819 19.4353 5.42869 19.4356 5.42918L22.8841 11.9538C22.9602 12.0978 23 12.2582 23 12.4211V18.1053C23 18.891 22.67 19.6328 22.102 20.171C21.5357 20.7074 20.7787 21 20 21H4C3.22127 21 2.46428 20.7074 1.89804 20.171C1.32996 19.6328 1 18.891 1 18.1053V12.4211C1 12.2582 1.03978 12.0978 1.11589 11.9538L4.56443 5.42918C4.5647 5.42866 4.56498 5.42814 4.56525 5.42762C4.82018 4.94233 5.20869 4.54154 5.68051 4.26436C6.15247 3.98709 6.69271 3.84238 7.24 3.84211Z" fill="#000"/>
</svg>
