<svg width="24" height="24" viewBox="0 0 24 24" fill="none" xmlns="http://www.w3.org/2000/svg">
<g clip-path="url(#clip0_359_1275)">
<path fill-rule="evenodd" clip-rule="evenodd" d="M7.29289 16.2929C7.68342 15.9024 8.31658 15.9024 8.70711 16.2929L12 19.5858L15.2929 16.2929C15.6834 15.9024 16.3166 15.9024 16.7071 16.2929C17.0976 16.6834 17.0976 17.3166 16.7071 17.7071L12.7071 21.7071C12.3166 22.0976 11.6834 22.0976 11.2929 21.7071L7.29289 17.7071C6.90237 17.3166 6.90237 16.6834 7.29289 16.2929Z" fill="#000"/>
<path fill-rule="evenodd" clip-rule="evenodd" d="M12 11C12.5523 11 13 11.4477 13 12V21C13 21.5523 12.5523 22 12 22C11.4477 22 11 21.5523 11 21V12C11 11.4477 11.4477 11 12 11Z" fill="#000"/>
<path fill-rule="evenodd" clip-rule="evenodd" d="M8.66776 1.99416C10.0282 1.94523 11.3821 2.20558 12.6274 2.7556C13.8727 3.30562 14.977 4.13098 15.8572 5.16954C16.5677 6.0079 17.1172 6.96755 17.4806 7.99999L17.9994 7.99999C19.2745 7.99916 20.5175 8.40459 21.5467 9.15747C22.576 9.9105 23.3387 10.972 23.7239 12.1878C24.1091 13.4036 24.0968 14.7106 23.6889 15.919C23.281 17.1274 22.4987 18.1744 21.4554 18.908C21.0036 19.2257 20.3799 19.117 20.0622 18.6652C19.7445 18.2134 19.8532 17.5897 20.305 17.272C21.0005 16.7829 21.522 16.0849 21.794 15.2793C22.0659 14.4737 22.0741 13.6024 21.8173 12.7919C21.5605 11.9813 21.0521 11.2737 20.3658 10.7716C19.6796 10.2696 18.8512 9.99933 18.001 9.99999H16.7402C16.2836 9.99999 15.885 9.69077 15.7716 9.24854C15.5084 8.22293 15.016 7.27038 14.3314 6.46261C13.6468 5.65484 12.7879 5.01289 11.8194 4.5851C10.8508 4.1573 9.7978 3.95481 8.73964 3.99286C7.68149 4.03092 6.64576 4.30852 5.71042 4.80479C4.77508 5.30105 3.9645 6.00303 3.33972 6.85789C2.71494 7.71275 2.29223 8.6982 2.10341 9.74007C1.91459 10.7819 1.96459 11.8531 2.24964 12.8728C2.53469 13.8926 3.04736 14.8343 3.74906 15.6273C4.11506 16.0409 4.07648 16.6729 3.66288 17.0389C3.24929 17.4049 2.6173 17.3663 2.2513 16.9527C1.34911 15.9332 0.689966 14.7223 0.323475 13.4112C-0.0430157 12.1001 -0.107298 10.723 0.135466 9.38342C0.378231 8.04388 0.921717 6.77686 1.72501 5.67776C2.5283 4.57865 3.57047 3.67611 4.77305 3.03806C5.97563 2.40001 7.30728 2.04308 8.66776 1.99416Z" fill="#000"/>
</g>
<defs>
<clipPath id="clip0_359_1275">
<rect width="24" height="24" fill="white"/>
</clipPath>
</defs>
</svg>
