<svg width="24" height="24" viewBox="0 0 24 24" xmlns="http://www.w3.org/2000/svg">
<path fill-rule="evenodd" clip-rule="evenodd" d="M10.8 19.5C10.8 20.9 9.69995 22 8.29995 22C6.89995 22 5.79995 20.9 5.79995 19.5C5.79995 18.1 6.89995 17 8.19995 17C9.49995 17 10.8 18.1 10.8 19.5ZM8.19995 9.5C6.79995 9.5 5.69995 10.6 5.69995 12C5.69995 13.4 6.79995 14.5 8.19995 14.5C9.59995 14.5 10.7 13.4 10.7 12C10.7 10.6 9.59995 9.5 8.19995 9.5ZM8.19995 2C6.89995 2 5.79995 3.1 5.79995 4.5C5.79995 5.9 6.89995 7 8.19995 7C9.49995 7 10.7 5.9 10.7 4.5C10.7 3.1 9.59995 2 8.19995 2ZM15.8 7C17.2 7 18.3 5.9 18.3 4.5C18.3 3.1 17.1 2 15.8 2C14.5 2 13.3 3.1 13.3 4.5C13.3 5.9 14.4 7 15.8 7ZM15.8 9.5C14.4 9.5 13.3 10.6 13.3 12C13.3 13.4 14.4 14.5 15.8 14.5C17.2 14.5 18.3 13.4 18.3 12C18.3 10.6 17.1 9.5 15.8 9.5ZM15.8 17C14.4 17 13.3 18.1 13.3 19.5C13.3 20.9 14.4 22 15.8 22C17.2 22 18.3 20.9 18.3 19.5C18.3 18.1 17.1 17 15.8 17Z" fill="#000" fill-rule="evenodd"/>
</svg>
