<svg width="20" height="20" viewBox="0 0 20 20" fill="none" xmlns="http://www.w3.org/2000/svg">
<rect width="20" height="20" fill="white"/>
<path d="M7.5 3.33332H12.5V1.66666H7.5V3.33332Z" fill="#4A4A4A"/>
<path d="M10 3.33334C5.85834 3.33334 2.5 6.69082 2.5 10.8333H17.5C17.5 6.69082 14.1417 3.33334 10 3.33334Z" fill="#909090"/>
<path d="M13.6609 12.8777C13.4874 13.1616 13.2772 13.4257 13.032 13.6647C12.2594 14.4189 11.2355 14.834 10.1476 14.834C9.06058 14.834 8.03577 14.4189 7.26321 13.6647C6.49153 12.9105 6.06058 11.906 6.05007 10.8368V10.8333H2.5C2.5 10.8333 2.5 10.8342 2.5 10.8351C2.5 10.8463 2.5 10.8584 2.5 10.8696C2.53942 14.998 5.94847 18.3333 10.1476 18.3333C13.639 18.3333 16.5838 16.0275 17.5 12.8777H13.66H13.6609Z" fill="#4A4A4A"/>
</svg>
