<svg width="24" height="24" viewBox="0 0 24 24" fill="none" xmlns="http://www.w3.org/2000/svg">
<path d="M2 20V5.25C2 5.08333 2.03333 4.93333 2.1 4.8C2.16667 4.66667 2.26667 4.55 2.4 4.45L6.4 1.45C6.58333 1.31667 6.78333 1.25 7 1.25C7.21667 1.25 7.41667 1.31667 7.6 1.45L11.6 4.45C11.7333 4.55 11.8333 4.66667 11.9 4.8C11.9667 4.93333 12 5.08333 12 5.25V7H21C21.2833 7 21.5208 7.09583 21.7125 7.2875C21.9042 7.47917 22 7.71667 22 8V20C22 20.2833 21.9042 20.5208 21.7125 20.7125C21.5208 20.9042 21.2833 21 21 21H3C2.71667 21 2.47917 20.9042 2.2875 20.7125C2.09583 20.5208 2 20.2833 2 20ZM4 19H6V17H4V19ZM4 15H6V13H4V15ZM4 11H6V9H4V11ZM4 7H6V5H4V7ZM8 7H10V5H8V7ZM8 19H20V9H8V19ZM15 11H17C17.2833 11 17.5208 11.0958 17.7125 11.2875C17.9042 11.4792 18 11.7167 18 12C18 12.2833 17.9042 12.5208 17.7125 12.7125C17.5208 12.9042 17.2833 13 17 13H15C14.7167 13 14.4792 12.9042 14.2875 12.7125C14.0958 12.5208 14 12.2833 14 12C14 11.7167 14.0958 11.4792 14.2875 11.2875C14.4792 11.0958 14.7167 11 15 11ZM15 15H17C17.2833 15 17.5208 15.0958 17.7125 15.2875C17.9042 15.4792 18 15.7167 18 16C18 16.2833 17.9042 16.5208 17.7125 16.7125C17.5208 16.9042 17.2833 17 17 17H15C14.7167 17 14.4792 16.9042 14.2875 16.7125C14.0958 16.5208 14 16.2833 14 16C14 15.7167 14.0958 15.4792 14.2875 15.2875C14.4792 15.0958 14.7167 15 15 15ZM12 12C12 12.2833 11.9042 12.5208 11.7125 12.7125C11.5208 12.9042 11.2833 13 11 13C10.7167 13 10.4792 12.9042 10.2875 12.7125C10.0958 12.5208 10 12.2833 10 12C10 11.7167 10.0958 11.4792 10.2875 11.2875C10.4792 11.0958 10.7167 11 11 11C11.2833 11 11.5208 11.0958 11.7125 11.2875C11.9042 11.4792 12 11.7167 12 12ZM11 17C10.7167 17 10.4792 16.9042 10.2875 16.7125C10.0958 16.5208 10 16.2833 10 16C10 15.7167 10.0958 15.4792 10.2875 15.2875C10.4792 15.0958 10.7167 15 11 15C11.2833 15 11.5208 15.0958 11.7125 15.2875C11.9042 15.4792 12 15.7167 12 16C12 16.2833 11.9042 16.5208 11.7125 16.7125C11.5208 16.9042 11.2833 17 11 17Z" fill="#000"/>
</svg>
