<svg width="20" height="20" viewBox="0 0 20 20" fill="none" xmlns="http://www.w3.org/2000/svg">
<g clip-path="url(#clip0_837_735)">
<path fill-rule="evenodd" clip-rule="evenodd" d="M5.95811 17.2721C5.76851 17.6914 5.95478 18.1851 6.37415 18.3747C6.94346 18.6321 7.53414 18.8275 8.13545 18.9615C8.58466 19.0617 9.03001 18.7787 9.13016 18.3295C9.23032 17.8803 8.94736 17.435 8.49816 17.3348C8.00622 17.2251 7.52422 17.0656 7.06074 16.856C6.64137 16.6664 6.14771 16.8527 5.95811 17.2721ZM16.4439 15.5398C16.129 15.2041 15.6016 15.1873 15.266 15.5022C14.8347 15.9069 14.3502 16.2645 13.817 16.5636C13.4156 16.7887 13.2727 17.2967 13.4979 17.6981C13.723 18.0995 14.2309 18.2424 14.6324 18.0172C15.2846 17.6514 15.878 17.2134 16.4064 16.7177C16.742 16.4028 16.7588 15.8754 16.4439 15.5398ZM9.7078 18.3788C9.72927 18.8385 10.1194 19.1938 10.5791 19.1723C11.1709 19.1446 11.7602 19.0604 12.3376 18.9197C12.7847 18.8108 13.0589 18.36 12.95 17.9128C12.841 17.4657 12.3902 17.1915 11.9431 17.3004C11.4703 17.4156 10.987 17.4848 10.5013 17.5074C10.0416 17.5289 9.68632 17.919 9.7078 18.3788Z" fill="#000"/>
<path fill-rule="evenodd" clip-rule="evenodd" d="M7.25807 3.03657C11.0844 1.45768 15.4759 3.28957 17.0633 7.13647C18.0149 9.44265 17.7419 11.9467 16.5434 13.9247C16.3049 14.3183 16.4306 14.8307 16.8242 15.0692C17.2178 15.3077 17.7303 15.182 17.9688 14.7884C19.4308 12.3756 19.7656 9.31601 18.6039 6.50074C16.6676 1.80819 11.3048 -0.436238 6.62233 1.49592C4.8087 2.24429 3.36248 3.51105 2.38584 5.05433C2.13973 5.44323 2.25549 5.95801 2.6444 6.20413C3.0333 6.45024 3.54808 6.33448 3.7942 5.94557C4.59286 4.68353 5.77356 3.64914 7.25807 3.03657Z" fill="#000"/>
<path fill-rule="evenodd" clip-rule="evenodd" d="M2.51776 1.87213C2.06047 1.92405 1.73184 2.33686 1.78376 2.79416L2.12596 5.80817C2.1712 6.20662 2.49382 6.51635 2.89378 6.54532L5.68157 6.74721C6.1406 6.78046 6.53967 6.43528 6.57292 5.97625C6.60616 5.51721 6.26099 5.11814 5.80195 5.0849L3.70397 4.93296L3.43979 2.60614C3.38787 2.14884 2.97506 1.82021 2.51776 1.87213Z" fill="#000"/>
<path fill-rule="evenodd" clip-rule="evenodd" d="M6.91083 7.32745C7.23626 7.00201 7.7639 7.00201 8.08934 7.32745L10.0001 9.2382L11.9108 7.32745C12.2363 7.00201 12.7639 7.00201 13.0893 7.32745C13.4148 7.65289 13.4148 8.18053 13.0893 8.50596L11.1786 10.4167L13.0893 12.3275C13.4148 12.6529 13.4148 13.1805 13.0893 13.506C12.7639 13.8314 12.2363 13.8314 11.9108 13.506L10.0001 11.5952L8.08934 13.506C7.7639 13.8314 7.23626 13.8314 6.91083 13.506C6.58539 13.1805 6.58539 12.6529 6.91083 12.3275L8.82157 10.4167L6.91083 8.50596C6.58539 8.18053 6.58539 7.65289 6.91083 7.32745Z" fill="#000"/>
</g>
<defs>
<clipPath id="clip0_837_735">
<rect width="20" height="20" fill="white" transform="matrix(-1 0 0 1 20 0)"/>
</clipPath>
</defs>
</svg>
