<svg version="1.1" xmlns="http://www.w3.org/2000/svg" viewBox="0 0 24 24"><path d="M12,4.5C6.9,4.5,2.2,7.4,0,12c3.2,6.6,11.2,9.4,17.9,6.1c2.7-1.3,4.8-3.5,6.1-6.1C21.8,7.4,17.1,4.5,12,4.5z M6.2,16.4	c-1.9-1.1-3.4-2.6-4.5-4.4c2.1-3.7,6-6,10.3-6s8.2,2.3,10.3,6C19,17.7,11.8,19.7,6.2,16.4L6.2,16.4z M12,7.5C12,7.5,12,7.5,12,7.5	c-2.6,0-4.6,2-4.6,4.5c0,2.5,2,4.5,4.5,4.6c2.5,0,4.5-2,4.6-4.5v0C16.5,9.5,14.5,7.5,12,7.5L12,7.5z M10.5,12C9.7,12,9,11.3,9,10.5	S9.7,9,10.5,9S12,9.7,12,10.5S11.3,12,10.5,12z" fill="#000" /></svg>