<svg version="1.1" xmlns="http://www.w3.org/2000/svg" viewBox="0 0 24 24"><path d="M10.1,16.6l6-6c0.3,0.6,0.5,1.3,0.5,1.9c0,2.5-2,4.5-4.5,4.6C11.3,17,10.6,16.9,10.1,16.6L10.1,16.6z M8.8,15.7l-4.2,4.2	l0,0c-0.3,0.3-0.8,0.3-1,0s-0.3-0.8,0-1l1.1-1.1c-2-1.3-3.6-3.1-4.6-5.3C2.2,7.9,6.9,5,12,5c1.6,0,3.1,0.3,4.6,0.8L18.4,4	c0.3-0.2,0.7-0.2,0.9,0c0.3,0.3,0.4,0.7,0.1,1.1L8.8,15.7L8.8,15.7z M7.5,12.5c0-2.5,2-4.5,4.5-4.6c0.7,0,1.4,0.2,1.9,0.4L15.4,7	C10.1,5.4,4.4,7.7,1.7,12.5c1,1.7,2.4,3.1,4,4.2l2.2-2.3C7.6,13.8,7.5,13.2,7.5,12.5z M19.4,7.2l-1.1,1.1c1.6,1,3,2.5,4,4.2	c-2.1,3.7-6,6-10.3,6c-1.1,0-2.3-0.1-3.4-0.5l-1.2,1.2c1.5,0.5,3,0.8,4.6,0.8c5.1,0,9.8-2.9,12-7.5C23,10.3,21.3,8.5,19.4,7.2	L19.4,7.2z" fill="#000"/></svg>