<svg width="28" height="28" viewBox="0 0 28 28" fill="none" xmlns="http://www.w3.org/2000/svg">
<path d="M13.6507 0.825195C14.3697 0.825195 15.0024 1.25199 15.3021 1.8877L18.2767 8.19531L24.9105 9.20508C25.6194 9.31292 26.1825 9.82767 26.39 10.4961C26.5962 11.1613 26.4281 11.8989 25.9359 12.4014L21.1126 17.3223L22.2523 24.2812C22.3649 24.9682 22.0989 25.6776 21.5364 26.1055C20.968 26.5378 20.2039 26.5979 19.5755 26.252L13.6507 22.9902L7.72589 26.252C7.09763 26.5977 6.33352 26.5379 5.76495 26.1055C5.20256 25.6776 4.93681 24.9689 5.04913 24.2822L6.18781 17.3223L1.36554 12.4014C0.873378 11.8989 0.705023 11.1614 0.911438 10.4961C1.11888 9.82749 1.68204 9.31291 2.39093 9.20508L9.02374 8.19531L11.9993 1.8877C12.2989 1.25216 12.9317 0.825199 13.6507 0.825195Z" fill="#F1CA00" stroke="white" stroke-width="1.65085"/>
<path d="M25.5999 10.7405C25.4812 10.358 25.1654 10.0792 24.7852 10.0214L17.7159 8.94593L14.5544 2.23941C14.3844 1.87877 14.0336 1.65039 13.6494 1.65039C13.5821 1.65039 13.6494 22.0488 13.6494 22.0488L19.9724 25.529C20.3124 25.7162 20.7245 25.685 21.0352 25.4486C21.346 25.2122 21.5017 24.8116 21.4367 24.4152L20.2291 17.044L25.3445 11.8237C25.6197 11.5429 25.7187 11.123 25.5999 10.7405Z" fill="#D1AF00"/>
</svg>
