<svg version="1.1" xmlns="http://www.w3.org/2000/svg" viewBox="0 0 24 24">
    <path fill="#000" d="M20.4,3.6c0.7,0,1.2,0.5,1.2,1.2S21.1,6,20.4,6c-0.7,0-1.2-0.5-1.2-1.2S19.7,3.6,20.4,3.6z M20.4,8.4c2,0,3.6-1.6,3.6-3.6
	s-1.6-3.6-3.6-3.6c-1.6,0-2.9,1-3.4,2.4H0V6h17C17.5,7.4,18.8,8.4,20.4,8.4L20.4,8.4z" />
    <path fill="#000" d="M8.4,13.2c-0.7,0-1.2-0.5-1.2-1.2c0-0.7,0.5-1.2,1.2-1.2s1.2,0.5,1.2,1.2C9.6,12.7,9.1,13.2,8.4,13.2z M8.4,8.4
	c-1.6,0-2.9,1-3.4,2.4H0v2.4h5c0.5,1.4,1.8,2.4,3.4,2.4s2.9-1,3.4-2.4H24v-2.4H11.8C11.3,9.4,10,8.4,8.4,8.4L8.4,8.4z" />
    <path fill="#000" d="M20.4,20.4c-0.7,0-1.2-0.5-1.2-1.2c0-0.7,0.5-1.2,1.2-1.2c0.7,0,1.2,0.5,1.2,1.2C21.6,19.9,21.1,20.4,20.4,20.4z M20.4,15.6
	c-1.6,0-2.9,1-3.4,2.4H0v2.4h17c0.5,1.4,1.8,2.4,3.4,2.4c2,0,3.6-1.6,3.6-3.6S22.4,15.6,20.4,15.6L20.4,15.6z" />
</svg>