<svg xmlns="http://www.w3.org/2000/svg" viewBox="0 0 24 24"><path d="M21.37,2.1a1.14,1.14,0,0,0-1.15.17S19.3,3,16.72,3a10.56,10.56,0,0,1-3.83-.93A12.44,12.44,0,0,0,8.28,1c-3.43,0-4.74,1.08-5,1.29A1,1,0,0,0,3,3V22a1,1,0,0,0,1.06,1,1,1,0,0,0,1.05-1V15.54A7.59,7.59,0,0,1,8.28,15a10.56,10.56,0,0,1,3.83.93A12.44,12.44,0,0,0,16.72,17c3.43,0,4.74-1.08,5-1.29A1,1,0,0,0,22,15V3A1,1,0,0,0,21.37,2.1ZM19.89,14.46a7.46,7.46,0,0,1-3.17.54,10.56,10.56,0,0,1-3.83-.93A12.64,12.64,0,0,0,8.28,13a11.4,11.4,0,0,0-3.17.39V3.54A7.46,7.46,0,0,1,8.28,3a10.56,10.56,0,0,1,3.83.93A12.44,12.44,0,0,0,16.72,5a11.4,11.4,0,0,0,3.17-.39Z" fill="#000"/></svg>