<svg width="24" height="24" viewBox="0 0 24 24" fill="none" xmlns="http://www.w3.org/2000/svg">
<path fill-rule="evenodd" clip-rule="evenodd" d="M3.05672 6C3.02539 6 3 6.02539 3 6.05672V19.0877L21 19.0877V8.37356H12.303C11.7507 8.37356 11.303 7.92585 11.303 7.37357C11.303 6.61497 10.6881 6 9.92945 6H3.05672ZM1 6.05672C1 4.92083 1.92083 4 3.05672 4H9.92945C11.4445 4 12.7262 4.99864 13.1523 6.37356H21C22.1046 6.37356 23 7.26899 23 8.37356V19.0877C23 20.1923 22.1046 21.0877 21 21.0877H3C1.89543 21.0877 1 20.1923 1 19.0877V6.05672Z" fill="#000"/>
</svg>
