<svg width="24" height="24" viewBox="0 0 24 24" fill="none" xmlns="http://www.w3.org/2000/svg">
  <g clip-path="url(#clip0_2465_254)">
    <path fill-rule="evenodd" clip-rule="evenodd" d="M2.7561 1C1.23395 1 0 2.23395 0 3.7561V5.5V17C0 18.6569 1.34315 20 3 20H7C7.55228 20 8 19.5523 8 19C8 18.4477 7.55228 18 7 18H3C2.44772 18 2 17.5523 2 17V5.5V3.7561C2 3.33852 2.33852 3 2.7561 3H9.5C10.8807 3 12 4.11929 12 5.5C12 6.05228 12.4477 6.5 13 6.5H21C21.5523 6.5 22 6.94772 22 7.5V8C22 8.55228 22.4477 9 23 9C23.5523 9 24 8.55228 24 8V7.5C24 5.84315 22.6569 4.5 21 4.5H13.8885C13.4338 2.49601 11.6416 1 9.5 1H2.7561ZM10 15.5C10 14.9477 10.4477 14.5 11 14.5H20.5858L17.2929 11.2071C16.9024 10.8166 16.9024 10.1834 17.2929 9.79289C17.6834 9.40237 18.3166 9.40237 18.7071 9.79289L23.7071 14.7929C24.0976 15.1834 24.0976 15.8166 23.7071 16.2071L18.7071 21.2071C18.3166 21.5976 17.6834 21.5976 17.2929 21.2071C16.9024 20.8166 16.9024 20.1834 17.2929 19.7929L20.5858 16.5H11C10.4477 16.5 10 16.0523 10 15.5Z" fill="#000" />
  </g>
  <defs>
    <clipPath id="clip0_2465_254">
      <rect width="24" height="24" fill="white" />
    </clipPath>
  </defs>
</svg>