<svg width="24" height="24" viewBox="0 0 24 24" fill="none" xmlns="http://www.w3.org/2000/svg">
<g clip-path="url(#clip0_18_24)">
<path fill-rule="evenodd" clip-rule="evenodd" d="M2.7561 2C1.23395 2 0 3.23395 0 4.7561V6.5V18C0 19.6569 1.34315 21 3 21H7C7.55228 21 8 20.5523 8 20C8 19.4477 7.55228 19 7 19H3C2.44772 19 2 18.5523 2 18V6.5V4.7561C2 4.33852 2.33852 4 2.7561 4H9.5C10.8807 4 12 5.11929 12 6.5C12 7.05228 12.4477 7.5 13 7.5H21C21.5523 7.5 22 7.94772 22 8.5V9C22 9.55228 22.4477 10 23 10C23.5523 10 24 9.55228 24 9V8.5C24 6.84315 22.6569 5.5 21 5.5H13.8885C13.4338 3.49601 11.6416 2 9.5 2H2.7561ZM10 16.5C10 15.9477 10.4477 15.5 11 15.5H20.5858L17.2929 12.2071C16.9024 11.8166 16.9024 11.1834 17.2929 10.7929C17.6834 10.4024 18.3166 10.4024 18.7071 10.7929L23.7071 15.7929C24.0976 16.1834 24.0976 16.8166 23.7071 17.2071L18.7071 22.2071C18.3166 22.5976 17.6834 22.5976 17.2929 22.2071C16.9024 21.8166 16.9024 21.1834 17.2929 20.7929L20.5858 17.5H11C10.4477 17.5 10 17.0523 10 16.5Z" fill="#000"/>
</g>
<defs>
<clipPath id="clip0_18_24">
<rect width="24" height="24" fill="white"/>
</clipPath>
</defs>
</svg>
