<svg width="24" height="24" viewBox="0 0 24 24" fill="none" xmlns="http://www.w3.org/2000/svg">
<g clip-path="url(#clip0_2465_254)">
<path fill-rule="evenodd" clip-rule="evenodd" d="M12.9646 7C11.9694 7 11.1256 6.26833 10.9847 5.2832C10.881 4.55815 10.254 4 9.5 4H2V19H22V7H12.9646ZM0 3.90244C0 2.85175 0.851751 2 1.90244 2H9.5C11.2632 2 12.7219 3.30385 12.9646 5H22C23.1046 5 24 5.89543 24 7V19C24 20.1046 23.1046 21 22 21H2C0.89543 21 0 20.1046 0 19V3.90244Z" fill="#000"/>
<path fill-rule="evenodd" clip-rule="evenodd" d="M6.5 13C6.5 12.4477 6.94772 12 7.5 12H16.5C17.0523 12 17.5 12.4477 17.5 13C17.5 13.5523 17.0523 14 16.5 14H7.5C6.94772 14 6.5 13.5523 6.5 13Z" fill="#000"/>
<path fill-rule="evenodd" clip-rule="evenodd" d="M12.2929 8.79289C12.6834 8.40237 13.3166 8.40237 13.7071 8.79289L17.2071 12.2929C17.5976 12.6834 17.5976 13.3166 17.2071 13.7071L13.7071 17.2071C13.3166 17.5976 12.6834 17.5976 12.2929 17.2071C11.9024 16.8166 11.9024 16.1834 12.2929 15.7929L15.0858 13L12.2929 10.2071C11.9024 9.81658 11.9024 9.18342 12.2929 8.79289Z" fill="#000"/>
</g>
<defs>
<clipPath id="clip0_2465_254">
<rect width="24" height="24" fill="white"/>
</clipPath>
</defs>
</svg>
