<svg width="21" height="20" viewBox="0 0 21 20" fill="none" xmlns="http://www.w3.org/2000/svg">
<path fill-rule="evenodd" clip-rule="evenodd" d="M16.8222 7.13658C15.2349 3.28969 10.8437 1.45779 7.01747 3.03669C5.92752 3.48646 5.00135 4.16365 4.26994 4.9914L5.56136 5.08493C6.02038 5.11817 6.36553 5.51724 6.33229 5.97628C6.29905 6.43531 5.9 6.78049 5.44098 6.74724L2.65333 6.54535C2.25338 6.51638 1.93078 6.20666 1.88555 5.8082L1.54336 2.79419C1.49144 2.33689 1.82005 1.92408 2.27733 1.87216C2.73461 1.82024 3.14739 2.14887 3.19931 2.60617L3.30946 3.57638C4.15528 2.70459 5.18907 1.9882 6.38177 1.49603C11.064 -0.436126 16.4266 1.8083 18.3628 6.50085C19.5244 9.31612 19.1897 12.3757 17.7277 14.7885C17.4892 15.1821 16.9768 15.3078 16.5832 15.0693C16.1896 14.8308 16.0639 14.3184 16.3024 13.9248C17.5008 11.9468 17.7738 9.44276 16.8222 7.13658ZM6.13355 18.3746C5.7142 18.185 5.52794 17.6913 5.71753 17.272C5.90712 16.8526 6.40076 16.6663 6.82011 16.8559C7.28357 17.0655 7.76554 17.225 8.25746 17.3347C8.70664 17.4349 8.98959 17.8802 8.88943 18.3294C8.78928 18.7786 8.34395 19.0616 7.89477 18.9614C7.29349 18.8274 6.70284 18.632 6.13355 18.3746ZM15.025 15.5022C15.3606 15.1873 15.888 15.2041 16.2028 15.5397C16.5177 15.8753 16.5009 16.4027 16.1653 16.7176C15.637 17.2133 15.0436 17.6513 14.3914 18.0171C13.99 18.2423 13.4821 18.0994 13.2569 17.698C13.0318 17.2966 13.1747 16.7887 13.5761 16.5635C14.1093 16.2644 14.5937 15.9068 15.025 15.5022ZM10.3383 19.1722C9.8786 19.1937 9.48852 18.8384 9.46704 18.3787C9.44557 17.9189 9.80083 17.5288 10.2605 17.5073C10.7462 17.4847 11.2294 17.4155 11.7022 17.3003C12.1494 17.1914 12.6001 17.4656 12.7091 17.9127C12.818 18.3599 12.5438 18.8107 12.0967 18.9196C11.5194 19.0603 10.9301 19.1446 10.3383 19.1722ZM11.5001 5.83336C11.5001 5.37313 11.127 5.00003 10.6667 5.00003C10.2065 5.00003 9.83341 5.37313 9.83341 5.83336V10.9308L7.21433 13.1288C6.86179 13.4247 6.81585 13.9503 7.11171 14.3028C7.40758 14.6554 7.93321 14.7013 8.28575 14.4054L11.2025 11.9576C11.3911 11.7993 11.5001 11.5656 11.5001 11.3193V5.83336Z" fill="#000"/>
</svg>
