<svg width="32" height="32" viewBox="0 0 32 32" fill="none" xmlns="http://www.w3.org/2000/svg">
<g id="forgoing-error">
<path id="Union" fill-rule="evenodd" clip-rule="evenodd" d="M26.5155 11.4184C23.9758 5.26335 16.9498 2.33231 10.8279 4.85855C9.08396 5.57819 7.6021 6.6617 6.43183 7.98609L8.49811 8.13574C9.23253 8.18893 9.78478 8.82744 9.73159 9.5619C9.6784 10.2964 9.03992 10.8486 8.3055 10.7954L3.84526 10.4724C3.20534 10.4261 2.68918 9.9305 2.6168 9.29298L2.0693 4.47055C1.98623 3.73887 2.51201 3.07839 3.24365 2.99532C3.9753 2.91224 4.63575 3.43804 4.71882 4.16972L4.89506 5.72206C6.24838 4.32719 7.90245 3.18098 9.81076 2.3935C17.3023 -0.697947 25.8824 2.89313 28.9804 10.4012C30.839 14.9056 30.3034 19.801 27.9642 23.6614C27.5826 24.2912 26.7628 24.4924 26.133 24.1108C25.5033 23.7292 25.3021 22.9093 25.6837 22.2795C27.6013 19.1148 28.038 15.1083 26.5155 11.4184ZM9.41361 29.3992C8.74265 29.0959 8.44463 28.306 8.74797 27.635C9.05131 26.964 9.84114 26.666 10.5121 26.9693C11.2536 27.3046 12.0248 27.5599 12.8119 27.7354C13.5306 27.8957 13.9833 28.6082 13.823 29.3269C13.6628 30.0457 12.9503 30.4984 12.2316 30.3382C11.2695 30.1236 10.3245 29.811 9.41361 29.3992ZM23.6399 24.8033C24.1769 24.2995 25.0206 24.3263 25.5245 24.8634C26.0283 25.4004 26.0014 26.2442 25.4644 26.748C24.6191 27.5411 23.6697 28.2419 22.6261 28.8273C21.9839 29.1875 21.1713 28.9589 20.811 28.3166C20.4508 27.6744 20.6794 26.8617 21.3217 26.5015C22.1747 26.023 22.9499 25.4507 23.6399 24.8033ZM16.1412 30.6754C15.4057 30.7097 14.7816 30.1413 14.7472 29.4057C14.7128 28.6701 15.2813 28.046 16.0168 28.0116C16.7939 27.9753 17.567 27.8647 18.3235 27.6804C19.0389 27.5061 19.7602 27.9448 19.9344 28.6602C20.1087 29.3757 19.67 30.097 18.9546 30.2713C18.0309 30.4963 17.088 30.6311 16.1412 30.6754ZM12.9428 11.7238C12.4221 11.2031 11.5779 11.2031 11.0572 11.7238C10.5365 12.2445 10.5365 13.0887 11.0572 13.6094L14.1143 16.6666L11.0572 19.7238C10.5365 20.2445 10.5365 21.0887 11.0572 21.6094C11.5779 22.1301 12.4221 22.1301 12.9428 21.6094L16 18.5522L19.0572 21.6094C19.5779 22.1301 20.4221 22.1301 20.9428 21.6094C21.4635 21.0887 21.4635 20.2445 20.9428 19.7238L17.8856 16.6666L20.9428 13.6094C21.4635 13.0887 21.4635 12.2445 20.9428 11.7238C20.4221 11.2031 19.5779 11.2031 19.0572 11.7238L16 14.7809L12.9428 11.7238Z" fill="#000"/>
</g>
</svg>
