<svg width="24" height="24" viewBox="0 0 24 24" fill="none" xmlns="http://www.w3.org/2000/svg">
<path fill-rule="evenodd" clip-rule="evenodd" d="M16.6667 1C16.1144 1 15.6667 1.44772 15.6667 2C15.6667 2.55228 16.1144 3 16.6667 3H19.5858L13.2929 9.29289C12.9024 9.68342 12.9024 10.3166 13.2929 10.7071C13.6834 11.0976 14.3166 11.0976 14.7071 10.7071L21 4.41421V7.33333C21 7.88562 21.4477 8.33333 22 8.33333C22.5523 8.33333 23 7.88562 23 7.33333V2C23 1.44772 22.5523 1 22 1H16.6667ZM7.33333 23C7.88562 23 8.33333 22.5523 8.33333 22C8.33333 21.4477 7.88562 21 7.33333 21H4.41421L10.7071 14.7071C11.0976 14.3166 11.0976 13.6834 10.7071 13.2929C10.3166 12.9024 9.68342 12.9024 9.29289 13.2929L3 19.5858L3 16.6667C3 16.1144 2.55229 15.6667 2 15.6667C1.44772 15.6667 1 16.1144 1 16.6667V22C1 22.5523 1.44771 23 2 23H7.33333Z" fill="#000"/>
</svg>
