<svg width="20" height="20" viewBox="0 0 20 20" fill="none" xmlns="http://www.w3.org/2000/svg">
<g clip-path="url(#clip0_152_16)">
<path fill-rule="evenodd" clip-rule="evenodd" d="M9.99988 18.3333C14.6023 18.3333 18.3332 14.6023 18.3332 9.99997C18.3332 5.3976 14.6023 1.66664 9.99988 1.66664C5.3975 1.66664 1.66654 5.3976 1.66654 9.99997C1.66654 14.6023 5.3975 18.3333 9.99988 18.3333ZM9.99988 20C15.5227 20 19.9999 15.5228 19.9999 9.99997C19.9999 4.47712 15.5227 -3.05176e-05 9.99988 -3.05176e-05C4.47703 -3.05176e-05 -0.00012207 4.47712 -0.00012207 9.99997C-0.00012207 15.5228 4.47703 20 9.99988 20Z" fill="#000"/>
<path fill-rule="evenodd" clip-rule="evenodd" d="M14.1196 2.30091C14.1198 2.3006 14.1201 2.30029 14.1203 2.29998C14.2464 2.14236 14.2784 1.92249 14.1948 1.73101L13.8487 1.88222L13.801 1.98985L13.7356 2.49923C13.8715 2.49228 14.015 2.43085 14.1196 2.30091ZM13.6438 2.48732C13.6259 2.48164 13.6079 2.47487 13.59 2.46694L13.6696 2.28702L13.6438 2.48732ZM13.6518 2.48978L13.6781 2.26773L13.799 1.99445L13.7319 2.4994C13.7176 2.50003 13.7035 2.50005 13.6895 2.49949C13.677 2.49677 13.6644 2.49354 13.6518 2.48978ZM13.8487 1.88222L14.1948 1.73101C14.3515 2.089 14.5378 2.65034 14.6153 3.19365C14.6538 3.46305 14.673 3.77773 14.6208 4.08022C14.5699 4.37573 14.4261 4.7862 14.0256 5.04703L13.9512 5.09551L12.9384 5.48235C12.9384 5.48236 12.9384 5.48234 12.9384 5.48235C12.5517 5.63014 12.3 5.96004 12.2545 6.32597L12.2538 6.33225L12.2462 6.38978C12.1321 7.18183 11.4116 7.34916 11.3006 7.37111C10.9557 7.43891 10.3736 7.37657 10.0351 6.83708L10.0296 6.82836L9.84324 6.51448C9.55197 7.12091 9.24534 7.82392 9.16933 8.44797L9.16921 8.44893C9.1596 8.52704 9.17689 8.60466 9.20363 8.6552L9.22236 8.6906L9.62095 9.65851C9.70175 9.80044 9.82485 9.9287 9.98513 10.0257C10.2849 10.2067 10.9263 10.6188 11.3632 11.1276C11.397 11.167 11.5831 11.3119 12.113 11.4595C12.6409 11.6068 13.0578 12.0681 13.0974 12.6523C13.1456 13.3598 13.2581 13.7937 13.3764 14.0264C13.4158 14.104 13.4472 14.1418 13.4626 14.1576L13.4897 14.1583L13.5317 14.1637C13.5316 14.1637 13.5376 14.1645 13.5489 14.1652C13.56 14.166 13.5755 14.1666 13.5946 14.1666C13.7118 14.1666 13.9077 14.1415 14.0971 14.0087C14.3627 13.8222 14.6259 13.4228 14.727 12.6083L14.7271 12.6075C14.7693 12.2704 14.8271 11.8463 14.9258 11.4168L14.9789 11.1331C15.0128 10.952 15.0585 10.7097 15.1051 10.4649C15.1516 10.2205 15.1994 9.97199 15.2376 9.77926C15.2567 9.68335 15.2739 9.59825 15.2877 9.53339C15.2945 9.50149 15.3014 9.47016 15.3078 9.44316C15.3109 9.43003 15.3151 9.41298 15.3199 9.39506C15.3198 9.39542 15.32 9.39489 15.3199 9.39506C15.3219 9.38741 15.3357 9.33558 15.3593 9.27916C15.4142 9.14829 15.5188 8.9936 15.6995 8.88395C15.8776 8.77586 16.0569 8.75568 16.1859 8.76313C16.4037 8.77571 16.556 8.87 16.5933 8.89312L16.5941 8.89361C16.6974 8.95752 16.7739 9.03441 16.8017 9.06239C16.877 9.13833 16.9541 9.2313 17.0107 9.30171C17.0721 9.37809 17.1307 9.45485 17.1729 9.51101C17.1943 9.53946 17.2122 9.56347 17.2248 9.58059L17.2398 9.60095L17.244 9.60678L17.2459 9.60928C17.2459 9.60931 17.246 9.60942 16.9262 9.8421C16.9262 9.8421 16.9262 9.8421 16.9262 9.8421L17.2459 9.60928L17.2565 9.62393L17.2664 9.63888C17.301 9.69088 17.3655 9.73849 17.4511 9.75451C17.5401 9.77116 17.6301 9.74929 17.6938 9.70363L18.5605 9.08288C18.426 9.1795 18.3332 9.34265 18.3332 9.53022H19.9999C19.9999 9.89914 19.8178 10.2325 19.5314 10.4376M19.5314 10.4376L18.6644 11.0585C18.6644 11.0585 18.6644 11.0585 18.6644 11.0585C18.2251 11.3732 17.6726 11.4916 17.1447 11.3928C16.9746 11.3609 16.8102 11.3071 16.6558 11.2334C16.6418 11.3081 16.6287 11.3778 16.617 11.4403L16.5611 11.7392L16.5576 11.7576L16.5535 11.7756C16.4728 12.1226 16.4224 12.4826 16.3808 12.8146C16.2484 13.88 15.8534 14.8125 15.054 15.3734C14.4961 15.7643 13.9277 15.8333 13.5946 15.8333C13.502 15.8333 13.4229 15.8281 13.361 15.8217C12.6548 15.786 12.1711 15.3336 11.8905 14.7814C11.6488 14.3056 11.5166 13.6937 11.4534 13.002C10.9247 12.8346 10.4243 12.5926 10.0987 12.2134C9.84818 11.9216 9.40751 11.6239 9.1236 11.4524C8.70417 11.1988 8.35694 10.8387 8.12906 10.4035L8.11132 10.3696L7.70956 9.39398C7.53617 9.04636 7.46632 8.64135 7.51501 8.24549L8.34211 8.34721L7.51489 8.24645C7.64013 7.21826 8.16057 6.15771 8.46119 5.5451C8.46823 5.53075 8.47516 5.51664 8.48195 5.50279C8.72525 5.0068 9.21992 4.70092 9.754 4.67516L9.76112 4.67481C10.1908 4.65777 10.6202 4.82083 10.9238 5.14095C11.2337 4.59181 11.7336 4.15852 12.3435 3.92548L12.986 3.68005C12.9858 3.61571 12.9801 3.53223 12.9654 3.42917C12.9134 3.06479 12.7774 2.64925 12.6678 2.39886C12.5008 2.01671 12.5624 1.57802 12.8203 1.25701L13.4699 1.77896L12.8196 1.25794C12.8198 1.25763 12.8201 1.25732 12.8203 1.25701C13.0782 0.935762 13.4751 0.79738 13.8468 0.841336L13.855 0.842311L13.9506 0.854619C14.0564 0.86869 14.1623 0.897638 14.2643 0.942791L13.8487 1.88222M16.9251 9.8429C16.9251 9.8429 16.9251 9.8429 16.9251 9.8429C16.9002 9.86098 16.8735 9.88047 16.8446 9.90146L16.9251 9.8429ZM16.9332 9.81317C16.9332 9.81355 16.9319 9.81879 16.9295 9.82753C16.9319 9.81736 16.9332 9.81281 16.9332 9.81317Z" fill="#000"/>
<path fill-rule="evenodd" clip-rule="evenodd" d="M5.03708 11.7426C5.43998 11.6109 5.91089 11.6472 6.29343 11.8786C6.77269 12.1682 6.9641 12.6611 6.9641 13.1303V13.7523C6.9641 14.0338 7.03189 14.2079 7.12355 14.3311C7.22013 14.4608 7.3971 14.6057 7.73234 14.7311L9.19113 15.2769C9.63544 15.443 10.0412 15.6813 10.393 15.9883L10.6795 16.2384C10.6795 16.2384 10.6795 16.2384 10.6795 16.2384C11.5261 16.9772 11.8841 18.106 11.5332 19.1786L11.4518 19.4265L9.86826 18.9068L9.94915 18.6603C10.0758 18.2733 9.96705 17.8287 9.58363 17.4941L9.29708 17.244C9.10315 17.0747 8.87279 16.9372 8.60758 16.838L7.14843 16.2922C7.14842 16.2922 7.14844 16.2922 7.14843 16.2922C6.60229 16.0879 6.12444 15.7802 5.78656 15.3262C5.44377 14.8656 5.29744 14.3249 5.29744 13.7523V13.4343L2.02312 14.7715L1.39301 13.2285L5.00869 11.7519L5.03708 11.7426Z" fill="#000"/>
<path fill-rule="evenodd" clip-rule="evenodd" d="M7.39648 2.49263C7.46685 2.90444 7.50008 3.32226 7.49991 3.59278C7.49991 3.59263 7.49991 3.59293 7.49991 3.59278M7.49975 4.29172C7.49975 4.29165 7.49975 4.29178 7.49975 4.29172L7.49991 3.59278L7.49975 4.29172ZM7.49975 4.29172C7.49968 4.99835 7.15897 5.674 6.66561 6.1822L5.16311 7.72991C5.1631 7.72992 5.16312 7.7299 5.16311 7.72991C4.9901 7.90815 4.9261 8.17148 5.00753 8.42287C5.24669 9.16077 4.8944 9.98501 4.16021 10.2932L1.16601 11.5973L0.500488 10.0693L3.38554 8.81273C3.17437 8.01712 3.38809 7.16562 3.96723 6.56903L5.46976 5.02128C5.73747 4.74552 5.83308 4.46639 5.83308 4.29152L5.83325 3.59239C5.83337 3.42826 5.81025 3.10473 5.75363 2.77337C5.69151 2.40987 5.61264 2.18351 5.56848 2.11413L6.97447 1.21915C7.21272 1.59344 7.33157 2.11274 7.39648 2.49263M3.42207 8.93677C3.42203 8.93665 3.4221 8.93688 3.42207 8.93677V8.93677Z" fill="#000"/>
</g>
<defs>
<clipPath id="clip0_152_16">
<rect width="20" height="20" fill="white"/>
</clipPath>
</defs>
</svg>
