<svg width="24" height="24" viewBox="0 0 24 24" fill="none" xmlns="http://www.w3.org/2000/svg">
<g clip-path="url(#clip0_1020_22895)">
<path fill-rule="evenodd" clip-rule="evenodd" d="M11.9999 22C17.5227 22 21.9999 17.5228 21.9999 12C21.9999 6.47712 17.5227 1.99997 11.9999 1.99997C6.47703 1.99997 1.99988 6.47712 1.99988 12C1.99988 17.5228 6.47703 22 11.9999 22ZM11.9999 24C18.6273 24 23.9999 18.6274 23.9999 12C23.9999 5.37255 18.6273 -3.05176e-05 11.9999 -3.05176e-05C5.37246 -3.05176e-05 -0.00012207 5.37255 -0.00012207 12C-0.00012207 18.6274 5.37246 24 11.9999 24Z" fill="#000"/>
<path fill-rule="evenodd" clip-rule="evenodd" d="M16.9435 2.76109C16.9438 2.76072 16.9441 2.76034 16.9444 2.75997C17.0957 2.57083 17.1342 2.30699 17.0338 2.07721L16.6184 2.25866L16.5613 2.38782L16.4828 2.99907C16.6458 2.99074 16.818 2.91702 16.9435 2.76109ZM16.3726 2.98479C16.3511 2.97797 16.3295 2.96985 16.308 2.96033L16.4035 2.74442L16.3726 2.98479ZM16.3822 2.98773L16.4137 2.72128L16.5588 2.39334L16.4783 2.99929C16.4612 3.00003 16.4442 3.00006 16.4274 2.99939C16.4124 2.99612 16.3973 2.99225 16.3822 2.98773ZM16.6184 2.25866L17.0338 2.07721C17.2219 2.5068 17.4454 3.18041 17.5384 3.83237C17.5846 4.15566 17.6076 4.53327 17.545 4.89627C17.4839 5.25087 17.3113 5.74344 16.8308 6.05643L16.7414 6.11461L15.5261 6.57882C15.5261 6.57884 15.5262 6.57881 15.5261 6.57882C15.0621 6.75617 14.76 7.15205 14.7055 7.59117L14.7045 7.5987L14.6954 7.66774C14.5586 8.6182 13.694 8.81899 13.5607 8.84533C13.1468 8.92669 12.4484 8.85188 12.0421 8.2045L12.0355 8.19403L11.8119 7.81738C11.4624 8.54509 11.0944 9.3887 11.0032 10.1376L11.0031 10.1387C10.9915 10.2324 11.0123 10.3256 11.0444 10.3862L11.0669 10.4287L11.5452 11.5902C11.6421 11.7605 11.7898 11.9144 11.9822 12.0308C12.3419 12.248 13.1116 12.7426 13.6359 13.3532C13.6765 13.4005 13.8998 13.5743 14.5356 13.7514C15.1691 13.9282 15.6693 14.4817 15.717 15.1828C15.7747 16.0317 15.9098 16.5524 16.0517 16.8317C16.099 16.9249 16.1367 16.9702 16.1552 16.9891L16.1877 16.99L16.238 16.9965C16.2379 16.9965 16.2452 16.9974 16.2587 16.9983C16.2721 16.9992 16.2907 17 16.3136 17C16.4541 17 16.6892 16.9698 16.9166 16.8105C17.2352 16.5866 17.5511 16.1074 17.6724 15.13L17.6725 15.129C17.7232 14.7245 17.7926 14.2156 17.911 13.7002L17.9747 13.3597C18.0154 13.1424 18.0702 12.8516 18.1261 12.5579C18.1819 12.2646 18.2393 11.9664 18.2852 11.7351C18.308 11.62 18.3287 11.5179 18.3453 11.4401C18.3534 11.4018 18.3617 11.3642 18.3694 11.3318C18.3731 11.316 18.3781 11.2956 18.3839 11.2741C18.3838 11.2745 18.384 11.2739 18.3839 11.2741C18.3863 11.2649 18.4029 11.2027 18.4312 11.135C18.497 10.978 18.6226 10.7923 18.8394 10.6607C19.0532 10.531 19.2683 10.5068 19.4231 10.5158C19.6844 10.5309 19.8672 10.644 19.912 10.6717L19.913 10.6723C20.0369 10.749 20.1287 10.8413 20.162 10.8749C20.2524 10.966 20.3449 11.0776 20.4128 11.162C20.4865 11.2537 20.5569 11.3458 20.6076 11.4132C20.6332 11.4474 20.6546 11.4762 20.6698 11.4967L20.6877 11.5211L20.6929 11.5281L20.695 11.5311C20.6951 11.5312 20.6952 11.5313 20.3115 11.8105C20.3115 11.8105 20.3115 11.8105 20.3115 11.8105L20.695 11.5311L20.7078 11.5487L20.7197 11.5667C20.7612 11.6291 20.8386 11.6862 20.9414 11.7054C21.0481 11.7254 21.1561 11.6992 21.2326 11.6444L22.2726 10.8995C22.1112 11.0154 21.9999 11.2112 21.9999 11.4363H23.9999C23.9999 11.879 23.7813 12.279 23.4377 12.5251M23.4377 12.5251L22.3973 13.2702C22.3973 13.2702 22.3973 13.2702 22.3973 13.2702C21.8702 13.6478 21.2071 13.7899 20.5736 13.6713C20.3695 13.6331 20.1723 13.5686 19.987 13.4801C19.9702 13.5697 19.9544 13.6534 19.9404 13.7284L19.8733 14.087L19.8692 14.1091L19.8642 14.1307C19.7674 14.5471 19.7069 14.9791 19.657 15.3775C19.4981 16.656 19.0241 17.775 18.0648 18.448C17.3953 18.9171 16.7132 19 16.3136 19C16.2025 19 16.1076 18.9937 16.0333 18.986C15.1858 18.9433 14.6054 18.4003 14.2687 17.7377C13.9785 17.1667 13.82 16.4324 13.7441 15.6024C13.1096 15.4015 12.5092 15.1111 12.1185 14.6561C11.8178 14.3059 11.289 13.9486 10.9483 13.7429C10.445 13.4386 10.0284 13.0064 9.75489 12.4842L9.7336 12.4435L9.25149 11.2728C9.04343 10.8556 8.95961 10.3696 9.01803 9.89459L10.0106 10.0166L9.01789 9.89573C9.16818 8.66191 9.79271 7.38925 10.1535 6.65412C10.1619 6.63689 10.1702 6.61997 10.1784 6.60334C10.4703 6.00816 11.0639 5.64111 11.7048 5.61019L11.7134 5.60978C12.229 5.58932 12.7442 5.785 13.1086 6.16915C13.4805 5.51017 14.0804 4.99022 14.8122 4.71057L15.5833 4.41606C15.5829 4.33885 15.5762 4.23868 15.5585 4.115C15.4961 3.67774 15.3329 3.1791 15.2014 2.87863C15.001 2.42006 15.0749 1.89363 15.3844 1.50841L16.164 2.13475L15.3835 1.50953C15.3838 1.50915 15.3841 1.50878 15.3844 1.50841C15.6939 1.12292 16.1701 0.956856 16.6162 1.0096L16.6261 1.01077L16.7407 1.02554C16.8677 1.04243 16.9947 1.07717 17.1172 1.13135L16.6184 2.25866M20.3101 11.8115C20.3101 11.8115 20.3101 11.8115 20.3101 11.8115C20.2803 11.8332 20.2482 11.8566 20.2136 11.8818L20.3101 11.8115ZM20.3198 11.7758C20.3198 11.7763 20.3183 11.7826 20.3154 11.793C20.3183 11.7808 20.3198 11.7754 20.3198 11.7758Z" fill="#000"/>
<path fill-rule="evenodd" clip-rule="evenodd" d="M6.04445 14.0912C6.52794 13.9331 7.09303 13.9766 7.55208 14.2543C8.12719 14.6018 8.35689 15.1933 8.35689 15.7564V16.5028C8.35689 16.8406 8.43823 17.0495 8.54823 17.1973C8.66412 17.353 8.87648 17.5269 9.27877 17.6774L11.0293 18.3323C11.5625 18.5316 12.0494 18.8175 12.4716 19.1859L12.8154 19.486C12.8154 19.486 12.8154 19.486 12.8154 19.486C13.8313 20.3727 14.2609 21.7272 13.8398 23.0143L13.7421 23.3118L11.8419 22.6881L11.9389 22.3924C12.0909 21.928 11.9604 21.3944 11.5003 20.9929L11.1565 20.6928C10.9237 20.4896 10.6473 20.3246 10.3291 20.2057L8.57808 19.5506C8.57806 19.5506 8.57809 19.5506 8.57808 19.5506C7.92272 19.3055 7.34929 18.9362 6.94383 18.3914C6.53248 17.8387 6.35689 17.1898 6.35689 16.5028V16.1212L2.42771 17.7257L1.67157 15.8742L6.01039 14.1023L6.04445 14.0912Z" fill="#000"/>
<path fill-rule="evenodd" clip-rule="evenodd" d="M8.87575 2.99116C8.96019 3.48533 9.00007 3.98671 8.99987 4.31134C8.99987 4.31116 8.99987 4.31151 8.99987 4.31134M8.99967 5.15006C8.99967 5.14998 8.99967 5.15014 8.99967 5.15006L8.99987 4.31134L8.99967 5.15006ZM8.99967 5.15006C8.99959 5.99801 8.59073 6.8088 7.9987 7.41864L6.1957 9.27589C6.19569 9.2759 6.19571 9.27588 6.1957 9.27589C5.98809 9.48978 5.91129 9.80577 6.009 10.1074C6.296 10.9929 5.87326 11.982 4.99222 12.3519L1.39918 13.9168L0.600555 12.0832L4.06261 10.5753C3.80922 9.62055 4.06568 8.59875 4.76064 7.88283L6.56369 6.02554C6.88494 5.69462 6.99967 5.35967 6.99967 5.14982L6.99987 4.31086C7.00002 4.11391 6.97227 3.72568 6.90433 3.32804C6.82979 2.89184 6.73514 2.62021 6.68215 2.53695L8.36933 1.46299C8.65523 1.91213 8.79785 2.53528 8.87575 2.99116M4.10645 10.7241C4.10641 10.724 4.10649 10.7243 4.10645 10.7241V10.7241Z" fill="#000"/>
</g>
<defs>
<clipPath id="clip0_1020_22895">
<rect width="24" height="24" fill="white"/>
</clipPath>
</defs>
</svg>
