<svg width="24" height="24" viewBox="0 0 24 24" fill="none" xmlns="http://www.w3.org/2000/svg">
<path fill-rule="evenodd" clip-rule="evenodd" d="M12.6139 0.210648C12.2528 -0.0702159 11.7472 -0.0702159 11.3861 0.210648L2.38606 7.21065C2.14247 7.4001 2 7.69141 2 8V19C2 19.7957 2.31607 20.5587 2.87868 21.1213C3.44129 21.6839 4.20435 22 5 22H9H15H19C19.7957 22 20.5587 21.6839 21.1213 21.1213C21.6839 20.5587 22 19.7957 22 19V8C22 7.69141 21.8575 7.4001 21.6139 7.21065L12.6139 0.210648ZM16 20H19C19.2652 20 19.5196 19.8946 19.7071 19.7071C19.8946 19.5196 20 19.2652 20 19V8.48908L12 2.26686L4 8.48908V19C4 19.2652 4.10536 19.5196 4.29289 19.7071C4.48043 19.8946 4.73478 20 5 20H8V11C8 10.4477 8.44772 10 9 10H15C15.5523 10 16 10.4477 16 11V20ZM10 20V12H14V20H10Z" fill="#000"/>
</svg>
