<svg width="24" height="24" viewBox="0 0 24 24" fill="none" xmlns="http://www.w3.org/2000/svg">
<path fill-rule="evenodd" clip-rule="evenodd" d="M13.138 11.9927L17.4959 4.27163C17.5002 4.25758 17.5005 4.24653 17.4996 4.23768C17.4982 4.22482 17.4925 4.20111 17.4691 4.16946C17.445 4.13672 17.4018 4.09593 17.3332 4.06137C17.2655 4.02731 17.1818 4.00398 17.0895 3.99925C17.0764 3.99976 17.0632 4.00002 17.0499 4.00002H6.9386C6.84294 4.00093 6.75423 4.02208 6.68143 4.05593C6.60816 4.09 6.56112 4.13194 6.53445 4.16635C6.50865 4.19964 6.50216 4.22481 6.50057 4.23816C6.49949 4.24725 6.49967 4.25844 6.50389 4.27266L10.8619 11.9925C10.8806 12.0244 10.8975 12.0573 10.9125 12.0909C10.9719 12.2229 11.0003 12.3622 11.0002 12.5C11.0003 12.6382 10.9718 12.778 10.912 12.9104C10.8971 12.9435 10.8804 12.9759 10.862 13.0073L6.50408 20.7284C6.49982 20.7424 6.49951 20.7535 6.50044 20.7623C6.50179 20.7752 6.50754 20.7989 6.53088 20.8306C6.55501 20.8633 6.59818 20.9041 6.66683 20.9386C6.73452 20.9727 6.81824 20.996 6.9105 21.0008C6.92363 21.0002 6.93683 21 6.95009 21H17.0614C17.1571 20.9991 17.2458 20.9779 17.3186 20.9441C17.3919 20.91 17.4389 20.8681 17.4656 20.8337C17.4914 20.8004 17.4979 20.7752 17.4994 20.7619C17.5005 20.7528 17.5003 20.7416 17.4961 20.7274L13.1381 13.0075C13.1194 12.9756 13.1025 12.9427 13.0875 12.9091C13.0281 12.7771 12.9997 12.6378 12.9998 12.5C12.9997 12.3618 13.0283 12.222 13.088 12.0896C13.1029 12.0565 13.1196 12.0242 13.138 11.9927ZM8.8517 12.5L4.73465 5.20696C4.72224 5.18498 4.71067 5.16254 4.69996 5.13968C4.53409 4.7857 4.46786 4.39351 4.51465 4.00125C4.56137 3.60966 4.71721 3.24624 4.95363 2.9412C5.18918 2.63726 5.49626 2.40139 5.83813 2.24242C6.17987 2.0835 6.55386 2.00231 6.92882 2.00004L6.93488 2V2.00002H17.0499C17.0631 2.00002 17.0761 2.00027 17.0891 2.00077C17.1171 1.99968 17.1454 1.99974 17.1739 2.00101C17.5402 2.01731 17.9028 2.10906 18.2323 2.27487C18.5619 2.44076 18.8557 2.67975 19.0791 2.98279C19.3032 3.2869 19.4483 3.64522 19.4886 4.02872C19.529 4.41276 19.4613 4.79539 19.2986 5.14109C19.2881 5.16343 19.2768 5.18538 19.2646 5.20689L15.1483 12.5L19.2654 19.7931C19.2778 19.815 19.2894 19.8375 19.3001 19.8603C19.4659 20.2143 19.5322 20.6065 19.4854 20.9988C19.4387 21.3904 19.2828 21.7538 19.0464 22.0588C18.8108 22.3627 18.5038 22.5986 18.1619 22.7576C17.8201 22.9165 17.4462 22.9977 17.0712 23L17.0651 23L6.95009 23C6.93696 23 6.92389 22.9997 6.91089 22.9992C6.8829 23.0003 6.85464 23.0003 6.82615 22.999C6.45984 22.9827 6.09718 22.8909 5.76772 22.7251C5.43811 22.5592 5.14433 22.3203 4.92096 22.0172C4.6968 21.7131 4.55168 21.3548 4.51139 20.9713C4.47104 20.5872 4.53874 20.2046 4.70138 19.8589C4.7119 19.8366 4.72323 19.8146 4.73537 19.7931L8.8517 12.5Z" fill="#000"/>
</svg>
