<svg width="24" height="24" viewBox="0 0 24 24" fill="none" xmlns="http://www.w3.org/2000/svg">
<g clip-path="url(#clip0_731_1551)">
<path fill-rule="evenodd" clip-rule="evenodd" d="M3.51515 4.2222C2.53903 4.2222 2.18182 4.82766 2.18182 5.08638V18.9134C2.18182 19.1721 2.53903 19.7776 3.51515 19.7776H5.00325L15.5924 8.99247C16.0184 8.55856 16.7091 8.55856 17.1352 8.99247L21.8182 13.7622V5.08638C21.8182 4.82766 21.461 4.2222 20.4848 4.2222H3.51515ZM24 16.4273V5.08638C24 3.16327 22.1865 2 20.4848 2H3.51515C1.81353 2 0 3.16327 0 5.08638V18.9134C0 20.8365 1.81353 21.9998 3.51515 21.9998H5.42345C5.44426 22.0004 5.46509 22.0004 5.48591 21.9998H20.4848C22.1865 21.9998 24 20.8365 24 18.9134V16.4622C24.0002 16.4505 24.0002 16.4389 24 16.4273ZM21.8182 16.9048L16.3638 11.3495L8.08881 19.7776H20.4848C21.461 19.7776 21.8182 19.1721 21.8182 18.9134V16.9048ZM7.6365 7.55522C7.034 7.55522 6.54559 8.05267 6.54559 8.66632C6.54559 9.27996 7.034 9.77741 7.6365 9.77741C8.23899 9.77741 8.72741 9.27996 8.72741 8.66632C8.72741 8.05267 8.23899 7.55522 7.6365 7.55522ZM4.36377 8.66632C4.36377 6.82539 5.82902 5.33302 7.6365 5.33302C9.44397 5.33302 10.9092 6.82539 10.9092 8.66632C10.9092 10.5072 9.44397 11.9996 7.6365 11.9996C5.82902 11.9996 4.36377 10.5072 4.36377 8.66632Z" fill="#000"/>
</g>
<defs>
<clipPath id="clip0_731_1551">
<rect width="24" height="24" fill="white"/>
</clipPath>
</defs>
</svg>
