<svg width="22" height="22" viewBox="0 0 22 22" fill="none" xmlns="http://www.w3.org/2000/svg">
<path d="M0 11C0 4.92487 4.92487 0 11 0C17.0751 0 22 4.92487 22 11C22 17.0751 17.0751 22 11 22C4.92487 22 0 17.0751 0 11Z" fill="#EAF7E4"/>
<g clip-path="url(#clip0_1834_1635)">
<path fill-rule="evenodd" clip-rule="evenodd" d="M6.05051 6.46291C5.4811 6.46291 5.27273 6.81609 5.27273 6.96702V15.0328C5.27273 15.1837 5.4811 15.5369 6.05051 15.5369H6.91856L13.0956 9.24557C13.3441 8.99245 13.747 8.99245 13.9955 9.24557L16.7273 12.0279V6.96702C16.7273 6.81609 16.5189 6.46291 15.9495 6.46291H6.05051ZM18 13.5825V6.96702C18 5.8452 16.9421 5.16663 15.9495 5.16663H6.05051C5.05789 5.16663 4 5.8452 4 6.96702V15.0328C4 16.1546 5.05789 16.8332 6.05051 16.8332H7.16369C7.17582 16.8335 7.18797 16.8335 7.2001 16.8332H15.9495C16.9421 16.8332 18 16.1546 18 15.0328V13.6029C18.0001 13.5961 18.0001 13.5893 18 13.5825ZM16.7273 13.8611L13.5455 10.6205L8.71847 15.5369H15.9495C16.5189 15.5369 16.7273 15.1837 16.7273 15.0328V13.8611ZM8.45462 8.40717C8.10317 8.40717 7.81826 8.69735 7.81826 9.05531C7.81826 9.41327 8.10317 9.70345 8.45462 9.70345C8.80608 9.70345 9.09099 9.41327 9.09099 9.05531C9.09099 8.69735 8.80608 8.40717 8.45462 8.40717ZM6.54553 9.05531C6.54553 7.98144 7.40026 7.11089 8.45462 7.11089C9.50899 7.11089 10.3637 7.98144 10.3637 9.05531C10.3637 10.1292 9.50899 10.9997 8.45462 10.9997C7.40026 10.9997 6.54553 10.1292 6.54553 9.05531Z" fill="#5AC235"/>
</g>
<defs>
<clipPath id="clip0_1834_1635">
<rect width="14" height="14" fill="white" transform="translate(4 4)"/>
</clipPath>
</defs>
</svg>
