<svg width="24" height="24" viewBox="0 0 24 24" fill="none" xmlns="http://www.w3.org/2000/svg">
<path fill-rule="evenodd" clip-rule="evenodd" d="M16.76 4H7.24C6.68187 4.00028 6.13437 4.1476 5.66004 4.4254C5.18617 4.70292 4.80358 5.09967 4.5552 5.57112L4.55447 5.5725L1.64191 11.066C1.2665 11.21 1 11.5739 1 12C1 12.0891 1.01164 12.1754 1.0335 12.2576C1.01133 12.3364 1 12.4179 1 12.5V18.1667C1 18.9181 1.31607 19.6388 1.87868 20.1701C2.44129 20.7015 3.20435 21 4 21H20C20.7957 21 21.5587 20.7015 22.1213 20.1701C22.6839 19.6388 23 18.9181 23 18.1667V12.5C23 12.4179 22.9887 12.3364 22.9665 12.2576C22.9884 12.1754 23 12.0891 23 12C23 11.5739 22.7335 11.21 22.3581 11.066L19.4455 5.5725L19.4449 5.57125C19.1965 5.09975 18.8139 4.70295 18.34 4.4254C17.8656 4.1476 17.3181 4.00028 16.76 4ZM20.0864 11L17.6558 6.41564L17.6545 6.41306C17.5717 6.2557 17.4441 6.12329 17.2859 6.03069C17.1279 5.93812 16.9456 5.88902 16.7597 5.88889H7.24034C7.05436 5.88902 6.87211 5.93812 6.71405 6.03069C6.55594 6.12329 6.42832 6.25571 6.34553 6.41306L5.45 5.99278L6.34417 6.41564L3.91363 11H8C8.33435 11 8.64658 11.1671 8.83205 11.4453L10.5352 14H13.4648L15.1679 11.4453C15.3534 11.1671 15.6656 11 16 11H20.0864ZM3 13V18.1667C3 18.4171 3.10536 18.6574 3.29289 18.8345C3.48043 19.0116 3.73478 19.1111 4 19.1111H20C20.2652 19.1111 20.5196 19.0116 20.7071 18.8345C20.8946 18.6574 21 18.4171 21 18.1667V13H16.5352L14.8321 15.5547C14.6466 15.8329 14.3344 16 14 16H10C9.66565 16 9.35342 15.8329 9.16795 15.5547L7.46482 13H3Z" fill="#000"/>
</svg>
