<svg width="24" height="24" viewBox="0 0 24 24" fill="none" xmlns="http://www.w3.org/2000/svg">
<path fill-rule="evenodd" clip-rule="evenodd" d="M12 3C7.02944 3 3 7.02944 3 12C3 16.9706 7.02944 21 12 21C16.9706 21 21 16.9706 21 12C21 7.02944 16.9706 3 12 3ZM1 12C1 5.92487 5.92487 1 12 1C18.0751 1 23 5.92487 23 12C23 18.0751 18.0751 23 12 23C5.92487 23 1 18.0751 1 12Z" fill="#000"/>
<path fill-rule="evenodd" clip-rule="evenodd" d="M12.0098 17C11.4575 17 11.0098 16.5523 11.0098 16L11.0098 11C11.0098 10.4477 11.4575 10 12.0098 10C12.562 10 13.0098 10.4477 13.0098 11L13.0098 16C13.0098 16.5523 12.5621 17 12.0098 17Z" fill="#000"/>
<path fill-rule="evenodd" clip-rule="evenodd" d="M13.0098 7.5C13.0098 8.05228 12.5621 8.5 12.0098 8.5L11.9998 8.5C11.4475 8.5 10.9998 8.05228 10.9998 7.5C10.9998 6.94772 11.4475 6.5 11.9998 6.5L12.0098 6.5C12.5621 6.5 13.0098 6.94772 13.0098 7.5Z" fill="#000"/>
</svg>
