<svg width="24" height="24" viewBox="0 0 24 24" fill="none" xmlns="http://www.w3.org/2000/svg">
<path fill-rule="evenodd" clip-rule="evenodd" d="M3.2 4C2.52281 4 2 4.53667 2 5.16667V13.8333C2 14.4633 2.52281 15 3.2 15H20.8C21.4772 15 22 14.4633 22 13.8333V5.16667C22 4.53667 21.4772 4 20.8 4H3.2ZM0 5.16667C0 3.40343 1.44714 2 3.2 2H20.8C22.5529 2 24 3.40343 24 5.16667V13.8333C24 15.5966 22.5529 17 20.8 17H3.2C1.44714 17 0 15.5966 0 13.8333V5.16667Z" fill="#000"/>
<path fill-rule="evenodd" clip-rule="evenodd" d="M6 11C6.55228 11 7 11.4477 7 12V12.01C7 12.5623 6.55228 13.01 6 13.01C5.44772 13.01 5 12.5623 5 12.01V12C5 11.4477 5.44772 11 6 11Z" fill="#000"/>
<path fill-rule="evenodd" clip-rule="evenodd" d="M18 11C18.5523 11 19 11.4477 19 12V12.01C19 12.5623 18.5523 13.01 18 13.01C17.4477 13.01 17 12.5623 17 12.01V12C17 11.4477 17.4477 11 18 11Z" fill="#000"/>
<path fill-rule="evenodd" clip-rule="evenodd" d="M9 12C9 11.4477 9.44772 11 10 11H14C14.5523 11 15 11.4477 15 12C15 12.5523 14.5523 13 14 13H10C9.44772 13 9 12.5523 9 12Z" fill="#000"/>
<path fill-rule="evenodd" clip-rule="evenodd" d="M8.29289 19.2929C8.68342 18.9024 9.31658 18.9024 9.70711 19.2929L12 21.5858L14.2929 19.2929C14.6834 18.9024 15.3166 18.9024 15.7071 19.2929C16.0976 19.6834 16.0976 20.3166 15.7071 20.7071L12.7071 23.7071C12.3166 24.0976 11.6834 24.0976 11.2929 23.7071L8.29289 20.7071C7.90237 20.3166 7.90237 19.6834 8.29289 19.2929Z" fill="#000"/>
</svg>
