<svg width="32" height="32" viewBox="0 0 32 32" fill="none" xmlns="http://www.w3.org/2000/svg">
<g id="leave">
<path id="Union" fill-rule="evenodd" clip-rule="evenodd" d="M1.78244 0.335285C2.01775 0.126669 2.32738 0 2.66659 0C2.66665 0 2.66671 0 2.66677 0H19.9999C20.7363 0 21.3333 0.596954 21.3333 1.33333V9.33333C21.3333 10.0697 20.7363 10.6667 19.9999 10.6667C19.2635 10.6667 18.6666 10.0697 18.6666 9.33333V2.66667H9.16247L12.5251 4.10781C13.0154 4.31792 13.3333 4.79997 13.3333 5.33334V24H18.6666V17.3333C18.6666 16.597 19.2635 16 19.9999 16C20.7363 16 21.3333 16.597 21.3333 17.3333V25.3333C21.3333 26.0697 20.7363 26.6667 19.9999 26.6667H13.3333V29.3333C13.3333 29.7815 13.1081 30.1997 12.7339 30.4465C12.3597 30.6932 11.8866 30.7354 11.4747 30.5589L2.1694 26.5709C2.05531 26.525 1.94903 26.4638 1.8531 26.3898C1.78098 26.3343 1.71515 26.2718 1.65639 26.2036C1.45501 25.97 1.33325 25.6659 1.33325 25.3333V1.33334M3.99992 24.4541L10.6666 27.3113V25.3333V6.21253L3.99992 3.35539V24.4541ZM1.33325 1.33333C1.33325 0.936161 1.50691 0.579549 1.78244 0.335285L1.33325 1.33333Z" fill="#000"/>
<path id="Vector (Stroke)" fill-rule="evenodd" clip-rule="evenodd" d="M14.6667 13.3333C14.6667 12.597 15.2637 12 16.0001 12L30.6667 12C31.4031 12 32.0001 12.597 32.0001 13.3333C32.0001 14.0697 31.4031 14.6667 30.6667 14.6667L16.0001 14.6667C15.2637 14.6667 14.6667 14.0697 14.6667 13.3333Z" fill="#000"/>
<path id="Vector (Stroke)_2" fill-rule="evenodd" clip-rule="evenodd" d="M24.3905 7.05715C24.9112 6.53645 25.7554 6.53645 26.2761 7.05715L31.6095 12.3905C32.1302 12.9112 32.1302 13.7554 31.6095 14.2761L26.2761 19.6094C25.7554 20.1301 24.9112 20.1301 24.3905 19.6094C23.8698 19.0887 23.8698 18.2445 24.3905 17.7238L28.781 13.3333L24.3905 8.94277C23.8698 8.42207 23.8698 7.57785 24.3905 7.05715Z" fill="#000"/>
</g>
</svg>
