<svg width="24" height="24" viewBox="0 0 24 24" fill="none" xmlns="http://www.w3.org/2000/svg">
<path fill-rule="evenodd" clip-rule="evenodd" d="M6.5 3C6.76795 3 7.02468 3.10753 7.21265 3.29848L11.7127 7.86991C12.1001 8.2635 12.0951 8.89664 11.7015 9.28408C11.3079 9.67152 10.6748 9.66653 10.2873 9.27295L7.5 6.44135L7.5 20C7.5 20.5523 7.05228 21 6.5 21C5.94772 21 5.5 20.5523 5.5 20L5.5 6.44135L2.71265 9.27295C2.32522 9.66653 1.69207 9.67152 1.29848 9.28408C0.904896 8.89664 0.89991 8.2635 1.28735 7.86991L5.78735 3.29848C5.97532 3.10753 6.23205 3 6.5 3Z" fill="#000"/>
<path fill-rule="evenodd" clip-rule="evenodd" d="M17.5 3C18.0523 3 18.5 3.44772 18.5 4L18.5 17.5586L21.2873 14.7271C21.6748 14.3335 22.3079 14.3285 22.7015 14.7159C23.0951 15.1034 23.1001 15.7365 22.7127 16.1301L18.2127 20.7015C18.0247 20.8925 17.7679 21 17.5 21C17.2321 21 16.9753 20.8925 16.7873 20.7015L12.2873 16.1301C11.8999 15.7365 11.9049 15.1034 12.2985 14.7159C12.6921 14.3285 13.3252 14.3335 13.7127 14.7271L16.5 17.5586L16.5 4C16.5 3.44772 16.9477 3 17.5 3Z" fill="#000"/>
</svg>
