<svg width="24" height="24" viewBox="0 0 24 24" fill="none" xmlns="http://www.w3.org/2000/svg">
<path fill-rule="evenodd" clip-rule="evenodd" d="M16.6717 5.55832C15.2244 4.50973 13.4666 3.9786 11.6814 4.05047C9.89619 4.12234 8.18757 4.79303 6.83072 5.95452C5.47388 7.116 4.5478 8.70066 4.20165 10.4533C3.85549 12.2058 4.10942 14.0243 4.92254 15.6158C5.73565 17.2073 7.0606 18.4792 8.68399 19.2265C10.3074 19.9739 12.1347 20.1532 13.8716 19.7356C15.6085 19.3181 17.1539 18.3279 18.2589 16.9246C19.3639 15.5214 19.9641 13.7867 19.9628 12C19.9625 11.4356 20.4197 10.978 20.9842 10.978C21.5486 10.978 22.0065 11.4356 22.0069 12C22.0084 14.2457 21.254 16.4261 19.8651 18.1898C18.4763 19.9536 16.5339 21.1982 14.3507 21.723C12.1675 22.2479 9.87075 22.0225 7.83028 21.0832C5.78982 20.1438 4.12446 18.5452 3.10245 16.5448C2.08043 14.5444 1.76126 12.2587 2.19635 10.0559C2.63143 7.853 3.79544 5.86122 5.50088 4.40133C7.20632 2.94144 9.35392 2.09843 11.5978 2.0081C13.8416 1.91776 16.051 2.58535 17.8702 3.90334C18.3275 4.23461 18.4298 4.87363 18.0989 5.33064C17.7679 5.78765 17.129 5.88959 16.6717 5.55832Z" fill="#4A4A4A"/>
</svg>
