<svg width="40" height="40" viewBox="0 0 40 40" fill="none" xmlns="http://www.w3.org/2000/svg">
<path fill-rule="evenodd" clip-rule="evenodd" d="M3 22C3 19.2386 5.23858 17 8 17H31.3333C34.0948 17 36.3333 19.2386 36.3333 22V33.6667C36.3333 36.4281 34.0948 38.6667 31.3333 38.6667H8C5.23858 38.6667 3 36.4281 3 33.6667V22Z" />
<path fill-rule="evenodd" clip-rule="evenodd" d="M20 5.00002C18.2319 5.00002 16.5362 5.7024 15.286 6.95264C14.0357 8.20288 13.3333 9.89858 13.3333 11.6667V18.3334C13.3333 19.2538 12.5871 20 11.6667 20C10.7462 20 10 19.2538 10 18.3334V11.6667C10 9.01452 11.0536 6.47098 12.9289 4.59562C14.8043 2.72026 17.3478 1.66669 20 1.66669C22.6522 1.66669 25.1957 2.72026 27.0711 4.59562C28.9464 6.47098 30 9.01452 30 11.6667V18.3334C30 19.2538 29.2538 20 28.3333 20C27.4129 20 26.6667 19.2538 26.6667 18.3334V11.6667C26.6667 9.89858 25.9643 8.20288 24.714 6.95264C23.4638 5.7024 21.7681 5.00002 20 5.00002Z" fill="#FFC696"/>
<path fill-rule="evenodd" clip-rule="evenodd" d="M7.99999 20.3333C7.07952 20.3333 6.33333 21.0795 6.33333 22V33.6667C6.33333 34.5871 7.07952 35.3333 7.99999 35.3333H31.3333C32.2538 35.3333 33 34.5871 33 33.6667V22C33 21.0795 32.2538 20.3333 31.3333 20.3333H7.99999ZM2.99999 22C2.99999 19.2386 5.23857 17 7.99999 17H31.3333C34.0948 17 36.3333 19.2386 36.3333 22V33.6667C36.3333 36.4281 34.0948 38.6667 31.3333 38.6667H7.99999C5.23857 38.6667 2.99999 36.4281 2.99999 33.6667V22Z" fill="#FFC696"/>
<path fill-rule="evenodd" clip-rule="evenodd" d="M21.5 28.0987C22.3967 27.5799 23 26.6104 23 25.5C23 23.8431 21.6569 22.5 20 22.5C18.3431 22.5 17 23.8431 17 25.5C17 26.6104 17.6033 27.5799 18.5 28.0987V33H21.5V28.0987Z" fill="#AADAED"/>
</svg>
