<svg width="21" height="20" viewBox="0 0 21 20" fill="none" xmlns="http://www.w3.org/2000/svg">
<path fill-rule="evenodd" clip-rule="evenodd" d="M4.66667 2.91665C4.66667 2.68653 4.85321 2.49998 5.08333 2.49998H11.3333C11.7936 2.49998 12.1667 2.12688 12.1667 1.66665C12.1667 1.20641 11.7936 0.833313 11.3333 0.833313H5.08333C3.93274 0.833313 3 1.76605 3 2.91665V17.0833C3 18.2339 3.93274 19.1666 5.08333 19.1666H11.3333C11.7936 19.1666 12.1667 18.7935 12.1667 18.3333C12.1667 17.8731 11.7936 17.5 11.3333 17.5H5.08333C4.85321 17.5 4.66667 17.3134 4.66667 17.0833V2.91665ZM15.2559 6.07739C14.9305 5.75195 14.4028 5.75195 14.0774 6.07739C13.752 6.40283 13.752 6.93047 14.0774 7.2559L16.8215 9.99998L14.0774 12.7441C13.752 13.0695 13.752 13.5971 14.0774 13.9226C14.4028 14.248 14.9305 14.248 15.2559 13.9226L18.5893 10.5892C18.9147 10.2638 18.9147 9.73616 18.5893 9.41072L15.2559 6.07739Z" fill="#000"/>
<path fill-rule="evenodd" clip-rule="evenodd" d="M7.16669 10C7.16669 9.53978 7.53978 9.16669 8.00002 9.16669L18 9.16669C18.4603 9.16669 18.8334 9.53978 18.8334 10C18.8334 10.4603 18.4603 10.8334 18 10.8334L8.00002 10.8334C7.53978 10.8334 7.16669 10.4603 7.16669 10Z" fill="#000"/>
</svg>
