<svg width="24" height="24" viewBox="0 0 24 24" fill="none" xmlns="http://www.w3.org/2000/svg">
<g clip-path="url(#clip0_499_18322)">
<path fill-rule="evenodd" clip-rule="evenodd" d="M11.5339 2.39925C11.8263 2.23681 12.1737 2.23681 12.4661 2.39925C13.7991 3.1397 16.2965 4.54562 18.4564 5.86536C19.5393 6.52701 20.5187 7.15572 21.2203 7.66228C21.5746 7.91806 21.8318 8.12408 21.9914 8.27468L22 8.28287V8.49985C21.8246 8.49968 21.6469 8.54568 21.4855 8.64251L12.5145 14.0251C12.1978 14.2151 11.8022 14.2151 11.4855 14.0251L2.51449 8.64251C2.35312 8.54568 2.17541 8.49968 2 8.49985V8.28287L2.00864 8.27468C2.16816 8.12408 2.42544 7.91806 2.77969 7.66228C3.48128 7.15572 4.46069 6.52701 5.54355 5.86536C7.70347 4.54562 10.2009 3.1397 11.5339 2.39925ZM2 10.6662L2 19.2852L1 19.2857L0 19.2856L0 7.99996C0 7.61908 0.191165 7.33645 0.272117 7.22408C0.379165 7.07549 0.51031 6.93874 0.635701 6.82036C0.890011 6.58028 1.22989 6.31444 1.60892 6.04077C2.37389 5.48845 3.40557 4.82791 4.50078 4.15872C6.69701 2.8168 9.22367 1.39471 10.5626 0.6509C11.4591 0.152926 12.5409 0.152927 13.4374 0.650901C14.7763 1.39471 17.303 2.8168 19.4992 4.15872C20.5944 4.82791 21.6261 5.48845 22.3911 6.04077C22.7701 6.31444 23.11 6.58028 23.3643 6.82036C23.4897 6.93874 23.6208 7.07549 23.7279 7.22408C23.8088 7.33645 24 7.61908 24 7.99996L24 19.2852L23 19.2857L22 19.2856L22 10.6662L13.5435 15.7401C12.5934 16.3101 11.4066 16.3101 10.4565 15.7401L2 10.6662ZM22 19.2856C22 19.2856 22 19.2857 23 19.2857C24 19.2857 24 19.2853 24 19.2852C24 20.1778 23.5213 20.9147 22.889 21.3951C22.2574 21.875 21.4291 22.1428 20.5556 22.1428L3.44444 22.1428C2.57094 22.1428 1.74263 21.875 1.11101 21.3951C0.478657 20.9147 0 20.1782 0 19.2856C0 19.2856 0 19.2857 1 19.2857C2 19.2857 2 19.2853 2 19.2852C2 19.4183 2.06855 19.6109 2.32091 19.8026C2.57401 19.9949 2.96792 20.1428 3.44444 20.1428L20.5556 20.1428C21.0321 20.1428 21.426 19.9949 21.6791 19.8026C21.9314 19.6109 22 19.4186 22 19.2856Z" fill="#000"/>
</g>
<defs>
<clipPath id="clip0_499_18322">
<rect width="24" height="24" fill="white"/>
</clipPath>
</defs>
</svg>
