<svg width="20" height="20" viewBox="0 0 20 20" fill="none" xmlns="http://www.w3.org/2000/svg">
<path fill-rule="evenodd" clip-rule="evenodd" d="M11.635 2.55624C12.7457 1.88188 14.1666 2.68149 14.1666 3.98088V15.1858C14.1666 16.4852 12.7457 17.2848 11.635 16.6105L8.4732 14.6908C8.40146 15.1347 8.2304 15.5699 7.95403 15.9622C6.98123 17.343 5.07329 17.6737 3.69253 16.7009C2.72574 16.0198 2.275 14.8812 2.42328 13.7876C1.49256 13.4237 0.833313 12.518 0.833313 11.4584V7.70836C0.833313 6.32765 1.9526 5.20836 3.33331 5.20836H7.03364C7.18616 5.20836 7.33575 5.1665 7.46612 5.08735L11.635 2.55624ZM4.08308 13.9584H6.82426C6.88688 14.3119 6.81384 14.6868 6.59155 15.0023C6.1489 15.6306 5.28073 15.7811 4.65245 15.3384C4.19809 15.0183 3.99226 14.4745 4.08308 13.9584ZM12.5 3.98088L8.33108 6.512C7.93997 6.74946 7.49119 6.87503 7.03364 6.87503H3.33331C2.87308 6.87503 2.49998 7.24812 2.49998 7.70836V11.4584C2.49998 11.9186 2.87308 12.2917 3.33331 12.2917H7.03364C7.49119 12.2917 7.93997 12.4173 8.33108 12.6547L12.5 15.1858L12.5 3.98088ZM17.5455 6.52681C17.9285 6.27151 18.032 5.75412 17.7767 5.37118C17.5214 4.98824 17.004 4.88476 16.621 5.14006L15.371 5.97339C14.9881 6.22868 14.8846 6.74607 15.1399 7.12902C15.3952 7.51196 15.9126 7.61543 16.2956 7.36014L17.5455 6.52681ZM15.1399 12.8712C15.3952 12.4882 15.9126 12.3848 16.2956 12.6401L17.5455 13.4734C17.9285 13.7287 18.032 14.2461 17.7767 14.629C17.5214 15.012 17.004 15.1154 16.621 14.8601L15.371 14.0268C14.9881 13.7715 14.8846 13.2541 15.1399 12.8712ZM16.25 9.16668C15.7897 9.16668 15.4166 9.53977 15.4166 10C15.4166 10.4602 15.7897 10.8333 16.25 10.8333H17.9166C18.3769 10.8333 18.75 10.4602 18.75 10C18.75 9.53977 18.3769 9.16668 17.9166 9.16668H16.25Z" fill="#000"/>
</svg>
