<svg width="18" height="18" viewBox="0 0 18 18" fill="none" xmlns="http://www.w3.org/2000/svg">
<path fill-rule="evenodd" clip-rule="evenodd" d="M13.8503 9.84624C13.9745 9.48744 14.366 9.29726 14.7248 9.42147C15.5001 9.68984 16.1419 10.2785 16.5811 11.038C17.0204 11.7979 17.2494 12.7121 17.2499 13.6379V15.4818C17.2499 15.8615 16.9421 16.1693 16.5624 16.1693C16.1827 16.1693 15.8749 15.8615 15.8749 15.4818V13.6387C15.8745 12.9307 15.6979 12.2575 15.3907 11.7263C15.0832 11.1945 14.6797 10.8609 14.275 10.7208C13.9162 10.5966 13.7261 10.205 13.8503 9.84624Z" fill="#000"/>
<path fill-rule="evenodd" clip-rule="evenodd" d="M11.1909 1.99593C11.2048 1.61649 11.5237 1.32019 11.9032 1.33412C12.6856 1.36286 13.4362 1.65119 14.0367 2.15366C14.6372 2.65613 15.0533 3.34416 15.2196 4.10927C15.3858 4.87439 15.2927 5.67307 14.9548 6.37941C14.617 7.08575 14.0537 7.65956 13.3537 8.01038C13.0143 8.18051 12.6012 8.04325 12.4311 7.7038C12.2609 7.36435 12.3982 6.95126 12.7376 6.78113C13.1647 6.56711 13.5083 6.21705 13.7144 5.78614C13.9205 5.35523 13.9773 4.86798 13.8759 4.40121C13.7745 3.93444 13.5206 3.5147 13.1543 3.20816C12.788 2.90163 12.33 2.72573 11.8527 2.7082C11.4733 2.69426 11.177 2.37537 11.1909 1.99593Z" fill="#000"/>
<path fill-rule="evenodd" clip-rule="evenodd" d="M1.785 11.8336C2.45585 11.097 3.38025 10.6693 4.35937 10.6693H10.2031C11.1822 10.6693 12.1066 11.097 12.7775 11.8336C13.4464 12.5681 13.8125 13.5516 13.8125 14.5652V16.1693C13.8125 16.549 13.5047 16.8568 13.125 16.8568C12.7453 16.8568 12.4375 16.549 12.4375 16.1693V14.5652C12.4375 13.8769 12.1879 13.2283 11.7609 12.7595C11.3358 12.2927 10.7739 12.0443 10.2031 12.0443H4.35937C3.78863 12.0443 3.22665 12.2927 2.80159 12.7595C2.37458 13.2283 2.125 13.8769 2.125 14.5652V16.1693C2.125 16.549 1.81719 16.8568 1.4375 16.8568C1.0578 16.8568 0.75 16.549 0.75 16.1693V14.5652C0.75 13.5516 1.1161 12.5681 1.785 11.8336Z" fill="#000"/>
<path fill-rule="evenodd" clip-rule="evenodd" d="M7.28124 3.10684C5.95231 3.10684 4.875 4.18415 4.875 5.51309C4.875 6.84202 5.95231 7.91933 7.28124 7.91933C8.61018 7.91933 9.68749 6.84202 9.68749 5.51309C9.68749 4.18415 8.61018 3.10684 7.28124 3.10684ZM3.5 5.51309C3.5 3.42476 5.19292 1.73184 7.28124 1.73184C9.36957 1.73184 11.0625 3.42476 11.0625 5.51309C11.0625 7.60141 9.36957 9.29433 7.28124 9.29433C5.19292 9.29433 3.5 7.60141 3.5 5.51309Z" fill="#000"/>
</svg>
