<svg width="24" height="24" viewBox="0 0 24 24" fill="none" xmlns="http://www.w3.org/2000/svg">
<path fill-rule="evenodd" clip-rule="evenodd" d="M4.3 5C4.00826 5 3.72847 5.10535 3.52218 5.29289C3.31589 5.48043 3.2 5.73478 3.2 6V20.5858L5.72218 18.2929C5.92847 18.1053 6.20826 18 6.5 18H19.7C19.9917 18 20.2715 17.8946 20.4778 17.7071C20.6841 17.5195 20.8 17.2652 20.8 17V6C20.8 5.73478 20.6841 5.48043 20.4778 5.29289C20.2715 5.10535 19.9917 5 19.7 5H4.3ZM1.96655 3.87868C2.58542 3.31607 3.42479 3 4.3 3H19.7C20.5752 3 21.4146 3.31607 22.0335 3.87868C22.6523 4.44129 23 5.20435 23 6V17C23 17.7956 22.6523 18.5587 22.0335 19.1213C21.4146 19.6839 20.5752 20 19.7 20H6.95563L2.87782 23.7071C2.56322 23.9931 2.09009 24.0786 1.67905 23.9239C1.26801 23.7691 1 23.4044 1 23V6C1 5.20435 1.34768 4.44129 1.96655 3.87868Z" fill="#000"/>
<path fill-rule="evenodd" clip-rule="evenodd" d="M7 9C7 8.44772 7.44772 8 8 8H16C16.5523 8 17 8.44772 17 9C17 9.55228 16.5523 10 16 10H8C7.44772 10 7 9.55228 7 9Z" fill="#000"/>
<path fill-rule="evenodd" clip-rule="evenodd" d="M7 14C7 13.4477 7.44772 13 8 13H14C14.5523 13 15 13.4477 15 14C15 14.5523 14.5523 15 14 15H8C7.44772 15 7 14.5523 7 14Z" fill="#000"/>
</svg>
