<svg width="22" height="22" viewBox="0 0 22 22" fill="none" xmlns="http://www.w3.org/2000/svg">
<path d="M0 11C0 4.92487 4.92487 0 11 0C17.0751 0 22 4.92487 22 11C22 17.0751 17.0751 22 11 22C4.92487 22 0 17.0751 0 11Z" fill="#FFECEE"/>
<path fill-rule="evenodd" clip-rule="evenodd" d="M11 4.29163C10.3897 4.29163 9.79923 4.5228 9.35979 4.94227C8.91942 5.36262 8.66667 5.93868 8.66667 6.54541V11C8.66667 11.6067 8.91942 12.1828 9.35979 12.6031C9.79923 13.0226 10.3897 13.2537 11 13.2537C11.6103 13.2537 12.2008 13.0226 12.6402 12.6031C13.0806 12.1828 13.3333 11.6067 13.3333 11V6.54541C13.3333 5.93868 13.0806 5.36262 12.6402 4.94227C12.2008 4.5228 11.6103 4.29163 11 4.29163ZM10.1653 5.78618C10.3823 5.57911 10.6821 5.45829 11 5.45829C11.3179 5.45829 11.6177 5.57911 11.8347 5.78618C12.0507 5.99237 12.1667 6.26608 12.1667 6.54541V11C12.1667 11.2793 12.0507 11.553 11.8347 11.7592C11.6177 11.9663 11.3179 12.0871 11 12.0871C10.6821 12.0871 10.3823 11.9663 10.1653 11.7592C9.94933 11.553 9.83333 11.2793 9.83333 11V6.54541C9.83333 6.26608 9.94933 5.99237 10.1653 5.78618ZM7.5 9.88627C7.5 9.56411 7.23883 9.30294 6.91667 9.30294C6.5945 9.30294 6.33333 9.56411 6.33333 9.88627V10.9999C6.33333 12.1973 6.83192 13.3399 7.70987 14.178C8.44709 14.8817 9.40117 15.323 10.4167 15.4458V16.5416H8.66667C8.3445 16.5416 8.08333 16.8028 8.08333 17.125C8.08333 17.4471 8.3445 17.7083 8.66667 17.7083H13.3333C13.6555 17.7083 13.9167 17.4471 13.9167 17.125C13.9167 16.8028 13.6555 16.5416 13.3333 16.5416H11.5833V15.4458C12.5988 15.323 13.5529 14.8817 14.2901 14.178C15.1681 13.3399 15.6667 12.1973 15.6667 10.9999V9.88627C15.6667 9.56411 15.4055 9.30294 15.0833 9.30294C14.7612 9.30294 14.5 9.56411 14.5 9.88627V10.9999C14.5 11.87 14.1382 12.7102 13.4846 13.3341C12.8317 13.9572 11.9414 14.3125 11.0072 14.3143L11 14.3142L10.9928 14.3143C10.0586 14.3125 9.16827 13.9572 8.51543 13.3341C7.86183 12.7102 7.5 11.87 7.5 10.9999V9.88627Z" fill="#FF3A55"/>
</svg>
