<svg width="24" height="24" viewBox="0 0 24 24" fill="none" xmlns="http://www.w3.org/2000/svg">
<path fill-rule="evenodd" clip-rule="evenodd" d="M12 0.5C10.9538 0.5 9.94154 0.896291 9.1882 1.61538C8.43329 2.33599 8 3.32353 8 4.36364V12C8 13.0401 8.43329 14.0276 9.1882 14.7483C9.94154 15.4673 10.9538 15.8636 12 15.8636C13.0462 15.8636 14.0585 15.4673 14.8118 14.7483C15.5667 14.0276 16 13.0401 16 12V4.36364C16 3.32353 15.5667 2.33599 14.8118 1.61538C14.0585 0.896291 13.0462 0.5 12 0.5ZM10.5692 3.0621C10.941 2.70712 11.4549 2.5 12 2.5C12.5451 2.5 13.059 2.70712 13.4308 3.0621C13.8011 3.41556 14 3.88478 14 4.36364V12C14 12.4789 13.8011 12.9481 13.4308 13.3015C13.059 13.6565 12.5451 13.8636 12 13.8636C11.4549 13.8636 10.941 13.6565 10.5692 13.3015C10.1989 12.9481 10 12.4789 10 12V4.36364C10 3.88478 10.1989 3.41556 10.5692 3.0621ZM6 10.0908C6 9.53854 5.55228 9.09082 5 9.09082C4.44772 9.09082 4 9.53854 4 10.0908V11.9999C4 14.0527 4.85471 16.0114 6.35978 17.448C7.62358 18.6544 9.25915 19.4109 11 19.6215V21.5H8C7.44772 21.5 7 21.9477 7 22.5C7 23.0523 7.44772 23.5 8 23.5H16C16.5523 23.5 17 23.0523 17 22.5C17 21.9477 16.5523 21.5 16 21.5H13V19.6215C14.7409 19.4109 16.3764 18.6544 17.6402 17.448C19.1453 16.0114 20 14.0527 20 11.9999V10.0908C20 9.53854 19.5523 9.09082 19 9.09082C18.4477 9.09082 18 9.53854 18 10.0908V11.9999C18 13.4914 17.3797 14.9318 16.2593 16.0013C15.1401 17.0696 13.6138 17.6786 12.0124 17.6817L12 17.6816L11.9876 17.6817C10.3862 17.6786 8.85986 17.0696 7.74073 16.0013C6.62028 14.9318 6 13.4914 6 11.9999V10.0908Z" fill="#000"/>
</svg>
