<svg width="24" height="24" viewBox="0 0 24 24" fill="none" xmlns="http://www.w3.org/2000/svg">
<g clip-path="url(#clip0_3068_810)">
<path d="M3 2C1.34315 2 0 3.34315 0 5V14C0 15.6569 1.34315 17 3 17H10C10.5523 17 11 16.5523 11 16C11 15.4477 10.5523 15 10 15H8.41421L10.2071 13.2071C10.5976 12.8166 10.5976 12.1834 10.2071 11.7929C9.81658 11.4024 9.18342 11.4024 8.79289 11.7929L5.58579 15H3C2.44772 15 2 14.5523 2 14V5C2 4.44772 2.44772 4 3 4H16C16.5523 4 17 4.44772 17 5V9C17 9.55228 17.4477 10 18 10C18.5523 10 19 9.55228 19 9V5C19 3.34315 17.6569 2 16 2H3Z" fill="#000"/>
<path fill-rule="evenodd" clip-rule="evenodd" d="M15.0815 9.64928C13.7505 8.79363 12 9.74931 12 11.3316V21.6683C12 23.2506 13.7505 24.2063 15.0815 23.3507L23.1211 18.1823C24.3458 17.3951 24.3458 15.6049 23.1211 14.8176L15.0815 9.64928ZM14 11.3316L22.0396 16.5L14 21.6683V11.3316Z" fill="#000"/>
<path fill-rule="evenodd" clip-rule="evenodd" d="M6 5C4.34315 5 3 6.34315 3 8C3 9.65685 4.34315 11 6 11C7.65685 11 9 9.65685 9 8C9 6.34315 7.65685 5 6 5ZM5 8C5 7.44772 5.44772 7 6 7C6.55228 7 7 7.44772 7 8C7 8.55228 6.55228 9 6 9C5.44772 9 5 8.55228 5 8Z" fill="#000"/>
</g>
<defs>
<clipPath id="clip0_3068_810">
<rect width="24" height="24" fill="white"/>
</clipPath>
</defs>
</svg>
