<svg width="95" height="95" viewBox="0 0 95 95" fill="none" xmlns="http://www.w3.org/2000/svg">
<path d="M55.4167 23.7497V7.91634C55.4167 5.73021 57.1889 3.95801 59.375 3.95801C61.5611 3.95801 63.3333 5.73021 63.3333 7.91634V23.7497H79.1667C81.3528 23.7497 83.125 25.5219 83.125 27.708C83.125 29.8941 81.3528 31.6663 79.1667 31.6663H63.3333C61.2337 31.6663 59.2207 30.8317 57.736 29.347C56.2513 27.8623 55.4167 25.8493 55.4167 23.7497Z" fill="#000"/>
<path d="M11.875 78.285V59.3747C11.875 57.1885 13.6472 55.4163 15.8333 55.4163C18.0195 55.4163 19.7917 57.1885 19.7917 59.3747V78.285C19.7917 79.531 20.2994 80.7511 21.2413 81.6674C22.1877 82.5875 23.4974 83.1247 24.8826 83.1247H70.1174C71.5026 83.1247 72.8123 82.5875 73.7587 81.6674C74.7006 80.7511 75.2083 79.531 75.2083 78.285V75.208C75.2083 73.0219 76.9805 71.2497 79.1667 71.2497C81.3528 71.2497 83.125 73.0219 83.125 75.208V78.285C83.125 81.7043 81.7258 84.9631 79.2749 87.3459C76.8279 89.7243 73.5309 91.0413 70.1174 91.0413H24.8826C21.4691 91.0413 18.1721 89.7243 15.7251 87.3459C13.2742 84.9631 11.875 81.7043 11.875 78.285ZM11.875 27.708V16.7144C11.875 13.2951 13.2742 10.0363 15.7251 7.65348C18.1721 5.27503 21.4691 3.95801 24.8826 3.95801H60.5076L60.8903 3.97734C61.7761 4.06374 62.6107 4.44766 63.256 5.07129L81.9189 23.1041C82.6897 23.8498 83.125 24.8767 83.125 25.9492V43.5413C83.125 45.7275 81.3528 47.4997 79.1667 47.4997C76.9805 47.4997 75.2083 45.7275 75.2083 43.5413V27.6268L58.9073 11.8747H24.8826C23.4974 11.8747 22.1877 12.4119 21.2413 13.332C20.2994 14.2483 19.7917 15.4684 19.7917 16.7144V27.708C19.7917 29.8941 18.0195 31.6663 15.8333 31.6663C13.6472 31.6663 11.875 29.8941 11.875 27.708Z" fill="#000"/>
<path d="M67.2917 47.5C65.1055 47.5 63.3333 45.7278 63.3333 43.5417C63.3333 41.3555 65.1055 39.5833 67.2917 39.5833L79.1667 39.5833C81.3528 39.5833 83.125 41.3555 83.125 43.5417C83.125 45.7278 81.3528 47.5 79.1667 47.5L67.2917 47.5Z" fill="#000"/>
<path d="M27.7083 23.75C29.8945 23.75 31.6667 25.5222 31.6667 27.7083C31.6667 29.8945 29.8945 31.6667 27.7083 31.6667L15.8333 31.6667C13.6472 31.6667 11.875 29.8945 11.875 27.7083C11.875 25.5222 13.6472 23.75 15.8333 23.75L27.7083 23.75Z" fill="#000"/>
<path d="M27.7083 39.583C29.8945 39.583 31.6667 41.3552 31.6667 43.5413C31.6667 45.7275 29.8945 47.4997 27.7083 47.4997L3.95833 47.4997C1.77221 47.4997 0 45.7275 0 43.5413C0 41.3552 1.77221 39.583 3.95833 39.583L27.7083 39.583Z" fill="#000"/>
<path d="M91.0417 55.417C93.2278 55.417 95 57.1892 95 59.3753C95 61.5615 93.2278 63.3337 91.0417 63.3337L67.2917 63.3337C65.1055 63.3337 63.3333 61.5615 63.3333 59.3753C63.3333 57.1892 65.1055 55.417 67.2917 55.417L91.0417 55.417Z" fill="#000"/>
<path d="M15.8333 55.417C18.0195 55.417 19.7917 57.1892 19.7917 59.3753C19.7917 61.5615 18.0195 63.3337 15.8333 63.3337H3.95833C1.77221 63.3337 0 61.5615 0 59.3753C0 57.1892 1.77221 55.417 3.95833 55.417L15.8333 55.417Z" fill="#000"/>
<path d="M79.1667 79.167C76.9805 79.167 75.2083 77.3948 75.2083 75.2087C75.2083 73.0225 76.9805 71.2503 79.1667 71.2503H87.0833C89.2695 71.2503 91.0417 73.0225 91.0417 75.2087C91.0417 77.3948 89.2695 79.167 87.0833 79.167H79.1667Z" fill="#000"/>
<path d="M35.9271 41.9844C35.9275 37.485 37.9985 34.1163 41.3098 32.3275C44.4022 30.6572 48.1898 30.611 51.0782 31.9199C58.4329 35.2532 59.8673 44.0743 54.3318 49.3485C54.2217 49.4535 54.1094 49.5603 53.9945 49.6644C52.8409 50.7101 52.148 51.7699 51.7492 52.6332C51.5489 53.0667 51.426 53.4434 51.3556 53.7303C51.2921 53.9897 51.2824 54.1347 51.2806 54.1583C51.2806 56.0793 49.5621 57.6366 47.4422 57.6366C45.3223 57.6366 43.6038 56.0793 43.6038 54.1583C43.6044 52.0574 44.7918 48.1633 48.5668 44.7426C48.6363 44.6795 48.703 44.6154 48.7692 44.5524C50.8818 42.5394 50.2155 39.3043 47.6446 38.1393C47.1 37.8927 46.0889 37.8453 45.2419 38.3024C44.6142 38.6414 43.6042 39.5294 43.6038 41.9844C43.6038 43.9054 41.8853 45.4627 39.7655 45.4627C37.6456 45.4627 35.9271 43.9054 35.9271 41.9844Z" fill="#000"/>
<path d="M47.0148 67.598C44.8142 67.598 43.0303 65.814 43.0303 63.6134C43.0303 61.4128 44.8142 59.6289 47.0148 59.6289C49.2154 59.6289 50.9994 61.4128 50.9994 63.6134C50.9994 65.814 49.2154 67.598 47.0148 67.598Z" fill="#000"/>
</svg>
