<svg width="24" height="24" viewBox="0 0 24 24" fill="none" xmlns="http://www.w3.org/2000/svg">
  <path fill-rule="evenodd" clip-rule="evenodd" d="M1 4C1 2.34315 2.34315 1 4 1H20C21.6569 1 23 2.34315 23 4V17C23 17.5523 22.5523 18 22 18C21.4477 18 21 17.5523 21 17V4C21 3.44772 20.5523 3 20 3H4C3.44772 3 3 3.44772 3 4V20C3 20.5523 3.44772 21 4 21H17C17.5523 21 18 21.4477 18 22C18 22.5523 17.5523 23 17 23H4C2.34315 23 1 21.6569 1 20V4Z" fill="#000" />
  <path fill-rule="evenodd" clip-rule="evenodd" d="M18 18V19.5858L19.5858 18H18ZM16 17C16 16.4477 16.4477 16 17 16H22C22.4045 16 22.7691 16.2436 22.9239 16.6173C23.0787 16.991 22.9931 17.4211 22.7071 17.7071L17.7071 22.7071C17.4211 22.9931 16.991 23.0787 16.6173 22.9239C16.2436 22.7691 16 22.4045 16 22V17Z" fill="#000" />
  <path fill-rule="evenodd" clip-rule="evenodd" d="M6 9C6 8.44772 6.44772 8 7 8H17C17.5523 8 18 8.44772 18 9C18 9.55228 17.5523 10 17 10H7C6.44772 10 6 9.55228 6 9Z" fill="#000" />
  <path fill-rule="evenodd" clip-rule="evenodd" d="M6 14C6 13.4477 6.44772 13 7 13H13C13.5523 13 14 13.4477 14 14C14 14.5523 13.5523 15 13 15H7C6.44772 15 6 14.5523 6 14Z" fill="#000" />
</svg>