<svg width="24" height="24" viewBox="0 0 24 24" fill="none" xmlns="http://www.w3.org/2000/svg">
<path d="M11.9994 2C16.5833 2.00045 20.0002 6.04586 19.9994 10.6416C19.9994 11.2082 20.0838 11.5677 20.2054 11.8652C20.3391 12.1921 20.5296 12.4831 20.8382 12.957C21.3119 13.6844 21.8086 14.5581 21.9623 15.627C22.2157 17.3901 21.1984 18.6353 20.0375 19.2949C19.6037 19.5413 19.1426 19.6123 18.7523 19.6123H16.8568C16.1634 21.5969 14.2389 22.9999 12.0003 23C9.76305 23 7.83574 21.5977 7.14293 19.6123H5.24546C4.85799 19.6123 4.38956 19.5432 3.95054 19.2861C2.79412 18.6083 1.79411 17.2991 2.03648 15.626C2.19508 14.5317 2.69266 13.6795 3.16148 12.958C3.4491 12.5154 3.6391 12.2251 3.77671 11.8779C3.90534 11.5532 4.00033 11.1412 4.00035 10.5C4.00035 6.03404 7.42583 2 11.9994 2ZM9.3607 19.6123C9.91246 20.4392 10.8806 21 12.0003 21C13.1201 20.9999 14.0864 20.4392 14.638 19.6123H9.3607ZM11.9994 4C8.69507 4 6.00035 6.96641 6.00035 10.5C6.00032 11.3583 5.86995 12.0251 5.63609 12.6152C5.41107 13.183 5.10079 13.6453 4.83921 14.0479C4.40232 14.7202 4.10839 15.2684 4.015 15.9131C3.92361 16.5444 4.27483 17.1582 4.96128 17.5605C4.99768 17.5818 5.08245 17.6123 5.24546 17.6123H18.7523C18.9129 17.6123 19.0048 17.5824 19.0502 17.5566C19.7347 17.1677 20.0842 16.619 19.9828 15.9121C19.8931 15.2884 19.5963 14.7151 19.1625 14.0488C18.8846 13.6221 18.5741 13.1608 18.3539 12.6221C18.1217 12.0541 17.9994 11.4329 17.9994 10.6416C18.0002 6.95436 15.2924 4.00046 11.9994 4Z" fill="#000"/>
</svg>
