<svg width="20" height="20" viewBox="0 0 20 20" fill="none" xmlns="http://www.w3.org/2000/svg">
<path fill-rule="evenodd" clip-rule="evenodd" d="M9.99891 1.66667C6.18763 1.66667 3.3334 5.02818 3.3334 8.74982C3.3334 9.28456 3.2543 9.62797 3.14702 9.89867C3.03414 10.1835 2.87938 10.4216 2.646 10.7807L2.63465 10.7982C2.24387 11.3995 1.82867 12.1097 1.69653 13.0219C1.49455 14.4161 2.32783 15.5065 3.29151 16.0714C3.65761 16.286 4.04805 16.3438 4.37117 16.3438H5.95225C6.52963 17.9983 8.13565 19.1667 10 19.1667C11.8657 19.1667 13.4699 17.9978 14.0477 16.3438H15.6267C15.952 16.3438 16.3361 16.2848 16.6977 16.0794C17.6653 15.5298 18.5126 14.4922 18.3014 13.0228C18.1734 12.1319 17.7598 11.4037 17.3651 10.7975C17.0154 10.2605 16.8349 9.98193 16.7389 9.5812C16.6318 9.13361 16.1821 8.85764 15.7345 8.9648C15.2869 9.07196 15.0109 9.52167 15.1181 9.96926C15.2828 10.6574 15.6092 11.1569 15.9155 11.6258L15.9684 11.707C16.3301 12.2624 16.577 12.74 16.6517 13.2599C16.7364 13.8492 16.4453 14.306 15.8745 14.6302C15.8367 14.6517 15.7607 14.6771 15.6267 14.6771H4.37117C4.23489 14.6771 4.16456 14.6513 4.13434 14.6336C3.56224 14.2982 3.26976 13.787 3.34598 13.2608C3.4238 12.7236 3.66807 12.2666 4.03216 11.7063L4.0732 11.6433C4.282 11.3227 4.52053 10.9566 4.69643 10.5128C4.89137 10.0209 5.00007 9.46527 5.00007 8.74982C5.00007 5.80516 7.24533 3.33334 9.99891 3.33334C10.4363 3.33334 10.8569 3.3943 11.2558 3.50798C11.6984 3.63413 12.1595 3.37758 12.2856 2.93497C12.4118 2.49235 12.1552 2.03128 11.7126 1.90514C11.1667 1.74956 10.5924 1.66667 9.99891 1.66667ZM12.1995 16.3438H7.8003C8.26005 17.0329 9.0669 17.5 10 17.5C10.9334 17.5 11.7397 17.0331 12.1995 16.3438Z" fill="#000"/>
<path d="M18.3333 5C18.3333 6.38071 17.214 7.5 15.8333 7.5C14.4526 7.5 13.3333 6.38071 13.3333 5C13.3333 3.61929 14.4526 2.5 15.8333 2.5C17.214 2.5 18.3333 3.61929 18.3333 5Z" fill="#000"/>
</svg>
