<svg width="24" height="24" viewBox="0 0 24 24" fill="none" xmlns="http://www.w3.org/2000/svg">
<rect x="8.5" y="11" width="14" height="2" rx="1" fill="#4A4A4A"/>
<rect x="8.5" y="2.5" width="14" height="2" rx="1" fill="#4A4A4A"/>
<path fill-rule="evenodd" clip-rule="evenodd" d="M4.25035 0.565804C4.48133 0.676817 4.62823 0.910402 4.62823 1.16667V5.83333C4.62823 6.20152 4.32975 6.5 3.96156 6.5C3.59337 6.5 3.29489 6.20152 3.29489 5.83333V2.55375L2.58315 3.12315C2.29565 3.35315 1.87612 3.30654 1.64611 3.01903C1.41611 2.73152 1.46272 2.312 1.75023 2.08199L3.5451 0.646094C3.74521 0.486003 4.01938 0.454791 4.25035 0.565804Z" fill="#4A4A4A"/>
<path fill-rule="evenodd" clip-rule="evenodd" d="M2.83335 11.0007C2.83335 11.0028 2.83334 11.0049 2.83332 11.007C2.82957 11.372 2.53255 11.6667 2.16669 11.6667C1.7985 11.6667 1.50002 11.3682 1.50002 11H2.16669C1.50002 11 1.50002 10.9997 1.50002 10.9993L1.50002 10.9986L1.50003 10.9971L1.50005 10.9938L1.50015 10.9854C1.50025 10.9792 1.50042 10.9717 1.50072 10.9628C1.5013 10.9452 1.50237 10.9224 1.50432 10.8952C1.50819 10.841 1.51561 10.768 1.52992 10.6821C1.55803 10.5134 1.6155 10.2783 1.73707 10.0352C1.85995 9.78944 2.05473 9.52341 2.35939 9.3203C2.66822 9.11441 3.05003 9 3.50002 9C4.38709 9 5.01721 9.40022 5.3439 9.97856C5.64018 10.5031 5.66798 11.1547 5.42965 11.6314C5.30441 11.8819 5.04145 12.2122 4.78402 12.5151C4.50832 12.8395 4.17709 13.2025 3.86138 13.5393C3.82121 13.5821 3.78122 13.6246 3.74155 13.6667H5.16669C5.53488 13.6667 5.83335 13.9651 5.83335 14.3333C5.83335 14.7015 5.53488 15 5.16669 15H2.16669C1.89704 15 1.65395 14.8376 1.55077 14.5884C1.44758 14.3393 1.50462 14.0526 1.69528 13.8619C1.69528 13.8619 1.69528 13.8619 1.69528 13.8619L1.72046 13.8367L1.79383 13.7627C1.85742 13.6985 1.94885 13.6058 2.05969 13.4924C2.2816 13.2653 2.58029 12.9563 2.88866 12.6274C3.19795 12.2975 3.51256 11.9522 3.7681 11.6516C4.04192 11.3294 4.19563 11.118 4.23706 11.0352C4.25674 10.9958 4.28454 10.8141 4.18298 10.6343C4.11184 10.5084 3.94629 10.3333 3.50002 10.3333C3.28334 10.3333 3.16516 10.3856 3.09899 10.4297C3.02864 10.4766 2.97343 10.5439 2.92964 10.6315C2.88454 10.7217 2.85867 10.8199 2.84512 10.9013C2.8386 10.9404 2.8356 10.9715 2.83426 10.9902C2.83363 10.9991 2.83339 11.0049 2.83332 11.007C2.83331 11.0071 2.83332 11.0069 2.83332 11.007C2.83329 11.0079 2.8333 11.0082 2.83332 11.007L2.83334 11.0043L2.83335 11.0024L2.83335 11.0007Z" fill="#4A4A4A"/>
<rect x="8.5" y="19.5" width="14" height="2" rx="1" fill="#4A4A4A"/>
<path fill-rule="evenodd" clip-rule="evenodd" d="M2.56122 23.25C2.23833 23.0795 1.9775 22.8457 1.78752 22.5481L1.78603 22.5458C1.59439 22.24 1.5 21.8985 1.5 21.5298C1.5 21.3552 1.55396 21.1822 1.68671 21.0454L1.68731 21.0448C1.81267 20.9162 1.97557 20.8419 2.1611 20.8419C2.3449 20.8419 2.51269 20.9118 2.63949 21.0496C2.76933 21.1857 2.8222 21.357 2.8222 21.5298C2.8222 21.6524 2.8538 21.7633 2.91978 21.8693C2.9874 21.9734 3.07984 22.0606 3.20412 22.1305C3.32143 22.1923 3.45823 22.2263 3.6218 22.2263C3.87601 22.2263 4.0439 22.1612 4.15941 22.0617C4.26827 21.9676 4.33589 21.8325 4.33589 21.6117C4.33589 21.4723 4.30526 21.3598 4.25136 21.2652L4.24926 21.2615C4.19086 21.1559 4.1142 21.0757 4.01669 21.0155C3.9258 20.9594 3.82099 20.9288 3.69305 20.9288C3.5083 20.9288 3.33618 20.8654 3.19893 20.734L3.19477 20.73L3.19076 20.7259C3.06027 20.5921 2.99633 20.423 2.99633 20.2408C2.99633 20.0586 3.06067 19.8868 3.19893 19.7545C3.33618 19.6231 3.50831 19.5597 3.69305 19.5597C3.76915 19.5597 3.84394 19.5423 3.92092 19.5034C4.0011 19.4584 4.06428 19.4027 4.11425 19.336C4.15326 19.2801 4.17201 19.2211 4.17201 19.1496C4.17201 19.0465 4.13794 18.9677 4.05471 18.893C3.97369 18.8203 3.86262 18.7737 3.69305 18.7737C3.55639 18.7737 3.4377 18.7991 3.33253 18.8459C3.22931 18.894 3.15517 18.953 3.10141 19.0198C3.09284 19.0311 3.08553 19.0407 3.07893 19.0494C3.06695 19.0652 3.05732 19.0778 3.04681 19.0923C3.03184 19.1129 3.02366 19.1257 3.01867 19.1348C3.01419 19.1429 3.01332 19.1462 3.01332 19.1462L3.01309 19.1474C3.01309 19.1474 3.0128 19.1499 3.0128 19.153C3.0128 19.3285 2.95888 19.4958 2.84096 19.6347L2.83751 19.6388L2.83393 19.6427C2.79078 19.6904 2.72958 19.7499 2.64242 19.7922C2.55188 19.8362 2.46228 19.8478 2.38199 19.8478C2.20396 19.8478 2.04352 19.7815 1.91636 19.6598L1.90775 19.6516L1.89976 19.6427C1.77746 19.5077 1.72089 19.3416 1.72089 19.1667C1.72089 18.8241 1.81963 18.5746 1.99251 18.3208C2.17039 18.0598 2.41157 17.8593 2.70613 17.7179C3.0032 17.5707 3.32952 17.5 3.6788 17.5C4.00595 17.5 4.311 17.5691 4.58644 17.7142C4.86122 17.8519 5.08449 18.0461 5.24666 18.2975C5.41777 18.5507 5.50134 18.8383 5.50134 19.1496C5.50134 19.3815 5.44499 19.5997 5.32448 19.7936C5.23805 19.9387 5.13044 20.0671 5.00309 20.1784C5.05597 20.2157 5.10623 20.2555 5.1537 20.298C5.34637 20.4662 5.49201 20.6673 5.58387 20.9001C5.6773 21.125 5.72222 21.3657 5.72222 21.6185C5.72222 21.9767 5.6261 22.3072 5.43157 22.6007L5.42992 22.6031C5.24053 22.8833 4.98859 23.1038 4.68099 23.2644L4.67692 23.2665C4.3658 23.4235 4.02643 23.5 3.66455 23.5C3.26351 23.5 2.89422 23.4204 2.56506 23.252L2.56122 23.25Z" fill="#4A4A4A"/>
</svg>
