<svg width="24" height="24" viewBox="0 0 24 24" fill="none" xmlns="http://www.w3.org/2000/svg">
<path fill-rule="evenodd" clip-rule="evenodd" d="M5.5 2C4.39543 2 3.5 2.89543 3.5 4V20C3.5 21.1046 4.39543 22 5.5 22H8.5C9.60457 22 10.5 21.1046 10.5 20V4C10.5 2.89543 9.60457 2 8.5 2H5.5ZM5.5 4L8.5 4V20H5.5V4ZM15.5 2C14.3954 2 13.5 2.89543 13.5 4V20C13.5 21.1046 14.3954 22 15.5 22H18.5C19.6046 22 20.5 21.1046 20.5 20V4C20.5 2.89543 19.6046 2 18.5 2H15.5ZM15.5 4L18.5 4V20H15.5V4Z" fill="#000"/>
</svg>
