<svg width="20" height="20" viewBox="0 0 20 20" fill="none" xmlns="http://www.w3.org/2000/svg">
<path d="M7.08332 1.66663C8.0038 1.66663 8.74999 2.41282 8.74999 3.33329V16.6666C8.74999 17.5871 8.0038 18.3333 7.08332 18.3333H4.58332C3.66285 18.3333 2.91666 17.5871 2.91666 16.6666V3.33329C2.91666 2.41282 3.66285 1.66663 4.58332 1.66663H7.08332Z" fill="#000"/>
<path d="M15.4167 1.66663C16.3371 1.66663 17.0833 2.41282 17.0833 3.33329V16.6666C17.0833 17.5871 16.3371 18.3333 15.4167 18.3333H12.9167C11.9962 18.3333 11.25 17.5871 11.25 16.6666V3.33329C11.25 2.41282 11.9962 1.66663 12.9167 1.66663H15.4167Z" fill="#000"/>
</svg>
