<svg width="24" height="24" viewBox="0 0 24 24" fill="none" xmlns="http://www.w3.org/2000/svg">
<path d="M11.9988 17.5711C11.0149 17.5711 10.0659 17.7318 9.15177 18.0533C8.23767 18.3748 7.38542 18.8612 6.59504 19.5127C6.60786 19.6039 6.64312 19.6859 6.70082 19.7587C6.7585 19.8315 6.82261 19.8783 6.89314 19.899H17.097C17.1675 19.8781 17.2316 19.8312 17.2893 19.7584C17.347 19.6855 17.3823 19.6034 17.3951 19.5121C16.6315 18.8596 15.7888 18.373 14.867 18.0522C13.9452 17.7315 12.9891 17.5711 11.9988 17.5711ZM11.9993 16.1721C13.1279 16.1721 14.1876 16.3438 15.1785 16.6871C16.1694 17.0305 17.0829 17.512 17.9191 18.1317V4.40863C17.9191 4.3317 17.887 4.26118 17.8229 4.19708C17.7588 4.13296 17.6883 4.1009 17.6114 4.1009H6.38834C6.31142 4.1009 6.24091 4.13296 6.17679 4.19708C6.11269 4.26118 6.08064 4.3317 6.08064 4.40863V18.1317C6.91661 17.512 7.8299 17.0305 8.82052 16.6871C9.81113 16.3438 10.8707 16.1721 11.9993 16.1721ZM11.9984 12.7202C11.5116 12.7202 11.0951 12.5466 10.7489 12.1994C10.4028 11.8523 10.2297 11.4353 10.2297 10.9485C10.2297 10.4617 10.4032 10.0452 10.7504 9.69903C11.0976 9.35285 11.5145 9.17975 12.0013 9.17975C12.4881 9.17975 12.9046 9.35334 13.2508 9.7005C13.597 10.0477 13.7701 10.4647 13.7701 10.9515C13.7701 11.4382 13.5965 11.8547 13.2493 12.2009C12.9022 12.5471 12.4852 12.7202 11.9984 12.7202ZM6.38644 21.298C5.91376 21.298 5.51145 21.132 5.17952 20.8001C4.8476 20.4682 4.68164 20.0659 4.68164 19.5934V4.40653C4.68164 3.93398 4.8476 3.53174 5.17952 3.1998C5.51145 2.86787 5.91376 2.7019 6.38644 2.7019H17.6133C18.086 2.7019 18.4883 2.86787 18.8202 3.1998C19.1521 3.53174 19.3181 3.93398 19.3181 4.40653V19.5934C19.3181 20.0659 19.1521 20.4682 18.8202 20.8001C18.4883 21.132 18.086 21.298 17.6133 21.298H6.38644ZM12.0026 14.1192C12.8816 14.1192 13.629 13.8102 14.245 13.1924C14.8611 12.5745 15.1691 11.8261 15.1691 10.9472C15.1691 10.0683 14.8601 9.32081 14.2423 8.70478C13.6244 8.08876 12.876 7.78075 11.9971 7.78075C11.1182 7.78075 10.3707 8.0897 9.75469 8.70758C9.13866 9.32545 8.83064 10.0738 8.83064 10.9528C8.83064 11.8317 9.13958 12.5791 9.75747 13.1952C10.3753 13.8112 11.1237 14.1192 12.0026 14.1192Z" fill="#000"/>
</svg>
