<svg width="24" height="24" viewBox="0 0 24 24" fill="none" xmlns="http://www.w3.org/2000/svg">
<path fill-rule="evenodd" clip-rule="evenodd" d="M4.35294 3C3.99412 3 3.64999 3.14254 3.39627 3.39627C3.14882 3.64372 3.00712 3.97715 3.00026 4.32634C3.27188 8.659 5.11551 12.7441 8.18573 15.8143C11.2559 18.8845 15.341 20.7281 19.6737 20.9997C20.0229 20.9929 20.3563 20.8512 20.6037 20.6037C20.8575 20.35 21 20.0059 21 19.6471V16.7018L17.3057 15.678L15.4128 17.0071C14.8248 17.42 14.0169 17.5092 13.3341 17.1191C10.9179 15.7386 8.26136 13.0821 6.88094 10.6659C6.49083 9.98306 6.58002 9.1752 6.99286 8.58721L8.32196 6.69426L7.29825 3L4.35294 3ZM1.98205 1.98205C2.61085 1.35326 3.46369 1 4.35294 1L7.29825 1C8.19712 1 8.98557 1.59968 9.22562 2.46591L10.2493 6.16017C10.409 6.7365 10.3024 7.35406 9.95878 7.84352L8.64281 9.71778C9.84563 11.7984 12.2016 14.1544 14.2822 15.3572L16.1565 14.0412C16.6459 13.6976 17.2635 13.591 17.8398 13.7507L21.5341 14.7744C22.4003 15.0144 23 15.8029 23 16.7018V19.6471C23 20.5363 22.6467 21.3891 22.0179 22.0179C21.3891 22.6467 20.5363 23 19.6471 23C19.6268 23 19.6066 22.9994 19.5864 22.9982C14.7535 22.7045 10.1952 20.6522 6.77152 17.2285C3.34784 13.8048 1.29554 9.2465 1.00184 4.4136C1.00061 4.3934 1 4.37317 1 4.35294C1 3.46369 1.35326 2.61085 1.98205 1.98205Z" fill="#000"/>
</svg>
