<svg width="24" height="24" viewBox="0 0 24 24" fill="none" xmlns="http://www.w3.org/2000/svg">
<path fill-rule="evenodd" clip-rule="evenodd" d="M9.57865 5.429C9.17186 5.96392 9 6.7061 9 7.44027C9 7.99255 8.55228 8.44027 8 8.44027C7.44772 8.44027 7 7.99255 7 7.44027C7 6.45057 7.22298 5.22262 7.98668 4.21837C8.78657 3.16651 10.0733 2.5 11.8922 2.5C13.9241 2.5 15.176 3.54342 15.7844 4.82318C16.3475 6.00743 16.3619 7.39062 16.0492 8.26843C15.6404 9.41583 14.8576 10.324 14.2396 11.0412C14.1448 11.1511 14.0539 11.2566 13.9688 11.3577C13.2697 12.1888 12.8922 12.7846 12.8922 13.5149V15.3208C12.8922 15.8731 12.4445 16.3208 11.8922 16.3208C11.34 16.3208 10.8922 15.8731 10.8922 15.3208V13.5149C10.8922 12.0024 11.7274 10.9154 12.4383 10.0703C12.5448 9.94366 12.6488 9.82187 12.7497 9.7036C13.3789 8.96665 13.891 8.36676 14.1652 7.59718C14.2931 7.23809 14.3219 6.40487 13.9782 5.68195C13.6799 5.05454 13.1039 4.5 11.8922 4.5C10.6086 4.5 9.94923 4.94169 9.57865 5.429Z" fill="#000"/>
<path d="M13.7625 19.8879C13.7625 20.7781 13.0408 21.4998 12.1505 21.4998C11.2603 21.4998 10.5386 20.7781 10.5386 19.8879C10.5386 18.9976 11.2603 18.276 12.1505 18.276C13.0408 18.276 13.7625 18.9976 13.7625 19.8879Z" fill="#000"/>
</svg>
