<svg width="24" height="24" viewBox="0 0 24 24" fill="none" xmlns="http://www.w3.org/2000/svg">
<path fill-rule="evenodd" clip-rule="evenodd" d="M12 3C7.02944 3 3 7.02944 3 12C3 16.9706 7.02944 21 12 21C16.9706 21 21 16.9706 21 12C21 7.02944 16.9706 3 12 3ZM1 12C1 5.92487 5.92487 1 12 1C18.0751 1 23 5.92487 23 12C23 18.0751 18.0751 23 12 23C5.92487 23 1 18.0751 1 12Z" fill="#000"/>
<path fill-rule="evenodd" clip-rule="evenodd" d="M11.0315 8.4265C10.8469 8.66926 10.75 9.03749 10.75 9.44444C10.75 9.99673 10.3023 10.4444 9.75 10.4444C9.19772 10.4444 8.75 9.99673 8.75 9.44444C8.75 8.78195 8.89804 7.92796 9.43956 7.21586C10.0173 6.45616 10.9346 6 12.1646 6C13.5808 6 14.4858 6.7401 14.9221 7.65786C15.313 8.48011 15.3302 9.4426 15.1011 10.0856C14.8215 10.8705 14.2831 11.4933 13.9026 11.9335C13.8455 11.9995 13.792 12.0614 13.7434 12.1191C13.312 12.632 13.1646 12.9084 13.1646 13.213V14.3325C13.1646 14.8848 12.7169 15.3333 12.1646 15.3333C11.6124 15.3333 11.1646 14.8856 11.1646 14.3333V13.213C11.1646 12.1262 11.7696 11.3587 12.2129 10.8316C12.2824 10.749 12.3487 10.6711 12.4118 10.597C12.8045 10.1358 13.0721 9.82138 13.2171 9.41437C13.2614 9.29007 13.2875 8.87755 13.1159 8.51663C13.041 8.35912 12.9414 8.24051 12.8164 8.15879C12.6952 8.07954 12.497 8 12.1646 8C11.4699 8 11.1799 8.23134 11.0315 8.4265Z" fill="#000"/>
<path d="M13.3252 17.1667C13.3252 17.719 12.8775 18.1667 12.3252 18.1667C11.7729 18.1667 11.3252 17.719 11.3252 17.1667C11.3252 16.6145 11.7729 16.1667 12.3252 16.1667C12.8775 16.1667 13.3252 16.6145 13.3252 17.1667Z" fill="#000"/>
</svg>
