<svg width="24" height="24" viewBox="0 0 24 24" fill="none" xmlns="http://www.w3.org/2000/svg">
<g clip-path="url(#clip0_3284_28)">
<path fill-rule="evenodd" clip-rule="evenodd" d="M2.25339 6.53239C2.4924 6.21314 2.88089 6 3.33333 6H6.5C7.05228 6 7.5 5.55228 7.5 5C7.5 4.44772 7.05228 4 6.5 4H3.33333C1.51192 4 0 5.45173 0 7.28571L0 18.7143C0 20.5483 1.51192 22 3.33333 22L19.6667 22C21.4881 22 23 20.5483 23 18.7143C23 18.162 22.5523 17.7143 22 17.7143C21.4477 17.7143 21 18.162 21 18.7143C21 19.405 20.4226 20 19.6667 20L3.33333 20C2.57741 20 2 19.405 2 18.7143L2 8.6662L10.4423 13.7316C11.4036 14.3084 12.6063 14.301 13.5605 13.7126L15.5249 12.5012C15.995 12.2113 16.1411 11.5952 15.8512 11.1251C15.5613 10.6551 14.9452 10.509 14.4751 10.7989L12.5107 12.0103C12.1926 12.2064 11.7917 12.2089 11.4713 12.0166L2.51452 6.64254C2.431 6.59242 2.34308 6.55592 2.25339 6.53239ZM15.8 8.6C16.1314 8.15817 16.0418 7.53137 15.6 7.2L14 6H18C20.2091 6 22 7.79086 22 10V10.2C22 12.2987 20.2987 14 18.2 14C17.6477 14 17.2 14.4477 17.2 15C17.2 15.5523 17.6477 16 18.2 16C21.4033 16 24 13.4033 24 10.2V10C24 6.68629 21.3137 4 18 4L14 4L15.6 2.8C16.0418 2.46863 16.1314 1.84183 15.8 1.4C15.4686 0.958174 14.8418 0.868631 14.4 1.2L10.4095 4.19291C10.1612 4.37487 10 4.66861 10 5C10 5.23607 10.0834 5.46181 10.2313 5.63959C10.2679 5.6836 10.3085 5.72468 10.3527 5.76224C10.371 5.77776 10.3898 5.79264 10.4091 5.80684L14.4 8.8C14.8418 9.13137 15.4686 9.04183 15.8 8.6Z" fill="#000"/>
</g>
<defs>
<clipPath id="clip0_3284_28">
<rect width="24" height="24" fill="white"/>
</clipPath>
</defs>
</svg>
