<svg width="22" height="22" viewBox="0 0 22 22" fill="none" xmlns="http://www.w3.org/2000/svg">
<path d="M0 11C0 4.92487 4.92487 0 11 0C17.0751 0 22 4.92487 22 11C22 17.0751 17.0751 22 11 22C4.92487 22 0 17.0751 0 11Z" fill="#F6ECF9"/>
<path fill-rule="evenodd" clip-rule="evenodd" d="M5.16667 6.33337C4.52233 6.33337 4 6.85571 4 7.50004V14.5C4 15.1444 4.52234 15.6667 5.16667 15.6667H12.75C13.3943 15.6667 13.9166 15.1444 13.9166 14.5V13.371L16.4883 14.167C17.239 14.3993 18 13.8382 18 13.0525V8.94736C18 8.1616 17.239 7.60052 16.4883 7.83286L13.9166 8.62887V7.50004C13.9166 6.85571 13.3943 6.33337 12.75 6.33337H5.16667ZM5.16667 7.50004L12.75 7.50004V14.5H5.16667V7.50004ZM13.9167 12.1497V9.85013L16.8333 8.94736L16.8333 13.0525L13.9167 12.1497Z" fill="#A348C0"/>
</svg>
