<svg width="24" height="24" viewBox="0 0 24 24" fill="none" xmlns="http://www.w3.org/2000/svg">
<path fill-rule="evenodd" clip-rule="evenodd" d="M2 4C0.89543 4 0 4.89543 0 6V18C0 19.1046 0.895432 20 2 20H14.9999C16.1045 20 16.9999 19.1046 16.9999 18V16.0644L21.4086 17.429C22.6954 17.8273 24 16.8655 24 15.5184V8.48111C24 7.1341 22.6954 6.17225 21.4086 6.57054L16.9999 7.93514V6C16.9999 4.89543 16.1045 4 14.9999 4H2ZM2 6L14.9999 6L14.9999 18H2V6ZM17 13.9708V10.0287L22 8.48111L22 15.5184L17 13.9708Z" fill="#000"/>
</svg>
