<svg width="24" height="24" viewBox="0 0 24 24" fill="none" xmlns="http://www.w3.org/2000/svg">
<path fill-rule="evenodd" clip-rule="evenodd" d="M7.5 5C7.5 2.51472 9.51472 0.5 12 0.5C14.4853 0.5 16.5 2.51472 16.5 5V12C16.5 14.4853 14.4853 16.5 12 16.5C9.51472 16.5 7.5 14.4853 7.5 12V5ZM12 2.5C10.6193 2.5 9.5 3.61929 9.5 5V12C9.5 13.3807 10.6193 14.5 12 14.5C13.3807 14.5 14.5 13.3807 14.5 12V5C14.5 3.61929 13.3807 2.5 12 2.5ZM11 19.9482C8.58759 19.6926 6.86913 18.5176 5.74495 17.044C4.50228 15.4152 4 13.4466 4 12C4 11.4477 4.44772 11 5 11C5.55228 11 6 11.4477 6 12C6 13.0534 6.38438 14.5848 7.33505 15.831C8.25464 17.0363 9.71793 18 12 18C14.2821 18 15.7454 17.0363 16.6649 15.831C17.6156 14.5848 18 13.0534 18 12C18 11.4477 18.4477 11 19 11C19.5523 11 20 11.4477 20 12C20 13.4466 19.4977 15.4152 18.2551 17.044C17.1309 18.5176 15.4124 19.6926 13 19.9482V22H16C16.5523 22 17 22.4477 17 23C17 23.5523 16.5523 24 16 24H8C7.44772 24 7 23.5523 7 23C7 22.4477 7.44772 22 8 22H11V19.9482Z" fill="#000"/>
</svg>
