<svg width="24" height="24" viewBox="0 0 24 24" fill="none" xmlns="http://www.w3.org/2000/svg">
<path fill-rule="evenodd" clip-rule="evenodd" d="M14.2929 13.7071C13.9024 13.3166 13.9024 12.6834 14.2929 12.2929L18.5858 8L14.2929 3.70711C13.9024 3.31658 13.9024 2.68342 14.2929 2.29289C14.6834 1.90237 15.3166 1.90237 15.7071 2.29289L20.7071 7.29289C21.0976 7.68342 21.0976 8.31658 20.7071 8.70711L15.7071 13.7071C15.3166 14.0976 14.6834 14.0976 14.2929 13.7071Z" fill="#000"/>
<path fill-rule="evenodd" clip-rule="evenodd" d="M4 20C3.44772 20 3 19.5523 3 19V12C3 10.6739 3.52678 9.40215 4.46447 8.46447C5.40215 7.52678 6.67392 7 8 7L20 7C20.5523 7 21 7.44771 21 8C21 8.55229 20.5523 9 20 9L8 9C7.20435 9 6.44129 9.31607 5.87868 9.87868C5.31607 10.4413 5 11.2044 5 12V19C5 19.5523 4.55228 20 4 20Z" fill="#000"/>
</svg>
