<svg width="24" height="24" viewBox="0 0 24 24" fill="none" xmlns="http://www.w3.org/2000/svg">
<g clip-path="url(#clip0_340_1254)">
<path fill-rule="evenodd" clip-rule="evenodd" d="M12.3034 21C15.3194 21 17.954 19.0758 19.1418 16.2476C19.3553 15.7393 19.9362 15.5021 20.4392 15.7179C20.9423 15.9337 21.177 16.5207 20.9634 17.0291C19.4965 20.5219 16.1903 23 12.3034 23C7.65916 23 3.85921 19.4782 3.00429 14.8867L1.85904 17.1423C1.60723 17.6382 1.01201 17.8391 0.529593 17.5909C0.0471706 17.3427 -0.139774 16.7394 0.11204 16.2435L2.51015 11.5204C2.6447 11.2554 2.88622 11.0625 3.17006 10.9934C3.45391 10.9242 3.75111 10.9858 3.9821 11.1618L8.09926 14.2973C8.53158 14.6266 8.61412 15.2552 8.28361 15.7015C7.9531 16.1478 7.3347 16.2426 6.90238 15.9134L4.92879 14.4103C5.57926 18.1954 8.67298 21 12.3034 21ZM17.0976 8.08661C16.6653 7.75736 16.0469 7.85222 15.7164 8.29849C15.3859 8.74476 15.4684 9.37344 15.9007 9.70269L20.0179 12.8382C20.2489 13.0142 20.5461 13.0758 20.8299 13.0066C21.1138 12.9375 21.3553 12.7446 21.4898 12.4796L23.888 7.75651C24.1398 7.26057 23.9528 6.65732 23.4704 6.40914C22.988 6.16095 22.3928 6.36179 22.141 6.85774L20.9957 9.11331C20.1408 4.52182 16.3408 1 11.6966 1C7.80967 1 4.50352 3.47814 3.03655 6.9709C2.82303 7.47928 3.05773 8.06634 3.56076 8.28213C4.06379 8.49792 4.64467 8.26073 4.85819 7.75235C6.04603 4.92416 8.68065 3 11.6966 3C15.327 3 18.4207 5.80463 19.0712 9.58966L17.0976 8.08661Z" fill="#000"/>
</g>
<defs>
<clipPath id="clip0_340_1254">
<rect width="24" height="24" fill="white"/>
</clipPath>
</defs>
</svg>
