<svg width="24" height="24" viewBox="0 0 24 24" fill="none" xmlns="http://www.w3.org/2000/svg">
<path fill-rule="evenodd" clip-rule="evenodd" d="M20.417 7.81249L21.0235 4.37025C21.119 3.82828 21.6354 3.4664 22.177 3.56196C22.7185 3.65753 23.0801 4.17435 22.9846 4.71632L21.972 10.4634C21.8766 11.0053 21.3601 11.3672 20.8186 11.2716L15.0761 10.2583C14.5346 10.1627 14.173 9.6459 14.2685 9.10393C14.364 8.56196 14.8804 8.20007 15.4219 8.29564L18.7226 8.8781C18.0012 7.38218 16.8178 6.15548 15.3446 5.38161C13.8034 4.57199 12.0347 4.30513 10.3235 4.624C8.61224 4.94288 7.05807 5.82893 5.91129 7.13944C4.76452 8.44995 4.09189 10.1086 4.00175 11.8483C3.91161 13.588 4.40921 15.3074 5.4144 16.7296C6.41959 18.1518 7.87385 19.1939 9.54294 19.6882C11.212 20.1825 12.9988 20.1002 14.6154 19.4544C16.2321 18.8087 17.5844 17.6372 18.4548 16.1285C18.7297 15.6519 19.3387 15.4886 19.8149 15.7638C20.2911 16.039 20.4543 16.6484 20.1793 17.125C19.0854 19.0212 17.3856 20.4938 15.3536 21.3054C13.3216 22.117 11.0758 22.2205 8.9779 21.5993C6.87999 20.978 5.0521 19.668 3.78866 17.8805C2.52522 16.0929 1.89978 13.9317 2.01308 11.7451C2.12637 9.55848 2.97181 7.47366 4.41321 5.82645C5.85462 4.17925 7.80808 3.06556 9.95894 2.66475C12.1098 2.26395 14.3329 2.59938 16.2701 3.617C18.0559 4.5551 19.5029 6.0226 20.417 7.81249Z" fill="#000"/>
</svg>
