<svg width="24" height="24" viewBox="0 0 24 24" fill="none" xmlns="http://www.w3.org/2000/svg">
<path d="M11.5212 3.40028C11.8196 3.23747 12.1804 3.23747 12.4789 3.40028L22.5212 8.8779C23.006 9.14236 23.6134 8.9637 23.8779 8.47885C24.1424 7.994 23.9637 7.38657 23.4789 7.1221L13.4366 1.64449C12.5411 1.15607 11.4589 1.15607 10.5634 1.64449L0.521154 7.1221C0.0363056 7.38657 -0.142352 7.994 0.12211 8.47885C0.386573 8.9637 0.99401 9.14236 1.47886 8.8779L11.5212 3.40028Z" fill="#000"/>
<path fill-rule="evenodd" clip-rule="evenodd" d="M3 9.91686C2.99924 9.87565 3.00104 9.83454 3.00533 9.79376C3.01926 9.65896 3.05996 9.5321 3.12203 9.4186C3.19795 9.27913 3.30793 9.15619 3.4483 9.06353C3.46931 9.04961 3.49087 9.03646 3.51295 9.02413C4.91385 8.21833 6.50175 7.79419 8.11803 7.79419C9.54973 7.79419 10.9592 8.12699 12.2361 8.76305C13.513 8.12699 14.9224 7.79419 16.3541 7.79419C17.9696 7.79419 19.5567 8.21792 20.9571 9.02295C20.9854 9.03864 21.0128 9.05567 21.0393 9.07393C21.1638 9.1595 21.2636 9.26928 21.3358 9.39319C21.4109 9.5215 21.4582 9.66804 21.4696 9.82457C21.4717 9.85388 21.4726 9.88334 21.4722 9.91285V21.7807C21.4731 21.8458 21.4677 21.9112 21.4557 21.9762C21.423 22.1538 21.3434 22.315 21.2302 22.4465C21.1801 22.5049 21.1241 22.5564 21.0636 22.6007C20.898 22.7224 20.6935 22.7942 20.4722 22.7942C20.4472 22.7943 20.422 22.7933 20.3969 22.7915C20.2353 22.7794 20.0845 22.729 19.9534 22.6493C18.8579 22.0212 17.6171 21.6906 16.3541 21.6906C15.0918 21.6906 13.8515 22.0209 12.7565 22.6483C12.6049 22.7409 12.4267 22.7942 12.2361 22.7942C12.0459 22.7942 11.8681 22.7412 11.7168 22.649C10.6215 22.0211 9.3808 21.6906 8.11803 21.6906C6.85549 21.6906 5.61505 22.021 4.51989 22.6487C4.38853 22.7287 4.23726 22.7794 4.07524 22.7915C4.05019 22.7933 4.02514 22.7943 4.00014 22.7942C3.78783 22.7942 3.59083 22.7281 3.42892 22.6152C3.22969 22.4764 3.08338 22.2669 3.0263 22.0231C3.00709 21.9415 2.9985 21.8588 3 21.7767V9.91686ZM16.3541 9.79419C17.4355 9.79419 18.5006 10.0365 19.4722 10.5005V20.2329C18.4756 19.8755 17.421 19.6906 16.3541 19.6906C15.2872 19.6906 14.2326 19.8755 13.2361 20.2329V10.5004C14.2076 10.0365 15.2728 9.79419 16.3541 9.79419ZM11.2361 20.2329V10.5005C10.2646 10.0365 9.1994 9.79419 8.11803 9.79419C7.03667 9.79419 5.97154 10.0365 5 10.5004V20.2329C5.99656 19.8755 7.05111 19.6906 8.11803 19.6906C9.18497 19.6906 10.2395 19.8755 11.2361 20.2329Z" fill="#000"/>
</svg>