<svg width="24" height="24" viewBox="0 0 24 24" fill="none" xmlns="http://www.w3.org/2000/svg">
<path fill-rule="evenodd" clip-rule="evenodd" d="M4 10C4 6.13401 7.13401 3 11 3C14.866 3 18 6.13401 18 10C18 13.866 14.866 17 11 17C7.13401 17 4 13.866 4 10ZM11 1C6.02944 1 2 5.02944 2 10C2 14.9706 6.02944 19 11 19C13.1634 19 15.1485 18.2367 16.7006 16.9647C16.7481 17.1081 16.8288 17.2429 16.9429 17.357L21.2929 21.707C21.6834 22.0975 22.3166 22.0975 22.7071 21.707C23.0977 21.3165 23.0977 20.6833 22.7071 20.2928L18.3571 15.9428C18.243 15.8287 18.1082 15.7479 17.9648 15.7005C19.2367 14.1483 20 12.1633 20 10C20 5.02944 15.9706 1 11 1Z" fill="#000"/>
</svg>
