<svg width="24" height="24" viewBox="0 0 24 24" fill="none" xmlns="http://www.w3.org/2000/svg">
<path fill-rule="evenodd" clip-rule="evenodd" d="M20.6041 3.15869C20.65 3.19011 20.6934 3.22603 20.7337 3.26629C20.9807 3.51323 21.0643 3.87981 20.9489 4.20943L14.5853 22.3912C14.4622 22.743 14.1368 22.984 13.7643 22.9992C13.3919 23.0144 13.0479 22.8007 12.8965 22.4601L9.40217 14.5978L1.53988 11.1035C1.19926 10.9521 0.985566 10.6081 1.00076 10.2357C1.01595 9.86325 1.25696 9.53783 1.60878 9.41469L19.7669 3.05935C20.0411 2.95509 20.3555 2.9882 20.6041 3.15869ZM11.1751 14.1102L17.917 7.36836L13.6267 19.6263L11.1751 14.1102ZM9.88936 12.8247L4.3737 10.3733L16.6307 6.08334L9.88936 12.8247Z" fill="#000"/>
</svg>
