<svg xmlns="http://www.w3.org/2000/svg" xmlns:xlink="http://www.w3.org/1999/xlink" viewBox="0 0 24 24"><defs><clipPath id="a"><rect x="0.36" y="0.36" width="23.29" height="23.29" fill="none"/></clipPath></defs><g clip-path="url(#a)"><path d="M23.36,5.49a1,1,0,0,1,0,1.37l-9.22,9.22a1,1,0,0,1-1.37,0L8.6,11.92,2,18.51A1,1,0,1,1,.64,17.14L7.92,9.86a1,1,0,0,1,1.37,0L13.46,14,22,5.49A1,1,0,0,1,23.36,5.49Z" fill="#000" fill-rule="evenodd"/><path d="M15.88,6.18a1,1,0,0,1,1-1h5.82a1,1,0,0,1,1,1V12a1,1,0,1,1-1.94,0V7.15H16.85A1,1,0,0,1,15.88,6.18Z" fill="#000" fill-rule="evenodd"/></g></svg>