<svg width="24" height="24" viewBox="0 0 24 24" fill="none" xmlns="http://www.w3.org/2000/svg">
<path fill-rule="evenodd" clip-rule="evenodd" d="M3.78088 4.37531C3.43587 3.94405 2.80657 3.87413 2.37531 4.21914C1.94405 4.56415 1.87413 5.19344 2.21914 5.6247L7.31938 12L2.21914 18.3753C1.87413 18.8066 1.94405 19.4359 2.37531 19.7809C2.80657 20.1259 3.43587 20.056 3.78088 19.6247L8.60001 13.6008L13.4191 19.6247C13.7641 20.056 14.3934 20.1259 14.8247 19.7809C15.256 19.4359 15.3259 18.8066 14.9809 18.3753L9.88063 12L14.9809 5.6247C15.3259 5.19344 15.256 4.56415 14.8247 4.21914C14.3934 3.87413 13.7641 3.94405 13.4191 4.37531L8.60001 10.3992L3.78088 4.37531ZM20.4115 12.0107C19.9818 11.9561 19.5456 11.9866 19.1277 12.1006C18.7098 12.2146 18.3184 12.4097 17.976 12.6749C17.6335 12.9402 17.3466 13.2702 17.1317 13.6463C16.8577 14.1258 17.0243 14.7367 17.5038 15.0107C17.9834 15.2847 18.5942 15.1181 18.8682 14.6386C18.9528 14.4905 19.0658 14.3606 19.2006 14.2562C19.3354 14.1518 19.4894 14.075 19.6539 14.0301C19.8184 13.9853 19.9901 13.9732 20.1593 13.9947C20.3284 14.0162 20.4917 14.0709 20.6397 14.1554C20.7878 14.24 20.9177 14.353 21.0221 14.4878C21.1265 14.6226 21.2033 14.7766 21.2482 14.9411C21.2931 15.1056 21.3051 15.2774 21.2836 15.4465C21.2657 15.5871 21.2249 15.7237 21.1631 15.8508L17.2474 20.3259C16.989 20.6212 16.9272 21.0403 17.0894 21.3976C17.2515 21.7549 17.6076 21.9844 18 21.9844H22.5613C23.1136 21.9844 23.5613 21.5367 23.5613 20.9844C23.5613 20.4321 23.1136 19.9844 22.5613 19.9844H20.2038L22.7437 17.0816C22.7876 17.0315 22.8263 16.9771 22.8594 16.9192C23.0743 16.5431 23.213 16.1284 23.2676 15.6987C23.3222 15.269 23.2917 14.8328 23.1777 14.4149C23.0638 13.997 22.8686 13.6057 22.6034 13.2632C22.3382 12.9207 22.0081 12.6339 21.632 12.419C21.2559 12.2041 20.8412 12.0653 20.4115 12.0107Z" fill="#4A4A4A"/>
</svg>
