<svg width="24" height="24" viewBox="0 0 24 24" fill="none" xmlns="http://www.w3.org/2000/svg">
<path fill-rule="evenodd" clip-rule="evenodd" d="M12 23C18.0751 23 23 18.0751 23 12C23 5.92487 18.0751 1 12 1C5.92487 1 1 5.92487 1 12C1 18.0751 5.92487 23 12 23ZM16.808 9.58924C17.1334 9.14299 17.0355 8.51745 16.5892 8.19206C16.143 7.86667 15.5174 7.96465 15.192 8.4109L11.5822 13.3615L9.77615 11.1387C9.42788 10.7101 8.79808 10.6449 8.36944 10.9932C7.9408 11.3415 7.87565 11.9713 8.22392 12.3999L10.8489 15.6307C11.0446 15.8715 11.341 16.0078 11.6512 15.9997C11.9614 15.9916 12.2502 15.84 12.433 15.5892L16.808 9.58924Z" fill="#000"/>
</svg>
