<svg width="24" height="24" viewBox="0 0 24 24" fill="none" xmlns="http://www.w3.org/2000/svg">
<path fill-rule="evenodd" clip-rule="evenodd" d="M20.4115 1.01071C19.9818 0.956084 19.5456 0.986628 19.1277 1.1006C18.7098 1.21457 18.3184 1.40973 17.976 1.67494C17.6335 1.94016 17.3466 2.27023 17.1317 2.64631C16.8577 3.12582 17.0243 3.73668 17.5038 4.01069C17.9834 4.2847 18.5942 4.1181 18.8682 3.63858C18.9528 3.49054 19.0658 3.36061 19.2006 3.25621C19.3354 3.15181 19.4894 3.07499 19.6539 3.03013C19.8184 2.98526 19.9901 2.97324 20.1593 2.99474C20.3284 3.01624 20.4917 3.07085 20.6397 3.15545C20.7878 3.24004 20.9177 3.35297 21.0221 3.48778C21.1265 3.62258 21.2033 3.77664 21.2482 3.94114C21.2931 4.10563 21.3051 4.27736 21.2836 4.44651C21.2657 4.58713 21.2249 4.72369 21.1631 4.85081L17.2474 9.32587C16.989 9.62116 16.9272 10.0403 17.0894 10.3976C17.2515 10.7549 17.6076 10.9844 18 10.9844H22.5613C23.1136 10.9844 23.5613 10.5367 23.5613 9.98438C23.5613 9.43209 23.1136 8.98437 22.5613 8.98437H20.2038L22.7437 6.08159C22.7876 6.03146 22.8263 5.97707 22.8594 5.91923C23.0743 5.54315 23.213 5.12842 23.2676 4.69873C23.3222 4.26904 23.2917 3.83279 23.1777 3.4149C23.0638 2.99702 22.8686 2.60567 22.6034 2.2632C22.3382 1.92074 22.0081 1.63386 21.632 1.41896C21.2559 1.20406 20.8412 1.06533 20.4115 1.01071ZM3.78084 4.37531C3.43584 3.94405 2.80654 3.87413 2.37528 4.21914C1.94402 4.56415 1.8741 5.19344 2.21911 5.6247L7.31935 12L2.21911 18.3753C1.8741 18.8066 1.94402 19.4359 2.37528 19.7809C2.80654 20.1259 3.43584 20.056 3.78084 19.6247L8.59998 13.6008L13.4191 19.6247C13.7641 20.056 14.3934 20.1259 14.8247 19.7809C15.2559 19.4359 15.3259 18.8066 14.9808 18.3753L9.8806 12L14.9808 5.6247C15.3259 5.19344 15.2559 4.56415 14.8247 4.21914C14.3934 3.87413 13.7641 3.94405 13.4191 4.37531L8.59998 10.3992L3.78084 4.37531Z" fill="#4A4A4A"/>
</svg>
