<svg width="24" height="24" viewBox="0 0 24 24" fill="none" xmlns="http://www.w3.org/2000/svg">
<path d="M3.5 17.1114V9.89412C3.5 9.47618 3.65388 9.12715 3.96165 8.84702C4.26942 8.5669 4.63283 8.44351 5.0519 8.47684C6.35575 8.67684 7.59389 9.06434 8.76633 9.63934C9.93876 10.2143 11.0166 10.9474 12 11.8384C12.9833 10.9474 14.0612 10.2143 15.2336 9.63934C16.4061 9.06434 17.6442 8.67684 18.9481 8.47684C19.3671 8.44351 19.7305 8.5669 20.0383 8.84702C20.3461 9.12715 20.5 9.47618 20.5 9.89412V17.1114C20.5 17.5101 20.3682 17.8521 20.1048 18.1374C19.8413 18.4226 19.5102 18.5819 19.1115 18.6152C17.9936 18.7883 16.933 19.0649 15.9298 19.445C14.9266 19.8252 13.966 20.3383 13.048 20.9845C12.8903 21.1088 12.7247 21.2005 12.5512 21.2595C12.3776 21.3184 12.1936 21.3479 11.9993 21.3479C11.8049 21.3479 11.6211 21.3184 11.4481 21.2595C11.275 21.2005 11.1096 21.1088 10.9519 20.9845C10.034 20.3383 9.07498 19.8252 8.07498 19.445C7.07498 19.0649 6.0128 18.7883 4.88845 18.6152C4.48973 18.5819 4.15865 18.4226 3.8952 18.1374C3.63173 17.8521 3.5 17.5101 3.5 17.1114ZM12 19.8807C13.05 19.1037 14.1666 18.4806 15.35 18.0111C16.5333 17.5417 17.75 17.2316 19 17.0807V9.98834C17.7384 10.205 16.517 10.6345 15.3356 11.2768C14.1541 11.9191 13.0423 12.7614 12 13.8037C10.9577 12.7614 9.84582 11.9191 8.6644 11.2768C7.483 10.6345 6.26153 10.205 4.99997 9.98834V17.0807C6.24998 17.2316 7.46664 17.5417 8.64998 18.0111C9.83331 18.4806 10.95 19.1037 12 19.8807ZM12 8.78834C11.0058 8.78834 10.1546 8.43433 9.44663 7.72632C8.73863 7.01832 8.38462 6.16721 8.38462 5.17299C8.38462 4.17876 8.73863 3.32764 9.44663 2.61964C10.1546 1.91162 11.0058 1.55762 12 1.55762C12.9942 1.55762 13.8453 1.91162 14.5533 2.61964C15.2613 3.32764 15.6153 4.17876 15.6153 5.17299C15.6153 6.16721 15.2613 7.01832 14.5533 7.72632C13.8453 8.43433 12.9942 8.78834 12 8.78834ZM12.0003 7.28837C12.5821 7.28837 13.0801 7.0812 13.4942 6.66687C13.9083 6.25255 14.1154 5.75447 14.1154 5.17264C14.1154 4.59081 13.9082 4.09284 13.4939 3.67874C13.0795 3.26464 12.5815 3.05759 11.9996 3.05759C11.4178 3.05759 10.9199 3.26476 10.5058 3.67909C10.0916 4.09343 9.88458 4.5915 9.88458 5.17332C9.88458 5.75515 10.0917 6.25312 10.5061 6.66722C10.9204 7.08132 11.4185 7.28837 12.0003 7.28837Z" fill="#000"/>
</svg>
