<svg width="24" height="24" viewBox="0 0 24 24" fill="none" xmlns="http://www.w3.org/2000/svg">
<path d="M12.199 20.963C11.923 20.963 11.6853 20.871 11.486 20.687C11.302 20.4877 11.21 20.25 11.21 19.974V3H13.188V19.974C13.188 20.25 13.096 20.4877 12.912 20.687C12.728 20.871 12.4903 20.963 12.199 20.963ZM5.92 4.817C5.644 4.817 5.42167 4.73267 5.253 4.564C5.08433 4.38 5 4.16533 5 3.92C5 3.644 5.08433 3.42167 5.253 3.253C5.42167 3.08433 5.644 3 5.92 3H18.501C18.777 3 18.9993 3.08433 19.168 3.253C19.3367 3.42167 19.421 3.644 19.421 3.92C19.421 4.16533 19.3367 4.38 19.168 4.564C18.9993 4.73267 18.777 4.817 18.501 4.817H5.92Z" fill="#000"/>
</svg>
