<svg width="24" height="24" viewBox="0 0 24 24" fill="none" xmlns="http://www.w3.org/2000/svg">
<path fill-rule="evenodd" clip-rule="evenodd" d="M6.89278 4.94164C5.9377 4.94164 5.02173 5.32105 4.34639 5.99639C3.67104 6.67174 3.29164 7.58771 3.29164 8.54279V12.1439H10.4939V8.54279C10.4939 7.58771 10.1145 6.67174 9.43918 5.99639C8.76383 5.32105 7.84787 4.94164 6.89278 4.94164ZM10.4939 14.1605V20.0665C10.4939 20.6233 10.9454 21.0748 11.5023 21.0748C12.0591 21.0748 12.5106 20.6233 12.5106 20.0665V13.1522V8.54279C12.5106 7.05286 11.9187 5.62395 10.8652 4.57041C9.81162 3.51687 8.38271 2.925 6.89278 2.925C5.40285 2.925 3.97395 3.51687 2.92041 4.57041C1.86687 5.62395 1.27499 7.05286 1.27499 8.54279V13.1522V20.0665C1.27499 20.6233 1.72643 21.0748 2.28332 21.0748C2.8402 21.0748 3.29164 20.6233 3.29164 20.0665V14.1605H10.4939ZM15.9678 16.6093C15.9678 15.2569 17.0642 14.1605 18.4166 14.1605C19.7592 14.1605 20.8494 15.241 20.8652 16.5798V16.6388C20.8494 17.9776 19.7592 19.0581 18.4166 19.0581C17.0642 19.0581 15.9678 17.9617 15.9678 16.6093ZM20.898 20.3224C20.1883 20.7976 19.3348 21.0747 18.4166 21.0747C15.9504 21.0747 13.9512 19.0755 13.9512 16.6093C13.9512 14.1431 15.9504 12.1439 18.4166 12.1439C19.3348 12.1439 20.1883 12.421 20.898 12.8962C21.0112 12.4633 21.4051 12.1439 21.8735 12.1439C22.4304 12.1439 22.8818 12.5953 22.8818 13.1522V16.5695L22.882 16.6093L22.8818 16.6491V20.0664C22.8818 20.6233 22.4304 21.0747 21.8735 21.0747C21.4051 21.0747 21.0112 20.7553 20.898 20.3224Z" fill="#4A4A4A"/>
</svg>
