<svg width="24" height="24" viewBox="0 0 24 24" fill="none" xmlns="http://www.w3.org/2000/svg">
<path fill-rule="evenodd" clip-rule="evenodd" d="M6.28571 3C5.93577 3 5.60564 3.13542 5.36655 3.36787C5.12841 3.59939 5 3.9073 5 4.22222V19.7778C5 20.0927 5.12841 20.4006 5.36655 20.6321C5.60564 20.8646 5.93577 21 6.28571 21H17.7143C18.0642 21 18.3944 20.8646 18.6335 20.6321C18.8716 20.4006 19 20.0927 19 19.7778V8H16C15.4696 8 14.9609 7.78929 14.5858 7.41421C14.2107 7.03914 14 6.53043 14 6V3H6.28571ZM16 6H17.986L16 4.08084V6ZM21 19.7778V7V6.55556C21 6.2844 20.8899 6.02487 20.6949 5.83645L15.9806 1.28089C15.7942 1.10071 15.545 1 15.2857 1H15H6.28571C5.42324 1 4.59061 1.33284 3.97239 1.93388C3.35322 2.53585 3 3.3584 3 4.22222V19.7778C3 20.6416 3.35322 21.4641 3.97239 22.0661C4.59061 22.6672 5.42324 23 6.28571 23H17.7143C18.5768 23 19.4094 22.6672 20.0276 22.0661C20.6468 21.4641 21 20.6416 21 19.7778ZM8 6C7.44772 6 7 6.44772 7 7C7 7.55228 7.44772 8 8 8H11C11.5523 8 12 7.55228 12 7C12 6.44772 11.5523 6 11 6H8ZM7 12C7 11.4477 7.44772 11 8 11H16C16.5523 11 17 11.4477 17 12C17 12.5523 16.5523 13 16 13H8C7.44772 13 7 12.5523 7 12ZM12 16C11.4477 16 11 16.4477 11 17C11 17.5523 11.4477 18 12 18H16C16.5523 18 17 17.5523 17 17C17 16.4477 16.5523 16 16 16H12Z" fill="#000"/>
</svg>
