<svg width="24" height="24" viewBox="0 0 24 24" fill="none" xmlns="http://www.w3.org/2000/svg">
<path fill-rule="evenodd" clip-rule="evenodd" d="M2 4C1.44772 4 1 4.44772 1 5C1 5.55228 1.44772 6 2 6H8V19C8 19.5523 8.44772 20 9 20C9.55228 20 10 19.5523 10 19V6H16C16.5523 6 17 5.55228 17 5C17 4.44772 16.5523 4 16 4H2ZM17 12H14C13.4477 12 13 11.5523 13 11C13 10.4477 13.4477 10 14 10H22C22.5523 10 23 10.4477 23 11C23 11.5523 22.5523 12 22 12H19V19C19 19.5523 18.5523 20 18 20C17.4477 20 17 19.5523 17 19V12Z" fill="#000"/>
</svg>
