<svg width="24" height="24" viewBox="0 0 24 24" fill="none" xmlns="http://www.w3.org/2000/svg">
<path fill-rule="evenodd" clip-rule="evenodd" d="M15.865 3.93149C15.4051 3.87951 14.9373 3.89457 14.4767 3.9785C13.5244 4.15201 12.6476 4.61164 11.9631 5.29612C11.2786 5.9806 10.819 6.85742 10.6455 7.80974C10.472 8.76207 10.5928 9.74465 10.9919 10.6266C11.1553 10.9877 11.0779 11.4123 10.7976 11.6926L4.2166 18.2737C4.01632 18.474 3.90381 18.7456 3.90381 19.0288C3.90381 19.3121 4.01632 19.5837 4.2166 19.784C4.41688 19.9842 4.68851 20.0968 4.97174 20.0968C5.25498 20.0968 5.52661 19.9842 5.72689 19.784L12.3079 13.2029C12.5882 12.9226 13.0129 12.8453 13.374 13.0087C14.2559 13.4078 15.2385 13.5286 16.1908 13.3551C17.1431 13.1816 18.02 12.722 18.7045 12.0375C19.3889 11.353 19.8486 10.4762 20.0221 9.52385C20.106 9.06322 20.1211 8.59552 20.0691 8.13555L17.6195 10.5851C17.2635 10.9341 16.7847 11.1295 16.2862 11.1295C15.7876 11.1295 15.3089 10.9341 14.9528 10.5851L14.946 10.5784L13.4155 9.04779C13.0665 8.69173 12.871 8.21299 12.871 7.7144C12.871 7.21582 13.0665 6.73711 13.4155 6.38106L13.4222 6.37425L15.865 3.93149ZM14.1353 2.10457C15.4685 1.86164 16.8442 2.03081 18.0788 2.58952C18.3637 2.71842 18.5671 2.97891 18.6231 3.28649C18.6792 3.59408 18.5807 3.90958 18.3596 4.13065L14.7759 7.7144L16.2862 9.2247L19.8699 5.64095C20.091 5.41987 20.4065 5.32138 20.7141 5.37742C21.0217 5.43346 21.2821 5.6369 21.411 5.92174C21.9698 7.15641 22.1389 8.53203 21.896 9.86528C21.6531 11.1985 21.0096 12.4261 20.0513 13.3844C19.0931 14.3426 17.8655 14.9861 16.5323 15.229C15.4204 15.4316 14.279 15.3476 13.2146 14.9901L7.07378 21.1309C6.51628 21.6883 5.76016 22.0015 4.97174 22.0015C4.18333 22.0015 3.42721 21.6883 2.86971 21.1309C2.31222 20.5734 1.99902 19.8172 1.99902 19.0288C1.99902 18.2404 2.31222 17.4843 2.86971 16.9268L9.01051 10.786C8.65297 9.72152 8.56896 8.58018 8.77154 7.46831C9.01446 6.13506 9.65793 4.9075 10.6162 3.94923C11.5745 2.99096 12.802 2.34749 14.1353 2.10457Z" fill="#000"/>
</svg>
