<svg width="24" height="24" viewBox="0 0 24 24" fill="none" xmlns="http://www.w3.org/2000/svg">
<rect x="5" y="20.5" width="14" height="2" rx="1" fill="#4A4A4A"/>
<path d="M12.0558 18C10.6715 18 9.44338 17.7379 8.37161 17.2136C7.31473 16.6893 6.48857 15.9628 5.89314 15.0341C5.29771 14.0904 5 13.0194 5 11.8211V3.96616C5 3.68155 5.08931 3.44937 5.26794 3.26962C5.44657 3.08987 5.6773 3 5.96013 3C6.24296 3 6.47368 3.08987 6.65231 3.26962C6.83094 3.44937 6.92026 3.68155 6.92026 3.96616V11.8211C6.92026 12.6749 7.1361 13.4313 7.56778 14.0904C7.99947 14.7495 8.60234 15.2663 9.3764 15.6408C10.1653 16.0153 11.0585 16.2025 12.0558 16.2025C13.0383 16.2025 13.9016 16.0153 14.6459 15.6408C15.4051 15.2663 16.0005 14.7495 16.4322 14.0904C16.8639 13.4313 17.0797 12.6749 17.0797 11.8211V3.96616C17.0797 3.68155 17.1691 3.44937 17.3477 3.26962C17.5412 3.08987 17.7719 3 18.0399 3C18.3376 3 18.5683 3.08987 18.7321 3.26962C18.9107 3.44937 19 3.68155 19 3.96616V11.8211C19 13.0194 18.7023 14.0904 18.1069 15.0341C17.5114 15.9628 16.6927 16.6893 15.6507 17.2136C14.6087 17.7379 13.4104 18 12.0558 18Z" fill="#4A4A4A"/>
</svg>
