<svg width="24" height="24" viewBox="0 0 24 24" fill="none" xmlns="http://www.w3.org/2000/svg">
<path fill-rule="evenodd" clip-rule="evenodd" d="M9.70711 13.7071C10.0976 13.3166 10.0976 12.6834 9.70711 12.2929L5.41421 8L9.70711 3.70711C10.0976 3.31658 10.0976 2.68342 9.70711 2.29289C9.31658 1.90237 8.68342 1.90237 8.29289 2.29289L3.29289 7.29289C2.90237 7.68342 2.90237 8.31658 3.29289 8.70711L8.29289 13.7071C8.68342 14.0976 9.31658 14.0976 9.70711 13.7071Z" fill="#000"/>
<path fill-rule="evenodd" clip-rule="evenodd" d="M20 20C20.5523 20 21 19.5523 21 19V12C21 10.6739 20.4732 9.40215 19.5355 8.46447C18.5979 7.52678 17.3261 7 16 7L4 7C3.44772 7 3 7.44771 3 8C3 8.55229 3.44772 9 4 9L16 9C16.7956 9 17.5587 9.31607 18.1213 9.87868C18.6839 10.4413 19 11.2044 19 12V19C19 19.5523 19.4477 20 20 20Z" fill="#000"/>
</svg>
