<svg width="17" height="16" viewBox="0 0 17 16" fill="none" xmlns="http://www.w3.org/2000/svg">
<path fill-rule="evenodd" clip-rule="evenodd" d="M8.49998 0.666992C8.67861 0.666992 8.84977 0.738679 8.97508 0.865981L12.9751 4.92947C13.2334 5.19186 13.2301 5.61396 12.9677 5.87225C12.7053 6.13054 12.2832 6.12722 12.0249 5.86483L8.49998 2.28398L4.97508 5.86483C4.71679 6.12722 4.29469 6.13054 4.0323 5.87225C3.76991 5.61396 3.76659 5.19186 4.02488 4.92947L8.02488 0.865981C8.15019 0.738679 8.32135 0.666992 8.49998 0.666992Z" fill="#4A4A4A"/>
<path fill-rule="evenodd" clip-rule="evenodd" d="M4.0323 10.1916C4.29469 9.93327 4.71679 9.9366 4.97508 10.199L8.49998 13.7798L12.0249 10.199C12.2832 9.9366 12.7053 9.93327 12.9677 10.1916C13.2301 10.4499 13.2334 10.872 12.9751 11.1343L8.97508 15.1978C8.84977 15.3251 8.67861 15.3968 8.49998 15.3968C8.32135 15.3968 8.15019 15.3251 8.02488 15.1978L4.02488 11.1343C3.76659 10.872 3.76991 10.4499 4.0323 10.1916Z" fill="#4A4A4A"/>
</svg>
