<svg width="24" height="24" viewBox="0 0 24 24" fill="none" xmlns="http://www.w3.org/2000/svg">
<g clip-path="url(#clip0_2465_256)">
<path fill-rule="evenodd" clip-rule="evenodd" d="M7.97531 4.5C7.99164 4.33555 8 4.16875 8 4C8 3.4774 7.91982 2.97352 7.7711 2.5L20.5556 2.5C22.4427 2.5 23.9853 4.0144 23.9999 5.90152C24.0003 5.91695 24.0003 5.93238 24 5.9478L24 18.0714C24 19.9711 22.4517 21.5 20.5556 21.5L3.44444 21.5C1.54828 21.5 0 19.9711 0 18.0714L0 8.00037C0.581411 8.43708 1.26112 8.75 2 8.89998L2 18.0714C2 18.8543 2.64055 19.5 3.44444 19.5L20.5556 19.5C21.3595 19.5 22 18.8543 22 18.0714L22 7.78971L12.5523 14.0473C12.2176 14.269 11.7827 14.269 11.4479 14.0473L3.74442 8.94496C4.57014 8.82171 5.32989 8.49656 5.97185 8.02136L12.0001 12.0141L21.9156 5.44673C21.7164 4.89744 21.1862 4.5 20.5556 4.5L7.97531 4.5Z" fill="#000"/>
<path fill-rule="evenodd" clip-rule="evenodd" d="M3 7C4.65685 7 6 5.65685 6 4C6 2.34315 4.65685 1 3 1C1.34315 1 0 2.34315 0 4C0 5.65685 1.34315 7 3 7Z" fill="#000"/>
</g>
<defs>
<clipPath id="clip0_2465_256">
<rect width="24" height="24" fill="white"/>
</clipPath>
</defs>
</svg>
