<svg width="32" height="32" viewBox="0 0 32 32" fill="none" xmlns="http://www.w3.org/2000/svg">
<g id="upcoming">
<path id="Union" fill-rule="evenodd" clip-rule="evenodd" d="M4.69877 11.4184C7.23856 5.26335 14.2649 2.33231 20.3871 4.85855C22.1311 5.57819 23.613 6.6617 24.7833 7.98609L22.717 8.13574C21.9825 8.18893 21.4302 8.82745 21.4834 9.5619C21.5366 10.2964 22.1751 10.8486 22.9096 10.7954L27.37 10.4724C28.01 10.4261 28.5262 9.9305 28.5985 9.29298L29.1461 4.47055C29.2291 3.73888 28.7033 3.07839 27.9717 2.99532C27.24 2.91224 26.5795 3.43804 26.4964 4.16972L26.3202 5.72206C24.9668 4.32719 23.3127 3.18098 21.4042 2.3935C13.9123 -0.697947 5.33183 2.89313 2.23372 10.4012C0.375022 14.9056 0.910646 19.801 3.24992 23.6614C3.63154 24.2912 4.45144 24.4924 5.08122 24.1108C5.711 23.7292 5.91217 22.9093 5.53055 22.2795C3.61291 19.1148 3.17618 15.1083 4.69877 11.4184ZM21.8014 29.3992C22.4724 29.0959 22.7704 28.306 22.4671 27.635C22.1637 26.964 21.3739 26.666 20.7029 26.9693C19.9613 27.3046 19.1901 27.5599 18.403 27.7354C17.6843 27.8957 17.2315 28.6082 17.3918 29.3269C17.552 30.0457 18.2646 30.4984 18.9833 30.3382C19.9454 30.1236 20.8905 29.811 21.8014 29.3992ZM7.57445 24.8033C7.03743 24.2995 6.19364 24.3263 5.68979 24.8634C5.18594 25.4004 5.21282 26.2442 5.74984 26.748C6.59518 27.5411 7.54464 28.2419 8.58828 28.8273C9.23054 29.1875 10.0432 28.9589 10.4034 28.3166C10.7637 27.6744 10.5351 26.8617 9.8928 26.5015C9.03969 26.023 8.26449 25.4507 7.57445 24.8033ZM15.0735 30.6754C15.8091 30.7097 16.4332 30.1413 16.4676 29.4057C16.5019 28.6701 15.9335 28.046 15.1979 28.0116C14.4208 27.9753 13.6476 27.8647 12.8911 27.6804C12.1757 27.5061 11.4544 27.9448 11.2801 28.6602C11.1058 29.3757 11.5445 30.097 12.26 30.2713C13.1837 30.4963 14.1266 30.6311 15.0735 30.6754ZM13.3333 8.72206C13.3333 7.95503 13.9302 7.33324 14.6666 7.33324C15.403 7.33324 15.9999 7.95503 15.9999 8.72206V17.2173L20.1904 20.8806C20.7545 21.3736 20.828 22.2497 20.3546 22.8372C19.8812 23.4247 19.0402 23.5013 18.4761 23.0082L13.8095 18.9287C13.5076 18.6648 13.3333 18.2753 13.3333 17.8649V8.72206Z" fill="#000"/>
</g>
</svg>
