<svg xmlns="http://www.w3.org/2000/svg" viewBox="0 0 24 24"><path d="M18.21,13a.88.88,0,0,1,1.12-.54,4.48,4.48,0,0,1,2.38,2.07,6.82,6.82,0,0,1,.86,3.33v2.36a.89.89,0,0,1-1.77,0V17.81a4.87,4.87,0,0,0-.62-2.45,2.78,2.78,0,0,0-1.42-1.29A.88.88,0,0,1,18.21,13Z" fill="#000" fill-rule="evenodd"/><path d="M14.81,2.9a.87.87,0,0,1,.91-.85,4.51,4.51,0,0,1,3.91,6.46,4.56,4.56,0,0,1-2.05,2.09.89.89,0,0,1-1.19-.39A.88.88,0,0,1,16.79,9,2.87,2.87,0,0,0,18,7.75,2.76,2.76,0,0,0,18.24,6a2.73,2.73,0,0,0-.92-1.53,2.77,2.77,0,0,0-1.67-.64A.88.88,0,0,1,14.81,2.9Z" fill="#000" fill-rule="evenodd"/><path d="M2.76,15.5A4.44,4.44,0,0,1,6.06,14h7.48a4.46,4.46,0,0,1,3.3,1.5A5.22,5.22,0,0,1,18.16,19v2.06a.88.88,0,0,1-1.76,0V19a3.47,3.47,0,0,0-.86-2.31,2.71,2.71,0,0,0-2-.91H6.06a2.71,2.71,0,0,0-2,.91A3.42,3.42,0,0,0,3.2,19v2.06a.89.89,0,0,1-1.77,0V19A5.18,5.18,0,0,1,2.76,15.5Z" fill="#000" fill-rule="evenodd"/><path d="M9.8,4.32A3.08,3.08,0,1,0,12.88,7.4,3.08,3.08,0,0,0,9.8,4.32ZM5,7.4A4.84,4.84,0,1,1,9.8,12.24,4.84,4.84,0,0,1,5,7.4Z" fill="#000" fill-rule="evenodd"/></svg>