<svg width="24" height="24" viewBox="0 0 24 24" fill="none" xmlns="http://www.w3.org/2000/svg">
<g clip-path="url(#clip0_108_19)">
<path fill-rule="evenodd" clip-rule="evenodd" d="M19.0553 12.8028C19.236 12.2809 19.8055 12.0043 20.3274 12.1849C21.4551 12.5753 22.3886 13.4316 23.0273 14.5363C23.6664 15.6416 23.9995 16.9713 24.0003 18.3179V20.9999C24.0003 21.5522 23.5526 21.9999 23.0003 21.9999C22.448 21.9999 22.0003 21.5522 22.0003 20.9999L22.0003 18.319C21.9996 17.2893 21.7427 16.3101 21.2959 15.5374C20.8487 14.7638 20.2618 14.2786 19.6731 14.0749C19.1512 13.8942 18.8746 13.3247 19.0553 12.8028Z" fill="#000"/>
<path fill-rule="evenodd" clip-rule="evenodd" d="M15.1866 1.38413C15.2068 0.832215 15.6707 0.401232 16.2226 0.421501C17.3607 0.463298 18.4525 0.882689 19.3259 1.61355C20.1993 2.34442 20.8047 3.34519 21.0465 4.45809C21.2883 5.57099 21.1528 6.73271 20.6614 7.76011C20.17 8.78751 19.3507 9.62214 18.3325 10.1324C17.8388 10.3799 17.2379 10.1802 16.9905 9.6865C16.743 9.19276 16.9426 8.59189 17.4364 8.34443C18.0575 8.03312 18.5574 7.52394 18.8571 6.89717C19.1569 6.27039 19.2396 5.56166 19.0921 4.88273C18.9445 4.20379 18.5753 3.59326 18.0424 3.14738C17.5096 2.70151 16.8435 2.44565 16.1492 2.42015C15.5973 2.39988 15.1663 1.93604 15.1866 1.38413Z" fill="#000"/>
<path fill-rule="evenodd" clip-rule="evenodd" d="M1.50545 15.6935C2.48124 14.6221 3.82583 14 5.25 14H13.75C15.1742 14 16.5188 14.6221 17.4945 15.6935C18.4675 16.7618 19 18.1924 19 19.6667V22C19 22.5523 18.5523 23 18 23C17.4477 23 17 22.5523 17 22V19.6667C17 18.6656 16.637 17.7222 16.0159 17.0402C15.3976 16.3613 14.5802 16 13.75 16H5.25C4.41983 16 3.60241 16.3613 2.98414 17.0402C2.36303 17.7222 2 18.6656 2 19.6667V22C2 22.5523 1.55228 23 1 23C0.447715 23 0 22.5523 0 22V19.6667C0 18.1924 0.532504 16.7618 1.50545 15.6935Z" fill="#000"/>
<path fill-rule="evenodd" clip-rule="evenodd" d="M9.5 3C7.567 3 6 4.567 6 6.5C6 8.433 7.567 10 9.5 10C11.433 10 13 8.433 13 6.5C13 4.567 11.433 3 9.5 3ZM4 6.5C4 3.46243 6.46243 1 9.5 1C12.5376 1 15 3.46243 15 6.5C15 9.53757 12.5376 12 9.5 12C6.46243 12 4 9.53757 4 6.5Z" fill="#000"/>
</g>
<defs>
<clipPath id="clip0_108_19">
<rect width="24" height="24" fill="white"/>
</clipPath>
</defs>
</svg>
