<svg width="40" height="40" viewBox="0 0 40 40" fill="none" xmlns="http://www.w3.org/2000/svg">
<path fill-rule="evenodd" clip-rule="evenodd" d="M1.66663 18.3334C1.66663 9.12867 9.12855 1.66675 18.3333 1.66675C27.538 1.66675 35 9.12867 35 18.3334C35 27.5382 27.538 35.0001 18.3333 35.0001C9.12855 35.0001 1.66663 27.5382 1.66663 18.3334Z" fill="white"/>
<path fill-rule="evenodd" clip-rule="evenodd" d="M18.3333 5.00008C10.9695 5.00008 4.99996 10.9696 4.99996 18.3334C4.99996 25.6972 10.9695 31.6668 18.3333 31.6668C25.6971 31.6668 31.6666 25.6972 31.6666 18.3334C31.6666 10.9696 25.6971 5.00008 18.3333 5.00008ZM1.66663 18.3334C1.66663 9.12867 9.12855 1.66675 18.3333 1.66675C27.538 1.66675 35 9.12867 35 18.3334C35 27.5382 27.538 35.0001 18.3333 35.0001C9.12855 35.0001 1.66663 27.5382 1.66663 18.3334Z" fill="#FFCBA0"/>
<path fill-rule="evenodd" clip-rule="evenodd" d="M28.8215 28.8214C29.4724 28.1705 30.5277 28.1705 31.1786 28.8214L37.8452 35.4881C38.4961 36.1389 38.4961 37.1942 37.8452 37.8451C37.1943 38.496 36.1391 38.496 35.4882 37.8451L28.8215 31.1784C28.1707 30.5276 28.1707 29.4723 28.8215 28.8214Z" fill="#FFCBA0"/>
<path fill-rule="evenodd" clip-rule="evenodd" d="M11.115 24.1321C12.0179 22.8524 15.3467 22 16.8569 22H20.1431C21.6533 22 24.9821 22.8524 25.885 24.1321C26.4973 25 25.2139 26.9403 24.57 27.4537C22.9804 28.7211 20.5925 28.9747 18.5 28.9987C16.4175 29.0226 14.0254 28.7257 12.43 27.4537C11.7861 26.9403 10.5 25.0038 11.115 24.1321Z" fill="#B9E3F8"/>
<path fill-rule="evenodd" clip-rule="evenodd" d="M13 14.5C13 11.4624 15.4624 9 18.5 9C21.5376 9 24 11.4624 24 14.5C24 17.5376 21.5376 20 18.5 20C15.4624 20 13 17.5376 13 14.5Z" fill="#B9E3F8"/>
</svg>
