<svg width="24" height="24" viewBox="0 0 24 24" fill="none" xmlns="http://www.w3.org/2000/svg">
<path fill-rule="evenodd" clip-rule="evenodd" d="M4.00545 14.6935C4.98124 13.6221 6.32583 13 7.75 13H16.25C17.6742 13 19.0188 13.6221 19.9945 14.6935C20.9675 15.7618 21.5 17.1924 21.5 18.6667V21C21.5 21.5523 21.0523 22 20.5 22C19.9477 22 19.5 21.5523 19.5 21V18.6667C19.5 17.6656 19.137 16.7222 18.5159 16.0402C17.8976 15.3613 17.0802 15 16.25 15H7.75C6.91983 15 6.10241 15.3613 5.48414 16.0402C4.86303 16.7222 4.5 17.6656 4.5 18.6667V21C4.5 21.5523 4.05228 22 3.5 22C2.94772 22 2.5 21.5523 2.5 21V18.6667C2.5 17.1924 3.0325 15.7618 4.00545 14.6935Z" fill="#000"/>
<path fill-rule="evenodd" clip-rule="evenodd" d="M12 2C10.067 2 8.5 3.567 8.5 5.5C8.5 7.433 10.067 9 12 9C13.933 9 15.5 7.433 15.5 5.5C15.5 3.567 13.933 2 12 2ZM6.5 5.5C6.5 2.46243 8.96243 0 12 0C15.0376 0 17.5 2.46243 17.5 5.5C17.5 8.53757 15.0376 11 12 11C8.96243 11 6.5 8.53757 6.5 5.5Z" fill="#000"/>
</svg>
