<svg width="24" height="24" viewBox="0 0 24 24" fill="none" xmlns="http://www.w3.org/2000/svg">
<path fill-rule="evenodd" clip-rule="evenodd" d="M4 4.962C4 4.37608 4.43498 4 4.853 4H6.5V6H4V4.962ZM4 8H6.5V11H4V8ZM2 12V4.962C2 3.38075 3.22425 2 4.853 2H7.5H15.5H18.147C19.7757 2 21 3.38075 21 4.962V12V19.038C21 20.6192 19.7758 22 18.147 22H15.5H7.5H4.853C3.22425 22 2 20.6192 2 19.038V12ZM19 6V4.962C19 4.37608 18.565 4 18.147 4H16.5V6H19ZM19 8H16.5V11H19V8ZM16.5 13H19V16H16.5V13ZM16.5 18H19V19.038C19 19.6239 18.565 20 18.147 20H16.5V18ZM14.5 11V4H8.5V11H14.5ZM8.5 13H14.5V20H8.5V13ZM6.5 18V20H4.853C4.43498 20 4 19.6239 4 19.038V18H6.5ZM6.5 16V13H4V16H6.5Z" fill="#000"/>
</svg>
