<svg version="1.1"
    xmlns="http://www.w3.org/2000/svg"
    viewBox="0 0 24 24">
    <path d="M13.7,19.3v-2.5c0-0.2-0.2-0.4-0.4-0.4h-2.6c-0.2,0-0.4,0.2-0.4,0.4v2.5c0,0.2,0.2,0.4,0.4,0.4h2.6	C13.5,19.7,13.7,19.5,13.7,19.3z M13.7,14.3l0.2-6.1c0-0.1,0-0.2-0.1-0.3c-0.1-0.1-0.2-0.1-0.3-0.1h-2.9c-0.1,0-0.2,0.1-0.3,0.1	c-0.1,0.1-0.1,0.2-0.1,0.3l0.2,6.1c0,0.2,0.2,0.3,0.5,0.3h2.5C13.5,14.6,13.7,14.4,13.7,14.3z M13.5,1.8l10.3,18.9	c0.3,0.5,0.3,1.2,0,1.7c-0.3,0.5-0.9,0.8-1.5,0.8H1.7c-0.6,0-1.2-0.3-1.5-0.8c-0.3-0.5-0.3-1.2,0-1.7L10.5,1.8	c0.3-0.5,0.9-0.9,1.5-0.9S13.2,1.2,13.5,1.8z"
        fill="#000" />
</svg>