<svg width="24" height="24" viewBox="0 0 24 24" fill="none" xmlns="http://www.w3.org/2000/svg">
<path d="M22 8.5C22 9.60457 21.1046 10.5 20 10.5L4 10.5C2.89543 10.5 2 9.60457 2 8.5V5.5C2 4.39543 2.89543 3.5 4 3.5L20 3.5C21.1046 3.5 22 4.39543 22 5.5V8.5ZM22 18.5C22 19.6046 21.1046 20.5 20 20.5L4 20.5C2.89543 20.5 2 19.6046 2 18.5V15.5C2 14.3954 2.89543 13.5 4 13.5L20 13.5C21.1046 13.5 22 14.3954 22 15.5V18.5ZM4 5.5V8.5L20 8.5V5.5L4 5.5ZM4 15.5V18.5L20 18.5L20 15.5L4 15.5Z" fill="#4A4A4A"/>
</svg>
