<?xml version="1.0" encoding="UTF-8" standalone="no"?>
<svg
   xmlns:dc="http://purl.org/dc/elements/1.1/"
   xmlns:cc="http://creativecommons.org/ns#"
   xmlns:rdf="http://www.w3.org/1999/02/22-rdf-syntax-ns#"
   xmlns:svg="http://www.w3.org/2000/svg"
   xmlns="http://www.w3.org/2000/svg"
   xmlns:sodipodi="http://sodipodi.sourceforge.net/DTD/sodipodi-0.dtd"
   xmlns:inkscape="http://www.inkscape.org/namespaces/inkscape"
   width="22px"
   height="12px"
   viewBox="0 0 22 12"
   version="1.1"
   id="svg6162"
   inkscape:version="0.91 r13725"
   sodipodi:docname="attached.svg">
  <metadata
     id="metadata6175">
    <rdf:RDF>
      <cc:Work
         rdf:about="">
        <dc:format>image/svg+xml</dc:format>
        <dc:type
           rdf:resource="http://purl.org/dc/dcmitype/StillImage" />
        <dc:title>Shape</dc:title>
      </cc:Work>
    </rdf:RDF>
  </metadata>
  <sodipodi:namedview
     pagecolor="#ffffff"
     bordercolor="#666666"
     borderopacity="1"
     objecttolerance="10"
     gridtolerance="10"
     guidetolerance="10"
     inkscape:pageopacity="0"
     inkscape:pageshadow="2"
     inkscape:window-width="1920"
     inkscape:window-height="1022"
     id="namedview6173"
     showgrid="false"
     inkscape:zoom="11.863636"
     inkscape:cx="11"
     inkscape:cy="6"
     inkscape:window-x="0"
     inkscape:window-y="0"
     inkscape:window-maximized="1"
     inkscape:current-layer="svg6162" />
  <!-- Generator: Sketch 48.2 (47327) - http://www.bohemiancoding.com/sketch -->
  <title
     id="title6164">Shape</title>
  <desc
     id="desc6166">Created with Sketch.</desc>
  <defs
     id="defs6168" />
  <g
     style="fill:#ffffff;fill-rule:nonzero;stroke:none;stroke-width:1"
     id="Navigation_Nouveau_Message"
     transform="translate(-282,-48)">
    <path
       id="Shape"
       transform="matrix(0,1,-1,0,347,-239)"
       d="m 297.36364,48 0,11.5 c 0,2.21 -1.95273,4 -4.36364,4 -2.41091,0 -4.36364,-1.79 -4.36364,-4 l 0,-12.5 c 0,-1.38 1.22182,-2.5 2.72728,-2.5 1.50545,0 2.72727,1.12 2.72727,2.5 l 0,10.5 c 0,0.55 -0.49091,1 -1.09091,1 -0.6,0 -1.09091,-0.45 -1.09091,-1 l 0,-9.5 -1.63636,0 0,9.5 c 0,1.38 1.22182,2.5 2.72727,2.5 1.50545,0 2.72727,-1.12 2.72727,-2.5 l 0,-10.5 c 0,-2.21 -1.95273,-4 -4.36363,-4 C 288.95273,43 287,44.79 287,47 l 0,12.5 c 0,3.04 2.68364,5.5 6,5.5 3.31636,0 6,-2.46 6,-5.5 l 0,-11.5 -1.63636,0 z" />
  </g>
</svg>
