<?xml version="1.0" encoding="UTF-8"?>
<svg width="19px" height="17px" viewBox="0 0 19 17" version="1.1" xmlns="http://www.w3.org/2000/svg" xmlns:xlink="http://www.w3.org/1999/xlink">
    <!-- Generator: Sketch 48.2 (47327) - http://www.bohemiancoding.com/sketch -->
    <title>Camera_Grey</title>
    <desc>Created with Sketch.</desc>
    <defs>
        <path d="M13.80825,2.84327707 L12.47255,0.844638266 C12.11915,0.317035512 11.52825,0.00161052632 10.89175,0.00161052632 L8.10825,0.00161052632 C7.47175,0.00161052632 6.88085,0.317035512 6.52745,0.844638266 L5.19175,2.84327707 L1.9,2.84327707 C0.85215,2.84327707 0,3.69293536 0,4.73772143 L0,15.1571654 C0,16.2010042 0.85215,17 1.9,17 L17.1,17 C18.14785,17 19,16.2010042 19,15.1571654 L19,4.73772143 C19,3.69293536 18.14785,2.84327707 17.1,2.84327707 L13.80825,2.84327707 Z" id="path-1"></path>
    </defs>
    <g id="Input_Keyboard" stroke="none" stroke-width="1" fill="none" fill-rule="evenodd" transform="translate(-62.000000, -43.000000)">
        <g id="Tab_Bar">
            <g id="Camera" transform="translate(62.000000, 43.000000)">
                <g id="Camera_Grey">
                    <g id="Fill-3041">
                        <use fill="#FFFFFF" fill-rule="evenodd" xlink:href="#path-1"></use>
                        <path stroke="#858FA9" stroke-width="2" d="M17.1,3.84327707 L13.273795,3.84327707 L12.9768289,3.39891984 L11.6417117,1.40115215 C11.4738959,1.1506143 11.1945651,1.00161053 10.89175,1.00161053 L8.10825,1.00161053 C7.80543488,1.00161053 7.5261041,1.1506143 7.35887114,1.40028104 L5.72620505,3.84327707 L1.9,3.84327707 C1.40378029,3.84327707 1,4.24587669 1,4.73772143 L1,15.1571654 C1,15.6298618 1.38559472,16 1.9,16 L17.1,16 C17.6144053,16 18,15.6298618 18,15.1571654 L18,4.73772143 C18,4.24587669 17.5962197,3.84327707 17.1,3.84327707 Z"></path>
                    </g>
                    <path d="M9.5,13 C7.57033333,13 6,11.4296667 6,9.5 C6,7.57033333 7.57033333,6 9.5,6 C11.4296667,6 13,7.57033333 13,9.5 C13,11.4296667 11.4296667,13 9.5,13" id="Fill-3040" stroke="#858FA9" stroke-width="2" fill="#FFFFFF"></path>
                </g>
            </g>
        </g>
    </g>
</svg>