<?xml version="1.0" encoding="UTF-8"?>
<svg width="10px" height="9px" viewBox="0 0 10 9" version="1.1" xmlns="http://www.w3.org/2000/svg" xmlns:xlink="http://www.w3.org/1999/xlink">
    <!-- Generator: Sketch 48.2 (47327) - http://www.bohemiancoding.com/sketch -->
    <title>Camera_Icon</title>
    <desc>Created with Sketch.</desc>
    <defs></defs>
    <g id="Mon_Profil_V1.1" stroke="none" stroke-width="1" fill="none" fill-rule="evenodd" transform="translate(-65.000000, -150.000000)">
        <g id="Header_Profile_Android" transform="translate(0.000000, 84.000000)">
            <g id="Camera">
                <g transform="translate(60.000000, 60.000000)">
                    <g id="Camera_Icon" transform="translate(5.000000, 6.000000)">
                        <g id="Icon">
                            <path d="M9,1.42185789 L7.2675,1.42185789 L6.5645,0.422384211 C6.3785,0.158542105 6.0675,0.000805263158 5.7325,0.000805263158 L4.2675,0.000805263158 C3.9325,0.000805263158 3.6215,0.158542105 3.4355,0.422384211 L2.7325,1.42185789 L1,1.42185789 C0.4485,1.42185789 0,1.84675263 0,2.36922632 L0,7.57975263 C0,8.10175263 0.4485,8.52712105 1,8.52712105 L9,8.52712105 C9.5515,8.52712105 10,8.10175263 10,7.57975263 L10,2.36922632 C10,1.84675263 9.5515,1.42185789 9,1.42185789 L9,1.42185789 Z" id="Fill-3041" fill="#FFFFFF"></path>
                            <path d="M5,6.30000305 C4.173,6.30000305 3.5,5.62700305 3.5,4.80000305 C3.5,3.97300305 4.173,3.30000305 5,3.30000305 C5.827,3.30000305 6.5,3.97300305 6.5,4.80000305 C6.5,5.62700305 5.827,6.30000305 5,6.30000305 M5,2.30000305 C3.6215,2.30000305 2.5,3.42150305 2.5,4.80000305 C2.5,6.17850305 3.6215,7.30000305 5,7.30000305 C6.3785,7.30000305 7.5,6.17850305 7.5,4.80000305 C7.5,3.42150305 6.3785,2.30000305 5,2.30000305" id="Fill-3040" fill="#FFB50A"></path>
                        </g>
                    </g>
                </g>
            </g>
        </g>
    </g>
</svg>