<?xml version="1.0" encoding="UTF-8"?>
<svg width="20px" height="18px" viewBox="0 0 20 18" version="1.1" xmlns="http://www.w3.org/2000/svg" xmlns:xlink="http://www.w3.org/1999/xlink">
    <!-- Generator: Sketch 48.2 (47327) - http://www.bohemiancoding.com/sketch -->
    <title>Filter</title>
    <desc>Created with Sketch.</desc>
    <defs></defs>
    <g id="Home_V.1.1" stroke="none" stroke-width="1" fill="none" fill-rule="evenodd" transform="translate(-20.000000, -45.000000)">
        <g id="Navigation" fill="#FFFFFF">
            <g id="Filter" transform="translate(20.000000, 45.000000)">
                <path d="M17,2 C17.551,2 18,2.448 18,3 C18,3.552 17.551,4 17,4 C16.449,4 16,3.552 16,3 C16,2.448 16.449,2 17,2 M17,6 C18.654,6 20,4.654 20,3 C20,1.346 18.654,0 17,0 C15.698,0 14.599,0.838 14.185,2 L0,2 L0,4 L14.185,4 C14.599,5.162 15.698,6 17,6" id="Fill-2033"></path>
                <path d="M7,10 C6.449,10 6,9.552 6,9 C6,8.448 6.449,8 7,8 C7.551,8 8,8.448 8,9 C8,9.552 7.551,10 7,10 M7,6 C5.698,6 4.599,6.838 4.185,8 L0,8 L0,10 L4.185,10 C4.599,11.162 5.698,12 7,12 C8.302,12 9.401,11.162 9.815,10 L20,10 L20,8 L9.815,8 C9.401,6.838 8.302,6 7,6" id="Fill-2034"></path>
                <path d="M17,16 C16.449,16 16,15.552 16,15 C16,14.448 16.449,14 17,14 C17.551,14 18,14.448 18,15 C18,15.552 17.551,16 17,16 M17,12 C15.698,12 14.599,12.838 14.185,14 L0,14 L0,16 L14.185,16 C14.599,17.162 15.698,18 17,18 C18.654,18 20,16.654 20,15 C20,13.346 18.654,12 17,12" id="Fill-2035"></path>
            </g>
        </g>
    </g>
</svg>