<?xml version="1.0" encoding="UTF-8"?>
<svg width="20px" height="16px" viewBox="0 0 20 16" version="1.1" xmlns="http://www.w3.org/2000/svg" xmlns:xlink="http://www.w3.org/1999/xlink">
    <!-- Generator: Sketch 48.2 (47327) - http://www.bohemiancoding.com/sketch -->
    <title>Folder_1</title>
    <desc>Created with Sketch.</desc>
    <defs></defs>
    <g id="Messagerie_19" stroke="none" stroke-width="1" fill="none" fill-rule="evenodd" transform="translate(-27.000000, -420.000000)">
        <g id="Slider">
            <g id="List" transform="translate(25.000000, 208.000000)">
                <g id="Folder_1" transform="translate(0.000000, 208.000000)">
                    <polygon id="Shape" points="0 0 24 0 24 24 0 24"></polygon>
                    <path d="M20,6 L12,6 L10,4 L4,4 C2.9,4 2.01,4.9 2.01,6 L2,18 C2,19.1 2.9,20 4,20 L20,20 C21.1,20 22,19.1 22,18 L22,8 C22,6.9 21.1,6 20,6 Z M20,18 L4,18 L4,8 L20,8 L20,18 Z" id="Shape" fill="#858FA9" fill-rule="nonzero"></path>
                </g>
            </g>
        </g>
    </g>
</svg>