<?xml version="1.0" encoding="UTF-8"?>
<svg width="18px" height="18px" viewBox="0 0 18 18" version="1.1" xmlns="http://www.w3.org/2000/svg" xmlns:xlink="http://www.w3.org/1999/xlink">
    <!-- Generator: Sketch 48.2 (47327) - http://www.bohemiancoding.com/sketch -->
    <title>Inbox</title>
    <desc>Created with Sketch.</desc>
    <defs></defs>
    <g id="Messagerie_19" stroke="none" stroke-width="1" fill="none" fill-rule="evenodd" transform="translate(-28.000000, -211.000000)">
        <g id="Slider">
            <g id="List" transform="translate(25.000000, 208.000000)">
                <g id="Inbox">
                    <rect id="bounds" x="0" y="0" width="24" height="24"></rect>
                    <path d="M19,3 L4.99,3 C3.886,3 3.01,3.895 3.01,5 L3,19 C3,20.104 3.886,21 4.99,21 L19,21 C20.105,21 21,20.104 21,19 L21,5 C21,3.895 20.105,3 19,3 L19,3 Z M19,15 L15,15 C15,16.657 13.657,18 12,18 C10.343,18 9,16.657 9,15 L4.99,15 L4.99,5 L19,5 L19,15 L19,15 Z M16,10 L14,10 L14,7 L10,7 L10,10 L8,10 L12,14 L16,10 L16,10 Z" id="Shape" fill="#858FA9"></path>
                </g>
            </g>
        </g>
    </g>
</svg>