<?xml version="1.0" encoding="UTF-8"?>
<svg width="17px" height="15px" viewBox="0 0 17 15" version="1.1" xmlns="http://www.w3.org/2000/svg" xmlns:xlink="http://www.w3.org/1999/xlink">
    <!-- Generator: Sketch 48.2 (47327) - http://www.bohemiancoding.com/sketch -->
    <title>Icon_1</title>
    <desc>Created with Sketch.</desc>
    <defs></defs>
    <g id="Main-🔥🔥🔥" stroke="none" stroke-width="1" fill="none" fill-rule="evenodd">
        <g id="Search" transform="translate(-20.000000, -23.000000)" fill="#B2BECD" fill-rule="nonzero">
            <g id="Search_2">
                <path d="M29.7142857,23 C25.6909524,23 22.4285714,26.3583333 22.4285714,30.5 L20,30.5 L23.1490476,33.7416667 L23.2057143,33.8583333 L26.4761905,30.5 L24.047619,30.5 C24.047619,27.275 26.5814286,24.6666667 29.7142857,24.6666667 C32.8471429,24.6666667 35.3809524,27.275 35.3809524,30.5 C35.3809524,33.725 32.8471429,36.3333333 29.7142857,36.3333333 C28.1519048,36.3333333 26.7352381,35.675 25.7152381,34.6166667 L24.5657143,35.8 C25.8852381,37.1583333 27.6985714,38 29.7142857,38 C33.737619,38 37,34.6416667 37,30.5 C37,26.3583333 33.737619,23 29.7142857,23 Z M29,27 L29,30.9787798 L32.424,33 L33,32.0371353 L30.2,30.3819629 L30.2,27 L29,27 Z" id="Icon_1"></path>
            </g>
        </g>
    </g>
</svg>