<?xml version="1.0" encoding="UTF-8"?>
<svg width="16px" height="16px" viewBox="0 0 16 16" version="1.1" xmlns="http://www.w3.org/2000/svg" xmlns:xlink="http://www.w3.org/1999/xlink">
    <!-- Generator: Sketch 48.2 (47327) - http://www.bohemiancoding.com/sketch -->
    <title>Group</title>
    <desc>Created with Sketch.</desc>
    <defs></defs>
    <g id="Home_V.1.1" stroke="none" stroke-width="1" fill="none" fill-rule="evenodd" transform="translate(-20.000000, -273.000000)">
        <g id="Post_1" transform="translate(0.000000, 104.000000)" fill="#858FA9">
            <g id="Bottom" transform="translate(0.000000, 157.000000)">
                <g id="Group" transform="translate(20.000000, 12.000000)">
                    <path d="M1.6,1.6 L1.6,11.2 L4.8,11.2 L4.8,12.8 L6.9336,11.2 L14.4,11.2 L14.4,1.6 L1.6,1.6 Z M3.2,16 L3.2,12.8 L1.6,12.8 C0.7176,12.8 0,12.0824 0,11.2 L0,1.6 C0,0.7176 0.7176,0 1.6,0 L14.4,0 C15.2824,0 16,0.7176 16,1.6 L16,11.2 C16,12.0824 15.2824,12.8 14.4,12.8 L7.4664,12.8 L3.2,16 Z" id="Fill-1249"></path>
                    <polygon id="Fill-1250" points="12.8 5.2 3.2 5.2 3.2 4.2 12.8 4.2"></polygon>
                    <polygon id="Fill-1251" points="12.8 7.6 3.2 7.6 3.2 6.6 12.8 6.6"></polygon>
                </g>
            </g>
        </g>
    </g>
</svg>