<?xml version="1.0" encoding="UTF-8"?>
<svg width="23px" height="20px" viewBox="0 0 23 20" version="1.1" xmlns="http://www.w3.org/2000/svg" xmlns:xlink="http://www.w3.org/1999/xlink">
    <!-- Generator: Sketch 48.2 (47327) - http://www.bohemiancoding.com/sketch -->
    <title>Icon</title>
    <desc>Created with Sketch.</desc>
    <defs></defs>
    <g id="Messages_V.1.1" stroke="none" stroke-width="1" fill="none" fill-rule="evenodd" transform="translate(-317.000000, -44.000000)">
        <g id="Navigation" fill="#FFFFFF">
            <g id="Icon" transform="translate(317.000000, 44.000000)">
                <polygon id="Fill-3183" points="20 3 20 0 18 0 18 3 15 3 15 5 18 5 18 8 20 8 20 5 23 5 23 3"></polygon>
                <path d="M2.125,17.8333333 L2.125,10.18825 L7.8826875,14.3818333 C8.0675625,14.5161667 8.28325,14.5833333 8.5,14.5833333 C8.71675,14.5833333 8.9324375,14.5161667 9.1173125,14.3818333 L14.875,10.18825 L14.8760625,17.8333333 L2.125,17.8333333 Z M12.6225,9.16666667 L8.5,12.1685833 L4.3775,9.16666667 L12.6225,9.16666667 Z M14.875,7 L2.125,7 C0.9530625,7 0,7.97175 0,9.16666667 L0,17.8333333 C0,19.02825 0.9530625,20 2.125,20 L14.875,20 C16.0469375,20 17,19.02825 17,17.8333333 L17,9.16666667 C17,7.97175 16.0469375,7 14.875,7 L14.875,7 Z" id="Fill-3184"></path>
            </g>
        </g>
    </g>
</svg>