<?xml version="1.0" encoding="UTF-8"?>
<svg width="20px" height="20px" viewBox="0 0 20 20" version="1.1" xmlns="http://www.w3.org/2000/svg" xmlns:xlink="http://www.w3.org/1999/xlink">
    <!-- Generator: Sketch 48.2 (47327) - http://www.bohemiancoding.com/sketch -->
    <title>Icon</title>
    <desc>Created with Sketch.</desc>
    <defs></defs>
    <g id="Messages_V.1.1" stroke="none" stroke-width="1" fill="none" fill-rule="evenodd" transform="translate(-20.000000, -44.000000)">
        <g id="Navigation" fill="#FFFFFF">
            <path d="M28.1189425,58.2081494 C26.4931243,58.2081494 24.9637185,57.5748719 23.8138732,56.4250266 C22.6630131,55.2751814 22.0297356,53.7457756 22.0297356,52.1189425 C22.0297356,50.4931243 22.6630131,48.9637185 23.8138732,47.8138732 C24.9637185,46.6630131 26.4931243,46.0297356 28.1189425,46.0297356 C29.7447607,46.0297356 31.2741665,46.6630131 32.4240118,47.8138732 C33.5748719,48.9637185 34.2081494,50.4931243 34.2081494,52.1189425 C34.2081494,53.7457756 33.5748719,55.2751814 32.4240118,56.4250266 C31.2741665,57.5748719 29.7447607,58.2081494 28.1189425,58.2081494 L28.1189425,58.2081494 Z M40,62.5649769 L34.5278327,57.0917948 C35.6320089,55.6750393 36.237885,53.9446897 36.237885,52.1189425 C36.237885,49.95017 35.3925001,47.9113006 33.8590349,46.3788502 C32.3265845,44.84437 30.287715,44 28.1189425,44 C25.95017,44 23.9113006,44.84437 22.3788502,46.3788502 C20.8453849,47.9113006 20,49.95017 20,52.1189425 C20,54.287715 20.8453849,56.3265845 22.3788502,57.8590349 C23.9113006,59.393515 25.95017,60.237885 28.1189425,60.237885 C29.9446897,60.237885 31.6750393,59.6330238 33.0917948,58.5268179 L38.5649769,64 L40,62.5649769 Z" id="Icon"></path>
        </g>
    </g>
</svg>