<?xml version="1.0" encoding="UTF-8"?>
<svg width="14px" height="18px" viewBox="0 0 14 18" version="1.1" xmlns="http://www.w3.org/2000/svg" xmlns:xlink="http://www.w3.org/1999/xlink">
    <!-- Generator: Sketch 48.2 (47327) - http://www.bohemiancoding.com/sketch -->
    <title>trash</title>
    <desc>Created with Sketch.</desc>
    <defs></defs>
    <g id="Messagerie_19" stroke="none" stroke-width="1" fill="none" fill-rule="evenodd" transform="translate(-30.000000, -343.000000)">
        <g id="Slider">
            <g id="List" transform="translate(25.000000, 208.000000)">
                <g id="trash" transform="translate(0.000000, 132.000000)">
                    <rect id="bounds" x="0" y="0" width="24" height="24"></rect>
                    <path d="M17.999,7 L5.999,7 L5.999,19 C5.999,20.104 6.895,21 8,21 L15.999,21 C17.105,21 17.999,20.104 17.999,19 L17.999,7 M14.499,2.999 L9.499,2.999 L8.5,4 L5.999,4 C5.448,4 5,4.448 5,4.999 L5,6 L19,6 L19,4.999 C19,4.448 18.552,4 17.999,4 L15.5,4 L14.499,2.999" id="Shape" fill="#858FA9"></path>
                </g>
            </g>
        </g>
    </g>
</svg>