<svg width="24" height="24" viewBox="0 0 24 24" fill="none" xmlns="http://www.w3.org/2000/svg">
<g clip-path="url(#clip0_7419_802)">
<mask id="mask0_7419_802" style="mask-type:luminance" maskUnits="userSpaceOnUse" x="0" y="0" width="24" height="24">
<path d="M24 0H0V24H24V0Z" fill="white"/>
</mask>
<g mask="url(#mask0_7419_802)">
<path d="M13.0016 1.27522L15.6558 6.89164C15.8183 7.23717 16.1312 7.47588 16.4984 7.53242L22.4327 8.43079C23.3535 8.569 23.7207 9.75011 23.0526 10.4223L18.7553 14.7948C18.4905 15.065 18.3701 15.4482 18.4303 15.8314L19.4415 22.0007C19.5979 22.9556 18.641 23.6843 17.8164 23.232L12.508 20.317C12.183 20.1411 11.7918 20.1411 11.4668 20.317L6.15845 23.232C5.33992 23.6843 4.37694 22.9556 4.53343 22.0007L5.54458 15.8314C5.60476 15.4545 5.48437 15.065 5.21955 14.7948L0.922279 10.4223C0.260236 9.74383 0.627386 8.569 1.54221 8.43079L7.47652 7.53242C7.84365 7.47588 8.15663 7.23717 8.31913 6.89164L10.9733 1.27522C11.3826 0.40826 12.5682 0.40826 12.9835 1.27522H13.0016Z" fill="#FFADB9" stroke="#FFADB9" stroke-miterlimit="10"/>
<path d="M23.4799 10.8747C23.9554 10.391 24.1179 9.68738 23.9132 9.03402C23.7086 8.38066 23.179 7.90947 22.523 7.80895L16.5886 6.91058C16.4201 6.88545 16.2757 6.77239 16.1974 6.61533L13.5432 0.99891C13.2483 0.38324 12.6585 0 12.0025 0C11.3465 0 10.7506 0.38324 10.4557 0.99891L7.80154 6.61533C7.7233 6.77239 7.57884 6.88545 7.41032 6.91058L1.47601 7.80895C0.826001 7.90947 0.290349 8.37437 0.085718 9.03402C-0.118914 9.68738 0.0495889 10.3973 0.519038 10.8747L4.81029 15.2473C4.93066 15.3729 4.99084 15.5488 4.96075 15.7247L3.94963 21.894C3.8413 22.5725 4.10011 23.2447 4.63576 23.6531C4.93669 23.8792 5.28576 23.9986 5.64688 23.9986C5.92373 23.9986 6.2006 23.9232 6.44736 23.7913L11.7557 20.8762C11.9062 20.7946 12.0868 20.7946 12.2372 20.8762L17.5456 23.7913C18.1294 24.1117 18.8215 24.0614 19.3572 23.6531C19.8928 23.251 20.1516 22.5725 20.0433 21.894L19.0322 15.7247C19.0021 15.5488 19.0563 15.3729 19.1826 15.2473L23.4799 10.8747ZM18.1114 22.673L12.803 19.758C12.5502 19.6198 12.2793 19.5507 12.0025 19.5507C11.7256 19.5507 11.4548 19.6198 11.202 19.758L5.89362 22.673C5.71306 22.7735 5.51447 22.7547 5.34595 22.6353C5.17743 22.5097 5.10519 22.3149 5.1413 22.1076L6.15242 15.9383C6.24871 15.3541 6.06217 14.7635 5.65893 14.3489L1.36165 9.97637C1.21721 9.8256 1.16904 9.62456 1.22923 9.42352C1.29543 9.22249 1.4459 9.08427 1.65053 9.05914L7.58484 8.16076C8.14457 8.07281 8.63209 7.70844 8.88487 7.18072L11.5391 1.5643C11.7196 1.18108 12.2854 1.18108 12.4659 1.5643L15.1201 7.18072C15.3729 7.70844 15.8544 8.07909 16.4141 8.16076L22.3484 9.05914C22.5531 9.09055 22.7035 9.22249 22.7697 9.42352C22.8299 9.62456 22.7878 9.8256 22.6373 9.97637L18.34 14.3489C17.9368 14.7635 17.7502 15.3541 17.8465 15.9383L18.8577 22.1076C18.8938 22.3149 18.8155 22.5097 18.653 22.6353C18.4905 22.761 18.2859 22.7735 18.1053 22.6793L18.1114 22.673Z" fill="#C6253B"/>
</g>
</g>
<defs>
<clipPath id="clip0_7419_802">
<rect width="24" height="24" fill="white"/>
</clipPath>
</defs>
</svg>
