<svg width="24" height="24" viewBox="0 0 24 24" fill="none" xmlns="http://www.w3.org/2000/svg">
<g clip-path="url(#clip0_7419_809)">
<path d="M12 24C18.6274 24 24 18.6274 24 12C24 5.37259 18.6274 0 12 0C5.37258 0 0 5.37259 0 12C0 18.6274 5.37258 24 12 24Z" fill="#FAEA9C"/>
<path d="M16.2398 9.74997C16.2398 7.35271 14.2501 5.41778 11.8289 5.51367C9.66449 5.59929 7.86655 7.37668 7.76381 9.54449C7.70901 10.6849 8.10627 11.7329 8.7912 12.5239C9.3186 13.1335 9.64394 13.8938 9.64394 14.702V14.9589H14.1474C14.1474 14.0856 14.5172 13.2705 15.1097 12.6301C15.8117 11.8733 16.2398 10.863 16.2398 9.74997Z" fill="white"/>
<path d="M15.178 6.44845C14.2739 5.57858 13.0752 5.12995 11.8184 5.17105C9.46565 5.26351 7.53414 7.17448 7.42455 9.52722C7.36633 10.7121 7.76359 11.8526 8.53414 12.7464C9.03071 13.3217 9.30468 14.0135 9.30468 14.7019V14.9587C9.30468 15.1471 9.45879 15.3012 9.64715 15.3012H14.1506C14.3389 15.3012 14.493 15.1471 14.493 14.9587C14.493 14.2121 14.8013 13.469 15.3629 12.8663C16.1506 12.0169 16.5855 10.9108 16.5855 9.75324C16.5855 8.49639 16.0855 7.32173 15.178 6.45187V6.44845ZM9.98619 14.6163C9.96564 13.7943 9.63345 12.9758 9.05126 12.3012C8.39373 11.5409 8.05811 10.5683 8.10605 9.56146C8.20194 7.56146 9.84235 5.93475 11.8458 5.85941C12.9143 5.81146 13.928 6.19845 14.7019 6.94502C15.4725 7.68817 15.8971 8.68475 15.8971 9.75324C15.8971 10.7361 15.5273 11.6779 14.8561 12.3971C14.2636 13.0341 13.9006 13.8149 13.8184 14.6163H9.98276H9.98619Z" fill="#D1AF00"/>
<path d="M14.1471 14.541H9.64374C9.45538 14.541 9.30127 14.6951 9.30127 14.8835V16.2396C9.30127 17.6711 10.4656 18.8321 11.8937 18.8321C13.3218 18.8321 14.4862 17.6677 14.4862 16.2396V14.8835C14.4862 14.6951 14.3321 14.541 14.1437 14.541H14.1471Z" fill="#D1AF00"/>
<mask id="mask0_7419_809" style="mask-type:luminance" maskUnits="userSpaceOnUse" x="9" y="9" width="6" height="8">
<path d="M14.6164 9.22266H9.13696V16.072H14.6164V9.22266Z" fill="white"/>
</mask>
<g mask="url(#mask0_7419_809)">
<path d="M12.9898 16.0717H12.4663L12.4942 11.8741H11.5065V16.0682H10.983V11.8777H10.3932C10.1698 11.8705 9.86275 11.8097 9.5975 11.5807C9.32178 11.3338 9.14728 10.9401 9.13681 10.525C9.12634 10.1457 9.25896 9.80215 9.50327 9.56596C9.89765 9.18306 10.5328 9.11149 10.99 9.39419C11.1296 9.48008 11.2483 9.59817 11.3425 9.73773C11.4542 9.90235 11.51 10.1027 11.51 10.3103V11.3373H12.5012L12.5082 10.3246C12.5082 9.95602 12.6932 9.62322 12.9829 9.45861C13.3947 9.22958 13.8658 9.35125 14.152 9.57312C14.4312 9.78783 14.6057 10.1672 14.6197 10.5823C14.6337 10.9938 14.4836 11.3803 14.2253 11.6093C14.0334 11.7775 13.7786 11.8705 13.4854 11.8777H13.0212L12.9933 16.0753L12.9898 16.0717ZM10.3653 9.7592C10.1838 9.7592 9.99537 9.8272 9.86275 9.95602C9.72663 10.0884 9.65334 10.2852 9.66032 10.5143C9.6673 10.7755 9.7755 11.026 9.94302 11.1727C10.0931 11.3016 10.278 11.3373 10.4072 11.3409H10.9865V10.3139C10.9865 10.2137 10.9586 10.1206 10.9097 10.0455C10.8574 9.96676 10.7911 9.90235 10.7178 9.85582C10.6166 9.79141 10.4909 9.7592 10.3688 9.7592H10.3653ZM13.454 9.87014C13.3807 9.87014 13.3074 9.88445 13.2376 9.92382C13.1085 9.99539 13.0282 10.1564 13.0282 10.3282L13.0212 11.3373H13.475C13.5866 11.3373 13.7542 11.3087 13.8763 11.2014C14.0159 11.0761 14.0997 10.8471 14.0892 10.5966C14.0822 10.3425 13.9845 10.1171 13.8309 9.99897C13.7472 9.93455 13.6006 9.86656 13.4505 9.86656L13.454 9.87014Z" fill="#D1AF00"/>
</g>
</g>
<defs>
<clipPath id="clip0_7419_809">
<rect width="24" height="24" fill="white"/>
</clipPath>
</defs>
</svg>
