<svg width="24" height="24" viewBox="0 0 24 24" fill="none" xmlns="http://www.w3.org/2000/svg">
<g clip-path="url(#clip0_7419_831)">
<mask id="mask0_7419_831" style="mask-type:luminance" maskUnits="userSpaceOnUse" x="0" y="0" width="24" height="24">
<path d="M24 0H0V24H24V0Z" fill="white"/>
</mask>
<g mask="url(#mask0_7419_831)">
<path d="M22.9124 18.3663L18.2896 15.8483C18.121 15.7613 17.9198 15.7613 17.7567 15.8537C17.5935 15.9462 17.4902 16.1202 17.4848 16.3105C17.4032 19.6226 13.9334 20.9333 13.8954 20.9496C13.7431 21.004 13.6234 21.1236 13.569 21.2759C13.5147 21.4282 13.531 21.5967 13.6126 21.7381L14.7818 23.7341C14.8797 23.8972 15.0592 24.0006 15.2495 24.0006H18.034C20.8784 24.0006 23.1897 21.6892 23.1897 18.8449C23.1897 18.6437 23.081 18.4642 22.9069 18.3663H22.9124Z" fill="#2F7EA7"/>
<path d="M9.29437 20.9439C9.26174 20.933 5.79199 19.6332 5.71041 16.3048C5.71041 16.1145 5.60164 15.9405 5.43848 15.848C5.27533 15.7555 5.0741 15.7501 4.90551 15.8426L0.282795 18.3606C0.108764 18.453 0 18.6379 0 18.8392C0 21.6835 2.31135 23.9948 5.15567 23.9948H7.94017C8.13052 23.9948 8.31 23.8915 8.40789 23.7284L9.57716 21.7324C9.65874 21.591 9.67505 21.4224 9.62066 21.2702C9.56628 21.1179 9.44664 20.9982 9.29437 20.9439Z" fill="#2F7EA7"/>
<path d="M18.0286 16.3209L17.55 16.0599C16.6635 15.5759 16.0055 14.7655 15.7172 13.8029L14.3739 9.32704C14.238 8.88108 14.1564 8.42424 14.1183 7.95653L13.618 1.48472C13.5799 0.957187 13.1339 0.549316 12.6064 0.549316C12.0462 0.549316 11.5894 1.00615 11.5894 1.56631V17.5011C11.5894 18.3386 11.9973 19.1272 12.688 19.6058C13.0252 19.8396 13.308 20.1442 13.5146 20.5031L14.0748 21.4603C14.0748 21.4603 17.9307 20.0844 18.0231 16.3264L18.0286 16.3209Z" fill="#B9E3F8" stroke="#B9E3F8" stroke-miterlimit="10"/>
<path d="M5.16113 16.3209L5.63972 16.0599C6.52619 15.5759 7.18425 14.7655 7.47249 13.8029L8.81579 9.32704C8.95176 8.88108 9.03333 8.42424 9.0714 7.95653L9.57173 1.48472C9.6098 0.957187 10.0557 0.549316 10.5833 0.549316C11.1434 0.549316 11.6003 1.00615 11.6003 1.56631V17.5011C11.6003 18.3386 11.1924 19.1272 10.5017 19.6058C10.1645 19.8396 9.88173 20.1442 9.67507 20.5031L9.1149 21.4603C9.1149 21.4603 5.25903 20.0844 5.16658 16.3264L5.16113 16.3209Z" fill="#B9E3F8" stroke="#B9E3F8" stroke-miterlimit="10"/>
<path d="M18.2898 15.8423L17.8112 15.5813C17.0498 15.1679 16.4896 14.4773 16.2395 13.6452L14.8962 9.16928C14.7765 8.76139 14.6949 8.34263 14.6623 7.91299L14.1674 1.44121C14.1076 0.636316 13.4223 0 12.612 0C12.2204 0 11.8724 0.146851 11.595 0.386144C11.3231 0.146851 10.9696 0 10.578 0C9.76769 0 9.08789 0.630877 9.02263 1.44121L8.52228 7.91299C8.48965 8.33719 8.40808 8.76139 8.28843 9.16928L6.94512 13.6452C6.69495 14.4773 6.13478 15.1679 5.37339 15.5813L4.89482 15.8423C4.71535 15.9402 4.60657 16.1306 4.61201 16.3318C4.71534 20.5901 9.06069 21.9987 9.1042 21.9987C9.29455 21.9987 9.47401 21.8953 9.5719 21.7322L10.132 20.775C10.3006 20.4868 10.5236 20.242 10.801 20.0517C11.111 19.8341 11.3775 19.5622 11.5896 19.2577C11.8017 19.5622 12.0627 19.8341 12.3781 20.0517C12.6555 20.242 12.8785 20.4868 13.0471 20.775L13.6072 21.7322C13.7051 21.8953 13.8846 21.9987 14.0749 21.9987C14.1348 21.9987 14.2 21.9878 14.2544 21.966C14.2979 21.9497 18.4638 20.427 18.5617 16.3318C18.5617 16.1251 18.4584 15.9402 18.2789 15.8423H18.2898ZM14.3034 20.7641L13.9879 20.2312C13.7378 19.807 13.406 19.448 13.0036 19.1652C12.4597 18.79 12.1388 18.17 12.1388 17.5065V1.57173C12.1388 1.31068 12.3509 1.09858 12.612 1.09858C12.8567 1.09858 13.0634 1.28892 13.0797 1.53366L13.5801 8.00543C13.6181 8.51121 13.7106 9.00613 13.8574 9.49016L15.2007 13.966C15.5325 15.0755 16.2775 15.9891 17.2945 16.5493L17.474 16.6472C17.2456 19.0619 15.2225 20.3291 14.3142 20.775L14.3034 20.7641ZM11.0512 17.501C11.0512 18.1591 10.7303 18.7791 10.1864 19.1598C9.77857 19.4426 9.44682 19.8015 9.20209 20.2257L8.88667 20.7641C7.97844 20.3182 5.94989 19.051 5.72691 16.6363L5.90637 16.5384C6.92337 15.9837 7.66844 15.07 8.00019 13.9551L9.3435 9.47927C9.49034 8.99525 9.58278 8.50036 9.62085 7.99458L10.1212 1.52277C10.1375 1.27804 10.3442 1.0877 10.5889 1.0877C10.8499 1.0877 11.062 1.29979 11.062 1.56084V17.4956L11.0512 17.501Z" fill="#2F7EA7"/>
</g>
</g>
<defs>
<clipPath id="clip0_7419_831">
<rect width="24" height="24" fill="white"/>
</clipPath>
</defs>
</svg>
