<svg width="24" height="24" viewBox="0 0 24 24" fill="none" xmlns="http://www.w3.org/2000/svg">
<path d="M12 24C18.6274 24 24 18.6274 24 12C24 5.37258 18.6274 0 12 0C5.37258 0 0 5.37258 0 12C0 18.6274 5.37258 24 12 24Z" fill="#FFB6C0"/>
<path d="M12.5274 6.29122L14.0377 9.35286C14.1301 9.54122 14.3082 9.67135 14.5171 9.70218L17.8938 10.1919C18.4178 10.2672 18.6267 10.9111 18.2466 11.2775L15.8014 13.6611C15.6507 13.8083 15.5822 14.0172 15.6164 14.2262L16.1918 17.5892C16.2808 18.1097 15.7363 18.507 15.2671 18.2604L12.2466 16.6714C12.0617 16.5755 11.8391 16.5755 11.6541 16.6714L8.63358 18.2604C8.16782 18.507 7.61987 18.1097 7.70891 17.5892L8.28425 14.2262C8.3185 14.0207 8.25002 13.8083 8.09933 13.6611L5.65412 11.2775C5.27741 10.9077 5.4863 10.2672 6.00685 10.1919L9.38358 9.70218C9.59248 9.67135 9.77055 9.54122 9.86302 9.35286L11.3733 6.29122C11.6062 5.81862 12.2808 5.81862 12.5171 6.29122H12.5274Z" fill="white"/>
<path d="M18.4863 11.5206C18.7568 11.2569 18.8493 10.8734 18.7329 10.5172C18.6164 10.161 18.315 9.90417 17.9418 9.84938L14.5651 9.35965C14.4692 9.34595 14.387 9.28431 14.3424 9.1987L12.8322 6.13705C12.6643 5.80143 12.3287 5.59253 11.9554 5.59253C11.5822 5.59253 11.2431 5.80143 11.0753 6.13705L9.56504 9.1987C9.52052 9.28431 9.43834 9.34595 9.34245 9.35965L5.96572 9.84938C5.59586 9.90417 5.29106 10.1576 5.17463 10.5172C5.05819 10.8734 5.15409 11.2603 5.42121 11.5206L7.86299 13.9042C7.93149 13.9727 7.96573 14.0686 7.94861 14.1644L7.37327 17.5275C7.31163 17.8973 7.45887 18.2638 7.76367 18.4864C7.9349 18.6097 8.13353 18.6747 8.33901 18.6747C8.49654 18.6747 8.65408 18.6336 8.79449 18.5617L11.815 16.9727C11.9007 16.9281 12.0034 16.9281 12.089 16.9727L15.1096 18.5617C15.4418 18.7364 15.8356 18.709 16.1404 18.4864C16.4452 18.2672 16.5924 17.8973 16.5308 17.5275L15.9555 14.1644C15.9383 14.0686 15.9692 13.9727 16.0411 13.9042L18.4863 11.5206ZM15.4315 17.9521L12.4109 16.3631C12.2671 16.2877 12.113 16.2501 11.9554 16.2501C11.7979 16.2501 11.6438 16.2877 11.5 16.3631L8.47943 17.9521C8.37669 18.0069 8.26366 17.9966 8.16777 17.9316C8.07188 17.8631 8.0308 17.7569 8.05135 17.6439L8.62669 14.2809C8.68148 13.9624 8.57531 13.6405 8.34586 13.4144L5.90065 11.0309C5.81846 10.9487 5.79107 10.8391 5.82532 10.7295C5.86299 10.6199 5.94861 10.5446 6.06505 10.5309L9.44176 10.0412C9.76025 9.99321 10.0376 9.79458 10.1815 9.50691L11.6918 6.44527C11.7945 6.23636 12.1164 6.23636 12.2191 6.44527L13.7294 9.50691C13.8733 9.79458 14.1472 9.99664 14.4657 10.0412L17.8424 10.5309C17.9589 10.548 18.0445 10.6199 18.0822 10.7295C18.1164 10.8391 18.0924 10.9487 18.0068 11.0309L15.5616 13.4144C15.3322 13.6405 15.226 13.9624 15.2808 14.2809L15.8561 17.6439C15.8767 17.7569 15.8322 17.8631 15.7397 17.9316C15.6438 18.0001 15.5308 18.0069 15.4281 17.9555L15.4315 17.9521Z" fill="#FF3A55"/>
</svg>
