<svg width="24" height="24" viewBox="0 0 24 24" fill="none" xmlns="http://www.w3.org/2000/svg">
<path d="M19.5004 8.04202C19.5004 3.82996 16.0067 0.434525 11.7517 0.600306C7.94486 0.747666 4.78888 3.87294 4.61082 7.67976C4.51258 9.68141 5.21255 11.5234 6.41599 12.9111C7.34314 13.9856 7.91416 15.318 7.91416 16.7363V17.1845H15.8225C15.8225 15.6495 16.4734 14.2189 17.511 13.0953C18.7452 11.769 19.5004 9.99457 19.5004 8.0359V8.04202Z" fill="#FAEA9C"/>
<path d="M17.6278 2.24587C16.0375 0.717005 13.9314 -0.0689347 11.7272 0.00474574C7.59494 0.164387 4.20565 3.52914 4.00917 7.65524C3.91093 9.73671 4.60474 11.7445 5.95555 13.3102C6.82744 14.3172 7.30637 15.539 7.30637 16.7425V17.1907C7.30637 17.5223 7.57652 17.7924 7.90808 17.7924H15.8164C16.148 17.7924 16.4182 17.5223 16.4182 17.1907C16.4182 15.8829 16.9646 14.575 17.947 13.5128C19.3347 12.0208 20.096 10.0805 20.096 8.04819C20.096 5.83778 19.218 3.78088 17.6278 2.24587ZM8.50981 16.589C8.47297 15.1461 7.88967 13.7032 6.86428 12.5181C5.70996 11.1857 5.12051 9.47882 5.20647 7.70435C5.37225 4.19225 8.25807 1.33714 11.7763 1.20206C13.6552 1.1161 15.4296 1.79765 16.7927 3.10547C18.1497 4.40716 18.8926 6.1632 18.8926 8.04205C18.8926 9.77354 18.2418 11.4191 17.0629 12.6901C16.0252 13.8075 15.3866 15.1829 15.2393 16.589H8.50366H8.50981Z" fill="#D1AF00"/>
<path d="M15.8226 16.46H7.91423C7.58267 16.46 7.3125 16.7301 7.3125 17.0617V19.444C7.3125 21.9553 9.35714 23.9999 11.8684 23.9999C14.3797 23.9999 16.4243 21.9553 16.4243 19.444V17.0617C16.4243 16.7301 16.1542 16.46 15.8226 16.46Z" fill="#D1AF00"/>
<path d="M13.7841 18.1241H12.8815L12.9306 11.0692H11.2298V18.118H10.3272V11.0692H9.31414C8.92732 11.057 8.39929 10.9587 7.94493 10.5719C7.45986 10.1605 7.15899 9.49739 7.14057 8.80357C7.12215 8.165 7.34933 7.58784 7.77299 7.18873C8.44839 6.55017 9.54747 6.42738 10.3334 6.9063C10.5729 7.05366 10.7755 7.25014 10.9412 7.48346C11.1316 7.75976 11.2298 8.09745 11.2298 8.44743V10.1728H12.9368L12.949 8.46585C12.949 7.84571 13.2683 7.28697 13.7657 7.01067C14.4779 6.62385 15.2884 6.83261 15.7796 7.20715C16.2585 7.56942 16.5594 8.20799 16.5839 8.90181C16.6085 9.59563 16.3506 10.2403 15.9024 10.6272C15.5708 10.9096 15.1349 11.0692 14.6314 11.0754H13.8332L13.7841 18.1303V18.1241ZM9.25888 7.50801C8.94574 7.50801 8.62032 7.61854 8.39314 7.83958C8.15982 8.06062 8.03087 8.39218 8.04315 8.779C8.05543 9.21494 8.23964 9.64474 8.52822 9.8842C8.7861 10.1052 9.10538 10.1605 9.33256 10.1667H10.3272V8.44131C10.3272 8.26939 10.2843 8.11587 10.1922 7.98693C10.1001 7.85185 9.98955 7.74748 9.86061 7.66766C9.68255 7.55714 9.47379 7.50801 9.25888 7.50801ZM14.5823 7.69835C14.4595 7.69835 14.3306 7.72292 14.2139 7.79046C13.9929 7.91327 13.8516 8.17728 13.8516 8.472L13.8393 10.1728H14.6253C14.8217 10.1728 15.1042 10.1298 15.3191 9.9456C15.5586 9.73684 15.6998 9.35002 15.6875 8.9325C15.6752 8.5027 15.5094 8.12817 15.2393 7.92555C15.098 7.81503 14.8463 7.70449 14.5823 7.70449V7.69835Z" fill="#D1AF00"/>
</svg>
