<svg width="24" height="24" viewBox="0 0 24 24" fill="none" xmlns="http://www.w3.org/2000/svg">
<g clip-path="url(#clip0_7419_798)">
<path d="M12 24C18.6274 24 24 18.6274 24 12C24 5.37258 18.6274 0 12 0C5.37258 0 0 5.37258 0 12C0 18.6274 5.37258 24 12 24Z" fill="#FFADB9"/>
<path d="M12.5273 6.29098L14.0375 9.35262C14.13 9.54098 14.3081 9.67111 14.517 9.70193L17.8937 10.1917C18.4177 10.267 18.6266 10.9108 18.2465 11.2773L15.8013 13.6608C15.6506 13.8081 15.5821 14.017 15.6163 14.2259L16.1917 17.5889C16.2807 18.1095 15.7362 18.5067 15.267 18.2602L12.2465 16.6711C12.0615 16.5752 11.8389 16.5752 11.654 16.6711L8.63346 18.2602C8.1677 18.5067 7.61975 18.1095 7.70879 17.5889L8.28413 14.2259C8.31838 14.0204 8.24989 13.8081 8.09921 13.6608L5.654 11.2773C5.27729 10.9074 5.48618 10.267 6.00673 10.1917L9.38346 9.70193C9.59236 9.67111 9.77043 9.54098 9.8629 9.35262L11.3732 6.29098C11.606 5.81837 12.2807 5.81837 12.517 6.29098H12.5273Z" fill="white"/>
<path d="M18.4864 11.5204C18.7569 11.2567 18.8494 10.8731 18.733 10.5169C18.6165 10.1608 18.3151 9.90392 17.9419 9.84912L14.5652 9.35941C14.4693 9.34571 14.3871 9.28407 14.3425 9.19845L12.8323 6.13681C12.6644 5.80119 12.3288 5.59229 11.9555 5.59229C11.5823 5.59229 11.2432 5.80119 11.0754 6.13681L9.56516 9.19845C9.52064 9.28407 9.43846 9.34571 9.34257 9.35941L5.96584 9.84912C5.59598 9.90392 5.29118 10.1574 5.17475 10.5169C5.05831 10.8731 5.15421 11.2601 5.42133 11.5204L7.86311 13.9039C7.93161 13.9724 7.96585 14.0683 7.94873 14.1642L7.37339 17.5272C7.31175 17.8971 7.45899 18.2635 7.76379 18.4861C7.93502 18.6094 8.13365 18.6745 8.33913 18.6745C8.49666 18.6745 8.6542 18.6334 8.79461 18.5615L11.8151 16.9724C11.9008 16.9279 12.0035 16.9279 12.0891 16.9724L15.1097 18.5615C15.4419 18.7361 15.8357 18.7087 16.1405 18.4861C16.4453 18.2669 16.5925 17.8971 16.5309 17.5272L15.9556 14.1642C15.9384 14.0683 15.9693 13.9724 16.0412 13.9039L18.4864 11.5204ZM15.4316 17.9519L12.411 16.3628C12.2672 16.2875 12.1131 16.2498 11.9555 16.2498C11.798 16.2498 11.6439 16.2875 11.5001 16.3628L8.47955 17.9519C8.37681 18.0067 8.26378 17.9964 8.16789 17.9313C8.072 17.8628 8.03092 17.7567 8.05147 17.6437L8.62681 14.2806C8.6816 13.9621 8.57543 13.6402 8.34598 13.4142L5.90077 11.0306C5.81858 10.9484 5.79119 10.8389 5.82544 10.7293C5.86311 10.6197 5.94873 10.5443 6.06517 10.5306L9.44188 10.0409C9.76037 9.99297 10.0377 9.79434 10.1816 9.50667L11.6919 6.44502C11.7946 6.23612 12.1165 6.23612 12.2192 6.44502L13.7295 9.50667C13.8734 9.79434 14.1473 9.99639 14.4658 10.0409L17.8425 10.5306C17.959 10.5478 18.0446 10.6197 18.0823 10.7293C18.1165 10.8389 18.0925 10.9484 18.0069 11.0306L15.5617 13.4142C15.3323 13.6402 15.2261 13.9621 15.2809 14.2806L15.8562 17.6437C15.8768 17.7567 15.8323 17.8628 15.7398 17.9313C15.6439 17.9998 15.5309 18.0067 15.4282 17.9553L15.4316 17.9519Z" fill="#C6253B"/>
</g>
<defs>
<clipPath id="clip0_7419_798">
<rect width="24" height="24" fill="white"/>
</clipPath>
</defs>
</svg>
