<svg width="24" height="24" viewBox="0 0 24 24" fill="none" xmlns="http://www.w3.org/2000/svg">
<path d="M12 24C18.6274 24 24 18.6274 24 12C24 5.37259 18.6274 0 12 0C5.37258 0 0 5.37259 0 12C0 18.6274 5.37258 24 12 24Z" fill="#FAEA9C"/>
<path d="M16.2397 9.74997C16.2397 7.35271 14.25 5.41778 11.8288 5.51367C9.66437 5.59929 7.86643 7.37668 7.76369 9.54449C7.70889 10.6849 8.10615 11.7329 8.79108 12.5239C9.31848 13.1335 9.64382 13.8938 9.64382 14.702V14.9589H14.1473C14.1473 14.0856 14.5171 13.2705 15.1096 12.6301C15.8116 11.8733 16.2397 10.863 16.2397 9.74997Z" fill="white"/>
<path d="M15.1781 6.44869C14.274 5.57883 13.0754 5.1302 11.8185 5.17129C9.46577 5.26376 7.53426 7.17472 7.42467 9.52746C7.36645 10.7124 7.76371 11.8528 8.53426 12.7466C9.03083 13.322 9.3048 14.0138 9.3048 14.7021V14.959C9.3048 15.1473 9.45891 15.3014 9.64727 15.3014H14.1507C14.3391 15.3014 14.4932 15.1473 14.4932 14.959C14.4932 14.2124 14.8014 13.4692 15.363 12.8665C16.1507 12.0172 16.5856 10.911 16.5856 9.75348C16.5856 8.49663 16.0856 7.32198 15.1781 6.45211V6.44869ZM9.98631 14.6165C9.96576 13.7946 9.63357 12.9761 9.05138 12.3014C8.39385 11.5412 8.05823 10.5686 8.10617 9.5617C8.20206 7.5617 9.84247 5.93499 11.8459 5.85965C12.9144 5.8117 13.9281 6.19869 14.7021 6.94527C15.4726 7.68842 15.8973 8.68499 15.8973 9.75348C15.8973 10.7364 15.5274 11.6781 14.8562 12.3973C14.2637 13.0343 13.9007 13.8151 13.8185 14.6165H9.98288H9.98631Z" fill="#D1AF00"/>
<path d="M14.1473 14.541H9.64386C9.4555 14.541 9.30139 14.6951 9.30139 14.8835V16.2396C9.30139 17.6711 10.4658 18.8321 11.8939 18.8321C13.3219 18.8321 14.4863 17.6677 14.4863 16.2396V14.8835C14.4863 14.6951 14.3322 14.541 14.1439 14.541H14.1473Z" fill="#D1AF00"/>
<g clip-path="url(#clip0_903_13150)">
<path d="M12.99 16.072H12.4665L12.4944 11.8744H11.5067V16.0684H10.9832V11.8779H10.3934C10.17 11.8708 9.86287 11.8099 9.59762 11.5809C9.3219 11.334 9.1474 10.9404 9.13693 10.5253C9.12646 10.1459 9.25908 9.80239 9.50339 9.56621C9.89777 9.1833 10.533 9.11173 10.9902 9.39444C11.1298 9.48032 11.2484 9.59841 11.3427 9.73798C11.4544 9.90259 11.5102 10.103 11.5102 10.3105V11.3376H12.5014L12.5084 10.3249C12.5084 9.95627 12.6933 9.62346 12.983 9.45885C13.3948 9.22983 13.866 9.3515 14.1522 9.57336C14.4314 9.78808 14.6059 10.1674 14.6199 10.5825C14.6338 10.994 14.4838 11.3805 14.2255 11.6096C14.0335 11.7777 13.7788 11.8708 13.4856 11.8779H13.0214L12.9935 16.0756L12.99 16.072ZM10.3654 9.75945C10.184 9.75945 9.99549 9.82744 9.86287 9.95627C9.72676 10.0887 9.65346 10.2855 9.66044 10.5145C9.66742 10.7758 9.77562 11.0262 9.94314 11.173C10.0932 11.3018 10.2782 11.3376 10.4073 11.3412H10.9867V10.3141C10.9867 10.2139 10.9588 10.1209 10.9099 10.0457C10.8575 9.967 10.7912 9.90259 10.7179 9.85607C10.6167 9.79166 10.4911 9.75945 10.3689 9.75945H10.3654ZM13.4542 9.87038C13.3809 9.87038 13.3076 9.8847 13.2378 9.92406C13.1087 9.99563 13.0284 10.1567 13.0284 10.3284L13.0214 11.3376H13.4751C13.5868 11.3376 13.7543 11.309 13.8765 11.2016C14.0161 11.0763 14.0998 10.8473 14.0894 10.5968C14.0824 10.3427 13.9847 10.1173 13.8311 9.99921C13.7473 9.9348 13.6008 9.8668 13.4507 9.8668L13.4542 9.87038Z" fill="#D1AF00"/>
</g>
<defs>
<clipPath id="clip0_903_13150">
<rect width="5.47945" height="6.84931" fill="white" transform="translate(9.13696 9.22266)"/>
</clipPath>
</defs>
</svg>
