<svg width="24" height="24" viewBox="0 0 24 24" fill="none" xmlns="http://www.w3.org/2000/svg">
<g clip-path="url(#clip0_7419_783)">
<mask id="mask0_7419_783" style="mask-type:luminance" maskUnits="userSpaceOnUse" x="0" y="0" width="24" height="24">
<path d="M24 0H0V24H24V0Z" fill="white"/>
</mask>
<g mask="url(#mask0_7419_783)">
<path d="M21.2827 14.4771C20.73 13.0901 20.0551 11.7509 19.274 10.4915C19.0508 10.1302 18.8222 9.78477 18.5991 9.4553C18.5034 9.31714 18.3918 9.18958 18.259 9.06735L15.8942 6.88861C15.6392 6.65479 15.2937 6.55382 14.9536 6.6229C14.6135 6.68667 14.3319 6.90987 14.1831 7.22339C14.0555 7.49441 13.9971 7.78138 14.0077 8.06302L10.0753 4.43884C9.44824 3.85961 8.46514 3.90211 7.88591 4.52917C7.62552 4.81613 7.48734 5.17217 7.47672 5.52821L7.43951 5.49633C7.13661 5.21468 6.73808 5.06588 6.3289 5.08714C5.9144 5.10308 5.53177 5.27844 5.25013 5.58666C4.96848 5.88956 4.82503 6.28813 4.84097 6.69731C4.84097 6.72388 4.84097 6.75043 4.84097 6.78232C4.6656 6.72386 4.48492 6.69729 4.29892 6.70791C3.88443 6.72386 3.50181 6.89922 3.22548 7.20744C2.94915 7.51565 2.80037 7.90891 2.81632 8.31809C2.83226 8.73258 3.00762 9.1152 3.31584 9.39154L4.03322 10.0505C3.6081 10.0983 3.22016 10.3162 2.95977 10.6616C2.48682 11.2886 2.59843 12.2186 3.20423 12.7766L8.74146 17.8781C9.06031 18.1756 9.40571 18.452 9.76707 18.6964L11.4038 19.8177C11.6589 19.9931 11.9246 20.1525 12.1903 20.3013L14.1778 21.38C14.959 21.8052 15.8092 22.0124 16.6541 22.0124C18.1739 22.0124 19.6672 21.3428 20.6822 20.0993C21.9841 18.4998 22.2126 16.2838 21.2827 14.4771Z" fill="#46BFAF"/>
<path d="M11.6322 14.7162L5.76557 9.31178C5.24479 8.83352 5.2129 8.02045 5.69116 7.49967C6.16943 6.9789 6.9825 6.94704 7.50327 7.4253L13.5453 13.0263L8.40135 8.25429C7.88057 7.77603 7.84868 6.96296 8.32694 6.44218C8.80521 5.92141 9.61824 5.88955 10.139 6.36781L16.0057 11.7722L17.2917 12.9572L15.012 10.8582C14.5177 10.4011 14.3796 9.67844 14.6666 9.07264C14.9057 8.57312 15.554 8.45091 15.9632 8.8229L18.3279 11.0016C18.4395 11.1079 18.5405 11.2195 18.6309 11.3471C18.854 11.6712 19.0772 12.0113 19.3004 12.3674C20.156 13.7437 20.799 15.0828 21.2879 16.3104C22.1806 18.0481 21.9627 20.1524 20.7299 21.6669C19.2366 23.5056 16.6381 24.0157 14.5603 22.8839L12.5728 21.8051C12.3124 21.6616 12.0574 21.5075 11.8076 21.3375L10.1709 20.2162C9.82018 19.9771 9.48539 19.7114 9.17186 19.4244L3.63995 14.3229C3.14574 13.8659 3.02351 13.1007 3.42737 12.564C3.8897 11.9475 4.77183 11.8785 5.32449 12.3886L9.57041 16.2838L9.87332 16.5602L3.75156 10.9379C3.23078 10.4596 3.19889 9.64658 3.67715 9.1258C4.15542 8.60503 4.96845 8.57313 5.48923 9.0514L11.4888 14.578" fill="#B6EDE5"/>
<path d="M11.6322 14.7162L5.76557 9.31178C5.24479 8.83352 5.2129 8.02045 5.69116 7.49967C6.16943 6.9789 6.9825 6.94704 7.50327 7.4253L13.5453 13.0263L8.40135 8.25429C7.88057 7.77603 7.84868 6.96296 8.32694 6.44218C8.80521 5.92141 9.61824 5.88955 10.139 6.36781L16.0057 11.7722L17.2917 12.9572L15.012 10.8582C14.5177 10.4011 14.3796 9.67844 14.6666 9.07264C14.9057 8.57312 15.554 8.45091 15.9632 8.8229L18.3279 11.0016C18.4395 11.1079 18.5405 11.2195 18.6309 11.3471C18.854 11.6712 19.0772 12.0113 19.3004 12.3674C20.156 13.7437 20.799 15.0828 21.2879 16.3104C22.1806 18.0481 21.9627 20.1524 20.7299 21.6669C19.2366 23.5056 16.6381 24.0157 14.5603 22.8839L12.5728 21.8051C12.3124 21.6616 12.0574 21.5075 11.8076 21.3375L10.1709 20.2162C9.82018 19.9771 9.48539 19.7114 9.17186 19.4244L3.63995 14.3229C3.14574 13.8659 3.02351 13.1007 3.42737 12.564C3.8897 11.9475 4.77183 11.8785 5.32449 12.3886L9.57041 16.2838L9.87332 16.5602L3.75156 10.9379C3.23078 10.4596 3.19889 9.64658 3.67715 9.1258C4.15542 8.60503 4.96845 8.57313 5.48923 9.0514L11.4888 14.578" stroke="#B6EDE5" fill="none" stroke-miterlimit="10"/>
<path d="M21.7714 16.1087C21.2134 14.7111 20.5332 13.3561 19.7414 12.0807C19.5129 11.7193 19.2898 11.3686 19.0559 11.0338C18.9497 10.8797 18.8221 10.7362 18.6786 10.5981L16.3139 8.41932C15.995 8.12704 15.5699 8.00482 15.1395 8.08453C14.7144 8.16955 14.3636 8.44055 14.1776 8.82848C14.1139 8.95601 14.066 9.09418 14.0341 9.23235L10.4897 5.96423C10.1283 5.62944 9.66073 5.47001 9.18778 5.48595C8.7042 5.50721 8.25782 5.71447 7.92835 6.07052C7.74236 6.27245 7.60419 6.51687 7.52448 6.77726C6.80708 6.36808 5.87712 6.49563 5.29257 7.12801C5.02687 7.42028 4.86213 7.78693 4.82493 8.17486C4.72928 8.16423 4.63363 8.15891 4.53267 8.16422C4.04909 8.18548 3.60271 8.39274 3.27324 8.74878C2.94377 9.10483 2.7737 9.56715 2.79496 10.0507C2.81622 10.5343 3.02348 10.9807 3.37953 11.3102L3.73556 11.6396C3.44329 11.7619 3.18291 11.9638 2.98629 12.2242C2.43363 12.9575 2.55583 14.0416 3.2626 14.6952L8.79986 19.7967C9.12933 20.0996 9.48537 20.3866 9.85735 20.6416L11.494 21.7629C11.7597 21.9436 12.0307 22.1083 12.3018 22.2571L14.2892 23.3359C15.0863 23.7716 15.9897 24.0001 16.8931 24.0001C18.5458 24.0001 20.0868 23.2668 21.1284 21.9861C22.4941 20.3068 22.7439 17.9846 21.7714 16.0981V16.1087ZM14.7994 22.4112L12.8119 21.3324C12.5675 21.1996 12.323 21.0508 12.0945 20.8914L10.4578 19.7701C10.1336 19.5469 9.81484 19.2972 9.52257 19.0261L3.9853 13.9247C3.67709 13.6377 3.60802 13.1754 3.83653 12.8778C3.96938 12.7024 4.15537 12.5962 4.36793 12.5749C4.38919 12.5749 4.41576 12.5749 4.43702 12.5749C4.62832 12.5749 4.80901 12.644 4.94718 12.7768L9.496 16.9484C9.70856 17.145 10.0486 17.129 10.2452 16.9165C10.4418 16.6986 10.4259 16.3638 10.2133 16.1672L4.09159 10.5449C3.9428 10.4121 3.85777 10.2261 3.85245 10.0241C3.84182 9.8222 3.91625 9.63092 4.0491 9.48744C4.18195 9.33865 4.36793 9.25362 4.56455 9.24831C4.76117 9.22705 4.96311 9.31207 5.10659 9.44492L5.28193 9.60434C5.31382 9.64154 5.35102 9.67343 5.38822 9.71063L11.2549 15.115C11.3612 15.2107 11.5047 15.2585 11.6375 15.2532C11.781 15.2479 11.9085 15.1894 12.0095 15.0831C12.2061 14.8652 12.1955 14.5305 11.9776 14.3339L11.8766 14.2435C11.8766 14.2435 11.8447 14.2063 11.8235 14.1904L6.05248 8.87632C5.7974 8.58936 5.80273 8.15359 6.06311 7.86663C6.34476 7.56373 6.81771 7.5425 7.12592 7.82414L13.1626 13.4251C13.2689 13.5208 13.4071 13.5793 13.5453 13.5686C13.6887 13.5633 13.8163 13.4995 13.9119 13.3986C14.0076 13.2923 14.0607 13.1594 14.0554 13.0159C14.0501 12.8725 13.9916 12.745 13.8853 12.644L8.73606 7.87195C8.58727 7.7391 8.50227 7.55312 8.49696 7.35119C8.49164 7.14925 8.56072 6.95794 8.69358 6.80914C8.82643 6.66035 9.01241 6.57532 9.21434 6.57C9.41096 6.55938 9.60759 6.6338 9.75639 6.76665L16.909 13.3561C17.0153 13.4517 17.1535 13.4995 17.2917 13.4995C17.4351 13.4942 17.5627 13.4305 17.6583 13.3295C17.754 13.2232 17.8071 13.0903 17.7965 12.9469C17.7912 12.8034 17.7327 12.6759 17.6265 12.5802L15.3467 10.4759C15.0225 10.1783 14.9322 9.70531 15.1182 9.30675C15.1607 9.22173 15.2298 9.16328 15.3201 9.14734C15.4105 9.1314 15.5008 9.15797 15.5699 9.21642L17.9346 11.3952C18.025 11.4749 18.0941 11.5599 18.1579 11.6503C18.3757 11.9691 18.5989 12.3039 18.8115 12.6493C19.5661 13.8609 20.225 15.1682 20.7777 16.5551C21.5748 18.1068 21.3782 19.9827 20.2782 21.3324C18.9443 22.9692 16.6274 23.4262 14.7728 22.4165L14.7994 22.4112Z" fill="#46BFAF"/>
<path d="M4.39968 0.931652V0.921046C4.21369 0.554376 3.91612 0.357746 3.54945 0.379002C3.18278 0.400258 2.83736 0.655324 2.70982 1.00074C2.5876 1.33552 2.68855 1.68626 2.99145 1.97322C2.99145 1.97322 4.52193 3.23796 4.5485 3.26453C4.61758 3.3283 4.7079 3.36018 4.79824 3.36018C4.88326 3.36018 4.96298 3.33363 5.03737 3.28048C5.19148 3.16889 5.24462 2.97227 5.17023 2.81285L4.38905 0.936971L4.39968 0.931652Z" fill="#B6EDE5" stroke="#B6EDE5" stroke-miterlimit="10"/>
<path d="M2.5878 3.27004C2.3221 2.99902 1.91291 2.93525 1.54624 3.1053C1.17957 3.27535 0.966993 3.6314 1.0042 4.00338C1.02014 4.25314 1.13175 4.48163 1.31774 4.65168C1.48779 4.80579 1.70567 4.89082 1.95011 4.89082C1.97137 4.89082 1.99263 4.89082 2.0192 4.89082C2.07234 4.88019 2.22111 4.87489 2.39647 4.86957C3.17233 4.843 3.45398 4.82173 3.53369 4.657C3.58683 4.5826 3.61341 4.49759 3.61341 4.40193C3.61341 4.29034 3.56559 4.18935 3.48588 4.11495L2.59309 3.27004H2.5878Z" fill="#46BFAF"/>
<path d="M7.12073 0.0123936C6.60527 0.0814762 6.24391 0.554437 6.3183 1.08584C6.33425 1.13898 6.34489 1.28776 6.36614 1.46312C6.45117 2.23366 6.49368 2.51532 6.66373 2.57909C6.7275 2.6216 6.80188 2.64285 6.88159 2.64285C6.89753 2.64285 6.90817 2.64285 6.92411 2.64285C7.03039 2.63223 7.13137 2.57907 7.20045 2.49405L7.97628 1.53752C8.22604 1.25056 8.25795 0.836079 8.06133 0.485352C7.86471 0.134624 7.49803 -0.051375 7.12605 0.0123936H7.12073Z" fill="#46BFAF"/>
<path d="M21.6651 3.37623C21.9255 3.06271 21.9787 2.70135 21.814 2.38251C21.6439 2.05835 21.2613 1.84578 20.9052 1.87767C20.5492 1.90424 20.2729 2.14337 20.1347 2.53661L19.6033 4.49217C19.5502 4.66754 19.6245 4.85351 19.7946 4.94385C19.8584 4.98105 19.9275 4.99701 19.9912 4.99701C20.0975 4.99701 20.2038 4.95451 20.2729 4.86948L21.6598 3.38684L21.6705 3.37623H21.6651Z" fill="#B6EDE5" stroke="#B6EDE5" stroke-miterlimit="10"/>
<path d="M17.4511 1.56405C17.2279 1.68096 17.0685 1.8776 16.9888 2.11673C16.9144 2.35587 16.9357 2.61091 17.0632 2.85004C17.0951 2.90318 17.1641 3.04137 17.2439 3.20079C17.5893 3.8863 17.7221 4.13607 17.9028 4.13607C17.9294 4.14138 17.956 4.14667 17.9878 4.14667C18.1579 4.14667 18.3173 4.04041 18.3758 3.87036L18.7743 2.70659C18.9072 2.35054 18.7956 1.95197 18.4927 1.69158C18.1898 1.4312 17.7753 1.38338 17.4511 1.56937V1.56405Z" fill="#46BFAF"/>
<path d="M23.6208 5.48036C23.3444 5.03929 22.7652 4.90645 22.3082 5.19341C22.2604 5.23061 22.1275 5.31033 21.9734 5.40066C21.3145 5.7939 21.0753 5.94801 21.0913 6.12869C21.0807 6.21903 21.0966 6.30936 21.1444 6.38907C21.1976 6.48472 21.2879 6.54848 21.3942 6.57505L22.5845 6.88859C22.6642 6.90985 22.7493 6.92579 22.829 6.92579C23.1159 6.92579 23.3923 6.78763 23.5783 6.53256C23.8174 6.2084 23.8333 5.79389 23.6261 5.48567L23.6208 5.48036Z" fill="#46BFAF"/>
</g>
</g>
<defs>
<clipPath id="clip0_7419_783">
<rect width="24" height="24" fill="white"/>
</clipPath>
</defs>
</svg>
