<svg width="24" height="24" viewBox="0 0 24 24" fill="none" xmlns="http://www.w3.org/2000/svg">
<g clip-path="url(#clip0_7419_772)">
<path d="M12 24C18.6274 24 24 18.6274 24 12C24 5.37258 18.6274 0 12 0C5.3726 0 0 5.37258 0 12C0 18.6274 5.3726 24 12 24Z" fill="#B6EDE5"/>
<path d="M17.7362 13.3697C17.38 12.4758 16.9451 11.6128 16.4417 10.8012C16.2978 10.5683 16.1506 10.3457 16.0067 10.1334C15.9451 10.0443 15.8732 9.96215 15.7876 9.88338L14.2636 8.47927C14.0992 8.32859 13.8766 8.26352 13.6574 8.30804C13.4383 8.34913 13.2567 8.49297 13.1608 8.69503C13.0787 8.86968 13.041 9.05462 13.0479 9.23612L10.5136 6.9005C10.1095 6.52722 9.47597 6.55462 9.10268 6.95873C8.93487 7.14366 8.84582 7.37311 8.83897 7.60256L8.815 7.58201C8.61979 7.4005 8.36295 7.30461 8.09926 7.31831C7.83213 7.32859 7.58555 7.4416 7.40404 7.64023C7.22253 7.83544 7.13008 8.09228 7.14036 8.35598C7.14036 8.37311 7.14036 8.39023 7.14036 8.41078C7.02734 8.37311 6.9109 8.35598 6.79103 8.36283C6.52391 8.37311 6.27733 8.48612 6.09925 8.68475C5.92116 8.88338 5.82529 9.13681 5.83556 9.4005C5.84584 9.66763 5.95885 9.9142 6.15748 10.0923L6.6198 10.5169C6.34583 10.5478 6.09582 10.6882 5.92801 10.9108C5.62322 11.3149 5.69514 11.9142 6.08556 12.2738L9.65404 15.5615C9.85952 15.7532 10.0821 15.9313 10.315 16.0889L11.3698 16.8115C11.5341 16.9245 11.7054 17.0272 11.8766 17.1231L13.1574 17.8183C13.6609 18.0923 14.2088 18.2258 14.7533 18.2258C15.7328 18.2258 16.6951 17.7943 17.3492 16.993C18.1883 15.9621 18.3355 14.5341 17.7362 13.3697Z" fill="#058F7D"/>
<path d="M11.5171 13.5241L7.73635 10.0412C7.40073 9.73297 7.38018 9.209 7.6884 8.87338C7.99662 8.53777 8.5206 8.51722 8.85622 8.82544L12.75 12.435L9.43498 9.35968C9.09937 9.05147 9.07881 8.52749 9.38703 8.19187C9.69525 7.85626 10.2192 7.83571 10.5548 8.14393L14.3356 11.6268L15.1644 12.3905L13.6952 11.0378C13.3767 10.7432 13.2877 10.2775 13.4726 9.88708C13.6267 9.56516 14.0445 9.48639 14.3082 9.72612L15.8322 11.1302C15.9041 11.1987 15.9692 11.2706 16.0274 11.3528C16.1713 11.5617 16.3151 11.7809 16.4589 12.0104C17.0103 12.8974 17.4247 13.7604 17.7397 14.5515C18.3151 15.6713 18.1747 17.0275 17.3801 18.0035C16.4178 19.1885 14.7432 19.5172 13.4041 18.7878L12.1233 18.0926C11.9555 18.0001 11.7911 17.9008 11.6302 17.7912L10.5754 17.0686C10.3493 16.9145 10.1336 16.7432 9.93154 16.5583L6.36648 13.2706C6.04799 12.9761 5.96921 12.483 6.22949 12.1371C6.52743 11.7398 7.09593 11.6953 7.45209 12.0241L10.1884 14.5343L10.3836 14.7124L6.43841 11.0891C6.10279 10.7809 6.08224 10.2569 6.39046 9.92133C6.69868 9.58571 7.22264 9.56516 7.55826 9.87338L11.4247 13.435" fill="white"/>
<path d="M18.0513 14.4213C17.6917 13.5206 17.2533 12.6473 16.743 11.8254C16.5958 11.5925 16.452 11.3665 16.3013 11.1508C16.2328 11.0514 16.1506 10.959 16.0581 10.8699L14.5341 9.46582C14.3287 9.27746 14.0547 9.1987 13.7773 9.25006C13.5033 9.30486 13.2773 9.47952 13.1574 9.72952C13.1163 9.81171 13.0855 9.90075 13.065 9.98979L10.7807 7.88363C10.5479 7.66788 10.2465 7.56513 9.94166 7.57541C9.63002 7.58911 9.34235 7.72267 9.13002 7.95212C9.01016 8.08226 8.92111 8.23979 8.86974 8.4076C8.40741 8.1439 7.80809 8.2261 7.43138 8.63363C7.26015 8.82199 7.15398 9.05829 7.13001 9.30829C7.06837 9.30144 7.00673 9.29801 6.94166 9.30144C6.63001 9.31514 6.34235 9.4487 6.13002 9.67815C5.91769 9.9076 5.80809 10.2055 5.82179 10.5172C5.83549 10.8288 5.96906 11.1165 6.19851 11.3288L6.42796 11.5412C6.2396 11.6199 6.0718 11.7501 5.94509 11.9179C5.58893 12.3905 5.66768 13.0891 6.12316 13.5103L9.69167 16.798C9.904 16.9932 10.1335 17.1781 10.3732 17.3425L11.428 18.0651C11.5992 18.1816 11.7739 18.2877 11.9485 18.3836L13.2293 19.0788C13.743 19.3597 14.3252 19.5069 14.9074 19.5069C15.9725 19.5069 16.9656 19.0343 17.6369 18.209C18.517 17.1268 18.678 15.6302 18.0513 14.4144V14.4213ZM13.5581 18.4829L12.2773 17.7877C12.1198 17.7021 11.9622 17.6062 11.815 17.5035L10.7602 16.7809C10.5513 16.6371 10.3458 16.4761 10.1574 16.3014L6.58891 13.0138C6.39028 12.8288 6.34577 12.5309 6.49303 12.3391C6.57865 12.2261 6.69851 12.1576 6.8355 12.1439C6.84919 12.1439 6.86632 12.1439 6.88002 12.1439C7.0033 12.1439 7.11975 12.1884 7.20879 12.274L10.1403 14.9624C10.2773 15.0891 10.4965 15.0788 10.6232 14.9418C10.7499 14.8014 10.7396 14.5857 10.6026 14.459L6.65741 10.8357C6.56152 10.7501 6.50672 10.6302 6.50329 10.5001C6.49644 10.3699 6.54441 10.2466 6.63002 10.1542C6.71564 10.0583 6.83549 10.0035 6.96221 10.0001C7.08892 9.98637 7.21906 10.0412 7.31153 10.1268L7.42453 10.2295C7.44507 10.2535 7.46905 10.274 7.49302 10.298L11.2739 13.7809C11.3424 13.8425 11.4348 13.8734 11.5204 13.8699C11.6129 13.8665 11.6951 13.8288 11.7602 13.7603C11.8869 13.6199 11.88 13.4042 11.7396 13.2775L11.6746 13.2192C11.6746 13.2192 11.654 13.1953 11.6403 13.185L7.92111 9.76034C7.75672 9.57541 7.76015 9.29459 7.92796 9.10966C8.10947 8.91445 8.41426 8.90075 8.61289 9.08226L12.5033 12.6918C12.5718 12.7535 12.6609 12.7912 12.7499 12.7843C12.8424 12.7809 12.9246 12.7398 12.9862 12.6747C13.0479 12.6062 13.0821 12.5206 13.0787 12.4281C13.0752 12.3357 13.0376 12.2535 12.9691 12.1884L9.65055 9.11308C9.55466 9.02746 9.49989 8.9076 9.49646 8.77747C9.49304 8.64733 9.53755 8.52404 9.62317 8.42815C9.70879 8.33226 9.82864 8.27747 9.95878 8.27404C10.0855 8.26719 10.2122 8.31513 10.3081 8.40075L14.9177 12.6473C14.9862 12.709 15.0752 12.7398 15.1643 12.7398C15.2568 12.7364 15.3389 12.6953 15.4006 12.6302C15.4622 12.5617 15.4965 12.4761 15.4896 12.3836C15.4862 12.2912 15.4485 12.209 15.38 12.1473L13.9108 10.7912C13.7019 10.5994 13.6437 10.2946 13.7636 10.0377C13.791 9.98294 13.8355 9.94527 13.8937 9.935C13.9519 9.92472 14.0102 9.94185 14.0547 9.97952L15.5787 11.3836C15.6369 11.435 15.6814 11.4898 15.7225 11.548C15.8629 11.7535 16.0067 11.9692 16.1437 12.1918C16.63 12.9727 17.0547 13.8151 17.4109 14.709C17.9246 15.709 17.7978 16.9179 17.0889 17.7877C16.2294 18.8425 14.7362 19.1371 13.541 18.4864L13.5581 18.4829Z" fill="#46BFAF"/>
<path d="M6.85605 4.64037V4.63352C6.73619 4.39722 6.54442 4.27051 6.30812 4.28421C6.07182 4.29791 5.84921 4.46229 5.76702 4.68489C5.68825 4.90065 5.75331 5.12667 5.94851 5.31161C5.94851 5.31161 6.93483 6.12667 6.95196 6.1438C6.99648 6.18489 7.05468 6.20544 7.1129 6.20544C7.1677 6.20544 7.21907 6.18832 7.26702 6.15407C7.36633 6.08215 7.40058 5.95544 7.35263 5.8527L6.8492 4.6438L6.85605 4.64037Z" fill="white"/>
<path d="M5.68831 6.15068C5.51707 5.97602 5.25337 5.93492 5.01707 6.04451C4.78076 6.1541 4.64377 6.38355 4.66774 6.62328C4.67802 6.78424 4.74994 6.9315 4.86981 7.04109C4.9794 7.1404 5.11981 7.1952 5.27734 7.1952C5.29104 7.1952 5.30474 7.1952 5.32187 7.1952C5.35611 7.18835 5.45199 7.18492 5.565 7.1815C6.065 7.16438 6.24651 7.15068 6.29788 7.04452C6.33213 6.99657 6.34926 6.94177 6.34926 6.88013C6.34926 6.80821 6.31844 6.74314 6.26707 6.6952L5.69171 6.15068H5.68831Z" fill="#46BFAF"/>
<path d="M8.60957 4.04803C8.27737 4.09255 8.04449 4.39734 8.09244 4.73981C8.10271 4.77406 8.10957 4.86995 8.12327 4.98296C8.17807 5.47953 8.20546 5.66104 8.31505 5.70214C8.35615 5.72953 8.40408 5.74323 8.45545 5.74323C8.46573 5.74323 8.47258 5.74323 8.48286 5.74323C8.55135 5.73638 8.61642 5.70214 8.66094 5.64734L9.16093 5.0309C9.32189 4.84597 9.34245 4.57885 9.21574 4.35282C9.08903 4.12679 8.85272 4.00693 8.61299 4.04803H8.60957Z" fill="#058F7D"/>
<path d="M17.9828 6.21925C18.1506 6.0172 18.1848 5.78432 18.0787 5.57884C17.9691 5.36994 17.7225 5.23295 17.493 5.2535C17.2636 5.27062 17.0855 5.42473 16.9965 5.67816L16.654 6.93843C16.6197 7.05144 16.6677 7.17131 16.7773 7.22953C16.8184 7.2535 16.8629 7.26377 16.904 7.26377C16.9725 7.26377 17.041 7.23637 17.0855 7.18158L17.9793 6.2261L17.9862 6.21925H17.9828Z" fill="white"/>
<path d="M15.2671 5.05139C15.1233 5.12673 15.0206 5.25345 14.9692 5.40756C14.9213 5.56167 14.935 5.72605 15.0171 5.88016C15.0377 5.91441 15.0822 6.00345 15.1336 6.10619C15.3562 6.54797 15.4418 6.70893 15.5582 6.70893C15.5754 6.71235 15.5925 6.71578 15.613 6.71578C15.7226 6.71578 15.8254 6.64728 15.863 6.53769L16.1199 5.78769C16.2055 5.55824 16.1336 5.30139 15.9384 5.13358C15.7432 4.96578 15.476 4.93495 15.2671 5.05482V5.05139Z" fill="#46BFAF"/>
<path d="M19.2433 7.57189C19.0652 7.28764 18.6919 7.20202 18.3974 7.38696C18.3666 7.41093 18.2809 7.4623 18.1816 7.52052C17.757 7.77394 17.6028 7.87326 17.6131 7.98969C17.6063 8.04791 17.6166 8.10613 17.6474 8.1575C17.6816 8.21915 17.7398 8.26024 17.8083 8.27736L18.5754 8.47942C18.6268 8.49312 18.6816 8.50339 18.733 8.50339C18.9179 8.50339 19.096 8.41435 19.2159 8.24997C19.37 8.04106 19.3802 7.77394 19.2467 7.57531L19.2433 7.57189Z" fill="#058F7D"/>
</g>
<defs>
<clipPath id="clip0_7419_772">
<rect width="24" height="24" fill="white"/>
</clipPath>
</defs>
</svg>
