<svg width="24" height="24" viewBox="0 0 24 24" fill="none" xmlns="http://www.w3.org/2000/svg">
<path d="M12 24C18.6274 24 24 18.6274 24 12C24 5.37258 18.6274 0 12 0C5.3726 0 0 5.37258 0 12C0 18.6274 5.3726 24 12 24Z" fill="#C8E4AF"/>
<path d="M17.7362 13.3699C17.3801 12.4761 16.9451 11.6131 16.4417 10.8014C16.2979 10.5686 16.1506 10.346 16.0068 10.1336C15.9451 10.0446 15.8732 9.96239 15.7876 9.88363L14.2636 8.47951C14.0993 8.32883 13.8766 8.26376 13.6575 8.30828C13.4383 8.34938 13.2568 8.49321 13.1609 8.69527C13.0787 8.86993 13.041 9.05486 13.0479 9.23637L10.5136 6.90075C10.1095 6.52746 9.47597 6.55486 9.10268 6.95897C8.93487 7.1439 8.84582 7.37335 8.83897 7.6028L8.815 7.58226C8.61979 7.40075 8.36295 7.30486 8.09926 7.31856C7.83213 7.32883 7.58555 7.44184 7.40404 7.64047C7.22253 7.83568 7.13008 8.09253 7.14036 8.35623C7.14036 8.37335 7.14036 8.39047 7.14036 8.41102C7.02734 8.37335 6.9109 8.35623 6.79103 8.36308C6.52391 8.37335 6.27733 8.48637 6.09925 8.685C5.92116 8.88363 5.82529 9.13705 5.83556 9.40075C5.84584 9.66787 5.95885 9.91445 6.15748 10.0925L6.6198 10.5172C6.34583 10.548 6.09582 10.6884 5.92801 10.911C5.62322 11.3151 5.69514 11.9144 6.08555 12.274L9.65404 15.5617C9.85952 15.7535 10.0821 15.9316 10.315 16.0891L11.3698 16.8117C11.5342 16.9247 11.7054 17.0275 11.8766 17.1234L13.1575 17.8186C13.6609 18.0925 14.2088 18.2261 14.7534 18.2261C15.7328 18.2261 16.6951 17.7946 17.3493 16.9932C18.1883 15.9624 18.3356 14.5343 17.7362 13.3699Z" fill="#4E9019"/>
<path d="M11.5172 13.5241L7.73635 10.0412C7.40073 9.73297 7.38018 9.209 7.6884 8.87338C7.99662 8.53777 8.5206 8.51722 8.85622 8.82544L12.7501 12.435L9.43498 9.35968C9.09937 9.05147 9.07882 8.52749 9.38703 8.19187C9.69525 7.85626 10.2192 7.83571 10.5548 8.14393L14.3357 11.6268L15.1644 12.3905L13.6952 11.0378C13.3767 10.7432 13.2877 10.2775 13.4726 9.88708C13.6268 9.56516 14.0446 9.48639 14.3083 9.72612L15.8322 11.1302C15.9042 11.1987 15.9692 11.2706 16.0275 11.3528C16.1713 11.5617 16.3151 11.7809 16.4589 12.0104C17.0103 12.8974 17.4247 13.7604 17.7398 14.5515C18.3151 15.6713 18.1747 17.0275 17.3802 18.0035C16.4178 19.1885 14.7432 19.5172 13.4042 18.7878L12.1233 18.0926C11.9555 18.0001 11.7911 17.9008 11.6302 17.7912L10.5754 17.0686C10.3494 16.9145 10.1336 16.7432 9.93154 16.5583L6.36648 13.2706C6.04799 12.9761 5.96922 12.483 6.22949 12.1371C6.52743 11.7398 7.09593 11.6953 7.45209 12.0241L10.1884 14.5343L10.3836 14.7124L6.43841 11.0891C6.10279 10.7809 6.08224 10.2569 6.39046 9.92133C6.69868 9.58571 7.22264 9.56516 7.55826 9.87338L11.4247 13.435" fill="white"/>
<path d="M18.0514 14.4213C17.6918 13.5206 17.2534 12.6473 16.7431 11.8254C16.5959 11.5925 16.4521 11.3665 16.3014 11.1508C16.2329 11.0514 16.1507 10.959 16.0582 10.8699L14.5342 9.46582C14.3288 9.27746 14.0548 9.1987 13.7774 9.25006C13.5034 9.30486 13.2774 9.47952 13.1575 9.72952C13.1164 9.81171 13.0856 9.90075 13.0651 9.98979L10.7808 7.88363C10.548 7.66788 10.2466 7.56513 9.94178 7.57541C9.63014 7.58911 9.34247 7.72267 9.13014 7.95212C9.01028 8.08226 8.92123 8.23979 8.86986 8.4076C8.40753 8.1439 7.80821 8.2261 7.4315 8.63363C7.26027 8.82199 7.1541 9.05829 7.13013 9.30829C7.06849 9.30144 7.00685 9.29801 6.94178 9.30144C6.63013 9.31514 6.34247 9.4487 6.13014 9.67815C5.91781 9.9076 5.80821 10.2055 5.82191 10.5172C5.83561 10.8288 5.96918 11.1165 6.19863 11.3288L6.42808 11.5412C6.23972 11.6199 6.07192 11.7501 5.94521 11.9179C5.58905 12.3905 5.6678 13.0891 6.12328 13.5103L9.69179 16.798C9.90412 16.9932 10.1336 17.1781 10.3733 17.3425L11.4281 18.0651C11.5993 18.1816 11.774 18.2877 11.9486 18.3836L13.2294 19.0788C13.7431 19.3597 14.3253 19.5069 14.9075 19.5069C15.9726 19.5069 16.9657 19.0343 17.637 18.209C18.5171 17.1268 18.6781 15.6302 18.0514 14.4144V14.4213ZM13.5582 18.4829L12.2774 17.7877C12.1199 17.7021 11.9623 17.6062 11.8151 17.5035L10.7603 16.7809C10.5514 16.6371 10.3459 16.4761 10.1575 16.3014L6.58903 13.0138C6.3904 12.8288 6.34589 12.5309 6.49315 12.3391C6.57877 12.2261 6.69863 12.1576 6.83562 12.1439C6.84931 12.1439 6.86644 12.1439 6.88014 12.1439C7.00342 12.1439 7.11987 12.1884 7.20891 12.274L10.1404 14.9624C10.2774 15.0891 10.4966 15.0788 10.6233 14.9418C10.75 14.8014 10.7397 14.5857 10.6027 14.459L6.65753 10.8357C6.56164 10.7501 6.50684 10.6302 6.50341 10.5001C6.49656 10.3699 6.54453 10.2466 6.63014 10.1542C6.71576 10.0583 6.83561 10.0035 6.96233 10.0001C7.08904 9.98637 7.21918 10.0412 7.31165 10.1268L7.42465 10.2295C7.44519 10.2535 7.46917 10.274 7.49314 10.298L11.274 13.7809C11.3425 13.8425 11.4349 13.8734 11.5205 13.8699C11.613 13.8665 11.6952 13.8288 11.7603 13.7603C11.887 13.6199 11.8801 13.4042 11.7397 13.2775L11.6747 13.2192C11.6747 13.2192 11.6541 13.1953 11.6404 13.185L7.92123 9.76034C7.75684 9.57541 7.76027 9.29459 7.92808 9.10966C8.10959 8.91445 8.41438 8.90075 8.61301 9.08226L12.5034 12.6918C12.5719 12.7535 12.661 12.7912 12.75 12.7843C12.8425 12.7809 12.9247 12.7398 12.9863 12.6747C13.048 12.6062 13.0822 12.5206 13.0788 12.4281C13.0753 12.3357 13.0377 12.2535 12.9692 12.1884L9.65067 9.11308C9.55478 9.02746 9.50001 8.9076 9.49658 8.77747C9.49316 8.64733 9.53767 8.52404 9.62329 8.42815C9.70891 8.33226 9.82876 8.27747 9.9589 8.27404C10.0856 8.26719 10.2123 8.31513 10.3082 8.40075L14.9178 12.6473C14.9863 12.709 15.0753 12.7398 15.1644 12.7398C15.2569 12.7364 15.339 12.6953 15.4007 12.6302C15.4623 12.5617 15.4966 12.4761 15.4897 12.3836C15.4863 12.2912 15.4486 12.209 15.3801 12.1473L13.9109 10.7912C13.702 10.5994 13.6438 10.2946 13.7637 10.0377C13.7911 9.98294 13.8356 9.94527 13.8938 9.935C13.952 9.92472 14.0103 9.94185 14.0548 9.97952L15.5788 11.3836C15.637 11.435 15.6815 11.4898 15.7226 11.548C15.863 11.7535 16.0068 11.9692 16.1438 12.1918C16.6301 12.9727 17.0548 13.8151 17.411 14.709C17.9247 15.709 17.7979 16.9179 17.089 17.7877C16.2295 18.8425 14.7363 19.1371 13.5411 18.4864L13.5582 18.4829Z" fill="#5AC235"/>
<path d="M6.85618 4.64037V4.63352C6.73631 4.39722 6.54454 4.27051 6.30824 4.28421C6.07194 4.29791 5.84933 4.46229 5.76714 4.68489C5.68837 4.90065 5.75343 5.12667 5.94863 5.31161C5.94863 5.31161 6.93495 6.12667 6.95208 6.1438C6.9966 6.18489 7.05481 6.20544 7.11302 6.20544C7.16782 6.20544 7.21919 6.18832 7.26714 6.15407C7.36645 6.08215 7.4007 5.95544 7.35275 5.8527L6.84932 4.6438L6.85618 4.64037Z" fill="white"/>
<path d="M5.6883 6.15068C5.51707 5.97602 5.25337 5.93492 5.01706 6.04451C4.78076 6.1541 4.64377 6.38355 4.66774 6.62328C4.67802 6.78424 4.74994 6.9315 4.86981 7.04109C4.9794 7.1404 5.11981 7.1952 5.27734 7.1952C5.29104 7.1952 5.30474 7.1952 5.32186 7.1952C5.35611 7.18835 5.45199 7.18492 5.565 7.1815C6.065 7.16438 6.24651 7.15068 6.29788 7.04452C6.33213 6.99657 6.34926 6.94177 6.34926 6.88013C6.34926 6.80821 6.31844 6.74314 6.26707 6.6952L5.69171 6.15068H5.6883Z" fill="#5AC235"/>
<path d="M8.60957 4.04803C8.27737 4.09255 8.04449 4.39734 8.09244 4.73981C8.10271 4.77406 8.10957 4.86995 8.12327 4.98296C8.17806 5.47953 8.20546 5.66104 8.31505 5.70214C8.35615 5.72953 8.40408 5.74323 8.45545 5.74323C8.46573 5.74323 8.47258 5.74323 8.48285 5.74323C8.55135 5.73638 8.61642 5.70214 8.66094 5.64734L9.16093 5.0309C9.32189 4.84597 9.34245 4.57885 9.21574 4.35282C9.08902 4.12679 8.85272 4.00693 8.61299 4.04803H8.60957Z" fill="#4E9019"/>
<path d="M17.9829 6.21925C18.1507 6.0172 18.1849 5.78432 18.0788 5.57884C17.9692 5.36994 17.7226 5.23295 17.4931 5.2535C17.2637 5.27062 17.0856 5.42473 16.9966 5.67816L16.6541 6.93843C16.6198 7.05144 16.6678 7.17131 16.7774 7.22953C16.8185 7.2535 16.863 7.26377 16.9041 7.26377C16.9726 7.26377 17.0411 7.23637 17.0856 7.18158L17.9794 6.2261L17.9863 6.21925H17.9829Z" fill="white"/>
<path d="M15.2672 5.05139C15.1233 5.12673 15.0206 5.25345 14.9692 5.40756C14.9213 5.56167 14.935 5.72605 15.0172 5.88016C15.0377 5.91441 15.0822 6.00345 15.1336 6.10619C15.3562 6.54797 15.4418 6.70893 15.5583 6.70893C15.5754 6.71235 15.5925 6.71578 15.6131 6.71578C15.7227 6.71578 15.8254 6.64728 15.8631 6.53769L16.1199 5.78769C16.2055 5.55824 16.1336 5.30139 15.9384 5.13358C15.7432 4.96578 15.4761 4.93495 15.2672 5.05482V5.05139Z" fill="#5AC235"/>
<path d="M19.2431 7.57189C19.065 7.28764 18.6918 7.20202 18.3972 7.38696C18.3664 7.41093 18.2808 7.4623 18.1815 7.52052C17.7568 7.77394 17.6027 7.87326 17.613 7.98969C17.6061 8.04791 17.6164 8.10613 17.6472 8.1575C17.6815 8.21915 17.7397 8.26024 17.8082 8.27736L18.5753 8.47942C18.6267 8.49312 18.6815 8.50339 18.7329 8.50339C18.9178 8.50339 19.0959 8.41435 19.2157 8.24997C19.3699 8.04106 19.3801 7.77394 19.2466 7.57531L19.2431 7.57189Z" fill="#4E9019"/>
</svg>
