<svg width="24" height="24" viewBox="0 0 24 24" fill="none" xmlns="http://www.w3.org/2000/svg">
<path d="M12 24C18.6274 24 24 18.6274 24 12C24 5.37258 18.6274 0 12 0C5.37257 0 0 5.37258 0 12C0 18.6274 5.37257 24 12 24Z" fill="#B9E3F8"/>
<path d="M19.1267 14.8834L16.2157 13.2978C16.1095 13.243 15.9828 13.243 15.8801 13.3012C15.7774 13.3594 15.7123 13.469 15.7089 13.5889C15.6575 15.6745 13.4726 16.4998 13.4486 16.5101C13.3527 16.5443 13.2773 16.6197 13.2431 16.7156C13.2089 16.8115 13.2191 16.9176 13.2705 17.0067L14.0068 18.2635C14.0684 18.3663 14.1815 18.4313 14.3013 18.4313H16.0547C17.8458 18.4313 19.3013 16.9758 19.3013 15.1847C19.3013 15.058 19.2328 14.945 19.1232 14.8834H19.1267Z" fill="#2F7EA7"/>
<path d="M10.5513 16.5102C10.5308 16.5033 8.34587 15.6848 8.2945 13.5889C8.2945 13.4691 8.22601 13.3595 8.12327 13.3013C8.02053 13.2431 7.89381 13.2396 7.78765 13.2979L4.87669 14.8835C4.7671 14.9417 4.69861 15.0581 4.69861 15.1848C4.69861 16.9759 6.15408 18.4314 7.94518 18.4314H9.6986C9.81846 18.4314 9.93148 18.3663 9.99313 18.2636L10.7294 17.0068C10.7808 16.9177 10.7911 16.8115 10.7568 16.7157C10.7226 16.6198 10.6472 16.5444 10.5513 16.5102Z" fill="#2F7EA7"/>
<path d="M16.0514 13.5992L15.75 13.4348C15.1918 13.1301 14.7774 12.6198 14.5959 12.0136L13.75 9.19512C13.6644 8.9143 13.613 8.62663 13.589 8.33211L13.274 4.25677C13.25 3.92457 12.9692 3.66772 12.637 3.66772C12.2843 3.66772 11.9966 3.9554 11.9966 4.30814V14.3424C11.9966 14.8698 12.2534 15.3664 12.6884 15.6677C12.9007 15.815 13.0788 16.0068 13.2089 16.2328L13.5616 16.8355C13.5616 16.8355 15.9897 15.9691 16.0479 13.6027L16.0514 13.5992Z" fill="white"/>
<path d="M7.94873 13.5992L8.2501 13.4348C8.80832 13.1301 9.2227 12.6198 9.40421 12.0136L10.2501 9.19512C10.3357 8.9143 10.3871 8.62663 10.4111 8.33211L10.7261 4.25677C10.7501 3.92457 11.0309 3.66772 11.3631 3.66772C11.7159 3.66772 12.0035 3.9554 12.0035 4.30814V14.3424C12.0035 14.8698 11.7467 15.3664 11.3117 15.6677C11.0994 15.815 10.9213 16.0068 10.7912 16.2328L10.4385 16.8355C10.4385 16.8355 8.01038 15.9691 7.95216 13.6027L7.94873 13.5992Z" fill="white"/>
<path d="M16.2158 13.2981L15.9144 13.1337C15.435 12.8734 15.0822 12.4385 14.9247 11.9145L14.0788 9.09599C14.0035 8.83915 13.9521 8.57545 13.9316 8.3049L13.6199 4.22956C13.5822 3.72271 13.1507 3.32202 12.6405 3.32202C12.3939 3.32202 12.1747 3.41449 12 3.56517C11.8288 3.41449 11.6062 3.32202 11.3596 3.32202C10.8494 3.32202 10.4213 3.71928 10.3802 4.22956L10.0651 8.3049C10.0446 8.57202 9.9932 8.83915 9.91786 9.09599L9.07196 11.9145C8.91443 12.4385 8.56169 12.8734 8.08223 13.1337L7.78087 13.2981C7.66786 13.3597 7.59936 13.4796 7.60278 13.6063C7.66785 16.2878 10.4042 17.1748 10.4316 17.1748C10.5514 17.1748 10.6644 17.1097 10.7261 17.007L11.0788 16.4042C11.185 16.2227 11.3254 16.0686 11.5 15.9487C11.6953 15.8118 11.8631 15.6405 11.9966 15.4487C12.1302 15.6405 12.2946 15.8118 12.4932 15.9487C12.6679 16.0686 12.8083 16.2227 12.9144 16.4042L13.2672 17.007C13.3288 17.1097 13.4418 17.1748 13.5617 17.1748C13.5994 17.1748 13.6405 17.1679 13.6747 17.1542C13.7021 17.1439 16.3254 16.185 16.387 13.6063C16.387 13.4761 16.322 13.3597 16.2089 13.2981H16.2158ZM13.7055 16.3974L13.5069 16.0617C13.3494 15.7946 13.1405 15.5686 12.887 15.3905C12.5446 15.1542 12.3425 14.7638 12.3425 14.346V4.31175C12.3425 4.14737 12.4761 4.0138 12.6405 4.0138C12.7946 4.0138 12.9247 4.13367 12.935 4.28778L13.2501 8.36312C13.274 8.68161 13.3322 8.99325 13.4247 9.29805L14.2706 12.1165C14.4795 12.8152 14.9487 13.3905 15.5891 13.7433L15.7021 13.8049C15.5583 15.3254 14.2843 16.1234 13.7124 16.4042L13.7055 16.3974ZM11.6576 14.3426C11.6576 14.757 11.4555 15.1474 11.1131 15.3871C10.8562 15.5652 10.6473 15.7912 10.4932 16.0583L10.2946 16.3974C9.72265 16.1165 8.44526 15.3186 8.30484 13.798L8.41785 13.7364C9.05826 13.3871 9.52744 12.8117 9.73635 12.1097L10.5822 9.2912C10.6747 8.98641 10.7329 8.67476 10.7569 8.35627L11.072 4.28093C11.0822 4.12682 11.2124 4.00695 11.3665 4.00695C11.5309 4.00695 11.6644 4.14052 11.6644 4.3049V14.3391L11.6576 14.3426Z" fill="#46AFE6"/>
</svg>
