<svg id="Calque_1" data-name="Calque 1" xmlns="http://www.w3.org/2000/svg" viewBox="0 0 167.12 179.03">
  <defs>
    <style>
      .cls-1 {
        fill: #ddd;
        opacity: 0.4;
      }

      .cls-2 {
        fill: #d9ebf9;
      }

      .cls-10, .cls-11, .cls-12, .cls-13, .cls-2, .cls-3 {
        fill-rule: evenodd;
      }

      .cls-3, .cls-4 {
        fill: #333;
      }

      .cls-5 {
        fill: #fff;
      }

      .cls-6 {
        fill: #dbe1e7;
      }

      .cls-7 {
        fill: #f0f0f0;
      }

      .cls-8 {
        fill: #c3cdd4;
      }

      .cls-9 {
        fill: #adb6c2;
      }

      .cls-10 {
        fill: #d3a080;
      }

      .cls-11 {
        fill: #222045;
      }

      .cls-12 {
        fill: #05aee5;
      }

      .cls-13, .cls-15 {
        opacity: 0.2;
      }

      .cls-14 {
        fill: #ecc300;
      }

      .cls-15 {
        fill: #cccbcb;
      }
    </style>
  </defs>
  <g>
    <path class="cls-1" d="M8.5,80.91C8.5,51.07,14.37,43.37,28,28.5S65.49,2.76,88.57.84s41.69,8.45,51.56,18.81,28.51,36.68,28.51,61.26c0,19.39-4.51,32.63-18.36,51s-32.23,29-61.71,29-56-20.14-63-30.68S8.5,110.75,8.5,80.91Z" transform="translate(-8.5 -0.61)"/>
    <g>
      <path class="cls-2" d="M96.65,6.14,40.37,16.07a3.18,3.18,0,0,0-2.59,3.7L57.62,132.32a3.2,3.2,0,0,0,3.71,2.59L117.6,125a3.21,3.21,0,0,0,2.6-3.7L100.35,8.74A3.2,3.2,0,0,0,96.65,6.14Z" transform="translate(-8.5 -0.61)"/>
      <path class="cls-3" d="M96.67,6.27,40.39,16.2a3.2,3.2,0,0,0-2.59,3.7L57.65,132.45a3.18,3.18,0,0,0,3.7,2.59l56.28-9.92a3.19,3.19,0,0,0,2.59-3.7L100.37,8.87A3.2,3.2,0,0,0,96.67,6.27Zm20.44,112.65a3,3,0,0,1-2.36,3.49l-51.62,9.11A3,3,0,0,1,59.71,129L40.88,22.21a3,3,0,0,1,2.36-3.5l51.62-9.1a3,3,0,0,1,3.41,2.48Z" transform="translate(-8.5 -0.61)"/>
      <g>
        <path class="cls-4" d="M58.85,15.1,79,11.56a1.66,1.66,0,0,1,1.94,1.36l.45,2.54A1.67,1.67,0,0,1,80,17.4L59.88,21a1.68,1.68,0,0,1-2-1.36l-.44-2.54A1.68,1.68,0,0,1,58.85,15.1Z" transform="translate(-8.5 -0.61)"/>
        <g>
          <g>
            <rect class="cls-5" x="45.94" y="20.78" width="52.35" height="21.58" rx="1.6" transform="translate(-12.89 12.39) rotate(-10)"/>
            <g id="Text-Stuff">
              <rect id="Label" class="cls-6" x="49.19" y="28.68" width="29.17" height="3.24" rx="1.2" transform="translate(-12.79 10.92) rotate(-10)"/>
              <rect class="cls-6" x="50.2" y="34.83" width="19.58" height="3.24" rx="1.2" transform="matrix(0.98, -0.17, 0.17, 0.98, -13.92, 10.36)"/>
            </g>
            <g id="Check">
              <circle class="cls-6" cx="83.88" cy="27.38" r="2.8"/>
              <circle id="Indicator" class="cls-7" cx="83.88" cy="27.38" r="1.2"/>
            </g>
          </g>
          <g>
            <rect class="cls-5" x="49.83" y="45.21" width="52.35" height="16.78" rx="1.6" transform="translate(-16.66 13.4) rotate(-10)"/>
            <g>
              <rect class="cls-6" x="64.99" y="49.59" width="29.17" height="2.52" rx="1.2" transform="translate(-16.12 13.98) rotate(-10)"/>
              <rect class="cls-6" x="65.79" y="54.55" width="19.58" height="2.52" rx="1.2" transform="translate(-17.05 13.36) rotate(-10)"/>
            </g>
            <circle class="cls-8" cx="49.99" cy="56.08" r="4.8"/>
          </g>
          <g>
            <rect class="cls-5" x="53.3" y="64.89" width="52.35" height="16.78" rx="1.6" transform="translate(-20.02 14.3) rotate(-10)"/>
            <g>
              <rect class="cls-6" x="56.65" y="71.35" width="29.17" height="2.52" rx="1.2" transform="translate(-20.03 12.86) rotate(-10)"/>
              <rect class="cls-9" x="57.45" y="76.31" width="19.58" height="2.52" rx="1.2" transform="translate(-20.95 12.24) rotate(-10)"/>
            </g>
            <g>
              <circle class="cls-6" cx="91.24" cy="69.1" r="2.8"/>
              <circle class="cls-7" cx="91.24" cy="69.1" r="1.2"/>
            </g>
          </g>
          <g>
            <rect class="cls-5" x="56.77" y="84.57" width="52.35" height="16.78" rx="1.6" transform="translate(-23.38 15.2) rotate(-10)"/>
            <g>
              <rect class="cls-6" x="71.93" y="88.94" width="29.17" height="2.52" rx="1.2" transform="translate(-22.85 15.78) rotate(-10)"/>
              <rect class="cls-6" x="72.73" y="93.9" width="19.58" height="2.52" rx="1.2" transform="translate(-23.77 15.16) rotate(-10)"/>
            </g>
            <circle class="cls-8" cx="56.93" cy="95.44" r="4.8"/>
          </g>
          <g>
            <rect class="cls-5" x="60.24" y="104.24" width="52.35" height="16.78" rx="1.6" transform="translate(-26.75 16.11) rotate(-10)"/>
            <g>
              <rect class="cls-6" x="63.59" y="110.7" width="29.17" height="2.52" rx="1.2" transform="matrix(0.98, -0.17, 0.17, 0.98, -26.76, 14.66)"/>
              <rect class="cls-9" x="64.39" y="115.66" width="19.58" height="2.52" rx="1.2" transform="translate(-27.68 14.05) rotate(-10)"/>
            </g>
            <g>
              <circle class="cls-6" cx="98.18" cy="108.45" r="2.8"/>
              <circle class="cls-7" cx="98.18" cy="108.45" r="1.2"/>
            </g>
          </g>
        </g>
      </g>
    </g>
    <g id="Head">
      <path class="cls-10" d="M158.44,76.1c4-4,7-9,7.07-14.95.3-17.09-23.68-15.42-29-7.25-7.95,13-5.44,23.77-.74,26.9s7.34,4.89,12.75,2.24l-5.22,22.54,19,1.67Z" transform="translate(-8.5 -0.61)"/>
    </g>
    <path id="Hair" class="cls-11" d="M148.82,62.67q-2.43,15.14-7.12,14.73c-4.69-.41-8.42-6.14-10.48-6.32-1.5-.13-1.36,1.74-.45,3.26s5.15,2.4,5.62,4.15S133.06,79.91,133,81c-.15,1.74,3.92,4.32,6.1,5.12s8.62-.21,10.53-4.63c1.23-2.86.66-7.23,1.75-16.45.19,0,1.63.28,1.83.3,2.63.23,3.32,2.27,3.09,4.9a9.66,9.66,0,0,1-1.89,4c-.71,1,1.21,5.26,3.48,4.46,5.6-2.73,11.83-12.29,7.42-21.72-1.06-4.52-5.26-7.49-9-8.92-3-1.57-8-2.39-10.75-1.84a26.62,26.62,0,0,0-12,3.34c-.44,5.06.45,8.57,8.84,9.17C144.32,60,147.39,60.07,148.82,62.67Z" transform="translate(-8.5 -0.61)"/>
    <path class="cls-10" d="M134.2,113.49,118.92,88.35a63.89,63.89,0,0,0-5-16.63c-.83-1.1-2.6-2.49-2.65,1.75s-.28,8.7-1.77,9.16-3-2.25-5-1.24q-2,1,8.75,12l7.66,24.25Z" transform="translate(-8.5 -0.61)"/>
    <path id="Sleeve" class="cls-12" d="M146.66,117.05a63.38,63.38,0,0,1-24.32-25.79l-10,7.23c3.28,12.07,10.47,24.57,20.07,29.76A9.85,9.85,0,0,0,146.66,117.05Z" transform="translate(-8.5 -0.61)"/>
    <path id="Sleeve-2" data-name="Sleeve" class="cls-13" d="M146.66,117.05a63.38,63.38,0,0,1-24.32-25.79l-10,7.23c3.28,12.07,10.47,24.57,20.07,29.76A9.85,9.85,0,0,0,146.66,117.05Z" transform="translate(-8.5 -0.61)"/>
    <path class="cls-10" d="M79.44,121.28l-10.08-8.1q-.78-9.34-4-10c-1.53-1.08.05,7-3,5.76s-9.79-8.34-11.33-7.41c-2.28,1.38-1.45,7,.15,10,3,5.63,5.92,7.88,13.46,11.49a44.29,44.29,0,0,1,12.23,9.33Z" transform="translate(-8.5 -0.61)"/>
    <path id="Clothes" class="cls-12" d="M122.44,131.68q-14.79,1-46.07-16.73C68.84,125.4,68.48,123,68,128c17.32,13.34,32.57,19.91,46,22.57-1.84,7.93-5.14,21.39-2,25.68s45.42,5.42,56.7-1.74,5.82-24.37,3.32-43.35-6.68-33.76-9.82-39.82c-.74-1-4.59-.12-8.09-.76s-6.67-2.75-8.07-2.36C143.3,89,129.84,116.81,122.44,131.68Z" transform="translate(-8.5 -0.61)"/>
    <circle class="cls-14" cx="119.61" cy="26.53" r="17.96"/>
    <path class="cls-13" d="M141.39,39.33c1.64-1.73-1.08-5.76-5.26-6.5s-5.76-4.52-9.41-6.26-4.9,2.45-9.44,2.16-6.27-1.87-7,1.23A18.12,18.12,0,0,0,115.66,40a17.56,17.56,0,0,0,6.31,3.9c3.09,1.29,8.23,1,8.23,1A18.07,18.07,0,0,0,141.39,39.33Z" transform="translate(-8.5 -0.61)"/>
    <g>
      <path class="cls-5" d="M133.3,35.07a1.64,1.64,0,0,0-.8-1,1.43,1.43,0,0,1-.8-1.62c.39-3.19,6.64-9.41,1-13.57h0l.06-.11a1.66,1.66,0,1,0-2.95-1.53l-.05.11h0c-6.64-2.18-8.09,6.52-10.47,8.69a1.44,1.44,0,0,1-1.79.28,1.62,1.62,0,0,0-2.19.7,1.59,1.59,0,0,0-.11,1.24,1.66,1.66,0,0,0,.81,1l4.18,2.16.4.21A3.25,3.25,0,0,0,122,36a3.32,3.32,0,0,0,.83.3l.12,0H124l.12,0h0l.11,0h0l.09,0h0l.23-.08h0l.1,0h0l.11,0h0L125,36h0l.1,0,0,0,.1,0h0a1.1,1.1,0,0,0,.21-.14h0l.09-.07h0l.19-.17h0l0,0h0a3.1,3.1,0,0,0,.6-.82L131,37a1.63,1.63,0,0,0,2.3-1.94Z" transform="translate(-8.5 -0.61)"/>
      <path class="cls-15" d="M124.76,36.16h0l.11,0h0L125,36h0l.1,0,0,0,.1,0h0a1.1,1.1,0,0,0,.21-.14h0l.09-.07h0l.19-.17h0l0,0h0a3.1,3.1,0,0,0,.6-.82l-5.79-3A3.25,3.25,0,0,0,122,36a3.32,3.32,0,0,0,.83.3l.12,0H124l.12,0h0l.11,0h0l.09,0h0l.23-.08h0Z" transform="translate(-8.5 -0.61)"/>
      <path class="cls-15" d="M132.73,18.93l.06-.11a1.66,1.66,0,1,0-2.95-1.53l-.05.11" transform="translate(-8.5 -0.61)"/>
    </g>
  </g>
</svg>
