<?xml version="1.0" encoding="UTF-8"?>
<svg width="36px" height="36px" viewBox="0 0 36 36" version="1.1" xmlns="http://www.w3.org/2000/svg" xmlns:xlink="http://www.w3.org/1999/xlink">
    <!-- Generator: Sketch 48.2 (47327) - http://www.bohemiancoding.com/sketch -->
    <title>Fill 50</title>
    <desc>Created with Sketch.</desc>
    <defs>
        <linearGradient x1="32.2296816%" y1="33.9049793%" x2="84.1921828%" y2="74.8850399%" id="linearGradient-1">
            <stop stop-color="#F77478" offset="0%"></stop>
            <stop stop-color="#EC5D61" offset="100%"></stop>
        </linearGradient>
        <path d="M56,39.1975781 L54.1975781,41 L50,36.8024219 L45.8024219,41 L44,39.1975781 L48.1975781,35 L44,30.8024219 L45.8024219,29 L50,33.1975781 L54.1975781,29 L56,30.8024219 L51.8024219,35 L56,39.1975781 Z M50,21 C42.2692,21 36,27.2692 36,35 C36,42.7308 42.2692,49 50,49 C57.7322,49 64,42.7308 64,35 C64,27.2692 57.7322,21 50,21 L50,21 Z" id="path-2"></path>
        <filter x="-21.4%" y="-21.4%" width="142.9%" height="142.9%" filterUnits="objectBoundingBox" id="filter-3">
            <feOffset dx="0" dy="0" in="SourceAlpha" result="shadowOffsetOuter1"></feOffset>
            <feGaussianBlur stdDeviation="2" in="shadowOffsetOuter1" result="shadowBlurOuter1"></feGaussianBlur>
            <feColorMatrix values="0 0 0 0 0.419607843   0 0 0 0 0.48627451   0 0 0 0 0.576470588  0 0 0 0.1 0" type="matrix" in="shadowBlurOuter1"></feColorMatrix>
        </filter>
    </defs>
    <g id="Propal_1.9" stroke="none" stroke-width="1" fill="none" fill-rule="evenodd" transform="translate(-222.000000, -466.000000)">
        <g id="Content" transform="translate(20.000000, 114.000000)">
            <g id="Pas_Compris" transform="translate(170.000000, 335.000000)">
                <g id="Fill-50">
                    <use fill="black" fill-opacity="1" filter="url(#filter-3)" xlink:href="#path-2"></use>
                    <use fill="url(#linearGradient-1)" fill-rule="evenodd" xlink:href="#path-2"></use>
                </g>
            </g>
        </g>
    </g>
</svg>