<?xml version="1.0" encoding="UTF-8"?>
<svg width="24px" height="17px" viewBox="0 0 24 17" version="1.1" xmlns="http://www.w3.org/2000/svg" xmlns:xlink="http://www.w3.org/1999/xlink">
    <!-- Generator: Sketch 48.2 (47327) - http://www.bohemiancoding.com/sketch -->
    <title>Keyboard_Grey</title>
    <desc>Created with Sketch.</desc>
    <defs>
        <path d="M2,0 C0.897,0 0,0.897 0,2 L0,15 C0,16.103 0.897,17 2,17 L22,17 C23.103,17 24,16.103 24,15 L24,2 C24,0.897 23.103,0 22,0 L2,0 Z" id="path-1"></path>
    </defs>
    <g id="Input_Keyboard" stroke="none" stroke-width="1" fill="none" fill-rule="evenodd" transform="translate(-20.000000, -43.000000)">
        <g id="Tab_Bar">
            <g id="Keyboard" transform="translate(20.000000, 43.000000)">
                <g id="Keyboard_Grey">
                    <g id="Fill-2849">
                        <use fill="#FFFFFF" fill-rule="evenodd" xlink:href="#path-1"></use>
                        <path stroke="#858FA9" stroke-width="2" d="M2,1 C1.44928475,1 1,1.44928475 1,2 L1,15 C1,15.5507153 1.44928475,16 2,16 L22,16 C22.5507153,16 23,15.5507153 23,15 L23,2 C23,1.44928475 22.5507153,1 22,1 L2,1 Z"></path>
                    </g>
                    <polygon id="Fill-2848" fill="#858FA9" points="16 14 8 14 8 12 16 12"></polygon>
                    <path d="M7,7 C7,7.553 6.552,8 6,8 C5.448,8 5,7.553 5,7 C5,6.448 5.448,6 6,6 C6.552,6 7,6.448 7,7" id="Fill-2850" fill="#858FA9"></path>
                    <path d="M10,7 C10,7.553 9.552,8 9,8 C8.448,8 8,7.553 8,7 C8,6.448 8.448,6 9,6 C9.552,6 10,6.448 10,7" id="Fill-2851" fill="#858FA9"></path>
                    <path d="M13,7 C13,7.553 12.552,8 12,8 C11.448,8 11,7.553 11,7 C11,6.448 11.448,6 12,6 C12.552,6 13,6.448 13,7" id="Fill-2852" fill="#858FA9"></path>
                    <path d="M16,7 C16,7.553 15.552,8 15,8 C14.448,8 14,7.553 14,7 C14,6.448 14.448,6 15,6 C15.552,6 16,6.448 16,7" id="Fill-2853" fill="#858FA9"></path>
                    <path d="M18,8 C17.448,8 17,7.553 17,7 C17,6.448 17.448,6 18,6 C18.552,6 19,6.448 19,7 C19,7.553 18.552,8 18,8 Z" id="Fill-2854" fill="#858FA9"></path>
                    <path d="M7,4 C7,4.553 6.552,5 6,5 C5.448,5 5,4.553 5,4 C5,3.448 5.448,3 6,3 C6.552,3 7,3.448 7,4" id="Fill-2850" fill="#858FA9"></path>
                    <path d="M10,4 C10,4.553 9.552,5 9,5 C8.448,5 8,4.553 8,4 C8,3.448 8.448,3 9,3 C9.552,3 10,3.448 10,4" id="Fill-2851" fill="#858FA9"></path>
                    <path d="M12,5 C11.448,5 11,4.553 11,4 C11,3.448 11.448,3 12,3 C12.552,3 13,3.448 13,4 C13,4.553 12.552,5 12,5 Z" id="Fill-2852" fill="#858FA9"></path>
                    <path d="M16,4 C16,4.553 15.552,5 15,5 C14.448,5 14,4.553 14,4 C14,3.448 14.448,3 15,3 C15.552,3 16,3.448 16,4" id="Fill-2853" fill="#858FA9"></path>
                    <path d="M18,5 C17.448,5 17,4.553 17,4 C17,3.448 17.448,3 18,3 C18.552,3 19,3.448 19,4 C19,4.553 18.552,5 18,5 Z" id="Fill-2854" fill="#858FA9"></path>
                    <path d="M7,10 C7,10.553 6.552,11 6,11 C5.448,11 5,10.553 5,10 C5,9.448 5.448,9 6,9 C6.552,9 7,9.448 7,10" id="Fill-2855" fill="#858FA9"></path>
                    <path d="M10,10 C10,10.553 9.552,11 9,11 C8.448,11 8,10.553 8,10 C8,9.448 8.448,9 9,9 C9.552,9 10,9.448 10,10" id="Fill-2856" fill="#858FA9"></path>
                    <path d="M13,10 C13,10.553 12.552,11 12,11 C11.448,11 11,10.553 11,10 C11,9.448 11.448,9 12,9 C12.552,9 13,9.448 13,10" id="Fill-2857" fill="#858FA9"></path>
                    <path d="M16,10 C16,10.553 15.552,11 15,11 C14.448,11 14,10.553 14,10 C14,9.448 14.448,9 15,9 C15.552,9 16,9.448 16,10" id="Fill-2858" fill="#858FA9"></path>
                    <path d="M19,10 C19,10.553 18.552,11 18,11 C17.448,11 17,10.553 17,10 C17,9.448 17.448,9 18,9 C18.552,9 19,9.448 19,10" id="Fill-2859" fill="#858FA9"></path>
                </g>
            </g>
        </g>
    </g>
</svg>