<?xml version="1.0" encoding="UTF-8" standalone="no"?>
<!DOCTYPE svg PUBLIC "-//W3C//DTD SVG 1.1//EN" "http://www.w3.org/Graphics/SVG/1.1/DTD/svg11.dtd">
<svg width="100%" height="100%" viewBox="0 0 23 17" version="1.1" xmlns="http://www.w3.org/2000/svg" xmlns:xlink="http://www.w3.org/1999/xlink" xml:space="preserve" style="fill-rule:evenodd;clip-rule:evenodd;stroke-linejoin:round;stroke-miterlimit:1.41421;">
    <g>
        <path d="M19.25,0L2.75,0C1.233,0 0,1.272 0,2.833L0,14.167C0,15.729 1.233,17 2.75,17L19.25,17C20.767,17 22,15.729 22,14.167L22,2.833C22,1.272 20.767,0 19.25,0Z" style="fill:rgb(42,156,200);fill-rule:nonzero;"/>
        <path d="M1.077,0.013C1.224,0.029 1.362,0.062 1.493,0.134C1.561,0.171 1.576,0.185 1.638,0.231L11.001,7.72L20.379,0.23L20.449,0.179C20.516,0.139 20.531,0.126 20.602,0.095C20.709,0.049 20.824,0.021 20.94,0.013C21.056,0.006 21.173,0.019 21.285,0.052C21.654,0.161 21.934,0.481 21.992,0.862C22.005,0.948 22.006,1.036 21.997,1.123C21.974,1.326 21.888,1.519 21.753,1.673C21.702,1.731 21.685,1.742 21.627,1.793L10.999,10.28L0.389,1.792L0.323,1.735C0.269,1.679 0.254,1.667 0.208,1.604C0.139,1.51 0.087,1.405 0.054,1.293C-0.054,0.924 0.064,0.515 0.353,0.261C0.418,0.203 0.491,0.154 0.57,0.115C0.703,0.049 0.842,0.022 0.99,0.012C1.019,0.012 1.048,0.013 1.077,0.013Z" style="fill:white;fill-rule:nonzero;"/>
    </g>
</svg>
