<?xml version="1.0" encoding="UTF-8" standalone="no"?>
<!DOCTYPE svg PUBLIC "-//W3C//DTD SVG 1.1//EN" "http://www.w3.org/Graphics/SVG/1.1/DTD/svg11.dtd">
<svg width="100%" height="100%" viewBox="0 0 22 17" version="1.1" xmlns="http://www.w3.org/2000/svg" xmlns:xlink="http://www.w3.org/1999/xlink" xml:space="preserve" style="fill-rule:evenodd;clip-rule:evenodd;stroke-linejoin:round;stroke-miterlimit:1.41421;">
    <g transform="matrix(1,0,0,1,-0.00105968,-1.11022e-16)">
        <g>
            <g transform="matrix(0.909091,0,0,0.882353,1,1)">
                <path d="M19.257,-1.133C19.675,-1.128 20.088,-1.063 20.485,-0.924C21.548,-0.552 22.42,0.304 22.832,1.379C22.998,1.812 23.082,2.267 23.099,2.732C23.099,7.465 23.099,9.722 23.099,14.268C23.083,14.7 23.01,15.124 22.866,15.53C22.49,16.585 21.676,17.445 20.662,17.857C20.241,18.028 19.8,18.114 19.349,18.132C12.928,18.132 9.525,18.132 2.651,18.132C2.232,18.116 1.821,18.041 1.427,17.892C0.403,17.505 -0.432,16.666 -0.832,15.621C-0.998,15.188 -1.082,14.733 -1.099,14.268C-1.099,8.787 -1.099,7.421 -1.099,2.732C-1.083,2.3 -1.01,1.876 -0.866,1.47C-0.49,0.415 0.324,-0.444 1.338,-0.857C1.759,-1.028 2.2,-1.114 2.651,-1.132C8.828,-1.133 11.074,-1.133 19.257,-1.133ZM2.757,1.133C2.561,1.136 2.369,1.167 2.184,1.236C1.732,1.407 1.366,1.785 1.2,2.251C1.138,2.424 1.107,2.605 1.101,2.789C1.101,7.983 1.101,8.915 1.102,14.255C1.114,14.438 1.149,14.617 1.214,14.788C1.386,15.237 1.745,15.598 2.184,15.764C2.339,15.822 2.5,15.854 2.665,15.864C9.178,15.864 12.254,15.864 19.335,15.864C19.5,15.854 19.661,15.822 19.816,15.764C20.255,15.598 20.614,15.237 20.786,14.788C20.851,14.617 20.886,14.438 20.898,14.255C20.898,8.405 20.898,7.173 20.898,2.745C20.887,2.576 20.857,2.41 20.8,2.251C20.639,1.798 20.288,1.428 19.853,1.251C19.687,1.183 19.513,1.147 19.335,1.136C11.187,1.135 9.937,1.134 2.757,1.133Z" style="fill:rgb(133,143,169);fill-rule:nonzero;"/>
            </g>
            <path d="M2.088,1.003C2.226,1.021 2.357,1.053 2.481,1.12C2.546,1.156 2.559,1.168 2.619,1.211L11,7.733L19.389,1.211L19.456,1.163C19.519,1.125 19.534,1.114 19.601,1.084C19.702,1.04 19.811,1.012 19.921,1.003C20.03,0.994 20.142,1.004 20.249,1.031C20.629,1.127 20.925,1.448 20.989,1.836C21.007,1.945 21.007,2.056 20.989,2.165C20.957,2.356 20.869,2.535 20.738,2.678C20.688,2.732 20.673,2.742 20.617,2.789L11,10.267L1.391,2.789L1.328,2.736C1.276,2.684 1.261,2.672 1.216,2.614C1.148,2.527 1.095,2.429 1.059,2.325C1.023,2.22 1.005,2.11 1.005,2C1.005,1.665 1.178,1.346 1.458,1.163C1.55,1.103 1.653,1.058 1.759,1.031C1.831,1.013 1.85,1.013 1.922,1.003C2.005,1 2.005,1 2.088,1.003Z" style="fill:rgb(133,143,169);fill-rule:nonzero;"/>
        </g>
    </g>
</svg>
