<?xml version="1.0" encoding="UTF-8"?>
<svg width="16px" height="17px" viewBox="0 0 16 17" version="1.1" xmlns="http://www.w3.org/2000/svg" xmlns:xlink="http://www.w3.org/1999/xlink">
    <!-- Generator: Sketch 48.2 (47327) - http://www.bohemiancoding.com/sketch -->
    <title>Icon</title>
    <desc>Created with Sketch.</desc>
    <defs></defs>
    <g id="Home_V.1.1" stroke="none" stroke-width="1" fill="none" fill-rule="evenodd" transform="translate(-324.000000, -45.000000)">
        <g id="Navigation" fill="#FFFFFF">
            <g id="Icon" transform="translate(324.000000, 45.000000)">
                <path d="M13.3333333,17 L1.66666667,17 C0.7475,17 0,16.2525 0,15.3333333 L0,3.66666667 C0,2.74833333 0.7475,2 1.66666667,2 L7.5,2 L7.5,3.66666667 L1.66666667,3.66666667 L1.66666667,15.3333333 L13.3333333,15.3333333 L13.3333333,7.83333333 L15,7.83333333 L15,15.3333333 C15,16.2525 14.2525,17 13.3333333,17" id="Fill-1435"></path>
                <polygon id="Fill-1436" points="6.6 7 9 9.4 6 10"></polygon>
                <path d="M15.5207486,2.79307612 C16.1597505,2.1540743 16.1597505,1.11825318 15.5207486,0.479251362 C14.8817468,-0.159750454 13.8459257,-0.159750454 13.2069239,0.479251362 L8,5.68617524 L10.3138248,8 L15.5207486,2.79307612 Z" id="Fill-1437"></path>
            </g>
        </g>
    </g>
</svg>