<?xml version="1.0" encoding="UTF-8"?>
<svg width="14px" height="14px" viewBox="0 0 14 14" version="1.1" xmlns="http://www.w3.org/2000/svg" xmlns:xlink="http://www.w3.org/1999/xlink">
    <!-- Generator: Sketch 48.2 (47327) - http://www.bohemiancoding.com/sketch -->
    <title>Shape</title>
    <desc>Created with Sketch.</desc>
    <defs></defs>
    <g id="Connection_1-(V.1)" stroke="none" stroke-width="1" fill="none" fill-rule="evenodd" transform="translate(-326.000000, -97.000000)">
        <g id="Red" transform="translate(0.000000, 84.000000)" fill="#FFFFFF" fill-rule="nonzero">
            <path d="M337.942464,15.05625 C336.672921,13.7875 334.930582,13 332.995622,13 C329.125704,13 326,16.1325 326,20 C326,23.8675 329.125704,27 332.995622,27 C336.261413,27 338.984365,24.76875 339.763602,21.75 L337.942464,21.75 C337.224515,23.78875 335.280801,25.25 332.995622,25.25 C330.097561,25.25 327.742339,22.89625 327.742339,20 C327.742339,17.10375 330.097561,14.75 332.995622,14.75 C334.449031,14.75 335.744841,15.35375 336.690432,16.3075 L333.871169,19.125 L340,19.125 L340,13 L337.942464,15.05625 Z" id="Shape"></path>
        </g>
    </g>
</svg>