<?xml version="1.0" encoding="UTF-8"?>
<svg width="14px" height="14px" viewBox="0 0 14 14" version="1.1" xmlns="http://www.w3.org/2000/svg" xmlns:xlink="http://www.w3.org/1999/xlink">
    <!-- Generator: Sketch 48.2 (47327) - http://www.bohemiancoding.com/sketch -->
    <title>ic_send_med_white</title>
    <desc>Created with Sketch.</desc>
    <defs></defs>
    <g id="Conversation_6" stroke="none" stroke-width="1" fill="none" fill-rule="evenodd" transform="translate(-318.000000, -400.000000)">
        <g id="Tab_Bar" transform="translate(0.000000, 315.000000)">
            <g id="Send_CTA" transform="translate(310.000000, 77.000000)">
                <g id="ic_send_med_white" transform="translate(15.000000, 15.000000) rotate(-90.000000) translate(-15.000000, -15.000000) translate(7.000000, 7.000000)">
                    <g id="ic_send">
                        <polygon id="bounds" points="0 0 16 0 16 16 0 16"></polygon>
                        <path d="M2.56364049,1.42180003 L14.0401791,7.01221526 C14.8754959,7.41939824 14.8754959,8.58076691 14.0401791,8.98767383 L2.56364049,14.5780891 C1.99835657,14.8535932 1.33333333,14.4530356 1.33333333,13.8374301 L1.82239601,9.75428205 C1.86801541,9.37332442 2.17630058,9.07269916 2.56732404,9.02770199 L8.61997053,8.41182048 C9.12801768,8.36019796 9.12801768,7.63969113 8.61997053,7.58806861 L2.56732404,6.97218711 C2.17630058,6.92746599 1.86801541,6.62684073 1.82239601,6.24560704 L1.33333333,2.16245896 C1.33333333,1.54685351 1.99835657,1.14657194 2.56364049,1.42180003" id="icon" fill="#FFFFFF"></path>
                    </g>
                </g>
            </g>
        </g>
    </g>
</svg>