<svg width="75" height="124" viewBox="0 0 75 124" fill="none" xmlns="http://www.w3.org/2000/svg">
  <path d="M46.0251 62.0175C45.9463 70.8609 42.423 79.1707 36.1215 85.3987C29.8199 91.6354 21.4587 95.0731 12.5805 95.0731L-15.9912 95.0731L-15.9912 124L12.9924 124C47.0856 123.781 74.6845 96.2889 75 62.2974C75 62.1924 75 62.0875 75 61.9825C75 61.8863 75 61.7988 75 61.7026C74.6757 27.7111 47.0681 0.218679 12.9836 6.36248e-06L-16 7.62939e-06L-16 28.9269L12.5717 28.9269C21.45 28.9269 29.8111 32.3646 36.1127 38.6013C42.4142 44.838 45.9287 53.1391 46.0164 61.9825L46.0164 62.035L46.0251 62.0175Z" fill="#000" />
</svg>