<?xml version="1.0" encoding="UTF-8" standalone="no"?>
<svg
   xmlns:dc="http://purl.org/dc/elements/1.1/"
   xmlns:cc="http://creativecommons.org/ns#"
   xmlns:rdf="http://www.w3.org/1999/02/22-rdf-syntax-ns#"
   xmlns:svg="http://www.w3.org/2000/svg"
   xmlns="http://www.w3.org/2000/svg"
   xmlns:sodipodi="http://sodipodi.sourceforge.net/DTD/sodipodi-0.dtd"
   xmlns:inkscape="http://www.inkscape.org/namespaces/inkscape"
   inkscape:version="1.0 (4035a4fb49, 2020-05-01)"
   sodipodi:docname="undraw_studying_s3l7.svg"
   version="1.1"
   viewBox="0 0 1059.1107 789.36331"
   height="789.36328"
   width="1059.1107"
   data-name="Layer 1"
   id="0fa3c922-2890-4e83-a6a7-5bb6074ca9fa">
  <metadata
     id="metadata148">
    <rdf:RDF>
      <cc:Work
         rdf:about="">
        <dc:format>image/svg+xml</dc:format>
        <dc:type
           rdf:resource="http://purl.org/dc/dcmitype/StillImage" />
      </cc:Work>
    </rdf:RDF>
  </metadata>
  <sodipodi:namedview
     inkscape:document-rotation="0"
     inkscape:current-layer="0fa3c922-2890-4e83-a6a7-5bb6074ca9fa"
     inkscape:window-maximized="1"
     inkscape:window-y="-9"
     inkscape:window-x="-9"
     inkscape:cy="465.72833"
     inkscape:cx="525.04479"
     inkscape:zoom="0.42278969"
     showgrid="false"
     id="namedview146"
     inkscape:window-height="1001"
     inkscape:window-width="1920"
     inkscape:pageshadow="2"
     inkscape:pageopacity="0"
     guidetolerance="10"
     gridtolerance="10"
     objecttolerance="10"
     borderopacity="1"
     bordercolor="#666666"
     pagecolor="#ffffff" />
  <defs
     id="defs9">
    <linearGradient
       gradientUnits="userSpaceOnUse"
       y2="287.56"
       x2="602.84998"
       y1="654.57001"
       x1="602.84998"
       id="5f966abe-ca91-49e1-9c3c-162f077ee9a1">
      <stop
         id="stop2"
         stop-opacity="0.25"
         stop-color="gray"
         offset="0" />
      <stop
         id="stop4"
         stop-opacity="0.12"
         stop-color="gray"
         offset="0.54" />
      <stop
         id="stop6"
         stop-opacity="0.1"
         stop-color="gray"
         offset="1" />
    </linearGradient>
  </defs>
  <title
     id="title11">studying</title>
  <g
     transform="translate(-0.01239554,-0.05672419)"
     clip-path="none"
     id="g1036">
    <path
       transform="translate(-70.44,-55.29)"
       style="opacity:0.1;fill:#e20037"
       inkscape:connector-curvature="0"
       d="m 1112.21,406.81 c -0.19,1.12 -0.38,2.24 -0.59,3.36 -6.78,38.14 -17.85,74.91 -34.31,108.67 q -0.81,1.68 -1.65,3.36 A 310.57,310.57 0 0 1 1037,581.82 c -8.2,9.89 -17.14,19.28 -27.77,26.06 -14.9,9.5 -32.32,13.36 -49.44,16.52 -17.79,3.29 -35.81,6 -53.79,9 q -9.56,1.56 -19,3.27 c -17.37,3.14 -34.61,6.77 -51.44,11.58 -20.81,6 -41,13.73 -60,24.68 q -2.28,1.3 -4.51,2.67 c -1.49,0.9 -3,1.82 -4.45,2.76 -1.45,0.94 -2.91,1.87 -4.35,2.82 l -2.22,1.5 c -0.73,0.48 -1.45,1 -2.17,1.48 -2.14,1.46 -4.25,3 -6.36,4.48 l -0.08,0.06 c -1.39,1 -2.77,2 -4.15,3 -7.79,5.77 -15.41,11.81 -23,17.87 l -4.79,3.83 q -3.71,2.94 -7.42,5.87 c -1.45,1.15 -2.92,2.29 -4.38,3.43 -1.06,0.83 -2.11,1.66 -3.19,2.48 -5.41,4.17 -10.89,8.25 -16.48,12.15 -1.33,0.93 -2.68,1.86 -4,2.77 a 210.89,210.89 0 0 1 -35.54,19.58 l -0.16,0.07 a 141,141 0 0 1 -18.88,6.51 c -3.69,1 -7.38,1.79 -11.12,2.41 a 98.28,98.28 0 0 1 -30.15,0.52 c -19.69,-2.79 -38.14,-12 -57.78,-15.08 -40.52,-6.29 -79.87,14 -118,29.93 q -14,5.86 -28.31,11 -9.48,3.42 -19.05,6.51 a 599.78,599.78 0 0 1 -119.53,25.57 c -16.58,1.81 -33.87,2.67 -50.75,1.37 a 171.42,171.42 0 0 1 -19,-2.47 c -21.37,-4 -41.32,-12.49 -57.39,-28 C 105,785.33 95.58,768.74 88.4,751.43 Q 84.07,741 80.77,730.09 A 238,238 0 0 1 73,695.26 c -0.39,-2.66 -0.74,-5.33 -1,-8 q -0.78,-6.87 -1.16,-13.8 a 239,239 0 0 1 7.11,-73 c 6.81,-26.39 18.17,-51.66 23.17,-78.3 0.21,-1.12 0.4,-2.24 0.59,-3.36 q 1,-6 1.52,-12.22 C 105.75,474 96,442.11 88.3,410.17 c -0.27,-1.12 -0.54,-2.24 -0.8,-3.36 Q 86.25,401.5 85.13,396.18 C 78,362.4 76.05,326.25 82.38,292.54 c 0.2,-1.12 0.43,-2.25 0.66,-3.36 4.27,-20.88 11.81,-40.74 23.36,-58.43 11.85,-18.16 27.41,-33.27 44,-46.55 q 12.15,-9.7 25.13,-18.15 9.33,-6.06 19,-11.47 c 52.09,-29 111.52,-43.17 170.28,-40 q 4.67,0.24 9.32,0.64 4.88,0.42 9.73,1 c 37.83,4.37 74.64,15.2 111.23,27.05 12.26,4 24.49,8 36.72,12 q 8.16,2.66 16.31,5.25 c 26.65,8.41 53.74,16 81.08,21.72 q 9.51,2 19,3.65 a 449.08,449.08 0 0 0 66.59,6.86 q 13,0.32 26,-0.27 6.57,-0.3 13.15,-0.88 c 45.31,-3.88 89,-16.89 132.87,-29.11 6.34,-1.77 12.69,-3.53 19,-5.23 8.34,-2.24 16.69,-4.41 25.07,-6.41 52.18,-12.53 98.68,-5.33 147.19,20.51 11,5.87 22,12.95 28.8,23.91 6.8,10.96 8.45,24.53 9.71,37.59 1.78,18.58 3,37.42 3.39,56.34 0,1.12 0,2.24 0.07,3.36 0.88,38.31 -1.45,76.91 -7.83,114.25 z"
       id="path13" />
    <path
       style="opacity:0.1;fill:#e20037"
       inkscape:connector-curvature="0"
       d="m 766.12,518.84 h -3.41 v 1.49 1.87 h 3.86 z m -38.65,0 a 0.22,0.22 0 0 0 0,0.08 l -0.3,2.78 v 0.25 0.25 h 29.6 V 522 l 2.11,-3.16 z m -79.15,0 V 410.17 h 34 c -0.36,-0.3 -0.73,-0.6 -1.11,-0.88 l -0.5,-0.38 c -0.21,-0.17 -0.42,-0.33 -0.64,-0.48 -0.22,-0.15 -0.74,-0.53 -1.13,-0.79 -0.39,-0.26 -0.63,-0.43 -1,-0.64 l -0.23,-0.15 h -0.05 -29.34 v -5.95 l -0.79,0.38 -0.84,0.47 h -0.06 l -0.18,0.11 -0.52,0.34 c -0.18,0.11 -0.36,0.22 -0.53,0.34 -0.52,0.35 -1,0.73 -1.55,1.12 l -0.5,0.4 c -0.34,0.26 -0.66,0.53 -1,0.8 -1.33,1.09 -2.64,2.23 -4,3.28 -0.34,0.27 -0.68,0.53 -1,0.78 a 25.81,25.81 0 0 1 -2.26,1.48 10.74,10.74 0 0 1 -1,0.55 l -0.56,0.26 -0.51,0.22 v 0 a 21.24,21.24 0 0 1 -3.72,1.18 v 106.23 h -51 c 0,0.12 0.07,0.23 0.1,0.35 0.28,1 0.56,2 0.83,3 h 50.08 v 116.49 h 0.78 l 0.89,0.06 1.62,0.12 2.62,0.26 1.18,0.14 1.3,0.16 h 0.19 c 0.75,0.1 1.51,0.22 2.28,0.34 l 0.49,0.08 1.1,0.18 1.58,0.28 v 0 l 3.79,-0.2 v 0 l 0.52,0.11 c 0.21,0 0.42,0.08 0.64,0.13 V 522.2 h 78.81 v -0.25 -0.25 l 0.3,-2.78 a 0.22,0.22 0 0 1 0,-0.08 z m 117.8,0 h -3.41 v 1.49 1.87 h 3.86 z m -40.78,0 -0.34,3.36 h 32.93 l 2.24,-3.36 z m -77,0 V 410.17 h 34 c -0.36,-0.3 -0.73,-0.6 -1.11,-0.88 l -0.5,-0.38 c -0.21,-0.17 -0.42,-0.33 -0.64,-0.48 -0.22,-0.15 -0.74,-0.53 -1.13,-0.79 -0.39,-0.26 -0.63,-0.43 -1,-0.64 l -0.23,-0.15 h -0.07 -29.34 v -5.95 l -0.79,0.38 -0.84,0.47 h -0.06 l -0.18,0.11 -0.52,0.34 c -0.18,0.11 -0.36,0.22 -0.53,0.34 -0.52,0.35 -1,0.73 -1.55,1.12 l -0.5,0.4 c -0.34,0.26 -0.66,0.53 -1,0.8 -1.33,1.09 -2.64,2.23 -4,3.28 -0.34,0.27 -0.68,0.53 -1,0.78 a 25.81,25.81 0 0 1 -2.26,1.48 10.74,10.74 0 0 1 -1,0.55 l -0.56,0.26 -0.51,0.22 v 0 a 21.24,21.24 0 0 1 -3.72,1.18 v 106.23 h -51 c 0,0.12 0.07,0.23 0.1,0.35 0.28,1 0.57,2 0.84,3 h 50.07 v 116.48 l 0.78,0.05 0.89,0.06 1.62,0.12 2.62,0.26 1.18,0.14 1.3,0.16 h 0.19 c 0.75,0.1 1.51,0.22 2.28,0.34 l 0.49,0.08 1.1,0.18 1.58,0.28 v 0 l 3.79,-0.2 v 0 l 0.52,0.11 c 0.21,0 0.42,0.08 0.64,0.13 V 522.2 H 725 l 0.36,-3.36 z M 906,292.54 h 214.23 c 0,-1.12 0,-2.24 -0.07,-3.36 H 906 V 157.24 c -6.36,1.7 -12.71,3.46 -19,5.23 V 289.18 H 654 l -0.59,-0.64 0.89,-1 v 0 l 86.66,-95.11 q -13,0.6 -26,0.27 l -66.64,73.1 v -79.93 q -9.54,-1.65 -19,-3.65 v 79.9 L 531.89,155.25 c -12.23,-4 -24.46,-8.07 -36.72,-12 l 132.43,145.29 -0.59,0.64 H 383.94 v -173 q -4.86,-0.55 -9.73,-1 -4.65,-0.41 -9.32,-0.64 V 289.18 H 194.61 v -134.6 q -9.69,5.4 -19,11.47 V 289.18 H 83 c -0.23,1.11 -0.46,2.24 -0.66,3.36 h 93.19 V 406.81 H 87.5 c 0.26,1.12 0.53,2.24 0.8,3.36 h 87.27 v 108.67 h -73.89 c -0.19,1.12 -0.38,2.24 -0.59,3.36 h 74.48 v 303.85 a 171.42,171.42 0 0 0 19,2.47 V 522.2 h 170.32 v 279.38 q 9.58,-3.11 19.05,-6.51 V 522.2 h 245.34 v 244.1 a 141,141 0 0 0 18.88,-6.51 l 0.16,-0.07 V 522.2 h 238.62 v 114.47 q 9.49,-1.71 19,-3.27 V 522.2 h 169.67 q 0.84,-1.68 1.65,-3.36 H 906 V 410.17 h 205.63 c 0.21,-1.12 0.4,-2.24 0.59,-3.36 H 906 Z m -711.38,0 H 364.89 V 406.81 H 194.61 Z m 0,226.3 V 410.17 H 364.89 V 518.84 Z M 383.95,292.54 H 629.28 V 406.81 H 383.94 Z m 0,226.3 V 410.17 h 245.33 v 108.67 z m 503,0 H 648.32 V 410.17 h 238.62 z m 0,-112 H 648.32 V 295.6 l 3.35,-3.06 h 235.27 z m -159.47,112 a 0.22,0.22 0 0 0 0,0.08 l -0.3,2.78 v 0.25 0.25 h 29.6 V 522 l 2.11,-3.16 z m 38.65,0 h -3.41 v 1.49 1.87 h 3.86 z m -117.8,0 V 410.17 h 34 c -0.36,-0.3 -0.73,-0.6 -1.11,-0.88 l -0.5,-0.38 c -0.21,-0.17 -0.42,-0.33 -0.64,-0.48 -0.22,-0.15 -0.74,-0.53 -1.13,-0.79 -0.39,-0.26 -0.63,-0.43 -1,-0.64 l -0.23,-0.15 h -0.05 -29.35 v -5.95 l -0.79,0.38 -0.84,0.47 h -0.06 l -0.18,0.11 -0.52,0.34 c -0.18,0.11 -0.36,0.22 -0.53,0.34 -0.52,0.35 -1,0.73 -1.55,1.12 l -0.5,0.4 c -0.34,0.26 -0.66,0.53 -1,0.8 -1.33,1.09 -2.64,2.23 -4,3.28 -0.34,0.27 -0.68,0.53 -1,0.78 a 25.81,25.81 0 0 1 -2.26,1.48 10.74,10.74 0 0 1 -1,0.55 l -0.56,0.26 -0.51,0.22 v 0 a 21.24,21.24 0 0 1 -3.72,1.18 v 106.23 h -51 c 0,0.12 0.07,0.23 0.1,0.35 0.28,1 0.56,2 0.83,3 h 50.08 v 116.49 h 0.78 l 0.89,0.06 1.62,0.12 2.62,0.26 1.18,0.14 1.3,0.16 h 0.19 c 0.75,0.1 1.51,0.22 2.28,0.34 l 0.49,0.08 1.1,0.18 1.58,0.28 v 0 l 3.79,-0.2 v 0 l 0.52,0.11 c 0.21,0 0.42,0.08 0.64,0.13 V 522.2 h 78.81 v -0.25 -0.25 l 0.3,-2.78 a 0.22,0.22 0 0 1 0,-0.08 z"
       id="path15"
       transform="translate(-70.44,-55.29)" />
    <path
       style="opacity:0.1;fill:#e20037"
       inkscape:connector-curvature="0"
       d="M 276.48,213.86 H 278 a 3.64,3.64 0 0 1 -1.81,-2.93 v 0 c 0,-2.32 2.84,-4.21 6.31,-4.21 h 44.15 c 3.47,0 6.31,1.89 6.31,4.21 v 0 c 0,2.31 -2.84,4.21 -6.31,4.21 h -1.47 a 3.65,3.65 0 0 1 1.8,2.93 c 0,2 -2.06,3.64 -4.82,4.09 h 12.71 c 3.46,0 6.3,1.89 6.3,4.21 0,2.32 -2.84,4.2 -6.3,4.2 h -44.2 c -3.46,0 -6.3,-1.89 -6.3,-4.2 0,-2 2.06,-3.64 4.82,-4.09 h -12.71 c -3.46,0 -6.3,-1.89 -6.3,-4.21 0,-2.32 2.82,-4.21 6.3,-4.21 z"
       transform="translate(-70.44,-55.29)"
       id="path17" />
    <path
       style="opacity:0.1;fill:#e20037"
       inkscape:connector-curvature="0"
       d="m 755,253.93 h 1.48 a 3.65,3.65 0 0 1 -1.81,-2.94 v 0 c 0,-2.31 2.84,-4.2 6.31,-4.2 h 44.15 c 3.47,0 6.31,1.89 6.31,4.2 v 0 c 0,2.32 -2.84,4.21 -6.31,4.21 h -1.47 a 3.66,3.66 0 0 1 1.8,2.94 c 0,2 -2.06,3.63 -4.82,4.08 h 12.71 c 3.46,0 6.3,1.9 6.3,4.21 0,2.31 -2.84,4.21 -6.3,4.21 h -44.14 c -3.46,0 -6.3,-1.89 -6.3,-4.21 0,-2 2.06,-3.64 4.82,-4.08 H 755 c -3.46,0 -6.3,-1.9 -6.3,-4.21 0,-2.31 2.86,-4.21 6.3,-4.21 z"
       transform="translate(-70.44,-55.29)"
       id="path19" />
    <path
       style="opacity:0.1;fill:#e20037"
       inkscape:connector-curvature="0"
       d="m 208.75,425.4 h 1.48 a 3.66,3.66 0 0 1 -1.8,-2.94 v 0 c 0,-2.31 2.83,-4.21 6.3,-4.21 h 44.15 c 3.47,0 6.31,1.9 6.31,4.21 v 0 c 0,2.32 -2.84,4.21 -6.31,4.21 h -1.47 a 3.66,3.66 0 0 1 1.8,2.94 c 0,2 -2.06,3.63 -4.82,4.08 h 12.71 c 3.47,0 6.3,1.89 6.3,4.21 0,2.32 -2.83,4.21 -6.3,4.21 h -44.16 c -3.46,0 -6.3,-1.9 -6.3,-4.21 0,-2 2.07,-3.64 4.82,-4.09 h -12.71 c -3.46,0 -6.3,-1.89 -6.3,-4.2 0,-2.31 2.84,-4.21 6.3,-4.21 z"
       transform="translate(-70.44,-55.29)"
       id="path21" />
    <path
       style="fill:#65617d"
       inkscape:connector-curvature="0"
       d="m 719.36,713.44 q -3.71,2.94 -7.42,5.87 c -1.45,1.15 -2.92,2.29 -4.38,3.43 -1.06,0.83 -2.11,1.66 -3.19,2.48 -5.41,4.17 -10.89,8.25 -16.48,12.15 -1.33,0.93 -2.68,1.86 -4,2.77 a 210.89,210.89 0 0 1 -35.54,19.58 l -0.16,0.07 v -46.35 z"
       transform="translate(-70.44,-55.29)"
       id="path23" />
    <path
       style="fill:url(#5f966abe-ca91-49e1-9c3c-162f077ee9a1)"
       inkscape:connector-curvature="0"
       d="m 830.64,531.28 1.12,-34.55 c -0.67,-0.52 -1.35,-1 -2,-1.48 A 184.18,184.18 0 0 0 828,464.44 c -4.52,-34.55 -33.87,-35.3 -42.15,-28.17 a 20,20 0 0 1 -3.57,2.46 c 0.75,-4.93 1.68,-9.87 2.35,-14.75 3.62,-26.32 -2,-55.93 -22.42,-72.94 -8.55,-7.11 -19,-11.48 -28.39,-17.43 C 717,323 703.71,307.33 686.7,297 c -17.01,-10.33 -40.9,-14.2 -55.74,-0.92 -5.75,5.14 -9.46,12.27 -15.36,17.23 -11,9.24 -28.15,9.85 -37.75,20.17 v 0 c -0.48,0.52 -0.94,1.05 -1.38,1.61 -8,10.26 -5.81,24.81 -3.26,37.54 3.07,15.32 1.8,27.6 14.94,32 0.05,0.61 0.09,1.22 0.16,1.82 a 64.91,64.91 0 0 0 28.56,46.72 l -2.13,0.76 c -5.68,2 -10.79,3.94 -14.06,5.27 -12,4.89 -37.26,11.26 -37.26,11.26 0,0 -0.6,7.2 -0.49,17.82 -8.42,9.15 -22.47,25.23 -26.6,34.76 -6,13.9 -39.9,53.71 -48.93,59.72 -9.03,6.01 -18.82,13.14 -18.82,13.14 0,0 -14.3,7.89 -21.07,8.64 -4.69,0.52 -19.2,-2.26 -19.2,-2.26 0,0 -57.95,-71 -54.19,-16.52 3.76,54.48 50.05,56.33 50.05,56.33 l 46.67,-0.75 c 0,0 25.22,3.38 36.51,-6 9.64,-8 59.6,-51.89 75.65,-71.8 0.37,0.41 0.74,0.81 1.13,1.2 0,0 6.39,-8.26 7.15,0 0.76,8.26 -4.15,12 -1.51,15 2.64,3 10.54,13.52 10.91,17.65 0.37,4.13 -10.53,21 7.9,33.8 0.29,0.2 0.6,0.39 0.94,0.58 3.29,7.49 13.75,14.82 13.75,14.82 l 56.45,-0.75 106.51,8.26 c 0,0 3.17,-2.79 7.46,-7.35 5.73,5.26 13.68,9.77 22.64,7 0,0 12.8,-15.39 13.18,-25.53 0,0 -8.28,-21.41 -12,-27.79 -3.72,-6.38 2.64,-20.28 2.64,-20.28 0,0 4.51,-13.52 7.15,-13.52 2.64,0 0.75,-9 0.75,-9 a 10.94,10.94 0 0 1 -1.13,-10.14 c 2.21,-5.69 3.72,-16.21 3.72,-16.21 z"
       transform="translate(-70.44,-55.29)"
       id="path25" />
    <path
       style="fill:#ee8e9e"
       inkscape:connector-curvature="0"
       d="m 766.79,523.5 -4,4.68 v 0 l -16.16,18.82 -21.11,1.28 -33.79,2.08 c 0,0 -45.56,-54.9 -37,-66.85 3.11,-4.31 3.62,-10 3,-15.37 -0.08,-0.74 -0.19,-1.48 -0.32,-2.21 a 63.89,63.89 0 0 0 -5.32,-16.4 l 1.12,-0.51 0.72,-0.33 39.84,-18.18 9.86,-4.5 a 26.62,26.62 0 0 0 2.7,7.78 c 0.19,0.38 0.4,0.76 0.62,1.12 13.59,22.5 57.17,8.27 57.17,8.27 z"
       transform="translate(-70.44,-55.29)"
       id="path27" />
    <path
       style="fill:#ee8e9e"
       inkscape:connector-curvature="0"
       d="m 825.7,495.41 c -0.3,13.62 -2.52,19.5 -2.52,19.5 l -56.39,8.59 -2.11,-14.64 -8.35,-57.81 7.84,-7.84 a 20.93,20.93 0 0 0 17.93,-4.48 c 8.21,-7.1 37.34,-6.35 41.82,28 a 190.13,190.13 0 0 1 1.78,28.68 z"
       transform="translate(-70.44,-55.29)"
       id="path29" />
    <path
       style="fill:#dfe5ee"
       inkscape:connector-curvature="0"
       d="m 812.35,654.94 c 0,0 12.69,-15.31 13.07,-25.39 l -12.7,-21.29 -11.2,-12 -20.92,40.38 c 0,0 13.82,23.9 31.75,18.3 z"
       transform="translate(-70.44,-55.29)"
       id="path31" />
    <path
       style="opacity:0.1"
       inkscape:connector-curvature="0"
       d="m 812.35,654.94 c 0,0 12.69,-15.31 13.07,-25.39 l -12.7,-21.29 -11.2,-12 -20.92,40.38 c 0,0 13.82,23.9 31.75,18.3 z"
       transform="translate(-70.44,-55.29)"
       id="path33" />
    <path
       style="fill:#d48a9b"
       inkscape:connector-curvature="0"
       d="m 707.56,722.74 c -1.06,0.83 -2.11,1.66 -3.19,2.48 -5.41,4.17 -10.89,8.25 -16.48,12.15 -1.33,0.93 -2.68,1.86 -4,2.77 H 629.28 383.94 364.89 l -94.38,-3.38 -75.9,-0.64 -19,-1 -94.8,-5 A 238,238 0 0 1 73,695.26 c -0.39,-2.66 -0.74,-5.33 -1,-8 l 103.57,5.74 19,1.07 170.28,9.5 19.05,1.06 245.34,13.7 18.88,1.06 h 0.16 z"
       transform="translate(-70.44,-55.29)"
       id="path35" />
    <path
       style="fill:#efc6cd"
       inkscape:connector-curvature="0"
       d="m 835.5,648.25 c -20.81,6 -41,13.73 -60,24.68 -1.51,0.87 -3,1.76 -4.51,2.67 -1.51,0.91 -3,1.82 -4.45,2.76 -1.45,0.94 -2.91,1.87 -4.35,2.82 l -2.22,1.5 -2.17,1.48 c -2.14,1.47 -4.25,3 -6.36,4.48 l -0.08,0.06 c -1.39,1 -2.77,2 -4.15,3 -7.79,5.77 -15.41,11.81 -23,17.87 q -2.4,1.92 -4.81,3.83 l -7.4,5.87 c -1.45,1.15 -2.92,2.29 -4.38,3.43 -1.06,0.83 -2.11,1.66 -3.19,2.48 l -56,-2.67 h -0.16 L 629.39,721.63 383.94,710 364.89,709.09 194.61,701 175.61,700.09 73,695.26 c -0.39,-2.66 -0.74,-5.33 -1,-8 q -0.78,-6.87 -1.16,-13.8 l 104.76,-37 19,-6.73 17.26,-6.1 31.45,1.64 L 316,629 v 0 l 48.92,2.57 19.05,1 12.17,0.64 v 0 l 2.91,0.16 v 0 l 102.42,5.35 v 0 l 1.08,0.07 v 0 l 45.7,2.38 h 0.52 0.3 v 0 l 4.57,0.23 v 0 l 15.58,0.82 19.48,1 v 0 l 6.42,0.34 v 0 l 1.21,0.07 9.08,0.47 v 0 l 2.59,0.13 v 0 l 8.67,0.46 v 0 l 3.45,0.19 h 0.11 0.72 v 0 l 8.11,0.43 12.56,0.66 h 0.06 l 3.9,0.2 H 646 l 2.33,0.13 5.72,0.3 v 0 l 5,0.26 h 0.05 l 5.61,0.29 h 0.09 l 4.25,0.23 v 0 l 3.26,0.17 11.57,0.61 v 0 l 2.08,0.11 h 0.72 l 1,0.06 v 0 l 3.39,0.18 v 0 l 1.52,0.08 v 0 l 11.8,0.61 h 1.08 l 17.42,-0.15 h 0.12 l 66.23,-0.54 v 0 h 1.27 1.34 3.94 v 0 l 21.32,-0.17 h 3.18 z"
       transform="translate(-70.44,-55.29)"
       id="path37" />
    <path
       style="fill:#e20037"
       inkscape:connector-curvature="0"
       d="m 388.51,649.62 6.16,32.77 167.48,-2.52 c 0,0 12.6,3.64 12.32,-6.44 0,0 25.49,-24.09 154.6,3.92 L 679.5,638.42 544,645.7 386.88,641.5 Z"
       transform="translate(-70.44,-55.29)"
       id="path39" />
    <path
       style="fill:#ffffff"
       inkscape:connector-curvature="0"
       d="m 391.59,641.78 5.88,35.57 c 0,0 144,-4.2 166.64,-0.28 L 547,644.58 c 0,0 -87.07,-8.12 -155.41,-2.8 z"
       transform="translate(-70.44,-55.29)"
       id="path41" />
    <path
       style="opacity:0.1"
       inkscape:connector-curvature="0"
       d="m 391.59,641.78 5.88,35.57 c 0,0 144,-4.2 166.64,-0.28 L 547,644.58 c 0,0 -87.07,-8.12 -155.41,-2.8 z"
       transform="translate(-70.44,-55.29)"
       id="path43" />
    <path
       style="fill:#ffffff"
       inkscape:connector-curvature="0"
       d="m 393.74,641.65 5.8,33.08 c 0,0 142.17,-3.9 164.57,-0.26 l -16.87,-30.21 c 0,0 -86.02,-7.56 -153.5,-2.61 z"
       transform="translate(-70.44,-55.29)"
       id="path45" />
    <path
       style="opacity:0.1"
       inkscape:connector-curvature="0"
       d="m 396.35,642.67 5.65,30.94 c 0,0 139.05,-3.65 161,-0.24 L 546.5,645.1 c 0,0 -84.14,-7.1 -150.15,-2.43 z"
       transform="translate(-70.44,-55.29)"
       id="path47" />
    <path
       style="fill:#ffffff"
       inkscape:connector-curvature="0"
       d="m 397.47,641.54 5.68,31 c 0,0 139.05,-3.65 161,-0.24 L 547.61,644 c 0,0 -84.13,-7.09 -150.14,-2.46 z"
       transform="translate(-70.44,-55.29)"
       id="path49" />
    <path
       style="fill:#e20037"
       inkscape:connector-curvature="0"
       d="m 299.09,557.41 c 0,0 7.28,9.51 -3.35,23.88 -10.63,14.37 -19.41,26.49 -15.86,35.45 0,0 16,-26.68 29.1,-27 13.1,-0.32 4.48,-16.29 -9.89,-32.33 z"
       transform="translate(-70.44,-55.29)"
       id="path51" />
    <path
       style="opacity:0.1"
       inkscape:connector-curvature="0"
       d="m 299.09,557.41 a 11.56,11.56 0 0 1 1.49,3 c 12.74,15 19.53,29 7.28,29.3 -11.41,0.32 -25.09,20.72 -28.37,25.88 q 0.17,0.58 0.39,1.17 c 0,0 16,-26.68 29.1,-27 13.1,-0.32 4.48,-16.31 -9.89,-32.35 z"
       transform="translate(-70.44,-55.29)"
       id="path53" />
    <path
       style="fill:#ffd037"
       inkscape:connector-curvature="0"
       d="m 312.62,569.54 c 0,3.34 -0.38,6.06 -0.84,6.06 -0.46,0 -0.84,-2.72 -0.84,-6.06 0,-3.34 0.47,-1.78 0.93,-1.78 0.46,0 0.75,-1.57 0.75,1.78 z"
       transform="translate(-70.44,-55.29)"
       id="path55" />
    <path
       style="fill:#ffd037"
       inkscape:connector-curvature="0"
       d="m 317.26,573.53 c -2.94,1.61 -5.5,2.58 -5.72,2.17 -0.22,-0.41 2,-2 4.92,-3.64 2.92,-1.64 1.78,-0.44 2,0 0.22,0.44 1.74,-0.13 -1.2,1.47 z"
       transform="translate(-70.44,-55.29)"
       id="path57" />
    <path
       style="fill:#e20037"
       inkscape:connector-curvature="0"
       d="m 260.66,557.41 c 0,0 -7.28,9.51 3.36,23.88 10.64,14.37 19.4,26.49 15.86,35.45 0,0 -16.05,-26.68 -29.11,-27 -13.06,-0.32 -4.48,-16.29 9.89,-32.33 z"
       transform="translate(-70.44,-55.29)"
       id="path59" />
    <path
       style="opacity:0.1"
       inkscape:connector-curvature="0"
       d="m 260.66,557.41 a 12,12 0 0 0 -1.49,3 c -12.74,15 -19.53,29 -7.28,29.3 11.41,0.32 25.1,20.72 28.38,25.88 q -0.16,0.58 -0.39,1.17 c 0,0 -16.05,-26.68 -29.11,-27 -13.06,-0.32 -4.48,-16.31 9.89,-32.35 z"
       transform="translate(-70.44,-55.29)"
       id="path61" />
    <path
       style="fill:#ffd037"
       inkscape:connector-curvature="0"
       d="m 247.13,569.54 c 0,3.34 0.38,6.06 0.84,6.06 0.46,0 0.84,-2.72 0.84,-6.06 0,-3.34 -0.47,-1.78 -0.93,-1.78 -0.46,0 -0.75,-1.57 -0.75,1.78 z"
       transform="translate(-70.44,-55.29)"
       id="path63" />
    <path
       style="fill:#ffd037"
       inkscape:connector-curvature="0"
       d="m 242.49,573.53 c 2.94,1.61 5.51,2.58 5.73,2.17 0.22,-0.41 -2,-2 -4.92,-3.64 -2.92,-1.64 -1.78,-0.44 -2,0 -0.22,0.44 -1.75,-0.13 1.19,1.47 z"
       transform="translate(-70.44,-55.29)"
       id="path65" />
    <path
       style="fill:#65617d"
       inkscape:connector-curvature="0"
       d="m 319,603.91 -0.36,3 -0.51,4.19 -0.21,1.75 -0.51,4.2 -0.22,1.75 -0.52,4.2 -5.82,47.72 c -0.52,4.26 -7.48,7.58 -15.88,7.58 h -30.22 c -8.4,0 -15.35,-3.32 -15.87,-7.58 l -5.83,-47.72 -0.51,-4.2 -0.21,-1.75 -0.52,-4.2 -0.21,-1.75 -0.51,-4.19 -0.37,-3 c -0.29,-2.41 3.47,-4.44 8.23,-4.44 h 61.86 c 4.75,0 8.52,2.03 8.19,4.44 z"
       transform="translate(-70.44,-55.29)"
       id="path67" />
    <polygon
       style="fill:#9d9cb5"
       points="248.23,551.59 247.72,555.79 171.16,555.79 170.65,551.59 "
       id="polygon69" />
    <polygon
       style="fill:#9d9cb5"
       points="247.51,557.54 247,561.74 171.89,561.74 171.37,557.54 "
       id="polygon71" />
    <polygon
       style="fill:#9d9cb5"
       points="246.78,563.49 246.27,567.68 172.61,567.68 172.1,563.49 "
       id="polygon73" />
    <path
       style="fill:#ee8e9e"
       inkscape:connector-curvature="0"
       d="m 411.29,600.05 c 0,0 -19.42,-18.67 -18.67,5.6 0.75,24.27 18.67,-5.6 18.67,-5.6 z"
       transform="translate(-70.44,-55.29)"
       id="path75" />
    <path
       style="fill:#ee8e9e"
       inkscape:connector-curvature="0"
       d="m 585.68,557.48 c -0.43,1.88 -2.52,5 -5.78,8.91 -16.84,20.28 -64.75,62.43 -74.14,70.25 -11.2,9.34 -36.22,6 -36.22,6 l -46.3,0.75 c 0,0 -45.93,-1.87 -49.67,-56 -3.74,-54.13 53.77,16.43 53.77,16.43 0,0 14.4,2.76 19.05,2.24 6.72,-0.74 20.91,-8.58 20.91,-8.58 0,0 9.71,-7.1 18.67,-13.07 8.96,-5.97 42.57,-45.56 48.55,-59.38 3.79,-8.77 16,-23.11 24.43,-32.41 4.84,-5.35 8.43,-9 8.43,-9 0,0 20.91,62.28 18.3,73.86 z"
       transform="translate(-70.44,-55.29)"
       id="path77" />
    <path
       style="opacity:0.1"
       inkscape:connector-curvature="0"
       d="m 585.68,557.48 c -0.43,1.88 -2.52,5 -5.78,8.91 -17,-17.31 -20.55,-51.85 -20.95,-73.81 4.84,-5.35 8.43,-9 8.43,-9 0,0 20.91,62.32 18.3,73.9 z"
       transform="translate(-70.44,-55.29)"
       id="path79" />
    <path
       style="opacity:0.1"
       inkscape:connector-curvature="0"
       d="m 762.78,528.18 v 0 l -16.15,18.82 -21.11,1.28 -33.79,2.08 c 0,0 -45.56,-54.9 -37,-66.85 3.11,-4.31 3.62,-10 3,-15.37 -0.08,-0.74 -0.19,-1.48 -0.32,-2.21 a 63.89,63.89 0 0 0 -5.32,-16.4 l 1.12,-0.51 0.72,-0.33 a 71.71,71.71 0 0 1 3.66,15.31 c 0.11,0.71 0.21,1.45 0.31,2.21 0.35,2.7 0.67,5.7 1,9 2.6,30.22 21.61,41.59 30.19,45.21 a 87.07,87.07 0 0 1 8.08,3.91 43.11,43.11 0 0 0 27.1,4.9 c 21.18,-2.78 38.45,-18.17 38.45,-18.17 l 0.09,15.15 z"
       transform="translate(-70.44,-55.29)"
       id="path81" />
    <path
       style="fill:#dfe5ee"
       inkscape:connector-curvature="0"
       d="m 763.43,645.61 c 0,0 -138.91,-0.38 -157.22,-13.07 -18.31,-12.69 -7.46,-29.5 -7.84,-33.61 -0.38,-4.11 -8.21,-14.56 -10.82,-17.56 -2.61,-3 2.24,-6.72 1.49,-14.93 -0.75,-8.21 -7.09,0 -7.09,0 -26.15,-26.52 -20.55,-93.73 -20.55,-93.73 0,0 25,-6.34 37,-11.21 3.25,-1.32 8.31,-3.2 14,-5.23 l 2.11,-0.76 c 14.67,-5.25 32.11,-11.18 32.11,-11.18 0,0 3.35,-2.37 6.72,4.72 1.54,3.26 3.09,8.51 4.33,16.9 0.11,0.71 0.21,1.45 0.31,2.21 0.35,2.7 0.67,5.7 1,9 2.6,30.22 21.61,41.59 30.19,45.21 a 87.07,87.07 0 0 1 8.08,3.91 43.11,43.11 0 0 0 27.1,4.9 c 21.18,-2.78 38.45,-18.17 38.45,-18.17 l 0.09,15.15 0.26,45.52 z"
       transform="translate(-70.44,-55.29)"
       id="path83" />
    <path
       style="fill:#ee8e9e"
       inkscape:connector-curvature="0"
       d="m 757.45,586.61 -2.24,14.19 c 0,0 -55.27,13.81 -76.92,17.92 -21.65,4.11 -68.34,-1.12 -71.7,7.84 -3.36,8.96 14.19,21.29 14.19,21.29 l 56,-0.75 105.68,8.22 c 0,0 40.33,-35.48 27.26,-60.13 -13.07,-24.65 -52.27,-8.58 -52.27,-8.58 z"
       transform="translate(-70.44,-55.29)"
       id="path85" />
    <path
       style="opacity:0.1"
       inkscape:connector-curvature="0"
       d="m 643.56,474.58 c 0,0 -25.4,20.91 -20.54,31 4.86,10.09 20.54,-31 20.54,-31 z"
       transform="translate(-70.44,-55.29)"
       id="path87" />
    <path
       style="opacity:0.1"
       inkscape:connector-curvature="0"
       d="m 612.19,512.29 c 0,0 -25.77,44.44 -24.27,47.8 1.5,3.36 8.59,15.31 8.21,6.35 -0.38,-8.96 16.06,-54.15 16.06,-54.15 z"
       transform="translate(-70.44,-55.29)"
       id="path89" />
    <path
       style="opacity:0.1"
       inkscape:connector-curvature="0"
       d="m 622.65,520.14 c 0,0 -6,27.63 -11.95,39.21 -5.95,11.58 11.95,-39.21 11.95,-39.21 z"
       transform="translate(-70.44,-55.29)"
       id="path91" />
    <path
       style="opacity:0.1"
       inkscape:connector-curvature="0"
       d="m 707,434.94 a 64.6,64.6 0 0 1 -49.1,33.22 h -0.12 a 64.49,64.49 0 0 1 -45.46,-11.9 c 15,-5.42 34.22,-11.94 34.22,-11.94 0,0 3.35,-2.37 6.72,4.72 l 50.42,-23 a 26.73,26.73 0 0 0 3.32,8.9 z"
       transform="translate(-70.44,-55.29)"
       id="path93" />
    <path
       style="fill:#ee8e9e"
       inkscape:connector-curvature="0"
       d="m 714.88,401.76 a 64.31,64.31 0 0 1 -8.5,32.06 65.07,65.07 0 0 1 -9.63,12.82 64.33,64.33 0 0 1 -39.16,19.36 h -0.13 a 63.07,63.07 0 0 1 -7.18,0.41 64.6,64.6 0 0 1 -64.19,-57.32 62.74,62.74 0 0 1 -0.41,-7.29 64.6,64.6 0 1 1 129.2,0 z"
       id="path95"
       transform="translate(-70.44,-55.29)" />
    <path
       style="opacity:0.1"
       inkscape:connector-curvature="0"
       d="m 756.71,524 6,-9 c 0,0 32.86,-39.21 65,-14.19 l -1.12,34.36 c 0,0 -1.5,10.45 -3.74,16 a 10.93,10.93 0 0 0 1.12,10.09 c 0,0 1.87,9 -0.74,9 -2.61,0 -7.1,13.44 -7.1,13.44 0,0 -6.35,13.82 -2.61,20.17 3.74,6.35 11.95,27.63 11.95,27.63 0,0 -13.07,-7.84 -16.81,-20.91 0,0 -31.74,-24.65 -56.39,-9 z"
       transform="translate(-70.44,-55.29)"
       id="path97" />
    <path
       style="opacity:0.1"
       inkscape:connector-curvature="0"
       d="m 825.7,495.41 c -0.3,13.62 -2.52,19.5 -2.52,19.5 l -56.39,8.59 -2.11,-14.64 c 7.38,-7.7 34.22,-32.18 61.02,-13.45 z"
       transform="translate(-70.44,-55.29)"
       id="path99" />
    <path
       style="fill:#dfe5ee"
       inkscape:connector-curvature="0"
       d="m 756.71,522 6,-9 c 0,0 32.86,-39.21 65,-14.19 l -1.12,34.36 c 0,0 -1.5,10.45 -3.74,16 a 10.93,10.93 0 0 0 1.12,10.09 c 0,0 1.87,9 -0.74,9 -2.61,0 -7.1,13.44 -7.1,13.44 0,0 -6.35,13.82 -2.61,20.17 3.74,6.35 11.95,27.63 11.95,27.63 0,0 -13.07,-7.84 -16.81,-20.91 0,0 -31.74,-24.65 -56.39,-9 z"
       transform="translate(-70.44,-55.29)"
       id="path101" />
    <path
       style="opacity:0.1"
       inkscape:connector-curvature="0"
       d="m 809.73,496.61 c 0,0 -54.14,33.24 -51.53,62.39 0,0 30.25,-53.43 51.53,-62.39 z"
       transform="translate(-70.44,-55.29)"
       id="path103" />
    <path
       style="opacity:0.1"
       inkscape:connector-curvature="0"
       d="m 762.77,528.19 0.26,45.52 c -10.24,0.46 -19.89,-0.87 -27.52,-7.5 -5.31,-4.62 -8.4,-11 -10,-17.9 a 63.41,63.41 0 0 1 -1.3,-16.93 0.91,0.91 0 0 1 0,-0.17 c 0.63,-12.57 3.52,-25.14 2,-37.63 -1.52,-12.49 -9.09,-25.67 -21.45,-28.3 -2.44,-0.53 -5.18,-0.72 -6.92,-2.51 -1.92,-2 -1.83,-5.11 -1.62,-7.88 l 0.36,-4.67 c 0.09,-1.2 0.13,-2.39 0.13,-3.58 a 45.83,45.83 0 0 0 -37,-44.94 l -0.4,-0.07 c -3.48,-0.7 -7.1,-1.39 -10.58,-0.59 -6.62,1.53 -10.9,7.95 -17,11 -11.7,5.84 -31.21,-0.55 -43.46,-2.56 -0.8,-0.13 -1.56,-0.28 -2.29,-0.45 a 62.74,62.74 0 0 1 -0.41,-7.29 64.6,64.6 0 1 1 120.7,32.06 c 0.19,0.38 0.4,0.76 0.62,1.12 13.59,22.5 57.17,8.27 57.17,8.27 l 2.62,80.29 z"
       transform="translate(-70.44,-55.29)"
       id="path105" />
    <path
       style="fill:#603556"
       inkscape:connector-curvature="0"
       d="m 634.08,410.93 c 6.06,-3.06 10.34,-9.48 17,-11 3.47,-0.8 7.09,-0.11 10.59,0.58 l 0.4,0.08 a 45.87,45.87 0 0 1 36.83,48.53 l -0.36,4.67 c -0.22,2.76 -0.31,5.89 1.63,7.87 1.73,1.79 4.47,2 6.91,2.5 12.36,2.64 19.93,15.75 21.45,28.31 1.52,12.56 -1.42,25.17 -2,37.79 -0.58,12.62 1.74,26.55 11.28,34.84 15,13 37.8,5.6 57.65,4.41 -8.78,0 -15.36,-9.06 -15.84,-17.82 -0.48,-8.76 3.42,-17.1 7.15,-25 3.73,-7.9 7.47,-16.4 6.64,-25.14 -1.14,-12 -10.6,-21.61 -14.22,-33.16 -4.22,-13.44 -0.15,-27.87 1.76,-41.84 3.59,-26.16 -2,-55.61 -22.25,-72.52 -8.48,-7.07 -18.85,-11.42 -28.17,-17.34 -16.7,-10.59 -29.87,-26.12 -46.75,-36.42 -16.88,-10.3 -40.58,-14.12 -55.31,-0.92 -5.7,5.11 -9.38,12.2 -15.24,17.13 -11.45,9.65 -29.65,9.83 -38.83,21.67 -7.9,10.19 -5.76,24.66 -3.23,37.31 3.37,16.87 1.47,30 19.5,33 12.2,1.93 31.7,8.32 43.41,2.47 z"
       transform="translate(-70.44,-55.29)"
       id="path107" />
    <path
       style="opacity:0.1"
       inkscape:connector-curvature="0"
       d="m 782.64,561.45 c -14.45,1.77 -28.77,2.68 -39.29,-6.44 -9.54,-8.29 -11.89,-22.21 -11.28,-34.84 0.61,-12.63 3.53,-25.25 2,-37.8 -1.53,-12.55 -9.09,-25.66 -21.45,-28.3 -2.44,-0.52 -5.17,-0.71 -6.91,-2.5 -1.93,-2 -1.85,-5.12 -1.63,-7.88 l 0.36,-4.67 A 45.86,45.86 0 0 0 667.61,390.5 l -0.4,-0.08 c -3.5,-0.69 -7.12,-1.38 -10.59,-0.58 -6.62,1.53 -10.9,8 -17,11 -11.71,5.85 -31.2,-0.54 -43.47,-2.55 -18,-2.95 -16.12,-16.1 -19.5,-33 -1.89,-9.44 -3.56,-19.9 -1,-28.84 -0.48,0.51 -0.94,1 -1.38,1.61 -7.9,10.19 -5.76,24.66 -3.23,37.31 3.37,16.87 1.47,30 19.5,33 12.26,2 31.76,8.4 43.47,2.55 6.06,-3.06 10.34,-9.48 17,-11 3.47,-0.8 7.09,-0.11 10.59,0.58 l 0.4,0.08 a 45.87,45.87 0 0 1 36.83,48.53 l -0.36,4.67 c -0.22,2.76 -0.31,5.89 1.63,7.87 1.73,1.79 4.47,2 6.91,2.5 12.36,2.64 19.93,15.75 21.45,28.31 1.52,12.56 -1.41,25.17 -2,37.79 -0.59,12.62 1.74,26.55 11.28,34.84 15,13 37.8,5.6 57.65,4.41 -5.39,0.03 -9.92,-3.39 -12.75,-8.05 z"
       transform="translate(-70.44,-55.29)"
       id="path109" />
    <path
       style="fill:#5c5c8e"
       inkscape:connector-curvature="0"
       d="m 376.8,594.81 61.65,-23 a 5.87,5.87 0 0 1 7.55,3.44 v 0 a 5.87,5.87 0 0 1 -3.44,7.55 l -61.65,23 -13.22,-1.32 z"
       transform="translate(-70.44,-55.29)"
       id="path111" />
    <path
       style="opacity:0.1;fill:#ffffff"
       inkscape:connector-curvature="0"
       d="m 444.14,573.37 v 0 a 5.87,5.87 0 0 1 -3.45,7.55 L 379,604 l -9.92,-1 -1.43,1.52 13.22,1.32 61.65,-23 a 5.87,5.87 0 0 0 3.44,-7.55 v 0 a 5.87,5.87 0 0 0 -2.4,-2.93 6.81,6.81 0 0 1 0.58,1.01 z"
       transform="translate(-70.44,-55.29)"
       id="path113" />
    <polygon
       style="fill:#efc8c4"
       points="297.26,549.18 300.5,545.74 306.37,539.52 310.47,550.51 299.63,549.42 "
       id="polygon115" />
    <path
       style="fill:#727a9c"
       inkscape:connector-curvature="0"
       d="m 370.93,601 a 2.62,2.62 0 0 1 0.64,0.69 1,1 0 0 1 0,1.07 2.13,2.13 0 0 1 -0.59,0.43 2,2 0 0 0 -0.88,1.48 l -2.38,-0.23 z"
       transform="translate(-70.44,-55.29)"
       id="path117" />
    <path
       style="fill:#ffffff"
       inkscape:connector-curvature="0"
       d="m 570.37,665 c 0,0 53.4,-11.21 143,3 l -35.1,-25.76 -63.86,-13.07 -45.18,12 z"
       transform="translate(-70.44,-55.29)"
       id="path119" />
    <path
       style="opacity:0.1"
       inkscape:connector-curvature="0"
       d="m 570.37,665 c 0,0 53.4,-11.21 143,3 l -35.1,-25.76 -63.86,-13.07 -45.18,12 z"
       transform="translate(-70.44,-55.29)"
       id="path121" />
    <path
       style="fill:#ffffff"
       inkscape:connector-curvature="0"
       d="m 564.11,677.12 c 0,0 26.89,-72.74 165,0.23 l -49.57,-31.9 c 0,0 -118.75,-32.81 -132.47,5 z"
       transform="translate(-70.44,-55.29)"
       id="path123" />
    <path
       style="opacity:0.1"
       inkscape:connector-curvature="0"
       d="m 564.11,677.07 c 0,0 26.89,-77.77 165,1.4 l -49.57,-34.6 c 0,0 -118.79,-39.24 -132.54,1.83 z"
       transform="translate(-70.44,-55.29)"
       id="path125" />
    <path
       style="fill:#ffffff"
       inkscape:connector-curvature="0"
       d="m 564.11,677.1 c 0,0 26.89,-78.92 165,0.25 l -49.57,-34.6 c 0,0 -118.75,-38.12 -132.47,3 z"
       transform="translate(-70.44,-55.29)"
       id="path127" />
    <path
       style="opacity:0.1"
       inkscape:connector-curvature="0"
       d="m 564.11,677.12 c 0,0 26.89,-87.71 165,1.35 L 679.5,639.54 c 0,0 -118.75,-40 -132.47,6.16 z"
       transform="translate(-70.44,-55.29)"
       id="path129" />
    <path
       style="fill:#ffffff"
       inkscape:connector-curvature="0"
       d="m 564.11,677.07 c 0,0 26.89,-88.78 165,0.28 L 679.5,638.42 c 0,0 -118.75,-40 -132.47,6.16 z"
       transform="translate(-70.44,-55.29)"
       id="path131" />
    <path
       style="opacity:0.1;fill:#e20037"
       inkscape:connector-curvature="0"
       d="m 978.45,668.71 c 0,0 -33.15,35.51 -3.31,52.76 0,0 3.9,4.7 9.47,2.24 0,0 -1.88,-1.67 1.89,-4.89 a 22.36,22.36 0 0 0 3.55,-3.9 11,11 0 0 0 2.06,-6.66 v 0 c 0,0 4.34,-14.09 -9.45,-32.38 0,0 -1.25,-6.12 -2.31,-6.79 l -2.52,8.53 c 0,0 6.33,1.61 8.71,6.43 0,0 -8.34,-6.55 -9.15,-5.18 -0.16,0.28 -1.13,4.59 -1.13,4.59 0,0 11,2.84 14.44,10.4 0,0 -8.89,-9.13 -14.82,-8.77 l -1.08,6.58 c 0,0 11.77,2.44 16,10.9 0,0 -9.62,-9.23 -16.16,-9.44 l -0.19,6.61 c 0,0 11.43,2.6 14.92,9.66 0,0 -12.19,-9.53 -14.86,-8.14 0,0 0.19,6.09 1,7.68 0,0 8.16,2 9.82,6.34 0,0 -8.82,-5.51 -9.58,-4.67 0,0 2.37,7.86 5.67,11.21 0,0 -5.24,-4.59 -6.88,-10.78 0,0 -2.22,3.87 -1.66,7.67 0,0 -3.27,-3.62 1.11,-9.58 0,0 -1.6,-6.2 -1.2,-7.18 0,0 -5.15,5.27 -6.47,10 0,0 -1,-5.92 6.46,-11.71 v -6.66 c 0,0 -7.18,6.61 -8.66,10.7 0,0 -0.1,-6.2 8.81,-12.37 l 1,-6.47 c 0,0 -6.62,5.22 -9.25,9.42 0,0 1.14,-5.78 9.6,-11.26 l 1.17,-4.24 c 0,0 -4.76,3.9 -6,5.14 -1.24,1.24 -1.71,1 -1.71,1 a 21,21 0 0 1 8.2,-7.94 c 0,0 3.06,-8.62 2.51,-8.85 z"
       transform="translate(-70.44,-55.29)"
       id="path133" />
    <path
       style="opacity:0.1;fill:#e20037"
       inkscape:connector-curvature="0"
       d="m 1126.64,90.91 c 0,0 -44.29,20 -23.41,47.39 0,0 1.79,5.85 7.87,5.73 0,0 -1.09,-2.27 3.63,-3.79 a 21.91,21.91 0 0 0 4.78,-2.23 11,11 0 0 0 4.47,-5.35 v 0 c 0,0 9.44,-11.32 3.77,-33.51 0,0 1.21,-6.13 0.49,-7.16 l -5.62,6.9 c 0,0 5.22,3.92 5.56,9.29 0,0 -5.16,-9.26 -6.44,-8.3 -0.26,0.19 -2.81,3.79 -2.81,3.79 0,0 9,6.86 9.31,15.17 0,0 -4.68,-11.86 -10.3,-13.82 l -3.53,5.66 c 0,0 9.92,6.79 10.58,16.23 0,0 -5.32,-12.22 -11.27,-14.94 l -2.73,6 c 0,0 9.55,6.81 10,14.67 0,0 -7.57,-13.5 -10.57,-13.24 0,0 -2.17,5.68 -2,7.47 0,0 6.74,5 6.62,9.64 0,0 -6,-8.48 -7,-8 0,0 -0.85,8.16 0.91,12.53 0,0 -3.07,-6.26 -2.19,-12.6 0,0 -3.55,2.72 -4.49,6.44 0,0 -1.62,-4.61 4.72,-8.42 0,0 0.91,-6.33 1.66,-7.08 0,0 -6.79,2.87 -9.81,6.69 0,0 1.35,-5.85 10.48,-8.31 l 2.6,-6.12 c 0,0 -9.17,3.32 -12.12,6.52 0,0 2.3,-5.76 12.9,-8 l 3.41,-5.58 c 0,0 -8.12,2.27 -12.17,5.12 0,0 3.29,-4.88 13.21,-6.68 l 2.71,-3.46 c 0,0 -5.9,1.76 -7.55,2.42 -1.65,0.66 -2,0.27 -2,0.27 A 21,21 0 0 1 1121,98.09 c 0,0 6,-6.78 5.64,-7.18 z"
       transform="translate(-70.44,-55.29)"
       id="path135" />
    <path
       style="opacity:0.1;fill:#e20037"
       inkscape:connector-curvature="0"
       d="m 706.27,103.29 c 0,0 -66.54,19 -34.19,47.28 0,0 2.87,6 12.08,6 0,0 -1.72,-2.32 5.4,-3.73 a 42.29,42.29 0 0 0 7.18,-2.12 12.81,12.81 0 0 0 6.62,-5.29 v 0 c 0,0 14,-11.2 4.81,-33.78 0,0 1.67,-6.16 0.55,-7.22 l -8.32,6.82 c 0,0 8,4.11 8.67,9.54 0,0 -8.07,-9.49 -10,-8.56 -0.39,0.19 -4.16,3.75 -4.16,3.75 0,0 13.88,7.18 14.51,15.59 0,0 -7.4,-12.11 -16,-14.24 l -5.2,5.62 c 0,0 15.2,7.13 16.45,16.69 0,0 -8.38,-12.49 -17.46,-15.4 l -4,6 c 0,0 14.64,7.14 15.6,15.1 0,0 -11.83,-13.85 -16.37,-13.68 0,0 -3.13,5.7 -2.85,7.51 0,0 10.34,5.28 10.29,9.92 0,0 -9.34,-8.74 -10.88,-8.28 0,0 -1.06,8.23 1.72,12.69 0,0 -4.82,-6.41 -3.66,-12.79 0,0 -5.29,2.65 -6.62,6.38 0,0 -2.58,-4.69 6.92,-8.37 0,0 1.21,-6.38 2.32,-7.12 0,0 -10.2,2.72 -14.67,6.5 0,0 1.88,-5.88 15.64,-8.12 l 3.78,-6.12 c 0,0 -13.8,3.12 -18.18,6.27 0,0 3.33,-5.76 19.33,-7.76 l 5,-5.55 c 0,0 -12.24,2.07 -18.3,4.85 0,0 4.85,-4.85 19.82,-6.4 l 4,-3.42 c 0,0 -8.89,1.62 -11.37,2.24 -2.48,0.62 -3,0.22 -3,0.22 a 39.39,39.39 0 0 1 16,-3.92 c 0,0 9.12,-6.68 8.54,-7.1 z"
       transform="translate(-70.44,-55.29)"
       id="path137" />
    <path
       style="opacity:0.1;fill:#e20037"
       inkscape:connector-curvature="0"
       d="m 902.58,844.71 c 0,0 33.5,-35.19 3.83,-52.73 0,0 -3.86,-4.74 -9.45,-2.34 0,0 1.87,1.69 -1.93,4.88 a 22.57,22.57 0 0 0 -3.59,3.86 10.93,10.93 0 0 0 -2.12,6.64 v 0 c 0,0 -4.49,14.05 9.13,32.47 0,0 1.19,6.13 2.24,6.82 l 2.61,-8.51 c 0,0 -6.32,-1.67 -8.65,-6.51 0,0 8.27,6.62 9.09,5.26 0.17,-0.28 1.18,-4.57 1.18,-4.57 0,0 -11,-3 -14.34,-10.54 0,0 8.8,9.22 14.74,8.91 l 1.14,-6.57 c 0,0 -11.74,-2.55 -15.91,-11 0,0 9.53,9.32 16.07,9.6 l 0.25,-6.62 c 0,0 -11.41,-2.76 -14.87,-9.86 0,0 12.1,9.66 14.78,8.29 0,0 -0.13,-6.08 -1,-7.68 0,0 -8.14,-2.14 -9.76,-6.44 0,0 8.77,5.6 9.53,4.76 0,0 -2.29,-7.88 -5.56,-11.26 0,0 5.2,4.64 6.78,10.84 0,0 2.26,-3.85 1.73,-7.65 0,0 3.24,3.66 -1.2,9.57 0,0 1.54,6.22 1.13,7.19 0,0 5.2,-5.22 6.56,-9.89 0,0 1,5.93 -6.57,11.64 l -0.1,6.66 c 0,0 7.24,-6.54 8.76,-10.62 0,0 0,6.21 -8.93,12.29 l -1,6.46 c 0,0 6.67,-5.16 9.34,-9.33 0,0 -1.2,5.76 -9.71,11.16 l -1.21,4.23 c 0,0 4.8,-3.85 6.08,-5.08 1.28,-1.23 1.72,-1 1.72,-1 a 20.93,20.93 0 0 1 -8.28,7.86 c 0,0 -3.01,8.57 -2.51,8.81 z"
       transform="translate(-70.44,-55.29)"
       id="path139" />
    <path
       style="opacity:0.1;fill:#e20037"
       inkscape:connector-curvature="0"
       d="m 575.85,56.53 c 0,0 5.71,48.24 38.15,36.6 0,0 6.11,0.05 7.83,-5.79 0,0 -2.5,0.36 -2.52,-4.6 a 22.39,22.39 0 0 0 -0.69,-5.23 10.92,10.92 0 0 0 -3.75,-5.87 v 0 c 0,0 -7.96,-12.42 -30.87,-13.64 0,0 -5.48,-3 -6.68,-2.62 l 4.89,7.43 c 0,0 5.31,-3.8 10.53,-2.5 0,0 -10.38,2.14 -9.85,3.64 0.1,0.31 2.76,3.82 2.76,3.82 0,0 9.35,-6.6 17.35,-4.35 0,0 -12.71,0.88 -16.27,5.65 l 4.27,5.08 c 0,0 9.46,-7.42 18.67,-5.21 0,0 -13.26,1.4 -17.65,6.25 l 4.98,4.42 c 0,0 9.36,-7.06 17,-5.16 0,0 -15.16,3.16 -15.82,6.09 0,0 4.77,3.78 6.53,4.18 0,0 6.84,-4.91 11.18,-3.41 0,0 -9.9,3.18 -9.75,4.3 0,0 7.53,3.26 12.22,2.9 0,0 -6.89,1 -12.67,-1.7 0,0 1.52,4.19 4.79,6.22 0,0 -4.88,0.15 -6.61,-7 0,0 -5.76,-2.78 -6.25,-3.71 0,0 0.7,7.33 3.43,11.36 0,0 -5.18,-3 -4.78,-12.49 l -5,-4.33 c 0,0 0.41,9.75 2.57,13.53 0,0 -4.8,-3.93 -3.76,-14.72 l -4.29,-4.93 c 0,0 -0.29,8.42 1.21,13.14 0,0 -3.67,-4.6 -2.39,-14.6 l -2.49,-3.63 c 0,0 -0.09,6.15 0,7.93 0.09,1.78 -0.34,1.95 -0.34,1.95 A 21,21 0 0 1 581,64.1 c 0,0 -4.65,-7.81 -5.15,-7.57 z"
       transform="translate(-70.44,-55.29)"
       id="path141" />
    <path
       style="opacity:0.1;fill:#e20037"
       inkscape:connector-curvature="0"
       d="m 818.31,735.3 c 0,0 -46.82,-13 -48.32,21.44 0,0 -2.36,5.64 2.39,9.44 0,0 0.61,-2.44 5.21,-0.59 a 22.4,22.4 0 0 0 5.1,1.35 10.93,10.93 0 0 0 6.86,-1.26 v 0 c 0,0 14.5,-2.66 24.34,-23.34 0,0 4.85,-3.93 5,-5.19 l -8.73,1.71 c 0,0 1.5,6.36 -1.68,10.7 0,0 2,-10.42 0.37,-10.5 -0.33,0 -4.59,1.11 -4.59,1.11 0,0 2.56,11.06 -2.55,17.61 0,0 4,-12.1 0.93,-17.2 l -6.34,2.09 c 0,0 3.28,11.56 -2.26,19.24 0,0 3.74,-12.79 0.9,-18.69 l -5.94,2.89 c 0,0 3,11.34 -1.67,17.7 0,0 2.82,-15.22 0.35,-16.95 0,0 -5.3,3 -6.33,4.46 0,0 2,8.19 -1.08,11.64 0,0 0.8,-10.37 -0.29,-10.65 0,0 -5.88,5.73 -7.32,10.21 0,0 1.65,-6.77 6.38,-11.08 0,0 -4.46,-0.18 -7.57,2.07 0,0 1.7,-4.57 9,-3.44 0,0 4.76,-4.29 5.81,-4.38 0,0 -7,-2.14 -11.82,-1.14 0,0 4.78,-3.64 13.37,0.32 l 5.92,-3 c 0,0 -9.18,-3.31 -13.49,-2.74 0,0 5.45,-3 15,2.09 l 6.18,-2.11 c 0,0 -7.68,-3.45 -12.62,-3.85 0,0 5.65,-1.65 14.42,3.32 l 4.3,-0.93 c 0,0 -5.66,-2.42 -7.35,-3 -1.69,-0.58 -1.68,-1 -1.68,-1 a 21,21 0 0 1 10.83,3.6 c 0,0 9,-1.4 8.97,-1.95 z"
       transform="translate(-70.44,-55.29)"
       id="path143" />
  </g>
</svg>
