<?xml version="1.0" encoding="utf-8"?>
<!-- Generator: Adobe Illustrator 27.1.1, SVG Export Plug-In . SVG Version: 6.00 Build 0)  -->
<svg version="1.1" id="a" xmlns="http://www.w3.org/2000/svg" xmlns:xlink="http://www.w3.org/1999/xlink" x="0px" y="0px"
	 viewBox="0 0 130 130" style="enable-background:new 0 0 130 130;" xml:space="preserve">
<style type="text/css">
	.st0{clip-path:url(#SVGID_00000085970800697110737610000003927091088780612281_);}
	.st1{fill:#E4F4FF;}
	.st2{fill:#202244;}
	.st3{fill:#FAEA9C;}
	.st4{fill:#D09D7F;}
	.st5{fill:#D6EAFA;}
	.st6{opacity:0.2;fill:#010100;enable-background:new    ;}
	.st7{fill:#FFB6C0;}
	.st8{opacity:0.12;fill:#010100;enable-background:new    ;}
	.st9{fill:#FBFBFA;}
	.st10{fill:#F2F2F2;}
</style>
<g>
	<defs>
		<path id="SVGID_1_" d="M65,0L65,0c35.9,0,65,29.1,65,65l0,0c0,35.9-29.1,65-65,65l0,0c-35.9,0-65-29.1-65-65l0,0
			C0,29.1,29.1,0,65,0z"/>
	</defs>
	<clipPath id="SVGID_00000096043171085173780810000005601265983700091018_">
		<use xlink:href="#SVGID_1_"  style="overflow:visible;"/>
	</clipPath>
	<g style="clip-path:url(#SVGID_00000096043171085173780810000005601265983700091018_);">
		<path class="st1" d="M62.2,39.3c20-0.8,57.2-17.2,62.2,16.7c5,33.9,2.3,70.6-20.6,77.8c-28.3,8.9-39.1,5.9-49.6,5.9
			s-34.4,20-47.9-7.5s-10.3-66,4.3-83.7C22.8,33.7,42.2,40.1,62.2,39.3L62.2,39.3z"/>
		<g>
			<g>
				<path class="st2" d="M27.9,54.6c-0.3-1.3-0.6-3.5-0.1-7.3c0,0.4-0.3,5.2,1,8.2C35.4,61.9,46.6,81,45.7,84c0,0-6.8,23.7,8.2,11.5
					c0,0,18.4-15.6,6.9-30.5c-4.1-5.3-10.1-16.3-9-20c1-3.8,2.6-20.6-9.7-18.5c0,0-1.7-1.2-2.5-1.2c0,0,0.6,0.3,0.9,0.7
					c-1.3-0.3-3.2-0.6-5,0C30.7,27.4,22.7,47.5,27.9,54.6L27.9,54.6L27.9,54.6z"/>
				<path class="st3" d="M4.7,81c0,1.6,0.8,3.7,2,5.8c3,5.3,8.2,11,8.2,11l3-4.2c0,0-1.8-4.4-3-8.1c-0.7-2.2-1.2-4.1-1-4.6
					c0.7-1.3,13.7-16.4,13.7-16.4L31.2,53c0,0-8.7,0.4-12.4,5.7C15.1,64,4.7,76.7,4.7,81C4.7,81,4.7,81,4.7,81z"/>
				<path class="st4" d="M6.8,86.9c3,5.3,8.2,11,8.2,11l3-4.2c0,0-1.8-4.4-3-8.1C13.4,86.5,10.9,87.3,6.8,86.9L6.8,86.9z"/>
				<path class="st4" d="M30.5,56.8c0,0,3.8,1.9,6.6,1.2c2.7-0.7,4.4-4.1,4.4-4.1c-1.1-0.2-1.5-1.7-1.4-8.3l-0.5,0.1l-8.6,1.7
					c0,0,0.2,2.6,0.2,5.1C31.1,54.6,31,56.5,30.5,56.8L30.5,56.8L30.5,56.8z"/>
				<path class="st5" d="M44.4,30.5c0,0-3.3-5.2-9.4-2.1C35,28.4,38.2,28.5,44.4,30.5z"/>
				<path class="st6" d="M31,47.3c0,0,0.2,2.6,0.2,5.1c4.8-0.1,7.4-4.4,8.4-6.8L31,47.3L31,47.3L31,47.3z"/>
				<path class="st2" d="M41.4,46c0,0,3.3-3.3,4.5-6.5c0.9-2.2,1.5-11.1-7.7-11.7c0,0-2.6-0.3-5.4,0.9c-2.2,0.9-5.6,3.1-4,11.3
					l0.3,2.7L41.4,46L41.4,46L41.4,46z"/>
				<path class="st7" d="M-8,191.7c0,0,2.3,0.4,4.2,0.5c0.4,0,0.8,0,1.2,0c0.9,0,2.5-0.3,3.6-0.6l0.1,0c0.5-0.1,0.9-0.2,1-0.2l0.1,0
					c0,0,11.4-12.4,17.8-32.3c0.1-0.5,0.3-0.9,0.5-1.4c3.5-10,10.8-22.5,14.6-33.9c0.6-1.8,1.2-3.5,1.7-5.1c0.2-0.5,0.3-1,0.5-1.5
					c2.8-9.6,3.6-15.9,4.4-22.6l-23.1,5.7C18.5,100.3,8.8,141.3-8,191.7L-8,191.7L-8,191.7z"/>
				<path class="st4" d="M30.6,48.6c0,0,10,2.4,11.4-4.4c1.4-6.8,3.8-11.1-3.3-12.9c-7.1-1.8-8.7,0.7-9.8,2.9
					C28,36.4,25.9,48.7,30.6,48.6L30.6,48.6L30.6,48.6z"/>
				<path class="st2" d="M33.7,30.2c0,0,1.4,8.6,5.9,10.7c4.5,2.1,6.8,1.3,6.8,1.3s-3-3.5-2.8-8.5C43.5,33.6,36.8,26.8,33.7,30.2
					L33.7,30.2L33.7,30.2z"/>
				<path class="st2" d="M34.3,31c0,0-2.7,1.3-3.6,3c-0.9,1.6-1.9,5.1-2.9,4.8c0,0-1.2-5.9,2-8.4C33.3,27.6,34.3,31,34.3,31L34.3,31
					L34.3,31z"/>
				<path class="st6" d="M-3.8,192.2c0.4,0,0.8,0,1.2,0c0.9,0,2.5-0.3,3.6-0.6l0.1,0l1-0.2l0.1,0c0,0,11.4-12.4,17.8-32.3
					c0.1-0.5,0.3-0.9,0.5-1.4c3.5-10,10.8-22.5,14.6-33.9c0.6-1.8,1.2-3.5,1.7-5.1c0.2-0.5,0.3-1,0.5-1.5l-4.1-3
					c0,0-12.2,19.3-16,37.5C13.9,166.8,0.4,186.3-3.8,192.2L-3.8,192.2L-3.8,192.2z"/>
				<path class="st7" d="M32.6,153.4c-0.1,8.9,0.4,29.2,1.6,37.6c0,0,1.1,1,3.9,1c2.8,0,4.1-1,4.1-1c3-14.6,5.1-26.8,6.6-37.2
					c1.3-8.6,2.4-15.9,3.2-22.2c0.8-5.6,1.3-10.4,1.6-14.6c0-0.6,0.1-1.1,0.1-1.7c0-0.7,0.1-1.4,0.1-2.1c0-0.7,0-1.3,0-2h-0.1
					l-5.7-0.6L29.9,109C30.2,124.5,32.7,148.2,32.6,153.4L32.6,153.4L32.6,153.4z"/>
				<path class="st6" d="M38.1,192c2.4,0.1,4.1-1,4.1-1c3-14.6,5.1-26.8,6.6-37.2c1.3-8.6,2.4-15.9,3.2-22.2
					c0.8-5.6,1.3-10.4,1.6-14.6c0-2,0.1-4,0.1-5.7c0-1.7,0.1-3.2,0.1-4.2l-5.8,3.6l-6.1,3.8c0,0,8.7,7.7,6.6,22.3
					C46.3,151.5,41.1,189.9,38.1,192L38.1,192L38.1,192z"/>
				<path class="st3" d="M15.3,113c6.9,1.8,39.3,5.2,39.6-2.7c0.1-1.9,0-4.3-0.2-6.8C54.3,95.7,53,86,52.3,80.7
					C52,78.3,53,67.4,52.3,61.4c-0.1-0.9-0.3-1.7-0.4-2.3c-1.4-4.5-7.7-5.7-10.9-5.8L31.2,53c0,0-10.1,11-11.5,14.3
					c-1.4,3.4-1.9,14.9-2.9,20.5C15.7,93.4,11.9,112.1,15.3,113L15.3,113L15.3,113z"/>
				<path class="st8" d="M34.4,86.2c0,0,5.4,16.2,20.3,17.3C54.3,95.7,53,86,52.3,80.7C52,78.3,53,67.4,52.3,61.4
					c-0.2,0-0.4,0.1-0.6,0.2C35.3,64.7,32.9,82.9,34.4,86.2L34.4,86.2L34.4,86.2z"/>
				<g>
					<polygon class="st9" points="24,95.5 41.3,93.8 38.5,68.1 21.2,69.9 					"/>
					<polygon class="st10" points="38.5,68.1 39.6,68 42.2,93.6 41.3,93.8 					"/>
				</g>
				<g>
					<path class="st3" d="M53.1,79.4c0,0-12.2,3.6-23.9,5.3c0,0-3.8,1.6-2,2.1c0.5,0.1,23.8,5.1,27.3,1.9L53.1,79.4L53.1,79.4z"/>
					<path class="st3" d="M40.9,53.3c0,0,6.4,0,9.2,3.1c5,5.6,6,29.2,4.4,32.2c-0.7,1.3-5.9,1.4-8.1-4.8
						C45.2,80.6,40.3,59.2,40.9,53.3L40.9,53.3L40.9,53.3z"/>
				</g>
				<path class="st4" d="M30.4,84.5c0,0-1.4-0.1-1.7-0.6c-0.5-0.9-1.4-0.9-2.1-1c-0.7-0.1-1.5-0.9-1.7-0.7c-0.1,0.1,0.5,1,0.9,1.3
					c0,0-0.8,0-1.3-0.2c-0.5-0.2-2.1-2.2-2.3-1.4c-0.6,2.2,0,4.2,1.8,4.4c1.9,0.2,6.7,1.1,6.7,1.1L30.4,84.5L30.4,84.5L30.4,84.5z"
					/>
			</g>
			<path class="st9" d="M34.3,34.9c-0.7,0.1-1.2,0.3-1.6,0.8c-0.4,0.5-0.5,1.1-0.6,1.6c-0.1,0-0.3-0.1-0.5-0.1c-0.2,0-0.4,0-0.6,0
				c-0.2-2.3-1.6-2.7-2.4-2.7c-0.6,0-1,0.2-1.4,0.6c-0.6,0.6-0.8,1.6-0.7,2.8c0.1,1,0.2,1.7,0.5,2.2c0.4,0.8,1.1,1.1,2,1
				c0.1,0,0.2,0,0.3,0c1.5-0.3,1.7-1.3,1.7-2.6h0v0c0,0,0-0.1,0-0.1c0,0,0.2-0.1,0.4-0.1c0.5,0,0.6,0.3,0.6,0.4v0h0
				c0.1,0.7,0.3,2.2,1.2,3c0.4,0.4,0.9,0.5,1.4,0.5c0.1,0,0.2,0,0.3,0c0.7-0.1,1.3-0.4,1.7-0.9c0.5-0.7,0.8-1.6,0.7-2.8
				C37.3,37.3,37.1,34.7,34.3,34.9L34.3,34.9L34.3,34.9z M28.9,40c-0.5,0-0.8-0.1-1-0.5c-0.3-0.5-0.4-1.2-0.4-1.7
				c-0.1-0.8,0.1-1.6,0.4-1.9c0.1-0.1,0.2-0.2,0.4-0.2c0.1,0,0.1,0,0.2,0c0.4,0,1.3,0,1.4,2.2C29.9,39.9,29.8,40,28.9,40L28.9,40
				L28.9,40z M36.3,38.5c0.1,0.9,0,1.6-0.4,2c-0.3,0.3-0.7,0.5-1.3,0.6c-0.2,0-0.4,0-0.6-0.2c-0.6-0.6-0.8-2-0.8-2.5c0,0,0,0,0-0.1
				c0,0-0.2-1.2,0.3-1.8c0.2-0.2,0.4-0.3,0.7-0.4c0,0,0.1,0,0.1,0C35.7,35.9,36.2,36.5,36.3,38.5L36.3,38.5L36.3,38.5z"/>
		</g>
		<g>
			<path class="st2" d="M102.2,54.6c0.3-1.3,0.6-3.5,0.1-7.3c0,0.4,0.3,5.2-1,8.2C94.8,61.9,83.6,81,84.5,84c0,0,6.8,23.7-8.2,11.5
				c0,0-18.4-15.6-6.9-30.5c4.1-5.3,10.1-16.3,9-20c-1-3.8-2.6-20.6,9.7-18.5c0,0,1.7-1.2,2.5-1.2c0,0-0.6,0.3-0.9,0.7
				c1.3-0.3,3.2-0.6,5,0C99.4,27.4,107.5,47.5,102.2,54.6L102.2,54.6L102.2,54.6z"/>
			<path class="st7" d="M125.4,81c0,1.6-0.8,3.7-2,5.8c-3,5.3-8.2,11-8.2,11l-3-4.2c0,0,1.8-4.4,3-8.1c0.7-2.2,1.2-4.1,1-4.6
				c-0.7-1.3-13.7-16.4-13.7-16.4L99,53c0,0,8.7,0.4,12.4,5.7C115.1,64,125.4,76.7,125.4,81z"/>
			<path class="st4" d="M123.4,86.9c-3,5.3-8.2,11-8.2,11l-3-4.2c0,0,1.8-4.4,3-8.1C116.7,86.5,119.3,87.3,123.4,86.9L123.4,86.9z"
				/>
			<path class="st4" d="M99.6,56.8c0,0-3.8,1.9-6.6,1.2c-2.7-0.7-4.4-4.1-4.4-4.1c1.1-0.2,1.5-1.7,1.4-8.3l0.5,0.1l8.6,1.7
				c0,0-0.2,2.6-0.2,5.1C99,54.6,99.2,56.5,99.6,56.8L99.6,56.8L99.6,56.8z"/>
			<path class="st5" d="M85.8,30.5c0,0,3.3-5.2,9.4-2.1C95.2,28.4,92,28.5,85.8,30.5z"/>
			<path class="st6" d="M99.2,47.3c0,0-0.2,2.6-0.2,5.1c-4.8-0.1-7.4-4.4-8.4-6.8L99.2,47.3L99.2,47.3L99.2,47.3z"/>
			<path class="st2" d="M88.8,46c0,0-3.3-3.3-4.5-6.5c-0.9-2.2-1.5-11.1,7.7-11.7c0,0,2.6-0.3,5.4,0.9c2.2,0.9,5.6,3.1,4,11.3
				l-0.3,2.7L88.8,46L88.8,46L88.8,46z"/>
			<path class="st3" d="M138.2,191.7c0,0-2.3,0.4-4.2,0.5c-0.4,0-0.8,0-1.2,0c-0.9,0-2.5-0.3-3.6-0.6l-0.1,0c-0.5-0.1-0.9-0.2-1-0.2
				l-0.1,0c0,0-11.4-12.4-17.8-32.3c-0.1-0.5-0.3-0.9-0.5-1.4c-3.5-10-10.8-22.5-14.6-33.9c-0.6-1.8-1.2-3.5-1.7-5.1
				c-0.2-0.5-0.3-1-0.5-1.5c-2.8-9.6-3.6-15.9-4.4-22.6l23.1,5.7C111.7,100.3,121.4,141.3,138.2,191.7L138.2,191.7L138.2,191.7z"/>
			<path class="st4" d="M99.6,48.6c0,0-10,2.4-11.4-4.4c-1.4-6.8-3.8-11.1,3.3-12.9c7.1-1.8,8.7,0.7,9.8,2.9
				C102.2,36.4,104.3,48.7,99.6,48.6L99.6,48.6z"/>
			<path class="st2" d="M96.5,30.2c0,0-1.4,8.6-5.9,10.7c-4.5,2.1-6.8,1.3-6.8,1.3s3-3.5,2.8-8.5C86.6,33.6,93.4,26.8,96.5,30.2
				L96.5,30.2L96.5,30.2z"/>
			<path class="st2" d="M95.9,31c0,0,2.7,1.3,3.6,3c0.9,1.6,1.9,5.1,2.9,4.8c0,0,1.2-5.9-2-8.4C96.9,27.6,95.9,31,95.9,31L95.9,31
				L95.9,31z"/>
			<path class="st6" d="M134,192.2c-0.4,0-0.8,0-1.2,0c-0.9,0-2.5-0.3-3.6-0.6l-0.1,0l-1-0.2l-0.1,0c0,0-11.4-12.4-17.8-32.3
				c-0.1-0.5-0.3-0.9-0.5-1.4c-3.5-10-10.8-22.5-14.6-33.9c-0.6-1.8-1.2-3.5-1.7-5.1c-0.2-0.5-0.3-1-0.5-1.5l4.1-3
				c0,0,12.2,19.3,16,37.5C116.3,166.8,129.8,186.3,134,192.2L134,192.2L134,192.2z"/>
			<path class="st3" d="M97.6,153.4c0.1,8.9-0.4,29.2-1.6,37.6c0,0-1.1,1-3.9,1c-2.8,0-4.1-1-4.1-1c-3-14.6-5.1-26.8-6.6-37.2
				c-1.3-8.6-2.4-15.9-3.2-22.2c-0.8-5.6-1.3-10.4-1.6-14.6c0-0.6-0.1-1.1-0.1-1.7c0-0.7-0.1-1.4-0.1-2.1c0-0.7,0-1.3,0-2h0.1
				l5.7-0.6l18.1-1.7C100,124.5,97.5,148.2,97.6,153.4L97.6,153.4L97.6,153.4z"/>
			<path class="st6" d="M92.1,192c-2.4,0.1-4.1-1-4.1-1c-3-14.6-5.1-26.8-6.6-37.2c-1.3-8.6-2.4-15.9-3.2-22.2
				c-0.8-5.6-1.3-10.4-1.6-14.6c0-2-0.1-4-0.1-5.7c0-1.7-0.1-3.2-0.1-4.2l5.8,3.6l6.1,3.8c0,0-8.7,7.7-6.6,22.3S89.1,189.9,92.1,192
				L92.1,192L92.1,192z"/>
			<path class="st7" d="M114.9,113c-6.9,1.8-39.3,5.2-39.6-2.7c-0.1-1.9,0-4.3,0.2-6.8c0.5-7.8,1.8-17.5,2.4-22.8
				c0.3-2.4-0.7-13.4,0.1-19.3c0.1-0.9,0.3-1.7,0.4-2.3c1.4-4.5,7.7-5.7,10.9-5.8L99,53c0,0,10.1,11,11.5,14.3
				c1.4,3.4,1.9,14.9,2.9,20.5C114.5,93.4,118.3,112.1,114.9,113L114.9,113L114.9,113z"/>
			<path class="st8" d="M92.7,107.7c-2.7-6.2-1.9-9-5.9-17.2c-1.1-3.6-0.6-5.3-0.6-5.3c1.5-3.4,7-21.5-7.7-23.5
				c-0.2,0-0.4-0.1-0.6-0.2c-0.7,6,0.2,16.9-0.1,19.3c-0.6,5.3-0.9,1.9-1.4,9.7c0.2,4.3,8.6,13.6,12.6,16c4.6,6.2,3.5,3.8,3.7,4
				C94.1,111.7,92.7,107.7,92.7,107.7L92.7,107.7z"/>
			<path class="st7" d="M83.6,84.5c0,0,3.7,11.9,8.5,22.6c0,0,0.6,4.1-0.7,2.8c-0.3-0.3-16.8-17.6-15.9-22.2L83.6,84.5L83.6,84.5z"
				/>
			<path class="st7" d="M89.3,53.3c0,0-6.4,0-9.2,3.1c-5,5.6-6,29.2-4.4,32.2c0.7,1.3,5.9,1.4,8.1-4.8
				C84.9,80.6,89.9,59.2,89.3,53.3L89.3,53.3L89.3,53.3z"/>
			<path class="st4" d="M91.6,106c0.3,0.2,0.8,0.7,1.4,1.2c3,2.3,5.4,3.3,5.2,4.3c0,0.1,0,0.1-0.1,0.2c-1.5,1.7-3.6,2.2-4.7,0.8
				c-1.2-1.5-4.4-5.1-4.4-5.1L91.6,106L91.6,106L91.6,106z"/>
		</g>
	</g>
</g>
</svg>
