<?xml version="1.0" standalone="no"?>
<!DOCTYPE svg PUBLIC "-//W3C//DTD SVG 20010904//EN"
 "http://www.w3.org/TR/2001/REC-SVG-20010904/DTD/svg10.dtd">
<svg version="1.0" xmlns="http://www.w3.org/2000/svg"
 width="1171.000000pt" height="1280.000000pt" viewBox="0 0 1171.000000 1280.000000"
 preserveAspectRatio="xMidYMid meet">
<metadata>
Created by potrace 1.15, written by Peter Selinger 2001-2017
</metadata>
<g transform="translate(0.000000,1280.000000) scale(0.100000,-0.100000)"
fill="#000000" stroke="none">
<path d="M5681 11433 c-26 -102 -35 -217 -51 -698 -12 -334 -23 -432 -53 -461
-39 -39 -59 -38 -143 7 -44 23 -125 66 -181 95 -208 109 -216 56 -24 -150 61
-65 111 -123 111 -128 0 -28 -196 -53 -520 -68 -406 -18 -550 -35 -550 -64 0
-7 13 -20 30 -29 38 -23 157 -33 648 -55 320 -15 385 -20 398 -34 25 -25 7
-48 -157 -208 -105 -102 -150 -152 -152 -170 -4 -48 37 -36 237 65 104 52 199
95 211 95 29 0 88 -25 103 -43 26 -31 43 -187 51 -467 5 -157 12 -303 16 -325
16 -99 45 -122 72 -57 12 29 17 94 22 307 6 251 10 295 30 295 4 0 49 -53 101
-117 239 -296 562 -576 931 -808 131 -82 437 -237 592 -300 64 -26 117 -51
117 -55 0 -23 -263 -50 -485 -50 -256 0 -457 25 -665 81 -83 23 -180 39 -180
30 2 -20 88 -65 193 -99 137 -45 260 -73 420 -97 151 -22 508 -19 673 5 160
24 339 67 390 94 l41 22 -38 22 c-21 12 -89 40 -151 61 -167 57 -303 114 -493
206 -357 175 -636 355 -940 606 -127 105 -467 443 -489 487 -18 35 -14 90 9
127 12 20 103 55 142 55 12 0 79 -29 149 -65 148 -75 187 -81 192 -30 2 32
-14 56 -125 184 -35 39 -63 80 -63 90 0 10 9 30 20 44 24 30 -17 27 630 51
558 20 737 36 757 69 8 13 -22 35 -67 47 -58 17 -572 40 -816 38 -183 -2 -252
1 -344 16 -112 18 -140 28 -140 49 0 5 51 62 114 126 124 126 147 158 125 172
-25 16 -42 10 -223 -77 -197 -95 -199 -95 -296 -53 -32 14 -55 31 -60 45 -17
44 -39 360 -45 648 -7 320 -16 425 -40 474 -9 17 -18 32 -20 32 -2 0 -9 -17
-14 -37z"/>
<path d="M5589 8902 c-20 -20 -57 -68 -84 -107 -224 -323 -521 -579 -893 -770
-132 -67 -202 -111 -191 -118 38 -27 173 -43 592 -71 408 -28 442 -29 481 -15
20 7 36 16 36 20 0 4 -15 17 -33 28 -30 19 -173 46 -524 101 -40 7 -73 16 -73
21 0 5 21 24 47 42 184 126 360 297 478 462 85 118 183 313 194 385 5 30 8 56
7 57 -1 2 -18 -14 -37 -35z"/>
<path d="M5347 7441 c-15 -10 -57 -44 -93 -76 -221 -195 -474 -343 -814 -478
-197 -78 -362 -133 -662 -222 -215 -63 -308 -98 -308 -116 0 -5 5 -9 12 -9 6
0 19 -7 28 -15 17 -15 479 -176 880 -306 203 -66 320 -93 320 -73 -1 29 -135
91 -585 274 -137 56 -254 105 -259 110 -12 11 -10 12 289 109 441 144 698 276
957 490 98 81 233 227 250 271 6 14 14 33 19 43 11 21 2 21 -34 -2z"/>
<path d="M6500 7446 c0 -28 55 -110 127 -191 145 -162 349 -330 554 -456 55
-34 99 -62 99 -62 0 -1 -24 0 -54 1 -78 5 -157 -20 -205 -66 -95 -90 -49 -189
82 -179 148 13 266 131 212 214 l-18 26 54 -30 c82 -46 292 -136 409 -176 182
-61 318 -93 554 -132 24 -4 35 -10 29 -16 -14 -14 -378 -103 -543 -133 -315
-57 -764 -94 -1010 -82 -122 6 -230 0 -230 -13 0 -10 108 -39 170 -45 473 -50
1043 -10 1505 105 251 63 663 200 717 239 15 11 32 20 38 20 5 0 10 4 10 9 0
14 -67 21 -205 21 -536 1 -1004 109 -1450 335 -268 136 -471 280 -710 505 -72
69 -135 118 -135 106z"/>
<path d="M5841 7426 c-72 -40 -66 -159 12 -206 40 -25 123 -27 156 -4 77 54
52 178 -42 213 -38 15 -97 13 -126 -3z"/>
<path d="M6301 7042 c-93 -47 -98 -164 -10 -209 35 -18 135 -16 176 4 48 23
75 68 69 116 -5 47 -20 65 -71 88 -51 23 -120 24 -164 1z"/>
<path d="M5078 6490 c-74 -14 -113 -74 -105 -158 6 -61 38 -110 97 -149 26
-18 47 -23 102 -23 115 0 158 39 158 143 0 124 -119 213 -252 187z"/>
<path d="M5655 5784 c-90 -47 -120 -135 -72 -218 42 -76 191 -119 292 -86 163
54 156 247 -11 304 -61 21 -170 21 -209 0z"/>
<path d="M4965 5670 c-3 -5 -13 -10 -21 -10 -8 0 -59 -33 -112 -73 -208 -158
-530 -361 -803 -509 -467 -251 -1047 -469 -1584 -593 -88 -20 -173 -44 -188
-52 l-29 -15 23 -24 c25 -26 129 -89 244 -146 189 -95 438 -174 695 -220 109
-19 160 -22 400 -22 280 -1 363 7 549 50 66 15 135 50 126 63 -8 13 -75 11
-169 -5 -143 -25 -492 -30 -656 -10 -197 24 -362 60 -529 115 -163 54 -331
128 -331 146 0 6 77 32 178 59 776 212 1510 595 2090 1091 62 53 116 104 119
113 3 9 13 25 21 35 13 15 13 17 -1 17 -9 0 -19 -4 -22 -10z"/>
<path d="M6435 5297 c-181 -47 -248 -181 -140 -276 45 -39 104 -55 185 -48
162 13 285 111 266 212 -17 89 -176 147 -311 112z"/>
<path d="M7130 5280 c0 -29 30 -73 100 -145 44 -45 80 -86 80 -92 0 -7 -26
-19 -57 -28 -160 -47 -263 -140 -263 -237 0 -73 54 -108 163 -108 131 0 248
50 349 148 l47 45 109 -67 c312 -189 665 -317 1043 -377 107 -17 183 -22 374
-23 132 0 285 3 340 7 120 9 120 9 -35 -86 -259 -158 -615 -333 -940 -461 -80
-32 -152 -64 -160 -70 -8 -7 -24 -17 -35 -22 -16 -7 -10 -9 28 -12 75 -5 378
93 677 219 166 70 434 207 595 303 189 114 475 310 520 356 l39 40 -37 0 c-20
0 -121 -23 -224 -50 -287 -77 -417 -94 -718 -94 -268 0 -386 11 -620 60 -430
91 -837 282 -1170 549 -49 40 -99 83 -110 95 -22 25 -95 63 -95 50z m339 -324
c28 -25 26 -52 -5 -93 -80 -105 -290 -176 -381 -129 -58 29 -53 77 15 138 48
43 87 65 162 90 72 24 180 21 209 -6z"/>
<path d="M5875 4472 c-60 -12 -103 -81 -91 -146 19 -100 166 -129 239 -48 42
46 28 141 -26 177 -24 15 -86 24 -122 17z"/>
<path d="M4995 4264 c-48 -24 -65 -53 -65 -112 0 -48 4 -58 33 -87 60 -60 168
-57 222 6 29 36 34 102 10 148 -28 55 -134 79 -200 45z"/>
<path d="M7440 3485 c-22 -26 41 -70 230 -160 412 -196 813 -306 1295 -355 50
-5 227 -7 395 -5 268 2 326 6 477 29 94 14 178 29 186 32 47 18 7 -32 -151
-188 -565 -556 -1074 -850 -1672 -965 -108 -20 -175 -27 -336 -30 -203 -5
-324 5 -474 42 -30 7 -80 16 -110 19 l-55 6 30 -25 c37 -31 149 -67 291 -95
139 -27 421 -37 587 -21 529 52 1048 287 1542 699 229 191 696 663 734 742
l18 37 -42 -2 c-24 -2 -92 -17 -151 -34 -142 -40 -374 -85 -549 -108 -219 -28
-732 -25 -955 5 -421 58 -819 173 -1136 328 -73 35 -134 64 -137 64 -2 0 -10
-7 -17 -15z"/>
<path d="M4363 3389 c-573 -207 -877 -304 -1328 -419 -486 -124 -1164 -245
-1650 -294 -88 -9 -183 -19 -211 -22 -29 -3 -60 -11 -69 -18 -16 -12 -16 -14
0 -46 9 -18 63 -78 118 -134 690 -691 1678 -1123 2712 -1186 259 -16 443 -11
598 16 43 7 50 24 10 24 -83 1 -435 19 -543 29 -148 14 -382 51 -547 86 -739
160 -1423 497 -1958 967 -117 103 -143 132 -126 142 4 3 115 19 247 36 775
100 1524 285 2248 555 262 97 546 221 585 255 l35 30 -37 -2 c-20 -1 -58 -9
-84 -19z"/>
<path d="M6535 3231 c-72 -18 -143 -70 -172 -126 -20 -38 -20 -132 0 -172 22
-41 78 -88 123 -103 59 -20 164 -8 218 24 86 50 127 157 96 250 -27 83 -170
151 -265 127z"/>
<path d="M4877 2700 c-53 -14 -87 -33 -124 -72 -88 -91 -82 -216 16 -299 51
-44 98 -59 187 -59 112 0 202 54 238 142 43 101 -10 221 -118 269 -51 22 -148
31 -199 19z"/>
<path d="M3030 2485 c-114 -52 -167 -153 -135 -260 19 -65 60 -114 126 -150
45 -24 69 -30 140 -33 109 -5 172 14 227 68 110 111 65 292 -90 360 -69 31
-215 38 -268 15z"/>
</g>
</svg>
