<svg width="60" height="61" viewBox="0 0 60 61" fill="none" xmlns="http://www.w3.org/2000/svg">
<path d="M40.3675 61.1307C54.422 57.2559 62.6742 42.7214 58.7994 28.6669C54.9246 14.6124 40.39 6.3602 26.3356 10.235C12.2811 14.1098 4.02885 28.6444 7.90366 42.6988C11.7785 56.7533 26.313 65.0056 40.3675 61.1307Z" fill="#3030D1"/>
<path d="M48.2 13.8603C48.9538 13.0322 50.1201 11.5132 50.7394 9.32231C51.1163 7.98648 51.3616 7.1263 51.0789 6.17907C50.0389 2.68819 42.8847 1.53343 39.9155 3.15322C39.8409 3.19531 39.7664 3.23739 39.6562 3.30653C37.4594 4.74354 37.2251 7.73716 37.2742 9.57149C39.069 9.84769 41.3748 10.3836 43.8864 11.4787C45.5998 12.2253 47.0386 13.0692 48.1938 13.8534L48.2 13.8603Z" fill="#FC5E29"/>
<path d="M9.38167 24.5618C8.31003 24.237 6.53006 23.5303 4.87556 21.9662C3.86737 21.0123 3.21595 20.3993 2.97329 19.441C2.07344 15.9115 7.62514 11.2538 11.006 11.1271C11.0916 11.1251 11.1772 11.123 11.3072 11.126C13.9301 11.2342 15.6653 13.6848 16.5631 15.2851C15.1634 16.442 13.4581 18.0838 11.8625 20.3113C10.7737 21.8305 9.97071 23.2924 9.38057 24.5578L9.38167 24.5618Z" fill="#FC5E29"/>
<path d="M44.864 17.1012C30.653 11.3017 18.5081 19.8706 14.4943 25.935C11.363 30.7008 11.3929 37.4337 11.1912 40.7328C11.0967 43.4682 14.4504 54.4449 32.3065 53.0928C33.3901 52.9922 34.5172 52.815 35.6701 52.4972L36.2185 52.346C43.3075 50.3269 51.8547 44.5978 54.1031 39.9418C58.3613 30.9672 51.6377 19.8599 44.864 17.1012Z" fill="white"/>
<path d="M54.043 39.9585C51.3331 45.5342 39.6649 52.5201 32.3105 53.0918C21.4268 53.9086 15.958 50.1958 13.3228 46.5589C15.8878 50.8785 21.4274 55.5668 33.1844 54.3714C36.2344 54.0603 52.3061 49.2977 55.7629 39.0881C56.0607 38.278 55.9823 35.853 55.349 32.853C55.5516 35.2438 55.1715 37.6617 54.039 39.9596L54.043 39.9585Z" fill="#BCBEC0"/>
<path d="M17.787 37.3939L18.895 39.2722C19.5982 37.5578 23.0261 31.2587 28.4577 37.6954L28.9393 35.6458C28.9559 35.7059 22.6894 26.7253 17.7921 37.3967L17.787 37.3939Z" fill="#1C1C73"/>
<path d="M43.2105 32.4308C44.6076 32.0456 45.5067 30.8071 45.1844 29.6382C44.8621 28.4692 43.4554 27.8664 42.0583 28.2516C40.6612 28.6367 39.7621 29.8753 40.0844 31.0442C40.4067 32.2131 41.8134 32.816 43.2105 32.4308Z" fill="#1C1C73"/>
<path d="M44.3805 36.674C40.4334 37.7622 36.4357 35.8234 35.47 32.3206C34.5043 28.8179 36.9436 25.1044 40.8907 24.0161C44.8378 22.9279 48.8355 24.8668 49.8012 28.3695C50.7669 31.8723 48.3275 35.5858 44.3805 36.674ZM41.4834 26.1658C38.6892 26.9362 36.9087 29.4774 37.5522 31.8112C38.1956 34.145 40.9667 35.4314 43.8209 34.6444C46.6751 33.8575 48.3955 31.3329 47.7521 28.9991C47.1087 26.6653 44.2775 25.3955 41.4834 26.1658Z" fill="#1C1C73"/>
<path d="M32.1987 40.3599L38.0273 38.7529L35.9937 42.7509L32.1987 40.3599Z" fill="#1C1C73"/>
<path d="M37.0286 48.8796C34.903 49.4657 32.1665 49.4922 28.8231 48.0363L29.6432 46.0269C33.2009 47.5573 36.3017 47.4303 38.8679 45.5986C40.0268 44.8182 41.0355 43.7432 41.7379 42.4943L43.6447 43.4891C42.7706 45.0524 41.5032 46.3926 40.0959 47.4439C39.2247 48.0804 38.1826 48.5658 37.0297 48.8836L37.0286 48.8796Z" fill="#1C1C73"/>
<path d="M31.3699 44.6031C31.2058 44.6484 31.0494 44.7217 30.9087 44.8207L30.2617 45.2705L29.6681 45.6797L29.9339 45.0034L30.2214 44.2651C30.4036 43.8013 30.3487 43.2737 30.0776 42.8531C29.8066 42.4325 29.3499 42.1664 28.8567 42.143C28.6953 42.1358 28.5326 42.1548 28.3805 42.1968C27.9882 42.3049 27.6491 42.575 27.4513 42.9354C27.2505 43.3009 27.2072 43.722 27.3267 44.1241L27.5546 44.8883L27.7609 45.5895L27.2056 45.1223L26.596 44.6141C26.2094 44.29 25.692 44.1785 25.2116 44.311C24.7312 44.4434 24.3607 44.7868 24.1886 45.2563C24.0155 45.7219 24.0796 46.2513 24.3575 46.6657C24.6354 47.0801 25.0939 47.337 25.5889 47.3513L26.3753 47.3757L27.0961 47.3967L26.4879 47.7841L25.8251 48.208C25.4074 48.4739 25.1453 48.9295 25.119 49.4278C25.0927 49.9261 25.3078 50.4095 25.6962 50.7246C26.0846 51.0396 26.5827 51.1435 27.0591 51.0122C27.5355 50.8808 27.9256 50.5148 28.0926 50.0424L28.3556 49.2936L28.593 48.6079L28.7753 49.3157L28.9712 50.0888C29.0746 50.4953 29.3276 50.8347 29.6873 51.0457C30.0418 51.2538 30.4714 51.312 30.8637 51.2038C31.0198 51.1608 31.1653 51.0948 31.3002 51.0059C31.7117 50.7331 31.9676 50.2706 31.9847 49.7705C32.0019 49.2704 31.7748 48.7903 31.3846 48.4843L30.7594 47.9977L30.1886 47.552L30.908 47.5992L31.6941 47.6539C31.8657 47.6669 32.0375 47.6496 32.2016 47.6044C33.0143 47.3803 33.4905 46.5297 33.2631 45.7051C33.0358 44.8804 32.1909 44.394 31.3783 44.618L31.3699 44.6031Z" fill="white"/>
<path d="M27.781 43.9903C27.5737 43.2851 28.1129 42.5851 28.8382 42.622C29.5634 42.659 30.0447 43.405 29.7811 44.0893L29.4936 44.8276L28.6604 46.9612L28.0089 44.7545L27.781 43.9903Z" fill="#FC5E29"/>
<path d="M25.5975 46.8665C24.8716 46.8427 24.3754 46.1051 24.6299 45.419C24.8844 44.7328 25.7352 44.5069 26.2956 44.977L26.9052 45.4851L28.6592 46.9571L26.3839 46.8909L25.5975 46.8665Z" fill="#FFC400"/>
<path d="M27.6443 49.8685C27.404 50.5593 26.5575 50.8013 25.9874 50.3425C25.4173 49.8837 25.4614 48.9971 26.0766 48.6036L26.7393 48.1796L28.6593 46.9568L27.9073 49.1197L27.6443 49.8685Z" fill="#FCBFFF"/>
<path d="M31.0932 48.849C31.6731 49.2964 31.6432 50.1877 31.0353 50.5922C30.4315 50.9956 29.6057 50.6719 29.4264 49.9589L29.2305 49.1859L28.6591 46.9571L30.468 48.3623L31.0932 48.849Z" fill="#64DB9E"/>
<path d="M31.1761 45.2125C31.7726 44.7982 32.602 45.1036 32.7985 45.8162C32.9938 46.5247 32.4381 47.2121 31.7147 47.166L30.9286 47.1114L28.6592 46.9574L30.5291 45.6622L31.1761 45.2125Z" fill="#3030D1"/>
<path d="M28.7299 47.2134C28.8692 47.175 28.9505 47.0291 28.9115 46.8876C28.8724 46.7462 28.7279 46.6626 28.5886 46.701C28.4493 46.7394 28.368 46.8852 28.4071 47.0267C28.4461 47.1682 28.5906 47.2518 28.7299 47.2134Z" fill="#1C1C73"/>
<path opacity="0.15" d="M45.7067 17.0802C30.8842 11.0314 18.2203 19.9674 14.0334 26.2949C10.769 31.2654 10.7979 38.2914 10.5864 41.7267C10.4857 44.5801 13.9827 56.03 32.6112 54.62C33.741 54.5153 34.9172 54.3288 36.1181 53.9977L36.6866 53.841C44.0787 51.7341 52.9967 45.7563 55.3382 40.9067C59.7785 31.5458 52.7684 19.9619 45.7027 17.0813L45.7067 17.0802Z" fill="#1C1C73"/>
<g opacity="0.85">
<path d="M16.0436 33.7741C17.5768 26.8989 23.16 21.1211 30.0562 19.7152C27.1562 21.0704 24.6565 23.237 22.9656 25.8999C21.357 28.4239 20.4886 31.3985 20.4938 34.339L16.0425 33.7701L16.0436 33.7741Z" fill="white"/>
</g>
<g opacity="0.85">
<path d="M53.2294 32.4299C51.6962 39.3051 46.113 45.0829 39.2167 46.4888C42.1168 45.1337 44.6164 42.9671 46.3073 40.3041C47.9159 37.7801 48.7843 34.8055 48.7791 31.865L53.2305 32.4339L53.2294 32.4299Z" fill="white"/>
</g>
<path d="M27.6776 15.1028C39.0265 11.9739 50.8027 18.6601 53.9316 30.009C57.0605 41.3578 50.3743 53.1341 39.0254 56.2629C27.6766 59.3918 15.9003 52.7057 12.7715 41.3568C9.64258 30.0079 16.3288 18.2317 27.6776 15.1028ZM26.3356 10.235C12.2806 14.11 4.02981 28.6479 7.90366 42.6988C11.7775 56.7498 26.3125 65.0057 40.3675 61.1307C54.4225 57.2558 62.6743 42.7219 58.7994 28.6669C54.9244 14.6119 40.3905 6.36007 26.3356 10.235Z" fill="#3030D1"/>
<path d="M58.6399 51.1958C59.0836 52.805 58.3276 54.5469 56.7623 55.4781C52.6664 57.9168 46.8773 60.7448 39.558 62.6162C33.3372 64.2064 27.8099 64.6405 23.5164 64.644C21.695 64.6465 20.1492 63.5392 19.7044 61.926L18.4507 57.3784C21.8942 58.3071 29.777 59.9329 39.2572 57.3537C48.8816 54.7347 54.908 49.2052 57.3851 46.6442L58.6388 51.1918L58.6399 51.1958Z" fill="#FC5E29"/>
</svg>
