<svg width="88" height="88" viewBox="0 0 88 88" fill="none" xmlns="http://www.w3.org/2000/svg">
<g clip-path="url(#clip0_79_2732)">
<path d="M44 93.5644C68.3005 93.5644 88 73.865 88 49.5644C88 25.2639 68.3005 5.56445 44 5.56445C19.6995 5.56445 0 25.2639 0 49.5644C0 73.865 19.6995 93.5644 44 93.5644Z" fill="#3030D1"/>
<path d="M77.5278 21.0762C79.1059 20.0795 81.653 18.1553 83.6187 14.9091C84.8161 12.9296 85.5913 11.656 85.5567 10.0087C85.4321 3.93856 74.4477 -1.08646 68.959 0.200944C68.8205 0.235551 68.6821 0.270159 68.4745 0.332452C64.3077 1.6683 62.605 6.37492 61.8713 9.34425C64.633 10.5832 68.1007 12.4658 71.6514 15.3383C74.0739 17.2971 76.012 19.2905 77.5209 21.0624L77.5278 21.0762Z" fill="#FC5E29"/>
<path d="M10.4099 21.0757C8.83184 20.079 6.28472 18.1548 4.31902 14.9086C3.1216 12.9291 2.34639 11.6555 2.381 10.0082C2.49866 3.93802 13.4831 -1.08699 18.9718 0.20733C19.1103 0.241938 19.2487 0.276545 19.4563 0.338839C23.6231 1.67469 25.3258 6.38131 26.0595 9.35064C23.2978 10.5896 19.8301 12.4722 16.2794 15.3447C13.8568 17.3034 11.9188 19.2968 10.4099 21.0687V21.0757Z" fill="#FC5E29"/>
<path d="M70.7309 24.8063C50.4648 9.19135 27.1532 17.5802 18.0168 25.5469C10.8738 31.8177 7.93906 42.6499 6.15331 47.8618C4.78978 52.2154 5.31581 71.3395 34.6076 77.0775C36.3934 77.3958 38.2829 77.6104 40.2763 77.6104H41.2246C53.5102 77.5066 69.7827 72.0871 75.4583 65.6016C86.2766 53.0668 80.3934 32.24 70.7309 24.8063Z" fill="white"/>
<path d="M75.3546 65.6023C68.53 73.3613 46.6857 79.4176 34.6146 77.0781C16.764 73.5689 9.62105 65.18 6.9978 58.1686C9.20576 66.246 16.0304 76.2337 35.4521 79.5214C40.491 80.3727 68.4261 79.8398 78.5039 64.9655C79.3414 63.7957 80.2896 59.8643 80.6011 54.7632C79.8674 58.6946 78.1855 62.4114 75.3476 65.6023H75.3546Z" fill="#BCBEC0"/>
<path d="M18.2312 45.4188L19.1794 48.928C21.069 46.4847 29.3679 37.8813 35.2443 50.6307L36.9262 47.5506C36.9262 47.6545 30.8353 30.4476 18.2381 45.4257L18.2312 45.4188Z" fill="#1C1C73"/>
<path d="M61.283 48.7065C63.6986 48.7065 65.692 47.1146 65.692 45.0935C65.692 43.0724 63.6986 41.4805 61.283 41.4805C58.8674 41.4805 56.874 43.0724 56.874 45.0935C56.874 47.1146 58.8674 48.7065 61.283 48.7065Z" fill="#1C1C73"/>
<path d="M61.283 56.0435C54.4584 56.0435 48.8936 51.1569 48.8936 45.1006C48.8936 39.0443 54.4584 34.1577 61.283 34.1577C68.1076 34.1577 73.6725 39.0443 73.6725 45.1006C73.6725 51.1569 68.1076 56.0435 61.283 56.0435ZM61.283 37.8746C56.4518 37.8746 52.4651 41.1692 52.4651 45.2044C52.4651 49.2397 56.348 52.5343 61.283 52.5343C66.2181 52.5343 70.101 49.2397 70.101 45.2044C70.101 41.1692 66.1143 37.8746 61.283 37.8746Z" fill="#1C1C73"/>
<path d="M40.0754 56.5693H50.1531L45.1143 62.0927L40.0754 56.5693Z" fill="#1C1C73"/>
<path d="M44.0622 72.3989C40.3869 72.3989 35.9779 71.2292 31.2505 67.4085L33.4584 64.543C38.4973 68.5782 43.5362 69.748 48.4712 67.9415C50.6791 67.2009 52.7764 65.9204 54.4583 64.2246L57.0815 66.6679C54.9843 68.7928 52.3541 70.3847 49.6271 71.4507C47.9452 72.0874 46.0556 72.4058 44.0622 72.4058V72.3989Z" fill="#1C1C73"/>
<path d="M36.8639 63.0202C36.5801 63.0202 36.2963 63.0687 36.0264 63.1656L34.7874 63.6016L33.6523 63.9962L34.3791 63.0271L35.1681 61.9682C35.6665 61.3037 35.8118 60.4316 35.5626 59.6356C35.3135 58.8396 34.6975 58.2098 33.9153 57.9537C33.6592 57.8706 33.3893 57.8291 33.1263 57.8291C32.448 57.8291 31.7835 58.1129 31.3059 58.6043C30.8214 59.1027 30.5653 59.7602 30.5792 60.4593L30.6068 61.7882L30.6276 63.0064L29.9424 62.0097L29.1879 60.923C28.7104 60.2309 27.9282 59.8225 27.0976 59.8225C26.2671 59.8225 25.5195 60.2101 25.035 60.8884C24.5505 61.5598 24.419 62.4388 24.682 63.2279C24.9451 64.0169 25.568 64.6329 26.357 64.8752L27.6098 65.2628L28.7588 65.6158L27.6098 65.9688L26.357 66.3564C25.568 66.5986 24.9451 67.2147 24.682 68.0037C24.419 68.7928 24.5505 69.6649 25.035 70.3432C25.5195 71.0215 26.274 71.4091 27.0976 71.4091C27.9213 71.4091 28.7104 70.9938 29.1879 70.3086L29.9424 69.2219L30.6276 68.2252L30.6068 69.4434L30.5792 70.7723C30.5653 71.4714 30.8214 72.1289 31.3059 72.6273C31.7835 73.1187 32.448 73.4025 33.1263 73.4025C33.3962 73.4025 33.6592 73.361 33.9153 73.2779C34.6975 73.0218 35.3135 72.3919 35.5626 71.596C35.8118 70.8 35.6595 69.9279 35.1681 69.2634L34.3791 68.2044L33.6592 67.2354L34.7944 67.6299L36.0333 68.066C36.3032 68.1629 36.587 68.2114 36.8708 68.2114C38.2759 68.2114 39.4179 67.0555 39.4179 65.6296C39.4179 64.2038 38.2759 63.0479 36.8708 63.0479L36.8639 63.0202Z" fill="white"/>
<path d="M31.3686 60.4451C31.3478 59.22 32.5244 58.3341 33.6734 58.7147C34.8224 59.0954 35.2654 60.5074 34.5386 61.4903L33.7496 62.5493L31.4655 65.6086L31.3962 61.774L31.3686 60.4451Z" fill="#FC5E29"/>
<path d="M26.5859 64.0998C25.43 63.7399 24.9593 62.3349 25.6722 61.3451C26.3852 60.3553 27.8525 60.3692 28.5447 61.3728L29.2991 62.4595L31.4655 65.6018L27.8387 64.4875L26.5859 64.0998Z" fill="#FFC400"/>
<path d="M28.5447 69.8306C27.8525 70.8342 26.3852 70.8481 25.6723 69.8583C24.9593 68.8685 25.4231 67.4634 26.5859 67.1035L27.8387 66.7159L31.4656 65.6016L29.2991 68.7439L28.5447 69.8306Z" fill="#FCBFFF"/>
<path d="M34.5386 69.7199C35.2722 70.6958 34.8293 72.1147 33.6734 72.4954C32.5244 72.8761 31.3408 71.9901 31.3685 70.765L31.3962 69.4361L31.4654 65.6016L33.7495 68.6609L34.5386 69.7199Z" fill="#64DB9E"/>
<path d="M36.2827 63.9134C37.4247 63.5119 38.6222 64.3702 38.6222 65.6022C38.6222 66.8273 37.4247 67.6856 36.2827 67.291L35.0438 66.855L31.4653 65.6022L35.0438 64.3494L36.2827 63.9134Z" fill="#3030D1"/>
<path d="M31.4655 66.0451C31.7063 66.0451 31.9015 65.8468 31.9015 65.6022C31.9015 65.3575 31.7063 65.1592 31.4655 65.1592C31.2246 65.1592 31.0294 65.3575 31.0294 65.6022C31.0294 65.8468 31.2246 66.0451 31.4655 66.0451Z" fill="#1C1C73"/>
<path opacity="0.15" d="M72.0945 25.1459C50.9562 8.85963 26.6479 17.6084 17.117 25.9211C9.66947 32.462 6.60325 43.7648 4.74136 49.1912C3.31553 53.7317 3.86233 73.6795 34.4208 79.6666C36.2827 79.9988 38.2553 80.2203 40.3317 80.2203H41.3146C54.1263 80.1096 71.1047 74.4547 77.0157 67.6993C88.2978 54.6246 82.1653 32.9049 72.0876 25.1459H72.0945Z" fill="#1C1C73"/>
<g opacity="0.85">
<path d="M17.0338 38.8296C22.5433 28.4611 34.0746 21.6504 45.7788 22.4464C40.5185 23.3392 35.5419 25.7133 31.6451 29.2433C27.9421 32.5864 25.2289 36.9815 23.9346 41.7089L17.0338 38.8226V38.8296Z" fill="white"/>
</g>
<g opacity="0.85">
<path d="M77.3823 53.1435C71.8728 63.5119 60.3416 70.3227 48.6373 69.5267C53.8977 68.6338 58.8742 66.2598 62.771 62.7298C66.474 59.3867 69.1873 54.9915 70.4816 50.2642L77.3823 53.1504V53.1435Z" fill="white"/>
</g>
<path d="M44 13.981C63.6225 13.981 79.5835 29.942 79.5835 49.5644C79.5835 69.1869 63.6225 85.1479 44 85.1479C24.3775 85.1479 8.41655 69.1869 8.41655 49.5644C8.41655 29.942 24.3775 13.981 44 13.981ZM44 5.56445C19.6986 5.56445 0 25.27 0 49.5644C0 73.8589 19.6986 93.5644 44 93.5644C68.3014 93.5644 88 73.8659 88 49.5644C88 25.2631 68.3014 5.56445 44 5.56445Z" fill="#3030D1"/>
<path d="M77.7631 85.6949C77.7631 88.4774 75.7767 90.9414 72.8489 91.7443C65.1868 93.8485 54.6315 95.828 42.0412 95.5927C31.3406 95.392 22.2665 93.6408 15.3658 91.7443C12.438 90.9414 10.4446 88.4774 10.4446 85.688V77.8252C15.5665 80.843 27.513 86.9477 43.8893 87.0031C60.5147 87.0585 72.6481 80.843 77.7631 77.8252V85.688V85.6949Z" fill="#FC5E29"/>
</g>
<defs>
<clipPath id="clip0_79_2732">
<rect width="88" height="95.6136" fill="white"/>
</clipPath>
</defs>
</svg>
