<svg width="38" height="112" viewBox="0 0 38 112" fill="none" xmlns="http://www.w3.org/2000/svg">
<g clip-path="url(#clip0_35_711)">
<path d="M60.9273 105.683C88.3664 102.578 108.093 77.8171 104.988 50.3779C101.883 22.9388 77.122 3.21218 49.6829 6.31724C22.2438 9.4223 2.51715 34.1832 5.62221 61.6224C8.72727 89.0615 33.4882 108.788 60.9273 105.683Z" fill="#FBBEFF"/>
<path opacity="0.23" d="M35.5506 84.6434C41.6768 83.9501 46.081 78.4219 45.3877 72.2958C44.6945 66.1696 39.1663 61.7654 33.0401 62.4586C26.914 63.1519 22.5097 68.6801 23.203 74.8062C23.8962 80.9324 29.4244 85.3366 35.5506 84.6434Z" fill="url(#paint0_linear_35_711)"/>
<path opacity="0.23" d="M30.0678 49.6744C32.9116 49.3526 34.956 46.7864 34.6342 43.9427C34.3124 41.0989 31.7462 39.0545 28.9025 39.3763C26.0587 39.6981 24.0143 42.2643 24.3361 45.108C24.6579 47.9518 27.2241 49.9962 30.0678 49.6744Z" fill="url(#paint1_linear_35_711)"/>
</g>
<defs>
<linearGradient id="paint0_linear_35_711" x1="23.203" y1="74.8062" x2="45.3604" y2="72.2989" gradientUnits="userSpaceOnUse">
<stop stop-color="#1C1C73"/>
<stop offset="0.21" stop-color="#1C1C73" stop-opacity="0.67"/>
<stop offset="0.43" stop-color="#1C1C73" stop-opacity="0.38"/>
<stop offset="0.64" stop-color="#1C1C73" stop-opacity="0.17"/>
<stop offset="0.84" stop-color="#1C1C73" stop-opacity="0.04"/>
<stop offset="1" stop-color="#1C1C73" stop-opacity="0"/>
</linearGradient>
<linearGradient id="paint1_linear_35_711" x1="24.3361" y1="45.108" x2="34.6342" y2="43.9427" gradientUnits="userSpaceOnUse">
<stop stop-color="#1C1C73"/>
<stop offset="0.21" stop-color="#1C1C73" stop-opacity="0.67"/>
<stop offset="0.43" stop-color="#1C1C73" stop-opacity="0.38"/>
<stop offset="0.64" stop-color="#1C1C73" stop-opacity="0.17"/>
<stop offset="0.84" stop-color="#1C1C73" stop-opacity="0.04"/>
<stop offset="1" stop-color="#1C1C73" stop-opacity="0"/>
</linearGradient>
<clipPath id="clip0_35_711">
<rect width="100" height="100" fill="white" transform="translate(0 11.9395) rotate(-6.45623)"/>
</clipPath>
</defs>
</svg>
