<svg width="88" height="128" viewBox="0 0 88 128" fill="none" xmlns="http://www.w3.org/2000/svg">
<g clip-path="url(#clip0_35_695)">
<path d="M77.4127 60.7875L50.393 89.5727L7.62398 49.4225L34.6239 20.6425L77.4127 60.7875Z" fill="#FBBEFF"/>
<path d="M34.624 20.6425L34.6504 20.7416C34.9918 36.2107 22.9187 49.0638 7.62403 49.4225C7.62403 49.4225 7.22866 33.0337 6.94947 21.3053L34.624 20.6425Z" fill="#FC5E29"/>
<path d="M92.2833 73.6604L81.9871 70.3103C81.9871 70.3103 66.9909 70.9929 66.5681 70.9993C66.1505 71.0256 56.7823 83.4342 56.7823 83.4342L56.5504 90.0554L61.3156 101.65L68.7484 105.169L69.3418 104.926L74.057 107.088C74.049 107.217 74.0411 107.347 74.0529 107.471L74.074 107.55L75.0241 107.531L85.2261 112.201C85.9335 110.632 86.7136 108.939 87.5083 107.22L96.516 107.007C96.4468 104.117 96.3672 100.87 96.2849 97.771C98.0122 96.8439 99.7395 95.9168 101.319 95.0717L96.4118 84.6183L92.2886 73.6803L92.2833 73.6604Z" fill="#FFC300"/>
<path d="M65.0561 76.2424C67.8966 73.2781 71.7264 71.5576 75.8147 71.4452C79.9228 71.3275 83.8163 72.7954 86.8149 75.6055L96.4118 84.6187L105.606 74.8251L95.8679 65.6797C84.3397 54.9944 66.3071 55.5941 55.4012 67.0112C55.4012 67.0112 55.3325 67.0719 55.3034 67.1221C55.269 67.1525 55.2347 67.1829 55.2201 67.208C44.5163 78.826 45.0513 96.8546 56.4472 107.681L66.1854 116.827L75.3797 107.033L65.7828 98.0197C62.8093 95.2242 61.0742 91.4195 60.9368 87.3167C60.7993 83.2138 62.2619 79.3004 65.0416 76.2675L65.0561 76.2424Z" fill="#FC5E29"/>
<path d="M41.7713 59.433C46.194 58.255 48.8244 53.7148 47.6464 49.2921C46.4685 44.8694 41.9283 42.239 37.5056 43.417C33.0829 44.5949 30.4525 49.1351 31.6304 53.5578C32.8084 57.9805 37.3486 60.6109 41.7713 59.433Z" fill="white"/>
</g>
<defs>
<clipPath id="clip0_35_695">
<rect width="88.1436" height="108" fill="white" transform="translate(0.58667 23) rotate(-14.9139)"/>
</clipPath>
</defs>
</svg>
