<svg xmlns="http://www.w3.org/2000/svg" xmlns:xlink="http://www.w3.org/1999/xlink" viewBox="0 0 350 350"><defs><clipPath id="a"><path d="M326.49,250.43s.46,43.56.51,44.2c.18,2.45-11.25,1-13.56,1.22s2.95-3.58,2.57-7-6.07-6.56-8.38-9.38c4.22-5.17,3.58-13.24,6.4-19.39,2.52-5.49,4.85-11.5,12.46-9.61Z" style="fill:none"/></clipPath></defs><path d="M248.81,283.47A124.36,124.36,0,0,1,78.18,270.22C33.59,221.12,34.44,145.61,80.11,97.7c106.38-111.58,66.28,17.36,116.69,60.35s149.6-1.92,74.05,102.3" style="fill:#fff3e6"/><path d="M266.28,199.48c-13.46-6.43,2.18-12.23,9.13-26.79s2.6-32.36,16.06-25.93,18.73,23.45,11.77,38-23.5,21.14-37,14.71Z" style="fill:#41add7"/><path d="M58.07,192.55a17.14,17.14,0,1,1-.56-4.32" style="fill:none;stroke:#000;stroke-linecap:round;stroke-linejoin:round;stroke-width:1.6387px"/><circle cx="51.76" cy="158.99" r="23.98" style="fill:#1e6f8e"/><path d="M176.07,91.15a8.71,8.71,0,1,1-.29-2.19" style="fill:none;stroke:#000;stroke-linecap:round;stroke-linejoin:round;stroke-width:0.8314549999999999px"/><circle cx="107.64" cy="58.75" r="11.68" style="fill:#8ecfe7"/><path d="M146,262.93s56.87-60.32,71.49-60,67.38,78.91,67.38,78.91l-24.34-1.54L216,241.92l-27.16,30Z" style="fill:#fc8500"/><path d="M188.8,271.9h0l27.16-30,44.58,38.43s-36-39.39-40.72-45.91S188.8,271.9,188.8,271.9Z" style="fill:#dc7400"/><path d="M294.61,280.35l15.38,1.8s1.23-12.56,3.33-17.81,9.37-24.26,9.86-5c0,20.75,2.05,33.3-3.33,35.1s-24.28,2.05-24.28,2.05Z" style="fill:#a96d2a"/><path d="M148.06,260.11s139.38,19.38,146.55,20.24c3.59.44,5.14,2.65,7.32,6.56s2.18,9.78-1.94,9.84c-8.23.13-151.16,1.28-164.22-.77s-28.19-5.89-33.82-17.16-4.36-30.23-4.36-30.23l31.77,1.79Z" style="fill:#fc8500"/><path d="M107.89,175.29s-7.64-12.12-9.59-21.71-2.58-25.36,17.52-28.34,18.67,13.58,18,21.11-3.49,15.49-11.79,16.94c-7.07,1.24-2.81,13-2.16,16.22s-9.94,3.87-9.94,3.87Z" style="fill:#a96d2a"/><path d="M135.59,189.09S172.72,207.33,169,207s30.85-3.92,37.37-7.67,12.5,2,12.5,2-41,23.76-51.31,21.71c-20.08-4-31.94-7.28-31.94-7.28Z" style="fill:#a96d2a"/><path d="M206,199.51h0c-6.56,3.24-33.15,6.29-36.81,7.21-1.3-1.34-13.68-7.69-23-12.39l4.1,8.16s7,6.79,15.23,9.49S206,199.51,206,199.51Z" style="fill:#764c1d"/><path d="M125.3,180.94s18.9,10,27.38,13.3-5.26,23.26-6.88,26.64-11.4-7.65-12-11.64-8.5-28.3-8.5-28.3Z" style="fill:#1e6f8e"/><path d="M122.35,135.88s-9.42,5.44-10.69,9.24-2,12.87-.54,15.22,1.78-1.54-.72,6.7l2.39,10.79-5.8-2.72L99,158l2.72-21.2,12-6.52Z" style="fill:#764c1d"/><path d="M141.38,203.14C139.32,185.63,113,167.86,99.93,168c-12.48.14-15.26,29.74-13.37,33.64,3.74,7.71,7,45.17,5.87,54.77-1.3,11.53,55.65,12.81,55.65,3.75-6.94-17.74-4.63-39.5-6.7-57Z" style="fill:#2a9cc8"/><path d="M235,297c-19.41-1.83-63-6.12-76.4-8.91-17.4-3.62-36.24-6.16-44.21-14.49a61,61,0,0,1-11.59-17.39H97.51c.18,6.53,1.09,15.94,4.44,22.64,5.63,11.27,20.75,15.11,33.82,17.16C142.89,297.1,191.89,297.15,235,297Z" style="fill:#dc7400"/><path d="M114,204.69,99.9,228.57l-5.84,31.36c3.43,3,11.81,5,21,5.76-2.6-5-6.47-13.73-6.22-20.6C109.31,231.25,114,204.69,114,204.69Z" style="fill:#1e6f8e"/><path d="M99.93,168c-12.48.14-15.26,29.74-13.37,33.64a32.47,32.47,0,0,1,2,6.83l1.58-.12a121.48,121.48,0,0,1,6.16-23.91,34.46,34.46,0,0,1,10.84-15.19A23.7,23.7,0,0,0,99.93,168Z" style="fill:#1e6f8e"/><path d="M87.16,202.86l-4,85s-7.2-1.76-12.27-1S59.61,289,58.52,291.88s18.84,3.26,27.18,2.9,7.24-9.06,7.24-9.06l21.09-81c-7.51,2.32-18.67,2-26.87-1.83Z" style="fill:#a96d2a"/><path d="M216.42,202.8c4.41-2.84,7.05-.36,10.59-6.79s10.52-23.17,4.73-20.7c-6.08,2.74-16.37,16.7-15.82,15.1,1.25-3.62,2.37-5.13.61-5.19S206,199.51,206,199.51Z" style="fill:#a96d2a"/><path d="M214.82,188.66s-2,2.54-1.14,4.35,4,5.4,5.07,5.11,2.57-3.42,2.57-3.42l-3.87-6.29Z" style="fill:#764c1d"/><path d="M224.84,158.46c.11,1.31,1.85,3.38,2.88,4.32s4.39,3.84,4.18,4.45l-9.44,27.47c-.42,1.21-3,1.93-1.05,2.57s3.05-.81,3.47-2c0,0,4.81-14.12,7-21,.68-2.19,2.31-6.21,2.27-7.94s-2-3.18-3.57-5a12.67,12.67,0,0,0-3.33-2.86,6.35,6.35,0,0,0-2.38,0Z" style="fill:#11343d"/><path d="M231.06,172.11s.72-2.08,1.42-4.54c.59-2.06-1.38-3.3-2.41-4.61a37.21,37.21,0,0,0-3.82-4c-1-.87-1.65-.61-2.24.35a36,36,0,0,0-1.71,4.93l-6.81,21.22s-1.15,2.57-1,3.93,4.74,6.1,5.46,6.87c1.44,1.41,2,1.42,2.61.36.3-.56.61-1.41,1-2.51C224,193.22,231.06,172.11,231.06,172.11Z" style="fill:#164450"/><path d="M231.28,167.22,224.83,160c-.24-.26-.53-.16-.66.22l-8.89,27.27a1.34,1.34,0,0,0,.2,1.18l6.45,7.25c.24.27.53.17.66-.22l8.89-27.26A1.37,1.37,0,0,0,231.28,167.22Z" style="fill:#defefd"/><path d="M225.73,161c-.74-.82-1.65-.52-2,.68l-.13.41a41.53,41.53,0,0,1-.71,18.59c-1.07,3.79-2.33,8.37-3.43,12.41l1.61,1.82c.74.82,1.65.51,2-.69L231,169.87a4.15,4.15,0,0,0-.62-3.66Z" style="fill:#f5fffe"/><path d="M128.37,136.51c-5,3-20.33-1.78-20.66,7.53s12.5,17.79,2.49,21.31-24.4-9.08-24.8-21.94c-.79-25.31,20.53-22.67,19.64-32.47s12.64-1.47,16.42,2.57-1.25,6.54,10.88.74c12.49-3.27,1,19.3-4,22.26Z" style="fill:#001871"/><path d="M208.94,185.67c.49-2,8.57-3.81,8.28-1.09-.25,2.24-4,2-4.26,4.62a25.07,25.07,0,0,0-.16,7.41c.19,2.32-6.83,2.9-5.35.65,1.8-2.75.49-6.75,1.49-11.59Z" style="fill:#a96d2a"/><path d="M87.16,202.86h0l-4,83.95a2.56,2.56,0,0,0,1.51-.2c1.53-.91,10-61.72,12.63-80.88A35.53,35.53,0,0,1,87.16,202.86Z" style="fill:#764c1d"/><path d="M137.72,116c-.58-1.77-2.2-2.61-5.38-1.78-7.41,3.54-8.42,4-8.94,2.87-6.06,4.32-10,4.06-5.21,3.91,5.79-.18,14.67-.36,17.75-2.54A4.44,4.44,0,0,0,137.72,116Z" style="fill:#000a2e"/><path d="M98.07,163.35c-1.16-3.18-7.39-11.9-7.06-19.13.36-8,2.9-14.13,8.7-22.29,2.78-3.9,3.89-6,4.29-7.17-4.18,5.83-19.27,7.28-18.6,28.65C85.65,151.45,91.37,159.39,98.07,163.35Z" style="fill:#000a2e"/><path d="M318.19,281.72l-7.55-3.62-.19.06c-.3,2.35-.46,4-.46,4l-8.14-.95-.06,0s4.44,4.1,4.7,7.73a18.22,18.22,0,0,1-1.44,7.46l4.52-.29a67.05,67.05,0,0,0,7.84-1Z" style="fill:#95abff"/><path d="M326.49,250.43s.46,43.56.51,44.2c.18,2.45-11.25,1-13.56,1.22s2.95-3.58,2.57-7-6-6.11-8.29-8.93c4.22-5.17,3.49-13.69,6.31-19.84C316.55,254.55,318.88,248.54,326.49,250.43Z" style="fill:#001871"/><g style="clip-path:url(#a)"><path d="M333.23,247.48l.72,51.45-10.32,1.27s0-29.53-.18-35-3.27-10.14-7.61-8.87c-1.45-1.27,5.79-9.06,5.79-9.06L334,241.68Z" style="fill:#fff"/></g></svg>