<svg xmlns="http://www.w3.org/2000/svg" viewBox="0 0 350 350"><path d="M55,108.32a6,6,0,0,0-.92-.06c-1.06,0-1.39,1.5-1.7,2.62s-.46,2.78-1.81,2-2-2.33-3.74-2.65c-1.28-.23-2.74,1.27-3.47,2.16a11,11,0,0,0-1.85,3.89c-.79,2.75-1.21,6.76.64,9.18a3.11,3.11,0,0,0,1,.85c0,1.56.13,3.11.25,4.67.15,2-.52,3.89-.5,5.9,0,.37.61.47.67.09a40.34,40.34,0,0,0,.61-8.9c.55,1,1.17,2,1.75,3,1.08,1.89,2.13,4,4,5.2.56.34,1.14-.33.86-.87-1-1.82-2.2-3.51-3.21-5.32a37.8,37.8,0,0,0-2.38-3.5,13,13,0,0,0,3.94-1.74c.52-.3,1-.63,1.52-1,.16.21.32.41.49.61-.08.78-.08,1.57-.11,2.28-.13,2.28,0,5.06,1.36,7a.42.42,0,0,0,.78-.21c.13-2.34-.08-4.68-.18-7,1.54,1.7,2.51,3.79,3.89,5.6a.47.47,0,0,0,.86-.36c-.74-3-2.74-5.26-4.8-7.45,0-.82,0-1.63.12-2.45.13-.14.28-.26.41-.41a6.78,6.78,0,0,0,1.6-4.72,25.13,25.13,0,0,1,.18-3.36c.2-1.28.62-1.57,1.73-1.74.5-.07,1.65-.55,1.7-1.18C58.81,108.84,55.72,108.48,55,108.32Z" style="fill:#414355"/><path d="M87,103.82a.24.24,0,0,0-.07-.29c-3.85-3.62-5.09,8.35-9.17,2.83-1.25-1.68-1.3-3.72-1.78-5.67a19.91,19.91,0,0,0-1-2.79c-.64-1.56.69-1.92,1.49-2.9a1.89,1.89,0,0,0-2.14-3A4.35,4.35,0,0,0,72,94.53c-.42,1-.7,2.08-1.16,3.09a13.69,13.69,0,0,0-1.32,3,12,12,0,0,1-.63,3.09,15.72,15.72,0,0,1-1.8,2.2,8.5,8.5,0,0,0-1.57,4.23.89.89,0,0,0-.08.17c-1,3.78.62,6.15,1.75,9.71,1.27,4,1.11,8.39,2.8,12.17.16.37.77.18.76-.21a81.63,81.63,0,0,0-2.09-14.83,45,45,0,0,1,3,4.31c1.7,3.16,3.33,7.09,5.7,9.76.42.47,1.07,0,1-.57a13.4,13.4,0,0,0-.59-2.07.53.53,0,0,0,.14-.29c.26-2.69.57-5.39.75-8.09.1-1.48.31-2.94.43-4.4.26-.08.51-.18.76-.28.25,1.67.59,3.35.88,5s1.26,3.32,1.74,5a13.31,13.31,0,0,0,1.44,3.75.51.51,0,0,0,.92-.39c-.55-2.65-.91-5.21-1.67-7.81-.42-1.45-.86-2.85-1.2-4.31a9.52,9.52,0,0,0-.72-1.91A8.9,8.9,0,0,0,85,110.07a15.54,15.54,0,0,0,.27-2.55c.21-1.37,1-.06,1.42.45.72.94,1.56,1.63,2.73,1.08a.47.47,0,0,0,.23-.4A7.4,7.4,0,0,0,87,103.82ZM77,126.64c-.85-1.89-1.89-3.74-2.7-5.48a15.82,15.82,0,0,0-4.07-5,22.86,22.86,0,0,0,7.95-.18A92.3,92.3,0,0,0,77,126.64Z" style="fill:#414355"/><path d="M106.71,100.34c-1.85.37-2.43,2.83-2.8,4.62a7.06,7.06,0,0,0-3.32-3.33c-2-.76-3.53.63-4.57,2.3a8.73,8.73,0,0,0-.92,3.48,20.29,20.29,0,0,1-1.35,4.19,4,4,0,0,0,1.08,3.87c-.08.4-.18.8-.28,1.22a9.41,9.41,0,0,0,0,2.31c0,2.22-.71,4.36-.55,6.6,0,.29.46.49.61.16a12.15,12.15,0,0,0,.94-3.32,21,21,0,0,1,1.61-4.39,6.1,6.1,0,0,0,.37-1.47,11.48,11.48,0,0,0,5.41-2.16,18.11,18.11,0,0,0,1.2,2.52c-.06.18-.12.35-.16.5a20.73,20.73,0,0,0-1.08,8c.06.5.86.72,1,.13.39-2.33.77-4.58,1.28-6.84A19.48,19.48,0,0,1,107,123c.39,1.41.29,2.54,1.17,3.76a.57.57,0,0,0,1-.44,37.08,37.08,0,0,0-1.82-6.56c-.48-1.07-1.08-2.09-1.66-3.11.11-.4.22-.8.34-1.21a7.52,7.52,0,0,0,.39-3.6c1.14-1.33,1.17-3.19.9-5-.14-.93-.3-1.85-.39-2.79,0-.43,1.65.51,1.84.62a2.6,2.6,0,0,0,2.43.36.43.43,0,0,0,.32-.41C111.57,102.16,109.21,99.82,106.71,100.34Zm-2.33,13.11,1-.77a11,11,0,0,1-.54,2.29A14.21,14.21,0,0,1,104.38,113.45Z" style="fill:#414355"/><path d="M126.91,109.49c-.68.47-.84,1.55-1.64,1.86s-1.54-3-1.87-3.64c-1.38-2.55-3.92-3.13-6.12-1.28a11.49,11.49,0,0,0-3.16,5.5.88.88,0,0,0-.24.37c-.71,2.21,0,4.19.65,6.33a18.08,18.08,0,0,1,1.14,4.27,5.48,5.48,0,0,0,.68,2.31.57.57,0,0,0,1.06-.28,16.77,16.77,0,0,0-.4-5.24c-.33-1.21-.52-2.47-.73-3.72a4.77,4.77,0,0,0,1.68-.1c.75-.2,1.44-.55,2.19-.74,1-.27,1.3-.08,2.13.53a2.59,2.59,0,0,0,.47.29c-.28,1.26-1,2.46-1.35,3.73a19.07,19.07,0,0,0-.51,4.57.48.48,0,0,0,.89.25c1-1.65.67-3.86,1.25-5.67a24,24,0,0,0,.87-2.65,2.54,2.54,0,0,0,.47-.07c.82,2.54.71,5.43,2.06,7.75.25.44,1.1.29,1-.28-.34-2.53-.76-5.56-2-8a6.23,6.23,0,0,0,2-2.34c1.57.25,4.12,1,3.63-1.47C130.75,110.27,128.41,108.44,126.91,109.49Z" style="fill:#414355"/><path d="M146.71,115.93c-.51.23-.87.83-1.51.74s-1.38-1.18-1.83-1.68a3.34,3.34,0,0,0-3.27-1.06,4.13,4.13,0,0,0-3.3,3.07c-.21.8-.92,1.47-1,2.51-.25,3.14,3.24,3.13,5.91,3.26,1.26.06,3.48-.2,4.35-1.28a6.56,6.56,0,0,0,.77-1.6.78.78,0,0,1,1-.36c.73.12,3.19,2.4,3.38.69C151.41,118.17,149.06,114.87,146.71,115.93Z" style="fill:#414355"/><path d="M349.45,174.74c-4.65-3.08-9.84-5.42-14.66-8.26s-9.9-5.89-14.79-8.95-9.34-6.15-14.06-9.17-9.69-7-15-8.75a.84.84,0,0,0-.81,1.39,68.93,68.93,0,0,0,13.19,9.54c5.15,3,10,6.68,15,9.88,4.86,3.09,9.83,6,14.79,8.94s9.93,6.11,15.43,7.53A1.18,1.18,0,0,0,349.45,174.74Z" style="fill:#dcdde0"/><path d="M322.82,186.66c-4.25-13.9-21.27-19-32.09-26.35-3.67-2.5-7.29-6.33-6.15-11.1.86-3.62,4.59-6.37,7.29-8.63a.56.56,0,0,0-.24-.92c-12.8-4.75-28,.57-40.37,4.34-8.11,2.47-16,5.48-24.11,8.08-4,1.27-7.89,2.57-11.84,3.83-1.94.62-9.46,3-9.63,3.58-.34,0,0,1.33.68,1.12,15.95,12.7,33.82,22.3,51.3,32.64,9.22,5.46,18.5,10.82,28,15.72,6.91,3.56,14.17,13.24,22.24,12.87,6.51-.31,11.41-9.8,13.87-15.21C324.43,200.81,324.71,192.82,322.82,186.66Z" style="fill:#ffa348"/><path d="M147.43,122.74c24.38,9.51,46,20.64,69.9,33.89,28,15.58,41.07,22.1,68.45,38.81,8.57,5.23,23.71,11.41,34,15.66a53.24,53.24,0,0,1-19.07,21.74c-10.91,7-21.93,10.31-33.24,12.51-26.06,5.07-57.5-7.86-80.22-19-22.94-11.2-61.28-34.18-54.55-65.3,3-13.63,15.73-21.39,12.6-36.11Z" style="fill:#dcdde0"/><path d="M259.28,228.78c-5.46-3.29-11.39-5.58-16.62-9.3-7.29-5.19-10.09-12.25-10.12-21,0-6.46.61-13.54-3.47-19-4.61-6.16-14-7.14-21.07-7.3-9.35-.21-18.63.47-28,.83-6.21.23-12.73.34-18.64-1.86-8.31-3.08-7.58-12.56-5.82-19.74,1.49-6.08,4.13-11.73,2.29-18.06-3.35-11.49-16.81-13.25-27-13.5a195.93,195.93,0,0,0-39.08,2.74c-14.17,2.53-28.25,6.63-42,10.81-12.56,3.82-24,10.41-36.71,13.64a2.41,2.41,0,0,0-.45.16c-.85.32-1.17.63-.35,1,3.76,1.64,7.78,2.58,11.52,4.29A46,46,0,0,1,35,160.15c6.64,5.95,11.48,14.76,8.79,23.8-2.31,7.73-9.76,13.39-16.08,17.79-3.46,2.41-7.06,4.63-10.66,6.83-4,2.42-8.55,4.74-11.86,8.05-5.29,5.29-7.46,11-2.23,17.2s14.76,9.8,22.26,12.55c8.64,3.17,18.05,4.65,27.22,3.28,9.64-1.44,18.09-5.93,26.89-9.85,9.66-4.31,19.64-7.9,30.26-8.73s20.94,1.16,31,4.2c19.58,6,37.72,15.61,57.77,20.21,19,4.34,38.88,3.54,57.12-3.49,5.3-2,12.13-5.84,12.74-12.17C268.7,234.76,263,231,259.28,228.78Z" style="fill:#ffa348"/></svg>