<svg xmlns="http://www.w3.org/2000/svg" viewBox="0 0 350 350"><path d="M216.8,84.46a6.89,6.89,0,1,1-.22-1.74" style="fill:none;stroke:#000;stroke-linecap:round;stroke-linejoin:round;stroke-width:0.6603478842490911px"/><path d="M157.68,149.32c-12.05-3.9-24.8-7.18-37.84-6.84-19.15.5-37.57,9.43-46.65,22.62-7.68,11.18-8.71,24.32-12.06,36.75-4.13,15.32-12,29.86-20.34,44.07-4.49,7.64-9.23,15.43-10,23.82-1.07,11.65,6,23.3,17.11,31.1s25.94,12,40.81,12.94c7.92.51,16.19.12,23.24-2.74,7.45-3,12.91-8.5,20.39-11.47,6.94-2.75,15-3.11,22.81-2.7A127.05,127.05,0,0,1,184.87,302c10.85,3.25,20.93,7.92,31.75,11.21s22.92,5.16,34,2.51c10.42-2.49,18.67-8.61,26.12-14.81a283.34,283.34,0,0,0,33.37-32.72c6.73-7.81,13-16,16-25.18,5.74-17.45-1.95-37.2-19.15-49.22-14.26-9.95-33.43-14.35-52.2-17-17.13-2.46-36.94-2.71-52.68-9C187.08,161.76,173.43,154.41,157.68,149.32Z" style="fill:#f0b23d;isolation:isolate;opacity:0.1"/><circle cx="62.52" cy="63.75" r="7.22" style="fill:#3fa8d1;isolation:isolate;opacity:0.1"/><circle cx="301.98" cy="80.88" r="7.22" style="fill:#3fa8d1"/><circle cx="46.07" cy="169.76" r="12.1" transform="translate(-61.46 30.55) rotate(-22.5)" style="fill:#3fa8d1"/><circle cx="269.82" cy="137.01" r="12.1" style="fill:#3fa8d1;isolation:isolate;opacity:0.1"/><path d="M169.75,159.67c-.43,0-.87,0-1.29.09a5.79,5.79,0,0,0-2,.8c-3,1.73-5.91,4.11-7.17,7.37a1,1,0,0,0-.09.65,1.13,1.13,0,0,0,.35.46l1.19,1.07a1.5,1.5,0,0,0,.52.37,1.78,1.78,0,0,0,1,0c3.25-.74,6.7-1.6,9-4,1.08-1.15,2.08-2.74,3.67-2.78a16.2,16.2,0,0,1,2,.33,1.43,1.43,0,0,0,1.61-.84,1.81,1.81,0,0,0-.11-.95l-1-3.27c-.27-.89-3-.94-3.86-.78C172.12,158.37,171.2,159.54,169.75,159.67Z" style="fill:#65617d"/><path d="M181.31,178.08a29,29,0,0,1-.14,3.36,9.68,9.68,0,0,1-.83,2.52,16.31,16.31,0,0,1-2.27,3.58,7.15,7.15,0,0,1-3.11,2.34,3.27,3.27,0,0,1-3.57-.95,4.69,4.69,0,0,1-.62-3.07,18.83,18.83,0,0,1,1.71-7.67c.5-1,1.15-1.95,1.67-3,1.08-2.1,1.7-4.59,3.56-6a11.62,11.62,0,0,0,3.71,1c.5.06,1.92.09,2.08.73.12.43-.82,1.63-1,2.06A14.23,14.23,0,0,0,181.31,178.08Z" style="fill:#65617d"/><path d="M168.08,129.93a11.83,11.83,0,0,1,1,3.12,19.06,19.06,0,0,1,0,2,13,13,0,0,0,.45,2.7l1.86,7.62a9.48,9.48,0,0,1,.41,3.46,20.54,20.54,0,0,0-.37,2.31,8.53,8.53,0,0,0,.28,1.74,10.86,10.86,0,0,1-.28,5.31.73.73,0,0,0-.06.41c0,.22.26.35.45.46a19,19,0,0,0,6.44,2.14,62.67,62.67,0,0,0,4.24-15.14c.48-3.15.71-6.34,1.31-9.47a.85.85,0,0,1,.22-.48c.23-.19.57-.07.84.06a76.05,76.05,0,0,1,9.82,5.67A12.31,12.31,0,0,0,197,131.69a22,22,0,0,0-1.67-4.37,25.17,25.17,0,0,0-2.84-4.76c-2.48-3.1-6.11-5.09-9.85-6.43-2.27-.82-4.61-1.43-6.95-2-1.31-.35-3.5-1.5-4.78-.61s-2.22,3.22-2.77,4.68a17.21,17.21,0,0,0-1.08,5.64A15.68,15.68,0,0,0,168.08,129.93Z" style="fill:#3f3d56"/><path d="M194.92,139.11c-.7.76-.11,2-.25,3a4.21,4.21,0,0,1-.49,1.32L191,149.71a11.25,11.25,0,0,0-1.19,3c-.44,2.27.46,4.81-.69,6.81a7.17,7.17,0,0,0-1.1,1.93c-.11.53,0,1.08-.06,1.62a10.11,10.11,0,0,1-.6,1.81,13.1,13.1,0,0,0-.31,1.77,10.39,10.39,0,0,1-3.75,6.49,6,6,0,0,1-4.14,1.41,3.6,3.6,0,0,1-3.27-2.6,3.41,3.41,0,0,0-.39-1.46c-.45-.57-1.37-.6-1.8-1.19l1.64-2.7a6.24,6.24,0,0,0,1.12-2.69c.1-1.2-.48-2.4-.27-3.58.18-1,.91-1.87,1.13-2.88.27-1.25-.28-2.51-.57-3.76-.73-3.08.08-6.28.9-9.35,1.07-4.06,2.18-8.18,4.36-11.77C186.36,134.92,190.37,137.17,194.92,139.11Z" style="fill:#3f3d56"/><path d="M195,75.52a5.44,5.44,0,0,1,.07,2.24c-.12,1.67.23,3.34.15,5a30,30,0,0,1-1,5c-1,4.7-.78,9.59-1.7,14.31-1.15,5.84-4.08,11.28-4.66,17.21-.18,1.88-.16,3.9-1.19,5.49a86.16,86.16,0,0,1-17.26-10.14c1.17-8.72,2.33-17.48,2.18-26.27a10.89,10.89,0,0,1,.22-3.17A9.45,9.45,0,0,1,173,82.72c1.3-2.1,2.72-4.12,4.14-6.13a6.31,6.31,0,0,1,8.08-3.29l5.7,1C192.09,74.56,194.45,74.14,195,75.52Z" style="fill:#ff8500"/><path d="M149.24,108.92a17.6,17.6,0,0,0-2.54-2.1c1.19-1.45,1-3.53,1.25-5.38a17.25,17.25,0,0,1,1.07-3.5c.12-.31.29-.66.62-.75a1.12,1.12,0,0,1,.6.1c1,.35,3.09.33,3.87,1,.94.79.08,2.44-.28,3.42C153.58,102.35,149.74,109.42,149.24,108.92Z" style="fill:#be6f72"/><path d="M152.15,171.27a6.86,6.86,0,0,1,1,2.67,2.65,2.65,0,0,1-1.07,2.49,3.72,3.72,0,0,1-2.93,0,15.25,15.25,0,0,1-9.23-8.35,6,6,0,0,0-1.11-2,6.18,6.18,0,0,0-1.31-.89,7.07,7.07,0,0,1-3.19-3.09,3.32,3.32,0,0,1,.93-4.05,3.4,3.4,0,0,1,2.61-.34,10.14,10.14,0,0,1,2.48,1.08,24.15,24.15,0,0,1,4,2.25,25.24,25.24,0,0,1,2.75,2.91,40.44,40.44,0,0,1,2.75,3.51C150.07,167.86,152.38,171,152.15,171.27Z" style="fill:#65617d"/><path d="M127.68,164.26a23.26,23.26,0,0,1-.89,5,4.59,4.59,0,0,1-1.38,2.43,4.94,4.94,0,0,1-2.1.77,2,2,0,0,1-.81.05,2,2,0,0,1-1.07-.87,14.39,14.39,0,0,1-2.67-4.82,11.63,11.63,0,0,1,1.16-7.8,7.88,7.88,0,0,1,1.78-2.6A6.86,6.86,0,0,1,125,154.9c1.23-.24,2.75-.77,2.84.73A71,71,0,0,1,127.68,164.26Z" style="fill:#65617d"/><path d="M146.15,101.51c2.3,1.19,4.86,2.71,5.34,5.26.3,1.55-.27,3.14-.18,4.73.08,1.39.67,2.73.6,4.12a18.68,18.68,0,0,1-.34,2,30.86,30.86,0,0,0-.13,3.73c-.11,2.8-1.05,5.5-1.5,8.27a24.42,24.42,0,0,0-.23,6c.12,1.29.34,2.57.34,3.86a17.31,17.31,0,0,1-.23,2.79,27.9,27.9,0,0,1-2.67,8.3c-1.61,3.16-1.38,7.24-1.21,10.78a2.77,2.77,0,0,1-.18,1.45c-.42.76-1.47.87-2.34.8a12.7,12.7,0,0,1-8.34-4.23,2.07,2.07,0,0,1-.61-1.12c-.08-.72.5-1.31.91-1.9,1.41-2,1.05-4.71,1.22-7.18a15.56,15.56,0,0,1,1.27-5.19,9.77,9.77,0,0,0,1-2.92,7.31,7.31,0,0,0-.5-2.84l-1-3.18a92.9,92.9,0,0,0-5.46-14.52,7.3,7.3,0,0,0-3.09,4.34c-.88,3.15.37,6.66-.82,9.69a8.36,8.36,0,0,0-.49,1.29,5.12,5.12,0,0,0-.08,1.17,96.24,96.24,0,0,0,.59,9.74,3.07,3.07,0,0,0,.4,1.39c.2.28.49.49.7.76a3.65,3.65,0,0,1,.33,2.77l-.67,4.47a1.21,1.21,0,0,1-.21.63,1.17,1.17,0,0,1-.57.3,15.7,15.7,0,0,1-6.57.6,4.2,4.2,0,0,1-1.78-.88c-.06-.66.77-1.11.8-1.77a1.48,1.48,0,0,0-.51-1c-1.24-1.41-2.72-2.9-2.71-4.77,0-.49.12-1,.1-1.47,0-1.26-.91-2.34-1.21-3.55-.38-1.5.12-3.05.31-4.59a24,24,0,0,0-.33-6.21L115,125.79a19.47,19.47,0,0,0-.7-3.46,25.84,25.84,0,0,0-1.48-3.26c-1.06-2.17-1.94-4.42-2.82-6.67a5.92,5.92,0,0,1-.51-1.94,4.71,4.71,0,0,1,1.27-3.1,9.7,9.7,0,0,1,5.34-3.24,2.42,2.42,0,0,1,1.07-.05,3.07,3.07,0,0,1,.84.44,20,20,0,0,0,17.65,2.1,1.46,1.46,0,0,0,1.33,0,17.31,17.31,0,0,0,2.89-2A17.13,17.13,0,0,1,146.15,101.51Z" style="fill:#3f3d56"/><path d="M77,187.25a4.61,4.61,0,0,0,.79,1.4c1.21,1.58,2.89,2.84,3.67,4.68.17.39.29.81.44,1.21A7.94,7.94,0,0,0,84,197.68a13.24,13.24,0,0,0,2.39,1.59,9.72,9.72,0,0,0,4.75,1.49,5.56,5.56,0,0,0,2.49-.67,3.09,3.09,0,0,0,1.79-3,2.63,2.63,0,0,0-.22-.67,6,6,0,0,0-.61-1,7.15,7.15,0,0,0-2-2.09c-.93-.56-2.09-.7-2.93-1.4a4.62,4.62,0,0,1-.84-1,12.8,12.8,0,0,1-1.67-3.78A5.9,5.9,0,0,0,86,184.36a4.67,4.67,0,0,0-2.71-1.07,4.78,4.78,0,0,0-1-.1,2.84,2.84,0,0,1-1.42-.07c-.45-.22-.6-.54-1.14-.5a2.42,2.42,0,0,0-1.17.51A4,4,0,0,0,77,187.25Z" style="fill:#3f3d56"/><path d="M88.81,188.77a5.15,5.15,0,0,0,1.43,3.07c.56.48,1.33.78,1.61,1.46a2.37,2.37,0,0,1-.54,2.15,7.91,7.91,0,0,1-2.15,2,3.22,3.22,0,0,1-2.36.58,4,4,0,0,1-1.7-1.1,11.78,11.78,0,0,1-2.95-3.58c-.66-1.49-.7-3.22-1.43-4.7a15.67,15.67,0,0,1-1.33-2.53,1.52,1.52,0,0,1,0-1,1.45,1.45,0,0,1,1.31-.77,4.45,4.45,0,0,1,1.56.33,33.68,33.68,0,0,0,4.62,1.29c.62.12,1,.12,1.34.72A7.25,7.25,0,0,1,88.81,188.77Z" style="fill:#fbbebe"/><path d="M92.69,198.33a3.53,3.53,0,0,0-.52,1.25,2.85,2.85,0,0,0,0,1,5.56,5.56,0,0,0,1.49-.55,3.07,3.07,0,0,0,1.79-3,2.61,2.61,0,0,0-.21-.67.92.92,0,0,0-.89.28A7.5,7.5,0,0,0,92.69,198.33Z" style="fill:#fbbebe"/><path d="M80.72,173a1.63,1.63,0,0,0-.12,1c.15.67.84,1.05,1.45,1.36l5.88,2.87a13.35,13.35,0,0,1,1.18.63,17.37,17.37,0,0,1,2.65,2.27,6.81,6.81,0,0,0,2.94,1.82,4.92,4.92,0,0,0,3.33-.43,7,7,0,0,0,1.53-1,8.55,8.55,0,0,0,1.1-1.15,1.92,1.92,0,0,0,.06-2.79,9,9,0,0,0-.67-.83c-2.23-2.46-5.88-3.73-9-4.24a25.48,25.48,0,0,1-3.63-1,8.48,8.48,0,0,0-3.72-.49A3.67,3.67,0,0,0,80.72,173Z" style="fill:#3f3d56"/><path d="M80.72,173a1.63,1.63,0,0,0-.12,1c.15.67.84,1.05,1.45,1.36l5.88,2.87a13.35,13.35,0,0,1,1.18.63,17.37,17.37,0,0,1,2.65,2.27,6.81,6.81,0,0,0,2.94,1.82,4.92,4.92,0,0,0,3.33-.43,7,7,0,0,0,1.53-1,8.55,8.55,0,0,0,1.1-1.15,1.92,1.92,0,0,0,.06-2.79,9,9,0,0,0-.67-.83c-2.23-2.46-5.88-3.73-9-4.24a25.48,25.48,0,0,1-3.63-1,8.48,8.48,0,0,0-3.72-.49A3.67,3.67,0,0,0,80.72,173Z" style="isolation:isolate;opacity:0.1"/><path d="M95.42,174.8a6.79,6.79,0,0,1,1.1,1.7,1.91,1.91,0,0,1,.25,1.36,2,2,0,0,1-.61.8l-.59.54a2.23,2.23,0,0,1-.6.46,2.46,2.46,0,0,1-1,.15,3.73,3.73,0,0,1-2.26-.47,2.52,2.52,0,0,1-.63-2.93A6.34,6.34,0,0,1,93.13,174C93.81,173.43,94.94,174.3,95.42,174.8Z" style="fill:#fbbebe"/><path d="M99,178.25a3,3,0,0,0,.15,1.66c.15.5.29,1,.44,1.51v0a9.22,9.22,0,0,0,1.1-1.15,2.47,2.47,0,0,0,.6-1.07,2.38,2.38,0,0,0-.55-1.72,9,9,0,0,0-.67-.83c-.16.2-.29.41-.41.54A3,3,0,0,0,99,178.25Z" style="fill:#fbbebe"/><path d="M83.64,153.37a25.16,25.16,0,0,0,0,8.91c.28,2.26.6,4.59-.07,6.77a5.38,5.38,0,0,0-.49,2.47c.28,1.58,2.19,2.19,3.76,2.48a3.67,3.67,0,0,0,1.4.09,3.34,3.34,0,0,0,1.26-.67,13.87,13.87,0,0,0,4.89-6.49,23.8,23.8,0,0,0,1-5.43,37.88,37.88,0,0,0,.17-9.27c-.14-.91-.34-1.8-.42-2.7a19.23,19.23,0,0,1,.26-4.73,76.78,76.78,0,0,1,2.6-11.4,15.28,15.28,0,0,1-9.24-1.67c.55.3-.08,5-.14,5.64a39.57,39.57,0,0,1-1.06,5.81C86.57,146.74,84.49,149.83,83.64,153.37Z" style="fill:#3f3d56"/><path d="M83.64,153.37a25.16,25.16,0,0,0,0,8.91c.28,2.26.6,4.59-.07,6.77a5.38,5.38,0,0,0-.49,2.47c.28,1.58,2.19,2.19,3.76,2.48a3.67,3.67,0,0,0,1.4.09,3.34,3.34,0,0,0,1.26-.67,13.87,13.87,0,0,0,4.89-6.49,23.8,23.8,0,0,0,1-5.43,37.88,37.88,0,0,0,.17-9.27c-.14-.91-.34-1.8-.42-2.7a19.23,19.23,0,0,1,.26-4.73,76.78,76.78,0,0,1,2.6-11.4,15.28,15.28,0,0,1-9.24-1.67c.55.3-.08,5-.14,5.64a39.57,39.57,0,0,1-1.06,5.81C86.57,146.74,84.49,149.83,83.64,153.37Z" style="isolation:isolate;opacity:0.1"/><path d="M101,136.35c1.33,3.87,1,8.1.46,12.15s-1.43,8.11-1.18,12.19a13.44,13.44,0,0,1-.11,4.78,10.43,10.43,0,0,1-1,2.13L88.47,186a3.33,3.33,0,0,1-2.67,1.67,7.7,7.7,0,0,1-3.32-.72,5.82,5.82,0,0,1-1.93-1.07,2.25,2.25,0,0,1-.81-1.95c.47-3.2,1.19-6.48,1.72-9.69a16.74,16.74,0,0,1,2.32-6.13c.82-1.33,1.84-2.53,2.55-3.92,2-4,1.33-8.84-.24-13s-3.92-8.07-5.18-12.35a14.41,14.41,0,0,1-.63-3.68,9.82,9.82,0,0,1,2.79-7,2.49,2.49,0,0,1,1-.67,2.76,2.76,0,0,1,1.31,0C91.29,128.72,99,130.64,101,136.35Z" style="fill:#3f3d56"/><path d="M196.74,78.58a6.73,6.73,0,0,1-1.09,4.21,11.9,11.9,0,0,1-14.46,4.63,23.22,23.22,0,0,1-5.58-3.89,5.14,5.14,0,0,1-1.48-1.74,3.39,3.39,0,0,1,1.13-3.64,9.7,9.7,0,0,1,3.65-1.73C183.24,75.07,195.7,70.82,196.74,78.58Z" style="fill:#fbbebe"/><path d="M194.2,73.94c3.94,3.18,9.68,6.2,14.15,8.55,1.52.8,3.2,1.7,3.75,3.34a6.32,6.32,0,0,1,.1,2.74,18.36,18.36,0,0,1-1.06,5.22,34.85,34.85,0,0,1-3.37,5.27c-2,3.06-3.18,6.67-5.65,9.38,1.67,5.55,3.49,11.09,4.09,16.84a.84.84,0,0,1-.05.47.85.85,0,0,1-.26.24l-4.16,2.72a5,5,0,0,0-1.2,1c-.73,1-.63,2.3-1.09,3.41a4.42,4.42,0,0,1-2.57,2.34,7.83,7.83,0,0,1-3.53.37,8.2,8.2,0,0,1-4.22-1.48,11.47,11.47,0,0,1-2.54-3,11.74,11.74,0,0,1-1.34-2.43,11,11,0,0,1-.45-3.88,41.08,41.08,0,0,1,.71-7.42c.19-1,.43-1.93.59-2.91.3-2,.24-4,.47-6a40.82,40.82,0,0,1,1.48-6.57,31.27,31.27,0,0,0,.87-4,43.92,43.92,0,0,1,2-7l1.33-3.95c.29-.85.58-1.69.91-2.53a19.34,19.34,0,0,0,1.65-4.72c.24-1.8-1.71-4-1-5.64C193.76,74.07,194.05,73.82,194.2,73.94Z" style="fill:#3f3d56"/><path d="M211,84.89a3.8,3.8,0,0,1,1.77,2.38,13.43,13.43,0,0,1,.52,6.74,12.55,12.55,0,0,0-.27,1.72,12.22,12.22,0,0,0,.2,2c.33,2.55,0,5.15.11,7.72.11,2.9.75,6-.47,8.6a12.27,12.27,0,0,1-3.85,4.23,76.61,76.61,0,0,1-18.41,10.63,4.86,4.86,0,0,0,.4-5,9.4,9.4,0,0,0-3.68-3.77,23.52,23.52,0,0,0,5.53-2,48.21,48.21,0,0,0,9.46-7,3,3,0,0,0,1-1.24c.3-1-.53-2-1.1-2.83-1.74-2.67-1.34-6.16-.61-9.26a23.83,23.83,0,0,1,4.18-9.48A9.38,9.38,0,0,1,211,84.89Z" style="fill:#3f3d56"/><path d="M190.33,129a4.64,4.64,0,0,1-1.15,1.27,3.81,3.81,0,0,1-3.49-.06,10.56,10.56,0,0,1-2.84-1.81,4.66,4.66,0,0,0-1.26-.94c-.87-.33-2.1-.08-2.59-.88a.6.6,0,0,1-.08-.29c0-.29.41-.37.71-.39a8.8,8.8,0,0,0,3.86-1.19,3.77,3.77,0,0,1-1-1,.81.81,0,0,1-.16-.48.89.89,0,0,1,.29-.47,7.44,7.44,0,0,1,8.18-1.36,1.55,1.55,0,0,1,.66.5,1.75,1.75,0,0,1,.25.67c.21.93,1,2.33.72,3.28S191,128.09,190.33,129Z" style="fill:#fbbebe"/><path d="M167.57,124.79c4.15-4.79,6-11.11,7.73-17.21l1.23-4.34,3-10.46c.44-1.54.88-3.08,1.17-4.65a43.77,43.77,0,0,0,.51-8.25,8.8,8.8,0,0,0-.77-3.31c-.29-.72-.43-1.49-.67-2.24a11.09,11.09,0,0,0-1.34-2.93,3,3,0,0,0-.6-.72,3.58,3.58,0,0,0-1.37-.56,12,12,0,0,0-3.27-.49,4,4,0,0,0-3,1.26A15.76,15.76,0,0,0,169,73.1a6.58,6.58,0,0,0-.55.92,5,5,0,0,0-.3,1.52c-.17,2.1-.32,4.21-.44,6.31a27.88,27.88,0,0,0-.07,2.89c0,.75.11,1.49.19,2.23l.79,7.3c.18,1.71.05,3.31.2,5,.38,4.14-.51,8.28-1.43,12.35a22.14,22.14,0,0,1-1.82,5.64c-.83,1.55-2.06,3.12-1.73,4.85.11.6.41,1.16.46,1.77a3.84,3.84,0,0,0,.11,1.12,1.32,1.32,0,0,0,1.43.66A3.28,3.28,0,0,0,167.57,124.79Z" style="fill:#3f3d56"/><path d="M168.07,105.59c.13,1,0,1.93.08,2.9a19.92,19.92,0,0,0,.67,3.67c.33,1.34.76,2.83,1.94,3.57a6.61,6.61,0,0,1,.84.53.84.84,0,0,1,.28.9L171,117a.94.94,0,0,1,.17,1.31.92.92,0,0,1-1.3.17.67.67,0,0,1-.15-.14,2.22,2.22,0,0,1-.09.89.72.72,0,0,1-.67.51,1.16,1.16,0,0,1-.47-.2l-2.4-1.49a4.41,4.41,0,0,1-1.73-1.67l-1-1.58a3.75,3.75,0,0,1-.55-1c-.39-1.34.7-2.82.14-4.08a5.84,5.84,0,0,0-.6-.87c-1.21-1.67-1.14-3.94-1-6,0-.7.17-1.53.8-1.83a1.63,1.63,0,0,1,1.56.28,6.92,6.92,0,0,0,1.41.88c.33.12.7.13,1,.25s.9.8,1.22,1.18A3.92,3.92,0,0,1,168.07,105.59Z" style="fill:#fbbebe"/><path d="M138.82,75.59a6,6,0,0,1-1.18,1.76,2.27,2.27,0,0,1-1.93.66,3.37,3.37,0,0,1-1.78-1.33,23.26,23.26,0,0,1-3.44-4.82c-1.32-2.71-1.53-5.81-1.72-8.82a4.25,4.25,0,0,1,.29-2.27,4.21,4.21,0,0,1,2.39-1.62l5.09-1.9a1.92,1.92,0,0,1,1-.18c.8.13,1.09,1.09,1.31,1.87a11.65,11.65,0,0,0,1.9,3.87c1.14,1.53,3.7,3.58,2.24,5.48A41.13,41.13,0,0,0,138.82,75.59Z" style="fill:#be6f72"/><path d="M145.33,66.9c2.23,2.1,3,5.36,2.88,8.42s-1,6-1.44,9.05-.58,6.24.73,9a23.2,23.2,0,0,1,1.38,2.84,9,9,0,0,1,.26,3,8.68,8.68,0,0,1-.6,3.15,9.91,9.91,0,0,1-3.58,3.67c-2.85,2.07-5.76,4.16-9.11,5.24a28,28,0,0,1-7,1.1,22.29,22.29,0,0,1-4.83-.13,13.15,13.15,0,0,1-7.33-3.88,4.12,4.12,0,0,1-.83-1.15,4.63,4.63,0,0,1-.29-1.73q-.12-3.3,0-6.58a28.68,28.68,0,0,1,.86-6.19c.63-2.34,1.74-4.53,2.58-6.81,2.91-7.91,2.62-16.92,6.67-24.31.88-1.6,2.34-3.28,4.14-3a1.39,1.39,0,0,1,.92.42,1.88,1.88,0,0,1,.33,1A30.21,30.21,0,0,0,133.8,70.6c.66,1.27,1.67,3.2,3.21,3.54S139.45,73,140.28,72A26.94,26.94,0,0,1,145.33,66.9Z" style="fill:#e3e8f4"/><path d="M156,61.5a6.18,6.18,0,0,1,1.27.89,5.09,5.09,0,0,1,1.36,3.77,28.26,28.26,0,0,1-.53,4.09c-.54,3.68-.08,7.44.13,11.16a5.14,5.14,0,0,1-.11,1.79c-.16.56-.5,1.06-.71,1.6-.64,1.61-.16,3.45-.53,5.14s-1.78,3.43-1.52,5.26c.1.71.45,1.37.59,2.08a1.82,1.82,0,0,1-.59,1.94c-.61.38-1.5.1-2.22.31a6.1,6.1,0,0,0-.86.39,4.21,4.21,0,0,1-3.58-.22,10.87,10.87,0,0,1-2.89-2.29A11.92,11.92,0,0,1,142.75,93c-.81-2.51-.09-5.24.8-7.73s1.93-5,1.78-7.66a34.22,34.22,0,0,0-.84-4.36,28.44,28.44,0,0,1-.37-6.11,11,11,0,0,1,.79-4.39,6.05,6.05,0,0,1,4.78-3.28C152,59.17,154,60.36,156,61.5Z" style="fill:#3f3d56"/><path d="M149.69,93.77a10.42,10.42,0,0,0,.57,3.13,12.4,12.4,0,0,0,.75-4.37,85.12,85.12,0,0,1,2.67-14.86c-.88.66-1.37,2.33-1.8,3.34A29.6,29.6,0,0,0,149.69,93.77Z" style="isolation:isolate;opacity:0.1"/><path d="M127.19,58.2a40.84,40.84,0,0,0-4.57,2,33.71,33.71,0,0,1-5.06,1.36c-3.93,1-7.88,2.73-10.25,6-1.75,2.42-2.48,5.4-3.68,8.13a69.29,69.29,0,0,0-3.07,6.83,26.18,26.18,0,0,0-.62,9.71,19.93,19.93,0,0,0,1.7,7.74c.63,1.24,1.51,2.35,2.14,3.59.76,1.5,1.16,3.14,1.8,4.68a7.47,7.47,0,0,0,3,3.87l2.43-1.43c3.64-2.12,7.28-4.25,10.8-6.56,3.07-2,6.17-4.31,7.8-7.6A16.93,16.93,0,0,0,130.87,87c-.37-3.23-1.23-6.39-1.67-9.61a39,39,0,0,1,.25-12.19c.34-1.81,1.23-3.69,1.41-5.5S128.58,57.83,127.19,58.2Z" style="fill:#3f3d56"/><path d="M112.12,111.27c1.87,1.77,4.55,2.28,6.88,3.34a14.77,14.77,0,0,1,4.6,3.34c.72.79,1.41,1.86,1.05,2.86a3.17,3.17,0,0,1-2.09,1.62,4.71,4.71,0,0,1-3.3.35,12.49,12.49,0,0,1-1.7-1c-1.39-.84-3.16-.84-4.59-1.61-2-1.08-3-3.46-4.94-4.74-1-.71-2.48-1.28-2.58-2.53a3,3,0,0,1,.28-1.31c.38-1,1-4.53,2.5-4.44S110.93,110.43,112.12,111.27Z" style="fill:#fbbebe"/><path d="M102.34,95.62a16,16,0,0,0,3.5,5.82c1.06,1.25,2.22,2.61,2.26,4.25a4.49,4.49,0,0,1-2.34,3.77,9.86,9.86,0,0,1-4.45,1.14,11.17,11.17,0,0,1-3.69-.26c-3.05-.82-5.17-3.48-7.57-5.54A23,23,0,0,1,85.93,101c-1.09-1.52-1.55-3.71-.48-5.25a7.72,7.72,0,0,1,1.34-1.34,22.4,22.4,0,0,0,4.6-5.52,5.88,5.88,0,0,1,1.8-2.25c1.19-.73,2.72-.4,4.07,0s5.6,1.13,5.88,3c.12.77-.83,2-1,2.79A7.39,7.39,0,0,0,102.34,95.62Z" style="fill:#fbbebe"/><path d="M109.89,99.81A13.35,13.35,0,0,1,111,102.3c1,3.54-.8,7.18-1.66,10.76-1.11,4.59-.64,9.38-.7,14.1,0,2.15-.25,4.53-1.8,6a5.4,5.4,0,0,0-1.15,1.19,4.32,4.32,0,0,0-.37,1.1,5.7,5.7,0,0,1-7,3.9,5.82,5.82,0,0,1-1.21-.5c-1.26-.71-2.36-1.93-3.81-2a10.29,10.29,0,0,0-1.36.15,9.34,9.34,0,0,1-4.21-.92,2.67,2.67,0,0,1-.88-.47c-.25-.23-.4-.53-.63-.77-.82-.89-2.23-.73-3.42-1a4.79,4.79,0,0,1-3.63-3.63,9.35,9.35,0,0,1,.16-3.49l.9-5.16a48.27,48.27,0,0,0,.78-5.74,24,24,0,0,0-.56-6.48,51.48,51.48,0,0,1-1.19-5.2,12.7,12.7,0,0,1,2.34-9,2.77,2.77,0,0,1,1.85-1.34,3.21,3.21,0,0,1,1.79.61q7.23,4.27,14.55,8.37a17.13,17.13,0,0,0,4.19,1.88c.44.11,1.09.07,1.15-.39a.86.86,0,0,0-.13-.49c-.84-1.61-2-3-3-4.51a7.69,7.69,0,0,1-1.42-5.12c.39-2.45,2.68-4.08,4.54-2.15A31.15,31.15,0,0,1,109.89,99.81Z" style="fill:#ff8500"/><path d="M94.94,131c3.92.25,7.92.52,11.54,2,1.17.48,2.4,1.1,3.63.8a4.81,4.81,0,0,0,1.67-.89,38.9,38.9,0,0,0,4.27-3.64c-.14-.73-1.13-.83-1.87-.82a11.2,11.2,0,0,1-5.2-1.25,8.39,8.39,0,0,0-1.66-.78c-1.59-.44-3.21.4-4.8.8a18.64,18.64,0,0,1-7.25-.1l-6.49-1a2.38,2.38,0,0,0-1.77.22,2.16,2.16,0,0,0-.63,1.13c-.8,2.67-.41,2.9,2.23,3.06Z" style="fill:#fbbebe"/><circle cx="183.65" cy="73.93" r="10.68" style="isolation:isolate;opacity:0.1"/><circle cx="183.57" cy="73.47" r="10.68" style="fill:#fbbebe"/><path d="M192.59,59.91a5.61,5.61,0,0,1,2.22,2,10.1,10.1,0,0,1,.57,1.87c.58,2,2.14,3.74,2.23,5.83.11,2.28-1.61,4.27-3.55,5.47a2.58,2.58,0,0,1-1.53.51A4.88,4.88,0,0,1,191,75c-2.19-1-4.65.26-7,.82a12.47,12.47,0,0,1-7.28-.42,6.86,6.86,0,0,1-3.25-2.26,3.55,3.55,0,0,1-.4-3.77c.34-.59.89-1.13.85-1.81a10.24,10.24,0,0,0-.33-1.17,2.67,2.67,0,0,1,.57-1.8A25.93,25.93,0,0,1,179.92,58a4.19,4.19,0,0,1,2.32-1.12c1.75-.08,3.26,1.23,5.07,1.24A9.48,9.48,0,0,1,192.59,59.91Z" style="fill:#3f3d56"/><circle cx="144.25" cy="60.2" r="11.02" transform="translate(-0.32 119.63) rotate(-45)" style="isolation:isolate;opacity:0.1"/><circle cx="144.44" cy="59.93" r="11.02" style="fill:#be6f72"/><path d="M150.33,66.15a7.34,7.34,0,0,0,5.21.38,7,7,0,0,0,2.73-1.15,3.28,3.28,0,0,0,1.38-2.54c0-1.12-.73-2.13-.82-3.25-.11-1.4.81-2.71.9-4.12a7.17,7.17,0,0,0-1.28-3.91,21.87,21.87,0,0,0-4.17-5.79,7.62,7.62,0,0,0-6.59-2.08,29.78,29.78,0,0,1-3.39,1,14.33,14.33,0,0,1-3.11-.35,3.56,3.56,0,0,0-2.94.67c-.41.4-.67,1-1.15,1.26a7,7,0,0,1-1,.37c-1.2.48-1.76,1.84-2.18,3.06l-2.87,8.21a24,24,0,0,0,3.16,1.49,3.79,3.79,0,0,1,2.28,2.48c.17.87-.14,1.87.36,2.6a2.27,2.27,0,0,0,2.21.67,8.66,8.66,0,0,1,2.41-.27c2,.31,2.75,1.54,4.6,0S148.6,65.18,150.33,66.15Z" style="fill:#3f3d56"/><circle cx="97.62" cy="84.77" r="10.02" transform="translate(-7.31 160.3) rotate(-76.72)" style="isolation:isolate;opacity:0.1"/><circle cx="98.01" cy="84.23" r="10.02" transform="translate(-6.48 160.26) rotate(-76.72)" style="fill:#fbbebe"/><path d="M105.68,74.43a26.75,26.75,0,0,0-7.93-4.16,9.69,9.69,0,0,0-5.67-.46c-2.52.72-5.89,1.79-7.45,3.9a11.35,11.35,0,0,0-1.91,3.34c-.74,2.49.31,5.14.24,7.74-.08,3-1.69,5.79-3.44,8.26s-2.11,6-3.14,8.86c-.36,1-.47,2.34.44,2.83s1.77-.11,2.51-.64l4.46-3.22a3.33,3.33,0,0,1,1.17-.63,3.41,3.41,0,0,1,2.59.9l9.35,6.61a2.87,2.87,0,0,0,0-2.43,9.35,9.35,0,0,1,2.29,1.53,1.89,1.89,0,0,0,2.5,0,1.75,1.75,0,0,0-.49-2.29c-.62-.59-1.44-.94-2-1.55-1.22-1.2-1.34-3.11-2.1-4.63a23.7,23.7,0,0,1-1.82-3.1c-.63-1.86.19-3.86,1-5.65,1-2.12,2-4.39,4.11-5.5.69-.37,1.45-.59,2.16-.93a11.77,11.77,0,0,0,4.83-4.63C108.12,77,107,75.42,105.68,74.43Z" style="fill:#3f3d56"/><path d="M90.52,107.53c1,.61,2,1,3,1.64a3.66,3.66,0,0,1,1.79,2.74,4.78,4.78,0,0,1-1.34,2.9l-8.13,10.67,4.15,1.1a10.87,10.87,0,0,0-1.19,3.18,3.42,3.42,0,0,1-2.11,2.49c-1,.26-2-.27-3.08-.21-.77.05-1.49.41-2.25.44a4.72,4.72,0,0,1-2.72-1c-1.83-1.22-3.65-3-3.64-5.18a8.21,8.21,0,0,1,.45-2.19c1.2-3.91,2.44-7.91,4.92-11.16a35.53,35.53,0,0,1,4.6-4.66,4.58,4.58,0,0,1,1.29-.89c1.07-.4,2.24.09,3.34.41s2.5.37,3.14-.57" style="isolation:isolate;opacity:0.1"/><path d="M90.17,106.88c1,.6,2,1,3,1.63a3.66,3.66,0,0,1,1.79,2.74,4.67,4.67,0,0,1-1.33,2.9l-8.14,10.67,4.15,1.1a10.81,10.81,0,0,0-1.19,3.17,3.4,3.4,0,0,1-2.11,2.49c-1,.26-2-.27-3.08-.21-.77,0-1.49.41-2.25.44a4.79,4.79,0,0,1-2.72-1c-1.83-1.22-3.65-3-3.63-5.18a7.82,7.82,0,0,1,.44-2.19c1.2-3.91,2.44-7.91,4.92-11.16a36.24,36.24,0,0,1,4.6-4.67,4.2,4.2,0,0,1,1.29-.89c1.07-.41,2.24.09,3.34.41s2.5.37,3.14-.58" style="fill:#ff8500"/><g style="opacity:0.1"><path d="M173.81,70.89a6.85,6.85,0,0,0,3.25,2.25,12.39,12.39,0,0,0,7.28.43c2.33-.57,4.77-1.8,7-.83a4.85,4.85,0,0,0,1.56.62,2.7,2.7,0,0,0,1.53-.51,7.84,7.84,0,0,0,3.19-3.49.9.9,0,0,0,0,.23c.11,2.28-1.61,4.27-3.55,5.47a2.58,2.58,0,0,1-1.53.51A4.88,4.88,0,0,1,191,75c-2.19-1-4.65.26-7,.82a12.47,12.47,0,0,1-7.28-.42,6.86,6.86,0,0,1-3.25-2.26,3.55,3.55,0,0,1-.4-3.77l.05-.08A4.13,4.13,0,0,0,173.81,70.89Z"/><path d="M174.25,65.31a2.29,2.29,0,0,1-.58,1.38c0-.11-.07-.22-.1-.33a2.55,2.55,0,0,1,.51-1.7A2,2,0,0,1,174.25,65.31Z"/></g><path d="M134.7,48.61l-2.87,8.21A22.37,22.37,0,0,0,135,58.31a3.84,3.84,0,0,1,2.28,2.48c.16.87-.15,1.87.36,2.6a2.25,2.25,0,0,0,2.21.67,8.55,8.55,0,0,1,2.4-.27c2,.31,2.75,1.54,4.6,0s2.53.29,4.25,1.25a7.3,7.3,0,0,0,5.21.39,7.15,7.15,0,0,0,2.74-1.15,3.26,3.26,0,0,0,.33-.31,3.62,3.62,0,0,1-1.12,1.39,7,7,0,0,1-2.74,1.16,7.4,7.4,0,0,1-5.21-.39c-1.72-1-2.43-2.73-4.24-1.25s-2.61.29-4.6,0a8.23,8.23,0,0,0-2.41.27,2.25,2.25,0,0,1-2.21-.67c-.51-.73-.2-1.73-.36-2.6a3.85,3.85,0,0,0-2.28-2.49,22.8,22.8,0,0,1-3.16-1.48l2.87-8.23a6.74,6.74,0,0,1,1.37-2.53A11.17,11.17,0,0,0,134.7,48.61Z" style="isolation:isolate;opacity:0.1"/><g style="opacity:0.1"><path d="M97.68,105.69a1.74,1.74,0,0,0,2.14-.24,1.81,1.81,0,0,0-.49-2.29c-.62-.59-1.44-.94-2-1.54-1.22-1.2-1.34-3.11-2.1-4.63a24.37,24.37,0,0,1-1.82-3.1c-.63-1.86.19-3.87,1-5.65,1-2.13,2.06-4.39,4.11-5.5.69-.38,1.45-.6,2.16-.94a11.75,11.75,0,0,0,4.83-4.62c.72-1.51-.3-3-1.52-4,.59.38,1.17.78,1.73,1.21,1.29,1,2.45,2.53,1.67,4.1a11.69,11.69,0,0,1-4.82,4.63c-.71.33-1.47.56-2.17.93-2,1.11-3.14,3.38-4.11,5.5-.81,1.79-1.63,3.79-1,5.65a26.29,26.29,0,0,0,1.82,3.11c.78,1.52.89,3.42,2.1,4.63.61.6,1.43,1,2.06,1.54a1.83,1.83,0,0,1,.49,2.29c-.52.68-1.74.54-2.51,0C98.69,106.5,98.21,106,97.68,105.69Z"/><path d="M77.44,102.73l4.45-3.22a3.54,3.54,0,0,1,1.18-.63,3.43,3.43,0,0,1,2.58.91L95,106.4A2.87,2.87,0,0,0,95,104a9,9,0,0,1,2.23,1.48,2.19,2.19,0,0,0-.33-.12,2.87,2.87,0,0,1,0,2.43l-9.35-6.61a3.38,3.38,0,0,0-2.58-.91,3.24,3.24,0,0,0-1.17.63l-4.46,3.22c-.74.54-1.71,1.09-2.51.65a1.48,1.48,0,0,1-.7-1.29A4.85,4.85,0,0,0,77.44,102.73Z"/></g><path d="M188.79,124.54s-19.13,1.53-22.94-1.18l17.5-2.7Z" style="fill:#e3e8f4"/><path d="M188.79,124.54s-19.13,1.53-22.94-1.18l17.5-2.7Z" style="isolation:isolate;opacity:0.1"/><path d="M188.79,124.54l-5.36-3.4s-16,4.6-20.37,2.7l4.46-6.25,15.84,3.09Z" style="fill:#e3e8f4"/><path d="M165,79.56A9.19,9.19,0,0,0,163.61,82c-.15.47-.23,1-.36,1.44a11.16,11.16,0,0,1-1.67,3.3c-1.65,2.4-3.7,4.71-4.12,7.58a12.83,12.83,0,0,0,.3,4.27,11.89,11.89,0,0,0,.79,2.69c.43.92,1.06,1.72,1.54,2.61a18.73,18.73,0,0,1,1.12,2.7,13.9,13.9,0,0,0,1.36-2,2.58,2.58,0,0,1,1.94-1.28c.93,0,1.7.77,2.62.89a.67.67,0,0,0,.42,0c.34-.16.36-.61.34-1-.27-2.52-1.71-5-1-7.45.63-2.26,2.87-3.67,4-5.7a13,13,0,0,0,1.34-4.9,30.26,30.26,0,0,0,.44-6.08c-.06-1-.88-7.51-2.37-6.83-.51.24-1,1.23-1.29,1.67l-1.33,1.89Z" style="fill:#3f3d56"/><polygon points="125.06 121.34 114.32 130.09 100.5 127.61 109.8 120.31 125.06 121.34" style="fill:#e3e8f4"/><polygon points="125.44 120.8 114.7 129.54 100.89 127.07 110.19 119.77 125.44 120.8" style="isolation:isolate;opacity:0.1"/><polygon points="125.37 120.33 114.63 129.07 100.81 126.61 110.11 119.3 125.37 120.33" style="fill:#e3e8f4"/><polygon points="125.68 119.32 114.93 128.06 101.12 125.59 110.42 118.29 125.68 119.32" style="isolation:isolate;opacity:0.1"/><polygon points="125.6 118.86 114.86 127.6 101.04 125.13 110.34 117.83 125.6 118.86" style="fill:#e3e8f4"/><path d="M266.87,238.33h0a1.74,1.74,0,0,1,2.32.8,1.84,1.84,0,0,1,.17.62l.59,7.75-3.54.64-1.87-5.61Z" style="fill:#3f3d56"/><path d="M142.83,186.39,88.57,213.93A3.77,3.77,0,0,0,86.92,219a3.85,3.85,0,0,0,1.68,1.66l116.86,58.64a14.18,14.18,0,0,0,13.33-.33L268,251.22a3.77,3.77,0,0,0,1.4-5.15,3.69,3.69,0,0,0-1.63-1.52l-121.62-58.2A3.8,3.8,0,0,0,142.83,186.39Z" style="fill:#3f3d56"/><path d="M88.21,209.14l-1.7,1.26-.14,6a2.52,2.52,0,0,0,1.36,2.29l118.87,61A1.77,1.77,0,0,0,209,279a1.73,1.73,0,0,0,.2-.81v-8.77Z" style="fill:#3f3d56"/><path d="M142.83,179.39,88.57,206.92A3.78,3.78,0,0,0,86.91,212a3.85,3.85,0,0,0,1.68,1.66l116.87,58.65a14.21,14.21,0,0,0,13.33-.34L268,244.21a3.77,3.77,0,0,0,1.4-5.15,3.69,3.69,0,0,0-1.63-1.52L146.17,179.35A3.77,3.77,0,0,0,142.83,179.39Z" style="fill:#e3e8f4"/><polygon points="154.06 184.38 94.28 214.74 197.03 266.12 258.69 234.82 154.06 184.38" style="fill:#3f3d56"/><path d="M234.63,249.31c3.49,0,6.31,1.67,6.31,3.73s-2.82,3.74-6.31,3.74-6.3-1.67-6.3-3.74S231.15,249.31,234.63,249.31Z" style="fill:#3f3d56"/><path d="M119.61,193.49a.59.59,0,1,1-.58.58A.58.58,0,0,1,119.61,193.49Z" style="fill:#3f3d56"/><path d="M117.87,197.93a.7.7,0,1,1-.71.7A.7.7,0,0,1,117.87,197.93Z" style="fill:#3f3d56"/><line x1="120.43" y1="197.46" x2="127.44" y2="194.19" style="fill:none;stroke:#3f3d56;stroke-miterlimit:10;stroke-width:0.33385436354577536px"/><path d="M60.31,63.07A8.67,8.67,0,1,1,60,60.88" style="fill:none;stroke:#000;stroke-linecap:round;stroke-linejoin:round;stroke-width:0.8302166737836598px"/><path d="M130.05,303.54a8.68,8.68,0,1,1-.28-2.19" style="fill:none;stroke:#000;stroke-linecap:round;stroke-linejoin:round;stroke-width:0.8302166737836598px"/></svg>