<svg width="251" height="143" viewBox="0 0 251 143" fill="none" xmlns="http://www.w3.org/2000/svg">
<path d="M184.821 117.038C184.55 116.145 184.543 115.201 184.179 114.328C184.107 114.164 184.15 113.978 184.136 113.799C184.214 112.755 184.029 111.29 183.779 110.181C183.743 108.465 183.907 106.735 183.693 105.012C183.586 103.711 183.557 102.409 183.493 101.101C183.471 99.3206 183.779 97.5617 183.714 95.7885C183.686 92.2421 183.993 88.7029 183.764 85.1493C183.75 84.5201 183.693 83.8981 183.664 83.2689C183.986 82.3894 183.921 81.4242 184.071 80.509C184.129 79.651 184.057 78.7858 184.157 77.9207C184.3 77.0198 184.564 76.126 184.514 75.2108C185.793 73.9596 184.55 72.9085 184.679 71.4714C185.25 70.3631 184.493 69.0761 183.421 68.6257C183.029 68.3611 182.664 68.0608 182.186 67.9464C180.65 67.4245 178.921 68.4612 179.686 70.1701C179.721 70.2416 179.757 70.3059 179.8 70.3631C179.8 70.4275 179.807 70.4918 179.807 70.5562V70.5705C178.914 71.8718 178.864 73.5449 178.729 75.075C178.364 77.6275 178.507 80.3588 178.679 82.9471C178.821 85.5354 178.936 88.1237 179.007 90.7192C177.557 90.4546 176.071 91.5343 175.836 92.9857C175.693 94.6302 175.95 96.2747 176.2 97.8906C176.093 100.958 176.071 104.025 176.121 107.086C174.25 106.478 172.243 106.056 170.321 106.657C167.307 107.472 165.186 109.231 162.9 111.24C162.129 111.847 161.336 112.434 160.514 112.984C159.514 113.556 158.993 114.093 157.764 113.899C155.271 113.778 152.686 113.721 150.321 114.657C148.85 114.872 147.393 115.165 145.936 115.472C144.429 115.837 142.843 115.937 141.386 116.495C140.107 116.059 138.821 115.601 137.593 115.029C136.971 114.636 136.621 113.892 135.864 113.706C134.636 113.299 133.521 114.121 133.193 115.215C133.164 115.186 133.143 115.158 133.114 115.129C132.943 114.965 132.779 114.8 132.621 114.614C132.514 114.479 132.407 114.343 132.293 114.221C132.2 114.128 132.107 114.035 131.986 113.978C131.871 113.921 131.757 113.907 131.629 113.914C131.314 113.928 131.021 114.221 131.021 114.543C131.021 114.6 131.021 114.657 131.036 114.715C131.036 114.715 131.036 114.729 131.036 114.736C131.05 114.786 131.064 114.836 131.093 114.886C131.107 114.915 131.129 114.943 131.143 114.972C131.186 115.043 131.236 115.108 131.286 115.179C131.357 115.279 131.421 115.387 131.486 115.487C131.564 115.623 131.643 115.758 131.714 115.894C131.8 116.052 131.9 116.202 131.993 116.352C132.143 116.609 132.264 116.888 132.421 117.146C132.529 117.317 132.636 117.482 132.764 117.632C132.829 117.71 132.9 117.768 132.979 117.825C133.014 117.889 133.05 117.946 133.079 118.011C133.164 118.168 133.236 118.332 133.307 118.49C133.479 118.89 133.621 119.298 133.8 119.691C133.971 120.091 134.164 120.47 134.379 120.856C134.593 121.243 134.836 121.607 135.093 121.965C135.307 122.265 135.543 122.551 135.743 122.866C135.914 123.159 136.079 123.459 136.264 123.745C136.343 123.867 136.429 123.981 136.521 124.095C136.521 124.095 136.571 124.16 136.6 124.195C136.664 124.267 136.8 124.403 136.993 124.489C137.086 124.532 137.179 124.56 137.279 124.574C137.514 124.617 137.764 124.589 137.971 124.481C138.014 124.481 138.064 124.481 138.107 124.474C138.15 124.474 138.193 124.474 138.229 124.481C138.336 124.496 138.443 124.517 138.55 124.532C138.671 124.546 138.786 124.56 138.907 124.567C139.164 124.603 139.429 124.653 139.686 124.703C140.05 124.767 140.429 124.775 140.807 124.81C141.621 124.882 142.429 124.739 143.236 124.61C143.629 124.71 144.007 124.76 144.414 124.739C144.721 124.725 145.021 124.675 145.321 124.61C146.143 124.682 146.979 124.71 147.8 124.61C148.293 124.546 148.764 124.417 149.25 124.331C149.693 124.26 150.129 124.181 150.571 124.117C151.3 124.017 152.043 123.974 152.779 123.952C153.421 123.945 154.064 123.952 154.714 123.952C155.071 123.952 155.429 123.952 155.786 123.938C156.129 123.917 156.464 123.888 156.807 123.881C157.107 123.881 157.4 123.902 157.7 123.909C158 123.924 158.3 123.938 158.6 123.952C158.929 123.967 159.264 123.981 159.593 123.981C159.921 123.981 160.243 123.96 160.571 123.952C160.736 123.952 160.907 123.952 161.071 123.945C161.257 123.945 161.579 123.945 161.893 123.931C162.186 123.931 162.471 123.945 162.764 123.945C163.057 123.945 163.343 123.931 163.636 123.931C163.871 123.931 164.107 123.924 164.343 123.909C164.536 123.895 164.736 123.881 164.929 123.881C165.364 123.881 165.8 123.902 166.236 123.909C166.493 123.909 166.75 123.909 167.007 123.909C167.171 123.909 167.336 123.888 167.507 123.881C167.793 123.881 168.079 123.881 168.371 123.881C168.664 123.881 168.957 123.867 169.243 123.852C169.407 123.852 169.571 123.852 169.729 123.867C169.95 123.888 170.179 123.909 170.4 123.917C170.671 123.917 170.95 123.917 171.221 123.895C171.507 123.881 171.779 123.838 172.057 123.795C172.057 123.795 172.086 123.795 172.114 123.788C172.15 123.788 172.207 123.774 172.264 123.766C172.664 123.709 173.064 123.688 173.457 123.631C173.707 123.595 173.957 123.545 174.2 123.488C174.429 123.438 174.65 123.373 174.871 123.309C175.179 123.223 175.493 123.144 175.807 123.087C176.064 123.037 176.314 122.973 176.571 122.93C176.743 122.908 176.921 122.887 177.1 122.88C177.414 122.88 177.721 122.88 178.036 122.858C178.35 122.83 178.664 122.794 178.979 122.73C179.25 122.68 179.521 122.615 179.793 122.544C179.957 122.501 180.114 122.444 180.271 122.372C180.343 122.336 180.414 122.301 180.486 122.265C180.771 122.143 181.064 122.05 181.357 121.965C181.393 121.958 181.429 121.95 181.464 121.943C181.6 121.922 181.736 121.9 181.871 121.879C182.036 121.879 182.207 121.857 182.336 121.822C182.779 122.222 183.421 121.993 183.864 121.714C184.343 121.564 184.943 121.514 185.15 120.971C185.336 120.342 185.271 119.784 185.343 119.119C185.436 118.368 185.014 117.703 184.793 117.017L184.821 117.038ZM173.007 111.611C174.15 111.805 175.343 111.969 176.193 112.827C176.214 113.149 176.236 113.47 176.25 113.799C176.25 113.828 176.25 113.864 176.25 113.892C174.736 114.379 173.086 114.2 171.514 114.307C169.986 114.328 168.457 114.307 166.936 114.264C168.771 113.084 170.757 111.647 173.014 111.611H173.007Z" fill="white"/>
<path d="M183.771 120.935C183.293 121.064 182.664 120.313 181.543 118.976C179.907 117.031 180.014 117.174 179.829 116.938C179.343 116.323 178.914 115.658 178.35 115.108C178.043 114.815 177.7 114.55 177.414 114.243C177.271 114.128 177.243 113.907 177.393 113.771C177.686 113.528 177.871 113.871 178.071 114.007C178.507 114.307 178.529 114.278 179.286 114.965C179.721 115.365 179.814 115.537 180.536 116.395C181.057 117.01 181.35 117.36 181.757 117.782C182.464 118.518 183 118.962 183.664 119.87C183.843 120.12 184.157 120.528 184.021 120.778C183.957 120.899 183.807 120.942 183.771 120.949V120.935Z" fill="#2A9CC8"/>
<path d="M183.929 120.556C183.636 118.64 183.9 114.929 183.736 112.999C183.672 111.604 183.593 110.203 183.529 108.809C183.472 106.857 183.45 104.905 183.343 102.953C183.129 98.8058 183.486 94.666 183.5 90.519C183.636 87.4373 183.593 84.3485 183.679 81.2597C183.729 80.2587 183.772 79.2649 183.814 78.2639C183.886 76.8339 184.114 75.4039 184.272 73.9882C184.414 72.7441 184.522 71.4928 184.486 70.2416C184.464 70.1057 184.514 69.977 184.664 69.9627C184.786 69.9484 184.872 70.0485 184.879 70.1486C184.957 71.1353 185.036 72.122 184.993 73.1159C184.964 74.6889 184.807 76.2547 184.764 77.8277C184.757 80.4017 184.679 82.9686 184.707 85.5426C184.722 88.0951 184.629 90.6477 184.707 93.1931C184.693 95.7599 184.614 98.4054 184.672 100.951C184.85 106.127 184.922 111.168 185.179 116.323C185.207 117.117 185.157 119.662 185.129 120.456C185.093 121.135 184.093 121.257 183.929 120.563V120.556Z" fill="#2A9CC8"/>
<path d="M132.636 118.561C132.129 117.882 131.829 117.06 131.393 116.331C131.264 116.123 131.122 115.93 130.972 115.737C130.922 115.687 130.893 115.608 130.907 115.544C130.936 115.351 131.222 115.301 131.307 115.48C132.057 116.259 132.6 117.203 133.243 118.068C133.522 118.468 132.964 118.919 132.629 118.568L132.636 118.561Z" fill="#2A9CC8"/>
<path d="M134.343 119.398C133.936 119.312 133.543 119.19 133.136 119.133C132.993 119.126 132.843 119.126 132.743 119.005C132.514 118.769 132.707 118.347 133.036 118.368C133.772 118.333 134.486 118.554 135.214 118.626C135.6 118.661 135.986 118.654 136.372 118.669C137.607 118.704 138.843 118.797 140.086 118.797C141.422 118.769 142.729 118.697 144.043 118.654C145.622 118.583 147.2 118.726 148.772 118.854C149.893 118.969 151 119.191 152.129 119.219C153.55 119.305 155 119.362 156.414 119.362C157.986 119.312 159.55 119.198 161.114 119.298C161.914 119.319 162.722 119.341 163.514 119.434C163.636 119.448 163.736 119.541 163.729 119.67C163.729 119.798 163.614 119.884 163.493 119.884C161.843 119.92 160.2 119.827 158.55 119.834C157.029 119.913 155.457 120.048 153.95 120.07C151.279 120.163 148.629 119.72 145.964 119.712C143.757 119.684 141.507 119.92 139.314 119.82C138.479 119.791 137.65 119.712 136.814 119.655C135.979 119.612 135.136 119.605 134.322 119.391L134.343 119.398Z" fill="#2A9CC8"/>
<path d="M135.536 122.937C135.086 122.765 134.886 122.294 134.664 121.907C134.379 121.443 134.121 120.906 133.907 120.42C133.764 120.106 133.621 119.791 133.457 119.491C133.357 119.276 132.836 118.583 133.207 118.518C133.586 118.719 133.843 119.176 134.093 119.527C134.457 120.134 134.786 120.763 135.207 121.335C135.457 121.621 135.629 122.172 136.05 122.201C136.5 122.258 136.943 122.179 137.379 122.086C137.964 121.972 138.564 121.936 139.164 121.922C141.05 121.9 142.929 121.607 144.814 121.686C145.579 121.722 146.336 121.714 147.1 121.779C147.836 121.85 148.571 121.936 149.314 121.943C151.221 122 153.136 121.993 155.043 121.907C156.514 121.843 157.979 121.65 159.457 121.621C161.45 121.586 163.45 121.664 165.436 121.471C166.671 121.386 167.907 121.278 169.143 121.2C169.25 121.192 169.35 121.271 169.364 121.386C169.371 121.5 169.293 121.593 169.179 121.607C168.379 121.7 167.586 121.786 166.793 121.886C165.279 122.072 163.757 122.236 162.236 122.208C160.336 122.179 158.436 122.236 156.543 122.422C154.007 122.608 151.464 122.608 148.929 122.494C148.343 122.465 147.707 122.365 147.129 122.294C146.05 122.222 144.979 122.122 143.9 122.065C142.107 122.186 140.321 122.444 138.529 122.594C137.543 122.73 136.536 123.259 135.536 122.93V122.937Z" fill="#2A9CC8"/>
<path d="M165.128 119.269C164.864 118.976 165.236 118.554 165.557 118.762C166.543 118.654 167.493 118.404 168.436 118.275C169.2 118.147 170.078 118.175 170.821 118.161C171.728 118.139 172.636 118.018 173.507 117.768C174.107 117.625 174.378 118.526 173.8 118.733C172.214 119.298 170.521 119.026 168.878 119.012C168.007 119.033 167.15 119.133 166.286 119.241C166.036 119.269 165.778 119.298 165.528 119.319C165.393 119.384 165.236 119.362 165.128 119.248V119.269Z" fill="#2A9CC8"/>
<path d="M137.936 125.368C137.471 125.289 137.021 125.089 136.679 124.76C136.293 124.274 135.993 123.724 135.629 123.216C135.357 122.88 135.586 122.601 135.964 122.908C136.421 123.28 136.821 123.716 137.243 124.117C137.9 124.539 138.736 124.481 139.486 124.517C141.079 124.517 142.671 124.61 144.257 124.482C147.157 124.424 150.014 123.895 152.907 123.731C155.714 123.573 158.543 123.616 161.336 123.552C162.707 123.552 164.086 123.481 165.457 123.552C167.357 123.595 169.257 123.695 171.157 123.559C173.643 123.287 176.129 122.916 178.586 122.458C179.671 122.229 180.793 122.179 181.857 121.829C182.221 121.714 182.571 121.579 182.929 121.436C183.093 121.371 183.279 121.464 183.343 121.622C183.407 121.793 183.314 121.972 183.15 122.036C181.714 122.68 180.129 122.758 178.607 123.08C177.086 123.423 175.536 123.659 173.993 123.888C172.614 124.117 171.236 124.339 169.836 124.381C167.414 124.389 164.986 124.288 162.564 124.374C159.543 124.467 156.55 124.503 153.536 124.667C150.321 124.975 147.107 125.218 143.886 125.361C142.893 125.44 141.893 125.432 140.893 125.44C139.914 125.461 138.921 125.575 137.95 125.375L137.936 125.368Z" fill="#2A9CC8"/>
<path d="M172.879 121.285C172.821 121.243 172.829 121.164 172.879 121.135C173.243 120.921 173.693 120.835 174.086 120.713C174.779 120.499 175.471 120.256 176.171 120.07C177.429 119.705 178.736 119.569 180.021 119.391C180.329 119.341 180.557 119.298 180.757 119.255C181.25 119.148 181.564 118.962 181.886 118.983C181.957 118.983 182.057 118.997 182.207 118.976C182.364 118.947 182.407 118.904 182.479 118.919C182.621 118.947 182.736 119.148 182.736 119.262C182.736 119.448 182.429 119.755 180.579 120.149C178.457 120.599 178.5 120.284 177.079 120.649C175.779 120.985 175.143 121.4 173.786 121.371C173.407 121.364 173.093 121.321 172.886 121.285H172.879Z" fill="#2A9CC8"/>
<path d="M179.443 115.909C179.443 115.909 179.443 115.866 179.443 115.844C179.15 115.465 179.407 112.991 179.443 112.448C179.55 111.519 179.55 110.582 179.629 109.652C179.771 108.137 180.036 106.585 180.186 105.091C180.35 103.396 180.136 101.723 180.107 100.036C180.107 99.1061 180.221 98.1766 180.243 97.2543C180.243 95.9101 180.179 94.5873 180.243 93.2503C180.257 92.9929 180.657 92.9929 180.65 93.2717C180.593 94.7303 180.679 96.1961 180.621 97.6618C180.579 98.2624 180.55 98.863 180.55 99.4636C180.614 100.629 180.814 101.787 180.814 102.953C180.814 104.576 180.593 106.192 180.457 107.815C180.236 109.445 180.314 111.104 180.129 112.734C180.021 113.392 180.029 114.915 179.793 115.544C179.743 115.666 179.707 115.801 179.593 115.88C179.593 115.93 179.586 115.987 179.521 115.994C179.486 115.994 179.443 115.966 179.443 115.93V115.909Z" fill="#2A9CC8"/>
<path d="M181.357 118.218C181.307 118.161 181.286 118.089 181.286 118.011C181.264 117.539 181.371 115.029 181.45 114.557C181.571 113.706 181.693 112.827 181.771 111.99C181.943 110.11 181.943 108.222 182.043 106.342C182.043 105.284 182.221 104.24 182.2 103.189C182.114 100.701 181.864 98.2267 181.807 95.7385C181.936 92.8642 181.964 89.9899 182.2 87.1228C182.236 86.7724 182.271 86.4221 182.271 86.086C182.271 85.9573 182.257 85.8286 182.243 85.6999C182.243 85.6427 182.286 85.5855 182.343 85.5784C182.4 85.5784 182.457 85.6213 182.464 85.6785C182.493 85.9931 182.507 86.3077 182.521 86.6223C182.664 88.7744 182.757 90.9409 182.714 93.093C182.7 95.1451 182.8 97.1971 182.714 99.2492C182.614 100.336 182.729 101.416 182.707 102.502C182.65 103.461 182.593 104.419 182.643 105.377C182.607 106.321 182.571 107.264 182.493 108.201C182.336 110.103 182.114 111.99 181.986 113.892C182 114.493 181.857 117.131 181.857 117.732C181.857 117.832 181.857 117.939 181.857 118.039C181.857 118.282 181.521 118.404 181.364 118.218H181.357Z" fill="#2A9CC8"/>
<path opacity="0.2" d="M42.0571 67.8893C38.8286 85.5855 46.6429 106.099 54.5929 116.595C69.0286 135.664 90.35 130.223 115.271 123.852C143.821 116.566 139.921 107.014 170.979 99.2563C184.007 96.0031 193.8 95.4168 197.979 84.5202C202.729 72.1507 197.529 53.5893 193.829 45.1523C169.471 -10.3389 52.1571 12.4911 42.0571 67.875V67.8893Z" fill="#39B3E2"/>
<path d="M183.957 70.4775C183.329 70.2416 182.793 69.834 182.271 69.4265C181.593 68.9403 180.85 68.547 180.2 68.0322C180.043 67.8964 179.864 67.7605 179.771 67.5746C179.679 67.3387 179.864 67.0956 180.107 67.0884C180.443 67.0884 180.764 67.2672 181.079 67.3673C182.379 67.7534 183.5 68.5256 184.664 69.2048C185.414 69.7053 184.793 70.8493 183.957 70.4847V70.4775Z" fill="#2A9CC8"/>
<path d="M147.393 81.2169C147.45 80.888 147.771 80.6735 148.1 80.7307C148.15 80.7378 148.207 80.7593 148.25 80.7807C148.25 80.7807 148.243 80.7879 148.236 80.795C148.05 81.0024 147.893 81.224 147.75 81.4743C147.693 81.5815 147.643 81.6888 147.6 81.8032C147.436 81.6673 147.343 81.4457 147.386 81.224L147.393 81.2169Z" fill="black"/>
<path d="M163.143 37.323C161.707 36.894 161.078 35.2495 160.986 33.8767C161.014 31.5673 163.636 29.6725 165.836 30.4233C168.064 31.0525 168.128 33.3834 167.464 35.2281C166.807 36.7868 164.771 37.7735 163.15 37.323H163.143Z" fill="#FFA348"/>
<path d="M140.429 66.4163C140.321 66.1947 140.429 65.9301 140.486 65.7013C140.686 65.0292 140.886 64.35 141.064 63.6707C141.307 62.7412 141.557 61.8046 141.943 60.9251C142.536 59.4737 143.364 58.1366 144.079 56.7495C145.136 54.3328 146.186 51.9161 147.421 49.5852C148.671 47.0112 149.971 44.4515 151.343 41.9419C153.186 38.5099 155.129 35.1422 157.207 31.8461C158.179 30.1158 159.4 28.5428 160.707 27.0484C161.329 26.3334 161.957 25.6041 162.743 25.075C163.471 24.6103 164.393 24.6532 165.229 24.6961C166.343 24.7175 167.029 24.8605 167.879 25.6256C168.75 26.4693 169.329 27.5775 169.793 28.6786C170.343 30.0157 170.571 31.4528 170.943 32.8471C171.479 34.7704 172.014 36.6938 172.343 38.6743C173.136 43.2432 174.243 47.7405 175.164 52.2736C175.771 55.0335 176.721 57.7005 177.379 60.4461C177.907 62.3337 178.114 64.2928 178.55 66.209C178.636 66.7667 177.829 67.0384 177.586 66.4878C176.807 64.6503 176.529 62.6697 176.086 60.7392C175.729 58.5513 175.014 56.3134 174.521 54.1755C174.193 52.8027 173.886 51.2941 173.607 49.9427C172.979 47.1685 172.321 44.4658 171.779 41.6988C171.45 39.9756 171.179 38.231 170.814 36.515C170.443 34.9206 169.95 33.2761 169.629 31.6888C169.329 30.2731 168.936 28.886 168.171 27.6419C167.657 26.8053 166.957 25.8115 165.879 25.79C163.579 25.7114 163.486 25.7543 161.936 27.4488C161.2 28.2496 160.514 29.0719 159.836 29.9227C158.9 31.1025 158.164 32.4252 157.35 33.6908C154.186 38.6815 151.4 43.9582 148.864 49.2921C148.107 50.8722 147.257 52.4095 146.486 53.9825C145.857 55.2838 145.329 56.6423 144.621 57.9007C143.707 59.488 142.714 61.0538 142.121 62.7984C141.821 63.7351 141.564 64.6789 141.221 65.6012C141.093 65.9015 141.036 66.2519 140.814 66.495C140.693 66.5951 140.507 66.5522 140.429 66.4235V66.4163Z" fill="#858FA9"/>
<path d="M149.064 79.6439C148.922 79.5581 149.107 79.4008 149.15 79.3078C149.279 79.1648 149.3 78.9718 149.379 78.8073C149.414 78.7358 149.407 78.5857 149.522 78.6071C149.557 78.6214 149.586 78.6643 149.572 78.7001C149.464 79.0147 149.343 79.3078 149.193 79.601C149.172 79.651 149.114 79.6653 149.072 79.6439H149.064Z" fill="black"/>
<path d="M169.743 114.607C168.9 114.214 168.657 113.049 169.186 112.312C169.5 111.855 170.05 111.604 170.579 111.497C171.071 111.111 171.493 110.646 171.9 110.174C172.971 108.937 173.343 107.336 173.657 105.77C173.929 104.333 174.15 102.881 174.336 101.437C174.393 100.958 174.443 100.479 174.486 99.9999C174.543 99.478 174.507 98.9203 174.75 98.4341C175.05 97.8549 175.736 97.5189 176.379 97.6833C176.486 95.9101 176.521 94.1298 176.736 92.3709C176.914 91.234 177.107 90.0972 177.214 88.9532C177.429 87.5446 177.386 86.0932 177.729 84.7061C177.914 84.0483 178.093 83.3833 178.2 82.7041C178.343 81.9247 178.657 81.1954 178.786 80.4089C178.829 80.1229 178.829 79.7726 179.093 79.5795C179.214 79.4937 179.4 79.5152 179.507 79.6153C179.621 79.7154 179.643 79.8727 179.593 80.0014C179.621 80.6163 179.493 81.2312 179.457 81.8461C179.493 83.2046 179.429 84.5702 179.471 85.9216C179.507 86.6509 179.521 87.3873 179.493 88.1238C179.421 89.5466 179.257 90.9695 179.143 92.3923C178.979 94.4301 178.907 96.475 178.829 98.5127C178.921 102.131 178.043 105.67 177.857 109.266C177.807 110.046 177.75 110.825 177.714 111.604C177.686 112.491 177.914 113.506 177.207 114.186C176.7 114.757 175.929 114.779 175.214 114.772C173.929 114.993 172.614 115.044 171.314 114.901C170.714 114.836 170.271 114.843 169.743 114.615V114.607Z" fill="#858FA9"/>
<path d="M172.393 114.321C172.236 114.293 172.114 114.128 172.15 113.971C172.372 113.027 172.593 112.091 172.772 111.132C173.479 107.486 174.5 103.904 175.164 100.25C175.857 96.7538 176.529 93.2503 176.993 89.7111C177.307 87.7234 177.657 85.7357 177.879 83.7337C178.307 80.5376 178.736 77.3487 179.107 74.1455C179.264 72.8156 179.472 71.4929 179.529 70.1487C179.543 69.305 179.636 68.447 179.493 67.6104C179.4 67.5032 179.407 67.3244 179.536 67.2315C179.707 67.1099 179.957 67.2458 179.95 67.446C180.164 68.354 180.064 69.3121 180.079 70.2416C179.914 75.0393 179.207 79.794 178.636 84.5416C177.922 89.5681 177.207 94.6088 176.2 99.5852C175.593 103.067 174.714 106.499 173.943 109.946C173.643 111.361 173.3 112.77 172.743 114.107C172.693 114.25 172.557 114.343 172.4 114.314L172.393 114.321Z" fill="white"/>
<path d="M127.143 114.622C126.686 113.37 128.05 112.562 128.579 111.59C129.457 110.317 129.236 108.623 130.107 107.372C130.25 107.221 130.457 107.143 130.672 107.157C130.736 106.907 130.772 106.685 130.857 106.449C131.086 105.97 131.843 106.027 131.979 106.549C132.472 106.328 133.022 106.22 133.55 106.092C135.286 105.698 137.129 106.328 138.822 105.641C140.086 105.091 141.3 104.433 142.55 103.847C144.486 102.896 146.586 102.352 148.507 101.373C152.386 99.049 156.436 96.8968 159.7 93.7222C162.35 90.9909 164.736 88.0165 167.2 85.1208C168.4 83.7408 169.443 80.9881 171.7 81.7388C172.272 80.2159 172.757 78.6643 173.264 77.1271C173.55 76.2047 173.95 74.7318 175.207 75.0393C175.164 73.452 175.064 71.4071 176.464 70.356C176.786 69.3979 177.764 68.304 178.85 68.8831C180.257 69.7769 179.664 71.7646 179.557 73.1445C179.336 74.7533 179.257 76.2834 178.829 77.8135C179.414 78.3569 179.343 79.1863 179.129 79.8941C178.772 81.7388 178.243 83.5263 177.707 85.321C177.379 87.4159 177.136 89.5252 176.8 91.613C176.264 94.2084 175.893 96.8253 175.479 99.4494C175.2 101.752 174.907 104.075 173.986 106.228C173.786 106.9 173.822 107.6 173.722 108.287C173.379 110.325 172.986 111.94 172.436 113.857C172.072 114.943 170.836 115.508 169.772 115.222C168.822 115.222 167.85 115.301 166.907 115.487C164.964 115.759 161.807 117.718 160.2 116.123C159.029 116.481 157.836 116.81 156.6 116.638C155.657 116.695 154.714 116.781 153.779 116.595C152.786 116.738 151.7 117.117 150.786 116.495C147.314 116.838 143.822 116.545 140.343 116.495C138.172 116.238 135.964 116.524 133.836 115.987C132.993 116.109 132.086 116.045 131.464 115.394C130.636 115.48 129.822 115.372 129 115.229C128.279 115.294 127.5 115.422 127.143 114.6V114.622Z" fill="white"/>
<path d="M129.864 115.787C128.757 115.537 127.607 115.372 126.528 115.029C126.271 114.958 126.021 114.893 125.771 114.865C125.743 114.865 125.714 114.836 125.7 114.808C125.593 114.393 127.071 114.772 127.307 114.772C127.971 114.858 128.643 114.922 129.3 115.036C130.121 115.244 130.964 115.272 131.8 115.272C131.957 115.272 132.086 115.415 132.093 115.565C132.093 115.98 131.643 115.894 131.364 115.894C130.857 115.894 130.364 115.894 129.864 115.787Z" fill="#2A9CC8"/>
<path d="M126.786 115.029C126.371 114.815 126.714 114.421 126.829 114.128C127 113.721 127.171 113.306 127.357 112.906C127.886 111.819 128.3 110.675 128.864 109.61C129.114 109.08 129.314 108.53 129.536 107.994C129.571 107.908 129.607 107.801 129.686 107.751C129.993 107.608 130.014 107.994 129.971 108.201C129.907 108.644 129.829 109.088 129.721 109.531C129.564 110.117 129.293 110.668 129.079 111.233C128.75 112.083 128.357 112.906 127.929 113.721C127.743 114.085 127.55 114.45 127.3 114.779C127.193 114.965 127 115.144 126.771 115.036L126.786 115.029Z" fill="#2A9CC8"/>
<path d="M102.157 104.998C101.764 104.912 101.371 104.833 100.978 104.755C100.721 104.705 100.45 104.669 100.186 104.633C99.3285 104.512 98.4642 104.39 97.7356 103.911C97.0071 103.439 96.5213 102.653 96.4428 101.78C96.3499 100.772 96.8071 99.7711 97.6356 99.1848C97.7356 99.1133 97.8428 99.049 97.9428 98.9918C98.5928 98.6343 99.3428 98.5485 100.078 98.5127C100.586 98.4913 101.1 98.477 101.607 98.5127C102.007 98.5342 102.407 98.5699 102.814 98.6128C103.15 98.6486 103.486 98.6843 103.814 98.7344C104.036 98.7701 104.257 98.8345 104.471 98.8917C104.928 99.0204 105.321 99.2706 105.693 99.5566C105.743 99.5924 105.786 99.6281 105.828 99.671C105.757 99.192 105.807 98.6843 105.957 98.2267C106.171 97.5475 106.607 96.9898 107.171 96.5679C108.086 95.8887 109.228 95.8386 110.328 95.8529C110.907 95.8529 111.493 95.9101 112.071 95.953C112.121 95.953 112.171 95.953 112.228 95.9602C112.3 95.9387 112.378 95.9244 112.457 95.903C112.764 95.0164 113.421 94.3085 114.093 93.6579C114.371 93.3862 114.664 93.1359 114.964 92.8857C115.593 92.3709 116.228 91.8418 116.85 91.3127C118.021 90.2974 119.243 89.3464 120.386 88.3025C120.95 87.7877 121.514 87.2729 122.1 86.7867C122.7 86.2791 123.3 85.7714 123.864 85.228C124.428 84.6703 124.971 84.0912 125.543 83.5406C126.078 83.0187 126.643 82.5253 127.193 82.0177C127.757 81.4886 128.314 80.9523 128.907 80.4518C129.557 79.9013 130.25 79.4008 130.914 78.8717C131.5 78.4069 132.093 77.935 132.7 77.4989C133.307 77.0627 133.914 76.6266 134.5 76.1618C134.7 76.0045 134.9 75.8401 135.1 75.6828C135.578 75.2967 136.05 74.9034 136.536 74.5245C136.907 74.2385 137.278 73.9525 137.65 73.6593C137.75 73.5735 137.85 73.4949 137.943 73.4091C137.8 73.309 137.664 73.1874 137.557 73.0587C137.471 72.9586 137.407 72.8585 137.328 72.7513C137.1 72.6011 136.914 72.4152 136.778 72.165C136.643 71.9147 136.586 71.6287 136.607 71.3427H136.5C136.414 71.3427 136.328 71.3427 136.25 71.3427C136 71.3141 135.757 71.2784 135.528 71.1711C135.164 70.9995 134.807 70.6563 134.693 70.2559C134.593 69.927 134.564 69.6053 134.65 69.2907C134.578 69.2335 134.521 69.1763 134.457 69.1048C134.386 69.019 134.321 68.9332 134.271 68.8402C134 68.8688 133.736 68.8116 133.528 68.6186C133.436 68.5328 133.336 68.4398 133.278 68.3183C133.15 68.0537 133.15 67.7463 133.321 67.5032C133.55 67.1671 134.007 67.0527 134.357 67.2815C134.457 67.3459 134.536 67.4317 134.593 67.5318C134.607 67.5318 134.621 67.5461 134.636 67.5532C134.707 67.5175 134.786 67.496 134.864 67.4817C134.886 67.4817 134.914 67.4674 134.936 67.4603C134.95 67.4603 134.971 67.4531 134.971 67.4531C134.971 67.4531 134.986 67.4531 134.993 67.4531C135.157 67.4102 135.321 67.3816 135.493 67.3602C135.55 67.353 135.614 67.3387 135.671 67.3244C135.721 67.3101 135.771 67.2958 135.828 67.2744C136.05 67.2029 136.257 67.1314 136.493 67.1028C136.743 67.0742 137 67.0384 137.25 67.0313C137.993 66.9955 138.728 67.1671 139.457 67.2529C140.2 67.3244 140.943 67.3459 141.686 67.353C142.078 67.353 142.471 67.353 142.864 67.353C143.05 67.353 143.236 67.353 143.414 67.3673C143.793 67.3888 144.178 67.4031 144.521 67.5604C144.714 67.6462 144.878 67.782 145.007 67.9465C145.164 67.9393 145.314 67.925 145.471 67.9179C146.993 67.8321 148.514 67.8321 150.036 67.8392C150.778 67.8392 151.5 67.8964 152.228 67.9894C152.878 68.068 153.528 68.161 154.178 68.2396C154.978 68.3254 155.778 68.4184 156.578 68.5471C156.814 68.5828 157.05 68.6329 157.286 68.6901C157.678 68.5542 158.086 68.497 158.507 68.4541C159.25 68.3826 160.007 68.3254 160.757 68.3326C161.5 68.3469 162.243 68.3326 162.978 68.3183C163.278 68.3183 163.578 68.3254 163.878 68.354C163.878 68.354 163.893 68.354 163.893 68.3469C164.028 68.2611 164.207 68.2611 164.364 68.2468C164.521 68.2253 164.678 68.2039 164.836 68.1967C165.164 68.1753 165.5 68.1824 165.828 68.1824C166.036 68.1824 166.236 68.161 166.443 68.1324C167.136 68.018 167.821 67.925 168.528 67.9036C169.3 67.875 170.071 67.9322 170.836 67.9965C171.378 68.0394 171.914 68.1109 172.45 68.1896C172.543 67.9036 172.786 67.8035 173.05 67.7463C173.271 67.7034 173.486 67.6462 173.7 67.6033C174.15 67.5032 174.593 67.3816 175.05 67.2887C176.078 67.0885 176.864 67.0527 177.214 67.0813C177.5 67.1028 177.836 67.1457 177.836 67.1457C177.95 67.16 178.043 67.1743 178.107 67.1814C178.221 67.2029 178.364 67.2315 178.536 67.2601C178.9 67.3173 179.021 67.303 179.136 67.4174C179.221 67.5032 179.243 67.6033 179.271 67.7034C179.328 67.9179 179.3 68.1467 179.207 68.3397H179.221C179.171 68.447 179.1 68.5399 179.014 68.6186C178.993 68.6472 178.971 68.6758 178.957 68.7115C178.928 68.8259 178.886 68.9332 178.85 69.0476C178.836 69.2192 178.807 69.3836 178.757 69.5481C178.714 69.6839 178.664 69.8126 178.628 69.9413C178.593 70.0986 178.557 70.2559 178.514 70.4132C178.457 70.6349 178.35 70.8494 178.25 71.0496C178.086 71.3856 177.871 71.6859 177.678 72.0077C177.5 72.3437 177.35 72.6941 177.164 73.0301C176.886 73.5378 176.578 73.9954 176.228 74.453C175.95 74.8105 175.621 75.1322 175.307 75.454C175.071 75.6971 174.836 75.9402 174.6 76.1833C174.05 76.7767 173.536 77.3988 172.964 77.9779C172.864 78.078 172.764 78.1781 172.657 78.2711C172.693 78.5571 172.686 78.8574 172.621 79.1291C172.478 79.744 172.193 80.2802 171.764 80.7378C171.614 80.8951 171.457 81.0596 171.3 81.2097C171.243 81.2598 171.186 81.3098 171.128 81.3599C171.093 81.4171 171.057 81.4671 171.028 81.5243C170.843 81.889 170.686 82.2679 170.45 82.604C170.207 82.9543 169.936 83.2689 169.678 83.5978C169.636 83.6622 169.593 83.7337 169.55 83.798C169.393 84.0769 169.243 84.3486 169.071 84.6203C168.914 84.8705 168.771 85.1279 168.607 85.3782C168.407 85.6785 168.193 85.9716 167.971 86.2648C167.836 86.4435 167.671 86.608 167.528 86.7796C167.507 86.8082 167.486 86.8368 167.471 86.8725C167.228 87.3373 167.021 87.8235 166.721 88.2668C166.557 88.5099 166.393 88.7458 166.228 88.9818C166.071 89.2177 165.886 89.4394 165.707 89.6682C165.678 89.7182 165.643 89.7683 165.614 89.8183C165.357 90.3045 165.128 90.8122 164.828 91.2698C164.628 91.5701 164.4 91.8561 164.157 92.1135C163.957 92.3208 163.764 92.5282 163.55 92.7141C163.464 92.7856 163.386 92.8571 163.3 92.9357C163.3 92.9572 163.286 92.9858 163.278 93.0072C163.214 93.2289 163.128 93.4148 163.064 93.5292C162.957 93.7294 162.857 93.9296 162.736 94.1155C162.607 94.3157 162.457 94.4944 162.314 94.6803C162.086 94.9663 161.85 95.2309 161.578 95.4811C161.443 95.6027 161.3 95.7099 161.157 95.8243C160.778 96.1175 160.321 96.2605 159.871 96.3963C159.736 96.4392 159.586 96.4607 159.436 96.4821C159.378 96.5822 159.321 96.6823 159.264 96.7824C159.121 97.0255 158.957 97.3044 158.764 97.5117C158.371 97.9407 157.871 98.3125 157.307 98.4698C157.286 98.4984 157.257 98.5342 157.228 98.5628C157 98.8345 156.764 99.0919 156.543 99.3707C156.364 99.621 156.193 99.8784 156 100.114C155.728 100.436 155.407 100.722 155.1 101.008C154.643 101.423 154.15 101.809 153.714 102.252C153.164 102.803 152.621 103.353 151.957 103.775C151.578 104.018 151.2 104.268 150.793 104.447C150.578 104.547 150.357 104.633 150.136 104.712C150.1 104.769 150.057 104.826 150.014 104.883C149.793 105.148 149.536 105.391 149.3 105.641C149.1 105.849 148.893 106.049 148.671 106.235C148.314 106.535 147.943 106.835 147.557 107.1C147.171 107.357 146.764 107.557 146.364 107.793C146.064 107.979 145.771 108.187 145.464 108.365C145.128 108.558 144.786 108.737 144.45 108.937C144.45 109.166 144.364 109.395 144.214 109.588C143.893 109.996 143.371 110.031 142.907 109.931C142.636 109.874 142.386 109.767 142.121 109.695C141.857 109.638 141.586 109.588 141.314 109.545C141.143 109.517 140.971 109.488 140.807 109.459C140.3 109.366 139.786 109.273 139.278 109.173C138.986 109.116 138.693 109.052 138.4 108.98C138.121 109.016 137.843 109.045 137.557 109.073C136.721 109.159 135.886 109.188 135.05 109.145C134.4 109.109 133.757 109.009 133.114 108.93C132.5 108.852 131.9 108.744 131.3 108.573C131.043 108.501 130.793 108.387 130.536 108.301C130.278 108.208 130.014 108.122 129.757 108.029C129.236 107.843 128.743 107.586 128.228 107.372C128.107 107.357 127.986 107.336 127.864 107.322C127.714 107.322 127.564 107.322 127.414 107.322C127.014 107.322 126.614 107.322 126.221 107.271C125.764 107.207 125.228 107.107 124.95 106.707C124.757 106.692 124.571 106.685 124.378 106.678C124.007 106.664 123.636 106.678 123.264 106.664C122.886 106.657 122.507 106.642 122.128 106.642C121.414 106.635 120.686 106.649 119.971 106.642C119.221 106.635 118.471 106.592 117.721 106.528C116.164 106.399 114.607 106.27 113.093 105.849C112.807 105.77 112.521 105.684 112.236 105.613C112.057 105.563 111.878 105.527 111.707 105.477C111.15 105.498 110.586 105.527 110.021 105.541C109.428 105.555 108.836 105.527 108.243 105.498C107.65 105.47 107.057 105.448 106.464 105.427C106.121 105.412 105.778 105.398 105.436 105.348C105.293 105.327 105.15 105.305 105.014 105.269C104.828 105.227 104.65 105.162 104.493 105.076C104.393 105.105 104.293 105.126 104.193 105.141C103.936 105.191 103.671 105.219 103.4 105.205C103.164 105.198 102.936 105.162 102.707 105.134C102.657 105.134 102.607 105.119 102.557 105.112C102.428 105.091 102.3 105.062 102.171 105.034L102.157 104.998ZM162.214 73.7451C162.214 73.7451 162.243 73.7237 162.257 73.7094C162.236 73.7094 162.221 73.7094 162.2 73.7094C162.2 73.7237 162.207 73.7308 162.214 73.7451Z" fill="#2A9CC8"/>
<path d="M96.3499 104.218C95.5999 103.94 94.7999 103.911 94.0428 103.682C93.1499 103.518 92.3999 102.946 91.4642 103.024C90.9142 103.103 90.0356 103.153 88.9999 102.91C87.8999 102.66 87.0928 102.188 86.6285 101.859C86.4285 101.644 86.1856 101.408 85.8928 101.187C85.7428 101.072 85.5928 100.965 85.4499 100.879C85.1499 100.529 85.1856 99.9784 85.5785 99.7067C86.2142 99.2348 86.7642 99.9069 87.3999 99.7067C88.7571 99.3492 90.0285 98.7629 91.3214 98.2195C91.9071 98.0694 92.4642 97.8477 93.0285 97.6332C93.6285 96.8467 94.6499 96.9254 95.4928 96.6108C96.5571 96.2819 97.6714 96.1675 98.7499 95.8958C99.3071 95.7027 99.8785 95.574 100.471 95.5454C101.236 93.9438 103.521 93.5649 105.057 93.0501C105.007 93.0644 104.95 93.0787 104.9 93.1001C106.707 92.571 108.478 91.9061 110.3 91.4056C111.257 90.8407 112.25 90.3402 113.143 89.6896C114.586 88.6171 115.878 87.3587 117.2 86.136C118.607 84.942 120.636 82.3608 122.586 82.5467C123.121 81.989 123.764 81.5386 124.4 81.0953C125.221 80.1014 126.057 79.1219 126.936 78.1781C128.121 75.9401 129.736 73.9882 131.357 72.0648C131.371 71.8432 131.386 71.6072 131.443 71.3999C131.521 71.1568 131.743 70.978 132 70.9566C132.314 70.1486 132.736 69.3907 133.093 68.6185C133.214 67.7462 133.7 66.352 134.828 66.6809C135.421 66.4592 136.15 66.688 136.5 67.2171C137.064 67.4102 137.686 67.9321 137.536 68.5899C138.307 69.1476 138.678 70.1486 138.557 71.0781C138.757 71.2926 138.914 71.5357 139.014 71.8074C139.086 71.9933 139.121 72.1792 139.143 72.3723C139.221 73.9024 137.843 75.6041 136.586 76.3691C135.857 77.0913 135.15 77.8349 134.471 78.5999C132.821 80.2802 131.628 82.9328 129.078 82.4252C127.686 84.0768 126.093 85.4139 124.514 86.8653C121.943 89.3321 119.164 91.5486 116.257 93.6006C116.643 94.5301 116.136 95.6241 115.207 95.9744C114.557 96.2104 113.864 96.3391 113.207 96.5536C112.386 96.8396 111.543 97.0612 110.814 97.5403C109.628 98.148 108.371 98.6128 107.164 99.1777C115.95 98.5127 123.886 96.7109 130.914 91.0695C133.436 89.3321 135.686 87.0441 138.657 86.1003C140.643 85.5354 142.728 85.3996 144.771 85.1493C146.021 84.992 146.871 86.6008 146.028 87.5446C145.778 87.8449 145.428 88.0093 145.05 88.0594C144.1 88.1809 143.15 88.3025 142.2 88.3883C139.993 88.5241 137.686 88.8244 135.907 90.2687C130.1 94.7589 123.878 98.9059 116.493 100.107C113.35 100.886 110.114 101.087 106.914 101.509C104.536 101.966 102.278 102.231 99.8999 102.481C99.8999 102.617 99.8999 102.745 99.9713 102.874C100.214 103.511 99.4214 103.718 99.0285 103.954C98.2071 104.397 97.2642 104.497 96.3642 104.24L96.3499 104.218ZM99.3999 100.043C99.4928 100.107 99.5856 100.179 99.6642 100.264C100.536 100.157 101.407 100.05 102.271 99.9355C102.143 99.8783 102.021 99.8068 101.9 99.721C101.657 99.5637 101.457 99.3421 101.321 99.0918C100.571 99.3135 99.8213 99.5637 99.0999 99.864C99.2071 99.9141 99.3071 99.9713 99.4071 100.043H99.3999Z" fill="#2A9CC8"/>
<path d="M86.6214 101.859C86.0071 101.401 85.2643 101.158 84.6786 100.658C84.0286 100.1 84.5428 99.6067 85.1714 99.3922C86.4643 98.9131 87.7857 98.5127 89.0714 98.0194C91.7857 96.7896 94.6428 95.9173 97.4214 94.8376C98.7 94.3514 99.9429 93.7866 101.186 93.2217C102.721 92.5711 104.286 91.9848 105.829 91.3341C109.107 90.0471 112.236 88.4098 115.286 86.6437C116.657 85.7786 117.893 84.7347 119.164 83.7337C121.293 81.9819 123.357 80.1515 125.25 78.1495C125.807 77.599 126.364 77.0842 126.843 76.5694C127.6 75.7471 128.257 74.8462 129 74.0168C130.436 72.2651 131.607 70.3203 132.729 68.3612C132.857 68.1181 132.993 67.875 133.1 67.6176C133.2 67.4174 133.243 67.1814 133.407 67.017C133.464 66.9526 133.571 67.0384 133.514 67.1028C133.343 68.1181 132.879 69.069 132.514 70.0271C132.271 70.5562 131.986 71.0496 131.693 71.5501C131.114 72.4796 130.593 73.4448 129.957 74.3457C129.286 75.2538 128.664 76.2047 127.971 77.1056C127.286 77.9851 126.521 78.793 125.8 79.6367C123.25 82.6326 120.214 85.1923 117.1 87.5732C114.771 89.182 112.229 90.4833 109.707 91.7631C106.643 93.2146 103.45 94.3586 100.3 95.6027C98.25 96.3892 96.1357 96.9969 94.0429 97.6404C92.5071 98.1481 90.95 98.6128 89.4286 99.1634C88.0786 99.5209 86.7571 99.9642 85.4143 100.336C85.75 100.651 87.4143 101.194 87.0643 101.752C86.9714 101.902 86.7571 101.952 86.6071 101.852L86.6214 101.859Z" fill="#2A9CC8"/>
<path d="M133.243 66.9026C133.186 66.5522 133.55 66.2376 133.886 66.3806C134.95 66.3592 136.021 66.445 137.086 66.4307C139.664 66.4021 142.236 66.6595 144.814 66.6952C147.093 66.7953 149.35 67.2172 151.636 67.1028C157.764 67.2315 163.9 67.589 170.028 67.3244C171.714 67.2672 173.4 67.3101 175.078 67.1814C176.721 66.9526 177.9 67.0098 178.607 67.0885C179 67.1314 179.486 67.21 179.757 67.5747C180.05 67.9679 180 68.5542 179.893 68.7973C179.393 69.9127 175.621 68.5328 170.436 68.2611C166.3 68.0394 163.936 68.4613 158.043 68.6114C155.514 68.6758 152.993 68.304 150.464 68.497C147.336 68.4112 144.2 68.0895 141.093 67.9894C138.957 67.7534 136.814 67.6247 134.678 67.3816C134.2 67.2458 133.4 67.5389 133.243 66.9097V66.9026Z" fill="#2A9CC8"/>
<path d="M142.95 110.746C142.95 110.746 142.636 110.468 142.693 110.103C142.743 109.788 143.029 109.531 143.386 109.502C144.143 109.03 144.9 108.473 145.579 107.929C147.143 106.664 148.614 105.277 150.3 104.168C152.75 102.61 155.057 100.743 157.014 98.6199C157.007 98.6271 156.993 98.6414 156.986 98.6485C156.972 98.6628 156.964 98.67 156.957 98.6843C157.679 97.9192 158.393 97.1899 159.1 96.4535C161.55 93.8366 163.722 90.9551 165.872 88.088C168.257 84.8133 170.364 81.3455 172.693 78.0208C173.55 76.7552 174.414 75.4968 175.243 74.2098C176.436 72.2078 177.507 70.1272 178.686 68.118C179.136 67.4173 180.257 67.9822 179.907 68.7901C179.429 69.8054 178.829 70.8779 178.307 71.836C176.4 75.4825 173.95 78.8001 171.6 82.1678C169.107 85.8715 166.557 89.5251 163.707 92.9571C161.214 96.1174 158.572 98.956 155.664 101.687C154.993 102.316 154.536 102.552 148.179 107.043C148.043 107.143 143.079 110.639 142.95 110.732V110.746Z" fill="#2A9CC8"/>
<path d="M97.1714 105.069C94.7429 104.64 92.3714 103.975 90.0286 103.225C89.5929 102.996 88.6714 103.074 88.6643 102.445C88.7929 101.587 92.2929 103.074 93.0286 103.103C96.5286 103.968 100.129 104.233 103.707 104.633C115.743 105.856 127.821 106.371 139.657 109.016C140.486 109.366 143.393 109.281 143.229 110.353C143.171 110.675 142.857 110.904 142.536 110.846C136.286 109.71 130.071 108.301 123.75 107.608C119.55 107.322 115.386 106.692 111.186 106.449C106.514 106.035 101.814 105.863 97.1786 105.076L97.1714 105.069Z" fill="#2A9CC8"/>
<path d="M123.086 96.4678C120.379 96.0531 119.371 93.3004 121.857 91.7989C124.214 90.4404 127.079 90.2831 129.629 89.3822C131.921 88.8531 134.121 88.0952 136.307 87.2729C139 86.2791 141.921 85.607 144.307 83.9911C145.057 83.3905 146.286 82.4252 145.657 81.3813C144.55 79.8941 142.493 79.1648 140.664 79.3507C138.714 79.5295 137.214 80.316 136.15 81.939C135.957 82.2393 135.829 82.6254 135.486 82.8042C134.979 83.0687 134.386 82.6397 134.357 82.1035C134.1 79.7297 135.821 77.3344 138.114 76.6051C139.9 76.0045 141.85 75.6327 143.714 76.1332C150.15 77.8421 151.25 83.3118 145.786 87.0513C143.6 88.6028 140.971 89.4322 138.479 90.4046C136.879 90.9266 135.343 91.613 133.736 92.1135C132.221 92.5496 130.686 92.9214 129.179 93.379C134.421 94.1727 139.629 95.2666 144.821 96.3177C146.679 96.5751 147.243 99.0633 145.521 99.8927C145 100.157 144.364 100.143 143.829 99.907C141.457 99.335 139.029 99.0561 136.657 98.5056C132.179 97.5189 127.643 96.8539 123.086 96.4607V96.4678Z" fill="white" stroke="#2A9CC8" stroke-width="1.17" stroke-miterlimit="10"/>
<path d="M177.25 112.713C177.1 111.79 177.264 110.861 177.279 109.931C177.35 108.008 177.371 106.077 177.536 104.161C177.736 102.245 177.871 100.329 178.007 98.4054C178.179 96.4678 178.214 94.5158 178.314 92.5782C178.471 89.6681 178.829 86.7724 179.036 83.8695C179.2 80.4661 179.114 77.0627 179.293 73.6593C179.45 71.9647 179.671 70.2773 179.986 68.6042C180.057 68.2825 180.086 67.9393 180.243 67.6461C180.436 67.4245 180.471 67.9965 180.471 68.0966C180.507 69.8126 180.457 71.5286 180.471 73.2446C180.471 74.7103 180.55 76.1689 180.621 77.6347C180.7 79.6009 180.729 81.5672 180.686 83.5263C180.636 85.4425 180.35 87.3444 180.207 89.2606C179.936 92.1849 179.864 95.1164 179.6 98.0408C179.429 100.386 179.179 102.631 178.964 104.933C178.879 106.385 178.85 107.836 178.779 109.281C178.736 110.167 178.679 111.061 178.571 111.94C178.479 112.419 178.45 113.17 177.807 113.156C177.557 113.142 177.314 112.956 177.264 112.698L177.25 112.713Z" fill="#2A9CC8"/>
<path d="M133.236 116.016C132.593 115.866 131.979 115.694 131.343 115.551C130.972 115.451 130.279 115.38 130.479 115.158C130.579 115.094 130.707 115.101 130.829 115.094C131.293 115.101 131.75 115.172 132.207 115.222C133.279 115.372 134.343 115.544 135.422 115.594C137.372 115.766 139.322 115.894 141.272 116.002C142.722 116.073 144.164 116.238 145.614 116.302C151.35 116.438 157.079 116.166 162.786 115.551C164.722 115.351 166.657 115.194 168.586 115.008C170.293 114.772 172.007 114.529 173.714 114.3C174.5 114.214 175.279 114.1 176.064 113.971C176.657 113.942 177.593 113.563 177.814 114.35C177.886 114.672 177.679 115.043 177.343 115.108C175.536 115.515 173.679 115.551 171.85 115.809C170.893 115.901 169.943 116.073 168.993 116.216C167.557 116.388 166.114 116.481 164.672 116.609C158.286 117.153 151.872 117.539 145.464 117.346C142.436 117.103 139.407 116.802 136.393 116.452C135.343 116.33 134.272 116.273 133.236 116.016Z" fill="#858FA9"/>
<path d="M104.936 80.3731C105.314 80.4017 105.657 80.3874 106.014 80.5018C106.029 80.5018 106.036 80.5161 106.05 80.5233L106.1 80.4661C106.1 80.4661 106.093 80.4375 106.086 80.4232C106.057 80.3231 106.2 80.2659 106.243 80.366C107.536 83.5978 108.564 86.9869 109.593 90.3116C109.614 90.3831 109.586 90.4546 109.514 90.4832C108.386 90.9194 107.936 90.4761 107.55 89.3964C107.129 88.2238 106.821 87.0083 106.436 85.8214C105.871 84.0625 105.264 82.3251 104.8 80.5376C104.779 80.4446 104.843 80.366 104.936 80.3731Z" fill="#FFA348"/>
<path d="M101.114 80.2016C101.571 80.1873 102.05 80.2302 102.493 80.316C102.5 80.316 102.507 80.3159 102.521 80.3231L102.543 80.2659C102.536 80.2302 102.521 80.1944 102.507 80.1587C102.471 80.0443 102.643 79.9799 102.686 80.0943C103.936 83.5406 105.136 86.9869 106.443 90.4046C106.464 90.4547 106.443 90.5333 106.393 90.5548C105.05 91.2555 104.543 90.376 104.107 89.1677C103.064 86.2362 101.986 83.319 100.993 80.366C100.971 80.2945 101.021 80.2016 101.1 80.2016H101.114Z" fill="#FFA348"/>
<path d="M108.064 89.0676C107.7 89.0962 107.2 89.2964 106.936 89.2892L106.707 89.2678C106.764 88.6314 107.45 88.1095 108.021 88.6886C108.021 88.6886 108.093 88.7029 108.057 89.0604L108.064 89.0676Z" fill="#FFA348"/>
<path d="M108.064 89.0032H108L108.071 89.0604C108.071 89.0604 108.05 89.0103 108.028 88.996C108.007 88.9817 107.986 88.9746 107.957 88.9746C107.957 88.9746 107.943 88.9746 107.936 88.9746C107.921 88.9746 107.9 88.9746 107.886 88.9746C107.871 88.9746 107.857 88.9746 107.843 88.9746C107.814 88.9746 107.778 88.9817 107.75 88.9889C107.686 89.0032 107.628 89.0175 107.564 89.0246C107.443 89.0532 107.328 89.0818 107.207 89.1104C107.15 89.1247 107.086 89.1319 107.028 89.1462H107.064C107.014 89.1462 106.964 89.1462 106.914 89.1462L106.757 89.1319H106.707L106.85 89.2677C106.85 89.2534 106.85 89.2463 106.85 89.232V89.2677C106.85 89.1819 106.878 89.089 106.914 89.0103L106.9 89.0461C106.936 88.9674 106.978 88.8959 107.028 88.8244L107.007 88.853C107.057 88.7958 107.107 88.7386 107.164 88.6886L107.136 88.71C107.186 88.6671 107.243 88.6314 107.307 88.6099L107.271 88.6242C107.321 88.6028 107.378 88.5885 107.443 88.5742H107.407C107.464 88.5742 107.514 88.5742 107.571 88.5742H107.536C107.586 88.5742 107.636 88.5885 107.686 88.6099L107.65 88.5956C107.65 88.5956 107.714 88.6242 107.743 88.6457C107.757 88.6528 107.771 88.6671 107.793 88.6743C107.821 88.6886 107.85 88.7029 107.886 88.7029H107.914H107.878C107.878 88.7029 107.893 88.7029 107.907 88.7029L107.878 88.6886C107.878 88.6886 107.936 88.7243 107.964 88.7458L107.943 88.7315C107.943 88.7315 107.971 88.7529 107.993 88.7601C108.007 88.7601 108.014 88.7601 108.036 88.7672H108.007H107.978V88.7601C107.986 88.7672 107.95 88.7386 107.964 88.7458C107.95 88.7243 107.964 88.7386 107.964 88.7458C107.964 88.7458 107.964 88.7601 107.971 88.7601C107.971 88.7744 107.964 88.7386 107.971 88.7458C107.971 88.7458 107.971 88.7529 107.971 88.7601C107.971 88.7672 107.971 88.7815 107.978 88.7887C107.978 88.803 107.978 88.8173 107.986 88.8316C107.986 88.8387 107.986 88.8459 107.986 88.853C107.986 88.853 107.986 88.8602 107.986 88.8673C107.986 88.8745 107.986 88.853 107.986 88.8602C107.986 88.9245 107.993 88.9817 108 89.0389C108 89.0675 108.021 89.089 108.05 89.0961C108.078 89.0961 108.107 89.0818 108.107 89.0532C108.128 88.9531 108.15 88.853 108.15 88.7529C108.15 88.6957 108.136 88.6385 108.1 88.5956C108.086 88.5813 108.064 88.567 108.05 88.5599L108.114 88.6099C108.086 88.5742 108.057 88.5313 108.014 88.4955L108.036 88.517C108.036 88.517 108.021 88.4955 108.014 88.4884L108.028 88.517C108.028 88.517 108.007 88.4455 107.978 88.424C107.957 88.4026 107.936 88.3883 107.907 88.374C107.871 88.3525 107.836 88.3382 107.793 88.3239C107.743 88.3025 107.686 88.281 107.628 88.2739C107.5 88.2524 107.371 88.2596 107.243 88.3025C107 88.3883 106.807 88.5742 106.693 88.7958C106.621 88.9317 106.578 89.0818 106.564 89.2391C106.564 89.2749 106.578 89.3178 106.607 89.3392C106.636 89.3678 106.671 89.375 106.707 89.3821L106.857 89.3964C106.857 89.3964 106.907 89.3964 106.928 89.3964C106.957 89.3964 106.986 89.3964 107.014 89.3964C107.114 89.3893 107.214 89.3607 107.314 89.3392C107.414 89.3106 107.521 89.2892 107.621 89.2606C107.678 89.2463 107.736 89.2248 107.793 89.2105C107.821 89.2034 107.85 89.1962 107.878 89.1891C107.893 89.1891 107.907 89.1891 107.921 89.1819C107.928 89.1819 107.936 89.1819 107.943 89.1819C107.957 89.1819 107.971 89.1676 107.993 89.1605L107.964 89.1748C107.964 89.1748 107.978 89.1748 107.986 89.1676C108.007 89.1605 108.028 89.1462 108.043 89.1247C108.057 89.1033 108.064 89.0818 108.071 89.0532C108.071 89.0532 108.036 89.0961 108.021 89.1176C108.043 89.1176 108.064 89.1104 108.086 89.1033C108.114 89.0961 108.136 89.0604 108.136 89.0318C108.136 89.0032 108.107 88.9746 108.071 88.9746L108.064 89.0032Z" fill="#FFA348"/>
<path d="M89.1001 76.9412C90.3501 76.4764 91.6287 76.0689 92.9144 75.7114C92.8858 75.6399 92.9573 75.5469 93.0501 75.5827C93.093 75.597 93.1358 75.6184 93.1858 75.6399C93.293 75.6113 93.393 75.5827 93.5001 75.5541C93.6073 75.5255 93.6644 75.6828 93.5573 75.7185C93.5216 75.7328 93.4858 75.74 93.4501 75.7543C94.1644 76.0546 94.843 76.4407 95.4858 76.8768C95.5501 76.9197 95.5287 77.0341 95.4573 77.0556C93.5501 77.5346 90.8715 78.2854 89.0858 77.1056C89.0287 77.0699 89.0573 76.9769 89.1144 76.9555L89.1001 76.9412Z" fill="#FFA348"/>
<path d="M111.429 54.6546C114.193 52.9744 117.686 53.0315 120.786 53.3604C129.321 54.2756 137 58.7301 144.164 63.1488C146.35 64.5002 148.579 65.8015 150.729 67.21C152.543 68.3969 154.571 69.7912 155.743 71.6502C156.493 72.837 156.186 74.5602 154.5 74.3743C153.379 74.2527 152.286 73.7666 151.264 73.1874C152.414 74.4816 153.443 76.1046 151.443 77.0699C149.293 78.1066 147.121 76.3334 145.5 74.8462C145.921 75.6113 146.5 76.2833 146.829 77.0985C147.214 78.0494 146.264 78.3997 145.507 78.5141C143.536 78.8216 141.65 78.1566 139.914 77.2843C137.914 76.2833 136 75.0893 134.014 74.0526C131.936 72.9658 129.843 71.9004 127.814 70.7278C126.143 69.7626 124.443 68.6829 122.521 68.2968C118.979 67.5746 117.343 72.0863 116.414 74.7104C116.286 75.0679 116.171 75.4325 116.057 75.7972C117.05 77.0627 118.693 77.9422 120.014 78.6786C120.814 79.1219 121.614 79.5581 122.493 79.8298C123.507 80.1444 124.571 80.2731 125.614 80.4375C126.493 80.5733 127.357 80.7378 128.2 81.0238C128.693 81.1882 129.464 81.4385 129.729 81.9461C130.164 82.7899 128.786 83.3261 128.236 83.5621C126.686 84.2199 125 84.7132 123.4 85.228C121.357 85.8929 119.236 86.3648 117.079 86.1646C112.943 85.7785 109.379 83.226 105.4 82.2393C101.786 81.3384 98.1643 80.559 95.0286 78.4355C93.3358 77.2915 92.0286 75.7185 90.4143 74.4816C88.8572 73.2946 87.0715 72.4081 85.1572 71.9862C83.1857 71.5572 81.15 71.7502 79.2358 72.3365C77.1429 72.9729 75.45 74.2242 73.8286 75.6613C72.4072 76.9197 71.05 78.2567 69.5643 79.4365C68.1929 80.5233 66.6072 81.1525 64.8429 80.8951C63.9072 80.7592 62.7858 80.3946 62.9643 79.2649C63.0929 78.4498 63.6143 77.7205 64.0786 76.984C62.4786 78.6071 60.4429 80.2301 58.1643 79.508C56.7715 79.0647 57.0215 77.7849 57.6072 76.6695C55.9286 77.9779 53.4715 79.0647 52.0715 77.506C50.1786 75.4111 53.6572 72.7941 55.1858 71.7502C59.0072 69.1405 62.6929 66.3091 66.5643 63.7709C70.0858 61.4614 73.95 59.1377 78.1143 58.2439C86.4072 56.4707 91.1 64.7433 97.1572 68.6472C99.35 70.0629 103.079 71.8146 104.814 68.8974C106.057 66.8168 106.086 64.114 106.671 61.8117C107.4 58.9732 108.871 56.199 111.436 54.6475L111.429 54.6546Z" fill="white"/>
<path d="M110.371 91.141C110.371 91.141 110.364 91.1053 110.357 91.091L110.314 91.1696H110.321C110.364 91.1625 110.407 91.1196 110.428 91.0838L110.45 91.0409C110.45 91.0409 110.457 90.9766 110.45 90.9408C110.45 90.9551 110.45 90.9694 110.45 90.9909C110.45 91.0052 110.45 91.0195 110.45 91.0409C110.45 91.0266 110.45 91.0195 110.457 91.0052L110.407 91.091C110.443 91.0481 110.464 91.0052 110.464 90.948V90.9122V90.9623C110.464 90.9051 110.464 90.8407 110.464 90.7764V90.8336C110.464 90.7764 110.464 90.712 110.464 90.6477C110.464 90.6048 110.464 90.5619 110.464 90.519C110.464 90.4046 110.443 90.2902 110.421 90.1829C110.386 89.9684 110.314 89.7539 110.214 89.5609C110.157 89.4536 110.086 89.3464 110.007 89.2463C109.921 89.1462 109.821 89.0532 109.714 88.9746C109.607 88.8959 109.5 88.8316 109.378 88.7744C109.221 88.7029 109.057 88.6457 108.886 88.6028C108.686 88.5599 108.478 88.5313 108.271 88.517C108.157 88.517 108.05 88.5027 107.943 88.5027C107.886 88.5027 107.828 88.5027 107.771 88.5027C107.693 88.5027 107.614 88.517 107.536 88.5313C107.471 88.5384 107.414 88.5527 107.35 88.5599C107.307 88.567 107.25 88.6099 107.228 88.6528C107.207 88.6957 107.2 88.7386 107.207 88.7815C107.221 88.8816 107.307 88.9531 107.407 88.9603C107.486 88.9603 107.564 88.9674 107.643 88.9746C107.714 88.9746 107.793 88.9817 107.864 88.9817C108 88.9817 108.136 88.9817 108.271 89.0032C108.343 89.0032 108.407 89.0175 108.478 89.0246H108.414C108.614 89.0461 108.821 89.089 109.014 89.1533C109.064 89.1676 109.107 89.1891 109.157 89.2034L109.1 89.1819C109.236 89.2391 109.371 89.3106 109.493 89.4036L109.443 89.3607C109.543 89.4393 109.628 89.5251 109.7 89.6181L109.664 89.568C109.743 89.6681 109.807 89.7825 109.857 89.9112L109.828 89.854C109.9 90.0185 109.943 90.1901 109.971 90.3617C109.978 90.4046 109.986 90.4546 109.993 90.4975V90.4332C110 90.5547 110.021 90.6834 110.043 90.805V90.7478C110.043 90.805 110.043 90.8121 110.064 90.8693L110.043 90.8193C110.05 90.8622 110.064 90.8979 110.078 90.9408V90.8836C110.078 90.9408 110.078 90.9408 110.1 90.9909L110.078 90.9408C110.078 90.9408 110.078 90.9623 110.086 90.9766V90.9265C110.086 90.9623 110.086 90.998 110.107 91.0266C110.128 91.0552 110.15 91.0767 110.178 91.0981L110.107 91.0266C110.107 91.0266 110.121 91.0481 110.121 91.0552L110.1 91.0123L110.121 91.0624C110.136 91.0838 110.15 91.0981 110.171 91.1124C110.2 91.1339 110.243 91.1553 110.286 91.1482H110.307C110.307 91.1482 110.264 91.1124 110.25 91.0981C110.25 91.1124 110.257 91.1339 110.264 91.1482C110.278 91.1768 110.307 91.1982 110.343 91.1911C110.371 91.1839 110.393 91.1482 110.386 91.1124L110.371 91.141Z" fill="#FFA348"/>
<path d="M107.122 91.4699C107.136 91.427 107.143 91.3984 107.15 91.3555C107.15 91.3269 107.15 91.3055 107.157 91.2769C107.157 91.2269 107.164 91.1768 107.157 91.1196C107.157 90.9909 107.143 90.8694 107.122 90.7407C107.1 90.6334 107.079 90.5261 107.05 90.4189C107.014 90.2973 106.972 90.1829 106.922 90.0685C106.836 89.8683 106.714 89.6824 106.564 89.5251C106.414 89.3678 106.207 89.2463 105.993 89.1962C105.879 89.1676 105.757 89.1605 105.636 89.1676C105.557 89.1676 105.486 89.182 105.414 89.2034C105.386 89.2034 105.357 89.2177 105.329 89.2248C105.264 89.2463 105.207 89.2749 105.157 89.3249C105.122 89.3535 105.093 89.3821 105.071 89.425C105.007 89.5323 105.072 89.6825 105.193 89.7182C105.222 89.7182 105.25 89.7325 105.279 89.7325H105.222C105.307 89.7325 105.4 89.7325 105.486 89.711C105.536 89.6967 105.586 89.6896 105.636 89.6824H105.572C105.672 89.6824 105.772 89.6753 105.872 89.6824H105.807C105.886 89.6824 105.964 89.7039 106.036 89.7397L105.979 89.711C106.05 89.7396 106.122 89.7825 106.186 89.8326L106.136 89.7968C106.222 89.8612 106.286 89.9327 106.35 90.0185L106.314 89.9685C106.414 90.0972 106.486 90.233 106.55 90.3832L106.521 90.326C106.586 90.4761 106.629 90.6262 106.672 90.7764C106.693 90.855 106.707 90.9337 106.722 91.0123C106.736 91.091 106.75 91.1625 106.764 91.2411C106.764 91.284 106.786 91.3269 106.793 91.3698C106.793 91.3913 106.793 91.4127 106.807 91.4342C106.807 91.4556 106.822 91.4699 106.829 91.4914C106.85 91.5629 106.914 91.6201 106.993 91.6201C107.072 91.6201 107.136 91.57 107.157 91.4914L107.122 91.4699Z" fill="#FFA348"/>
</svg>
