<svg xmlns="http://www.w3.org/2000/svg" viewBox="0 0 350 350"><path d="M88.81,67.27c-10.8,0-12.3,19.22-11.24,28.78.56,5,1.21,9.73,2,14.7,1.38,8.57,2.09,16.17,3,24.81.81,8,.52,15.9-6.84,20.85,7.38-.78,15.35-2.13,22.13-3.41,7.9-19.82,15.69-39.92,15.83-61.59.07-10.29-2.65-25-15.6-25.19-3,0-4.42.43-7.49.82Z" style="fill:#2a9cc8"/><path d="M105,162.84c9.55-.08,19.82-.79,27.58-1.34,3.54-.25,6.34-6.29,8.72-8.72,4.68-4.79,5.06-4.77,9.13-10.1,8.56-11.23,18.36-27.76,13.4-42.4-2.82-8.34-11-12.2-19.14-8.49C133.13,97.08,127,111.05,123,122.31c-2.3,6.55-4,13.28-5.83,20a68.78,68.78,0,0,1-4,12c-1.64,3.39-4.72,4.47-7.44,7Z" style="fill:#2a9cc8"/><path d="M169,179.89c8.66,0,23.25-.67,25.6-1.29,4.69-1.24,4.45-8.16,5-12.07.9-6.46-.62-14.14-6.59-17.77-8-4.89-18.86.06-26.13,4.08-9.21,5.09-19.61,12.19-25.76,21-1.44,2.07-2.22,4.32-3.89,6.26" style="fill:#2a9cc8"/><path d="M282.87,247.53c-2.24-4.35-4-8.48-5.52-12.13-4.05-9.59-7.25-17.16-16.41-22.05a33.1,33.1,0,0,0-5.7-1.85c-4.87-1.33-10.93-3-11.57-5.65-1.59-6.59,4-10.87,8.46-14.31a26.22,26.22,0,0,0,4-3.5c8.37-10,10.49-27.09,4.54-36.49-4.72-7.46-8.92-10-16.65-10a118.55,118.55,0,0,0-12.79,1.1c-1.63.2-3.37.4-5.24.61-5.2.58-10.26,1.27-15.37,2.05a6.6,6.6,0,0,1,.73-3.79c3.06-5.47,6-9.82,9.34-14.85.91-1.36,1.85-2.76,2.83-4.24,4.19-6.34,8.51-14.18,8.77-24.21.23-8.71-4.5-15.26-12.33-17.1a31.11,31.11,0,0,0-6.93-.63c-8.36,0-19.64,1.8-27.39,3.15-1.85.32-3.73.68-5.63,1,.64-14.3-.44-32.37-14.13-33.69-1.08-.1-2.26-.16-3.5-.16-7.27,0-15.9,1.73-24.11,3.5-4.85,1-8.72,2-12.82,2.92-3.28.77-6.68,1.57-10.66,2.45-6.81,1.51-13,3.39-19.66,5.37-2.18.65-3.93,1.1-6.17,1.75l-2,.59,1.93.08c.92.08,2.91.31,3.86.5,4.44.92,7.12,2.18,11.61,9.31,4.07,6.46,4.52,16.63,3.31,23.75-1,5.82-2.92,10.67-5,15.8a113.73,113.73,0,0,0-3.9,10.82c-.37,1.26-.83,2.71-1.31,4.24-2.38,7.58-5.65,17.95-4.06,24.44,1.05,4.3,4.75,6.87,9.9,6.87a16.47,16.47,0,0,0,10.08-3.5c4.6-3.73,6.72-10,8.83-17.27,1.58-5.4,2.63-10.06,3.55-14.17,2.1-9.3,3.29-16,8.54-24.41,3.18-5.11,6.87-10,12.91-11.31,3-.67,7.72-.25,9.11.57,4.29,2.51,6.4,7.89,6.73,12s-1.48,15.7-5,21.51c-5.18,8.68-10,14.13-18.08,23-.67.74-1.33,1.46-2,2.16-4.42,4.76-8.24,8.87-9.7,15.49-.92,4.17-.45,7.46,1.41,9.77,1.7,2.11,4.5,3.28,7.89,3.28a13.82,13.82,0,0,0,6.61-1.62c10.6-6,16.31-11.64,24.45-20.29l1-1.12c2.23-2.48,4.36-4.86,11.07-6.39l3.28.29a11,11,0,0,1,8.37,4.64c2.86,4.1,3.36,10.53,1.4,18.08-2.48,9.58-9.27,13.83-17.13,18.75a96.64,96.64,0,0,0-10.37,7.17,18.79,18.79,0,0,0-6.58,15.31,16.4,16.4,0,0,0,8.19,13c3.56,2.2,8.11,3.29,12.51,4.34,6.45,1.55,13.12,3.14,17,8.23,2.48,3.24,3.93,7.35,5.33,11.33.71,2,1.44,4.07,2.28,6,2.84,6.37,7.64,11.58,12.32,16.36l.16.16.2-.08c8.19-3.27,16.57-5,24.68-6.69a175,175,0,0,0,21-5.3c5.15-1.75,8-4.66,11-7.74a33.77,33.77,0,0,1,8.28-6.78l.29-.15ZM197.23,107.17c6.71,4.7,14.76,7.38,22.14,11.4C212,114.55,203.94,111.87,197.23,107.17Z" style="fill:#dcdde0"/><path d="M78.71,103.59c-.1-.66-.17-1.07-.19-1.18l-.07-.34-1.46.36c-3.29.85-14.1,2.78-19,3.57-3.83.63-7.53,1.32-11.12,2-6.26,1.16-12.18,2.26-18.71,3-.68.09-1.58.18-2.61.28a92.56,92.56,0,0,0-11.11,1.58l-.54.13.37.43c6.28,7.08,11.71,12.71,17.1,17.7,8.17,7.57,18,16.07,29.19,21.47,4.12,2,8.87,4.18,13.15,4.18h0A9.07,9.07,0,0,0,82,152c4-6.85,2.8-19.75.37-29.48C80.7,115.83,79.26,106.94,78.71,103.59Z" style="fill:#dcdde0"/><path d="M157.89,89.29c-.41-5.06-.17-11.66-2.24-17.44-2.79-7.8-9.16-14.08-9.16-14.08L103.67,68.05s7,8,9.06,17.21a45.89,45.89,0,0,1-4,30.41l22.3-5.48a59.55,59.55,0,0,1,6-10.14C141,94.35,144.71,91.79,157.89,89.29Z" style="fill:#fff"/><polygon points="260.78 250.7 220.71 263.44 205.78 235.94 243.51 225.04 260.78 250.7" style="fill:#fff"/><path d="M255.25,214.65,212,226.55s-23.81-.83-25.66-10.39c-1.15-6,5.71-14.42,5.71-14.42l51.13-9.56s-7.88,8.22-6.2,14.92C238.72,214.11,255.25,214.65,255.25,214.65Z" style="fill:#fcc18b"/><path d="M254.24,180.05l-65.89,11s9.72-10.73,10.9-20.12-3.13-18.11-3.13-18.11l53.09-7s7,5,9.73,12.85C262.62,169.16,254.24,180.05,254.24,180.05Z" style="fill:#fff"/><path d="M221.38,90s-12.07,1.34-23,2.46c-13.21,1.35-29.28,6-29.28,6a50.33,50.33,0,0,1,.83,17.11c-1.17,9.39-10.22,22-10.22,22l53.2-8.66s13-12.3,13-27.72C225.85,92.85,221.38,90,221.38,90Zm-24.15,17.21c6.71,4.7,14.76,7.38,22.14,11.4C212,114.55,203.94,111.87,197.23,107.17Z" style="fill:#fcc18b"/><polygon points="260.78 250.7 220.71 263.44 215.17 253.46 254.58 241.42 260.78 250.7" style="fill:#fcc18b"/><path d="M159.68,137.52l53.2-8.66a49.63,49.63,0,0,0,5.06-5.84c-18.4,2.65-34.87,5.11-54.52,8.67C161.39,135.14,159.68,137.52,159.68,137.52Z" style="fill:#ffa348"/><polygon points="316.78 269.81 317.62 274 229.26 308.71 227.58 305.86 215.84 272.5 283.03 247.82 316.78 269.81" style="fill:#dcdde0"/><path d="M229.09,308.82c2.57,0,35.15-13.63,42.92-16.54,8-3,16.3-6.86,24.26-9.95,4.75-1.84,17.94-6.54,21.35-8.33,1.51-.79.24-4.92-1.34-4.3-15.09,6-29.18,11.87-44.17,18-7.25,3-25.36,9.73-28.94,11.3s-13.76,5.55-15.76,6.37C226.73,305.64,229.09,308.82,229.09,308.82Z" style="fill:#858fa9"/><path d="M221.48,274.06l1.07,3.3,3.68-1.38c-.58-.92-.87-2-1.45-3.16Z" style="fill:#f8f8fa"/><path d="M229.35,271.1l-3.45,1.3c.55,1,1.25,2.08,1.78,3l3.61-1.35A14.88,14.88,0,0,0,229.35,271.1Z" style="fill:#f8f8fa"/><path d="M230.7,270.59c.65.9,1.16,1.9,2,2.91l3.44-1.22a11.13,11.13,0,0,1-1.77-3Z" style="fill:#f8f8fa"/><path d="M238.88,267.51l-3,1.13c.77,1.05,1,2.32,1.71,3.08l3.26-1.22A12.39,12.39,0,0,0,238.88,267.51Z" style="fill:#f8f8fa"/><path d="M243.64,265.71l-3.2,1.21c.72.92,1.28,2,1.93,3l3.5-1.31C245.06,267.55,244.52,266.84,243.64,265.71Z" style="fill:#f8f8fa"/><path d="M248.43,263.91l-3.25,1.22c.88,1,1.49,1.92,2.3,2.88l3-1.13C250,265.75,248.9,264.91,248.43,263.91Z" style="fill:#f8f8fa"/><path d="M254,261.93l-4.28,1.64c.88,1,1.42,1.89,2.22,2.85l3.94-1.51C255.32,263.77,254.42,262.93,254,261.93Z" style="fill:#f8f8fa"/><path d="M259.16,259.86,255,261.43c.93,1,1.59,2,2.31,2.9l4.25-1.6A21,21,0,0,0,259.16,259.86Z" style="fill:#f8f8fa"/><path d="M260.6,259.32c.62,1,1.5,2,2.1,3l3.35-1.25a35.17,35.17,0,0,0-2.35-2.9Z" style="fill:#f8f8fa"/><path d="M274,254.25l-3.58,1.35c.69,1.18,1.51,1.94,2.14,3l3.73-1.51C275.49,256.15,274.86,255,274,254.25Z" style="fill:#f8f8fa"/><path d="M278.55,252.67,275,253.88a36.77,36.77,0,0,0,2.48,2.73l3.6-1.3C280.23,254.55,279.6,253.61,278.55,252.67Z" style="fill:#f8f8fa"/><path d="M282.74,251.24l-3.14,1c1.13,1.09,1.61,1.69,2.56,2.6l3.43-1.13Z" style="fill:#f8f8fa"/><path d="M268.75,256.24l-3.51,1.33c.74.76,1.16,2.1,2.41,2.87l3.58-1.34C270.39,258.33,269.88,257.15,268.75,256.24Z" style="fill:#f8f8fa"/><path d="M223.73,279.2l1.5,3.35,4.09-1.57a13.22,13.22,0,0,0-1.88-3.2Z" style="fill:#f8f8fa"/><path d="M248.41,269.72c.88,1,1.14,2.38,1.81,3.21l5.3-2a23.59,23.59,0,0,0-1.92-3.17Z" style="fill:#f8f8fa"/><path d="M259.16,265.59l-4.54,1.79a22,22,0,0,1,2.11,3.05l4.56-1.76A9,9,0,0,0,259.16,265.59Z" style="fill:#f8f8fa"/><path d="M264.48,263.55l-4,1.55c.59,1,1.5,2,2.14,3.07l4.17-1.6A20.23,20.23,0,0,0,264.48,263.55Z" style="fill:#f8f8fa"/><path d="M265.8,263a27,27,0,0,0,2.45,2.95l3.92-1.51a25.62,25.62,0,0,0-2.44-3Z" style="fill:#f8f8fa"/><path d="M286.6,255.06s-2.22.91-2.24.86l-1,.39c.93.94,1.88,2,2.81,2.9l4-1.64Z" style="fill:#f8f8fa"/><path d="M247.24,270.19l-5,1.9c.56,1.28,1.4,2,1.8,3.22l5.22-2A18.38,18.38,0,0,0,247.24,270.19Z" style="fill:#f8f8fa"/><path d="M235.29,274.8A25.76,25.76,0,0,1,237,278l5.74-2.21c-.4-.92-1.24-2.09-1.88-3.19Z" style="fill:#f8f8fa"/><path d="M228.63,277.4a25.27,25.27,0,0,1,1.8,3.1l5.83-2.22c-.41-.91-1.21-2-1.85-3.14Z" style="fill:#f8f8fa"/><path d="M232.31,281.91l-6.41,2.49,2,3.52,6.71-2.64C234,284.16,233,283,232.31,281.91Z" style="fill:#f8f8fa"/><path d="M233.39,281.49a11.8,11.8,0,0,1,2.44,3.32l4.51-1.77c-1-1.08-1.6-2.15-2.61-3.23Z" style="fill:#f8f8fa"/><path d="M239.57,279.09a10.06,10.06,0,0,0,2.21,3.39l5.45-2.14c-.68-1.11-1.7-2.22-2.29-3.33Z" style="fill:#f8f8fa"/><path d="M246.42,276.43a30.93,30.93,0,0,1,2.23,3.35l5.17-2c-1-1.06-1.6-2.13-2.57-3.19Z" style="fill:#f8f8fa"/><path d="M252.35,274.17a30.88,30.88,0,0,1,2.44,3.19l6.74-2.64c-1-1.07-1.29-2.29-2.26-3.36Z" style="fill:#f8f8fa"/><path d="M260.61,270.92c.84,1.16,1.39,2.16,2.14,3.32l4-1.55c-.93-1-1.31-2.24-2.3-3.24Z" style="fill:#f8f8fa"/><path d="M265.7,269c.91,1.24,1.54,2.41,2.29,3.24l7.5-3a28.47,28.47,0,0,0-2.34-3.19Z" style="fill:#f8f8fa"/><path d="M281.4,262.85l-4.19,1.63c.58,1.29,1.72,2,2.52,3.1l4.36-1.71C283.1,265,282.41,263.9,281.4,262.85Z" style="fill:#f8f8fa"/><path d="M286.47,261l-3.64,1.42a27.68,27.68,0,0,0,3,3l3.76-1.65C288.7,262.85,287.82,262.14,286.47,261Z" style="fill:#f8f8fa"/><path d="M277.37,258.83l-3.81,1.42a28,28,0,0,0,2.39,3.06l4.12-1.47C279.08,261,278.39,259.88,277.37,258.83Z" style="fill:#f8f8fa"/><path d="M282.33,256.94l-3.71,1.4a25.17,25.17,0,0,0,2.55,3.07l3.8-1.66C284,258.83,283.49,258.17,282.33,256.94Z" style="fill:#f8f8fa"/><path d="M292,258.75,288,260.34c1,1,2.13,1.84,3.1,2.81l4.69-1.89Z" style="fill:#f8f8fa"/><path d="M235,287.4l-6.38,2.53,1.34,3.19,6.93-2.72C236.23,289.57,235.91,288.2,235,287.4Z" style="fill:#f8f8fa"/><path d="M243.71,283.93c.58,1,1.45,2,2.08,3l5.1-2a17.81,17.81,0,0,0-1.8-3.11Z" style="fill:#f8f8fa"/><path d="M250.42,281.24c.58,1,1.44,2,2.08,3l5.09-2a17.22,17.22,0,0,0-1.79-3.11Z" style="fill:#f8f8fa"/><path d="M268.24,274.19,257,278.66c.74,1.24,1.28,2,1.8,3.06l.8-.24h0l10.66-4.18C269.55,276.31,269,275.16,268.24,274.19Z" style="fill:#f8f8fa"/><path d="M269.47,273.7a21.65,21.65,0,0,0,2.18,3.06l9.11-3.57a20.81,20.81,0,0,1-2.59-2.95Z" style="fill:#f8f8fa"/><path d="M292.18,265,288,266.6c.83.86,2.05,2.16,2.76,3L295,267.8A33.3,33.3,0,0,0,292.18,265Z" style="fill:#f8f8fa"/><path d="M297.83,262.43l-4.52,1.8c1.27.86,2.05,2,3.18,2.79l4.87-1.9Z" style="fill:#f8f8fa"/><path d="M236.37,286.84a10.18,10.18,0,0,0,2,3l6-2.35a22.3,22.3,0,0,0-2-3Z" style="fill:#f8f8fa"/><path d="M231.1,295l1.34,2.85,4.49-1.74c-.59-.88-1.35-1.77-1.88-2.65Z" style="fill:#f8f8fa"/><path d="M269.81,279.84,236.38,292.9a23.36,23.36,0,0,0,1.78,2.7l33.52-13A22.86,22.86,0,0,0,269.81,279.84Z" style="fill:#f8f8fa"/><path d="M304,266.46l-3.43,1.34a38,38,0,0,1,3.22,2.32l3.39-1.31Z" style="fill:#f8f8fa"/><path d="M282.07,275l-4.54,1.78c.57.9.87,2.06,1.46,2.94l5.2-2A6.54,6.54,0,0,0,282.07,275Z" style="fill:#f8f8fa"/><path d="M294.76,270.08l-4.17,1.63a20.8,20.8,0,0,0,2.36,2.63l4.43-1.72C296.63,271.59,295.43,271.24,294.76,270.08Z" style="fill:#f8f8fa"/><path d="M299.34,268.29l-3.65,1.43c.85.85,1.69,1.69,2.5,2.59l4.14-1.61C301.34,269.88,300.34,269.25,299.34,268.29Z" style="fill:#f8f8fa"/><path d="M276.43,277.25c.25.94,1.29,1.88,1.74,2.82l.82-.31c-.59-.88-.89-2-1.46-2.94Z" style="fill:#f8f8fa"/><path d="M270.84,279.43a20.35,20.35,0,0,1,1.69,2.83l5.64-2.19c-.45-.94-1.49-1.88-1.74-2.82Z" style="fill:#f8f8fa"/><path d="M269.75,287.2c-.37-4.5-1.32-9.27-4.72-12.5a8.82,8.82,0,0,0-6-2.58c-1.19,0-3.56.59-3.93,2-.43,1.63,1.9,1.83,2.95,2.06,2.91.61,4.82,2.35,5.11,5.24-2.13-1.77-4.57-3-6.74-.54a5.32,5.32,0,0,0-5,2c-.35.53-.44,1.41-1,1.56A5.49,5.49,0,0,0,248,286c-1.08,1.12-1.59,3.06-.56,4.36.88,1.12,3.15-.77,3.85-1.2,1.19-.75,2.67-1.26,3.84-.17.89.84,1.14,2.39,1.43,3.52a66.22,66.22,0,0,0,3,9.32c1.66,4,3.62,9.18,7.91,11a.18.18,0,0,0,.13.12l.44.11a.21.21,0,0,0,.12-.41l-.06,0c1.35-1.24,2.16-3.28,3.32-4.66.76-.9,1.51-1.82,2.3-2.69a16.12,16.12,0,0,1,1.8-1.43.23.23,0,0,0,0-.35C269.66,299.8,270.24,293.21,269.75,287.2Z" style="fill:#414355"/><path d="M301.41,291.25a57.74,57.74,0,0,1-2.81-5.95,29.34,29.34,0,0,1-2.23-6.58c-.53-3.11.27-6.22-.24-9.36-.15-.95-.86-3.79-2.45-2.8a2.9,2.9,0,0,0-1.36,2.53,22,22,0,0,1-.16,3c-.17.84-.4,1.85-.58,2.61-.72-1.9-1.39-4.21-3-5.87-1.8-1.84-4.82-3.82-7.5-3.42a1.9,1.9,0,0,0-1.5,1.6c-.17,1,1,1.66,1.7,2.06a16.91,16.91,0,0,1,3.88,2.66,7.1,7.1,0,0,1,1.41,2.54,14.89,14.89,0,0,0-4.33-3.16c-2.26-1.06-6-1.68-8,.18a1.47,1.47,0,0,0-.38,1.61c.61,1.17,2,1.22,3.14,1.51a10.85,10.85,0,0,1,6.06,4,27.37,27.37,0,0,1,2.2,4.06c-1.25-.61-2.37-1.78-3.63-2.38a11.06,11.06,0,0,0-5-1.11c-1.93.07-3.56,2.53-1.52,3.81,1.23.77,2.67.94,3.79,1.9,1.82,1.57,3,3.82,4.29,5.79a12,12,0,0,0,9.08,5.49.2.2,0,0,0,.11,0h.05l.34,0a.19.19,0,0,0,.18-.1,13.64,13.64,0,0,0,3.76-2c1.51-.9,3.19-1.43,4.69-2.4A.26.26,0,0,0,301.41,291.25Z" style="fill:#414355"/><path d="M280,306.75c-1.43-1.36-2.85-2.74-4.29-4.09-1-.93-2-1.83-3-2.71-.29-.25-.43-.45-.79-.35a18.26,18.26,0,0,0-4.87,2.69.35.35,0,0,0-.13.19,17.74,17.74,0,0,0-6.56,7.87.32.32,0,0,0,0,.36c2.56,3,4.94,6.19,7.35,9.33A35.18,35.18,0,0,1,280,306.75Z" style="fill:#2a9cc8"/><path d="M311.55,296l-3.28-2.31a39.2,39.2,0,0,0-3.92-2.54,5.42,5.42,0,0,0-1.94-.76.28.28,0,0,0-.28-.13c-2.18.39-4.29,1.83-6.1,3-2.11,1.36-4.59,3.05-5.78,5.34a.37.37,0,0,0,.06.45c2.59,2.5,5.66,4.37,8.54,6.48C301.58,301,306.57,298.27,311.55,296Z" style="fill:#2a9cc8"/><path d="M225.46,253.39c-.21-.49-.94-.5-1.37-.49a14.49,14.49,0,0,0-1.82.14,3.33,3.33,0,0,0-2.51,3.59c.15,1.61,2.3,1.44,3.39.8S226.11,254.89,225.46,253.39Z" style="fill:#fff"/><path d="M232.45,254.1a3,3,0,0,1-3.07.09c-.08-.28-.15-.56-.21-.86a1.89,1.89,0,0,0,2.44-.74.2.2,0,0,0-.34-.2,1.88,1.88,0,0,1-2.18.54c-.1-.61-.18-1.25-.3-1.91a4.86,4.86,0,0,0-3.3-3.94c-3-1-3.32,3.62-3.19,5.78-2.4-.21-4.41,5.12-.91,5.42,2.21.18,4.56-2.33,4.45-4.46-.08-1.62-1.91-1.49-3.2-1a7.66,7.66,0,0,1,.69-3.39c.31-.66.69-1.41,1.51-1.48,1-.08,2.1,1,2.58,1.82.88,1.44.89,3.29,1.34,4.85a.12.12,0,0,0-.11.17c.51,1.14-.34,2.21-1.17,2.92-.18.16.07.49.27.34a3.09,3.09,0,0,0,1.4-2.45,3.56,3.56,0,0,0,2.22,1.82.24.24,0,0,0,.19-.43,4.43,4.43,0,0,1-2-2.26,2.89,2.89,0,0,0,3.14-.3C232.85,254.26,232.65,254,232.45,254.1Zm-7,0c.1,2-2.21,3.8-4,3.85-2.7.09-1.51-3.84.29-4.53,0,.1.07.2.19.16s1-.23,1-.34C224,252.85,225.33,252.63,225.4,254.05Z" style="fill:#2a9cc8"/><path d="M242.11,250.72c-1.1.2-2.05.35-2.92-.48a6.79,6.79,0,0,1-1.16-1.65,15,15,0,0,0-1.21-5.77c-.58-1.54-1.16-3.3-2.53-4.29a2.73,2.73,0,0,0-2.08-.34c-1,.33-1.5,1.26-2.37,1.66a1.27,1.27,0,0,0-1,.6,6.09,6.09,0,0,0-1.68.26s0,0,0,0c-1.33.48-2.78-1.56-3.94-.06-.4.52-.05,1.19.34,1.6a2.84,2.84,0,0,0,2.16.68c.26,1.72,2.85,1.73,4.07,1.38,1.43-.41,3.21-1.83,2.32-3.46A2.07,2.07,0,0,0,231,240c.87-.51,1.62-1.24,2.84-.69s1.86,2.63,2.37,3.75a14.2,14.2,0,0,1,1.24,4.9,4.88,4.88,0,0,1-1.92,3.91c-.21.16.06.47.28.35a3.86,3.86,0,0,0,1.93-2.17c0,.57,0,1.14,0,1.72a3.25,3.25,0,0,1-1.32,2.8c-.17.16.05.39.24.31,1.72-.77,1.6-2.44,1.46-4a4.45,4.45,0,0,0,3.58,2.74c.25,0,.27-.34.06-.41a5.62,5.62,0,0,1-2.68-1.54,5.34,5.34,0,0,1-1-2v-.3a4.41,4.41,0,0,0,1.06,1.44,3,3,0,0,0,3.1.31A.21.21,0,0,0,242.11,250.72Zm-10.29-9.32c.49,1.29-1.51,2.25-2.41,2.52-1.12.33-3.22.16-3.4-1.33-.14-1.22,1.41-1.67,2.31-1.78a4.93,4.93,0,0,1,.55,0,13,13,0,0,0,1.62,0,.13.13,0,0,0,0-.26,7.64,7.64,0,0,0-.77-.05l.08,0a2.38,2.38,0,0,0,.37-.06A1.62,1.62,0,0,1,231.82,241.4Z" style="fill:#2a9cc8"/><path d="M251.17,248.7a9.59,9.59,0,0,1-3.76-1.57,1.77,1.77,0,0,0,.41.12c1,.17,2.05,0,3.07.09.24,0,.28-.37.05-.43a12.8,12.8,0,0,0-2.63-.21c-1.25-.06-2.51-2-3-3-.95-2-1.22-4.24-1.86-6.34-.1-.3-.21-.63-.33-1a4.56,4.56,0,0,0,1.72-1.92,3.64,3.64,0,0,0-.1-2.75c-.1-.34-.32-.7-.49-.67s-.27.34-.39.71a5.45,5.45,0,0,1-.67,1,3.31,3.31,0,0,0-.49,1,3.56,3.56,0,0,0-.05,1.49c-.78-1.63-2-3.17-3.61-3.43A3,3,0,0,0,240,231c.59-.93-.06-2.12-.4-3a.23.23,0,0,0-.33-.13c-1,.61-2.16,2.68-1.51,3.92a7.43,7.43,0,0,0-.83-.07c-1.73,0-2.42,1.19-3.91,1.86-.17.08-.84.44-.8.57s.7.36.86.38a5.91,5.91,0,0,0,3.41-.21,1.93,1.93,0,0,0,1.08-1c.11-.21.2-.57.33-.87,2.64.49,3.83,2.75,4.58,5.16a21.66,21.66,0,0,0-2.86-.4,3,3,0,0,0-2,.61c-.15.11-.42.43-.24.5,1,.41,1.83,1.83,3.16,1.45a3.92,3.92,0,0,0,2.08-1.51c.22.8.41,1.6.6,2.34a13,13,0,0,0,2.54,5,6.27,6.27,0,0,1-.88,3.23.18.18,0,0,0,.28.22,3.7,3.7,0,0,0,1.05-2.76s.24.48.33.58.23.45.34.69a9.29,9.29,0,0,1-.9,4.61.21.21,0,0,0,.32.25,6.09,6.09,0,0,0,1.07-3.85c.73,1.4,1.66,2.61,3.48,2.38.24,0,.35-.42.06-.47a3.67,3.67,0,0,1-2.75-1.56,11,11,0,0,1-.74-1.24,6.74,6.74,0,0,0,3.65,1.46A.22.22,0,0,0,251.17,248.7Z" style="fill:#2a9cc8"/><path d="M223.4,207.09a2.86,2.86,0,0,0,1.92-2.67,2.79,2.79,0,0,0-.67-1.79A7.28,7.28,0,0,0,223.4,207.09Z" style="fill:#ffa348"/><path d="M222.38,201.57a2.85,2.85,0,1,0,0,5.7,3.12,3.12,0,0,0,1-.18,7.3,7.3,0,0,1,1.25-4.46A3,3,0,0,0,222.38,201.57Z" style="fill:#fff"/><path d="M228.82,210.46a2.94,2.94,0,0,0,.94.16c1.62,0,2.43-1.27,2.43-2.85a3.58,3.58,0,0,0-.32-1.53C229.34,205.66,227.62,207.59,228.82,210.46Z" style="fill:#ffa348"/><path d="M231.87,206.24a2.2,2.2,0,0,0-2.11-1.32,2.89,2.89,0,0,0-2.93,2.85,2.84,2.84,0,0,0,2,2.69C227.81,207.82,229.28,205.7,231.87,206.24Z" style="fill:#fff"/><path d="M203.27,204.42a.61.61,0,0,1-.56.19,2.79,2.79,0,0,0-.7,1.82,2.89,2.89,0,0,0,2.94,2.85,3.29,3.29,0,0,0,.54-.05A4.83,4.83,0,0,0,203.27,204.42Z" style="fill:#ffa348"/><path d="M207.88,206.43a2.89,2.89,0,0,0-2.93-2.85,3,3,0,0,0-2.24,1,3.73,3.73,0,0,1,2.3,1.69,5.19,5.19,0,0,1,.48,2.93A2.87,2.87,0,0,0,207.88,206.43Z" style="fill:#fff"/><path d="M196.25,210.41a2.85,2.85,0,0,0-.76,3.09,2.9,2.9,0,0,0,3.75,1.64h0C200.08,212.39,199,210.08,196.25,210.41Z" style="fill:#ffa348"/><path d="M200.42,211.63c-.45-1.62-1.67-2.4-3.18-1.83a2.94,2.94,0,0,0-1,.61c2.73-.33,3.67,2.48,3,4.73A2.74,2.74,0,0,0,200.42,211.63Z" style="fill:#fff"/><path d="M199.16,218.84c1.85,1,2.14,2.19.88,3.21s-3.75.2-5-.78c-1.92-1.52-.67-3.35,1.09-3.52S198.07,218.24,199.16,218.84Z" style="fill:#ffa348"/><path d="M237.64,211.88c1.85,1,2.27,2,1.3,2.8-1.25,1-4.09.28-5.32-.7-1.92-1.52-.76-3.27,1-3.44S236.55,211.29,237.64,211.88Z" style="fill:#ffa348"/><ellipse cx="213.67" cy="203.75" rx="2.93" ry="2.85" style="fill:#fff"/><path d="M188.35,191l11.91-2L218.41,169,199,172.55C197,181.5,188.35,191,188.35,191Z" style="fill:#fcc18b"/><path d="M252.47,157.22c-3.94.44-9.65,1.24-15.67,2.1l-.54-4.24-16.94,2.44.45,4.23h0l.66,5,8.2-9.07,8.76,6.56-.63-4.88Z" style="fill:#fcc18b"/><path d="M260,163.53l-20,2.62,15.73,11.78C257.59,175.05,260.44,169.55,260,163.53Z" style="fill:#fcc18b"/><path d="M237.43,164.22l2.56,1.93h0l-2.59-2Z" style="fill:#858fa9"/><path d="M259.1,159.07a18,18,0,0,0-.83-2.21c-.1-.22-2.18,0-5.8.36l-15.67,2.1.63,4.88,2.59,2,20-2.62A15.65,15.65,0,0,0,259.1,159.07Z" style="fill:#ffa348"/><path d="M218.46,169c.54-.64,1.6-1.75,2-2.23v0L218.41,169Z" style="fill:#858fa9"/><path d="M219.77,161.75v.08c-11.15,1.75-20.37,3.36-20.37,3.69a30,30,0,0,1-.16,5.37,16.08,16.08,0,0,1-.3,1.66L218.41,169l2.06-2.27-.66-5Z" style="fill:#ffa348"/><path d="M227.08,151.27c-4.93.69-7.78,3-7.55,6.29,0,.34-.06,2.28.05,2.6,2.73-.41,5.13-.78,7.89-1.18.33-.43.7-.82,1.16-1.35.53.37.91.7,1.31,1l6.74-.94C236,152.57,232.28,150.54,227.08,151.27Z" style="fill:#ffa348"/><rect x="223" y="150.26" width="7.77" height="1.85" transform="translate(-18.86 33.1) rotate(-8.01)" style="fill:#ffa348"/><polygon points="219.57 160.16 218.57 152.32 219.89 152.12 220.81 159.93 219.57 160.16" style="fill:#ffa348"/><polygon points="236.68 157.68 235.61 150.22 234.35 150.45 235.55 157.85 236.68 157.68" style="fill:#ffa348"/><path d="M206.61,187.75c-.29.32.18.8.47.48l25.17-27.51.14-.2a3.4,3.4,0,0,0-.5-.39C223.43,169.36,215.06,178.52,206.61,187.75Z" style="fill:#dcdde0"/><path d="M235.84,163l-24.54,26.8c-.29.32.19.8.48.48l24.6-26.88A4.69,4.69,0,0,0,235.84,163Z" style="fill:#dcdde0"/><path d="M240.05,166.33c-6.56,7.17-13,14.08-19.54,21.25a2.23,2.23,0,0,0,.61.32c6.54-7.14,12.86-14.09,19.4-21.23A2.31,2.31,0,0,0,240.05,166.33Z" style="fill:#dcdde0"/><path d="M244.33,169.43l-14.75,16.12a1.89,1.89,0,0,1,.61.32l14.66-16A1.75,1.75,0,0,1,244.33,169.43Z" style="fill:#dcdde0"/><path d="M248.57,172.68,238,184.28a3.42,3.42,0,0,0,.52.42l10.6-11.6C249,172.89,248.77,172.81,248.57,172.68Z" style="fill:#dcdde0"/><path d="M252.92,175.79q-3.53,3.86-7,7.7c.2.11.39.23.58.35l7-7.61A2.48,2.48,0,0,1,252.92,175.79Z" style="fill:#dcdde0"/><path d="M256,183c.35.26,0,.82-.37.56l-30-22.12-.18-.16a5.33,5.33,0,0,1,.42-.49Z" style="fill:#dcdde0"/><path d="M222.51,164.33l29.26,21.55c.35.25,0,.81-.37.55l-29.34-21.61A4.29,4.29,0,0,1,222.51,164.33Z" style="fill:#dcdde0"/><path d="M219,168.45c7.82,5.76,15.45,11.3,23.28,17.06a2.22,2.22,0,0,1-.54.44c-7.8-5.74-15.35-11.34-23.14-17.08A2.31,2.31,0,0,1,219,168.45Z" style="fill:#dcdde0"/><path d="M215.43,172.32l17.6,13a1.83,1.83,0,0,0-.54.43L215,172.86A1.65,1.65,0,0,0,215.43,172.32Z" style="fill:#dcdde0"/><path d="M211.9,176.32l12.67,9.33a2.7,2.7,0,0,1-.43.51l-12.65-9.33C211.55,176.61,211.73,176.5,211.9,176.32Z" style="fill:#dcdde0"/><path d="M208.24,180.22l8.4,6.19c-.18.15-.35.3-.51.46l-8.31-6.12A2.36,2.36,0,0,0,208.24,180.22Z" style="fill:#dcdde0"/><path d="M204.88,184.25l8.41,6.19c-.18.14-.35.3-.51.45l-8.31-6.11A3.06,3.06,0,0,0,204.88,184.25Z" style="fill:#dcdde0"/><path d="M215.13,185.27a4,4,0,0,0-1.84-3.12,3.36,3.36,0,0,0-1.42-.56,3.77,3.77,0,0,0-1.06,0c-.23,0-.79.25-1.15.3-.13-.17-.56,0-.57,0a.46.46,0,0,0-.07.07c-.3.48-2.62,2.34-4.24,1.89-.63-.17-1.72-1.68-2.46-.77-.43.53.68,2.06,2.17,2.66,2,.79,3.06-1.17,4,1.2.06.13,0,.7.2.68,2.64-.37,4.07-.58,5.95-1C216.93,186.19,215.17,186.06,215.13,185.27Z" style="fill:#414355"/><path d="M212.18,177.11a2.72,2.72,0,0,0-3.61-1.76.34.34,0,0,0-.14,0c-3.85,1.36-.21,8.93,3.1,6.51C212.91,180.87,212.7,178.49,212.18,177.11Z" style="fill:#ffa348"/><path d="M207.88,180.07c0-.69.06-2.56.75-3,2.16-1.29,3.33.17,3.69,1s.74-1.23-.25-2.64c-1.29-1.83-4.12-.74-5.45,1.09-1.11,1.53-1.85,2.6-1.34,4.78.13.75,1.34.71,1.76.5A2.38,2.38,0,0,0,207.88,180.07Z" style="fill:#858fa9"/><path d="M225.14,179.38c-.35,0-.68.73-.89,1-1,1.12-2.13.95-3.49.15a.33.33,0,0,0-.4,0,2.33,2.33,0,0,1-2.51.5c-.1-.09-.54-.26-.68-.18a4.34,4.34,0,0,0-2.25,2.64,4.45,4.45,0,0,0,.17,2c.25,1.15.46.89.67.87,1.39-.15,1.76-.21,3.21-.42,1.21-.18,2.51-.43,3.73-.61.18,0,.12-.43.08-.59s-.44-1.4-.26-1.44a9.68,9.68,0,0,0,2.27-.84,2.76,2.76,0,0,0,1.18-2.33C226,179.7,225.79,179.38,225.14,179.38Z" style="fill:#ffa348"/><path d="M220.57,176.14a2.45,2.45,0,0,0-3.39-.21c-1.16.44-1.44,2.4-1.15,3.46a2.87,2.87,0,0,0,4.3,1.49A3.11,3.11,0,0,0,220.57,176.14Z" style="fill:#858fa9"/><path d="M226.16,178.66c-.14-.09-.35-.18-.41-.37-.15-.46.1-1.2-.15-1.17-.51,0-.42,1.09-.7,1.48-.5-.08-.61-1.3-1-1.06s-.08.5-.05.61a11.34,11.34,0,0,1,.42,1.62c.19.59.62.68,1.3.45C226,180.07,226.85,179.07,226.16,178.66Z" style="fill:#858fa9"/><path d="M220,174.76c-.13-.4-1.61-.08-2,0a10.63,10.63,0,0,0-1.92.75c-1.12.63-1.14,1.28-.6,2.1.13.18.31.53.4.46.44-.36.64-.93,1.3-1.13a16.5,16.5,0,0,0,2.83-1.12C220.27,175.71,220.2,175.29,220,174.76Z" style="fill:#414355"/><path d="M203,181.27a1,1,0,0,0-1.69.21,1.6,1.6,0,0,0,.41,1.74.92.92,0,0,0,1.52-.2A1.63,1.63,0,0,0,203,181.27Z" style="fill:#ffa348"/><rect x="182.29" y="123.26" width="0.84" height="3.35" transform="translate(-23.64 44.85) rotate(-13.15)" style="fill:#414355"/><polygon points="193.5 118.59 182.96 105.83 180.9 107.53 180.89 107.48 177.76 108.11 181.03 124.34 184.16 123.71 181.12 108.62 191.03 120.63 193.5 118.59" style="fill:#858fa9"/><polygon points="181.14 101.36 178.94 102.05 177.85 99 176.59 99.45 177.66 102.45 175.44 103.15 178.01 110.42 184.49 107.73 181.14 101.36" style="fill:#414355"/><polygon points="194.3 122.26 191.03 120.63 193.5 118.59 194.3 122.26" style="fill:#414355"/><path d="M207.42,105.12c-6,.4-9.29,3-10.41,8.63-.07.34-.58,3.45-.57,3.94v.24l4,.36.47-2.19c4.27.51,8.5,1,12.71,1.5l-.26,1.9,4.24.51.16-.22a31,31,0,0,0,1-6.8C218.49,108.25,213.39,104.72,207.42,105.12Z" style="fill:#ffa348"/><path d="M214.42,114.47a5.85,5.85,0,0,0-.29-2.73c-.72-1.25-2.23-2.68-5.24-3-3.86-.42-5.79.84-6.54,2.1-.62,1-.91,2.39-1,2.22C206.41,113.63,209.35,114,214.42,114.47Z" style="fill:#fcc18b"/><polygon points="199.83 115.14 189.69 109.19 200 101.22 199.83 115.14" style="fill:#fff"/><path d="M145.08,68.67c-1.33-1.91-3.63-4.36-5.86-5.17a6.66,6.66,0,0,0-6.46,1.09c-.43.36-1.78,2.1-2.26,1.84a10.79,10.79,0,0,0-4-1.59c-2.74-.39-5.13,1.5-6.88,3.6-3.78,4.56-3.1,10.88-2.21,16.39.6,3.68,1.55,7.23,1,11a23.47,23.47,0,0,1-3.85,9.07.41.41,0,0,0,.36.62c3,0,7.32.6,9.53-2,1.08-1.24,1-2.31,1.11-3.92.12-2.39.62-4.64,1-7,.57-3.76-.41-7.8-.89-11.53a23.84,23.84,0,0,1,.14-7.86,6.62,6.62,0,0,1,1.79-3.17c1.12-1.16,2.64-1.1,4.11-1.14a35.49,35.49,0,0,0,5,.54c2.9.08,5.24.79,8.13.17C145,69.57,145.21,68.86,145.08,68.67Z" style="fill:#858fa9"/><path d="M139.39,97.24A5.52,5.52,0,0,0,137,95.81c-2.39-1-5.17-1.87-7.62-.64a.27.27,0,0,0-.1.41c-4.84,3.35-6.19,9.56-8.59,14.65a3,3,0,0,0-.25,2.48c3.81-1,7-1.54,10.56-2.46A67.93,67.93,0,0,1,139.39,97.24Z" style="fill:#414355"/><path d="M145.65,85.07c-1.57-2.6,2.61-3.44,4.13-4.28a1.11,1.11,0,0,0,.12-1.73c-2.58-1.34-3.93-3.13-5.91-5.18a33.69,33.69,0,0,1-3.3-3.95,7,7,0,0,0-2.42-2.43h-.05s0,0-.05,0c-2.38-1.18-5.53-.5-7.89.45-3.23,1.29-5.32,4-6.7,7.13-1.85,4.12-1.32,7.83-.22,12.08,1,3.8,2.31,7.61,5.3,10.3a17,17,0,0,0,7.67,3.76c3.9-5.11,4.78-7,12.15-9.6a10.41,10.41,0,0,0-.27-2.3C147.77,87.71,146.49,86.46,145.65,85.07Z" style="fill:#fcc18b"/><path d="M128.41,80.51a9.39,9.39,0,0,0,4,.42c1.34-.16,3.19-1.09,3.52-2.51s-1.34-2.6-2.43-2.94a3.76,3.76,0,0,0-4,1.12,5.09,5.09,0,0,0-1.14,3.91" style="fill:#fff"/><path d="M140.91,74.09a2.91,2.91,0,0,0-1.41,2.45c1,.54,2,.68,2.42-.68.13-.82-.5-2.45-1.27-1.23" style="fill:#fff"/><path d="M129.49,76.27a.24.24,0,0,0,.21.4,3.59,3.59,0,0,0,.32,2.66c.64,1.13,2.3,1,3.2.32s1.5-2.55.55-3.52A2.91,2.91,0,0,0,129.49,76.27Z" style="fill:#858fa9"/><path d="M141.23,73.48s0,0,0,0c-.66.13-.63,1.27-.56,1.79.11.79,1.07,2.3,2,1.81C144.05,76.4,142.4,72.82,141.23,73.48Z" style="fill:#858fa9"/><path d="M147.93,80.06a3.75,3.75,0,0,0-3.67,0,4.16,4.16,0,0,0-1.52,1.1,11.58,11.58,0,0,0-.64,1s-.07-.13-.24-.27a3,3,0,0,0-2.15-.79,8.6,8.6,0,0,0-.7-2.65c-.39-1.08-.59-2.25-1.08-3.29a6.44,6.44,0,0,0-4.48-3.75c-4.56-1-7.82,3-7.59,7.29a.28.28,0,0,0,.55.07c.6-1.81.63-3.45,2.09-4.9a5.82,5.82,0,0,1,5.06-1.25,5.71,5.71,0,0,1,4,3.67,27.79,27.79,0,0,1,1.53,4.92,2.7,2.7,0,0,0-1.9,3.28.34.34,0,0,0,.66,0,4.33,4.33,0,0,1,.62-1.62c.82-1.35,2.46-.85,3.15.3a.42.42,0,0,0,.37.21c.68,0,.83-.93,1.09-1.45.85-1.69,3.05-2.08,4.67-1.47C148,80.52,148.11,80.18,147.93,80.06Z" style="fill:#2a9cc8"/><path d="M136.52,78.54l.21-.18a.3.3,0,0,0,.07-.27,4.8,4.8,0,0,0-5.2-3.22c-2.61.37-3.87,3.43-3.52,5.75a.19.19,0,0,0,.37,0c.34-2.16.44-4.18,2.85-5.09,1.79-.67,4.73,1,5,3,0,.11.15.12.22.06Z" style="fill:#2a9cc8"/><path d="M141.25,72.24a4.84,4.84,0,0,1-1.14,2.05,12.21,12.21,0,0,0-1.19,2.19.35.35,0,0,0,.21.51c.78.19,1.55.43,2.31.68a7.09,7.09,0,0,1,2.43.93.38.38,0,0,0,.54-.53A4,4,0,0,0,142.48,77a7.37,7.37,0,0,0-3.26-.65l.34.44a8.6,8.6,0,0,1,1.27-2.44,3.56,3.56,0,0,0,.84-2c0-.24-.37-.3-.42-.06Z" style="fill:#2a9cc8"/><path d="M142.05,91.18a6,6,0,0,0,4.46-2.53c1-1.42-.28-1.75-1.55-1.7a16.66,16.66,0,0,0-4.37,1.24c-1.59.54-3.28.51-4.85,1.15h0a.18.18,0,0,0-.22.28h0a.29.29,0,0,0,.32.33C137.26,91.21,140.35,91.3,142.05,91.18Z" style="fill:#dcdde0"/><path d="M146.81,86.85c-.72-1-3.32-2-3.7-.1-1.11-.72-2.16-.62-2.53.69-1.73-1-4.79-.67-5.43,1.52a.4.4,0,0,0,.38.5,37.67,37.67,0,0,0,6.71-.31,10.66,10.66,0,0,0,4.34-1.54.26.26,0,0,0,.36-.09.32.32,0,0,0,0-.16A.28.28,0,0,0,146.81,86.85Z" style="fill:#ffa348"/><path d="M130.5,101.53c-1.63.31-2.64,1.52-3.92,2.4a62.6,62.6,0,0,0,4.2-9.59c.16-.46,2.12-5.16,1-5.47-1.59-.42-3.54,3-4,4.17-.12.3-.22.61-.32.92.36-1.82,1-4.89-.21-6.47a.31.31,0,0,0-.47-.06,7.64,7.64,0,0,0-1.45,2.8,28.76,28.76,0,0,0-1.82,5.16c-.38,1.78-.5,3.64-.71,5.46,0,0,0,.08,0,.11,0-.57,0-1.14-.1-1.71-.09-1.15.21-3.46-1-4.19a.33.33,0,0,0-.36,0c-1,.61-.94,2.22-1.13,3.21-.45,2.19-.9,4.37-1.23,6.58-.46,3.09-.86,5.6-1.33,8.69,2.31-.67,4.07-1.09,6-1.55a8.61,8.61,0,0,1,.78-1.16,34.29,34.29,0,0,1,2.88-3.59c.9-1,1.87-1.95,2.83-2.88.57-.55,1.27-.85,1.6-1.61C132.15,101.78,131.31,101.38,130.5,101.53Z" style="fill:#ffa348"/><path d="M122.27,108.86l-.64-.18a23.06,23.06,0,0,0,.67-7.53c0-.22,0-.55,0-.92a10.08,10.08,0,0,0-.18-2.69l.65-.18a10.89,10.89,0,0,1,.2,2.89c0,.35,0,.65,0,.86A23.57,23.57,0,0,1,122.27,108.86Z" style="fill:#414355"/><path d="M125.43,102.39l-.59-.32A20.89,20.89,0,0,0,127,96.2a21.85,21.85,0,0,0,0-7.9l.65-.15a22.6,22.6,0,0,1,0,8.2A21.82,21.82,0,0,1,125.43,102.39Z" style="fill:#414355"/><path d="M124.5,107.43l-.58-.34,0-.08a15.36,15.36,0,0,1,2.37-3.32l.3-.29a17.15,17.15,0,0,1,1.73-1.61l.41.53a19.56,19.56,0,0,0-1.67,1.55l-.3.3a14.57,14.57,0,0,0-2.26,3.18Z" style="fill:#414355"/><path d="M49.31,133.05c-.77-1.87-1.84-3.81-1.46-5.76a4.1,4.1,0,0,1,2.65-3.4c2.22-.63,4.38.29,6.17,1.58,1.6,1.16,3.55,2.9,4,4.89a.59.59,0,0,1,0,.23l5.54-1.51L51,113.43l-22.81,4.31s5,5.53,8.55,9.55a46.59,46.59,0,0,0,8.89,7.38l3.68-1A.4.4,0,0,1,49.31,133.05Z" style="fill:#fcc18b"/><path d="M60.69,130.36c-.47-2-2.43-3.73-4-4.89-1.79-1.29-4-2.21-6.17-1.58a4.1,4.1,0,0,0-2.65,3.4,7.56,7.56,0,0,0,.72,5,4.81,4.81,0,0,0,.77,1.4l11.34-3.08A.44.44,0,0,0,60.69,130.36Z" style="fill:#fff"/><path d="M49.35,118.72a3.91,3.91,0,0,0-4.61,1.08,2.86,2.86,0,0,0-1.08,4.56c1.82,2.47,4.92,1.57,7,0C52.87,122.62,51.34,119.81,49.35,118.72Z" style="fill:#ffa348"/><path d="M84.64,140.79l-15.06-8.36-19.9,6s6.71,5.26,10.74,8.11,11.4,5.86,11.4,5.86l2.82-1.28a.76.76,0,0,1-.09-.18c-2.45-3-6.37-5.29-7-9.4s5.12-2.79,7.11-1.71a16.8,16.8,0,0,1,2.7,1.7,27.28,27.28,0,0,0,3.08,2.63c.83.49,2.56,1.26,2.64,2.41a1.45,1.45,0,0,1-.17.78l1-.48A30.07,30.07,0,0,0,84.64,140.79Z" style="fill:#ffa348"/><path d="M80.45,144.2a26.43,26.43,0,0,1-3.08-2.63,17.53,17.53,0,0,0-2.7-1.7c-2-1.08-7.73-2.39-7.11,1.71s4.54,6.38,7,9.4a.76.76,0,0,0,.09.18l8.28-3.77a1.45,1.45,0,0,0,.17-.78C83,145.46,81.27,144.69,80.45,144.2Z" style="fill:#fcc18b"/><path d="M74.17,139.5a4.13,4.13,0,0,0-2.53-2.89,2.88,2.88,0,0,0-3,.16,5,5,0,0,0-4.08,4.39c-.3,2.62,2.5,4.7,4.94,4.34C72.84,145,74.78,142.86,74.17,139.5Z" style="fill:#f8f8fa"/><path d="M50.87,119.34c-.63-1.36-3.07-2.67-4.58-2.1A24.47,24.47,0,0,0,43,118.68c-.56.32-.78,1.15-1,1.7-.3.82-.93,3.24.64,3.24,1,0,.87-1.44.8-2.4.34-.76,1.78-1.6,2.25-1.91,2.14-1.42,2.83.68,4.8.74A.48.48,0,0,0,50.87,119.34Z" style="fill:#858fa9"/><path d="M72.14,135.8a9.74,9.74,0,0,0-4.64-.18c-2.13.51-2.39,1.82-3.7,3.32a10.1,10.1,0,0,0-2.37,3.5A2.08,2.08,0,0,0,63.11,145c1.61.13,2.74-1.29,3.48-2.54a24.71,24.71,0,0,0,1.07-3.14,3.48,3.48,0,0,1,2.28-1.7c.94.16,2.79,1,3.41,0S72.93,136.05,72.14,135.8Z" style="fill:#dcdde0"/><path d="M249.41,225.53l-.18-.64a148.66,148.66,0,0,0,14.94-5.57l.27.61A146.32,146.32,0,0,1,249.41,225.53Z" style="fill:#fff"/><path d="M251.21,227.88l-.2-.64c2-.63,3.44-1.12,5.4-1.89l2-.76c2.23-.86,5.61-2.16,7.81-3l.25.62c-2.21.88-5.58,2.18-7.81,3l-2,.77C254.68,226.75,253.22,227.24,251.21,227.88Z" style="fill:#fff"/><path d="M252.84,231.09l-.33-.58a81,81,0,0,1,9.86-4.16c2.06-.77,4-1.51,5.71-2.23l.26.62c-1.72.73-3.67,1.46-5.74,2.24A81.91,81.91,0,0,0,252.84,231.09Z" style="fill:#fff"/><path d="M254.72,233.34l-.29-.61c3.28-1.55,8.33-3.58,15-6l.23.63C263,229.77,258,231.8,254.72,233.34Z" style="fill:#fff"/><path d="M255.83,235.58l-.28-.61c1.17-.54,2.57-1.12,3.93-1.68s2.59-1.07,3.68-1.56l.27.61c-1.1.5-2.42,1-3.69,1.57S257,235,255.83,235.58Z" style="fill:#fff"/><path d="M265.4,231.68l-.18-.64c.48-.14,1.29-.41,2.16-.7a36.75,36.75,0,0,1,3.57-1.1l.12.66c-.63.11-2.14.62-3.48,1.07C266.72,231.27,265.9,231.54,265.4,231.68Z" style="fill:#fff"/><path d="M257.18,237.92l-.28-.61c2.1-1,5.17-2.1,8.13-3.2,2.6-1,5-1.87,6.74-2.61l.27.61c-1.71.76-4.17,1.67-6.77,2.63C262.31,235.84,259.26,237,257.18,237.92Z" style="fill:#fff"/><path d="M163.78,211.34l-.16-.65c1.57-.41,3-.88,4.47-1.34,1.28-.42,2.61-.85,4-1.22l3-.77c3-.76,6.37-1.61,9.05-2.58l.23.63c-2.71,1-6.11,1.84-9.12,2.6l-3,.77c-1.35.36-2.61.77-3.94,1.2S165.38,210.93,163.78,211.34Z" style="fill:#fff"/><path d="M163.1,214.14l-.14-.66a62.43,62.43,0,0,0,10.88-3.55l.29.61A64.45,64.45,0,0,1,163.1,214.14Z" style="fill:#fff"/><path d="M176.71,210.34l-.09-.66a54,54,0,0,0,6.08-1.53l1.25-.36.18.64-1.25.36A53.92,53.92,0,0,1,176.71,210.34Z" style="fill:#fff"/><path d="M163.55,216.93l-.15-.65c1.75-.42,4.14-1.27,6.46-2.09,2-.7,3.82-1.35,5.26-1.75,2.77-.75,5.91-1.66,8.38-2.42l.19.65c-2.47.76-5.61,1.66-8.4,2.42-1.41.39-3.25,1-5.21,1.73C167.75,215.65,165.34,216.5,163.55,216.93Z" style="fill:#fff"/><path d="M164.9,219.39l-.17-.65c2.55-.67,5.73-1.81,8.53-2.82,1.37-.49,2.65-.95,3.75-1.31l.21.64c-1.09.36-2.37.82-3.73,1.3C170.67,217.56,167.48,218.71,164.9,219.39Z" style="fill:#fff"/><path d="M179.2,214.58l-.15-.65c.71-.17,1.41-.41,2.1-.64a21,21,0,0,1,2.38-.7l.14.65a20.92,20.92,0,0,0-2.3.69C180.66,214.16,179.94,214.41,179.2,214.58Z" style="fill:#fff"/><path d="M165.69,221.73l-.18-.64c4.81-1.39,12.46-3.86,17.53-5.59l.22.64C178.18,217.86,170.52,220.34,165.69,221.73Z" style="fill:#fff"/><path d="M168.17,223.63,168,223l1.16-.38c3.09-1,7.77-2.61,10.17-3.09l.13.66c-2.36.47-7,2-10.09,3.06Z" style="fill:#fff"/><path d="M259.08,240.83l-.29-.61c2.28-1.11,5.51-2.35,8.62-3.55,2.23-.86,4.33-1.68,5.92-2.38l.27.62c-1.6.7-3.71,1.52-6,2.38C264.55,238.49,261.34,239.73,259.08,240.83Z" style="fill:#fff"/><path d="M187.09,194.14l-.06-.67c3-.25,5.9-.79,8.48-1.25,1.73-.32,3.21-.59,4.37-.71a72.55,72.55,0,0,0,10.18-1.83l.17.65A72.54,72.54,0,0,1,200,192.18c-1.13.12-2.61.39-4.32.7C193,193.35,190.09,193.88,187.09,194.14Z" style="fill:#fff"/><path d="M212.37,190l-.09-.67,2.3-.27a45.64,45.64,0,0,0,6.6-1.06l.17.65a47.08,47.08,0,0,1-6.69,1.08Z" style="fill:#fff"/><path d="M223.77,188.32l-.09-.66c3.7-.5,9.34-1.3,13.07-1.9l.11.66C233.12,187,227.47,187.82,223.77,188.32Z" style="fill:#fff"/><path d="M152.36,58.32l-.12-.66c6.3-1.21,15.38-2.53,18-2.91l.09.67C167.72,55.79,158.65,57.11,152.36,58.32Z" style="fill:#fff"/><path d="M154.16,60.55,154,59.9c1.86-.39,4.26-.75,6.8-1.13a71.31,71.31,0,0,0,10.37-2l.22.63a70.81,70.81,0,0,1-10.49,2C158.39,59.81,156,60.17,154.16,60.55Z" style="fill:#fff"/><path d="M155.46,62.35l-.07-.67a39.83,39.83,0,0,0,8.87-1.77l.22.63A40.57,40.57,0,0,1,155.46,62.35Z" style="fill:#fff"/><path d="M167.1,60.11l-.1-.66c.78-.12,1.48-.19,2.17-.26a16.42,16.42,0,0,0,3.59-.62l.21.63a16.85,16.85,0,0,1-3.74.66C168.56,59.93,167.86,60,167.1,60.11Z" style="fill:#fff"/><path d="M156.73,64.69l-.14-.66c3.64-.79,8.81-1.66,13-2.36l3.82-.66.11.66-3.81.66C165.52,63,160.36,63.9,156.73,64.69Z" style="fill:#fff"/><path d="M157.77,67.7l-.21-.64a60.87,60.87,0,0,1,9.58-1.84,74.47,74.47,0,0,0,7.43-1.29l.17.65c-2.15.54-4.75.91-7.51,1.3A61.42,61.42,0,0,0,157.77,67.7Z" style="fill:#fff"/><path d="M158.87,70.61l-.18-.65c1.28-.37,2.55-.65,3.78-.92s2.6-.58,3.93-1l.19.65c-1.36.4-2.69.7-4,1S160.14,70.24,158.87,70.61Z" style="fill:#fff"/><path d="M160,74.41l-.18-.65a112.89,112.89,0,0,1,12.93-2.54l1-.15.1.66-1,.16A110.67,110.67,0,0,0,160,74.41Z" style="fill:#fff"/><path d="M160.86,77.1l-.13-.66c2.56-.52,5.41-1,8.16-1.42s5.06-.82,7.26-1.26l.14.66c-2.22.44-4.68.84-7.29,1.26S163.41,76.58,160.86,77.1Z" style="fill:#fff"/><path d="M161.09,79.78l-.14-.66c1.33-.27,3-.56,4.66-.86s3.46-.62,4.95-.93l.14.66c-1.51.31-3.27.62-5,.93S162.41,79.5,161.09,79.78Z" style="fill:#fff"/><path d="M161.07,82.58l-.1-.66a131.12,131.12,0,0,0,13.6-2.79l.17.65A134.67,134.67,0,0,1,161.07,82.58Z" style="fill:#fff"/><path d="M161.29,85.82l-.1-.66c3.42-.5,6.77-1.27,9.47-1.88l2.58-.58.14.66-2.57.57C168.1,84.55,164.73,85.32,161.29,85.82Z" style="fill:#fff"/><path d="M158.5,140.25l-.11-.66c1.84-.31,3.63-.52,5.36-.73,2-.24,3.89-.46,5.8-.83,3-.57,5.79-1,8-1.34,1.79-.27,3.21-.48,4-.67l.15.65c-.85.2-2.27.41-4.08.69-2.24.34-5,.76-8,1.33-1.94.38-3.84.6-5.85.84C162.11,139.73,160.33,139.94,158.5,140.25Z" style="fill:#fff"/><path d="M157.36,142.72l-.07-.67c5.7-.58,11.92-1.51,17.07-2.57l.14.66C169.33,141.2,163.08,142.14,157.36,142.72Z" style="fill:#fff"/><path d="M176.7,139.92l-.07-.66c2.61-.29,5.51-.72,8.31-1.14,1.87-.28,3.64-.54,5.32-.76l.09.66c-1.67.22-3.44.49-5.31.76C182.23,139.2,179.32,139.64,176.7,139.92Z" style="fill:#fff"/><path d="M154.92,145.51l-.1-.66c2.27-.33,4.69-.61,7-.88,4.12-.47,8.37-1,11.72-1.69l.14.66c-3.38.73-7.65,1.22-11.78,1.7C159.6,144.91,157.17,145.19,154.92,145.51Z" style="fill:#fff"/><path d="M152.34,148.42l-.08-.67c5.92-.76,12.36-1.56,17.88-2.23l.08.66C164.71,146.86,158.27,147.65,152.34,148.42Z" style="fill:#fff"/><path d="M172.12,145.85l-.07-.67c2.31-.23,4.36-.56,6.52-.91,1.63-.26,3.32-.52,5.21-.77l.08.67c-1.87.24-3.55.51-5.18.77C176.5,145.28,174.45,145.61,172.12,145.85Z" style="fill:#fff"/><path d="M175.6,142.6l-.1-.66,2-.3c1.83-.29,3.9-.61,5.29-.71l.05.67c-1.37.09-3.42.42-5.24.7Z" style="fill:#fff"/></svg>