<svg xmlns="http://www.w3.org/2000/svg" viewBox="0 0 350 350"><path d="M90,225.06l-30.51.08a16.4,16.4,0,0,0-.78-2.63c-1.23-3.17-4.36-5.09-7.8-5.89L38.32,158h0c-.1,0-.28-.82-.36-1.16a19.21,19.21,0,0,0-2.61-6,13.42,13.42,0,0,0-10.09-6.23c-3.68-.34-8.47.29-11.46,2.67S8.58,154.11,9.49,158a.45.45,0,0,0-.19.53,34.4,34.4,0,0,0,1.53,4l20.06,64.9h0l1.69,7.62h0l-7.31,57.54h0l0,.13c-.08.79.67,1.33,1.55,1.29A1.33,1.33,0,0,0,28.19,293h0l.07-.5a.59.59,0,0,1,0-.13v0l7.19-56.61L71,236l7.84,57H79c.08.65.86,1,1.66.95s1.16-.56,1.18-1.34h0L74.1,236l15.9.1Zm-57.11-67.4c.23.19.59.52,1,.89.11,1.66.49,3.44.62,4.92.33,3.66.94,7.29,1.52,10.91s1.18,7.49,1.82,11.24a4.43,4.43,0,0,0-.84-.06c-.79-3.16-1.57-6.32-2.27-9.49-1.09-5-1.84-10-2.92-15-.33-1.53-.57-3.14-1-4.67A10,10,0,0,1,32.89,157.66ZM29.68,156c.26,1.5.61,3,.9,4.52,1,5,1.79,10,2.82,15,.71,3.43,1.49,6.84,2.31,10.24a12.61,12.61,0,0,0-1.41.35l-3.48-13.56c-1.21-4.73-2.78-9.31-4.14-14a32.27,32.27,0,0,0-1-3.11A12.06,12.06,0,0,1,29.68,156Zm-5-.53c.71,2,1,4.42,1.52,6,1.6,4.68,2.75,9.49,4,14.27q1.39,5.43,2.85,10.83l-.79.39c-.86-2.5-1.77-5-2.73-7.42-1.73-4.42-3.93-8.63-5.88-13-1.34-3-2.62-6-4.08-8.93A9,9,0,0,1,24.69,155.44Zm-6,3c1.05,2.3,2.08,4.62,3.09,6.94,2.1,4.84,4.56,9.5,6.53,14.39,1,2.57,1.95,5.19,2.8,7.82a3,3,0,0,0-1,1.26c-1.26-2.72-2.58-5.38-3.84-8-2.82-5.82-5.24-12.53-9.49-17.57A11.38,11.38,0,0,1,18.74,158.48Zm23.33,58c-3.38.43-6.89,1.84-8.87,4.72a7.23,7.23,0,0,0-.75,1.21L15.54,167.89a10,10,0,0,0,.88-2.79c0-.2.09-.4.14-.6,3.58,5.22,6,11.39,8.72,17,1.91,3.93,3.71,7.91,5.32,12s2.69,8.12,4.23,12.11a.59.59,0,0,0,1.13-.31c-.27-1.38-.62-2.75-1-4.11a1.72,1.72,0,0,0,.39,0c.68,2.14,1.39,4.27,2.17,6.37a.42.42,0,0,0,.8-.22q-.84-3.28-1.76-6.59l.27-.16c.61,2.13,1.28,4.24,2,6.3a.39.39,0,0,0,.75-.21c-.46-2.3-1-4.59-1.63-6.86a10.15,10.15,0,0,1,1-.64c.5,2.13,1,4.27,1.46,6.41.14.65,1.09.36,1-.27-.35-2.23-.79-4.45-1.26-6.66a3.17,3.17,0,0,0,.37-.15c.09.36.17.72.27,1.07.16.61,1,.35.93-.26l-.27-1.43a4.22,4.22,0,0,0,.67-.76.43.43,0,0,0,0-.57c.12-1.52-1.14-3.34-1.64-4.61-.68-1.7.06-3.85-1-5.29q-1-5.81-1.87-11.63c-.65-4.13-1.31-8.26-1.84-12.41-.1-.77-.14-1.8-.26-2.84a5.42,5.42,0,0,0,1,.51l12,56.2A27.46,27.46,0,0,0,42.07,216.45Z" style="fill:#414355"/><path d="M105.72,109.07c-1.27-1.09-2.91-1.79-4.3-2.77s-1-4-1.65-5.55a12.36,12.36,0,0,0-6.12-6.14,6.22,6.22,0,0,0-4.31-1.26,21.8,21.8,0,0,0-9.23,2.52,18.25,18.25,0,0,0-6.25,6.94c-1.53,2.81-2.94,5.72-3,9a45.4,45.4,0,0,0,1.19,10.45,22.1,22.1,0,0,1-.56,12.27c-.1.3-.88,1.46-.41,1.93a19.94,19.94,0,0,0,3,2c1.43,1,2.68,2.15,4.09,3.14,1.19.84,2.63,1.29,3.88,2a.39.39,0,0,0,.47-.06c.79-.8.76-1.83,1.12-2.86.65-1.9.77-3.85,1.74-5.66,1.3-2.44,4.85-1.71,6.47-1.69,6.58.08,9.29-6.07,10.07-9.27.28-1.12,1-2.64.48-3.78a4.09,4.09,0,0,0-1.25-.75l-1.69-1c-.05,0-2.64-1.5-.7-1.51.24,0,.48,0,.72,0s.63,0,1,0h1.17c.32,0,.57,0,.8,0a1.86,1.86,0,0,0,.94,0c.7-.19.79-.76.72-1.39-.13-1.3-1.23-2.25.55-3.61a8.28,8.28,0,0,0,1.31-1.27A1.29,1.29,0,0,0,105.72,109.07Z" style="fill:#858fa9"/><path d="M94.34,93.5c-3.63-3-5.88-3.23-9-4.07-3.63-1-9.85-1.55-13.24.66-.66.43-1.18,1.65-2.12,1.54s-2-.45-3.08-.49a6.53,6.53,0,0,0-5.19,2.36c-1.18,1.4-.51,5.3-3.21,4.73-1.73-.36-3.76-.12-4.6,1.33-1.2,2,.1,4.17-2.12,5.61a7.27,7.27,0,0,0-3.13,3.7,4.61,4.61,0,0,0,.83,4.27c1.38,1.88,3.48,2.18,4,3,1.19,1.79-.81,3.5,1.55,5.72,2.1,2,4.79.24,6.19,1.25s1.1,2.74,2.72,3.45,3.54.06,5-.26,2.44,1,3.15,1.54a1.44,1.44,0,0,0,.91.32c1.8-.08,2.54-.87,4-1.91.71-.52,1.39-1.12,2.06-1.69s1.4-1.74,2.21-2.26c.63-.41,1.28-.9,1.11-1.67a.37.37,0,0,0-.35-.26,6.63,6.63,0,0,1-6.06-5.89,4.49,4.49,0,0,1,1.22-3.9c1.69-2,3.94-1.69,6.24-1.57a.67.67,0,0,0,.66-.66c.12-1.22-.18-2.38.06-3.66a49,49,0,0,1,1.25-5.36c1.25-4.09,4.71-4.23,8.34-4a3.26,3.26,0,0,0,1.38,0C95.67,95.15,95.07,94.1,94.34,93.5Z" style="fill:#414355"/><path d="M97.46,99.18c.58-1.07-3.5-2.28-5.22-1.37-2.25,1.19-2.93,2.71-2.8,5.25a.3.3,0,0,0,.59,0,4.82,4.82,0,0,1,1.74-3.78,3.71,3.71,0,0,1,2.88-.69,5.2,5.2,0,0,1,2,.81A.54.54,0,0,0,97.46,99.18Z" style="fill:#414355"/><path d="M96.9,104.47c0,1-.56,1.59-1.25,1.59a1.65,1.65,0,0,1-1.5-1.54,1.45,1.45,0,0,1,1.5-1.63C96.34,102.89,96.9,103.51,96.9,104.47Z" style="fill:#414355"/><path d="M113.16,171c-.85.17-9.77,2.65-9.22.55.37-1.44,1.19-2.8,1.29-4.31.21-3-2.36-2.37-4-1.11-3,2.22-4.76,5.93-6,9.37a.33.33,0,0,0,0,.26c-1.39,1.59-3.15,4.13-2.06,6,1.46,2.51,4.59,2.09,7.1,1.84,4.09-.41,7.49-.57,11.2-2.58,2.48-1.34,6.57-3.77,6.51-7.11C117.93,171.34,115.4,170.52,113.16,171Z" style="fill:#858fa9"/><path d="M107.08,175.55a13.38,13.38,0,0,0,10.6-3.09c.2-.17-.05-.44-.27-.34-3.47,1.56-6.32,3-10.26,2.94-.27,0-.34.44-.07.49Z" style="fill:#414355"/><path d="M107.47,178.87c1.61.4,3.12-.22,4.59-.86,2-.88,4-1.45,5.64-3,.22-.22-.11-.54-.35-.34a13.43,13.43,0,0,1-5,2.66c-1.7.51-3,1.31-4.81,1.19-.21,0-.25.33,0,.38Z" style="fill:#414355"/><path d="M121,128.47c-3.21,1.64-7,.82-9.83-1.29-.29-.22-.63.09-.66.38-.5,5-2.35,10-4.29,14.54-.82,1.94-2.33,7-5.19,6.31-2.22-.52-4.13-2.9-5.89-4.25-4.09-3.11-8.46-6.63-13.23-8.62-2.09-.88-6.49-2.55-8.63-1.09a25.45,25.45,0,0,0-16.6,6.27c-4.76,4.09-7.89,9.63-10,15.44-2.38,6.43-3.48,13.27-5,19.94-1.6,7.06-4.64,13.64-6.55,20.6-3.26,11.92-.3,26.84,13.23,30.29,6.5,1.65,13.68.57,20.24-.11,7.7-.8,15.5-1.57,23.14.17a35.82,35.82,0,0,1,5.07,1.57c.42.17.85-.32.73-.72-1.48-4.71-1.75-9.72-2.14-14.62-.32-3.94,0-7.59-2.13-11.08-1.57-2.6-3.56-5-6.39-6.23-1.7-.72-3.59-1.27-5-2.55-1.55-1.44,3.21-3.5,4.07-3.91,2.09-1,4.11-2.13,6.25-3a10.77,10.77,0,0,0,3.3-1.61c.76-.68.68-1.91.6-2.81a44.66,44.66,0,0,1-.09-4.48c0-1.41.21-2.61-1.59-2.29A14.48,14.48,0,0,0,91,176.7a24.77,24.77,0,0,1-6.32,1.91A22.71,22.71,0,0,0,89.3,171c1.37-3.34,2.24-7,1.38-10.48A40.9,40.9,0,0,0,96,161.83c4.2.83,8.75,1.37,12.57-.9,4.69-2.78,7.4-8.31,9.43-13.12a47.57,47.57,0,0,0,3.55-19A.39.39,0,0,0,121,128.47Z" style="fill:#ffa348"/><path d="M65.92,143.21c2,1.77,2.9,4.91,3.55,7.39a36.32,36.32,0,0,1,.88,9.7c0,4.7-1.16,9.54-.17,14.19,2.3,10.73,19.45,3.24,25.49,1.11.48-.16.27-.93-.21-.76-5.14,1.81-10.66,4.07-16.16,4.32-3,.13-6.21-.91-7.27-3.93a15.61,15.61,0,0,1-.5-6.2,56.17,56.17,0,0,0-.48-15.27c-.67-3.32-1.82-8.85-4.88-10.88-.2-.14-.43.17-.25.33Z" style="fill:#414355"/><path d="M55.54,157.78c-1.73,3.68-1.42,8.21-1.49,12.17a38.65,38.65,0,0,0,1.59,12.65,13.19,13.19,0,0,0,5.61,7.31c3.79,2.37,8.25,2.11,12.48,1.63a.32.32,0,0,0,0-.63c-1.78-.11-3.55.21-5.33.26a14.17,14.17,0,0,1-6.75-1.94c-3-1.7-4.63-4.92-5.57-8.13C54,173.85,54.59,165.29,56,158c0-.23-.3-.42-.41-.17Z" style="fill:#414355"/><path d="M69.63,196.05c-5,2.22-11.77.39-16.75-1.08a33,33,0,0,1-13.82-7.74c-.31-.29-.94,0-.77.45.89,2.37,3.35,3.74,5.4,5a35.12,35.12,0,0,0,8.81,3.68,37.54,37.54,0,0,0,9.5,1.32c2.46.05,5.69.08,7.83-1.29a.2.2,0,0,0-.2-.35Z" style="fill:#fcc18b"/><path d="M37.2,201.12c2.59-1.12,5.07-2.46,7.67-3.54,1.88-.78,4.31-1.91,6.36-1.9a.29.29,0,0,0,0-.57c-2.17-.06-4.53,1-6.53,1.83a60.2,60.2,0,0,0-7.77,3.72c-.3.18,0,.59.27.46Z" style="fill:#fcc18b"/><path d="M147.89,287.49c-6.3-3.55-13.93-5.84-16.65-13.36a.36.36,0,0,0-.43-.25c-2.41.37-4.83.71-7.22,1.17a50.88,50.88,0,0,0-7.46,2.37c.05-.1.1-.21.14-.31s-.26-.35-.39-.16-.28.48-.41.72h0a.42.42,0,0,0-.26.52,11.87,11.87,0,0,0-.08,10.66c.68,1.36,1.36,3.57,2.61,4.54a1.31,1.31,0,0,0,1.12.2c1.28-.35,2.56-.57,3.84-.91a.48.48,0,0,0,.35-.46c0-1.68-.58-3.27-.68-5,0-.95-.54-2.06.82-.94.45.38,1,.73,1.43,1.08a31.58,31.58,0,0,0,9.1,4.6,27.06,27.06,0,0,0,14.65.85c1.13-.26,2.36-.68,2.81-1.82C151.8,289.46,148.82,288,147.89,287.49Z" style="fill:#414355"/><path d="M127.86,256.43a150.84,150.84,0,0,0-5.78-17.68c-1.75-4.36-4.42-3.43-8.14-1.7a48.9,48.9,0,0,0-7.5,4c-2,1.43-3,3.64-4.5,5.5a.2.2,0,0,0-.22.26l-.19.23a.52.52,0,1,0,.8.66,26,26,0,0,1,1.15,2.69c.54,1.29,1,2.61,1.47,3.93,1,2.66,1.75,5.34,2.52,8.06a82.44,82.44,0,0,0,2.73,7.93c1.12,2.81,2.57,5.65,3.18,8.62a.73.73,0,0,0,.88.5c1.13-.26,2.1-.92,3.22-1.26a37.9,37.9,0,0,1,4.85-.87c3-.47,6-1,9-1.52a.54.54,0,0,0,.41-.54C131.16,268.81,129.51,262.65,127.86,256.43Z" style="fill:#ffa348"/><polygon points="165 189.01 84.9 189.01 82.9 189.01 70 189.01 70 200.01 83.66 200.01 86.9 247.01 86.92 247.01 90.23 296.7 98.82 296.59 106.49 246.93 165 247 165 189.01" style="fill:#2a9cc8"/><path d="M206.14,247.05l12.28,49a10.12,10.12,0,0,0,3-.17,4.81,4.81,0,0,0,2.41-1.17L212.7,247c21.89-.8,39.83-26.65,39.83-58,0-.08-81.63,0-81.63,0H165v58Z" style="fill:#414355"/><path d="M26.57,208.76c.78,0,1.51.32,2.32.29s1.43-.11,2.13-.2c1.42-.18,2.82-.45,4.22-.71,2-.37,4-.85,6-1.24.74-.14,1.49-.29,2.24-.41l.64-.1c-.09,0-.48.06,0,0l1.62-.15c2.17-.18,4.56-.53,6.65.29a7.17,7.17,0,0,1,2.2,1.36,5.74,5.74,0,0,1,.41.45c.36.39-.31-.46,0,0,.09.15.19.29.29.44a28.39,28.39,0,0,1,2,4A88,88,0,0,1,61,223.54c.54,2,1,4,1.44,6,.15.74.29,1.49.39,2.24-.09-.69.12,1,.12,1a3,3,0,0,0,.27.66c-.08-.14.87,1.11.3.37a2,2,0,0,0,3.3,0c1-1.39.4-3.25.11-4.8-.33-1.76-.74-3.5-1.2-5.23a107.63,107.63,0,0,0-3.8-12c-1.3-3.34-2.66-6.69-5.79-8.7-4.12-2.66-9.56-1.93-14.15-1.14-2.17.37-4.31.92-6.44,1.45-1.5.38-3,.77-4.47,1.22-.83.26-1.64.55-2.45.85a8.06,8.06,0,0,0-1.06.42c-.54.29-.94.78-1.5,1-1,.42-.44,1.93.52,1.93Z" style="fill:#414355"/><path d="M307.4,287.38c-3.45-.08-6.78-.52-10.2-.9a47.45,47.45,0,0,1-5.93-1c-.23-.06-1.63-1.32-1.54-1.46.21-.33-3-.07-3.16.25a8,8,0,0,1-.76,1c-.11.12-.22.24-.34.35l-.06.06a5.85,5.85,0,0,1-1.26.9,2.27,2.27,0,0,1-1,.43h0a4.48,4.48,0,0,0-1,.35h0l-1,.27h0l-.07,0-1.05.29-.13,0c-.41.12-.83.25-1.27.41-2.29.83-5,.89-6,3.92a2.53,2.53,0,0,0-.12.57,1.91,1.91,0,0,0,.29,1.38.9.9,0,0,0,.14.2,1.07,1.07,0,0,0,.18.19l.17.15.23.16.21.13.26.14.23.1c.18.07.37.14.57.2l.23.07.34.08.26.06.33.06.28,0,.32.05.3,0,.29,0,.54,0h1.89c6.58-.19,13.12-.63,19.68-1.06,2.08-.14,5.2-.17,6.86-1.63s1.82-3.42,1.69-5.5A.43.43,0,0,0,307.4,287.38Z" style="fill:#ffa348"/><path d="M340.3,277.5c.06-.1.11-.2.16-.3l.06-.16a2.64,2.64,0,0,0,.1-.3l0-.15a1.88,1.88,0,0,0,.05-.33s0-.09,0-.13a2.67,2.67,0,0,0,0-.4s-.17,0-.17-.06a5.17,5.17,0,0,0-1.55-3.33h0a1.39,1.39,0,0,0-.43-.78c-1.89-2.26-6.54-.13-8.61.71a24.06,24.06,0,0,0-6.35,4.21c-.21.16-1.59,1.18-1.55,1.41a5.43,5.43,0,0,1-.06,1v.06a5.46,5.46,0,0,1,.07.9,7.92,7.92,0,0,1-.19,1h0a9.31,9.31,0,0,1-.73,1.65c-.17.31-.34.61-.54.91h0c-.26.39-.53.78-.8,1.16-1.45,2-3,2.34-4.75,4.11a3.3,3.3,0,0,0-.35.43.56.56,0,0,1,0,.08,3.72,3.72,0,0,0-.22.38s0,0,0,0a1.77,1.77,0,0,0-.15.42h-.1c0,.15-.18.3-.18.45h0a3.24,3.24,0,0,0,.95,2.23H315a2.39,2.39,0,0,0,.35.28.27.27,0,0,0,.1.06,2.9,2.9,0,0,0,.29.19l.13.06.28.13.15,0a1.55,1.55,0,0,0,.31.07.58.58,0,0,0,.14,0,2.27,2.27,0,0,0,.45,0c2.86-.08,6-.22,8.44-1.78,2.71-1.71,4.75-4.4,6.75-6.83,2.13-2.59,5.29-4.48,7.5-6.92a3.9,3.9,0,0,0,.32-.42S340.27,277.55,340.3,277.5Z" style="fill:#ffa348"/><path d="M289.11,293.74l1.72-.12c5.67-.41,11-.79,16.15-3.41l-.45-.89c-4.95,2.53-10.21,2.9-15.77,3.3l-1.72.12c-5.09.37-11.28.82-16.53.31a2,2,0,0,0,.18,1c1.65.15,3.38.22,5.14.22C281.69,294.28,285.65,294,289.11,293.74Z" style="fill:#fcc18b"/><path d="M340.36,274.18a7.4,7.4,0,0,0-.48-1l-.21.24c-6.75,7.94-15.08,17.72-25.47,17a2.62,2.62,0,0,0,.11,1c.32,0,.65,0,1,0C325.58,291.5,333.71,282,340.36,274.18Z" style="fill:#fcc18b"/><path d="M283,290.55a6.41,6.41,0,0,0-.85-3.18l-1,.27a6,6,0,0,1,.83,2.83Z" style="fill:#fcc18b"/><path d="M286.5,289.45A9.62,9.62,0,0,0,285,286a6.38,6.38,0,0,1-.84.55,8.79,8.79,0,0,1,1.36,3Z" style="fill:#fcc18b"/><path d="M324.37,284.49l.26-1c-.5-.14-1-.31-1.49-.48a15.71,15.71,0,0,0-1.95-.59c-.17.31-.36.61-.56.91a14,14,0,0,1,2.18.62C323.32,284.17,323.84,284.35,324.37,284.49Z" style="fill:#fcc18b"/><path d="M326.43,280.8a14.76,14.76,0,0,0-4.21-1,6.62,6.62,0,0,1-.26,1,14.31,14.31,0,0,1,4.11.92Z" style="fill:#fcc18b"/><path d="M340.29,268.39a38.92,38.92,0,0,0-2.19-7.31c-5-13.18-10.78-26.13-17-38.78-2.79-5.68-5.09-11.84-4.87-18.24.2-5.77,1.61-11.55,2.05-17.31a101.58,101.58,0,0,0-.23-16.82c-.4-4.4-.82-10.07-4.55-13.05-4.16-3.33-9.26,2.34-13.35,3.14s-8.14,1.42-12.05,3c-1.66.67-3.26,1.52-4.86,2.35-1.09.56-3.88,2.61-5.21,2.11-.63-.23-.93.67-.45,1-.2,7.27,1.13,14.41,2.29,21.57s2.44,14.25,3.71,21.38c2.31,13,4.95,26.11,5.21,39.31A169.35,169.35,0,0,1,286.5,283c-.24,1.38-.68,2.4.22,3.64s2.92,1.88,4.4,2.3c5.75,1.62,11.91.67,17.78,1.32.3,0,.48-.26.51-.51a392.28,392.28,0,0,0,2.2-40.55c1.18,4.39,2.59,8.72,3.93,13.06,1.79,5.75,3.54,11.52,6.57,16.76a.53.53,0,0,0,.6.24c5.86-1.48,12.09-1.54,16.1-6.77C339.84,271.11,340.57,270.09,340.29,268.39Z" style="fill:#2a9cc8"/><path d="M252.91,123.33c-.41-1.48-1.31-3.84-3.17-4a3.18,3.18,0,0,0-1.34,0,.34.34,0,0,0-.29.26,37.62,37.62,0,0,1-4.24,2.17c-1.91.81-3.46,1.34-4.28-1.06a48.92,48.92,0,0,1-2-7.66c-.73-4.15.48-7.62,1.08-11.64.3-2,.81-4.35-.49-6.06-1-1.3-3.11-.69-4.36-.28s-2.43.78-3.61,1.24c-1.39.55-2.21,1.85-3.57,2.39s-2.51.7-2.5,2.37c0,2.37,1.41,4.83,2.06,7.06,1,3.48,1.05,7.51,1.51,11.1a44.28,44.28,0,0,0,2.1,9.59c1.88,5.21,5.89,9.2,11.65,9,2.81-.08,5.33-1.72,7.74-3,1.51-.81,5.71-3,5.69-5.18a5.25,5.25,0,0,0-.73-2.43A19.85,19.85,0,0,1,252.91,123.33Z" style="fill:#fcc18b"/><path d="M269.07,100.89c-2.5.17-2,5.33-1.5,6.67.83,2.83,3.16,3.83,5.83,3.66,3.67-.33,5.33-3.66,5.67-6.83.5-3.67-.67-6.83-4.67-7.33-3.33-.5-6.33,3.5-6.5,6.5" style="fill:#fcc18b"/><path d="M261.09,109.12a57.58,57.58,0,0,1-7.19,5.44c-1.33.83-4.42,2.54-5.25,3.87-.83,1.17.21,4.09.88,5.25,1.33,2.67,2.29,5.43,3.74,8.07,1,1.81,1.88,4.06,4.21,2.14a50.88,50.88,0,0,0,4.17-3.46c.67,3.5,1.89,6.7,2.87,10.07a50,50,0,0,0,5.07,10.87c2.33,3.67,5.23,6.35,6.06,10.69a57.13,57.13,0,0,0,1.81,7.12c.33.92,3.65,0,5.63-.25,5.43-.56,10.64-2,15.81-3.37,3.5-1,10.16-4.35,13.5-5.5,4.83-1.67,6.71-2.79,4.87-6.38-.52-1-2.81-4.37-4.56-7.43-3.61-6.33-8.52-13.4-9.89-15.69s4.89-14.75,8.14-17.19c-.6-.69-2.41-1.75-3.75-3.5s-2.27-3.53-2.75-4.25a13.74,13.74,0,0,0-8.81-6.5,25.7,25.7,0,0,0-9.31.25c-1.11.2-7.13,1.63-7.19,2.31-.3,3.3-.31,7.63-4.88,8.94-3,.85-4.68-.87-5.75-2.31-.57-.78-.58-2.75-1.75-3.25Z" style="fill:#fff"/><path d="M267.07,104.67c-3.64,2.21-6.78,4.78-10.2,7.31-1.75,1.28-3.56,2.49-5.35,3.71-.81.55-3.2,1.4-3.51,2.45-.62,2.11.84,5.24,1.66,7.18,1.45,3.46,3,7.14,5.47,10a.68.68,0,0,0,.7.18c2.74-1,4.31-3.18,6.4-5.1l-.82-.34c.12,3.24,1.23,6.26,2.32,9.28a59.07,59.07,0,0,0,4,9.69c3.69,6.38,8.25,13,9.06,20.53,0,.29.24.61.58.58A100.09,100.09,0,0,0,297,166.59c6.44-1.84,12.32-4.94,18.59-7.19,1.65-.59,3.18-1.39,3.39-3.25s-2.22-4.35-3.11-5.91c-3.61-6.3-6.25-13.19-9.56-19.66-.27-.53-1-.07-.78.46,2.49,5.64,5.21,11.18,7.69,16.83a47.57,47.57,0,0,0,3.71,6.46c2.12,3.31-2.66,4.09-4.88,4.87-2.69.94-5.21,2.47-7.86,3.55a85.5,85.5,0,0,1-8.4,2.84A99.56,99.56,0,0,1,277.4,169l.58.58c-.79-6.49-4.36-12.77-7.77-18.21a47.9,47.9,0,0,1-4.85-10.1c-1.25-3.64-2.87-7.3-3-11.19a.49.49,0,0,0-.82-.34c-1.9,1.72-3.56,3.65-6.1,4.39l.81.33A46.3,46.3,0,0,1,249,119c-.33-1.21,4.21-3.86,5.07-4.46,1.52-1,3-2.11,4.47-3.24,2.86-2.2,5.73-4.29,8.65-6.4a.16.16,0,0,0-.16-.27Z" style="fill:#414355"/><path d="M279.4,101.1a9.52,9.52,0,0,0,4-.74,26.77,26.77,0,0,1,6.77-1.17c4.28-.35,7.66,0,11.06,2.94,3.78,3.25,4.79,8.65,9.13,11.27.29.18-2.13,1.22-3.57,2.16s-2.59,2.24-3.94,3.19c-2.17,1.52-4.28,2.91-5.9,5.25-.23.33-3.42-8.06-6.09-12.16-.16-.26-.64-.18-.51.13,1.86,4.46,4.65,8.59,5.87,13.31a.67.67,0,0,0,1.12.27c2.08-2.48,4.62-4.14,7.08-6.18A40,40,0,0,1,309,116a10.83,10.83,0,0,0,3.1-2.17.69.69,0,0,0-.3-1.13c-5.55-2-6.42-9.38-11.48-12.2a13.91,13.91,0,0,0-8.41-2c-1.79.15-3.62.27-5.39.55-2.43.37-4.67,1.57-7.15,1.54a.3.3,0,0,0,0,.59Z" style="fill:#414355"/><path d="M201.32,150.59c.87.24,1.73.49,2.6.69s1.82.31,2.73.53q3.66.87,7.34,1.66,7.68,1.68,15.35,3.42c5,1.13,10.06,2.27,15.06,3.51,2.46.61,4.89,1.27,7.35,1.84s4.81,1.07,7.21,1.62,4.94,1.21,7.39,1.93,4.68,1.4,7.07,1.85c1.08.2,1.55-1.42.46-1.66-4.28-.94-8.44-2.36-12.7-3.37-4.85-1.15-9.73-2.16-14.56-3.37-10.11-2.52-20.32-4.57-30.55-6.52-2.82-.53-5.64-1-8.44-1.65-1.08-.24-2.16-.38-3.24-.57a27.8,27.8,0,0,0-3-.49.3.3,0,0,0-.08.58Z" style="fill:#414355"/><path d="M311.72,118.78c-1.05-2-1.76-3.47-2.32-3.28-1.37.45-2.56,1.59-5.06,3.37-3.25,2.31-6.56,6-6.38,6.06a63.56,63.56,0,0,1,2.41,8c.85,4.44-1.66,6.86-5.11,9.08-5.6,3.6-11.7,7.39-18,9.67-3.37,1.23-6.52,1.12-10,.88-2.81-.2-5.68-.08-8.07,1.58-3.19,2.21-3.94,6.87-2.64,10.31,1.72,4.58,7,4.91,10.88,3.26,2.58-1.08,4.84-2.85,7.23-4.27,3.37-2,7.66-2.57,11.37-3.74a103.5,103.5,0,0,0,20.78-9.3c3.93-2.28,8.73-5,9.59-9.88C317.65,133.48,314.94,124.91,311.72,118.78Z" style="fill:#fcc18b"/><path d="M266.11,103.56c-.44,3.27-.71,6,2.19,8.25a6.72,6.72,0,0,0,7.57.69c4.33-2.06,5.53-7.8,5.22-12.13-.1-1.4-2.35-2.18-2.63-.62-.58,3.17.1,6.25-2,9a4.54,4.54,0,0,1-5.94.87c-2.54-1.43-1.4-4.58-3.05-6.6-.49-.6-1.26,0-1.34.56Z" style="fill:#414355"/><path d="M265,53.82a10.78,10.78,0,0,0-7.91.53c-2.42,1-5.42.3-7.17,2.65-1,1.4-1.75,2.49-3.5,3a22.89,22.89,0,0,0-3.28,1.08c-2.05,1-1.94,3.34-1.24,5.15a6.3,6.3,0,0,0,.75,1.34c.53.81-.28,1.92-.65,2.63a1.77,1.77,0,0,0,.22,1.93c1.39,1.45,2.65,3.59,4.76,3.87a.43.43,0,0,0,.2.2c1.19.53,3,2.41,4.43,1.65,2.14-1.14,1.78-3.62,1.81-5.75A16.48,16.48,0,0,1,255,65.62c1.13-2.49,4.23-3.6,6.6-4.43a12.33,12.33,0,0,1,7.55-.17c1.74.48,4.15.6,5.74,1.34a.26.26,0,0,0,.38-.29C274,57.54,269.14,55.15,265,53.82Z" style="fill:#858fa9"/><path d="M247.07,85c1.87.76,1.31,2.64,1.18,4a5.47,5.47,0,0,0,1.59,4.07c1.71,2,4.49,1.67,6.55.51,1.78,4.08,4.42,7.84,8.43,10,4.18,2.21,9.08.94,12.61-1.87,8.51-6.76,6.48-21,3.24-29.79-1.65-4.49-3.91-10.21-8.48-12.43-4.38-2.12-10.08-.48-14.41.91-3.81,1.22-7.21,2.43-8,6.77a14.92,14.92,0,0,0,1.42,8.41c-5.41-2.17-9.9,4-5.54,8.49A4.35,4.35,0,0,0,247.07,85Z" style="fill:#fcc18b"/><path d="M227.28,152.76c1,5.19-3.52,7.05-5.51,11.17s2,5.68,4.13,4.88c5.16-1.93,9.44-10.8,9.12-15.79-.43-6.83-4.24-11.65-7.17-10.78C223,143.68,226.73,149.9,227.28,152.76Z" style="fill:#ffa348"/><path d="M207.28,149.76c1,5.19-3.52,7.05-5.51,11.17s2,5.68,4.13,4.88c5.16-1.93,9.44-10.8,9.12-15.79-.43-6.83-4.24-11.65-7.17-10.78C203,140.68,206.73,146.9,207.28,149.76Z" style="fill:#ffa348"/><path d="M217.44,157.29c2.57,3.86,7.46-.94,7.45-4.21C224.86,145.7,213.39,151.19,217.44,157.29Z" style="fill:#fcc18b"/><path d="M237.44,161.29c2.57,3.86,7.46-.94,7.45-4.21C244.86,149.7,233.39,155.19,237.44,161.29Z" style="fill:#fcc18b"/><path d="M263.09,73.28a1.45,1.45,0,0,1-1.25,1.59,1.62,1.62,0,0,1-1.57-1.5,1.81,1.81,0,0,1,1.57-1.69A1.46,1.46,0,0,1,263.09,73.28Z" style="fill:#414355"/><path d="M275.4,71.37a1.35,1.35,0,0,1-1.22,1.44,1.44,1.44,0,0,1-1.47-1.31,1.68,1.68,0,0,1,1.47-1.57A1.35,1.35,0,0,1,275.4,71.37Z" style="fill:#414355"/><path d="M263.61,68.09c-.43-1.35-3-1.84-4.12-1.15a5.28,5.28,0,0,0-2.6,4.74.32.32,0,0,0,.63.09c.5-1.48.45-2.93,2.16-3.58a5.3,5.3,0,0,1,3.5.33.35.35,0,0,0,.43-.43Z" style="fill:#414355"/><path d="M270.22,67c.93-.49,1.37-1.49,2.4-1.93,1.43-.6,2.52.53,3.22,1.62.17.25.64.09.52-.22a3.66,3.66,0,0,0-3.52-2.49c-1.36.08-3.47,1.19-3.19,2.79a.39.39,0,0,0,.57.23Z" style="fill:#414355"/><path d="M269.69,78c1.29-.21,3.54-.91,4.63,0,.89.71.81,2.06.61,3-.37,1.77-1.74,3.22-2.48,4.83a.16.16,0,0,0,.27.16c1.48-2.06,3.28-4.26,2.74-6.94s-4.1-2.29-5.89-1.34c-.17.09,0,.32.12.29Z" style="fill:#414355"/><path d="M251.32,78.07c-2.61-2.35-5.88.91-4.34,3.78a4.48,4.48,0,0,0,2.19,1.47c2.42,1.07,1,3.34,1.39,5.06.44,2,1.81,2.78,3.84,2.62a.38.38,0,0,0,0-.76c-4.89,0-1.3-4.42-3.32-6.66A12.56,12.56,0,0,0,249.27,82a3.13,3.13,0,0,1-1.55-2.51c-.23-2.27,2.64-1.41,3.45-1.13a.15.15,0,0,0,.15-.26Z" style="fill:#ffa348"/><path d="M123.93,120.35c-1.23-1.14-3.07-1-4.65-1.06a19,19,0,0,0-7.5,1.33.39.39,0,0,0-.21.19,8.69,8.69,0,0,0-1,.75c-.67,3.23-1.12,7.25,3,8.12,3,.63,5.88.8,8.09-1.26C122.92,127.2,125.7,122,123.93,120.35Z" style="fill:#858fa9"/><path d="M129.72,114.18l-.14-1c2-.28,11.47-1.81,21.52-3.44,8.24-1.34,16.71-2.71,21.35-3.44s9.56-1.45,14.36-2.17c11.13-1.66,22.64-3.37,33.5-5.45l.18,1c-10.88,2.09-22.39,3.8-33.53,5.46-4.8.71-9.6,1.43-14.36,2.17s-13.11,2.1-21.34,3.43C141.21,112.36,131.71,113.9,129.72,114.18Z" style="fill:#2a9cc8"/><path d="M239.4,96.56l-15.75,6.87a30.76,30.76,0,0,1-3.25-4.25,46.15,46.15,0,0,1-2.5-5.87l17-8.5Z" style="fill:#dcdde0"/><path d="M108.15,112.68l18.25-4.25a6.39,6.39,0,0,1,3.87,4.38c.6,2.1-.37,7.12-.37,7.12l-16.63,4.88Z" style="fill:#dcdde0"/><path d="M239.68,97l-.46-.89c-3.1,1.49-5.55,2.66-8.46,4-2.5,1.13-4.83,2.06-7.33,2.92a35,35,0,0,1-5.14-9.71c1.14-.63,2.26-1.3,3.33-2,1.31-.78,2.65-1.58,4.08-2.36,1-.56,2.52-1.46,4-2.33s3.2-1.9,4.07-2.36a.49.49,0,0,0,.22-.67.5.5,0,0,0-.68-.21c-.89.46-2.46,1.4-4.12,2.39-1.45.86-2.95,1.75-3.95,2.3-1.45.79-2.8,1.6-4.11,2.39-1.08.65-2.12,1.26-3.19,1.87-.4.18-.85.41-.77.68a32.3,32.3,0,0,0,6,11.08c.1.12,1-.21,1.71-.46a65.63,65.63,0,0,0,6.35-2.67C234.09,99.69,236.55,98.51,239.68,97Z" style="fill:#2a9cc8"/><path d="M129.94,110.37a4.75,4.75,0,0,0-3.08-2.47,1.39,1.39,0,0,0-.7,0c-1.56.32-6.36,1.27-7.63,1.57-2.78.67-4.5,1-8,2.07a.47.47,0,0,0-.34.6.5.5,0,0,0,.48.34.58.58,0,0,0,.14,0c3.39-1,5-1.43,7.92-2.12,1.42-.34,6.33-1.44,7.69-1.71a4.22,4.22,0,0,1,2.6,2.26,11.81,11.81,0,0,1,.64,8.75l-3.08,1c-1.44.51-2.94,1-4.49,1.5s-2.63.78-3.82,1.12l-2.43.69a.5.5,0,0,0-.33.62.49.49,0,0,0,.47.36.39.39,0,0,0,.15,0l2.41-.69c1.2-.34,2.41-.68,3.84-1.12s3.08-1,4.53-1.51c1-.36,2-.71,3.07-1h0a.49.49,0,0,0,.45-.3A12.58,12.58,0,0,0,129.94,110.37Z" style="fill:#2a9cc8"/><path d="M234,84.44c-.79-.81-2.15-1.85-3.4-1.57a2.91,2.91,0,0,0-1.39.64c-1,.83-2.12.55-3.24.78-1.62.33-1.64,2.07-2.91,2.49a3,3,0,0,0-1.95,3.2.29.29,0,0,0,0,.38c1.95,2.62,7.55-.19,9.86-.5,1.29-.18,3.06-.48,3.63-1.87A3.18,3.18,0,0,0,234,84.44Z" style="fill:#fcc18b"/><polygon points="245.57 95.56 239.9 100.89 230.9 81.22 238.9 79.89 245.57 95.56" style="fill:#2a9cc8"/><path d="M111,113.06l0,0c.06.23.19.3.46.31,1.39.1,1.91.71,3,1.15a11.85,11.85,0,0,0,3.27.74,7.65,7.65,0,0,0,4.91-1.22,3.55,3.55,0,0,0-.1-6.12c-1-.53-1.53-.39-2-.12-.27.17-.43.51-.76.38a4.07,4.07,0,0,0-4,.19,2,2,0,0,0-.66.83c-.08.23-1.12.12-1.68.3-1.3.43-1.86,1.63-2.26,2.88-.13.07-.18.19-.24.38h0v.34s0-.06,0-.09Z" style="fill:#858fa9"/><polygon points="118.4 126.89 110.9 125.72 106.4 112.22 112.73 107.56 118.4 126.89" style="fill:#2a9cc8"/><path d="M114.14,117.46c1,4.07,1.72,6.81.13,6.72-2-.11-3.32-1.44-4.28-5.51s-1-5.48.11-6.3C111.45,111.36,113.18,113.39,114.14,117.46Z" style="fill:#fff"/><path d="M240.65,87.81c1.94,4.47,3.37,7,1.12,8.62-1.52,1.1-3.13-1.92-5.12-6.37s-3.13-7.25-.75-8C237.94,81.41,239,84.06,240.65,87.81Z" style="fill:#fff"/><path d="M113.43,109.67c2.54.59,5.76,2.34,6.43,5.13.13.54,1,.31.83-.23-.63-2.56-4.48-6-7.26-5.29a.2.2,0,0,0,0,.39Z" style="fill:#414355"/><path d="M119.93,108.71a6.82,6.82,0,0,1,2.13,1.9c.55.85.44,1.78.76,2.68a.26.26,0,0,0,.49,0c.66-2.06-1.3-4.51-3.17-5.08-.32-.1-.46.33-.21.5Z" style="fill:#414355"/><path d="M223.28,87.08c.92-.35,2.29,1,2.9,1.53a13,13,0,0,1,2,2c.26.33.73-.09.55-.43a8.87,8.87,0,0,0-2.65-2.56c-.73-.53-2-1.42-2.91-.92-.19.1-.06.42.14.35Z" style="fill:#ffa348"/><path d="M227.8,84.9a8.48,8.48,0,0,1,1.56,1.17,6.5,6.5,0,0,1,2.29,2.77c.2.51,1,.28.83-.23a6,6,0,0,0-1-1.69,15.43,15.43,0,0,0-1.77-1.56c-.26-.23-1.73-1.42-2-.74a.21.21,0,0,0,.07.28Z" style="fill:#ffa348"/><path d="M156.4,199.18c-4.9-.28-9.86.12-14.77.12-5.23,0-10.46-.08-15.69,0-9.44.14-18.84.73-28.29.68a.36.36,0,0,0-.31.49c.21,2.56,0,5.13.12,7.7.18,3.11.47,6.19.56,9.3.21,6.78-.17,13.57.14,20.35a.49.49,0,0,0,1,0c.33-6.76.25-13.59.06-20.35-.09-3.11-.37-6.19-.61-9.3a64.23,64.23,0,0,0-.55-7.47c8.85,1.22,18-.07,26.93-.22,10.46-.17,21,.12,31.43-.53A.38.38,0,0,0,156.4,199.18Z" style="fill:#414355"/><path d="M180.15,182.06c.11-3.94.5-7.81,3-11,1.88-2.36,5.76-2.59,8.18-4.41,4.12-3.09,2.16-9.74,7.54-11.61,1.22-.42.7-2.35-.53-1.93a7.43,7.43,0,0,0-4.44,3.32,15.28,15.28,0,0,0-1.16,3.22c-1.27,4.12-3,6.11-7.1,7.54-6.29,2.19-7.37,9.05-7.53,14.89,0,1.29,2,1.29,2,0Z" style="fill:#fcc18b"/><path d="M186.9,184.56c0-5.41,1.63-8.83,6.39-11.57,2.75-1.58,4.71-3.19,6-6.18.5-1.17-1.22-2.19-1.72-1-1.83,4.33-6,5.42-9.34,8.32-2.91,2.55-3.31,6.83-3.3,10.44a1,1,0,0,0,2,0Z" style="fill:#fcc18b"/><path d="M204.11,184.32c1.16-4.52,1.95-7.22,5.79-10.22a26.69,26.69,0,0,0,7.36-9c.6-1.14-1.12-2.15-1.72-1-2.3,4.34-5.13,7.09-8.95,10.08-3,2.34-3.53,6.21-4.4,9.66a1,1,0,0,0,1.92.53Z" style="fill:#fcc18b"/><path d="M222.15,184.56c.74-7,9.13-9,11.21-15.49.4-1.23-1.53-1.75-1.92-.53-1.2,3.71-4.4,5.73-7.17,8.18a11.78,11.78,0,0,0-4.12,7.84c-.14,1.28,1.86,1.27,2,0Z" style="fill:#fcc18b"/><path d="M229.9,184.81c-.11-4.48,5.29-6.43,8.2-8.95,3.14-2.72,4.68-7,6-10.79.43-1.22-1.5-1.74-1.92-.53a23.88,23.88,0,0,1-9.66,12.93c-2.59,1.82-4.71,4-4.63,7.34a1,1,0,0,0,2,0Z" style="fill:#fcc18b"/><path d="M238.9,185.06c0-3.6,3.39-5.74,5.82-7.87s4.16-4.6,4.43-7.88c.1-1.29-1.9-1.28-2,0-.58,7-10.33,8.53-10.25,15.75a1,1,0,0,0,2,0Z" style="fill:#fcc18b"/></svg>