<svg xmlns="http://www.w3.org/2000/svg" viewBox="0 0 350 350"><path d="M239,94.12A3.44,3.44,0,0,0,235.4,91h-.51c-2.09,0-3.89,1.58-3.89,3.12v21.07c0,1.9,1.14,3.4,2.64,3.49l2.51.25c2.09,0,2.85-2.21,2.85-3.74V94.12Z" style="fill:#858fa9"/><path d="M227,87.73,219.69,87l-14.95-1.46-2.19-9.38L213,70.45l9.22-5.29s11.52,1.18,12.09,8.75C234.92,82.61,227,87.73,227,87.73Z" style="fill:#dcdde0"/><path d="M286,70.52l-59.16,17.3a15.48,15.48,0,0,0,3.56-13.5c-1.13-5.59-8.19-9.16-8.19-9.16l65.22-20.61s8.34-1.9,5.56,12.14C291.06,66.61,286,70.52,286,70.52Z" style="fill:#2a9cc8"/><path d="M205.6,80.44c.48,3.07-.38,5.75-1.92,6-.5.07-2.08.45-2.24.27A31.44,31.44,0,0,1,200,81.32a33.69,33.69,0,0,1-.2-5.54,5.92,5.92,0,0,1,2.12-.46C203.48,75.1,205.12,77.37,205.6,80.44Z" style="fill:#414355"/><path d="M200,75.65c1.55-.24,3.19,2,3.67,5.12s-.38,5.76-1.92,6-3.19-2-3.67-5.12S198.41,75.9,200,75.65Z" style="fill:#ffa348"/><path d="M234.61,100.34l-7.33-.9-14.92-1.76-2-9.42,10.51-5.48,9.32-5.1s11.5,1.41,11.92,9C242.59,95.39,234.61,100.34,234.61,100.34Z" style="fill:#dcdde0"/><path d="M293.94,84.34l-59.5,16.09A15.46,15.46,0,0,0,238.28,87c-1-5.62-8-9.33-8-9.33L295.9,58.4s8.38-1.72,5.31,12.25C299.05,80.53,293.94,84.34,293.94,84.34Z" style="fill:#2a9cc8"/><path d="M213.32,92.62c.42,3.08-.49,5.74-2,5.95-.5.07-2.08.41-2.23.23a30.25,30.25,0,0,1-1.33-5.42,32.85,32.85,0,0,1-.08-5.54,5.72,5.72,0,0,1,2.13-.41C211.31,87.23,212.9,89.54,213.32,92.62Z" style="fill:#414355"/><path d="M207.81,87.68c1.55-.21,3.15,2.11,3.57,5.19s-.5,5.75-2,6-3.15-2.12-3.57-5.19S206.26,87.89,207.81,87.68Z" style="fill:#ffa348"/><path d="M160.11,313.59c0-1.83-2.86-3.06-3.91-3.37a12,12,0,0,1-5.42-2.75,5.36,5.36,0,0,1-1.83-2.75l-.3-1.92c-1.16.14-10.48-1.83-11.52-2.11-.52-.18-1.43-.93-1.6,1.15a42.28,42.28,0,0,0-.17,5.34c0,.19,0,.45.07.73,7.5,3.72,15.07,7.19,23.11,8.75C159.58,316.05,160.11,315.34,160.11,313.59Z" style="fill:#ffa348"/><path d="M135.43,307.91a4.57,4.57,0,0,0,.68,2.1c1.08,1.19,3.5,2.14,4.92,2.83,3.14,1.56,6.21,3.46,9.75,4.09,2.78.49,5.11,1.15,7.58-.17l.18-.1C150.5,315.1,142.93,311.63,135.43,307.91Z" style="fill:#fcc18b"/><path d="M133.9,312.22c-.07-1.38-1.69-2.69-2.69-3a11.26,11.26,0,0,1-5.16-2.75,5.45,5.45,0,0,1-1.75-2.75L124,301.8c-1.11.14-10-1.83-11-2.11-.49-.18-1.36-.93-1.52,1.15a43.55,43.55,0,0,0-.16,5.27c6.51,4.57,13.82,8.92,21.15,9.2A3.86,3.86,0,0,0,133.9,312.22Z" style="fill:#ffa348"/><path d="M111.36,306.18a6.06,6.06,0,0,0,.71,2.83c1,1.19,3.34,2.14,4.69,2.83,3,1.56,5.27,3.38,8.64,4,2.65.49,5.46.64,6.75-.25a2.48,2.48,0,0,0,.36-.28c-7.34-.28-14.64-4.63-21.15-9.2Z" style="fill:#fcc18b"/><path d="M152.61,180.36v-.45l-.44-.06c-.16,0-.89-.3-1.33-.46s-.85-.31-1-.35c-2.73-.61-6.58-3.34-9.67-5.53-1.19-.85-2.32-1.64-3.27-2.25-2.83-1.79-5.6-3.64-8.28-5.43s-5.2-3.48-7.88-5.18l-1.18-.73-.32-.21-.28.27c-.24.22-5.7,5.43-8.1,10-3.46,6.6-5.38,15.64-5.74,21.67-.84,13.78.59,27.79,2,41.35.49,4.83,1,9.82,1.39,14.72.84,10.36.65,21,.46,31.21-.1,5.59-.2,11.36-.14,17,0,4.27,1.13,5.75,5,6.89a42.79,42.79,0,0,0,6.83,1.27l.88,0a11.77,11.77,0,0,0,3.12-.31l.31-.11,0-.34s.17-4.23.23-5.59c.18-3.83.1-7.75,0-11.53,0-2.25-.1-4.58-.1-6.87,0-4.44.09-8.94.16-13.28.08-4.72.16-9.59.17-14.41,0-9.33,0-20.93.95-31.81.34-3.78.47-7.61.6-11.32.08-2.32.16-4.73.29-7.09.07-1.33.06-3.54,0-5.25a28.5,28.5,0,0,1,1.32,5.52l.19,1.72c.39,3.57.81,7.27,1,9.85.23,3.69.58,8,.95,12.5.47,5.74,1,11.68,1.25,17.16.72,13.25,1.41,27.39,1.41,41.71,0,6,.89,16.89,1,18.1l-.06.15.15.22c.51.75,9.52.82,9.47.86a30.21,30.21,0,0,0,4.41-.25l.41-.06v-.42s.05-2.42.18-4c.21-2.67.29-5.61.37-8.46,0-1.08.06-2.13.09-3.1.8-22.35,1.41-38.92,2.38-62.43l.12-3.09c.33-7.78.62-14.51.38-22.56C152.11,194.12,152.61,180.5,152.61,180.36Z" style="fill:#858fa9"/><path d="M175.78,115.09c-14.36,5.07-8.74-19.3-6.95-26.24,1.74-6.71,6-12.72,12.44-15.45a27.82,27.82,0,0,1,6.7-1.61c8-1.29,12.09,5,12.8,12.3a42.13,42.13,0,0,1-1.23,13.25C197.2,107.87,184.82,111.9,175.78,115.09Z" style="fill:#858fa9"/><path d="M223.28,94.72c-1.06-1.63-3.44,2.33-4.13,1.87-.51-.34,2.16-4.49.94-4.44-2.62.13-6,4.73-6.75,7.25-.52,1.63-.85,3.35-1.34,5.31-.24,1-.5,1.93-.77,2.93,2.87,1.74,6.28,3.22,9.25,4.91.23-.79.47-1.59.7-2.4l.19-.66.08-.26c.22-.79.56-1.72.92-2.7.62-1.73,2-3.33,2.41-5.19.34-1.59.87-3.94-1.44-2.06C222,100.34,223.73,95.42,223.28,94.72Z" style="fill:#858fa9"/><path d="M182.28,116.34c2.17-4.28-5.21-8.92-8.68-10-5.37-1.69-11.76-1.32-17.66-1.32a357.37,357.37,0,0,0-49.26,3c-11.27,1.58-19.91,6.15-29.73,11.94-5.75,3.39-12.84,4.12-19.41,3.06-5.52-.89-11.83-5.09-17.52-3.92-5.86,1.21-6.81,10.24-8.27,15.19,4.88,2.81,12.55,3.43,18.18,4,6.75.75,13.47,1.8,20.24,0a56.17,56.17,0,0,0,16.44-6.92c4.37-2.82,9.5-6.56,15-5.75,5.35.78,10.41,3.84,15.65,4.69a56.43,56.43,0,0,0,19.35-.43c12.73-2.52,20.92-16.72,35-16.59a29.9,29.9,0,0,1,11,2.7,1.18,1.18,0,0,1-.3,1" style="fill:#ffa348"/><path d="M211.23,107.64c-1.68,6.08-4.06,12.75-7.85,17.85-2,2.67-3.48,3.75-5.18,3.75a7.54,7.54,0,0,1-4.08-1.62,53.32,53.32,0,0,1-8.9-8.4c-.77-.85-1.54-1.71-2.33-2.54l-.34-.36c-2.86-3-5.81-6.19-10.18-7a34.11,34.11,0,0,0-5.59-.58,12.21,12.21,0,0,0-1.57.09,20.75,20.75,0,0,0-9.74,4.35,44.45,44.45,0,0,0-6.33,6.08c-1.56,1.91-3.4,4.36-5.35,6.94-2.14,2.85-4.35,5.79-6.4,8.31-6.42,7.9-11.43,14-17.44,21a11.47,11.47,0,0,1-1.09,1c-1.07.93-2.29,2-2.36,3.1a1.66,1.66,0,0,0,.47,1.24,79.42,79.42,0,0,0,6.33,5.87,140,140,0,0,0,17.07,11.54,34,34,0,0,0,13,3.56l.34,0,.14-.32c1.9-4.39,5.12-8.77,8.23-13,1.2-1.65,2.34-3.2,3.39-4.74a128.91,128.91,0,0,0,7.39-12.47,96.22,96.22,0,0,1,7.13-11.8,26.27,26.27,0,0,1,3.07,1.73c3.8,2.32,9.54,5.82,14.19,5.82a7,7,0,0,0,3.07-.65c6.6-3.24,10.31-10.15,12.77-14.72l.2-.37c3.3-6.12,5.25-12.3,7.14-18.78C217.51,110.86,214.1,109.38,211.23,107.64Z" style="fill:#414355"/><path d="M191.28,74.84c-2.4.82-5.84,4.67-6.59,10.34a24.27,24.27,0,0,1-5.58,11.91c-6.08,7.5-12.4,10.27-23.42,12-7.16,1.13-12.58-.12-19.16-.12a25.87,25.87,0,0,0-12.5,2.81c-8.87,4.44-17.81,9.22-28,6.07A16.21,16.21,0,0,1,84.2,103.68C83,94.1,87.61,88.43,96.61,85.84c5.27-1.51,13,.27,18.22-1.25,5.08-1.46,7.69-5.39,12.07-8.12a26.11,26.11,0,0,1,13.38-3.88c5.12-.12,9.77,2.46,14.55,1.77,5.54-.81,8.29-5,13.53-6.6,3.68-1.12,7.84-2.5,15-1.25,6.3,1.1,13.75,5.92,13.59,7.92A9.59,9.59,0,0,0,191.28,74.84Z" style="fill:#414355"/><path d="M40.11,121.18c-2.47.1-8.79-1.27-10.17-3.5" style="fill:none;stroke:#fcc18b;stroke-miterlimit:10"/><path d="M42.11,119.18c-2.47.1-8.79-1.27-10.17-3.5" style="fill:none;stroke:#fcc18b;stroke-miterlimit:10"/><path d="M37.11,123c-1.48.2-3.18-.44-4.75-.75A30.56,30.56,0,0,1,27.44,121" style="fill:none;stroke:#fcc18b;stroke-miterlimit:10"/><path d="M35.82,125.13c-3.16,0-6.49.56-9.37-.79" style="fill:none;stroke:#fcc18b;stroke-miterlimit:10"/><path d="M34.86,128.13c-2.46.13-7.68,0-9.83-1.25" style="fill:none;stroke:#fcc18b;stroke-miterlimit:10"/><path d="M24.11,132.38a11.88,11.88,0,0,1,4.67.13c1.46.33,2.94,1.77,4.21,1.33" style="fill:none;stroke:#fcc18b;stroke-miterlimit:10"/><path d="M33.36,130.47c-1.52.69-6.5-1.09-9-.71" style="fill:none;stroke:#fcc18b;stroke-miterlimit:10"/><path d="M281,300.59s-8.25,10.25-26.25,10.5-26.5-9.75-26.5-9.75l1-59.5,49.5.75Z" style="fill:#2a9cc8"/><ellipse cx="253.94" cy="243.72" rx="25" ry="10.63" style="fill:#dcdde0"/><polygon points="261.28 243 246.94 243 248.94 122.84 257.61 123.67 261.28 243" style="fill:#2a9cc8"/><path d="M228.72,287.57c12.92,10.11,39.47,11.65,51.29-1.17,1.31-1.42-.81-3.54-2.13-2.12-10.79,11.7-35.86,9.92-47,1.17-1.51-1.18-3.65.93-2.12,2.12Z" style="fill:#858fa9"/><path d="M269.36,79H266.5c-2.76,0-4.5,1.51-4.5,4.09v35.36l-26.48-6.54-2.39,6.68,28.95,9.71s1.91.58,2.68.79a11,11,0,0,0,4.29.25c2.65-.26,3.95-1.91,3.95-3.75V83.09C273,80.43,272.61,79,269.36,79Z" style="fill:#2a9cc8"/><path d="M265,126h-3V82.29A3.25,3.25,0,0,1,263.27,80c1.29-.88,4.44-.67,4.44-.67a9.41,9.41,0,0,0-1.9.63c-.83.41-.81,2.25-.81,2.25V126Z" style="fill:#dcdde0"/><path d="M213.06,101.51c1.06-3.22,2.05-6.61,5.38-8.19,1.28-.6.34.63.22.84-.57,1-.89,2.18-1.41,3.23s-1.17,2.14-.7,3.46a.5.5,0,0,0,1,0,14.21,14.21,0,0,1,2-3.92c.24-.3,2.92-2.89,3.32-1.82s-.94,2.63-1.35,3.67c-.49,1.23-.87,2.46-1.39,3.68l1.38.58c.11-.43.23-.86.38-1.29l.59-1.28a2.22,2.22,0,0,1,2.45-1.25c.14,1.25-1,3.17-1.41,4.27-1.05,2.94-2.58,5.72-3.69,8.67-.16.4.52.69.7.29,1.06-2.36,2-4.72,3.14-7a20.45,20.45,0,0,0,2-6.18A1.37,1.37,0,0,0,224,97.73c-1.6.44-3.11,3.4-3.85,4.73a.76.76,0,0,0,1.3.77c1.27-1.71,1.13-3.82,2-5.75a3.1,3.1,0,0,0-.21-3.42c-.74-.88-2.58.91-3.07,1.28a12.4,12.4,0,0,0-3.52,5.13l.91.38a34,34,0,0,1,1.67-3.3c.46-.91.68-1.92,1.12-2.84s.87-1.78,0-2.63a.62.62,0,0,0-.61-.16c-1.72.45-3.58,2.35-4.62,3.74a12.16,12.16,0,0,0-2.38,5.81c0,.19.27.21.32,0Z" style="fill:#414355"/></svg>