<svg width="301" height="171" viewBox="0 0 301 171" fill="none" xmlns="http://www.w3.org/2000/svg">
<path opacity="0.07" d="M162.414 110.56C136.657 111.817 110.943 114.561 85.1598 114.578C61.6312 114.596 41.8998 113.39 36.7741 123.727C34.1255 129.079 36.5427 135.175 37.0141 136.381C45.997 159.056 96.1913 159.962 119.086 160.381C128.343 160.552 127.717 160.082 208.571 148.932C238.34 144.828 254.78 142.64 256.211 135.21C257.78 127.053 240.294 117.511 237.774 116.143C219.808 106.353 205.494 108.474 162.406 110.568L162.414 110.56Z" fill="#2A9CC8"/>
<path d="M95.4798 156.773C93.9369 156.722 92.1455 156.593 90.6798 156.32C89.2055 156.072 87.7227 155.465 86.6598 154.379C85.8712 153.584 85.5884 152.293 86.2055 151.309C86.8741 150.283 88.1769 149.907 89.2998 149.591C91.2198 149.052 93.2084 149.599 95.1541 149.599C95.4969 148.984 95.4455 148.189 95.8655 147.607C96.0455 147.428 96.3627 147.445 96.5169 147.65C96.6969 147.975 96.6798 148.368 96.7398 148.727C96.7827 149.488 96.9198 150.326 96.5427 151.019C95.7284 152.207 94.0827 151.968 92.8227 151.968C92.1198 151.959 91.4084 151.908 90.7055 151.968C89.9341 152.096 89.1627 152.301 88.4684 152.677C89.9598 154.464 93.9027 154.362 96.0798 154.268C96.5598 154.225 97.0227 154.114 97.4769 153.977C97.5284 153.96 97.5627 153.926 97.5969 153.883C98.2655 152.84 98.0255 151.498 98.1027 150.309C98.1798 149.283 97.8541 147.556 99.2341 147.317C100.511 147.18 100.751 148.599 100.674 149.574C100.674 150.369 100.683 151.164 100.657 151.968C100.648 153.25 100.408 154.584 99.5769 155.61C98.6684 156.756 96.8169 156.79 95.4712 156.756L95.4798 156.773Z" fill="#279BC7"/>
<path d="M120.028 156.251C118.803 156.251 117.586 156.183 116.36 156.131C115.168 156.046 113.943 156.208 112.786 155.866C109.64 154.781 109.383 152.994 110.137 150.035C110.291 149.351 110.368 148.625 110.668 147.983C110.84 147.658 111.363 147.735 111.448 148.086C111.56 148.736 111.637 149.403 111.714 150.061C111.86 150.976 111.697 152.062 112.263 152.84C112.683 153.25 113.24 153.541 113.806 153.686C114.603 153.797 115.417 153.746 116.223 153.806C117.491 153.866 118.76 153.968 120.028 153.985C120.808 153.968 121.648 154.199 122.394 153.908C122.583 153.592 122.454 153.199 122.326 152.882C122.111 152.387 121.631 152.079 121.117 151.976C119.84 151.788 118.546 152.301 117.268 152.002C115.803 151.617 114.723 150.146 114.62 148.659C114.568 148.18 114.808 147.727 115.263 147.53C115.751 147.325 116.334 147.522 116.6 147.975C116.994 148.599 117.363 149.548 118.22 149.539C119.908 149.539 121.623 149.48 122.934 150.728C124.451 151.985 125.403 154.61 123.388 155.875C122.368 156.456 121.143 156.26 120.02 156.243L120.028 156.251Z" fill="#279BC7"/>
<path d="M94.2287 155.653C93.2858 155.576 92.3087 155.345 91.5115 154.823C90.5258 154.687 89.4715 154.498 88.6829 153.849C87.8687 153.284 87.6201 152.164 88.4429 151.489C88.6487 151.326 88.8972 151.267 89.0944 151.232C89.6687 151.13 90.2601 151.027 90.8429 151.019C91.8029 150.189 93.3887 150.471 94.4344 150.984C94.4429 150.967 94.4601 150.95 94.4687 150.942C94.7001 150.634 95.0601 150.463 95.4372 150.446C95.2829 149.787 95.5915 149.009 96.3458 148.958C96.3972 148.394 96.2601 147.744 96.6029 147.257C97.1087 146.556 98.3172 146.872 98.4029 147.735C98.5144 148.582 98.5572 149.428 98.5829 150.275C98.6001 150.967 98.6687 151.694 98.5144 152.37C98.7201 153.438 98.0858 154.558 96.9372 154.627C96.2344 155.345 95.2315 155.721 94.2287 155.661V155.653Z" fill="#279BC7"/>
<path d="M121.503 155.046C120.44 154.755 119.326 154.969 118.254 154.635C117.054 155.191 115.674 154.909 114.543 154.319C113.703 154.43 112.708 154.139 112.074 153.567C110.857 152.395 110.583 147.838 112.923 147.941C113.163 147.847 113.42 147.821 113.668 147.898C115.468 146.684 116.857 149.565 116.651 151.079C117.303 151.002 117.971 151.156 118.554 151.455C119.814 150.557 121.828 151.309 122.643 152.489C123.928 153.293 123.046 155.473 121.503 155.046Z" fill="#279BC7"/>
<path d="M114.414 146.975C114.243 145.607 115.691 145.333 116.746 145.333C117.8 145.042 119.394 145.367 119.223 146.744C119.051 147.949 117.629 147.915 116.677 148.018C115.666 148.223 114.654 148.189 114.406 146.966L114.414 146.975Z" fill="white"/>
<path d="M119.403 146.273C119.232 145.752 118.76 145.427 118.494 144.94C118.417 144.829 118.349 144.709 118.28 144.589C118.374 144.298 118.392 143.982 118.297 143.683C118.297 143.657 118.28 143.623 118.272 143.597C118.254 143.435 118.246 143.272 118.237 143.11C118.22 142.794 118.203 142.477 118.186 142.161C118.786 141.973 119.137 141.383 119.069 140.759C119.034 140.459 118.949 140.152 118.889 139.861C118.846 139.647 118.794 139.442 118.752 139.228C118.674 138.852 118.589 138.467 118.503 138.091C118.392 137.527 118.289 136.954 118.194 136.381C118.143 136.073 118.083 135.765 118.032 135.458C117.972 135.116 117.929 134.774 117.86 134.44C117.8 134.132 117.672 133.859 117.44 133.645C117.423 133.089 117.414 132.525 117.406 131.969C117.389 131.106 117.329 130.242 117.26 129.379C117.14 127.84 116.952 126.292 116.729 124.762C116.6 123.872 116.446 123 116.257 122.12C116.077 121.307 115.897 120.495 115.726 119.683C115.34 117.887 114.92 116.092 114.543 114.288C114.474 113.954 114.209 113.655 113.926 113.484C113.832 113.424 113.72 113.399 113.609 113.364C113.609 113.091 113.609 112.809 113.609 112.535C113.617 111.8 113.626 111.065 113.634 110.338C113.634 110.158 113.643 109.987 113.643 109.808C113.643 109.081 113.034 108.465 112.297 108.465C112.186 108.465 112.066 108.482 111.963 108.508C111.963 108.004 111.603 107.525 111.149 107.328C110.703 107.14 110.197 107.217 109.812 107.499C109.614 107.645 109.426 107.824 109.314 108.046C109.263 108.149 109.212 108.252 109.169 108.354C109.109 108.32 109.049 108.286 108.98 108.252C108.492 108.012 107.909 107.961 107.369 107.935C106.349 107.901 105.354 108.055 104.36 108.269C104.18 108.311 104 108.346 103.812 108.388C103.374 108.32 102.946 108.252 102.517 108.192C102.183 108.149 101.849 108.089 101.506 108.064C101.189 108.038 100.872 108.021 100.554 108.029C100.512 107.969 100.46 107.91 100.4 107.85C100.229 107.662 99.9716 107.533 99.7145 107.482C99.5002 107.191 99.1745 106.995 98.8145 106.943C98.3345 106.875 97.8631 107.08 97.5716 107.456C97.4859 107.559 97.4173 107.67 97.3573 107.798C97.2973 107.952 97.2716 108.106 97.2373 108.269C97.2116 108.405 97.2202 108.551 97.2116 108.688C97.2031 108.85 97.1945 109.013 97.1859 109.175C97.1688 109.526 97.1516 109.868 97.1345 110.218C97.0916 110.902 97.0402 111.586 97.0059 112.279C96.9973 112.475 96.9888 112.663 96.9802 112.86C96.9802 113.048 96.9973 113.236 97.0231 113.416C97.0573 113.655 97.1516 113.878 97.2716 114.091C97.2888 114.117 97.3059 114.143 97.3231 114.168C97.2288 114.562 97.1431 114.955 97.0659 115.357C96.9973 115.69 96.9373 116.024 96.8773 116.357C96.7745 116.955 96.6631 117.554 96.5602 118.153C96.5088 118.426 96.4573 118.7 96.4231 118.973C96.3888 119.23 96.3545 119.495 96.3202 119.751C96.2602 120.136 96.1916 120.521 96.1402 120.914C95.9945 121.914 95.8488 122.915 95.7202 123.915C95.6173 124.685 95.5316 125.454 95.4373 126.224C95.4288 126.275 95.4116 126.326 95.4031 126.378C95.1973 127.318 95.0088 128.267 94.8202 129.216C94.7345 129.635 94.6831 130.063 94.6145 130.482C94.5545 130.858 94.5373 131.234 94.5031 131.61C94.4773 131.892 94.4773 132.174 94.4773 132.457C94.4773 132.611 94.4773 132.764 94.4773 132.927C94.4773 133.192 94.4773 133.466 94.4773 133.731C94.4773 133.816 94.4773 133.91 94.4773 134.004C94.2459 134.816 94.0831 135.654 93.9031 136.475C93.7916 136.98 93.7059 137.493 93.6031 138.006C93.4573 138.741 93.3459 139.476 93.2945 140.229C93.2859 140.288 93.2259 140.536 93.2431 140.784C93.2516 140.938 93.2602 141.101 93.2945 141.255C93.2516 141.52 93.2088 141.785 93.1573 142.05C93.0202 142.871 92.9088 143.691 92.7973 144.512C92.7373 144.974 92.6688 145.436 92.6173 145.897C92.5916 146.111 92.5659 146.333 92.5402 146.547C92.5231 146.709 92.4888 146.872 92.4888 147.034C92.4888 147.325 92.5573 147.607 92.7116 147.855C93.0031 148.3 93.4916 148.565 94.0316 148.496C94.0745 148.496 94.1173 148.479 94.1602 148.471C94.2288 148.505 94.3059 148.531 94.3831 148.548C94.5631 148.599 94.7516 148.608 94.9231 148.59C95.2402 148.667 95.5573 148.71 95.8745 148.762C96.1745 148.813 96.4745 148.847 96.7831 148.89C97.0231 148.924 97.2631 148.95 97.5031 148.967C97.8716 149.103 98.2745 149.129 98.6602 149.035C99.2516 149.069 99.8516 149.044 100.434 148.992C100.58 148.975 100.726 148.967 100.88 148.941C101.094 149.095 101.352 149.189 101.609 149.215C101.652 149.249 101.694 149.283 101.746 149.309C101.943 149.428 102.166 149.488 102.397 149.488C102.86 149.488 103.332 149.249 103.554 148.838C103.692 148.573 103.812 148.317 103.897 148.026C103.966 147.787 104.026 147.547 104.077 147.299C104.12 147.086 104.163 146.863 104.206 146.641C104.266 146.342 104.309 146.034 104.36 145.726C104.463 145.145 104.566 144.563 104.677 143.982C104.703 143.862 104.729 143.743 104.746 143.623C104.814 143.23 104.677 142.845 104.42 142.563C104.446 142.392 104.472 142.221 104.489 142.041C104.72 140.288 104.943 138.536 105.114 136.774C105.209 135.825 105.286 134.885 105.363 133.936C105.432 133.021 105.5 132.106 105.492 131.191C105.492 130.978 105.432 130.764 105.337 130.584C105.346 130.499 105.354 130.405 105.363 130.319C105.372 130.234 105.38 130.148 105.389 130.063C105.414 130.046 105.432 130.02 105.457 130.003C105.56 129.9 105.646 129.772 105.714 129.644C105.834 129.421 105.903 129.191 105.954 128.951C106.04 128.541 106.006 128.113 106.023 127.694C106.066 127.275 106.117 126.856 106.16 126.437C106.194 126.095 106.229 125.753 106.272 125.403C106.477 123.719 106.692 122.034 106.914 120.35C106.949 120.47 106.983 120.581 107.026 120.7C107.069 120.829 107.112 120.957 107.154 121.085C107.197 121.23 107.257 121.376 107.334 121.513C107.403 121.615 107.472 121.718 107.54 121.82C107.592 121.889 107.66 121.94 107.72 121.991C107.694 122.504 107.712 123.017 107.66 123.513C107.592 124.993 107.574 126.48 107.566 127.959C107.626 129.268 107.549 133.295 108.432 135.253C108.423 135.321 108.406 135.381 108.406 135.449C108.432 136.715 108.517 137.98 108.603 139.245C108.62 139.502 108.637 139.758 108.654 140.015C108.672 140.425 108.689 140.836 108.706 141.255C108.723 141.725 108.732 142.195 108.749 142.665C108.757 143.076 108.766 143.495 108.774 143.905C108.689 144.179 108.672 144.486 108.654 144.786C108.637 145.008 108.629 145.222 108.62 145.444C108.62 145.649 108.612 145.846 108.62 146.043C108.577 146.12 108.552 146.205 108.526 146.291C108.474 146.47 108.474 146.641 108.492 146.829C108.534 147.393 109.074 147.915 109.632 147.966C109.854 147.983 110.086 147.983 110.317 148.001C110.78 148.035 111.252 148.052 111.714 148.078C112.263 148.129 112.812 148.214 113.369 148.257C113.703 148.283 114.037 148.308 114.372 148.308C114.397 148.308 114.414 148.308 114.44 148.308C114.783 148.308 115.126 148.266 115.469 148.231C116.189 148.154 116.703 147.436 116.609 146.735C116.609 146.701 116.592 146.667 116.583 146.633C116.84 147.043 117.106 147.47 117.526 147.735C118.46 148.334 119.746 147.342 119.412 146.291L119.403 146.273ZM100.7 117.451C100.7 117.451 100.674 117.477 100.666 117.494C100.683 117.434 100.7 117.374 100.717 117.315C100.717 117.357 100.709 117.409 100.7 117.451ZM116.12 145.854C116.12 145.854 116.146 145.889 116.154 145.906C116.137 145.889 116.12 145.872 116.103 145.863C116.103 145.863 116.112 145.863 116.12 145.854Z" fill="white"/>
<path d="M102.234 150.48C99.6627 150.625 97.1684 149.864 94.6227 149.762C90.8513 150.001 91.477 147.906 91.6398 145.076C92.3513 139.1 92.7713 133.072 93.7227 127.13C94.4084 123.428 95.4456 119.785 96.0027 116.058C96.4913 113.219 96.5856 110.329 96.817 107.456C96.8256 107.285 96.8513 107.046 96.9027 106.764C96.9798 106.379 97.0227 106.182 97.1598 106.063C97.4684 105.789 98.0341 105.977 98.1198 106.011C99.9027 106.447 101.694 106.567 103.52 106.533C105.243 106.635 106.948 106.841 108.671 106.841C110.197 107.012 111.808 106.909 113.266 107.405C114.054 107.756 114.38 108.645 114.603 109.414C116.077 115.493 117.097 121.675 118.22 127.822C118.571 130.242 118.974 132.662 119.197 135.09C119.454 137.501 119.334 139.929 119.557 142.34C119.883 144.084 120.328 145.812 120.774 147.53C120.903 147.864 120.834 148.274 120.568 148.53C117.723 149.95 113.857 149.574 110.754 149.257C109.7 148.958 107.626 149.035 107.368 147.727C107.257 146.231 107.308 144.726 107.291 143.221C107.386 139.664 107.514 136.099 106.811 132.593C106.443 136.723 105.654 140.793 105.226 144.914C105.088 146.068 104.977 147.222 104.84 148.368C104.72 149.95 103.803 150.711 102.226 150.471L102.234 150.48ZM103.066 148.924C103.066 148.924 103.074 148.924 103.083 148.924C103.554 146.119 103.597 143.221 103.983 140.382C104.788 135.021 105.123 129.618 105.843 124.248C106.1 122.59 106.194 120.914 106.348 119.247C106.494 118.623 107.36 118.392 107.797 118.862C108.251 119.341 108.088 120.076 108.183 120.675C108.431 124.419 108.003 128.173 108.183 131.918C109.168 136.954 108.74 142.084 108.988 147.18C112.177 147.889 115.571 147.949 118.768 147.265C118.391 145.547 117.783 143.871 117.611 142.118C117.474 139.031 117.586 135.936 117.131 132.867C116.068 125.027 114.388 117.263 112.88 109.5C112.683 108.491 111.046 109.064 110.266 108.884C109.606 108.85 108.954 108.816 108.294 108.807C106.948 108.841 105.611 108.799 104.274 108.645C102.123 108.576 99.9713 108.542 97.897 107.867C97.7684 110.534 97.7513 113.219 97.3913 115.869C96.9198 119.777 96.0027 123.616 95.4198 127.506C94.9398 130.875 94.7598 134.278 94.4341 137.663C94.1513 141.006 93.5598 144.418 93.4998 147.752C94.837 147.829 96.1913 147.77 97.5113 148.043C99.3713 148.308 101.188 148.83 103.074 148.907L103.066 148.924Z" fill="#414355"/>
<path d="M73.0401 107.02C72.2516 106.61 71.9344 105.678 72.1316 104.84C70.0144 104.72 66.5601 105.764 65.1887 103.789C63.9459 101.617 66.5601 99.9581 68.3601 99.3682C70.5201 98.2139 72.9287 98.5046 75.2601 98.1883C76.143 98.1199 77.9516 96.9571 78.2687 98.308C79.3659 98.2823 79.7601 99.8812 78.783 100.369C78.4573 100.993 78.2859 101.719 77.8744 102.318C77.463 103.036 76.9916 103.72 76.5544 104.413C75.8001 105.61 74.8059 107.816 73.0487 107.02H73.0401ZM76.8116 99.3767C76.7087 99.4366 76.6059 99.4964 76.503 99.5648C76.5801 99.5477 76.6573 99.5221 76.7344 99.4964C76.8287 99.4708 76.923 99.4537 77.0259 99.4537C77.0773 99.4024 77.1287 99.3425 77.1801 99.2912C77.1801 99.2485 77.1801 99.2143 77.1973 99.1715C77.0687 99.2399 76.9401 99.3083 76.8201 99.3767H76.8116Z" fill="#FBC08A"/>
<path d="M140.754 58.4223C138.431 57.1825 143.18 53.2324 143.043 51.3685C143.283 49.4106 141.183 46.7259 139.923 49.5303C139.246 51.1206 139.709 52.9417 139.134 54.5919C138.929 55.3528 138.2 58.4479 137.171 58.0888C137.009 57.9948 136.914 57.7896 136.974 57.61C138.714 54.3867 136.837 49.8979 139.914 47.3329C143.069 45.3066 145.16 50.1373 144.466 52.6938C144.106 54.3097 143.06 55.635 142.229 57.0372C141.911 57.6528 141.637 58.6788 140.746 58.4308L140.754 58.4223Z" fill="#FBC08A"/>
<path d="M139.349 57.1055C138.86 56.943 138.483 56.0538 138.526 55.5152C138.569 54.8568 138.843 54.1386 139.049 53.6C139.091 52.8818 139.246 52.1892 139.4 51.4967C138.877 50.1201 139.323 48.7607 140.223 48.2819C141.243 47.7347 142.443 48.5469 142.546 48.6153C143.557 49.3164 144.012 50.7186 143.703 52.1807C141.132 56.507 139.949 57.3107 139.349 57.114V57.1055Z" fill="#FBC08A"/>
<path d="M113.42 108.491C109.503 108.098 107.549 107.91 99.5773 106.935C98.0002 106.747 97.3059 106.772 97.3059 106.772C96.7488 106.798 96.6802 106.849 96.5088 106.772C96.0459 106.567 95.7631 105.849 95.7888 102.72C95.7973 101.497 95.8659 100.89 95.8659 100.283C95.8659 94.8196 95.9688 89.339 97.1345 83.9867C94.8116 86.5175 93.1659 89.5528 90.8602 92.0836C89.4202 93.785 87.6545 95.153 86.0345 96.6664C84.8431 97.8976 83.7202 99.2057 82.5631 100.471C81.9288 101.206 81.3459 101.984 80.7545 102.763C80.1288 103.421 79.7688 104.738 78.6716 104.609C78.4059 104.567 78.2002 104.43 77.9859 104.276C77.0088 103.635 75.9031 103.19 75.0288 102.386C74.1373 101.583 73.3488 100.685 72.5173 99.8213C70.7602 98.8466 72.3202 97.6496 73.2802 96.8545C75.0374 95.4266 76.8459 94.0586 78.4488 92.4512C80.9088 90.0914 83.0088 87.3811 85.0916 84.6878C87.5345 81.6098 89.4545 78.1642 90.7659 74.4706C91.6402 72.4955 93.5774 71.0848 95.6259 70.5205C96.5431 70.3324 97.4773 70.1956 98.3859 69.9562C99.6716 69.8365 99.5688 71.8201 98.2831 71.555C98.1716 71.5208 98.0516 71.5807 97.9402 71.5892C96.0716 72.0082 94.2288 72.9401 93.0973 74.4791C92.4545 75.4624 92.1888 76.6252 91.7345 77.7025C91.0831 79.2928 90.2088 80.7719 89.3174 82.234C87.1831 85.6027 84.5345 88.7491 81.9459 91.7501C79.6402 94.3579 76.9059 96.5125 74.2402 98.7269C75.5002 100.232 76.8973 101.591 78.6716 102.472C80.6345 99.8555 82.8888 97.4701 85.1945 95.153C87.5945 93.0754 90.0202 90.955 91.8288 88.313C93.2688 86.0302 94.9573 83.9098 96.6202 81.7894C97.1431 81.0712 97.2288 80.0281 97.9145 79.4552C98.3945 79.156 99.1316 79.4381 99.2602 79.9939C99.3288 81.7808 99.0631 83.6105 98.8059 85.3889C97.6231 91.5278 97.7345 97.8206 97.3916 104.045C102.354 106.627 108.123 106.61 113.592 106.704C112.769 101.779 113.926 96.8459 113.789 91.904C113.789 89.3732 113.78 86.8424 113.934 84.3116C113.883 82.4648 114.406 80.6266 115.692 79.2586C117.08 77.7709 119.129 77.1125 120.877 76.1378C123.543 74.8382 126.089 73.2992 128.703 71.897C130.109 71.119 131.497 70.3153 132.817 69.409C134.566 68.2462 136.4 67.1432 137.84 65.6128C139.923 63.2017 141.834 60.3032 142.032 57.0542C140.369 56.6096 138.997 55.4981 137.3 55.1305C136.117 57.2936 134.523 59.2687 132.732 60.9616C130.983 62.5861 128.943 63.8515 126.963 65.1853C123.32 67.5109 119.694 70.0844 115.512 71.3584C113.532 71.8799 111.492 72.4015 109.426 72.3502C108.903 72.3074 108.423 72.068 107.926 71.9227C107.626 71.9141 107.343 71.7859 107.146 71.5379C106.76 71.0506 106.932 70.3067 107.463 69.9989C108.132 69.5885 108.886 70.0331 109.554 70.2041C110.712 70.2896 111.886 69.9818 113.026 69.8023C116.523 69.1439 119.643 67.3826 122.634 65.5444C125.729 63.5779 128.952 61.7311 131.737 59.3285C133.16 57.9691 134.48 56.4814 135.449 54.7628C135.826 54.1558 135.74 53.1811 136.563 52.9588C137.746 52.8305 138.843 53.6171 139.889 54.0703C140.54 54.4037 141.097 54.8911 141.74 55.2331C142.854 55.652 143.814 55.9855 143.686 57.3962C143.737 59.6363 142.649 61.6712 141.569 63.5608C140.06 66.2198 137.832 68.3915 135.226 69.9818C131.309 72.658 127.057 74.7784 122.892 77.027C121.76 77.5999 120.594 78.1214 119.489 78.737C117.8 79.5065 116.266 80.6009 115.88 82.5332C115.82 86.1157 115.932 89.7067 115.803 93.2977C115.769 96.3329 115.22 99.3169 114.929 102.326C114.877 103.712 114.852 105.105 114.869 108.123C114.466 108.559 113.737 108.5 113.403 108.465L113.42 108.491Z" fill="#279BC7"/>
<path d="M111.474 107.149C110.883 107.183 110.009 107.166 110.009 107.166C110.009 107.166 109.511 106.995 108.74 106.738C108.423 106.815 108.08 106.807 107.78 106.678C104.6 107.149 101.429 106.302 98.5143 105.114C95.9515 104.891 96.6972 99.428 97.2629 97.7351C96.74 97.1622 96.86 96.2901 97.0572 95.6061C97.4257 94.3065 97.4172 93.5456 97.6915 91.9638C97.8629 90.9635 97.88 90.4077 97.9657 89.1252C98.0772 87.5777 98.2743 85.2948 98.6772 82.1228C98.7886 81.8406 98.9257 81.3789 98.9257 80.789C98.9257 80.2931 98.8229 79.8912 98.7286 79.6176C98.6 79.5236 98.4886 79.4039 98.4029 79.2756C98.2915 79.4381 98.18 79.6005 98.0686 79.763C98.1115 79.8827 98.1286 80.0024 98.1286 80.1306C98.1286 80.3957 98.0343 80.6351 97.88 80.8403C97.2543 81.5841 96.6029 82.3194 96.0115 83.0975C95.2143 83.9525 94.7086 85.2777 93.6286 85.7736C92.6257 87.3212 91.4086 88.9884 89.9429 90.6899C89.0772 91.6988 88.2115 92.6222 87.3629 93.4515C86.5229 94.6058 85.9829 96.1875 84.6886 96.9057C84.1743 97.6496 83.5743 98.325 83.0515 99.0603C82.4686 99.8042 81.98 101.112 80.8229 100.899C80.6429 101.531 80.2572 102.215 79.5629 102.361C79.3229 103.156 78.3543 103.498 77.6429 103.096C77.18 102.831 76.94 102.506 76.4257 101.711C75.02 99.5648 74.2572 99.5904 74.2486 98.744C74.24 97.8633 75.0715 97.2135 76.7343 95.9225C77.9343 94.9905 79.0143 94.3664 79.7686 93.9645C80.06 93.6738 80.6343 93.0155 80.8829 92.0066C81.0286 91.4166 81.0115 90.9036 80.9686 90.5531C81.8772 90.0401 83.0515 89.262 84.2086 88.0821C85.04 87.2442 85.6572 86.4063 86.1029 85.6967C87.0629 84.1919 87.3372 83.1402 88.6315 81.8492C88.9143 81.567 89.1629 81.3533 89.3343 81.225C89.6943 79.5492 90.6715 76.1976 93.6286 73.5215C94.4686 72.7605 95.3257 72.1877 96.1057 71.7516C97.4686 70.5119 98.4372 71.3156 98.9857 72.7947C101.051 73.949 103.623 73.6241 105.517 72.2732C105.611 71.5037 106.057 70.8453 106.674 70.623C107.583 70.2981 108.851 70.9137 109.254 72.2133C110.566 72.1877 111.783 71.8286 113.034 71.4695C114.697 71.042 116.369 70.6572 118.023 70.2041C119.583 69.3149 121.151 68.4 122.771 67.6049C124.511 66.2796 126.371 65.0741 128.171 63.8087C129.86 62.6459 131.514 61.4489 133.211 60.3032C134.514 58.5419 135.303 56.4386 136.717 54.7628C137.874 53.7539 139.417 55.31 140.54 55.7717C143.883 57.2166 141.363 61.0299 139.957 63.0392C140.103 63.2102 140.18 63.3897 140.214 63.5693C140.42 64.7064 138.749 65.912 137.163 66.9978C135.569 68.0922 133.443 69.4944 130.829 71.0676C128.343 72.6408 125.737 74.214 123.02 75.7701C121.794 76.4712 120.569 77.1552 119.36 77.8136C118.366 78.2325 117.243 79.4808 116.129 78.8481C115.443 79.763 114.783 80.6864 114.363 81.7551C114.569 83.1659 114.466 84.5852 114.38 86.0216C114.303 87.7316 114.286 89.4501 114.26 91.1601C114.277 92.6735 114.303 94.1783 114.311 95.6916C114.209 96.8031 114.62 98.1284 113.969 99.1031C113.891 101.095 113.84 103.079 113.806 105.071C113.789 105.558 113.789 106.046 113.746 106.533C113.686 107.157 112.529 107.08 111.483 107.132L111.474 107.149Z" fill="#279BC7"/>
<path d="M89.9942 58.9781C88.8456 58.7301 87.9456 57.858 87.3885 56.8577C86.3856 55.2759 86.4028 52.9332 87.9799 51.7191C88.2885 51.4883 89.317 50.7102 89.5399 51.3002C89.557 51.3857 89.5313 51.4712 89.4971 51.5481C89.5142 51.5909 89.4885 51.6336 89.4456 51.6507C89.2142 52.1124 88.9913 52.5827 88.8713 53.0786C88.8113 53.4633 88.8542 53.8481 88.9142 54.2328C89.2056 55.2075 89.9428 56.396 90.9628 56.7038C91.3142 56.7978 91.6399 56.6439 91.9656 56.5584C92.4371 56.4387 92.9342 56.6696 93.1228 57.1142C93.6971 58.5249 90.9799 59.226 89.9942 58.961V58.9781Z" fill="#414355"/>
<path d="M89.9942 56.8662C87.877 56.6781 87.5428 52.7023 89.2142 51.7789C89.0942 51.4882 89.0428 51.1804 89.0342 50.8641C88.8799 50.5905 88.7599 50.3083 88.6656 50.0176C88.0313 48.2478 88.3913 44.9902 90.7913 44.956C91.0913 44.6739 91.4428 44.4516 91.8542 44.3746C91.9228 44.3661 91.9913 44.3575 92.0599 44.349C92.317 43.6137 92.857 43.0152 93.6028 42.7501C93.6628 42.6304 93.7228 42.5022 93.7999 42.391C94.1256 41.878 94.6828 41.442 95.2999 41.3394C95.3599 41.194 95.4199 41.0487 95.4885 40.9033C95.7285 40.3989 96.0628 39.9543 96.4742 39.5695C96.5856 36.9276 99.0542 35.1577 100.777 37.8082C101.711 37.1157 103.177 36.9874 103.948 37.9792C103.974 37.9707 103.991 37.9621 104.017 37.945C104.24 37.851 104.48 37.774 104.72 37.7142C105.234 36.9019 106.143 36.2863 107.128 36.3205C108.011 35.6365 109.306 35.7648 110.12 36.5001C111.774 36.6796 112.314 38.7316 112.014 40.1253C112.486 40.2877 112.863 40.6383 113.146 41.0401C113.411 41.194 113.643 41.3821 113.84 41.613C115.571 41.4249 116.557 43.5624 115.974 45.0073C116.051 46.0932 115.768 47.3757 114.757 47.9571C114.8 48.0511 114.86 48.1366 114.92 48.2221C116.18 48.0682 116.977 49.7098 116.008 50.5648C115.991 50.6418 115.966 50.7102 115.948 50.7871C115.948 50.7957 115.948 50.8128 115.948 50.8213C116.746 51.5737 116.788 52.899 116.111 53.7369C115.623 54.4038 114.577 54.5064 113.943 54.0019C112.94 53.1213 113.128 51.5823 113.291 50.3938C112.271 49.4961 111.877 48.1281 111.877 46.8285C110.848 46.3753 109.674 45.9478 109.151 44.862C108.123 44.5029 107.403 43.5624 107.146 42.5278C107.077 42.5278 107.008 42.5278 106.931 42.5278C105.834 43.2204 104.343 43.6137 103.194 42.8271C102.748 42.8698 102.286 42.8527 101.848 42.7501C101.36 42.9553 100.837 43.0836 100.306 43.1178C99.517 44.1352 98.5228 45.1954 97.2028 45.4348C96.5942 47.0593 96.0628 48.9147 94.657 50.0347C95.0942 51.5566 94.5113 54.2755 92.6942 54.5833C92.4628 55.7974 91.3399 57.0115 90.0199 56.8234L89.9942 56.8662Z" fill="#414355"/>
<path d="M146.06 17.0572C145.7 14.6547 144.02 12.7566 142.229 11.2261C141.14 10.2942 139.992 9.23399 138.492 9.10574C135.809 8.97749 131.112 10.4908 129.174 12.3718C128 13.4406 127.109 14.7658 126.294 16.1167C124.726 18.7245 123.757 21.6315 123.029 24.5727C122.437 26.941 121.966 29.3436 121.452 31.729C120.946 34.0803 120.372 36.423 120.003 38.7999C119.455 42.7671 118.289 46.6146 116.934 50.3766C116.463 51.5907 116.146 54.0958 114.56 54.1044C114.5 53.7538 114.423 53.3862 114.355 53.0356C114.535 50.616 113.626 48.1878 112.135 46.2555C111.406 45.1354 110.523 44.1094 109.486 43.2715C106.889 41.2965 103.306 41.818 100.434 42.8782C99.6031 43.1946 98.8745 43.7076 98.1631 44.2291C96.3031 45.5373 94.6574 47.4183 94.3745 49.7524C94.2888 50.2056 94.1859 50.6673 94.1002 51.1375C93.8002 52.1635 93.6031 53.2152 93.5345 54.2241C93.4916 54.2241 93.4402 54.2241 93.3974 54.2412C90.3202 55.1133 90.4402 59.2771 92.1459 61.3975C93.2688 63.022 94.6745 64.4071 96.0716 65.8008C99.2602 69.1524 96.2259 73.6924 102.286 73.8207C104.369 74.0088 106.666 72.7006 107.043 70.546C107.3 69.6654 106.957 68.5624 107.849 67.9981C109.863 66.3651 112.64 65.245 113.729 62.7484C113.926 62.5774 114.089 62.3209 114.217 62.0473C114.663 61.2693 114.766 60.3544 114.937 59.4909C115.006 58.9693 115.083 58.4478 115.109 57.9262C115.657 58.1314 116.12 58.5076 116.583 58.8582C117.269 59.337 117.835 59.9526 118.452 60.5083C119.883 61.6968 121.735 62.3466 123.586 62.4064C124.786 62.4321 125.994 62.3722 127.194 62.3637C128.72 62.3722 130.263 62.1756 131.669 61.5429C134.506 60.2775 136.477 57.6013 137.72 54.8397C138.843 52.0353 139.049 49 139.177 46.0161C139.374 43.092 140.266 40.356 141.355 37.6371C142.58 34.9524 144.063 32.3788 144.912 29.5402C145.494 27.7362 145.957 25.8808 146.154 23.9913C146.343 21.6913 146.352 19.3486 146.06 17.0572ZM99.1659 69.5628C99.1659 69.5628 99.1574 69.6141 99.1488 69.6312C99.1316 69.5029 99.1059 69.3661 99.0802 69.2379C99.1059 69.3405 99.1316 69.4431 99.1659 69.5628ZM141.98 32.5755C142.169 32.0454 142.4 31.5324 142.64 31.0279C142.426 31.5495 142.212 32.071 141.98 32.584C141.98 32.584 141.98 32.584 141.98 32.5755ZM117.055 53.6512C117.072 53.7111 117.08 53.7709 117.106 53.8308C116.994 53.8992 116.883 53.959 116.772 54.0018C116.874 53.8906 116.969 53.7709 117.055 53.6512Z" fill="#FBC08A"/>
<path d="M160.203 16.8863C158.617 16.6212 158.926 14.6376 159.68 13.68C160.76 12.1325 162.655 11.4228 163.82 9.93511C164.96 8.71246 165.783 6.74596 164.772 5.20696C164.189 4.48021 163.529 3.59101 162.5 3.56536C160.769 3.47131 158.977 3.77911 157.537 4.79656C156.869 5.18131 156.406 5.93371 155.643 6.13036C154.657 6.21586 154.64 5.07016 155.009 4.43746C156.672 1.30816 160.957 0.256507 164.18 1.23976C167.172 2.67616 168.646 5.81401 167.523 8.98606C166.692 11.1321 164.943 12.7737 163.117 14.1075C162.62 14.4752 162.072 14.8001 161.78 15.3644C161.746 16.2108 161.12 17.0316 160.195 16.8863H160.203Z" fill="#279BC7"/>
<path d="M157.091 21.4008C155.334 19.5454 158.394 17.2626 159.774 19.306C160.631 20.7339 158.283 22.632 157.091 21.4008Z" fill="#279BC7"/>
<path d="M159.234 40.6808C156.714 39.6805 159.92 35.3114 161.369 34.4906C162.32 33.8066 163.614 33.7553 164.506 32.9773C165.389 32.2249 164.437 30.8911 163.494 30.7543C162.723 30.6602 161.891 30.874 161.189 31.1989C160.94 31.4041 160.709 31.652 160.374 31.7204C158.823 32.1223 158.094 30.1814 159.123 29.1725C159.62 28.7023 160.34 28.651 160.957 28.4116C162.86 27.7703 165.26 27.9157 166.546 29.6342C168.114 31.4725 167.823 34.0375 165.783 35.3884C164.806 36.1151 163.503 36.2092 162.543 36.953C162.071 37.4233 161.634 37.9363 161.317 38.5262C160.923 39.4667 160.597 41.0485 159.226 40.6979L159.234 40.6808Z" fill="#279BC7"/>
<path d="M156.92 46.435C154.186 46.0588 155.3 42.7157 157.683 43.451C159.397 44.0666 158.711 46.7342 156.92 46.435Z" fill="#279BC7"/>
<path d="M100.186 45.1953C99.8944 44.5369 101.146 44.0325 101.42 44.6823C101.694 45.3321 100.46 45.8622 100.186 45.1953Z" fill="#4DB447"/>
<path d="M114.294 55.1646C113.643 54.9765 113.06 54.5575 112.751 53.9505C112.134 53.4973 111.92 52.6338 112.186 51.9241C111.543 51.7104 110.926 51.2743 110.711 50.6074C110.317 50.4193 109.966 50.1457 109.743 49.7695C109.486 49.3335 109.417 48.8034 109.503 48.3075C108.328 47.9313 107.377 46.9309 107.283 45.6741C107.163 45.6313 107.043 45.5886 106.923 45.5373C106.434 45.3321 105.988 45.0243 105.663 44.6053C105.2 44.7165 104.72 44.7763 104.24 44.802C104.043 44.8105 103.837 44.802 103.64 44.7763C103.554 44.8191 103.477 44.8618 103.391 44.9046C103.22 45.1953 103.014 45.4689 102.783 45.7254C102.046 46.5633 101.077 47.2473 99.9456 47.3328C99.5685 47.7859 99.1228 48.1963 98.5999 48.4443C98.2828 48.906 97.9485 49.3506 97.5799 49.7695C98.3685 51.052 97.8456 52.7193 96.7656 53.6769C96.1742 54.1984 95.3599 54.3181 94.597 54.3181C93.6028 54.3267 92.5313 54.1557 91.7685 53.4631C91.4513 53.1981 91.4513 52.6765 91.7856 52.4286C92.2313 52.1635 92.7885 52.155 93.2942 52.1379C93.1313 51.3256 93.7399 50.6245 94.057 49.932C93.3713 48.6324 94.5456 45.9135 95.917 45.4518C96.277 44.8875 96.8085 44.4258 97.4085 44.1351C97.597 42.9979 98.617 42.0745 99.7913 42.0831C100.434 41.5701 101.214 41.1682 102.063 41.1939C103.023 40.0567 105.371 39.7746 105.997 41.3905C106.914 40.5954 108.508 39.9199 109.554 40.8348C110.094 41.3136 110.231 42.1857 109.751 42.75L112.151 44.2206C112.228 44.4685 112.306 44.7336 112.383 45.0072C112.486 45.3919 112.571 45.7596 112.64 46.1101C112.717 46.3752 112.828 46.6915 112.983 47.025C113.137 47.3499 113.3 47.6235 113.446 47.8543C113.6 47.9056 113.746 47.974 113.883 48.0766C114.337 48.4272 114.526 49.0257 114.388 49.5643C114.671 49.6669 114.92 49.8465 115.108 50.0773C115.408 50.4535 115.46 50.9665 115.288 51.394C115.426 51.6505 115.46 51.9241 115.443 52.2148C115.511 52.3516 115.554 52.497 115.58 52.6423C115.597 52.762 115.597 52.8732 115.58 52.9843C116.523 53.8906 115.571 55.5408 114.311 55.1646H114.294Z" fill="#414355"/>
<path d="M101.789 56.1564C101.026 55.481 101.18 54.1044 101.703 53.3264C102.106 52.6424 103.16 52.5654 103.477 53.3691C103.803 54.207 103.769 56.3531 102.603 56.507C102.286 56.5412 101.977 56.4129 101.789 56.165V56.1564Z" fill="#414355"/>
<path d="M107.454 56.7036C107.497 56.6352 107.548 56.5754 107.6 56.507C107.6 56.507 107.617 56.507 107.626 56.4984C107.694 56.4642 107.754 56.4215 107.823 56.3873C107.917 56.336 108.011 56.2761 108.106 56.2248C108.337 56.0966 108.56 55.9683 108.791 55.8486C108.894 55.7973 108.997 55.746 109.091 55.6862C109.203 55.6178 109.314 55.5494 109.426 55.4724C109.451 55.4553 109.477 55.4382 109.494 55.4211C109.554 55.4382 109.614 55.4553 109.674 55.4639C109.691 55.4639 109.708 55.4639 109.726 55.4639C109.777 55.4639 109.82 55.4639 109.871 55.4639C109.871 55.4639 109.88 55.4639 109.888 55.4639C110.008 55.8401 110.034 56.2847 109.931 56.4899C109.768 57.0542 109.126 57.3791 108.577 57.4304C108.123 57.4133 107.617 57.1397 107.463 56.7036H107.454ZM109.083 55.7204C109.083 55.7204 109.143 55.7802 109.16 55.823C109.16 55.7802 109.151 55.7375 109.143 55.6947V55.6691C109.143 55.6691 109.1 55.7033 109.083 55.7204Z" fill="#414355"/>
<path opacity="0.35" d="M130.631 46.5292C129.586 46.3154 128.128 46.076 127.46 45.5032C127.408 45.4604 127.074 45.127 126.406 44.5883C126.311 44.5114 126.217 44.4344 126.123 44.3404C125.728 43.9214 125.42 43.4341 125.291 42.8612C125.017 41.7839 125.54 40.7408 125.728 39.6892C125.977 38.4751 126.003 37.2268 125.848 36.0041C125.797 35.9528 125.72 35.8759 125.668 35.7476C125.557 35.4655 125.694 35.2004 125.72 35.1577C125.668 35.0807 125.591 34.9439 125.557 34.7729C125.497 34.4566 125.591 34.2001 125.643 34.106C125.42 33.3964 126.268 33.1741 126.508 33.841C126.508 33.841 126.517 33.841 126.526 33.841C126.526 33.841 126.517 33.841 126.508 33.841C126.74 33.8666 126.963 33.9521 127.16 34.0889C127.22 34.0975 127.28 34.1231 127.34 34.1402C129.268 34.8328 130.194 36.8506 131.206 38.4922C131.48 39.065 131.677 39.6892 132.106 40.1765C132.406 40.4501 132.8 40.0397 133.023 39.8174C133.803 38.6546 134.403 37.355 134.891 36.0469C135.054 35.6194 135.26 34.9097 135.328 34.5164C135.954 31.6607 136.408 28.7794 136.906 25.9066C137.034 24.4531 137.3 22.9996 137.411 21.5461C137.343 21.0502 137.197 20.5628 137.094 20.0755C136.948 19.7677 136.537 19.8104 136.246 19.7591C134.763 19.7249 132.894 20.503 131.866 21.5717C131.051 22.5037 130.391 23.5553 129.774 24.6326C129.474 25.1542 129.148 25.6672 128.831 26.1802C128.497 26.6248 127.786 26.7274 127.357 26.3683C126.791 25.9408 126.928 25.2055 127.168 24.6326C127.46 23.8717 127.768 23.1278 128.103 22.384C128.617 21.3238 129.311 20.3491 130.134 19.5112C130.863 18.2116 132.037 17.2711 133.306 16.5358C133.58 16.2707 135.388 14.5607 137.231 15.0481C139.228 15.5696 139.871 18.2971 140.18 19.6052C140.583 21.3238 140.386 22.213 139.22 28.7366C138.294 33.9094 138.011 35.6536 137.171 38.3468C136.743 39.7319 136.666 39.7405 136.28 41.0914C135.054 45.2894 135.268 46.8541 134.163 47.35C133.614 47.5979 133.657 47.1704 130.606 46.5548L130.631 46.5292Z" fill="#F8A24B"/>
<path d="M113.866 55.8143C111.603 55.2756 111.406 53.6939 110.977 51.7359C110.694 51.1545 110.369 50.4705 109.726 50.2397C107.42 49.778 106.64 48.2475 106.726 46.0245C106.074 44.9814 104.823 44.8446 104.017 45.7937C103.46 46.8881 102.851 47.991 101.891 48.7947C101.223 49.4445 99.9457 49.2735 99.62 50.2739C99.4829 50.7612 99.5686 51.2742 99.4229 51.7616C99.1229 52.8474 98.2572 53.7537 97.2629 54.2496C96.1915 54.6344 95.0429 54.9935 93.9029 54.9165C92.7286 54.7968 91.2972 53.3091 92.3257 52.2318C92.7029 51.8556 93.32 51.7701 93.7829 52.0437C93.98 52.1378 94.1686 52.3173 94.4 52.3088C95.0172 52.2233 95.6343 52.0779 96.2343 51.9155C97.22 51.5564 96.9543 50.7612 97.0315 49.9404C97.2543 48.2732 98.6772 47.1104 100.28 46.8197C101.506 46.016 101.557 44.2974 102.766 43.4595C103.906 42.425 105.534 42.3138 106.949 42.8268C107.831 43.1346 108.466 43.887 108.997 44.6223C109.511 45.3662 109.331 46.3067 109.469 47.1531C109.571 47.5379 110.077 47.5635 110.394 47.6661C110.96 47.8286 111.474 48.1364 111.911 48.5297C112.477 49.0427 112.837 49.7096 113.171 50.385C113.583 51.2229 113.574 52.1805 113.763 53.0783C113.814 53.2749 113.84 53.5143 114.037 53.6169C114.671 54.1556 115.357 53.5998 115.717 53.027C116.06 52.6337 115.983 52.1549 115.88 51.6846C115.614 49.778 114.191 48.1193 114.431 46.1442C114.457 45.4175 114.817 44.7933 115.066 44.135C115.117 43.4681 115.134 42.6045 114.569 42.1428C113.334 41.4246 111.646 41.151 111.123 39.6291C110.849 38.8169 110.771 37.9277 110.326 37.1753C109.529 35.8842 108.209 36.3203 107.266 37.1753C105.594 38.6288 102.963 40.2618 100.846 38.7656C100.443 38.5091 100.177 38.1072 99.8172 37.808C98.9943 37.7139 98.2229 38.0987 97.6743 38.6972C96.4315 39.9797 96.6115 42.0915 95.1457 43.2287C93.9286 44.2376 92.1886 44.3658 91.0486 45.503C89.9686 46.4007 88.6572 49.2222 89.66 50.4363C89.9772 50.7612 90.3457 51.0348 90.6972 51.317C90.8857 51.3854 91.0315 51.5564 91.0315 51.7787C90.98 52.4285 90.3457 52.2575 89.8915 52.2062C88.0572 52.2575 86.8829 50.7783 86.9857 49.0085C87.26 45.1781 89.6943 42.7755 93.2429 41.6384C94.2715 41.1339 94.1943 39.8258 94.6743 38.928C94.9057 38.4407 95.1543 37.9619 95.4886 37.5344C96.7915 35.6619 100.091 34.3794 101.754 36.4571C102.483 37.7652 103.794 36.8589 104.737 36.3374C105.783 35.5679 106.709 34.5675 108.003 34.1999C110.994 33.5415 112.511 36.021 112.88 38.6288C112.931 39.176 113.403 39.4667 113.883 39.612C115.417 40.0566 116.763 40.8689 117.037 42.5618C117.611 45.2123 115.974 45.7424 116.617 47.5721C117.26 49.188 118.006 50.8382 118.057 52.5995C117.843 54.5061 115.854 56.3957 113.866 55.8228V55.8143Z" fill="#414355"/>
<path d="M122.514 50.214C122.017 49.9319 121.854 49.2735 122.137 48.7862C122.54 48.0167 122.96 47.2472 123.466 46.5461C124.734 44.8019 127.1 43.6305 129.251 44.2803C130.117 44.5197 130.983 44.8446 131.686 45.4175C132.08 45.7509 132.483 46.0929 132.98 46.2639C135.011 46.0074 135.766 42.6815 136.254 41.0142C137.206 37.5942 137.814 34.0887 138.586 30.626C139.563 26.4365 140.437 21.9563 139.52 17.6898C138.946 16.1765 137.06 15.7319 135.611 16.091C132.603 16.8947 130.597 19.6905 129.14 22.2726C128.643 23.3499 128.026 24.4956 128.128 25.7183C128.223 26.6673 126.808 26.7528 126.774 25.8123C126.74 24.9402 126.954 24.0938 127.246 23.273C128.591 19.6563 131.317 15.501 135.208 14.3639C137.84 13.5602 141.191 14.9624 141.603 17.8779C142.494 22.9053 141.054 27.9071 139.888 32.7635C139.374 35.3028 138.851 37.8336 138.217 40.3473C137.72 42.083 137.377 43.9041 136.503 45.503C135.611 47.0676 133.803 49.1025 131.84 48.068C131.111 47.7516 130.588 47.136 129.903 46.7513C128.283 45.9048 126.766 46.1357 125.514 47.4866C124.906 48.2133 124.451 49.0512 123.946 49.8549C123.646 50.3423 123.003 50.5133 122.514 50.2311V50.214Z" fill="#F8A24B"/>
<path d="M124.297 42.143C123.483 41.63 124.228 40.7665 124.511 40.1594C124.717 39.7148 124.914 39.2702 125.103 38.8085C125.78 36.6539 125.497 34.2428 124.906 32.1053C124.28 31.3871 125.351 30.5578 125.823 31.3957C126.346 32.7295 126.783 34.1402 126.851 35.5852C126.946 36.6796 127.006 37.7996 126.697 38.8684C126.363 39.749 125.608 42.8099 124.297 42.1345V42.143Z" fill="#F8A24B"/>
<path d="M113.866 55.8143C111.603 55.2756 111.406 53.6939 110.977 51.7359C110.694 51.1545 110.369 50.4705 109.726 50.2397C107.42 49.778 106.64 48.2475 106.726 46.0245C106.074 44.9814 104.823 44.8446 104.017 45.7937C103.46 46.8881 102.851 47.991 101.891 48.7947C101.223 49.4445 99.9457 49.2735 99.62 50.2739C99.4829 50.7612 99.5686 51.2742 99.4229 51.7616C99.1229 52.8474 98.2572 53.7537 97.2629 54.2496C96.1915 54.6344 95.0429 54.9935 93.9029 54.9165C92.7286 54.7968 91.2972 53.3091 92.3257 52.2318C92.7029 51.8556 93.32 51.7701 93.7829 52.0437C93.98 52.1378 94.1686 52.3173 94.4 52.3088C95.0172 52.2233 95.6343 52.0779 96.2343 51.9155C97.22 51.5564 96.9543 50.7612 97.0315 49.9404C97.2543 48.2732 98.6772 47.1104 100.28 46.8197C101.506 46.016 101.557 44.2974 102.766 43.4595C103.906 42.425 105.534 42.3138 106.949 42.8268C107.831 43.1346 108.466 43.887 108.997 44.6223C109.511 45.3662 109.331 46.3067 109.469 47.1531C109.571 47.5379 110.077 47.5635 110.394 47.6661C110.96 47.8286 111.474 48.1364 111.911 48.5297C112.477 49.0427 112.837 49.7096 113.171 50.385C113.583 51.2229 113.574 52.1805 113.763 53.0783C113.814 53.2749 113.84 53.5143 114.037 53.6169C114.671 54.1556 115.357 53.5998 115.717 53.027C116.06 52.6337 115.983 52.1549 115.88 51.6846C115.614 49.778 114.191 48.1193 114.431 46.1442C114.457 45.4175 114.817 44.7933 115.066 44.135C115.117 43.4681 115.134 42.6045 114.569 42.1428C113.334 41.4246 111.646 41.151 111.123 39.6291C110.849 38.8169 110.771 37.9277 110.326 37.1753C109.529 35.8842 108.209 36.3203 107.266 37.1753C105.594 38.6288 102.963 40.2618 100.846 38.7656C100.443 38.5091 100.177 38.1072 99.8172 37.808C98.9943 37.7139 98.2229 38.0987 97.6743 38.6972C96.4315 39.9797 96.6115 42.0915 95.1457 43.2287C93.9286 44.2376 92.1886 44.3658 91.0486 45.503C89.9686 46.4007 88.6572 49.2222 89.66 50.4363C89.9772 50.7612 90.3457 51.0348 90.6972 51.317C90.8857 51.3854 91.0315 51.5564 91.0315 51.7787C90.98 52.4285 90.3457 52.2575 89.8915 52.2062C88.0572 52.2575 86.8829 50.7783 86.9857 49.0085C87.26 45.1781 89.6943 42.7755 93.2429 41.6384C94.2715 41.1339 94.1943 39.8258 94.6743 38.928C94.9057 38.4407 95.1543 37.9619 95.4886 37.5344C96.7915 35.6619 100.091 34.3794 101.754 36.4571C102.483 37.7652 103.794 36.8589 104.737 36.3374C105.783 35.5679 106.709 34.5675 108.003 34.1999C110.994 33.5415 112.511 36.021 112.88 38.6288C112.931 39.176 113.403 39.4667 113.883 39.612C115.417 40.0566 116.763 40.8689 117.037 42.5618C117.611 45.2123 115.974 45.7424 116.617 47.5721C117.26 49.188 118.006 50.8382 118.057 52.5995C117.843 54.5061 115.854 56.3957 113.866 55.8228V55.8143Z" fill="#414355"/>
<path opacity="0.07" d="M213.86 120.367C208.271 119.555 204.611 120.17 202.443 120.717C201.654 120.914 196.863 122.128 196.94 123.428C197 124.454 200.06 125.044 202.383 125.488C205.16 126.027 210.628 126.779 218.643 125.3C221.72 124.727 223.734 124.343 223.777 123.616C223.863 122.325 217.571 120.897 213.86 120.358V120.367Z" fill="#2A9CC8"/>
<path d="M220.418 85.3889C218.883 85.2949 217.392 84.9272 215.875 84.6964C214.383 84.5168 212.746 84.3715 211.512 83.4395C210.68 82.9949 210.209 77.7709 210.878 77.1553C212.232 75.8984 214.272 75.7873 216.003 75.4538C217.032 75.6163 217.006 77.027 216.02 77.2664C216.2 77.3263 216.372 77.4374 216.492 77.5742C216.526 77.5742 216.56 77.5571 216.595 77.5571C216.895 77.5144 217.186 77.5999 217.409 77.7709C217.46 77.7367 217.512 77.711 217.572 77.6854C217.958 77.5229 218.438 77.6255 218.72 77.9333C218.883 77.8991 219.046 77.8991 219.2 77.9333C219.089 76.4456 218.772 74.9836 218.66 73.4959C218.429 71.9911 218.283 70.4008 217.46 69.0841C217.332 68.8703 217.409 68.5882 217.623 68.4599C218.532 67.7674 219.415 72.1535 219.638 72.7691C220.418 76.2148 221.446 79.6433 221.72 83.183C221.763 83.6191 221.763 84.0551 221.84 84.4826C221.849 85.2179 221.052 85.5428 220.418 85.3889Z" fill="#414355"/>
<path d="M208.957 81.4216C208.229 81.3959 207.26 81.3104 206.969 80.5324C206.823 80.1391 206.935 79.7116 206.84 79.3097C206.506 78.8908 206.215 78.4462 206.017 77.9503C205.872 77.5655 205.786 77.1722 205.597 76.796C205.297 76.0607 205.032 75.3083 204.937 74.5132C204.877 73.8548 204.826 73.1965 204.783 72.5381C204.809 71.2984 204.843 69.9731 205.477 68.8616C206.232 67.4765 207.389 66.194 208.872 65.5955C209.849 65.168 210.937 65.2193 211.94 65.5186C213.552 66.0059 214.889 67.1602 215.772 68.5795C216.355 69.4601 216.629 70.5374 216.475 71.5891C216.329 73.0597 215.583 74.3593 214.966 75.676C214.203 77.1979 212.797 78.241 211.392 79.1387C211.426 79.4978 211.349 79.874 211.092 80.1305C210.672 80.9171 209.875 81.4814 208.957 81.4216Z" fill="#848FA9"/>
<path d="M204.457 82.5674C200.617 82.6101 201.689 81.2763 200.48 78.5489C199.272 79.079 197.994 79.4466 196.76 79.9254C195.774 80.3444 194.54 80.9856 193.563 80.2332C192.363 79.1901 192.937 76.685 192.929 75.2229C193.04 73.6497 193.212 72.0765 193.7 70.5717C194.18 69.4602 194.472 66.3309 195.492 65.9633C196.34 65.6811 197.137 66.4848 197.549 67.1517C198.097 68.2632 198.603 69.3833 199.357 70.3836C199.889 71.1702 200.283 72.0509 200.909 72.7862C202.014 74.1456 203.806 74.2311 205.392 74.5047C206.814 73.9404 207.346 75.9411 207.123 76.9928C206.926 77.7965 205.974 77.7794 205.34 78.0188C205.434 79.0191 205.494 80.0195 205.52 81.0198C205.64 81.7209 205.332 82.67 204.466 82.5674H204.457ZM203.977 81.0369C203.909 79.9682 203.926 78.8909 203.789 77.8307C203.592 76.9158 204.697 76.437 205.426 76.2831C205.426 76.2575 205.417 76.2404 205.409 76.2147C204.32 76.3686 203.18 76.5311 202.083 76.3857C201.226 76.2233 198.612 75.5136 200.034 74.3765C199.032 73.5471 198.517 72.3159 197.823 71.2557C197.112 70.2639 196.554 69.1866 196.083 68.0666C195.757 69.426 195.354 70.7684 195.02 72.1278C194.686 74.2995 194.523 76.5482 194.703 78.737C195.937 78.318 197.112 77.7195 198.38 77.3861C199.134 77.1296 199.932 76.6422 200.746 76.8645C202.434 77.4117 202.246 79.5834 202.906 80.9258C203.257 80.9942 203.609 81.0198 203.96 81.0369H203.977Z" fill="#F8A24B"/>
<path d="M202.829 81.6356C202.255 81.4731 201.852 80.9515 201.706 80.3872C200.943 79.7032 200.695 78.6345 200.677 77.6427C200.652 77.6342 200.626 77.6256 200.6 77.6171C200 78.0189 199.195 78.2327 198.5 77.9676C198.243 78.0446 197.969 78.0446 197.703 78.0189C197.669 78.0189 197.635 78.0104 197.6 78.0018C197.566 78.0189 197.523 78.036 197.489 78.0617C197.352 78.1301 197.163 78.1728 197 78.1814C196.675 78.7029 196.126 79.139 195.492 79.1561C195.286 79.1817 195.097 79.2587 194.866 79.1732C194.652 79.1048 194.472 78.9679 194.36 78.7713C194.052 78.5319 193.829 78.1899 193.717 77.8137C193.357 76.497 193.623 74.5134 194.66 73.5644C194.677 73.2822 194.712 73.0086 194.772 72.735C194.643 72.0083 194.669 71.2559 194.832 70.5291C194.626 69.8366 194.78 69.0927 194.986 68.4087C195.192 67.6136 196.16 67.1348 196.88 67.605C197.892 68.3745 197.986 69.9306 197.9 71.1105C198.432 72.1194 199.297 72.8889 200.146 73.6242C200.652 73.6071 201.132 73.761 201.552 74.0688C201.749 74.2141 201.912 74.4279 202.023 74.6417C202.572 74.4621 203.223 74.5818 203.592 75.0435C205.315 74.616 206.352 76.3089 205.006 77.5401C205.477 79.0278 204.972 82.1229 202.846 81.6441L202.829 81.6356Z" fill="#F8A24B"/>
<path d="M219.363 79.4295C218.96 79.344 218.592 79.0533 218.429 78.6771C218.249 78.1384 218.223 77.5827 218.198 77.0269C218.18 76.3087 218.12 75.5649 218.069 74.8552C218.018 73.8549 218.069 72.846 217.872 71.8627C217.675 70.9393 217.383 70.0416 217.083 69.1438C216.792 68.2546 216.338 67.4167 215.618 66.8011C213.492 65.151 212.42 65.1168 209.849 65.3305C207.115 65.3818 205.418 67.7245 204.535 70.0672C204.466 70.2468 204.398 70.4349 204.286 70.5888C204.166 70.7427 203.918 70.7683 203.78 70.623C203.6 70.4434 203.575 70.1698 203.575 69.9304C203.669 67.81 205.263 65.3391 207.132 64.3387C208.52 63.6205 210.098 63.7146 211.615 63.6547C212.883 63.5949 214.126 63.9198 215.223 64.561C216.038 65.0227 216.809 65.5699 217.383 66.3223C218.463 67.7331 218.643 69.5713 219.106 71.2386C219.646 73.2735 219.895 75.3682 219.946 77.463C220.092 77.8648 220.435 78.2239 220.375 78.6856C220.332 79.1559 219.843 79.515 219.38 79.438L219.363 79.4295Z" fill="#414355"/>
<path d="M206.523 71.2985C206.018 71.2557 205.503 71.1873 205.015 71.0334C204.672 70.8966 203.258 70.4777 203.832 69.9818C204.312 69.7851 205.04 69.8279 205.503 69.768C207.346 69.6569 209.18 69.4089 211.023 69.3918C211.778 69.3491 212.515 69.1695 213.235 68.9814C213.458 68.8959 213.663 68.8019 213.912 68.8446C214.478 68.913 214.743 69.6569 214.323 70.0587C214.118 70.2639 213.843 70.3152 213.578 70.3494C212.318 70.4777 211.16 71.0591 209.9 71.1959C208.778 71.3327 207.655 71.4182 206.523 71.2985Z" fill="#414355"/>
<path d="M215.643 78.4633C214.623 78.4718 214.332 77.7109 214.298 76.8302C214.169 75.8983 214.255 74.9663 214.186 74.0344C214.092 72.5125 213.878 70.9991 213.475 69.5371C213.38 69.4601 213.286 69.3661 213.209 69.272C213.063 69.349 212.9 69.4088 212.746 69.4601C212.378 69.5713 211.992 69.5627 211.623 69.4772C211.058 69.9218 210.235 70.033 209.609 69.6482C209.095 69.8534 208.486 69.8363 207.998 69.5542C207.723 69.7594 207.123 70.1612 206.249 70.2638C205.118 70.4006 204.26 69.9646 203.978 69.8021C204.08 69.4601 204.252 68.9984 204.543 68.4769C204.646 68.2888 204.938 68.0921 205.169 67.5535C205.478 66.8524 206.026 66.3137 206.652 65.8777C206.849 65.7751 206.943 65.5784 207.115 65.4502C207.749 65.0141 208.538 64.8175 209.3 64.7405C210.14 64.6465 210.972 64.8346 211.803 64.9543C212.266 64.7063 212.823 64.8602 213.32 64.9457C213.766 65.0312 214.229 65.0569 214.64 65.2792C215.232 65.5955 215.626 66.1342 216.098 66.5959C217.066 67.7501 217.589 69.1865 218.018 70.6144C218.146 71.1103 218.215 71.6147 218.258 72.1277C218.575 73.3162 218.823 74.7269 218.112 75.8213C218.275 76.1633 218.472 76.4882 218.729 76.7704C218.892 76.9328 219.012 77.1124 219.046 77.3432C219.123 77.8819 218.678 78.3265 218.163 78.3863C217.332 78.5317 216.475 78.4633 215.626 78.4804L215.643 78.4633Z" fill="#414355"/>
<path d="M201.912 81.986C201.226 81.9603 200.446 82.1228 200.12 81.3447C199.829 80.6265 199.915 79.2072 200.875 79.079C201.783 78.0957 202.743 78.1128 203.986 78.1128C204.355 78.0957 204.74 78.0615 205.083 78.2154C205.7 78.5147 206.206 79.1303 206.189 79.8399C206.189 80.4384 206.249 81.1823 205.726 81.6012C205.092 82.0031 204.312 81.9774 203.592 81.9774C203.035 81.9774 202.469 82.0031 201.912 81.986Z" fill="#848FA9"/>
<path d="M229.975 71.1701C230.06 70.6656 230 70.2039 229.923 69.7166C229.846 70.2381 230.095 71.0333 229.546 71.3411C229.083 71.5292 228.8 71.0846 228.732 70.6913C227.84 70.3322 227.9 68.4597 227.969 67.6475C227.772 66.9806 227.72 66.2795 227.797 65.5955C227.823 64.7063 228.672 63.8598 229.555 64.3728C230.429 64.826 230.806 65.8092 231.055 66.707C231.672 66.0828 232.546 66.5616 232.597 67.3739C232.769 68.3486 232.169 69.2121 231.989 70.1355C231.852 70.7511 232.04 71.3582 231.603 71.837C231.046 72.4355 229.949 71.9823 229.975 71.1615V71.1701Z" fill="#848FA9"/>
<path d="M209.223 122.12C208.589 122.034 207.492 122.188 207.5 121.273C207.543 120.965 207.423 120.683 207.346 120.384C207.055 118.862 206.943 117.297 206.772 115.758C206.643 114.373 206.515 112.954 206.455 111.569C206.403 110.885 206.377 110.201 206.352 109.517C206.326 108.756 206.223 107.961 206.429 107.217C206.497 107.063 206.66 106.995 206.815 107.029C207.037 107.08 207.166 107.414 207.055 107.602C207.166 108.961 207.397 110.304 207.509 111.663C207.595 113.27 207.749 114.878 207.912 116.485C208.015 117.597 208.1 118.708 208.28 119.811C208.366 120.204 208.315 120.632 208.512 120.991C208.837 121.077 209.18 121.051 209.515 121.025C209.515 120.435 209.395 119.854 209.352 119.264C209.215 117.657 209.24 116.041 209.172 114.433C208.992 112.715 208.897 110.988 208.906 109.252C208.906 108.568 208.82 107.884 208.829 107.208C209.043 106.627 209.789 106.884 209.72 107.482C209.763 108.157 210.055 108.79 210.149 109.457C210.235 109.996 210.26 110.551 210.337 111.09C210.423 112.279 210.62 113.45 210.74 114.638C210.826 115.801 210.843 116.973 210.86 118.144C210.86 119.016 210.877 119.897 210.826 120.777C210.783 121.316 210.706 122.111 209.995 122.077C209.737 122.094 209.489 122.128 209.232 122.12H209.223Z" fill="#848FA9"/>
<path d="M208.726 121.555C207.457 121.29 207.449 117.862 207.535 116.81C207.063 115.741 206.909 114.561 207.055 113.399C206.712 112.86 206.909 112.202 207.037 111.62C206.729 111.364 206.54 110.97 206.523 110.569C206.317 110.158 206.343 109.628 206.609 109.252C206.48 109.081 206.403 108.859 206.403 108.636C206.403 108.243 206.635 107.892 206.977 107.721C207.149 107.149 207.732 106.986 208.263 107.149C208.477 107.191 208.709 107.217 208.846 107.405C209.103 107.405 209.335 107.533 209.497 107.73C210.089 108.106 210.106 109.004 209.566 109.431C209.883 109.714 210.055 110.15 209.995 110.577C209.952 110.902 209.857 111.201 209.772 111.518C210.106 111.996 209.943 112.552 209.772 113.065C209.669 113.664 209.592 114.279 209.695 114.878C209.9 115.126 209.986 115.433 210.029 115.741C210.132 116.254 210.157 116.853 209.78 117.255C209.712 117.904 209.832 118.537 209.866 119.178C209.943 119.726 210.123 120.281 210.003 120.829C209.857 121.359 209.266 121.718 208.726 121.555Z" fill="#848FA9"/>
<path d="M246.569 78.1042C246.535 78.0187 246.629 77.9845 246.689 77.9759C246.732 77.9161 246.835 77.9503 246.826 78.0187C246.826 78.1127 246.612 78.2068 246.569 78.1042Z" fill="#FF6E6E"/>
<path d="M210.706 121.299C210.474 121.085 210.474 120.752 210.483 120.452C210.483 120.153 210.483 119.845 210.474 119.538C210.474 118.948 210.457 118.349 210.457 117.759C210.457 116.177 210.363 114.596 210.311 113.014C210.209 111.287 209.711 109.551 209.977 107.824C210.02 107.328 210.449 107.209 210.869 107.345C211.271 107.362 211.683 107.38 212.086 107.371C212.617 107.149 213.251 106.926 213.826 107.132C213.851 107.038 213.894 106.952 213.954 106.875C214.1 106.678 214.434 106.772 214.451 107.012C214.494 108.5 214.289 109.996 214.211 111.484C214.083 113.313 214.006 115.134 213.98 116.956C213.98 118.093 213.98 119.23 213.86 120.358C213.86 121 213.509 121.342 212.874 121.376C212.497 121.444 212.12 121.513 211.734 121.487C211.383 121.513 210.971 121.573 210.697 121.29L210.706 121.299Z" fill="#848FA9"/>
<path d="M207.792 98.4619C206.917 98.4191 205.992 97.0255 205.949 96.2389C205.769 94.1612 206.069 92.1007 206.009 90.023C206.009 88.0993 206 86.1755 206.009 84.2518C206.043 83.5849 205.786 82.1314 206.617 81.9347C207.012 81.3533 207.74 81.4046 208.357 81.4645C209.12 81.4046 209.875 81.5243 210.603 81.7381C210.612 81.7295 210.62 81.721 210.637 81.7124C210.8 81.5756 210.98 81.4559 211.169 81.3619C211.169 80.8831 211.683 80.4812 212.155 80.6351C212.6 80.7976 213.037 80.866 213.475 81.0797C214.58 81.4303 215.78 81.5243 216.757 82.234C217.632 81.815 218.626 82.2169 219.552 82.1314C220.34 82.0459 221.129 82.0117 221.917 81.9604C222.432 81.9005 222.989 82.0972 223.486 81.9005C224.823 80.9771 226.186 80.2675 227.095 78.8909C227.66 78.0445 227.935 76.8902 228.226 75.9754C228.68 74.9836 228.929 73.949 228.869 72.8546C228.835 72.4528 228.723 72.0595 228.689 71.6491C228.637 70.264 230.557 70.6231 231.252 71.2472C231.603 71.6747 231.98 72.1193 231.963 72.7093C232.109 72.9743 232.152 73.2907 232.152 73.5985C232.597 74.8553 232.015 76.1977 231.543 77.3605C231.106 78.5318 230.412 79.5749 229.589 80.5154C229.075 81.0541 228.655 81.8663 227.875 82.0373C227.292 82.6273 225.697 84.8332 224.832 84.3544C223.812 84.7904 222.14 85.6198 221.052 85.483C220.177 85.7908 219.26 85.7309 218.352 85.748C217.752 86.0216 217.049 86.3038 216.38 86.1413C216.2 86.5346 216.089 86.9792 215.857 87.3469C215.926 89.7323 215.84 92.1178 215.892 94.5032C215.909 95.1103 215.849 95.7173 215.986 96.3073C216.037 96.6236 215.9 96.9143 215.9 97.2221C215.857 98.1883 214.623 98.6414 213.955 97.9489C211.932 98.2823 209.849 98.479 207.792 98.4533V98.4619ZM207.2 84.0722C207.217 84.0209 207.243 83.9611 207.269 83.9098C207.235 83.8927 207.2 83.8756 207.166 83.8585C207.175 83.9354 207.192 84.0038 207.2 84.0722Z" fill="white"/>
<path d="M217.477 86.8766C217.014 86.7996 216.303 86.6799 216.388 86.0644C216.423 85.8164 216.637 85.5855 216.894 85.5599C217.786 85.5599 218.66 85.4316 219.526 85.2179C221.874 84.722 224.377 84.3971 226.469 83.1573C228.843 81.3533 230.171 78.4634 230.96 75.659C231.406 74.3337 231.723 72.9315 231.509 71.555C230.686 71.5208 229.863 71.4609 229.049 71.3498C229.229 74.3081 228.697 77.3348 227.146 79.8912C225.8 81.7808 223.349 82.3023 221.171 82.5759C219.029 82.8239 216.86 82.5503 214.803 81.909C213.886 81.6525 213.028 81.1652 212.077 81.0797C211.597 81.0882 211.246 81.567 210.766 81.6782C210.311 81.8492 209.823 81.9518 209.334 81.9945C208.52 82.0458 206.514 81.9945 206.497 80.9258C206.66 80.1477 207.611 80.4897 208.168 80.4983C208.657 80.5325 209.154 80.5496 209.643 80.4983C210.371 80.4897 211.04 80.2332 211.734 80.0793C213.054 80.0024 214.263 80.6778 215.548 80.883C218.626 81.4901 222.028 81.6782 224.857 80.1221C225.911 79.4979 226.34 78.3522 226.7 77.2493C227.548 75.0434 227.351 72.6579 227.617 70.3665C227.951 69.6312 228.903 69.8621 229.546 69.9134C230.223 69.9903 230.908 70.016 231.594 70.0929C232.126 70.11 232.657 70.4093 232.708 70.9907C232.811 71.6918 232.871 72.41 232.897 73.1196C232.811 76.5396 231.371 79.763 229.503 82.5845C228.191 84.6194 225.946 85.7052 223.64 86.184C222.354 86.5517 221.017 86.6543 219.697 86.7996C218.968 86.8766 218.214 87.0048 217.486 86.8595L217.477 86.8766Z" fill="#279BC7"/>
<path d="M208.16 99.9155C206.455 99.8642 205.563 99.9839 205.315 97.9832C205.032 96.3074 204.929 94.6145 204.783 92.9216C204.766 92.5796 204.672 92.2205 204.869 91.9127C205.203 91.2714 206.275 91.4082 206.429 92.1179C206.506 92.3573 206.42 92.5796 206.369 92.8104C206.42 93.5457 206.48 94.281 206.592 95.0078C206.703 95.991 206.772 96.9828 207.046 97.9404C208.46 98.0345 209.875 98.12 211.297 98.0516C212.617 98.0088 213.955 98.1114 215.249 97.7694C215.386 95.4524 215.437 93.1011 215.635 90.7841C215.635 90.69 215.652 90.5789 215.652 90.4934C215.729 89.3904 215.729 88.2875 215.917 87.2016C216.02 86.8169 216.106 86.3894 216.355 86.073C216.483 85.9362 216.732 85.9961 216.792 86.1671C216.835 86.244 216.835 86.3381 216.792 86.4065C216.757 86.5775 216.757 86.8169 216.757 86.9451C216.843 88.0139 216.963 89.0484 216.963 90.1257C216.989 91.6904 216.929 93.255 216.963 94.8282C216.963 95.7516 216.98 96.6665 216.937 97.5899C216.903 98.0601 216.92 98.6159 216.56 98.975C216.115 99.3854 215.455 99.4025 214.889 99.5649C214.195 99.7274 213.475 99.7616 212.763 99.7787C211.229 99.8043 209.695 100.052 208.16 99.9326V99.9155Z" fill="#279BC7"/>
<path d="M204.954 82.6871C204.14 82.3707 205.923 80.96 206.283 80.7548C206.686 80.5154 207.217 80.7035 207.397 81.1224C207.594 81.5841 207.286 82.1399 206.78 82.1997C206.489 82.2425 206.189 82.1997 205.906 82.3109C205.632 82.4135 205.4 82.6016 205.117 82.6785C205.066 82.6956 205.006 82.6956 204.954 82.6785V82.6871Z" fill="#279BC7"/>
<path d="M203.077 94.3491C202.315 94.2294 201.457 94.067 200.969 93.4087C200.489 92.8016 200.437 91.9808 200.377 91.2369C200.326 90.4931 200.283 89.7578 200.24 89.014C200.155 87.227 200.026 85.423 200.24 83.6446C200.283 83.3539 200.309 83.0632 200.326 82.781C200.386 82.5673 200.472 82.2937 200.592 82.1227C200.557 82.0115 200.575 81.8918 200.643 81.7977C200.729 81.6951 200.849 81.6524 200.969 81.6695C201.963 81.7379 202.966 81.6866 203.952 81.5755C204.766 81.5669 205.58 80.9855 205.992 82.0286C206.335 83.6446 206.215 85.3289 206.369 86.9791C206.54 88.3556 206.566 89.7492 206.532 91.1343C206.506 91.7157 206.515 92.3313 206.275 92.8785C205.623 94.0926 204.397 94.5629 203.06 94.3748L203.077 94.3491Z" fill="#279BC7"/>
<path d="M205.477 108.431C202.923 107.602 204.037 103.506 204.457 101.565C204.706 100.702 204.98 99.8383 205.289 98.9919C205.28 98.4532 205.931 98.1198 206.274 98.6071C206.634 98.4105 207.08 98.4874 207.474 98.5302C207.937 98.5473 208.409 98.5302 208.871 98.5387C210.029 98.6071 211.177 98.4361 212.334 98.325C215.686 97.812 215.729 98.8807 216.406 101.762C216.663 102.788 217.1 103.746 217.477 104.729C217.94 105.772 218.163 106.96 217.1 107.721C216.509 108.252 215.694 108.2 214.949 108.192C213.851 108.209 212.763 108.192 211.666 108.234C209.591 108.183 207.526 108.841 205.469 108.44L205.477 108.431ZM206.669 107.337C207.8 107.268 208.88 106.884 209.994 106.704C210.637 106.618 211.289 106.601 211.931 106.542C212.917 106.465 213.903 106.465 214.889 106.456C215.343 106.413 215.917 106.584 216.26 106.208C216.003 105.174 215.489 104.216 215.171 103.198C214.769 102.07 214.649 100.873 214.306 99.7272C212.489 99.9666 210.689 100.42 208.846 100.334C207.989 100.291 207.046 100.445 206.257 100.035C206.034 101.617 205.786 103.198 205.606 104.789C205.554 105.575 205.349 106.371 205.477 107.157C205.734 107.456 206.3 107.32 206.677 107.354L206.669 107.337Z" fill="#414355"/>
<path d="M207.663 107.935C205.855 107.91 203.995 107.713 204.998 105.413C205.238 104.9 205.238 104.353 205.272 103.797C205.392 102.557 205.709 101.335 206.232 100.197C206.472 99.5647 207.038 99.1714 207.715 99.1543C208.906 98.9491 210.14 98.9919 211.34 99.103C212.035 99.1287 212.738 99.1543 213.423 99.2484C213.715 99.2056 214.023 99.3168 214.16 99.5818C215.078 99.7443 215.103 100.924 214.889 101.642C215.309 102.968 215.849 104.25 216.398 105.533C216.552 105.9 216.706 106.302 216.492 106.678C216.303 107.02 215.9 107.106 215.54 107.114C215.035 107.166 214.538 107.294 214.023 107.345C211.915 107.713 209.78 107.935 207.646 107.961L207.663 107.935ZM212.952 101.942C212.952 101.942 212.952 101.873 212.952 101.839C212.9 101.865 212.849 101.89 212.798 101.916C212.849 101.916 212.9 101.933 212.952 101.942Z" fill="#414355"/>
<path d="M209.669 106.704C209.635 107.627 209.618 108.551 209.635 109.483C209.652 110.577 209.703 111.68 209.798 112.774C209.866 113.578 209.952 114.39 210.012 115.194C210.072 116.049 210.098 116.895 210.089 117.75C210.089 118.853 210.029 119.948 209.926 121.042C209.909 121.196 209.9 121.35 209.883 121.504C209.866 121.666 210.046 121.829 210.2 121.82C210.389 121.82 210.5 121.683 210.518 121.504C210.638 120.375 210.706 119.247 210.723 118.118C210.74 117.237 210.723 116.348 210.663 115.468C210.612 114.672 210.535 113.886 210.458 113.099C210.363 112.039 210.303 110.979 210.278 109.919C210.252 108.944 210.26 107.969 210.295 106.986C210.295 106.901 210.295 106.806 210.303 106.721C210.303 106.559 210.149 106.396 209.986 106.405C209.806 106.405 209.678 106.541 209.669 106.721V106.704Z" fill="#414355"/>
<path d="M207.74 120.718C209.112 120.837 209.686 120.812 209.943 120.76C209.995 120.752 210.166 120.709 210.337 120.786C210.526 120.871 210.62 121.051 210.663 121.171V122.504C210.663 123.291 210.02 123.932 209.232 123.932H204.775C204.226 123.984 203.746 123.778 203.523 123.402C203.317 123.043 203.386 122.616 203.549 122.325C203.806 121.889 204.337 121.786 205.032 121.641C205.692 121.504 205.915 121.581 206.463 121.384C206.823 121.256 207.097 121.085 207.26 120.965C207.372 120.812 207.552 120.726 207.74 120.726V120.718Z" fill="#F8A24B"/>
<path d="M211.117 120.718C212.489 120.837 213.063 120.812 213.32 120.76C213.371 120.752 213.543 120.709 213.714 120.786C213.903 120.871 213.997 121.051 214.04 121.171V122.504C214.04 123.291 213.397 123.932 212.609 123.932H208.151C207.603 123.984 207.123 123.778 206.9 123.402C206.694 123.043 206.763 122.616 206.926 122.325C207.183 121.889 207.714 121.786 208.409 121.641C209.069 121.504 209.291 121.581 209.84 121.384C210.2 121.256 210.474 121.085 210.637 120.965C210.749 120.812 210.929 120.726 211.117 120.726V120.718Z" fill="#F8A24B"/>
<path d="M202.76 82.9178C202.04 82.952 201.817 82.858 201.62 83.029C201.406 83.2171 201.414 83.5249 201.406 83.7728C201.389 85.1237 201.166 84.0122 201.192 85.9873C201.209 87.4493 201.329 87.817 201.432 89.4329C201.56 91.5277 201.432 92.1604 202.006 92.6734C202.469 93.0923 203.086 93.1436 203.214 93.1522C203.326 93.1607 204.2 93.2206 204.817 92.6306C205.186 92.2715 205.332 91.8098 205.417 91.0574C205.657 89.0653 205.177 88.3898 205.186 86.1241C205.186 85.5256 205.109 84.9271 205.126 84.3286C205.143 83.6104 205.212 83.2598 204.963 83.0204C204.749 82.8152 204.432 82.8238 203.797 82.8238C203.309 82.8238 203.326 82.8922 202.743 82.9178H202.76Z" fill="white"/>
</svg>
