<svg xmlns="http://www.w3.org/2000/svg" viewBox="0 0 350 350"><path d="M182.52,44.85a48.62,48.62,0,0,0,7.38,1.81c2.54.25,8.88-1.24,8.88-1.24l-11.3,26.05-8-2.66Z" style="fill:#ffd9c5"/><path d="M135.8,93.94s-14.06,5.64-15,5.88-9.71,17.19-11.65,20.1-8.66,9.76-8.9,12.43-1.45,7-1,9.92,1.21,6.29,1.21,7.5-1.93,6.3-2.9,8.72-3.63,3.38-4.36,2.42.49,1-2.42,1.69-5.32-1.45-6.77-4.36-1.7-11.13-1.7-12.58,7-7.51,7-8.47S99.74,104.51,101,101.85s4.36-10.65,6.53-12.35,17.67-10.89,17.67-10.89Z" style="fill:#ffceb3"/><path d="M249.56,61.43s24.89-2.17,26.58-3.38-16.3-6-16.3-6l-22.9-.93Z" style="fill:#ffceb3"/><path d="M134.11,214.88s-15.73,10.89-16.94,13.8-2.67,7.74,1.45,10.16,12.1,3.63,15.73-.24,1.21-5.32,5.57-8,8.71-2.42,9.92-3.63,3.87-4.11,3.39-6.29-10.17-6.53-12.83-7.26-6.29,1.45-6.29,1.45Z" style="fill:#00ab6f"/><path d="M153.23,220.69a3.77,3.77,0,0,0-1.46-1.67c-.7,1.71-2,4.69-2.85,5.54-1.21,1.21-9.36,3.95-11.28,5.15s-2.59,5.18-7.43,8.32-8.91.39-11.91-2.52c-1.89-1.83-.4-6.25,1-9.25a9.31,9.31,0,0,0-2.08,2.42c-1.21,2.9-2.67,7.74,1.45,10.16s12.1,3.63,15.73-.24,1.21-5.32,5.57-8,8.71-2.42,9.92-3.63S153.71,222.87,153.23,220.69Z" style="fill:#fff"/><path d="M215.78,236.05s5.13,9.07,5.64,11.81,3.43,13.86,3.77,14.72,4.62,11.29,11.3,7.36,6.67-13.69,6.33-14.55-6.51-14.55-7-16.26-5.13-10.1-5.13-10.1Z" style="fill:#00ab6f"/><path d="M157.83,141.79s-16.22,19.84-18.15,22.51-8.23,13.55-8,17.42,1.93,29.29,3.63,33.16,11.62,8.23,14.28,7,5.08-2.66,4.6-7.5.48-13.31.48-14.77S152.5,191.4,152.5,189s17.43-16.46,25.42-19.84,14.52-5.33,16-5.33,9.93,6.29,12.59,16.7,6.78,24.45,7.26,27.84,1,10.16,1.21,13.31-1,10.41.48,13.07,4.84,4.6,7.51,3.63,10.89-5.08,11.37-6.54-1.45-10.89-1.45-10.89,3.87-6.29,4.12-9.68-1-28.08-1-30.25a115.59,115.59,0,0,0-8-33.89l-47.68-8.23Z" style="fill:#061357"/><path d="M180.34,138.88l-22.51,2.91s-16.22,19.84-18.15,22.51-8.23,13.55-8,17.42v0a13.23,13.23,0,0,0,5.7,3.48c5.28,1.76,11.71,2.77,16,2.23a45.31,45.31,0,0,1,4.94-4.81c.91-6.33.08-18.71,4.25-23.27,3.94-4.31,15.16-14.23,21.58-19.83Z" style="fill:#091e89;fill-opacity:0.462783"/><path d="M236,181c0-1.87-2.31-14.19-3-18.92a73.94,73.94,0,0,0-5.39-15L208,143.66c1.45,4.83,4.65,17.59,4,27-.43,6.05-3.09,8.88-5.2,11.12,1.48,5.69,3.31,12.25,4.72,17.52a10.86,10.86,0,0,0,4.25,1.65c6.16,1,13.69,6.85,17.11-2.39,2.13-5.75,2.87-12.75,3.12-17.23Z" style="fill:#091e89;fill-opacity:0.462783"/><path d="M150.08,59.61s-10,7.38-13.59,10-13.24,8.47-13.64,10-2.78,5,4.48,10.89a80.48,80.48,0,0,0,11.86,8.35s10.53-6.29,12.1-6.29,12.23,9.56,14.28,12.47,4.84,9.31,4.84,13.07-5.56,14-9.07,18.27-5.09,6-5.45,7.14,6.05-4.6,15.61-1,18.64,5.81,23.36,6.29a215,215,0,0,0,21.66.13c4.36-.25,11.14,2.3,12.47,1a13.71,13.71,0,0,0,3-10.17c-4-13.42-7-28.6-6-41.86.49-5.45,3.51-21.85,6.3-23.9,15.39-3.79,17-.92,18.46-8.17s2.59-11.94,2.74-12.4c1.2-3.56-19.15-.68-24.35-2.85s-17.43-5.45-20.21-6.42-7.26-.85-9.8.49-4,4.35-4.6,6.89-7,20-7,20l-8-2.66s-17.91-4-21.06-5.81a49.83,49.83,0,0,0-8.35-3.39Z" style="fill:#00ab6f"/><path d="M150.08,59.61c0,1.7,1.82,3.75,2.91,4.6s4,3.63,4.72,4.36,2.42,2.18,2.66,3.75.48,2.78,1.69,3S164.48,74,164.48,74s4.12,1.09,6.18,1.34,5,1.08,6.17.12,4.11-6.78,4.36-7.75,1.69-4.23,1.81-5.93.12-9.44.12-10,.85-2.67,1.09-3.76,1.09-4.35.36-5.44a5.81,5.81,0,0,0-3-2.06c-.49,0-2.74,1.39-2.86,2.23s-.77-3.32-2-4.65-5.57-4.48-7.87-4.48-7.74.49-10.16,2.18-8.48,10.53-9,13.56.36,10.28.36,10.28Z" style="fill:#ffdecc"/><path d="M179.37,51.26c0-1.69-.73-3.63-.36-3.87,2.16-1.21,2.79-7.06,2.42-9.32-.24-1-1.46-5.08-4.72-6.9s-12.47-5.08-20.21-2.05-6.3,11.61-11.26,12.1c-4.89,1.06-10.78-1.21-12-.24s-.4,9.35,4.84,13.67,10,5.57,14.4,4,7.14-4,9.93-5.56,4.47-2.54,7.26-2.42,6.78,5.44,6.78,5.44a6.19,6.19,0,0,0,2.9-4.84Z" style="fill:#8b4e2d"/><path d="M184.57,42.55a5.81,5.81,0,0,0-3-2.06h-.36c-.83.29-1.28.23-1.22,3.5h0c.07,3.4,1.37,5.77,3.39,5.81a.69.69,0,0,0,.34-.14,17.38,17.38,0,0,0,.51-1.68C184.45,46.91,185.3,43.64,184.57,42.55Z" style="fill:#ffceb3"/><path d="M274.25,58.77s9.2-3.39,10.41-5.57,2.18-6.29.24-7.5-11.38-5.45-17.67-6.42-26.87,4.12-29.53,4.36S225.6,38,225.6,38s-8.23-2.66-9.44-1.21a11.11,11.11,0,0,0-2.66,7.75c0,4.11-.73,6.77,1.69,8.22S225.6,57.07,230,54.89s12.82-2.18,16.21-1.69,14,1.21,14,1.21Z" style="fill:#ffdecc"/><path d="M242.82,255.39c-.12-.31-1-2.24-2.07-4.68a23.19,23.19,0,0,1,.87,4.51,22,22,0,0,1-3.1,8.88,10.38,10.38,0,0,1-4.6,4.47c-3.82,1.5-8.94-9.38-10.86-13.87.93,3.66,1.94,7.4,2.13,7.88.34.85,4.62,11.29,11.3,7.36S243.16,256.25,242.82,255.39Z" style="fill:#fff"/><path d="M169.21,253.67a5.35,5.35,0,0,1-6,4.2,5.19,5.19,0,0,1-4.51-5.67,5.32,5.32,0,0,1,5.61-4.69,5.23,5.23,0,0,1,5,5.25" style="fill:#0b229d"/><path d="M220.12,306.88a5.35,5.35,0,0,1-6,4.2,5.21,5.21,0,0,1-4.52-5.67,5.33,5.33,0,0,1,5.62-4.69,5.22,5.22,0,0,1,5,5.26" style="fill:#0b229d"/><path d="M123.28,257.82c-1-2.08-4.22-6.87,2.15-10.85s15-5.87,25.54-.2S216,311,217.9,312.25s7,8.16,6.91,16.71-9.84,10.55-14.35,9.69-17.22-11.84-26-20.68-47.15-46.28-49.9-48.6-10.28-9.47-11.3-11.55Z" style="fill:#061357"/><path d="M172.65,106.83C172,97.25,153.48,85.27,149.37,86c-3.53.59-9.07,10-10.57,12.66l.39.21s10.53-6.29,12.1-6.29,12.23,9.56,14.28,12.47,4.84,9.31,4.84,13.07v.05A26.76,26.76,0,0,0,172.65,106.83Z" style="fill:#007c50"/></svg>