<svg xmlns="http://www.w3.org/2000/svg" viewBox="0 0 350 350"><path d="M225.42,56.08s1.88-8.65,9.4,44c5.35,37.46,13.54,50.76,25.57,69.94S134.71,195.21,107,168.14c-31.21-30.46,61.29-59.79,53-78.59S207,76,207,76Z"/><path d="M215.07,120.77s.41,4.27,1.85,5.55,5.73,6.19,8.19,7.26,20.89,6.4,24.78,7.68a72.26,72.26,0,0,1,12,6c2.05,1.28,4.62,8.35,4.62,8.35L244.16,163l-41.78,5.55L147.69,166l-3.27-24.54s6.55-2.14,11.05-3.42,12.7-4.69,13.32-4.69a5.89,5.89,0,0,0,4.09-2.14c1.85-1.92,5.23-9.07,5.43-12.7s-.52-11.9-.52-11.9l11.48-.58,17.82,8.75Z" style="fill:#b84307"/><path d="M196.46,109.58l-7.19-3.53-11.48.58s.73,8.27.52,11.9-3.58,10.78-5.43,12.7a5.89,5.89,0,0,1-4.09,2.14c-.49,0-5.77,2.16-10.18,3.68,5.44,2.13,14.63,5.31,20.45,5.11,8.69-.3,12.46-2.41,19.12-6a13.8,13.8,0,0,0,6.95-10.86Z" style="fill:#260b00;fill-opacity:0.184466"/><path d="M229.46,57.64c-1.74-10.86-3.77-5.06-7.82-10.19s-12.07-3.32-24.82-2.11-21.48-5.56-26.4,3.79,1.69,26.62,2,32.66,0,14.19,1.45,18.41,6.37,14.79,12.45,19.32,13.15,8.54,17.5,8.54,8.57-3.11,11.76-7c6.32-8.28,13.13-15.88,13.66-24.92-1.17-14.51,1.64-29.27.24-38.47Z" style="fill:#b84307"/><path d="M203.59,128.11c-6.41-8.21-16.54-19.31-17.16-21.85-5.46-22.23.11-35.64-5-42.13s-10.95,1.21-10.95,1.21l-.19.29c.9,7.48,1.95,13.94,2.06,16.36.29,6,0,14.19,1.45,18.42s6.37,14.79,12.46,19.32,11.87,8.45,16.22,8.45A9.93,9.93,0,0,0,203.59,128.11Z" style="fill:#8c350e;fill-opacity:0.333333"/><path d="M247.6,210.47s7.5,62.87,9.24,70.33,16.74-18.09,16.74-18.09,6.35-25.26,6.35-31-4.62-28.13-4.62-28.13Z" style="fill:#b84307"/><path d="M230.21,134.2s.29,10.78.21,19.23c-.16,15.83-27.48,13.53-47.14,12.63-6.37-.3-9.19-19.48-11.85-23.75s-.82-9.61-.82-9.61-21.23,6.73-25.79,8.35S129,149,127,156.7s-4.09,32.44-4.09,32.44l13.32-3.08s-.41,14.09-1.23,22.63-4.1,52.93-4.91,58.05,43.75,40.67,58.5,41.1,65.61-25.3,65.61-27-8-11.95-9.42-28.6S246.82,205,246.82,205l2,14.58s1.69-.62,7.43-1,17-2.07,21.65-1.65c0,0-3.15-26.6-4.09-33.67-1-7.47-1.6-24.83-6.51-32.51-4.2-6.12-8.3-7.14-12.28-8.15a205.13,205.13,0,0,1-24.78-8.32Z" style="fill:#ffb600"/><path d="M170.43,132.76c-1.64.52-15.06,4.78-22.13,7.11,3.42,4.55,8,11.07,10.26,16.4,3.93,9.17,17.23,21.92,17.23,21.92l-4.2-35.6c-.06-.09-.11-.2-.16-.28-2.21-3.54-1.32-7.8-1-9.16Z" style="fill:#ffa92c"/><path d="M181.72,92.72c-2.66,45.21-4.12,64.88-5.19,83.49s-15.95-34.56-18.08-51.05,16,6.38-40.95,20.74S29.17,42.61,94.63,70.38C157,96.84,149.4,43.44,178,34.76s49.83-8.4,52.49,26.17c3,37.64-7.54-3.75-10,1.48C199.49,105.38,186.22,33.84,181.72,92.72Z" style="fill:#232323"/><path d="M138.6,74.34c-9.22,4.79-22.42,5.19-44-4C56.47,54.19,51.24,87.43,64.79,115.12c1.72-3.47,3.45-7.23,4.94-11C75,91,81.77,96.64,113.35,90.25,134.2,86,138.25,78.78,138.6,74.34Z"/><path d="M244.56,234.88c.53-14.78,2.26-29.92,2.26-29.92l.63,4.6c.23-8.59.49-21.87-.3-15.14-1.11,9.49-2.56,17.34-8.87,24.22s-31.44,7.18-31.44,7.18Z" style="fill:#ffa92c"/><path d="M149.94,203.52l3.4-27.15s.78,24,3.65,31.32,10.44,17.75,10.44,17.75Z" style="fill:#ffa92c"/><path d="M133.91,192.08S95.73,172.79,94.82,172.4s-3.12-1.56-4.69-.6-3.7,5-5.52,8.28S52.44,238.76,52.05,239.8s-2,3.85-1.57,5.13c.69,2,2.35,3.58,5,5.41s78.36,67.8,81.84,70.26c1.25.88-.27,7.85,14.75,10.44s14.88-1.7,17.36-2.74,103.33-13.13,107.51-13.39c3.78-.52,4.82-3.54,5.3-7.73.71-6.34,10.14-75.36,10.14-78.24s-2.44-2.8-5.7-3.19-54.6,2.7-54.6,2.7l-49.46,23Z" style="fill:#ff5300"/><path d="M182.13,237.53s-.17-5.29,28.07-11.43,59.62-2.62,61.65-5-16.06,77.26-16.06,77.26-54.65-3.14-76.46,6.34S154,322.22,154,322.22Z" style="fill:#fdf8f0"/><path d="M169.39,328.3c1.69-.71,48.87-6.53,80.2-10.26-11.84-3.57-18.91-7.59-25-10.62-6.26-3.14-64.74,9.91-64.74,9.91S81,244.24,75.28,219.18a108.67,108.67,0,0,1-2.74-17.09c-9.19,16.79-20.26,37.08-20.49,37.71-.39,1-2,3.85-1.57,5.13.69,2,2.35,3.58,5,5.41s78.36,67.8,81.84,70.26c1.25.88-.27,7.85,14.75,10.44S166.91,329.34,169.39,328.3Z" style="fill:#c13e00;fill-opacity:0.682353"/><path d="M86.08,244.53s60,33.23,65.34,47.22c8,21.13,6.15,28.36,3.07,35.19l-13-5.58s2.82-19.76-14-30.72-66-44.95-66-44.95Z" style="fill:#f7e2c2"/><path d="M255.79,298.32l16.71,10.91s-60-.5-73.73,3-28,8-34.2,14.92l-10.08-.26s-4.75-15.5,26.89-23.85,74.41-4.77,74.41-4.77Z" style="fill:#f7e2c2"/><path d="M183,238.74s9.86-5.39-9.22-25.81-50.91-40.1-50.91-40.1l-36.79,71.7s57.09,33.64,64.8,51,4.52,27.14,4.52,27.14Z" style="fill:#fdf8f0"/><path d="M122.87,172.83l-22.21,3L61.41,245.69s6.55,3,11.91,2.16,13.66-3,13.66-3Z" style="fill:#faeed9"/><path d="M271.93,221.51l12.53,7.81-12,79.91-16.71-10.91Z" style="fill:#faeed9"/><path d="M126.53,187.28,99.4,239.89s46.88,27.13,51.68,36,5.72,12.74,5.72,12.74l20.68-53.35s.37-5.9-6.09-13.29-44.86-34.7-44.86-34.7Z" style="fill:#ececec"/><path d="M171.94,293.6l20.67-55.93a111.94,111.94,0,0,1,21.6-3.87c11.08-.74,45-2,46.7-2.22s-13.29,52.79-13.29,52.79-42.08-.18-55.93,3.51-19.75,5.72-19.75,5.72Z" style="fill:#ececec"/><path d="M195.57,243.39l8.12-.73-1.85,6.83-8.85.84Z" style="fill:#fff"/><path d="M214.68,225.17s-4.91-9.33-11.23-11.54-15.65-3.32-20.55-2.06-15-.15-16.92.64-6,13.91-5.69,16.59.64,4.9,2.69,4.9,3.79-.79,4.43-3.16,2.05-8.22,2.68-8.85,3.64-.16,3.64-.16a11.1,11.1,0,0,0-2.53,5.22c-.47,3-2.69,18.65-3,19.76s.79,3.32,2.68,3.16a5.62,5.62,0,0,0,4.27-3.63c.32-1.43,4.27-15.65,4.59-16.92s4.11-4.9,4.11-4.9-2.53,7.43-3.32,9.48-3.48,10.12-3.8,11.7-2.53,4.9.32,6a5.24,5.24,0,0,0,6.48-2.69,36.44,36.44,0,0,0,1.42-6.16s-.15,2.05,2.37,2.05,4.27-4,5.7-5.85,5.84-7.11,8.06-8.85a16.29,16.29,0,0,1,3.21-2.15Z" style="fill:#b84307"/><path d="M184.27,242.19s3.69-9.83,6.37-14.53a13,13,0,0,1,7.82-5.81,25,25,0,0,0-6.81,7C189,233.25,184.27,242.19,184.27,242.19Z" style="fill:#7f2f05"/><path d="M169.94,221.45s2.68-1.81,6.71-4.5,4.59-3.16,1.11.47-3.64,4.19-3.64,4.19Z" style="fill:#7f2f05"/><path d="M175.89,243s1.22-14.87,1.78-16.32,6.49-3.81,6.93-5.15-.89,2.8-.89,2.8a55.5,55.5,0,0,0-4,4.72c-.42,1.76-3.82,13.95-3.82,13.95Z" style="fill:#7f2f05"/><path d="M191.58,257l9.11-.82-2.48,7.7s-8.06.56-8.59.83,2-7.71,2-7.71Z" style="fill:#fff"/><path d="M187.27,271.26l-2.61,8.35,9.43-1.91,1.75-7.59Z" style="fill:#fff"/><path d="M208.12,243.39s44.3-2.58,44.86-1.84,1.84,5.17-.37,5.35-45.41.93-46.34.74S208.12,243.39,208.12,243.39Z" style="fill:#d1d1d1"/><path d="M205.91,256.28s43.37-.74,43.74-.55-.73,3.32-1.1,4.24-45.78,1.85-45.78,1.85Z" style="fill:#d1d1d1"/><path d="M202.62,271.08s38-2,39.69-1.84S243.6,275,243.6,275s-42.08,1.66-43.38,2.22,2.4-6.1,2.4-6.1Z" style="fill:#d1d1d1"/></svg>