<svg xmlns="http://www.w3.org/2000/svg" viewBox="0 0 350 350"><path d="M268.37,195.19c1.46-2,3.29-3.49,2.71-4.45-2.19-3.65-3.31-.19-5.42,3.19-.85,1.37-4.06,4.45-9.19,10.25-2.7,1.65-7,3.85-7.93,4.36-3.7,2-22,11.42-29.79,14.27A241.86,241.86,0,0,1,177.1,234.7c-8.72,1.66-32.52,3.5-48.47,3.34-7.84-.08-19.92-.28-27.72-1.16a117.15,117.15,0,0,1-18.57-3c-1.93-.53-4-2.94-4.78-3.77-2.18-2.41-4.1-5.06-6.23-7.52-3.57-4.13-6.46-9.21-10.48-12.92-.56-.51-1.61,0-1.34.77.73,2.15,2.66,3.86,4,5.63,2.08,2.67,4.33,5.21,6.44,7.87s4.24,5.51,6.4,7.91c.46.52,1.59,1.69,2.61,2.66a5.12,5.12,0,0,1-3.43,2c-.72.11,10.34,9.35,12.2,10.13a71.6,71.6,0,0,0,10.65,3.92c2,.51,10.28,2.18,12.36,2.37,8,.75,16,1.1,24.08,1.09,8.21,0,16.29-.36,24.28-2.35,8.63-2.15,17.59-2.73,26.17-5.12s17.13-5.62,25.66-8.57a152.58,152.58,0,0,0,24.33-10.37,80,80,0,0,0,9.91-6.39c1.28-1,2.65-1.82,3.9-2.84,1.72-1.4,3.82-2.27,5.53-3.66a95,95,0,0,0,7.78-7.5c5.23-5.66,2.38-3.24,1.21-3.24a34.66,34.66,0,0,0-3.67-.09C261.89,201.86,266.44,197.8,268.37,195.19Z" style="fill:#fcc18b"/><path d="M81.61,128.92a9.22,9.22,0,0,0-9.28.58c-.26.64-1.45,3.05-3,7-1.74,4.79-6.53,19.88-11.9,36-2.42,7.28-3.87,15.36-5.78,22.76a126.4,126.4,0,0,0-3.47,23.63c-.92,14.71-1.56,29.47-2.21,44.2q-.56,12.36-.51,24.72c0,7.38.59,14.76.69,22.11,0,.28-.23,1.31,1.41,1.36,2.21.08,4.66.62,7,.58s7.34.19,8.71-2.23c.33-.6.09-7.17.14-9,.13-4.45,0-12.48.52-24.83.18-4.47.35-9.07.42-13.54,0-3.86.48-15.13.59-16.9.15-2.44,1.34-24.08,1.81-31.22A196.44,196.44,0,0,1,70,188a200.53,200.53,0,0,1,6.67-25.54c3-9.43,6.5-17.86,8.71-25.83C85.9,134.76,84.66,130.22,81.61,128.92Z" style="fill:#414355"/><path d="M74.62,123.42c-1.34-7.51-10.13-13-16.19-16.46-8.13-4.58-11.93-7.21-22.24-10.55C31.66,95,28.65,92.93,24,98a20,20,0,0,0-3,4.79c-1.45,2.32,1.68,4.52,5.37,6.38,2.75,1.31,7.52,2.06,9.14,2.32,7,1.17,8.5,1.42,12,2.52a60.69,60.69,0,0,1,14.22,6.19c3.69,2.36,9.39,7.45,9.1,13.06-.29,2.9-1.1,7-1.07,7.45s4.26-9.84,4.69-10.27C75.72,129.19,74.88,124.88,74.62,123.42Z" style="fill:#414355"/><path d="M78.44,118.71a87.25,87.25,0,0,0-5.42-14c-1.19-2.48-5.56-12-7-14.15C60.74,82.34,55.62,74.45,48.19,68,47.1,67,46,65.65,45,65.43s-8.38.8-11.43,3.22c-.94.74-4.5,3.38-4.9,4.64-.14.46,2.59,3,3,3.48,1.07,1.16,2.05,2.37,3.16,3.51,2.35,2.4,4.6,4.88,6.94,7.3s5.22,5.63,7.45,8.11l7,7.69a144.73,144.73,0,0,1,11.32,13.79c1.69,2.39,3.28,4.9,4.81,7.4.85,1.37,2.2,4.77,3.39,6.23.55.87.92,1.62,3.12,1.38,1.4.16,2.15.13,2.07-1.7C80.74,126.59,79.49,122.45,78.44,118.71Z" style="fill:#858fa9"/><path d="M82.18,98.08a171.16,171.16,0,0,0-3.35-25.92c-2-8.81-4.6-17.36-7.1-26-1.5-5.21-3.5-11.82-4.7-15-.87-2.32-.86-2.77-2.1-2.72-6,.26-8.79.65-12.48,2.29a10.65,10.65,0,0,0-5.23,4.06c-.86,1.21.58,5.6,1,7.4s1,3.85,1.66,5.76c1.36,4.3,2.7,8.65,4.38,12.85,3.07,7.67,6.1,15.35,9.47,22.9,3.69,8.26,6.25,16.91,9,25.51a91.55,91.55,0,0,1,3.38,12.89c.66,4.3.83,7.75,1.81,12,.29,1.26,2.39.77,3,.13a4.39,4.39,0,0,0,.61-2.57c.16-2.2-.09-4.41.06-6.62C82.27,116,82.82,107.1,82.18,98.08Z" style="fill:#414355"/><path d="M99.37,47.15c0-2.64-.13-5.85-.12-8.49,0-2.32-.21-3.81-.39-6.1a1,1,0,0,0-.85-.84,62.34,62.34,0,0,0-9.72-1c-2.57-.06-8.5.65-9.55,1.27s-.88,1.77-.88,2.94c0,4.9,1,25.47,1.09,30.86.19,10.36-.37,20.77-.35,31.12,0,4.79-.2,8.84-.47,13.62-.15,2.56,0,5.81,0,8.39,0,1.28.26,10.33,1.13,12,1.46-1.16,5.51-3.72,6.46-3.88a26,26,0,0,1,4.41-.11c3.24,0,5-3.52,6-6.14,1.48-4.07,1.62-9.19,2-13.47.52-5.24.81-19.84.77-22.16,0-2.53,0-7.83.08-11C99.07,68.82,99.37,51.54,99.37,47.15Z" style="fill:#858fa9"/><path d="M136.52,55.3c-1.73-2.27-6.75-5.75-9-7.45s-4.11-2.64-7.05-1.84c-1.27.35-3.77,4.71-4.83,6.7-1.89,3.53-3.8,7-5.77,10.51-2.32,4.07-4.64,8.13-6.93,12.22a362.33,362.33,0,0,0-23,50.85,11.57,11.57,0,0,0-.63,1.7c-.26.7-.53,1.4-.78,2.1-.15.4.38,1.5.52,1.73,1.12,1.8,4.9-1.66,5.84-2.29,6.88-4.6,12.44-11.38,17.46-17.87,5.28-6.84,10-14.12,15-21.17,5.18-7.29,11.24-14.13,15.85-21.8C136,64.05,140.19,60.14,136.52,55.3Z" style="fill:#414355"/><path d="M150.48,95.5a69.85,69.85,0,0,0-1.56-10.11c-.38-1.82-2-8.26-2.63-9.4-.84-1.44-3.9.44-4.79.88a70.9,70.9,0,0,0-7.81,5.56c-3.33,2.88-6.77,5.63-10.09,8.51-2.81,2.43-5.46,5-8.28,7.46s-5.78,5.35-8.6,7.74c-4.64,3.91-7.09,6.68-11.25,10.08-2.39,2-4.68,4.16-6.68,6.11-1.27,1.25-2.62,2.39-3.86,3.66-.73.73-4.65,5.08-5.88,7.48-.41,1.37,2.18,0,3.65.89,2.07,1.21,13.87-4.65,16.92-5.76a38.11,38.11,0,0,0,3.91-1.65c1.8-.9,3.69-1.38,5.51-2.18,3.35-1.47,7-3.1,10.15-4.87,1.62-.89,9.08-5.27,10.67-6.36,6.24-4.28,10.67-7.26,13.14-9.29C144.42,103.08,150.68,97.58,150.48,95.5Z" style="fill:#858fa9"/><path d="M142.32,131.53a24.56,24.56,0,0,0-15.55-8.92,73.32,73.32,0,0,0-25.08.41c-7.07,1.53-10.06,2.32-21.09,8.9-3.48,2.51-3.85,5-4.65,6.58-.24,1.42,4.36,10.62,5.23,9.09,3.87-6.77,6.38-10.45,9.67-12a45.61,45.61,0,0,1,15.1-3.67c6-.2,9.22.38,13.73,2.32,6,2.56,7.51,6.21,10.06,11.8,2.32,5.08,6.18,2.27,13.55-1.93C147.35,141.79,146.71,137.14,142.32,131.53Z" style="fill:#414355"/><path d="M74.41,118.42c-1.32-4.42-3.46-8.18-5.35-12.34a68.86,68.86,0,0,0-8.28-13.69A98.77,98.77,0,0,0,51,80.89c-3.18-3-5.9-6.73-10.2-8.2-.91-.31-1.41,1-.64,1.51C47.88,79,53.75,86.42,59.55,93.34A78.65,78.65,0,0,1,74,118.52a.2.2,0,0,0,.39-.1Z" style="fill:#414355"/><path d="M88.72,36.05c-.48,12.31-.15,24.59,0,36.9,0,6.26,0,12.53-.15,18.79-.11,6.51-1.17,13-1.31,19.47,0,.72,1.16.91,1.27.18a245.4,245.4,0,0,0,2.29-37.34c-.08-12.65-1-25.36-1.46-38a.3.3,0,0,0-.59,0Z" style="fill:#414355"/><path d="M90.59,127.68c2.4-1.15,4.24-2.9,6.41-4.41s4.39-3,6.67-4.46a139.37,139.37,0,0,0,13.1-9.7c4.08-3.3,8.69-5.75,12.71-9.14a92.5,92.5,0,0,1,14-10.14.44.44,0,0,0-.34-.81c-4.43,1.38-8.27,4.48-11.86,7.31-2.25,1.78-4.44,3.57-6.84,5.13a77.54,77.54,0,0,0-6.78,4.31c-4.62,3.71-9.13,7.55-13.91,11-2,1.46-4,2.76-5.91,4.38-2.38,2.06-4.71,4.61-7.53,6.06-.28.14,0,.55.25.42Z" style="fill:#414355"/><path d="M29,101.29c1.55,1.79,3.58,2.35,5.63,3.38a75.89,75.89,0,0,0,9.75,4c7.24,2.44,14.15,4.41,20.29,9.2.37.29.88-.17.54-.54-4.21-4.45-9.9-7.31-15.65-9.22-3.5-1.16-7-2.06-10.49-3.39-1.48-.58-2.94-1.22-4.43-1.8-1.79-.7-3.64-.75-5.16-2.1a.34.34,0,0,0-.48.47Z" style="fill:#2a9cc8"/><path d="M57,35.39c.67,1.32.55,3,.73,4.43A23.7,23.7,0,0,0,59,44c1.15,3.39,2.53,6.67,3.59,10.1,2,6.65,4,13.31,5.89,20S72,87.68,73.8,94.47s2.59,14,4.13,20.9c.08.4.75.32.71-.09a140,140,0,0,0-2.91-20.2C74,87.91,72.2,80.73,70.3,73.59s-4-14.08-6.16-21.06c-1.07-3.41-2.5-6.66-3.75-10-.92-2.47-1.24-5.32-2.65-7.56a.42.42,0,0,0-.72.43Z" style="fill:#2a9cc8"/><path d="M125.15,56.24a16.12,16.12,0,0,1-2.23,4.87c-1.32,2.27-2.78,4.35-3.91,6.73-2.36,5-4.45,10.06-7.38,14.78-6,9.75-13.46,19-18.23,29.44a.63.63,0,0,0,1.09.63c6.47-10,13.23-19.82,19.55-29.91,3.1-5,5.19-10.44,7.65-15.72,1-2.06,2.65-3.9,3.27-6.12.43-1.56,1.48-3,1.05-4.7-.1-.4-.78-.44-.86,0Z" style="fill:#2a9cc8"/><path d="M100.62,127.11c3.59,0,7-1.17,10.59-1.19a35.17,35.17,0,0,1,11.69,1.88,23.26,23.26,0,0,1,9.54,5.76c2.44,2.66,2.73,6.83,4,10.08a.8.8,0,0,0,1.54-.42c-.59-3.6-1.26-7.13-3.29-10.23-1.91-2.89-5.55-4.83-8.66-6.11a31.7,31.7,0,0,0-11.53-2.35,28.77,28.77,0,0,0-6.75.38c-2.39.52-4.65,1.53-7.11,1.75-.28,0-.29.46,0,.45Z" style="fill:#2a9cc8"/><path d="M82.43,129.29a9.67,9.67,0,0,1-3.35,2.41,9.14,9.14,0,0,0-2.66,2.22,44,44,0,0,0-5,6.64c-.36.57.51,1.05.89.52,1.71-2.37,3.39-4.76,5.31-7,1.54-1.78,3.91-2.43,5.23-4.46.18-.27-.25-.61-.45-.35Z" style="fill:#858fa9"/><path d="M261.08,104c-.65-9.14-1.13-18.13-1-27.3s.21-18-.3-27c-.46-8.19-.68-16.59-2.42-24.63-1.39-6.45-5.08-12.48-11-15.64-4.49-2.4-10-2-12.85,2.48s-2.28,11-1.87,16C232.36,37.07,234.85,46,237,55c3,12.54,5.55,25.21,8.41,37.78-3.16-7.34-7.26-14.11-11.27-21-4.21-7.27-7.61-15-12.35-22a64.55,64.55,0,0,0-16-16A36.05,36.05,0,0,0,196,28.79c-2.21-.72-5.62-1.64-7.87-.5-6,3-.74,11.41,1.48,15.27,4,6.95,9.37,13.08,14.64,19.07,5.8,6.58,11.46,13.25,16.94,20.09,8.78,10.94,17.73,21.73,26.46,32.71-11.28-9.68-22-20.06-34-28.82a134.49,134.49,0,0,0-22.39-13.52c-5-2.35-11.34-4.88-16.89-3-5.8,2-5.28,9-3.5,13.64,2.43,6.3,7.59,10.57,13.37,13.71,15.4,8.35,33.61,9,49.69,15.46,5.6,2.26,11,5,16.55,7.34-6-1-11.87-2.43-17.92-3.08a97.79,97.79,0,0,0-21.22.43,80.4,80.4,0,0,0-9.28,1.35,30.26,30.26,0,0,0-7.89,3.65A33.51,33.51,0,0,0,188,127.2c-1.47,1.37-3.81,3.9-3.83,6.07,0,4.78,5.6,6.81,9.6,6.95,6.13.21,12.95-4,18.17-6.73,6.45-3.36,12.52-7.33,19.57-9.35,6.81-1.94,14-2.25,21.06-2.53.11,0,3.27-.87,3.42-.94,2.18-1.08,3.77-2.25,4.54-4.61C261.79,112.32,261.35,107.89,261.08,104Z" style="fill:#414355"/><path d="M288,80.92c3-8.43,5.61-17,8.17-25.55,2.22-7.44,4.12-15.13,4-22.95-.11-5.87-1.92-11.55-6.86-15-5.55-3.91-11.94.21-15.72,4.41-4.8,5.31-6.74,12.66-8.16,19.48A232.73,232.73,0,0,0,266,67.05c-1.62,17.45-3.94,34.82-5.33,52.29,0,.48,1.58.84,2,.45C274.85,109.47,282.79,95.81,288,80.92Z" style="fill:#414355"/><path d="M320.67,115.94a25.09,25.09,0,0,0-16.09-3.55c-6.23.58-12.16,3-17.94,5.19-4.34,1.67-8.71,3.36-12.94,5.33a85.05,85.05,0,0,0,11.58-7.8c6.29-4.9,12.42-9.8,19.05-14.23,11.52-7.71,21.78-16.78,24.66-31,1-4.94.32-12.67-5.5-14.28-5.37-1.48-11.44,4.22-14.81,7.58-5.28,5.29-9.46,11.64-13.56,17.85-4.63,7-9.38,13.79-14.66,20.31a135.91,135.91,0,0,0-15.42,24c-.21.4.94.91,1.28.8,1.39-.46,1.53-.24,1.53-.24s-1.18,1.55-.15,1.59c7,.3,14.12.18,21.08,1.44,6.1,1.11,11.59,4.12,17.38,6.18,5.23,1.86,10.6,2.37,15.92.59,4.27-1.43,7.69-5.14,7.08-9.81C328.56,121.37,324.21,118.2,320.67,115.94Z" style="fill:#414355"/><path d="M188.85,129.22c3.49-.17,7.09.53,10.55.11a.32.32,0,0,0,0-.63,50.27,50.27,0,0,0-10.55-.09c-.38,0-.39.63,0,.61Z" style="fill:#dcdde0"/><path d="M201.91,122.78c3,.3,5.83,1.91,8.81,1.9a.31.31,0,0,0,.08-.61,26.92,26.92,0,0,0-4.43-1,25.93,25.93,0,0,0-4.46-.73.25.25,0,0,0,0,.49Z" style="fill:#dcdde0"/><path d="M214.54,119.29c2,1.54,4.6,1.83,6.92,2.72.39.15.63-.46.28-.66-2.16-1.21-4.66-1.56-6.92-2.54a.28.28,0,0,0-.28.48Z" style="fill:#dcdde0"/><path d="M223.26,118a14.43,14.43,0,0,0,5.55,3.39c.36.14.58-.43.26-.62-1.82-1.07-3.88-1.69-5.56-3a.18.18,0,0,0-.25.26Z" style="fill:#dcdde0"/><path d="M183.92,72.4c.56,2,.91,4.14,1.49,6.16.48,1.67.39,3.49,1.39,5,.22.32.8.13.66-.27-1.3-3.58-1.6-7.43-3-11-.14-.36-.68-.22-.58.15Z" style="fill:#dcdde0"/><path d="M195.54,78.21c.89,4.22.94,8.65,2.19,12.8a.42.42,0,0,0,.83-.11,35.26,35.26,0,0,0-.9-6.53,30.6,30.6,0,0,0-1.57-6.32.29.29,0,0,0-.55.16Z" style="fill:#dcdde0"/><path d="M207.67,85.58a9.54,9.54,0,0,0,.53,5.48c.65,2.11.36,4.22,1.55,6.16a.45.45,0,0,0,.82-.35,39.83,39.83,0,0,1-.92-4.6c-.32-2.28-1.64-4.08-1.31-6.5.06-.43-.55-.64-.67-.19Z" style="fill:#dcdde0"/><path d="M220.19,93.3c.75,3.1-.33,6.43,1.15,9.35.24.48,1,.14.86-.36-.91-3-.27-6.22-1.42-9.15a.31.31,0,0,0-.59.16Z" style="fill:#dcdde0"/><path d="M196.71,30.53a24.34,24.34,0,0,0,1.41,7,.32.32,0,0,0,.62-.17,44,44,0,0,1-1.49-6.88.27.27,0,0,0-.54,0Z" style="fill:#dcdde0"/><path d="M205.1,36c-.68,1.66-.34,3.29-.31,5a45.36,45.36,0,0,0,.47,5.46.54.54,0,0,0,1,0c.47-3.43-1.26-6.95-.61-10.31a.31.31,0,0,0-.59-.17Z" style="fill:#dcdde0"/><path d="M214.67,44.75a98.48,98.48,0,0,0-.21,11.9.51.51,0,0,0,1,0,98.47,98.47,0,0,0-.2-11.9.31.31,0,0,0-.61,0Z" style="fill:#dcdde0"/><path d="M222.79,55.78c-.28,4.06-.93,8.43-.41,12.48.05.43.77.64.84.12a66.3,66.3,0,0,0,.19-12.6.31.31,0,0,0-.62,0Z" style="fill:#dcdde0"/><path d="M228.89,66.52c-.28,3.47-1.47,6.83-1.2,10.35a.54.54,0,0,0,1.07,0,85.59,85.59,0,0,0,.73-10.35.3.3,0,0,0-.6,0Z" style="fill:#dcdde0"/><path d="M235,77.35a25.92,25.92,0,0,1-.12,4.4c0,1.21,0,2.42,0,3.63a.41.41,0,0,0,.81,0c.05-1.38.06-2.76,0-4.15a22.94,22.94,0,0,0-.12-4.06c-.09-.43-.71-.24-.65.18Z" style="fill:#dcdde0"/><path d="M240.58,86.21c.25,0,.26-.1.45-.31l-.55-.23a84.39,84.39,0,0,0,0,8.71.38.38,0,0,0,.75,0,31.18,31.18,0,0,0-.07-8.79c-.06-.33-.53-.28-.62,0,0,0,0,.09,0,.13a.25.25,0,0,0,.13.49Z" style="fill:#dcdde0"/><path d="M249.23,12.75c-.24,1.59-1.38,2.84-2.15,4.2-.93,1.64-2.16,3.21-2.64,5.05-.12.47.58.8.81.34.89-1.79,1.89-3.52,2.82-5.29.72-1.4,1.67-2.59,1.72-4.22,0-.32-.51-.4-.56-.08Z" style="fill:#dcdde0"/><path d="M254.25,24.24l.73-.71-.59-.35c-.28,1.18-1.8,2.35-2.6,3.2s-1.72,2-2.59,2.93c-1.25,1.41-2.72,2.95-3.12,4.85-.12.58.71,1,1,.42a36.87,36.87,0,0,1,4.48-6.29c1.14-1.44,3.31-3.1,3.53-5,0-.45-.72-.47-.71,0-.11.26-.21.52-.32.77a.13.13,0,0,0,.19.19Z" style="fill:#dcdde0"/><path d="M255.28,37.5c0,1.88-2.48,4.42-3.58,5.84a16.13,16.13,0,0,0-2.9,5.94c-.1.46.59.81.79.34a34.73,34.73,0,0,1,3.46-6.48c1.08-1.49,3-3.72,2.88-5.64a.33.33,0,0,0-.65,0Z" style="fill:#dcdde0"/><path d="M257.32,51.14c0,1.62-1.67,3.56-2.52,4.89a16.16,16.16,0,0,0-2.53,5.15.45.45,0,0,0,.86.23c.8-2.3,2.28-4.23,3.4-6.37.67-1.27,1.64-2.48,1.41-4-.06-.36-.63-.27-.62.08Z" style="fill:#dcdde0"/><path d="M258.21,66.44c-.27,1.52-1.43,2.79-2.13,4.14-.88,1.67-1.83,3.29-2.57,5-.2.47.43.88.7.41,1.07-1.78,2-3.61,3-5.48.64-1.31,1.56-2.5,1.63-4,0-.34-.54-.42-.6-.08Z" style="fill:#dcdde0"/><path d="M258.47,81.52c-.78,2.18-2.41,3.93-3.3,6.07-.2.47.6.8.82.34,1-2.09,2.5-4,3.13-6.23.12-.42-.5-.58-.65-.18Z" style="fill:#dcdde0"/><path d="M258.77,94.59c-.65,1.62-1.91,2.92-2.41,4.61-.16.54.61.71.81.23.67-1.6,1.71-3,2.23-4.67.13-.41-.48-.55-.63-.17Z" style="fill:#dcdde0"/><path d="M297.74,26.52c-3,2.71-7.17,3.93-10,6.83-.4.42.15,1.2.65.83,3.26-2.36,7-4.29,9.84-7.18.31-.31-.16-.77-.48-.48Z" style="fill:#dcdde0"/><path d="M296.31,40.56c-1.28,2-4,2.08-6,2.94-2.29,1-5.16,2-6.9,3.8a.5.5,0,0,0,.61.79,72.62,72.62,0,0,1,8.3-4.21c1.72-.65,3.58-1.33,4.43-3.06a.25.25,0,0,0-.43-.26Z" style="fill:#dcdde0"/><path d="M291.51,59c-2.1.57-3.83,2-5.74,3s-4.45,1.87-5.91,3.59c-.4.47.12,1.3.71.91,1.7-1.15,3.5-2.07,5.27-3.11,2-1.19,3.84-2.7,5.91-3.79a.32.32,0,0,0-.24-.58Z" style="fill:#dcdde0"/><path d="M287.82,75.53c-1.61,0-2.73.91-4.09,1.67-2.21,1.25-4.53,2.23-6.63,3.65a.54.54,0,0,0,.54.94q2.67-1.44,5.31-2.92c1.59-.9,3.13-2.42,4.94-2.8a.28.28,0,0,0-.07-.54Z" style="fill:#dcdde0"/><path d="M281.19,91v0l.17-.44c-3.08,1.22-6.54,2.6-9,4.86-.4.37.13,1.08.59.76,1-.66,2-1.31,3-1.89a26.44,26.44,0,0,0,3.22-1.67c.74-.59,2-.83,2.54-1.62a.31.31,0,0,0-.11-.41h0a.29.29,0,0,0-.39.39Z" style="fill:#dcdde0"/><path d="M276.28,100.84c-.86.85-2.36,1.06-3.49,1.38a15.34,15.34,0,0,0-3.41,1.41.49.49,0,0,0,.38.9c1.43-.36,2.74-1.08,4.13-1.56a5.37,5.37,0,0,0,2.88-1.76c.19-.29-.24-.61-.49-.37Z" style="fill:#dcdde0"/><path d="M326.71,70.52c-2.26-.09-4.37.86-6.62,1a15.86,15.86,0,0,0-5.32,1.07c-.67.3-.19,1.39.5,1.18A37.89,37.89,0,0,1,321,72.71c2-.3,3.85-1.15,5.84-1.49.42-.07.29-.69-.09-.7Z" style="fill:#dcdde0"/><path d="M319.9,81.39c-2,1-4.38.91-6.54.86-1.18,0-2.46.36-3.67.43s-2.58,0-3.88.14a.53.53,0,0,0,0,1.06c3,.3,5.8-.51,8.77-.62,1.91-.08,4-.24,5.58-1.42a.26.26,0,0,0-.26-.45Z" style="fill:#dcdde0"/><path d="M310,93.63c.24.35.19.31.59.5l.2-.71c-1.95-.09-3.86.32-5.81.35-2.31,0-4.65-.15-7,0a.65.65,0,0,0,0,1.3c4.4.35,8.44-.32,12.77-.85.55-.07.42-.88-.1-.74l-.28,0c-.18-.24-.59,0-.41.24Z" style="fill:#dcdde0"/><path d="M299.57,102c-3.46,1.78-7.67,1.19-11.32,2.33a.55.55,0,0,0,.29,1c3.53-.65,8.36-.6,11.32-2.89a.28.28,0,0,0-.29-.49Z" style="fill:#dcdde0"/><path d="M289.27,109.91a40.54,40.54,0,0,0-7.39.33c-.57.09-.44,1.05.14,1,2.42-.21,4.82-.56,7.25-.66a.34.34,0,0,0,0-.67Z" style="fill:#dcdde0"/><path d="M292.25,121.79c1.68,3.08,2.67,6.49,4.35,9.58a.26.26,0,0,0,.46-.2,51.3,51.3,0,0,0-4.38-9.63.25.25,0,0,0-.43.25Z" style="fill:#dcdde0"/><path d="M301.11,121.29a35.18,35.18,0,0,1,2.35,4.72c1.06,2.06,2.13,4.1,3.35,6.08a.53.53,0,0,0,.91-.54c-1-2.08-2.06-4.14-3.19-6.16a19.49,19.49,0,0,0-2.79-4.59c-.31-.32-.9.11-.63.49Z" style="fill:#dcdde0"/><path d="M311.07,122.68c1.61,2.69,2.51,5.71,3.95,8.49.26.49,1,.06.74-.44a54.26,54.26,0,0,0-4.18-8.35c-.21-.3-.71,0-.51.3Z" style="fill:#dcdde0"/><path d="M284.16,123.13a6.88,6.88,0,0,1,2.13,3.28.38.38,0,0,0,.73-.2,4.77,4.77,0,0,0-2.51-3.69.35.35,0,0,0-.35.61Z" style="fill:#dcdde0"/><path d="M199.4,129a26.8,26.8,0,0,0-2,4.69c-.24.77-.3,1.68-.47,2.54L196.3,138a2.79,2.79,0,0,1-.31.39c-.14.14,0,.33.2.26,1.29-.56,1.37-2.17,1.55-3.39.32-2.14,1.34-4.06,2.06-6.08C199.89,128.93,199.51,128.78,199.4,129Z" style="fill:#2a9cc8"/><path d="M210.06,124.49c-.67,1.65-1.38,3.28-2.05,4.93-.59,1.48-.39,3.29-1.35,4.61-.14.2.18.45.34.26.88-1,1-2.46,1.29-3.76.46-2,1.7-3.88,2.31-5.89C210.7,124.29,210.19,124.17,210.06,124.49Z" style="fill:#2a9cc8"/><path d="M220.32,122.24c-1.08.79-1.45,2.06-2,3.24a12.67,12.67,0,0,0-.74,1.53c-.27.84-.55,2-1.34,2.51-.29.18-.1.7.23.57,1-.41,1.43-1.59,1.78-2.56a14.42,14.42,0,0,1,2.44-4.76C221,122.5,220.63,122,220.32,122.24Z" style="fill:#2a9cc8"/><path d="M227,121.54c-.82,1.23-1.51,2.55-2.28,3.8-.12.18.15.39.29.23a12.35,12.35,0,0,0,2.42-3.84C227.48,121.46,227.1,121.33,227,121.54Z" style="fill:#2a9cc8"/><path d="M187.62,84.55a48,48,0,0,0-6.28,1.21,39.77,39.77,0,0,1-6.21,1.37c-.33.05-.24.58.08.58,2,0,3.7-.79,5.6-1.15,2.29-.44,4.68-1,6.95-1.5C188.09,85,188,84.49,187.62,84.55Z" style="fill:#2a9cc8"/><path d="M198.32,91.38c-4.74,1.07-9.13,3.66-13.89,4.49-.31,0-.22.51.07.52a14.5,14.5,0,0,0,5.36-1.23c2.87-1.06,5.81-1.92,8.68-3A.41.41,0,0,0,198.32,91.38Z" style="fill:#2a9cc8"/><path d="M196.69,100.83a.23.23,0,0,0,0,.45c4.31.28,8.48-1.67,12.56-2.81a.33.33,0,0,0-.17-.63C204.87,98.52,201,100.3,196.69,100.83Z" style="fill:#2a9cc8"/><path d="M221.57,103.39c-1.74.35-3.43.88-5.17,1.22-1.47.28-2.84,1-4.33,1.15-.29,0-.31.46,0,.46a12.25,12.25,0,0,0,3.88-.7c1.91-.59,3.88-.85,5.77-1.58A.29.29,0,0,0,221.57,103.39Z" style="fill:#2a9cc8"/><path d="M193.5,39.31h-.17c.06,0,.11,0,.17-.05,1.45-.08,2.9,0,4.35-.09a.21.21,0,0,0,0-.41c-1.27-.11-2.54-.09-3.81-.09s-2.49.51-3.69.1c-.23-.08-.31.31-.1.4s.22.14.33.14h2.92Z" style="fill:#2a9cc8"/><path d="M194.88,47.63a4,4,0,0,1-.48-.08c-.13,0-.21.14-.09.2a4.71,4.71,0,0,0,3.12.55c2.64-.45,5.31-.6,8-.88a.34.34,0,0,0,0-.68,28.93,28.93,0,0,0-6.09.35c-.74.1-1.51.29-2.28.43Z" style="fill:#2a9cc8"/><path d="M201.33,57c4.35.33,8.7-.11,13.06.29.35,0,.41-.51.08-.6-4.19-1.11-8.87-.71-13.14-.3A.31.31,0,0,0,201.33,57Z" style="fill:#2a9cc8"/><path d="M210,67.14a.25.25,0,0,0,0,.5c4.31.5,8.71,1.7,13.06,1.68a.48.48,0,0,0,.13-.94A37.67,37.67,0,0,0,210,67.14Z" style="fill:#2a9cc8"/><path d="M218.45,77a.29.29,0,0,0,0,.58c2.49.23,5,1,7.55.86a.28.28,0,0,0,0-.56C223.5,77.56,221,76.85,218.45,77Z" style="fill:#2a9cc8"/><path d="M225.63,86a43.8,43.8,0,0,0,7.92.92.36.36,0,0,0,.09-.7,11.62,11.62,0,0,0-3.62-.42c-1.46,0-2.86-.56-4.31-.42C225.38,85.39,225.26,85.9,225.63,86Z" style="fill:#2a9cc8"/><path d="M240,94.93c-2.31-.75-4.88-.3-7.26-.85a.32.32,0,0,0-.17.61,27.09,27.09,0,0,0,7.34.9A.34.34,0,0,0,240,94.93Z" style="fill:#2a9cc8"/><path d="M241.6,102a19.9,19.9,0,0,0-3.41-.57c-.24,0-.31.38-.06.43,1,.18,2,.57,2.92.81,1.14.29,2.3.42,3.44.74.34.1.58-.43.25-.59A11.73,11.73,0,0,0,241.6,102Z" style="fill:#2a9cc8"/><path d="M236.18,18.33c2,1.51,4,3.16,6.06,4.6.57.39,1.21-.48.73-.95a36.57,36.57,0,0,0-4.83-3.64c-.61-.42-1.35-.84-2-1.3l-1.35-1.13a3.62,3.62,0,0,1-.64-.92c-.16-.32-.67-.09-.57.24A6,6,0,0,0,236.18,18.33Z" style="fill:#2a9cc8"/><path d="M232.31,25.58c2.29.86,4.36,3.33,6.43,4.71s4.28,3,6.42,4.5c.54.37,1.11-.44.68-.88a35.62,35.62,0,0,0-6.46-4.71c-2.14-1.37-4.37-3.69-6.92-4.17A.29.29,0,0,0,232.31,25.58Z" style="fill:#2a9cc8"/><path d="M235.38,39.79a.33.33,0,0,0-.18.64c1.89.71,3,2.52,4.64,3.63A80.34,80.34,0,0,0,247,48.62a.44.44,0,0,0,.45-.76c-2.4-1.73-5-3.16-7.37-5C238.54,41.73,237.33,40.15,235.38,39.79Z" style="fill:#2a9cc8"/><path d="M238.48,53.22a.24.24,0,0,0,0,.48,1.68,1.68,0,0,1,.43.07l2.83,2c.74.72,1.43,1.45,1.95,1.85,2.66,2.06,5.47,3.9,8.09,6,.47.38,1.13-.24.68-.67-2.7-2.54-6-4.38-8.89-6.67C242.16,55.21,240.44,53.12,238.48,53.22Z" style="fill:#2a9cc8"/><path d="M241,65.43c-.23-.29-.69.08-.5.38a21.71,21.71,0,0,0,5.22,5.34c2.31,1.84,4.39,3.93,6.67,5.81a.4.4,0,0,0,.57-.57C249.46,72.22,244.4,69.71,241,65.43Z" style="fill:#2a9cc8"/><path d="M250.3,85.65c-1.2-1.09-2.39-2.2-3.57-3.3a16.53,16.53,0,0,0-2.88-2.73c-.28-.16-.6.23-.35.46,1.77,1.57,3.28,3.61,5,5.29a49.56,49.56,0,0,1,6.44,6.91c.26.36,1,.14.78-.33C254.66,89.36,252.32,87.49,250.3,85.65Z" style="fill:#2a9cc8"/><path d="M250.33,96.58c-1.16-1.22-2.31-2.77-3.94-3.34-.31-.11-.47.35-.22.51,1.51,1,2.7,2.74,3.92,4a65,65,0,0,0,5.22,4.72.42.42,0,0,0,.59-.59C254.18,100,252.12,98.44,250.33,96.58Z" style="fill:#2a9cc8"/><path d="M286.5,32.9c-1.05-2.08-2.27-4.11-3.44-6.12s-1.58-3.9-2.84-5.68a.28.28,0,0,0-.48.29c2.1,4,3.08,8.46,6,12.1C286.1,34,286.74,33.37,286.5,32.9Z" style="fill:#2a9cc8"/><path d="M274.84,31a.38.38,0,0,0-.74.2c1.22,5.13,4.14,10.51,6.81,15,.34.57,1.37.18,1.11-.47C279.93,40.7,276.92,36.07,274.84,31Z" style="fill:#2a9cc8"/><path d="M279,64.93c-.64-3-2.3-5.71-3.63-8.44s-3.46-5.91-4.09-8.92c-.08-.39-.65-.28-.66.09-.09,2.79,1.71,5,2.69,7.5,1.35,3.45,3.18,6.8,4.74,10.17C278.34,65.89,279.15,65.48,279,64.93Z" style="fill:#2a9cc8"/><path d="M268.08,62.09c-.14-.35-.69-.22-.58.16a185,185,0,0,0,7.44,19c.2.49,1,.14.85-.36C273.78,74.46,270.69,68.3,268.08,62.09Z" style="fill:#2a9cc8"/><path d="M269.29,88.3c-.89-2.08-1.46-4.34-2.67-6.27a.32.32,0,0,0-.56.32c1.77,4.12,2.79,8.53,4.78,12.58.25.5,1.12.14.92-.39C271,92.45,270.16,90.36,269.29,88.3Z" style="fill:#2a9cc8"/><path d="M264.57,96.84c-.19-.35-.67,0-.52.3,1.29,3,1.72,6.5,3.45,9.31a.34.34,0,0,0,.58-.34C266.6,103.13,266.15,99.77,264.57,96.84Z" style="fill:#2a9cc8"/><path d="M314.24,71.25a36.5,36.5,0,0,0,.65-5.31c.14-2.14.66-4.24.72-6.39,0-.28-.43-.28-.44,0-.1,1.59-.56,3.08-.74,4.65-.26,2.3-.38,4.59-.79,6.88C313.57,71.47,314.15,71.64,314.24,71.25Z" style="fill:#2a9cc8"/><path d="M305.5,81.76c.66-4.64,1.69-9.68,1.46-14.37a.28.28,0,0,0-.55,0c-.58,4.75-1.77,9.43-2,14.22C304.33,82.25,305.4,82.41,305.5,81.76Z" style="fill:#2a9cc8"/><path d="M294.63,95.79a22.71,22.71,0,0,0,1.66-6.49,56,56,0,0,0,.84-8.85.32.32,0,0,0-.63,0c-.54,5-1.82,10-2.78,15C293.62,95.93,294.39,96.34,294.63,95.79Z" style="fill:#2a9cc8"/><path d="M288.45,93.44c-.49,3.55-1.84,6.92-2.22,10.52-.05.48.76.58.84.11.56-3.42,1.94-7.09,1.87-10.56C288.93,93.24,288.49,93.16,288.45,93.44Z" style="fill:#2a9cc8"/><path d="M280.87,103.22a40.64,40.64,0,0,0-2.17,7.59.43.43,0,0,0,.83.23c.69-2.51,1.18-5.08,1.92-7.58C281.55,103.12,281,102.88,280.87,103.22Z" style="fill:#2a9cc8"/><path d="M327.58,123.76v.14s0,.16-.06.16h0s0-.15,0-.15c-2.07.24-4.05.9-6.09,1.3-.35.06-.27.63.08.58,2.11-.27,4.09-1.11,6.16-1.56C327.92,124.17,327.82,123.76,327.58,123.76Z" style="fill:#2a9cc8"/><path d="M321,118.05a1.35,1.35,0,0,1,.4.08c.26.09.44-.33.19-.45a3.47,3.47,0,0,0-2.95.33c-2.19,1-4.54,1.58-6.66,2.73-.39.21-.12.9.3.73,1.7-.7,3.44-1.31,5.14-2,.3-.13.63-.31,1-.5Z" style="fill:#2a9cc8"/><path d="M309.43,113.57c-2.51,1.76-5.27,3-7.91,4.51a.45.45,0,0,0,.46.78c2.7-1.38,5.65-2.63,7.82-4.82C310,113.8,309.72,113.37,309.43,113.57Z" style="fill:#2a9cc8"/><path d="M299.53,114.65a.83.83,0,0,1-.18.31l-1.21.89c-.66.35-1.38.65-1.75.87a26.48,26.48,0,0,0-3.3,2.37c-.31.26.1.79.42.55,1.4-1,2.83-2,4.29-3,.73-.48,1.93-.9,2.11-1.88A.2.2,0,0,0,299.53,114.65Z" style="fill:#2a9cc8"/><path d="M187.83,136.71a115.24,115.24,0,0,1,13-7.68c2.22-1.09,4.59-1.85,6.84-2.93a45.86,45.86,0,0,1,8.94-2.93,79.91,79.91,0,0,1,17.79-1.76c6.12,0,12.8-.74,18.8.54.37.08.53-.48.16-.57-5.37-1.38-11.41-.62-16.91-.62a123.81,123.81,0,0,0-17.94,1.38c-6,.88-11.49,3.73-17.1,5.92a50.1,50.1,0,0,0-6.7,3.76c-2.49,1.45-4.78,2.78-7.16,4.4-.3.2,0,.69.28.49Z" style="fill:#858fa9"/><path d="M174.52,76.29c2.8,1.7,5.11,3.95,8,5.61,3.43,2,6.59,4.31,10,6.37,6.3,3.88,13,7,19.49,10.52,2.82,1.53,5.89,2.53,8.69,4.15,3.49,2,6.9,4.17,10.35,6.26,6.35,3.85,12.81,7.53,19.17,11.38.47.28.86-.42.42-.73-6-4.33-12.67-7.81-18.93-11.79-3.1-2-6.14-4-9.25-6S216,99,212.91,97.15c-6.28-3.81-13.15-6.75-19.52-10.46-6.2-3.6-12.29-7.48-18.65-10.78a.22.22,0,0,0-.22.38Z" style="fill:#858fa9"/><path d="M189.23,29.87c6.27,7.32,13.28,14,19.34,21.46A276.18,276.18,0,0,1,226.05,75c5.27,8.18,10.86,16,16.4,24,5.42,7.79,9.78,16.15,14.5,24.35.3.52,1,.07.79-.46a176.54,176.54,0,0,0-14-24.61c-2.78-4.14-5.82-8.08-8.52-12.27s-5.38-8.61-8.09-12.9a233.6,233.6,0,0,0-16.56-22.27,122.89,122.89,0,0,0-9.88-10.78c-3.65-3.52-7.62-6.83-11-10.59-.26-.28-.65.13-.41.41Z" style="fill:#858fa9"/><path d="M240.47,9.15c1.22,3.7,1.27,8.18,2,12,.88,4.72,2,9.35,3.1,14,2.26,9.48,3.78,19.14,5.12,28.79,1.39,10,2.39,20.06,3.42,30.1.92,9.07.65,18.49,2.37,27.44.13.69,1.19.51,1.19-.16,0-9.39-.91-19.05-1.82-28.4-1-9.85-2-19.69-3.27-29.5a285.5,285.5,0,0,0-5.22-28.76c-1.12-4.66-2.24-9.3-3.27-14-.85-3.81-1.24-8.33-3-11.85-.17-.35-.75-.1-.63.27Z" style="fill:#858fa9"/><path d="M290.47,15.15c-.08,4.43-1.63,8.89-2.54,13.21-1,4.65-2.3,9.2-3.51,13.79a266.53,266.53,0,0,0-6,26.74,139.31,139.31,0,0,1-6.37,25.93c-1.46,4.09-2.91,8.25-4.77,12.17a114.65,114.65,0,0,0-4.5,10.73.64.64,0,0,0,1.17.49c7.94-15.39,13.92-31.61,16.31-48.81,1.3-9.41,3.43-18.76,5.55-28,1.06-4.62,2.28-9.2,3.22-13.86.8-4,2.36-8.3,1.9-12.38a.25.25,0,0,0-.5,0Z" style="fill:#858fa9"/><path d="M268.21,123.91c2.41-1.34,4.37-3.65,6.27-5.62,2.82-2.92,5.63-5.83,8.49-8.71,5.44-5.49,11-10.67,16-16.64,2.16-2.6,4.36-5.18,6.47-7.82,2.34-2.93,5.15-5.4,7.58-8.24,4.51-5.25,6.85-12.09,11-17.64.37-.49-.42-1.07-.83-.64-4.25,4.52-6.68,10.65-10.22,15.71-2.09,3-5,5.24-7.43,7.93s-4.78,5.79-7.11,8.69c-4.62,5.73-9.53,11-14.58,16.39q-3.8,4-7.51,8.06c-2.52,2.75-5.17,6.06-8.33,8.1a.25.25,0,0,0,.25.43Z" style="fill:#858fa9"/><path d="M270,126a5.11,5.11,0,0,0,3.29-.45,47.39,47.39,0,0,1,6.64-1.87,131.86,131.86,0,0,1,16.44-2.29c5.18-.49,10.28-.39,15.24,1.39a31.36,31.36,0,0,1,7.1,3.76c2,1.34,3.56,3.11,5.6,4.36.63.39,1.4-.56.81-1-3.61-2.93-6.66-6.32-11-8.17a31.09,31.09,0,0,0-13.88-2.33A95.3,95.3,0,0,0,285,121.59c-2.85.6-5.69,1.32-8.52,2-1.95.47-4.32,2.15-6.32,1.82-.4-.07-.58.51-.17.62Z" style="fill:#858fa9"/><path d="M289,259.11c.28-4.88.06-9.83.07-14.71q0-6.48,0-13c0-4.1-.56-8.16-.55-12.23,0-3.74-.44-7.36-.55-11.07-.07-2.12-.38-7.55-1.05-12.74a221.8,221.8,0,0,0-5.34-26c-2.23-8.85-3.89-17.82-6.48-26.59a64.66,64.66,0,0,0-4.41-12c-1-1.87-1.89-3.71-2.78-5.63-.75-1.63-1.9-4.73-3.31-5.87a6.23,6.23,0,0,0-3.52-1.6,15.74,15.74,0,0,0-5.52.09c-2.37.72-4.93.64-5.32,4.94-.19,2.13,1,6.24,1.45,8.51.7,3.74,3.75,17.42,4.46,20.8.87,4.16,1.61,9,2.51,12.67,2,8.23,2.28,15.29,3.48,23.61.57,4,.91,9.21,1.48,13.16.33,2.31.68,10.56.67,12.47,0,3.67.45,7.31.65,11,.23,4.29.51,8.51.51,12.81,0,8.72,0,17.44,0,26.16V265c0,3.73,0,7.94.12,11.75.1,3,.45,8.72.45,12.2,0,8.65-.2,17.32,0,26a.84.84,0,0,0,.82.85c1.76-.05,9.09-1.44,10.7-1.82s9.33-1.88,9.52-1.93l.36-.1c1.09-.38.93-1.59,1.06-2.94.3-3.27-.1-6.74-.1-10q0-13.94,0-27.88C288.5,269.14,288.9,261.15,289,259.11Z" style="fill:#414355"/><path d="M258.74,139c1,2.12,1.23,4.51,2.19,6.65.31.7,1.44.2,1.22-.51-.74-2.3-1.14-4.62-2.52-6.66a.52.52,0,0,0-.89.52Z" style="fill:#858fa9"/><path d="M267.83,150.09a6.46,6.46,0,0,1-.14,2.22,18.57,18.57,0,0,0,.06,2.24.72.72,0,0,0,1.44,0,20.37,20.37,0,0,0,.05-2.47,6.07,6.07,0,0,0-.19-2.51c-.31-.69-1.47-.19-1.22.52Z" style="fill:#858fa9"/><path d="M266.38,175.77a14,14,0,0,1,1.46,3.34c.26.8,1.53.45,1.26-.35a15.61,15.61,0,0,0-1.64-3.63c-.44-.67-1.51,0-1.08.64Z" style="fill:#858fa9"/><path d="M279.18,213.76c-.12,2.25-1,4.35-1.23,6.58-.08.66,1,.78,1.15.15a28.52,28.52,0,0,0,1.11-6.73.52.52,0,0,0-1,0Z" style="fill:#858fa9"/><path d="M271.05,233.64c.65,1.89.61,3.89,1.11,5.81.16.63,1.23.52,1.15-.15a22.35,22.35,0,0,0-1.23-6c-.25-.61-1.25-.37-1,.29Z" style="fill:#858fa9"/><path d="M280.62,260.41c-1,2.32-2,4.58-2.09,7.14a.78.78,0,0,0,1.52.2c.65-2.31,1.21-4.66,1.81-7,.21-.82-.93-1.07-1.24-.34Z" style="fill:#858fa9"/><path d="M276,176.61c0,.68.22,1.32.23,2a15.7,15.7,0,0,0,.44,2.43c.15.81,1.27.53,1.34-.18a7.27,7.27,0,0,0-.31-2.45c-.16-.66-.48-1.3-.61-2s-1.1-.47-1.09.15Z" style="fill:#858fa9"/><path d="M270.33,281.22a5.8,5.8,0,0,1,.32,2.34,4.45,4.45,0,0,0,.22,1.06,8.28,8.28,0,0,1,.1,1.5.6.6,0,0,0,1.19,0,6.66,6.66,0,0,0-.09-1.48,8.09,8.09,0,0,1-.37-1.34,6.24,6.24,0,0,0-.5-2.45c-.22-.49-1.07-.13-.87.37Z" style="fill:#858fa9"/><path d="M267.85,191.49a20.07,20.07,0,0,0,1.16,3.29c.41.68,1.6.23,1.32-.56A20,20,0,0,0,269,191c-.35-.61-1.43-.19-1.17.5Z" style="fill:#858fa9"/><path d="M218.6,231.66c4-5.13,7.45-9.89,11.17-15.19s6.51-9.51,6.24-15.33c-.14-3.15-1-8.32,3.2-4.47.67-2.4,1.37-2.55,3.31-1.16.35-1.21,1.81-1,2.46-.15.24-1.19.78-3.87,2.51-3.45s1.73,3.5,1.7,4.76c.16-1.09.05-3.18,1.57-3.31,1.76-.14,1.71,2.29,1.68,3.46,1.75-1.89,2.73-1.22,2.87,0s-.63,3.39-1.21,5.13c-1,3-1.52,8.63-2.66,11.51-2.93,7.47-10,10.76-16.75,14.25-3.85,2-10.67,6.1-15.34,5-.13.29-.3.34-.46.57-.27-.13,0-.23-.14-.45Z" style="fill:#ffa348"/><path d="M255.76,196.4c-.75-2.13-2-2-3-1-.4.44.65-2.68-1.17-2.76a2.33,2.33,0,0,0-2.1,1.2c-.6.91.69-2.56-1.78-3.24-1.63-.45-2.42,1.23-2.89,2.48-.13.36-.24.73-.35,1.11a2,2,0,0,0-1.31-.16.92.92,0,0,0-.85.91c-.05.51-.81-1.41-2-1s-1.1.69-1.21,1.58c-.07.53-1.58-2.63-3.5-.95-.8.7-.18,2.71-.09,3.55a32.39,32.39,0,0,1,.06,7c0,.13.19.15.22,0a22.39,22.39,0,0,0,.45-5.54c0-1-.14-1.94-.19-2.91.52-1.54,2-1,2.48.24.29.58.47.76.67.82.4.11,1-.12.89-.61-.15-.7-.4-1.71-.07-1.95a1.53,1.53,0,0,1,1.59.17,3.51,3.51,0,0,1,.78,1.26.27.27,0,0,0,.53-.07,2.66,2.66,0,0,0,0-.89c-.09-.82.69-.86,1.35-.59-.8,3.2-.93,6.72-1.53,9.88-.82,4.27-2.24,8.44-2.89,12.73a.23.23,0,0,0,.44.12,150.09,150.09,0,0,0,3.86-14.68c.61-2.52,1-5.09,1.6-7.63.22-1,.18-2.39.94-2.88,1.47-.43,1.68.28,1.71,2.2,0,.77,0,1.55.05,2.32a.46.46,0,0,0,.9.14s.14-1,.26-1.37a3.4,3.4,0,0,1,.74-1.7,1.13,1.13,0,0,1,1.38.23,2.88,2.88,0,0,1,.29,2.05c-.05.22-.2,1-.06,1.11s.44-.1.7-.31c.47-.41,1.09-1,1.43-.93a1.68,1.68,0,0,1,1,1.82,11.58,11.58,0,0,1-.75,2.29,22.27,22.27,0,0,0-.8,2.25,67.49,67.49,0,0,0-1.55,6.68.29.29,0,0,0,.57.15c.7-2.48,1-5.11,1.9-7.54C255,200.48,256.34,198.07,255.76,196.4Z" style="fill:#858fa9"/><path d="M287,187.25c-.55-.92-1.38-.34-2.39,1.41a26.74,26.74,0,0,1-3.68,4.59,37.45,37.45,0,0,1-6.09,4.73c-3.56,2.11-5.51,3.73-9.15,4.94a15.39,15.39,0,0,0-4.15,2.23c-.81.48-4.59,2.67-6.1,3.77-3.47,2.53-6.21,4.07-10.06,6.39-7.48,4.5-15,8.6-22.69,12.78-3.33,1.82-6.61,3.72-9.88,5.58a129.23,129.23,0,0,1-12.21,5c-4.1,1.29-8.06,3-12.19,4.24A117,117,0,0,1,175,245.59a167.27,167.27,0,0,1-21.88,2.61c-4,.21-10,.51-14,.44-4.59-.08-20.75-1.2-24.12-1.89-3.89-.78-8-.94-11.76-2.25s-7.84-2-11.7-3.23a95.79,95.79,0,0,1-13.51-5.68c-1.83-.92-6.07-3.26-7.33-3.93l-7.54-5.95c-.69-.75-4.28-4-7.12-6.82-3.21-3.19-5.73-4.83-7-6-.57-.54-1.4.32-.86.89,2.4,2.53,5.85,5.93,8.42,8.3,1.88,1.74,3.4,2.76,4.83,4.37a56.57,56.57,0,0,0,5.47,4.9c3.2,2.75,6.29,5.63,9.48,8.4,3.64,3.17,7.54,6,11.13,9.26a240,240,0,0,0,19.64,15.78c3.2,2.32,12.73,8.85,14.21,9.78a52.61,52.61,0,0,0,6.13,3c6.83,3.16,13.38,7.82,41.57,5.47,24.38-2,37.44-13.93,47.3-20.9,16.85-11.89,22.11-21.15,26.12-25.83,3.49-4.06,7.4-10.16,10.6-14.22,1.9-2.42,5.27-7.42,7.11-9.87,1.16-1.55,3.38-4.54,4.93-6.48a46.71,46.71,0,0,0,11.8-6.34,35.72,35.72,0,0,0,6.58-5.95C285.21,191.55,287.76,188.54,287,187.25Z" style="fill:#2a9cc8"/><path d="M171.29,327.21c3.3,1.65,7.19,1.25,10.45.29,4.2-1.23,6.32-2.77,9.72-5.66,1.72-1.46,4.07-3.15,5-5.58a5.05,5.05,0,0,0,0-3c-.15-.4-1.52-3-2,.54a11.75,11.75,0,0,1-4.41,6.86,22.48,22.48,0,0,1-8,4.44c-3.77,1-9.68-.52-11.07-5.93-.06-.25-2.41.68-2.5,2.83A5.17,5.17,0,0,0,171.29,327.21Z" style="fill:#ffa348"/><path d="M205.61,329.43a3.49,3.49,0,0,0,1.78,2.46c2.09,1.33,6,1.1,8.16,1.09,4.11,0,7.37-3.81,6.42-8.63-.05-.29-.75.57-.77.86-.07,1.2.13,2.89-.92,3.78.14-.12.57-.2,0-.06-1.3.36-2.49,1.35-3.86,1.7-3.47.89-7.33-2.47-9.68-5.59a9.09,9.09,0,0,0-1.05,1.45A19,19,0,0,0,205.61,329.43Z" style="fill:#ffa348"/><path d="M187.87,311.6c-2.37.52-4.66,1.35-7,1.87-3.5.77-7.15,1.94-9.94,4.32-1.78,1.51-3.16,3.41-1.66,5.62,1.3,1.94,5.07,3.18,7.24,3.1a24.67,24.67,0,0,0,17.36-8.61c1.38-1.61,3.21-3.51,2.11-5.61C195,310.53,192.53,310.6,187.87,311.6Z" style="fill:#fcc18b"/><path d="M222,319.84c0-2.4.2-6.29-1.72-8.17a4.65,4.65,0,0,0-5.63-.52c-.12.08-1.14,1-1.43,1.22-2.62,2.37-4.56,6.09-6.17,9.19-.93,1.79-2.11,5.35-.91,7.19,1.6,2.46,4.89,2.25,7.48,2.49s5.7-.6,7.26-2.69C222.91,325.88,222.05,322.91,222,319.84Z" style="fill:#fcc18b"/><path d="M179.27,314.3c.6-.24-.1-1.92-.77-2.48-1.15-1-2.77-.07-3.75.61-1.2.83-1.51,3.53-1.59,4.85a17.78,17.78,0,0,0,.62,6.37.69.69,0,0,0,1.25.16c1.35-2,2-4,4.66-4.56a4.4,4.4,0,0,1,2.15.08,2.92,2.92,0,0,1,1.49,2.22c.33,1,.11,1.56.72,2.37a.52.52,0,0,0,1-.26c.15-2.72-.5-5.88-3.62-6.27a7.3,7.3,0,0,0-4.15,1.34,15.12,15.12,0,0,0-2.37,3c-.29.43,0-1.64.1-3.2a25.57,25.57,0,0,1,.45-3,3.77,3.77,0,0,1,1.12-2.21c.64-.57,1.45-.35,2.07.65C178.78,314.12,178.78,314.49,179.27,314.3Z" style="fill:#414355"/><path d="M207.36,324.08c2.95-3,2.91,2.3,3.73,3.58a1,1,0,0,0,1.61.2c.93-1.13,1.3-2.61,2.07-3.87,1-1.62,3.89-3.08,5.23-.9.61,1,.44,2.12.87,3.19.16.39.83.39.79-.11-.14-2.22.18-6.19-3.3-6.21a6.33,6.33,0,0,0-4.41,1.69,8.1,8.1,0,0,0-1.81,3.19c-.24.57.14-1.8-1.7-3-1.54-1-3,.59-3.58,1.85-.15.32.23.66.5.39Z" style="fill:#414355"/></svg>