<?xml version="1.0" encoding="UTF-8" standalone="no"?>
<!-- Created with Inkscape (http://www.inkscape.org/) -->

<svg
   xmlns:dc="http://purl.org/dc/elements/1.1/"
   xmlns:cc="http://creativecommons.org/ns#"
   xmlns:rdf="http://www.w3.org/1999/02/22-rdf-syntax-ns#"
   xmlns:svg="http://www.w3.org/2000/svg"
   xmlns="http://www.w3.org/2000/svg"
   xmlns:sodipodi="http://sodipodi.sourceforge.net/DTD/sodipodi-0.dtd"
   xmlns:inkscape="http://www.inkscape.org/namespaces/inkscape"
   width="170.25069mm"
   height="185.08797mm"
   viewBox="0 0 170.25069 185.08797"
   version="1.1"
   id="svg1022"
   inkscape:version="0.92.2 (5c3e80d, 2017-08-06)"
   sodipodi:docname="girl-thinking.svg">
  <defs
     id="defs1016">
    <clipPath
       clipPathUnits="userSpaceOnUse"
       id="clipPath1605">
      <path
         style="fill:#ffbb9e;fill-opacity:1;stroke:none;stroke-width:0.26458332px;stroke-linecap:butt;stroke-linejoin:miter;stroke-opacity:1"
         d="m -98.087913,82.783471 c 0,0 1.202711,12.695301 0.534535,14.031648 -0.668173,1.336347 -2.138156,6.280841 -2.271789,8.151721 -0.133631,1.87089 2.806332,7.48355 3.474503,9.75534 0.668176,2.27179 -0.267269,8.01809 -0.267269,8.01809 l 20.17885,-0.26727 -1.737254,-6.94901 c 0,0 5.211757,-7.21628 5.879931,-10.15624 0.668173,-2.93997 2.138156,-6.147206 2.00452,-9.755345 -0.133636,-3.608139 -0.534538,-3.073596 0.267269,-7.349911 0.801809,-4.276312 0.267271,-6.013566 0.267271,-6.013566 z"
         id="path1607"
         inkscape:connector-curvature="0" />
    </clipPath>
    <clipPath
       clipPathUnits="userSpaceOnUse"
       id="clipPath1786">
      <path
         sodipodi:nodetypes="csszcssccccsssszscscscscsccscc"
         inkscape:connector-curvature="0"
         id="path1788"
         d="m 101.02214,116.78105 c 0,0 1.88988,12.28423 4.53572,22.11161 2.64583,9.82738 16.44197,27.78125 21.92263,27.97024 5.48065,0.18899 14.93435,-24.10634 16.06399,-28.5372 1.12964,-4.43086 3.01417,-19.57883 7.9375,-25.89137 0.94494,-0.75595 13.22916,-3.59077 16.63095,2.45684 3.40178,6.04762 5.29166,8.88244 6.80357,34.39583 1.51191,25.5134 -3.02381,51.97173 -4.34673,54.61756 -1.32291,2.64584 -12.47321,4.91369 -12.47321,4.91369 l -46.1131,2.07887 c 0,0 5.48066,-6.80357 5.66964,-9.4494 0.18899,-2.64584 28.91518,-7.9375 31.18304,-10.01637 2.26786,-2.07887 9.25064,-22.37926 10.11595,-32.99464 0.87242,-10.70255 -2.82138,27.47599 -14.34966,29.55486 -5.76414,1.03944 -12.84048,-2.14016 -16.06607,-2.06589 -2.96074,0.0682 -14.9045,4.37541 -20.51609,2.78942 -5.61159,-1.58599 7.17599,5.36208 6.98699,9.51982 -0.18899,4.15774 -7.55952,13.98511 -9.82738,15.11904 -2.26785,1.13393 -14.741061,-5.85862 -17.764872,-13.41815 -3.02381,-7.55952 -3.02381,-10.01637 -2.45685,-16.44196 0.56697,-6.4256 0.377981,-11.71726 -0.56696,-15.875 -0.94494,-4.15774 -3.968752,-22.86756 -4.535712,-25.13542 -0.566968,-2.26786 1.889882,-0.94494 5.669642,-1.70089 3.779761,-0.75595 7.087056,-4.06324 7.087056,-4.06324 0,0 1.089054,6.88123 3.118305,12.94568 16.465221,49.20667 4.302891,9.50691 -0.566971,-5.48066 -1.249291,-4.40687 -1.676167,-7.25461 -3.496275,-6.61459 -3.296542,1.22094 -1.417416,-2.36235 -3.685276,-8.03199 -2.26786,-5.66964 -4.913691,-8.59895 -4.913691,-8.59895 0,0 17.197914,-4.15774 17.953864,-4.15774 z"
         style="fill:#fcfcfc;fill-opacity:1;stroke:none;stroke-width:0.26458332px;stroke-linecap:butt;stroke-linejoin:miter;stroke-opacity:1" />
    </clipPath>
  </defs>
  <sodipodi:namedview
     id="base"
     pagecolor="#ffffff"
     bordercolor="#666666"
     borderopacity="1.0"
     inkscape:pageopacity="0.0"
     inkscape:pageshadow="2"
     inkscape:zoom="0.7"
     inkscape:cx="-418.8619"
     inkscape:cy="285.84192"
     inkscape:document-units="mm"
     inkscape:current-layer="layer1"
     showgrid="false"
     inkscape:snap-nodes="true"
     inkscape:window-width="1920"
     inkscape:window-height="1001"
     inkscape:window-x="-9"
     inkscape:window-y="-9"
     inkscape:window-maximized="1" />
  <metadata
     id="metadata1019">
    <rdf:RDF>
      <cc:Work
         rdf:about="">
        <dc:format>image/svg+xml</dc:format>
        <dc:type
           rdf:resource="http://purl.org/dc/dcmitype/StillImage" />
        <dc:title />
      </cc:Work>
    </rdf:RDF>
  </metadata>
  <g
     inkscape:label="Calque 1"
     inkscape:groupmode="layer"
     id="layer1"
     transform="translate(-24.588799,-36.939983)">
    <g
       id="g1763"
       transform="translate(133.10022,191.89952)" />
    <g
       id="g1820"
       inkscape:export-xdpi="90"
       inkscape:export-ydpi="90">
      <path
         style="opacity:1;vector-effect:none;fill:#ececec;fill-opacity:1;stroke:none;stroke-width:1.66499996;stroke-linecap:round;stroke-linejoin:bevel;stroke-miterlimit:4;stroke-dasharray:none;stroke-dashoffset:0;stroke-opacity:1;paint-order:markers stroke fill"
         id="path1635"
         sodipodi:type="arc"
         sodipodi:cx="-23.519714"
         sodipodi:cy="-64.348404"
         sodipodi:rx="84.991707"
         sodipodi:ry="84.991707"
         sodipodi:start="0.32175145"
         sodipodi:end="0.14707837"
         sodipodi:open="true"
         d="M 57.110474,-37.471594 A 84.991707,84.991707 0 0 1 -46.85104,17.37821 84.991707,84.991707 0 0 1 -106.18693,-84.089762 84.991707,84.991707 0 0 1 -7.4059628,-147.79861 84.991707,84.991707 0 0 1 60.554376,-51.892982"
         transform="translate(133.10022,191.89952)"
         inkscape:export-xdpi="90"
         inkscape:export-ydpi="90" />
      <path
         style="fill:none;stroke:#000000;stroke-width:1.16499996;stroke-linecap:butt;stroke-linejoin:miter;stroke-miterlimit:4;stroke-dasharray:1.165, 9.32;stroke-dashoffset:0;stroke-opacity:1"
         d="M -58.799297,-154.6855 35.814111,22.781465"
         id="path1712"
         inkscape:connector-curvature="0"
         transform="translate(133.10022,191.89952)"
         inkscape:export-xdpi="90"
         inkscape:export-ydpi="90" />
      <path
         style="opacity:1;vector-effect:none;fill:#ffb600;fill-opacity:1;stroke:none;stroke-width:0.32462272;stroke-linecap:round;stroke-linejoin:bevel;stroke-miterlimit:4;stroke-dasharray:none;stroke-dashoffset:0;stroke-opacity:1;paint-order:markers stroke fill"
         id="path1635-6-6-1"
         sodipodi:type="arc"
         sodipodi:cx="45.168549"
         sodipodi:cy="-107.3788"
         sodipodi:rx="16.570717"
         sodipodi:ry="16.570717"
         sodipodi:start="0.32175145"
         sodipodi:end="0.14707837"
         sodipodi:open="true"
         d="m 60.888906,-102.13866 a 16.570717,16.570717 0 0 1 -20.269234,10.693987 16.570717,16.570717 0 0 1 -11.568638,-19.783077 16.570717,16.570717 0 0 1 19.259191,-12.42122 16.570717,16.570717 0 0 1 13.250134,18.69859"
         transform="translate(133.10022,191.89952)"
         inkscape:export-xdpi="90"
         inkscape:export-ydpi="90" />
      <path
         style="opacity:1;vector-effect:none;fill:none;fill-opacity:1;stroke:#2d2000;stroke-width:0.86207384;stroke-linecap:round;stroke-linejoin:bevel;stroke-miterlimit:4;stroke-dasharray:none;stroke-dashoffset:0;stroke-opacity:1;paint-order:markers stroke fill"
         id="path1635-6-6-18-1"
         sodipodi:type="arc"
         sodipodi:cx="45.703308"
         sodipodi:cy="-49.114101"
         sodipodi:rx="8.1393499"
         sodipodi:ry="8.1393499"
         sodipodi:start="0.32175145"
         sodipodi:end="0.14707837"
         sodipodi:open="true"
         d="m 53.424971,-46.540206 a 8.1393499,8.1393499 0 0 1 -9.95602,5.252768 8.1393499,8.1393499 0 0 1 -5.682385,-9.717222 8.1393499,8.1393499 0 0 1 9.459898,-6.101168 8.1393499,8.1393499 0 0 1 6.508317,9.184538"
         transform="translate(133.10022,191.89952)"
         inkscape:export-xdpi="90"
         inkscape:export-ydpi="90" />
      <path
         style="opacity:1;vector-effect:none;fill:#343434;fill-opacity:1;stroke:none;stroke-width:0.33509439;stroke-linecap:round;stroke-linejoin:bevel;stroke-miterlimit:4;stroke-dasharray:none;stroke-dashoffset:0;stroke-opacity:1;paint-order:markers stroke fill"
         id="path1635-6"
         sodipodi:type="arc"
         sodipodi:cx="-76.439087"
         sodipodi:cy="-131.70032"
         sodipodi:rx="17.105255"
         sodipodi:ry="17.105255"
         sodipodi:start="0.32175145"
         sodipodi:end="0.14707837"
         sodipodi:open="true"
         d="m -60.211622,-126.29115 a 17.105255,17.105255 0 0 1 -20.923079,11.03896 17.105255,17.105255 0 0 1 -11.941819,-20.42123 17.105255,17.105255 0 0 1 19.880453,-12.82191 17.105255,17.105255 0 0 1 13.677558,19.30177"
         transform="translate(133.10022,191.89952)"
         inkscape:export-xdpi="90"
         inkscape:export-ydpi="90" />
      <path
         style="opacity:1;vector-effect:none;fill:#ffb600;fill-opacity:1;stroke:none;stroke-width:0.2041982;stroke-linecap:round;stroke-linejoin:bevel;stroke-miterlimit:4;stroke-dasharray:none;stroke-dashoffset:0;stroke-opacity:1;paint-order:markers stroke fill"
         id="path1635-6-6"
         sodipodi:type="arc"
         sodipodi:cx="-88.198944"
         sodipodi:cy="-63.279324"
         sodipodi:rx="10.423517"
         sodipodi:ry="10.423517"
         sodipodi:start="0.32175145"
         sodipodi:end="0.14707837"
         sodipodi:open="true"
         d="m -78.31033,-59.983109 a 10.423517,10.423517 0 0 1 -12.750005,6.726867 10.423517,10.423517 0 0 1 -7.277047,-12.444193 10.423517,10.423517 0 0 1 12.114654,-7.813354 10.423517,10.423517 0 0 1 8.334763,11.762018"
         transform="translate(133.10022,191.89952)"
         inkscape:export-xdpi="90"
         inkscape:export-ydpi="90" />
      <path
         style="opacity:1;vector-effect:none;fill:none;fill-opacity:1;stroke:#2d2000;stroke-width:1.10399997;stroke-linecap:round;stroke-linejoin:bevel;stroke-miterlimit:4;stroke-dasharray:none;stroke-dashoffset:0;stroke-opacity:1;paint-order:markers stroke fill"
         id="path1635-6-6-18"
         sodipodi:type="arc"
         sodipodi:cx="-86.060791"
         sodipodi:cy="-75.039185"
         sodipodi:rx="10.423517"
         sodipodi:ry="10.423517"
         sodipodi:start="0.32175145"
         sodipodi:end="0.14707837"
         sodipodi:open="true"
         d="m -76.172177,-71.74297 a 10.423517,10.423517 0 0 1 -12.750005,6.726867 10.423517,10.423517 0 0 1 -7.277047,-12.444193 10.423517,10.423517 0 0 1 12.114654,-7.813354 10.423517,10.423517 0 0 1 8.334763,11.762018"
         transform="translate(133.10022,191.89952)"
         inkscape:export-xdpi="90"
         inkscape:export-ydpi="90" />
      <g
         transform="translate(0,8.5526249)"
         id="g1754"
         inkscape:export-xdpi="90"
         inkscape:export-ydpi="90">
        <path
           style="fill:#ffbb9e;fill-opacity:1;stroke:none;stroke-width:0.26458332px;stroke-linecap:butt;stroke-linejoin:miter;stroke-opacity:1"
           d="m 115.19317,107.90681 c 0,0 1.20271,12.6953 0.53454,14.03165 -0.66818,1.33634 -2.13816,6.28083 -2.2718,8.15171 -0.13363,1.87089 1.20272,6.94901 1.87089,9.2208 0.66818,2.27179 1.33635,8.55263 1.33635,8.55263 l 10.7576,1.87089 9.42125,-2.13816 0.80181,-8.68626 c 0,0 2.67269,-5.47903 3.34087,-8.41899 0.66817,-2.93997 2.13815,-6.1472 2.00452,-9.75534 -0.13364,-3.60814 -0.53454,-3.07359 0.26727,-7.34991 0.80181,-4.27631 0.26727,-6.01356 0.26727,-6.01356 z"
           id="path1586"
           inkscape:connector-curvature="0"
           sodipodi:nodetypes="cssscccccsscc"
           inkscape:export-xdpi="90"
           inkscape:export-ydpi="90" />
        <path
           style="fill:#f4f1f1;fill-opacity:1;stroke:none;stroke-width:0.26458332px;stroke-linecap:butt;stroke-linejoin:miter;stroke-opacity:1"
           d="m 93.974243,130.76779 -6.76558,2.79847 14.191467,45.1151 c 0,0 11.71726,-2.83482 11.33928,-4.7247 -0.37797,-1.88988 -18.765167,-43.18887 -18.765167,-43.18887 z"
           id="path1613"
           inkscape:connector-curvature="0"
           sodipodi:nodetypes="ccccc"
           inkscape:export-xdpi="90"
           inkscape:export-ydpi="90" />
        <path
           style="fill:#ffbb9e;fill-opacity:1;stroke:none;stroke-width:0.26458332px;stroke-linecap:butt;stroke-linejoin:miter;stroke-opacity:1"
           d="m 115.59407,115.12309 c 0,0 -14.43255,3.20723 -14.69983,4.00904 -0.26727,0.8018 5.3454,24.32152 7.34992,28.33056 2.00452,4.00904 16.43707,22.18337 19.2434,21.78247 2.80633,-0.40091 13.22985,-15.368 15.90254,-26.59332 2.6727,-11.22532 5.7463,-24.18789 5.7463,-24.18789 l -7.48355,-3.74177 z"
           id="path1609"
           inkscape:connector-curvature="0"
           inkscape:export-xdpi="90"
           inkscape:export-ydpi="90" />
        <path
           style="fill:#ffb393;fill-opacity:1;stroke:none;stroke-width:0.26458332px;stroke-linecap:butt;stroke-linejoin:miter;stroke-opacity:1"
           d="m 146.21254,105.77402 c 0,0 1.33635,0.93545 3.0736,-0.13363 1.73725,-1.06908 4.67722,-2.6727 4.81085,-4.14268 0.13363,-1.46998 2.53906,-4.810849 1.20271,-6.5481 -1.33634,-1.737255 -3.34087,-2.271792 -4.14267,-1.737255 -0.80181,0.534541 -4.94449,12.561665 -4.94449,12.561665 z"
           id="path1584"
           inkscape:connector-curvature="0"
           inkscape:export-xdpi="90"
           inkscape:export-ydpi="90" />
        <path
           style="fill:#ffb393;fill-opacity:1;stroke:none;stroke-width:0.26458332px;stroke-linecap:butt;stroke-linejoin:miter;stroke-opacity:1"
           d="m 115.99497,83.718915 c 0,0 -1.87088,-3.073598 -3.60814,-2.271789 -1.73725,0.801809 -1.20271,0 -1.60361,3.608139 -0.40091,3.608139 -0.93545,5.879928 0.13363,8.018084 1.06908,2.138156 1.46998,3.608139 2.80634,3.608139 1.33634,0 1.33634,-3.875408 1.87088,-6.815373 0.53454,-2.939965 0.4009,-6.1472 0.4009,-6.1472 z"
           id="path1582"
           inkscape:connector-curvature="0"
           inkscape:export-xdpi="90"
           inkscape:export-ydpi="90" />
        <path
           style="fill:#ffa883;fill-opacity:0.38511329;stroke:none;stroke-width:0.26458332px;stroke-linecap:butt;stroke-linejoin:miter;stroke-opacity:1"
           d="m -103.29967,88.262499 c 0,0 12.865297,9.387807 20.335412,18.586361 7.470114,9.19854 10.930703,5.47196 13.130935,-4.56421 1.256853,-5.733024 4.352291,-21.104796 4.352291,-21.104796 0,0 -11.091686,-5.746295 -12.695304,-5.746295 -1.603616,0 -16.570711,0.267272 -16.570711,0.267272 z"
           id="path1588"
           inkscape:connector-curvature="0"
           clip-path="url(#clipPath1605)"
           sodipodi:nodetypes="czscscc"
           transform="translate(213.28108,25.123336)"
           inkscape:export-xdpi="90"
           inkscape:export-ydpi="90" />
        <path
           style="fill:#c7c7c7;fill-opacity:1;stroke:none;stroke-width:0.26458332px;stroke-linecap:butt;stroke-linejoin:miter;stroke-opacity:1"
           d="m 78.911333,107.83999 33.275047,-6.28083 1.20272,0.0668 1.33635,0.4009 -2.20498,1.40317 -33.475507,6.28083 z"
           id="path1619"
           inkscape:connector-curvature="0"
           inkscape:export-xdpi="90"
           inkscape:export-ydpi="90" />
        <path
           style="opacity:1;fill:#ffbb9e;fill-opacity:1;stroke:none;stroke-width:0.26458332px;stroke-linecap:butt;stroke-linejoin:miter;stroke-opacity:1"
           d="m 121.474,73.562675 c -2.13816,4.944486 -4.54358,8.552625 -5.34539,10.022607 -0.80181,1.469983 -1.33635,2.138156 -1.60362,5.211755 -0.26727,3.073601 0.26727,3.207234 0,6.414468 -0.26727,3.207234 -1.60362,7.082645 -1.20271,8.819895 0.40091,1.73725 3.20724,9.75534 4.94449,11.49259 1.73725,1.73725 2.27179,2.27179 7.08264,3.4745 4.81085,1.20272 9.6217,0.40091 12.82893,-1.73725 3.20724,-2.13815 9.35444,-10.95805 10.28988,-12.2944 0.93545,-1.33634 2.53906,-5.879925 3.20724,-8.151717 0.66817,-2.271791 2.80633,-9.220797 3.0736,-11.893494 0.26726,-2.672694 1.60361,-7.884451 -0.93545,-11.225321 -2.53906,-3.340867 -2.53906,-6.147196 -10.0226,-8.819893 -7.48355,-2.672696 -10.28988,-3.608139 -12.96258,-1.870887 -2.67269,1.737251 -7.75081,7.750818 -9.35443,10.557147 z"
           id="path1578"
           inkscape:connector-curvature="0"
           inkscape:export-xdpi="90"
           inkscape:export-ydpi="90" />
        <path
           style="fill:#f8f8f8;fill-opacity:1;stroke:none;stroke-width:0.26458332px;stroke-linecap:butt;stroke-linejoin:miter;stroke-opacity:1"
           d="m 110.47156,180.19327 -4.34673,5.66964 3.2128,11.52827 9.82738,8.88244 37.60863,-11.52827 4.36803,-50.23841 -28.18053,33.22948 z"
           id="path1615"
           inkscape:connector-curvature="0"
           sodipodi:nodetypes="cccccccc"
           inkscape:export-xdpi="90"
           inkscape:export-ydpi="90" />
        <path
           style="fill:#ffbb9e;fill-opacity:1;stroke:none;stroke-width:0.26458332px;stroke-linecap:butt;stroke-linejoin:miter;stroke-opacity:1"
           d="m 117.77383,201.50077 c 0,0 -1.70089,0.0945 -2.92931,-0.47247 -1.22842,-0.56697 -6.04762,1.88988 -6.4256,3.68526 -0.37797,1.79539 -3.77976,4.63021 -4.25223,5.57515 -0.47247,0.94494 8.032,0.66146 8.88244,0.37798 0.85045,-0.28348 5.48066,-4.8192 5.48066,-4.8192 z"
           id="path1621"
           inkscape:connector-curvature="0"
           sodipodi:nodetypes="cscsscc"
           inkscape:export-xdpi="90"
           inkscape:export-ydpi="90" />
        <path
           style="fill:#fcfcfc;fill-opacity:1;stroke:none;stroke-width:0.26458332px;stroke-linecap:butt;stroke-linejoin:miter;stroke-opacity:1"
           d="m 101.02215,116.78105 c 0,0 1.88988,12.28423 4.53572,22.11161 2.64583,9.82738 16.44196,27.78125 21.92262,27.97024 5.48065,0.18899 14.93435,-24.10634 16.06399,-28.5372 1.12964,-4.43086 3.01417,-19.57883 7.9375,-25.89137 0.94494,-0.75595 13.22916,-3.59077 16.63095,2.45684 3.40178,6.04762 5.29166,8.88244 6.80357,34.39583 1.51191,25.5134 -3.02381,51.97173 -4.34673,54.61756 -1.32291,2.64584 -12.47321,4.91369 -12.47321,4.91369 l -46.11309,2.07887 c 0,0 5.48065,-6.80357 5.66964,-9.4494 0.18899,-2.64584 28.91517,-7.9375 31.18303,-10.01637 2.26786,-2.07887 9.25064,-22.37926 10.11595,-32.99464 0.87242,-10.70255 -2.82138,27.47599 -14.34966,29.55486 -5.76414,1.03944 -12.84048,-2.14016 -16.06607,-2.06589 -2.96074,0.0682 -14.90449,4.37541 -20.51608,2.78942 -5.61159,-1.58599 7.17598,5.36208 6.98699,9.51982 -0.18899,4.15774 -7.55952,13.98511 -9.82738,15.11904 -2.26785,1.13393 -14.741067,-5.85862 -17.764877,-13.41815 -3.02381,-7.55952 -3.02381,-10.01637 -2.45685,-16.44196 0.56697,-6.4256 0.37798,-11.71726 -0.56696,-15.875 -0.94494,-4.15774 -3.96875,-22.86756 -4.53571,-25.13542 -0.56697,-2.26786 1.88988,-0.94494 5.66964,-1.70089 3.77976,-0.75595 7.087056,-4.06324 7.087056,-4.06324 0,0 1.089054,6.88123 3.118304,12.94568 16.465217,49.20667 4.302897,9.50691 -0.56697,-5.48066 -1.249292,-4.40687 -1.676168,-7.25461 -3.496276,-6.61459 -3.29654,1.22094 -1.417414,-2.36235 -3.685274,-8.03199 -2.26786,-5.66964 -4.91369,-8.59895 -4.91369,-8.59895 0,0 17.197917,-4.15774 17.953867,-4.15774 z"
           id="path1611"
           inkscape:connector-curvature="0"
           sodipodi:nodetypes="csszcssccccsssszscscscscsccscc"
           inkscape:export-xdpi="90"
           inkscape:export-ydpi="90" />
        <path
           style="fill:#343434;fill-opacity:1;stroke:none;stroke-width:0.26458332px;stroke-linecap:butt;stroke-linejoin:miter;stroke-opacity:1"
           d="m 143.12283,68.217285 c 0,0 -6.4838,3.210721 -12.82894,3.474502 -6.34514,0.263782 -9.27101,3.705418 -10.86356,6.506181 -1.59255,2.800763 -3.8633,6.596798 -3.76003,8.641828 0.14726,2.91599 -3.28365,-1.394699 -3.68437,-4.858133 -0.6678,-2.650555 0.15747,-8.283973 1.04615,-12.282117 0.88868,-3.998144 5.27281,-8.186989 9.50986,-12.150114 2.12668,-1.611003 2.92156,-1.725482 2.26248,-7.028301 -0.67735,-5.449757 3.78929,-7.2398 9.48116,-7.417685 5.69187,-0.177886 10.05757,2.8044 10.73798,6.405274 0.68041,3.600874 -2.05719,6.483988 0.11885,7.176833 4.35209,1.385691 12.34961,11.369425 12.61376,19.962045 0.19453,8.972281 -1.01094,14.057836 -1.04058,17.118007 -0.0198,2.039751 2.30978,9.330355 1.50797,12.804855 -0.80181,3.4745 -0.13363,5.87993 -3.0736,8.68626 -2.93996,2.80633 -6.01356,3.20723 -6.01356,3.20723 0,0 6.28083,-4.40994 6.81537,-6.81537 0.53454,-2.40543 1.60362,-4.40995 0.26727,-7.21627 -1.33635,-2.80634 -3.34087,-3.74178 -3.87541,-7.082649 -0.53454,-3.340867 0.13364,-9.888971 -2.00452,-15.635266 -2.13816,-5.746295 -7.08264,-9.354434 -10.55715,-9.220798 -3.4745,0.133633 3.34087,-4.276312 3.34087,-4.276312 z"
           id="path1580"
           inkscape:connector-curvature="0"
           sodipodi:nodetypes="czzsczcsssscsssccscssc"
           inkscape:export-xdpi="90"
           inkscape:export-ydpi="90" />
        <path
           style="fill:#ffbb9e;fill-opacity:1;stroke:none;stroke-width:0.26458332px;stroke-linecap:butt;stroke-linejoin:miter;stroke-opacity:1"
           d="m 91.761733,138.52139 c 0,0 0.28349,-6.14211 -0.0945,-8.31547 -0.37797,-2.17336 -4.06324,-6.89806 -4.53571,-7.46503 -0.47247,-0.56696 1.5119,-0.47247 0.66145,-1.79538 -0.85044,-1.32292 -1.60639,-2.07887 0.37798,-2.55134 1.98438,-0.47247 1.79539,0.0945 2.07887,-1.13393 0.28348,-1.22842 -4.53571,-3.59078 -5.76414,-3.59078 -1.22842,0 -5.38616,-0.18898 -5.38616,-0.18898 0,0 2.07887,-1.51191 3.59078,-1.41741 1.5119,0.0945 2.64583,0.37797 3.68526,-0.66146 1.03944,-1.03944 1.41741,-1.79539 0.18899,-2.26786 -1.22842,-0.47247 -6.52009,-1.22842 -8.03199,-0.56696 -1.5119,0.66146 -5.10268,2.64583 -5.10268,2.64583 l 6.14212,-3.68527 c 0,0 0.94493,-1.03943 -0.0945,-1.88988 -1.03944,-0.85045 -4.63021,0 -5.29167,0.28348 -0.66146,0.28349 -7.18154,3.87426 -7.46503,5.10268 -0.28348,1.22842 -2.26785,13.13467 -1.41741,14.36309 0.85045,1.22842 10.11087,9.92188 11.62277,12.37872 1.5119,2.45685 4.34673,4.44122 4.34673,4.44122 0,0 4.12944,0.37302 5.95312,-0.28348 1.82369,-0.6565 4.53572,-3.40179 4.53572,-3.40179 z"
           id="path1617"
           inkscape:connector-curvature="0"
           sodipodi:nodetypes="cccccssccccscccccccczc"
           inkscape:export-xdpi="90"
           inkscape:export-ydpi="90" />
        <path
           style="fill:none;stroke:#ffb600;stroke-width:0.86500001;stroke-linecap:butt;stroke-linejoin:miter;stroke-miterlimit:4;stroke-dasharray:none;stroke-opacity:1"
           d="m 115.19317,114.98945 c 0,0 2.96766,14.13934 9.6217,15.7689 6.65404,1.62957 18.70886,-15.23436 18.70886,-15.23436"
           id="path1623"
           inkscape:connector-curvature="0"
           sodipodi:nodetypes="czc"
           inkscape:export-xdpi="90"
           inkscape:export-ydpi="90" />
        <path
           sodipodi:nodetypes="cccccccccc"
           clip-path="url(#clipPath1786)"
           inkscape:connector-curvature="0"
           id="path1765"
           d="m 95.816964,115.71225 c 0,0 5.660146,20.63213 7.172046,25.54582 1.49849,6.11963 21.29506,37.27591 28.39014,28.5372 10.50642,-14.45847 15.98103,-29.59228 19.81132,-46.71248 0.75596,-3.40179 4.53572,-14.74107 4.53572,-14.74107 h -6.4256 l -8.88244,22.30059 -14.1741,29.29316 -24.00149,-47.625 z"
           style="fill:#ffb600;fill-opacity:1;stroke:none;stroke-width:0.26458332px;stroke-linecap:butt;stroke-linejoin:miter;stroke-opacity:1"
           inkscape:export-xdpi="90"
           inkscape:export-ydpi="90" />
      </g>
    </g>
  </g>
</svg>
