<svg xmlns="http://www.w3.org/2000/svg" viewBox="0 0 350 350"><path d="M108.35,194.58c-2.15.09-4.29.35-6.43.62a.56.56,0,1,0,.15,1.11c2.09-.28,4.18-.55,6.28-.66.69,0,.7-1.1,0-1.07Z" style="fill:#ffa348"/><path d="M134.53,211.93a.61.61,0,0,0,0-1.21.61.61,0,0,0,0,1.21Z" style="fill:#ffa348"/><path d="M133.82,211v0l0-.22a1.05,1.05,0,0,1,0,.19l0,0v0s0,.07,0,.11a.25.25,0,0,0,0,.12,1.71,1.71,0,0,0,0,.25,0,0,0,0,0,0,0l.07.18a.61.61,0,0,0,.2.22.42.42,0,0,0,.17.1.6.6,0,0,0,.3.07l.21,0,.18-.08a.88.88,0,0,0,.36-.46h0l-.08.18,0,0a.94.94,0,0,0,.1-.23l0-.1,0-.1s0,0,0,0h0a1.66,1.66,0,0,0,0-.22v0a.57.57,0,0,0-.07-.31.51.51,0,0,0-.16-.25.56.56,0,0,0-.26-.17.64.64,0,0,0-.31-.07l-.21,0a.84.84,0,0,0-.35.21l-.13.16a.8.8,0,0,0-.11.4Z" style="fill:#ffa348"/><path d="M188.52,151.89c1.77.07,3.43.18,5.2.26,4.23.19,8.46.54,12.69.35s8.46.12,12.65-.23c3.24-.28,6.56,0,9.71-1a2.72,2.72,0,0,0,1.61-.91c-.87-.87-6.42-1.48-10.28-1.62s-8.08-.5-12.08-.49c-7.36,0-15.78-.3-22.75,1.53-.45.12-1.65.46-1.77,1.06S187.08,151.83,188.52,151.89Z" style="fill:#dcdde0"/><path d="M208.13,165.12a5,5,0,0,1,2.28-3.58,9.56,9.56,0,0,1,6.5-.59c1.28.47,2.35,1.41,3.65,1.88a8.2,8.2,0,0,0,4.6-.25c-.37.69-1.16,1.22-1.13,2.07s.9,1.2,1.11,1.88a30.45,30.45,0,0,1-3.48-.27,13.22,13.22,0,0,0-3.84.47,12.2,12.2,0,0,1-6.9-.12A8.71,8.71,0,0,1,208.13,165.12Z" style="fill:#ffa348"/><path d="M205.1,147.32a3.52,3.52,0,0,0-4.29,3c-.46,1.5.32,4-.65,5.46s-.6,3-.6,4.77c0,1.21-.88,2.1-1.31,3.16a14.09,14.09,0,0,1-.49,2.11c-.45,1.15-1,2.64-2.45,2.62-1,0-1.31-1.11-1.53-2-.1-.39-.19-.78-.28-1.17-.28-1.08-1.05-1.79-1.4-2.78a20.84,20.84,0,0,1-.34-3,2.89,2.89,0,0,0-1.47-2.16c-1.21-.46-1.43.92-1.49,2.25.23,1.66,1.12,3.05,1,4.83-.14,2.08.6,3.07,1.51,4.78,1,1.87.18,3.75.71,6.35a17.55,17.55,0,0,0,2.24,4.78,3.58,3.58,0,0,0,2.15.16A24.44,24.44,0,0,0,199.2,174a20.39,20.39,0,0,1,.89-4.34c.5-1.17,1.18-2.24,1.67-3.41.7-1.64.34-3.45,1-5,.41-1,1.18-1.72,1.61-2.67.8-1.81.08-3.79.85-5.56.47-1.06,1.39-2.4,1.38-3.7A1.84,1.84,0,0,0,205.1,147.32Z" style="fill:#2a9cc8"/><path d="M198.3,152.29c2.64.06,5.28.08,7.92.08a82,82,0,0,0,9.92-.19.3.3,0,0,0,0-.59c-3.3-.18-6.61-.16-9.92-.21-2.64,0-5.28-.1-7.92-.08a.5.5,0,0,0,0,1Z" style="fill:#dcdde0"/><path d="M196.07,142c-1.08,0-2.19-.09-3.27,0a11,11,0,0,0-3.28,1.1,10.48,10.48,0,0,0-4.7,3.48,19.22,19.22,0,0,0-3,6.58,38.15,38.15,0,0,0-1.5,7.33c-.38,4.56-.26,9.83,2.21,13.86a18,18,0,0,0,1.9,2.29A11.21,11.21,0,0,0,187,179c1.78,1.13,3.88,1.47,5.84,2.14a44,44,0,0,0,7.76,1.43,46.61,46.61,0,0,0,5.28.45A58.4,58.4,0,0,0,218,181.92a48.35,48.35,0,0,0,6.57-1.69,11.07,11.07,0,0,0,5.12-3.37,21.57,21.57,0,0,0,2-2.32,14.72,14.72,0,0,0,1.49-3.25,24.7,24.7,0,0,0,1.1-7.3,33.21,33.21,0,0,0-.94-8.19,30.86,30.86,0,0,0-2.52-7.62,10.75,10.75,0,0,0-5.34-5,14.55,14.55,0,0,0-3.5-1.32,17.82,17.82,0,0,0-3.65,0,.55.55,0,0,0,0,1.1c1,.07,1.92.07,2.88.1a8.86,8.86,0,0,1,3,.95,10.29,10.29,0,0,1,5.22,4.29,23.06,23.06,0,0,1,2.35,6.24,40.33,40.33,0,0,1,1.24,7.16c.34,4.17.05,9.46-2.67,12.85a13.47,13.47,0,0,1-4.53,4.1,19.78,19.78,0,0,1-2.9,1c-1,.3-2.05.69-3.1.89A70.09,70.09,0,0,1,208,182a62.56,62.56,0,0,1-10.49-.94,47.81,47.81,0,0,1-5.94-1.37,11.8,11.8,0,0,1-5.44-2.7,15.33,15.33,0,0,1-3.84-5.61,24.55,24.55,0,0,1-1.12-6.71,26.72,26.72,0,0,1,.65-7.51,38.45,38.45,0,0,1,2.27-7.6,10.22,10.22,0,0,1,4.83-5.26,19,19,0,0,1,3.45-1.4,18.36,18.36,0,0,1,3.71-.09.4.4,0,0,0,0-.79Z" style="fill:#fcc18b"/><path d="M285.36,77.17c-.27,1.14-1.42,2.77-1.82,4.14a21.6,21.6,0,0,0-1,6.29c0,5.38,2,10.05,3,15.29,1.57,8.4-3.51,15-3.53,23.28a33.27,33.27,0,0,0,.74,5.74c.54,3.06,2.49,7.18,1.31,10.29" style="fill:none;stroke:#2a9cc8;stroke-miterlimit:10;stroke-width:0.7922280866838008px"/><path d="M310.15,67.36c-.28-.33-1-.28-1-.28L283,67.25s-.87-.14-1.2.33a1.39,1.39,0,0,0-.22,1L286,88.35a3.25,3.25,0,0,0,.3,1c.19.19,1,.14,1,.14h17a2.62,2.62,0,0,0,.93-.19c.28-.18.38-1,.38-1l4.62-19.83S310.38,67.64,310.15,67.36Z" style="fill:#ffa348"/><path d="M275.2,99.44c.51,1.92,5,7.78,6.88,4.38,2.16-3.89-4.61-4.38-6.88-4.38" style="fill:#2a9cc8"/><path d="M292,114.53c.51,1.92,5,7.78,6.88,4.38,2.15-3.89-4.61-4.38-6.88-4.38" style="fill:#2a9cc8"/><path d="M296.55,83.82c-1,1.63-6.26,5.86-6.82,2.27-.65-4.1,5-2.84,6.82-2.27" style="fill:#2a9cc8"/><path d="M294,107.93c-1.21,1.45-7.14,4.75-7.1,1.12,0-4.15,5.39-2,7.1-1.12" style="fill:#2a9cc8"/><path d="M273.93,124.45c-.76,1.58-5.46,5.9-6.4,2.64-1.08-3.73,4.55-3,6.4-2.64" style="fill:#2a9cc8"/><path d="M274.94,131.25c-.65,1.3-4.71,4.84-5.57,2.13-1-3.1,3.95-2.46,5.57-2.13" style="fill:#2a9cc8"/><path d="M283.21,119.32c-1.15,1.62-7.38,5.56-8,1.72-.67-4.4,5.85-2.5,8-1.72" style="fill:#2a9cc8"/><path d="M316.72,90c-.23,2-3.8,8.42-6.17,5.34-2.7-3.53,3.93-5,6.17-5.34" style="fill:#2a9cc8"/><path d="M318.8,128.09c.28,1.42,2.7,5.77,3.72,3.25,1.16-2.89-2.5-3.25-3.72-3.25" style="fill:#2a9cc8"/><path d="M284.56,141.51c0,1.08-1.26,5-2.6,3.64-1.52-1.56,1.55-3.19,2.6-3.64" style="fill:#2a9cc8"/><path d="M273.34,138.48c-.28,1.33-3.14,5.52-4.56,3.25-1.62-2.58,3-3.17,4.56-3.25" style="fill:#2a9cc8"/><path d="M319.36,102.79c.51,1.92,5,7.78,6.88,4.38,2.15-3.89-4.62-4.38-6.88-4.38" style="fill:#2a9cc8"/><path d="M285.67,107.08a27.82,27.82,0,0,0-4.38.18c-1.28.19-3.38,1.76-2.69,3.36,1.29,3,6.25-3.61,7.35-3.54" style="fill:#2a9cc8"/><path d="M290.7,127.76a27.82,27.82,0,0,0-4.38.19c-1.28.18-3.38,1.75-2.69,3.35,1.29,3,6.25-3.61,7.35-3.54" style="fill:#2a9cc8"/><path d="M293.49,145.65a27.92,27.92,0,0,0-4.38.18c-1.28.19-3.38,1.76-2.68,3.36,1.28,3,6.25-3.61,7.34-3.54" style="fill:#2a9cc8"/><path d="M292.93,154.59a27.92,27.92,0,0,0-4.38.19c-1.27.18-3.37,1.75-2.68,3.35,1.28,3,6.25-3.61,7.34-3.54" style="fill:#2a9cc8"/><path d="M315.83,79a26.67,26.67,0,0,0-4.22,1.18c-1.21.47-2.89,2.47-1.85,3.87,1.93,2.61,5.26-4.94,6.34-5.12" style="fill:#2a9cc8"/><path d="M275.82,95a23.58,23.58,0,0,0-3.94.17c-1.15.17-3.05,1.6-2.42,3.06,1.16,2.73,5.63-3.3,6.61-3.23" style="fill:#2a9cc8"/><path d="M271.91,106.15a23.7,23.7,0,0,0-4,.17c-1.15.17-3,1.6-2.42,3.06,1.16,2.73,5.63-3.3,6.62-3.23" style="fill:#2a9cc8"/><path d="M271.35,116.21a23.7,23.7,0,0,0-4,.17c-1.15.17-3,1.6-2.42,3.06,1.16,2.73,5.63-3.3,6.62-3.23" style="fill:#2a9cc8"/><path d="M296.84,98.69a29,29,0,0,0-4.37.19c-1.28.19-3.38,1.75-2.69,3.35,1.29,3,6.25-3.61,7.34-3.54" style="fill:#2a9cc8"/><path d="M290.7,121.05a27.82,27.82,0,0,0-4.38.19c-1.28.19-3.38,1.75-2.69,3.35,1.29,3,6.25-3.61,7.35-3.54" style="fill:#2a9cc8"/><path d="M281.84,127.67a23.9,23.9,0,0,0-3.41,1c-1,.41-2.31,2.07-1.44,3.19,1.62,2.09,4.2-4.11,5.07-4.27" style="fill:#2a9cc8"/><path d="M284.08,137.73a22.37,22.37,0,0,0-3.41,1c-1,.4-2.31,2.06-1.44,3.18,1.61,2.09,4.19-4.11,5.07-4.27" style="fill:#2a9cc8"/><path d="M276.31,86a14.79,14.79,0,0,0-2.9-.21c-.86,0-2.4,1.14-2.1,2.47.56,2.49,4.47-2.39,5.18-2.24" style="fill:#2a9cc8"/><path d="M319.35,126.79a15.6,15.6,0,0,0-2.9-.2c-.86,0-2.4,1.13-2.1,2.47.56,2.49,4.47-2.39,5.18-2.25" style="fill:#2a9cc8"/><path d="M320.88,118.82a27.92,27.92,0,0,0-4.38.18c-1.28.19-3.38,1.76-2.69,3.36,1.29,3,6.26-3.61,7.35-3.54" style="fill:#2a9cc8"/><path d="M295.13,77.69a18.39,18.39,0,0,1,3.4.11c1,.15,2.65,1.54,2.15,3-.94,2.74-4.92-3.2-5.77-3.12" style="fill:#2a9cc8"/><path d="M291.87,158.61a18.77,18.77,0,0,1,3.23,1.06c.91.42,2.11,2.23,1.21,3.5-1.68,2.37-3.82-4.46-4.65-4.61" style="fill:#2a9cc8"/><path d="M320.88,123.47a19.33,19.33,0,0,1,3.4.17c1,.18,2.62,1.61,2.08,3.07-1,2.72-4.85-3.3-5.69-3.24" style="fill:#2a9cc8"/><path d="M293.84,151.24a27.74,27.74,0,0,1,4.37.18c1.28.19,3.38,1.76,2.69,3.36-1.29,3-6.25-3.61-7.34-3.54" style="fill:#2a9cc8"/><path d="M276.16,79.58a18.9,18.9,0,0,1,2.94.92c.83.36,2,1.85,1.19,2.86-1.43,1.88-3.56-3.68-4.32-3.83" style="fill:#2a9cc8"/><path d="M274.93,134a18.51,18.51,0,0,1,2.7,1.46c.75.51,1.58,2.19.63,3-1.76,1.58-2.8-4.29-3.51-4.57" style="fill:#2a9cc8"/><path d="M284.45,140a20.28,20.28,0,0,1,3,.78c.85.33,2.05,1.76,1.33,2.8-1.34,1.95-3.73-3.51-4.49-3.62" style="fill:#2a9cc8"/><path d="M283.21,133.35a27.82,27.82,0,0,1,4.38.19c1.28.18,3.38,1.75,2.69,3.35-1.29,3-6.25-3.61-7.34-3.54" style="fill:#2a9cc8"/><path d="M315.7,83.94a27.77,27.77,0,0,1,4.2,1.25c1.2.49,2.85,2.52,1.8,3.9-2,2.58-5.19-5-6.27-5.21" style="fill:#2a9cc8"/><path d="M321.85,94a27.77,27.77,0,0,1,4.2,1.25c1.2.49,2.85,2.52,1.79,3.91-2,2.57-5.18-5-6.26-5.22" style="fill:#2a9cc8"/><path d="M284.89,113.06a22.46,22.46,0,0,1,3.19,1.15c.9.43,2.09,2.07,1.21,3.09-1.64,1.91-3.79-4.1-4.61-4.3" style="fill:#2a9cc8"/><path d="M283.6,94.36a23,23,0,0,1,3.89.18c1.13.17,3,1.64,2.39,3.13-1.15,2.79-5.55-3.38-6.53-3.31" style="fill:#2a9cc8"/><path d="M297.75,94.22a27.92,27.92,0,0,1,4.38.19c1.27.19,3.37,1.75,2.68,3.35-1.28,3-6.25-3.61-7.34-3.54" style="fill:#2a9cc8"/><path d="M320.11,113.79a27.74,27.74,0,0,1,4.37.18c1.28.19,3.38,1.76,2.69,3.36-1.28,3-6.25-3.62-7.34-3.54" style="fill:#2a9cc8"/><path d="M270.88,110.39c1.31.48,3.27,0,4.77.37s3.76,2.63,2.2,4.36c-3.16,3.51-5.38-3.52-7-4.46" style="fill:#2a9cc8"/><path d="M292.65,138.07c1.58.56,3.94,0,5.75.5s4.57,3.1,2.72,5.07c-3.75,4-6.53-4.15-8.53-5.27" style="fill:#2a9cc8"/><path d="M291,125.21c1.59.57,3.94.05,5.75.5s4.57,3.1,2.72,5.07c-3.75,4-6.53-4.15-8.52-5.26" style="fill:#2a9cc8"/><path d="M295.44,104c1.59.57,3.94,0,5.75.5s4.58,3.1,2.72,5.07c-3.74,4-6.53-4.15-8.52-5.26" style="fill:#2a9cc8"/><path d="M321,98.42c-1.64.37-3.91-.43-5.76-.2s-4.92,2.53-3.32,4.71c3.24,4.42,7-3.33,9.1-4.2" style="fill:#2a9cc8"/><path d="M318,108.34c-1.36,1-3.77,1.15-5.38,2.09s-3.52,4.26-1.19,5.63c4.72,2.78,5.11-5.82,6.71-7.44" style="fill:#2a9cc8"/><path d="M302.64,67.11c.28-2.86,3-2.6,5.63-2.19,3.84.59,5.89,4.49,6.75,7.93,1,3.89.52,7.88.52,12,0,1.58-.27,3.21.55,4.54,1.14,1.82,3.53,1.24,4.72,2.91,2.84,4-2.79,10.85-2.85,14.88,0,2.61,1.35,4.71,2.19,7.11a16.49,16.49,0,0,1,1.18,6.84c-.22,2.55-2,4.62-2.25,7.13" style="fill:none;stroke:#2a9cc8;stroke-miterlimit:10;stroke-width:0.7922280866838008px"/><path d="M299.21,67.18c.07-3.56-4.12-7.33-5.72-1.53-1,3.57.21,6.76,1,10.3,1.35,5.75,2.76,11.68,2.75,17.62a34.1,34.1,0,0,1-2.46,12.3c-3.26,8.68-5.18,17.21-3.32,26.51.71,3.53,1.34,6.93,1.83,10.55.66,4.89.24,11.5-1.45,16" style="fill:none;stroke:#2a9cc8;stroke-miterlimit:10;stroke-width:0.7922280866838008px"/><path d="M289.85,67.18c-.06-2.68-4.8-3.13-7.05-2.93s-5.52,1.88-6.5,7.33c-1.59,8.85,1.95,16.34-.59,25.23-1,3.4-2.83,6.49-4,9.79-1.55,4.53-.86,8.75.71,13.2,1.3,3.67,2.34,6.81,2.46,10.79.12,3.61-.7,5.6-2.23,8.63" style="fill:none;stroke:#2a9cc8;stroke-miterlimit:10;stroke-width:0.7922280866838008px"/><rect x="265.05" y="144.81" width="11.74" height="38.57" style="fill:#fcc18b"/><rect x="293" y="171.64" width="33.54" height="11.74" style="fill:#fcc18b"/><rect x="250.51" y="144.81" width="11.74" height="38.57" style="fill:#fcc18b"/><rect x="235.42" y="149.28" width="11.74" height="34.1" style="fill:#ffa348"/><rect x="100.15" y="191.76" width="11.74" height="36.89" style="fill:#ffa348"/><rect x="107.16" y="159.16" width="35.12" height="11.74" transform="translate(-76.66 212.31) rotate(-66.13)" style="fill:#ffa348"/><rect x="72.01" y="205.39" width="33.03" height="11.74" transform="translate(-139.64 191.09) rotate(-62.21)" style="fill:#fcc18b"/><rect x="218.65" y="191.76" width="11.74" height="36.89" style="fill:#ffa348"/><rect x="204.12" y="191.76" width="11.74" height="36.89" style="fill:#ffa348"/><rect x="189.59" y="191.76" width="11.74" height="36.89" style="fill:#ffa348"/><rect x="165.55" y="140.34" width="11.74" height="43.04" style="fill:#ffa348"/><rect x="151.02" y="144.81" width="11.74" height="38.57" style="fill:#fcc18b"/><rect x="136.49" y="145.37" width="11.74" height="38.01" style="fill:#ffa348"/><rect x="137.6" y="38.61" width="11.74" height="50.87" style="fill:#ffa348"/><rect x="232.63" y="95.62" width="11.74" height="37.45" style="fill:#ffa348"/><rect x="218.1" y="95.62" width="11.74" height="37.45" style="fill:#ffa348"/><rect x="203.56" y="98.41" width="11.74" height="34.66" style="fill:#ffa348"/><rect x="189.03" y="98.41" width="11.74" height="34.66" style="fill:#ffa348"/><rect x="174.5" y="102.33" width="11.74" height="30.74" style="fill:#ffa348"/><rect x="253.87" y="39.16" width="11.74" height="50.31" style="fill:#ffa348"/><rect x="239.34" y="39.16" width="11.74" height="50.31" style="fill:#ffa348"/><rect x="224.8" y="47.55" width="11.74" height="41.92" style="fill:#ffa348"/><rect x="210.27" y="46.99" width="11.74" height="42.48" style="fill:#ffa348"/><rect x="195.74" y="58.17" width="11.74" height="31.3" style="fill:#ffa348"/><rect x="181.2" y="48.67" width="11.74" height="40.8" style="fill:#fcc18b"/><rect x="166.67" y="40.84" width="11.74" height="48.63" style="fill:#ffa348"/><rect x="110.22" y="47.55" width="11.74" height="40.8" transform="translate(-13.71 32.64) rotate(-15.12)" style="fill:#fcc18b"/><rect x="152.14" y="48.67" width="11.74" height="40.8" style="fill:#fcc18b"/><rect x="115.25" y="190.08" width="71.55" height="38.57" style="fill:#2a9cc8"/><path d="M142.36,195h1.86a.87.87,0,0,0,.59-.24.86.86,0,0,0,.25-.6.83.83,0,0,0-.25-.59.86.86,0,0,0-.59-.25h-1.86a.88.88,0,0,0-.6.25.87.87,0,0,0-.24.59.82.82,0,0,0,.84.84Z" style="fill:#858fa9"/><path d="M137.33,195h1.86a.87.87,0,0,0,.59-.24.86.86,0,0,0,.25-.6.83.83,0,0,0-.25-.59.86.86,0,0,0-.59-.25h-1.86a.88.88,0,0,0-.6.25.87.87,0,0,0-.24.59.82.82,0,0,0,.84.84Z" style="fill:#858fa9"/><path d="M170.86,195a8,8,0,0,1,.85,0c.28,0,.55.07.83.07a.82.82,0,0,0,.59-.24.83.83,0,0,0,.25-.59.85.85,0,0,0-.84-.84,7.77,7.77,0,0,1-.83-.08,8,8,0,0,0-.85,0,.85.85,0,0,0-.84.84.9.9,0,0,0,.25.6.87.87,0,0,0,.59.24Z" style="fill:#858fa9"/><path d="M166.39,195a8,8,0,0,1,.85,0c.27,0,.55.07.83.07a.82.82,0,0,0,.59-.24.83.83,0,0,0,.25-.59.85.85,0,0,0-.84-.84,7.53,7.53,0,0,1-.83-.08,8,8,0,0,0-.85,0,.88.88,0,0,0-.59.25.83.83,0,0,0-.25.59.84.84,0,0,0,.84.84Z" style="fill:#858fa9"/><path d="M147.39,195a7.85,7.85,0,0,1,.84,0c.28,0,.55.07.83.07a.83.83,0,0,0,.6-.24.87.87,0,0,0,.24-.59.85.85,0,0,0-.84-.84,7.77,7.77,0,0,1-.83-.08,7.85,7.85,0,0,0-.84,0,.9.9,0,0,0-.6.25.87.87,0,0,0-.24.59.82.82,0,0,0,.84.84Z" style="fill:#858fa9"/><path d="M132.29,195a8,8,0,0,1,.85,0c.28,0,.55.07.83.07a.81.81,0,0,0,.59-.24.83.83,0,0,0,.25-.59.85.85,0,0,0-.84-.84,7.77,7.77,0,0,1-.83-.08,8,8,0,0,0-.85,0,.88.88,0,0,0-.59.25.87.87,0,0,0-.24.59.82.82,0,0,0,.83.84Z" style="fill:#858fa9"/><path d="M126.7,195a8,8,0,0,1,.85,0c.28,0,.55.07.83.07a.81.81,0,0,0,.59-.24.83.83,0,0,0,.25-.59.85.85,0,0,0-.84-.84,7.77,7.77,0,0,1-.83-.08,8,8,0,0,0-.85,0,.88.88,0,0,0-.59.25.87.87,0,0,0-.24.59.82.82,0,0,0,.83.84Z" style="fill:#858fa9"/><path d="M167.43,204.09a4.22,4.22,0,0,0-2.23-.3,9.32,9.32,0,0,0-3.31.55A6.83,6.83,0,0,0,158,208a13.38,13.38,0,0,0-.69,6.52,9.85,9.85,0,0,0,2,5.38,7.43,7.43,0,0,0,5.33,2.67,12.85,12.85,0,0,0,3-.29,17.12,17.12,0,0,0,3.14-1.08,5.58,5.58,0,0,0,2.32-1.19,8.47,8.47,0,0,0,1.67-3,8.17,8.17,0,0,0-.06-5.94,20.89,20.89,0,0,0-1.57-3.4,12.8,12.8,0,0,0-2.26-2.45,8.15,8.15,0,0,0-2.61-1.41,3.85,3.85,0,0,0-3.31.2.51.51,0,0,0,.25.94,5.19,5.19,0,0,1,2.71.09,6.48,6.48,0,0,1,2,1,14.87,14.87,0,0,1,1.76,1.7A10.07,10.07,0,0,1,173,210a8.74,8.74,0,0,1,1,5.18c-.3,1.61-1,3.75-2.63,4.45-3.12,1.35-6.85,2.79-10,.64s-3.39-6.59-2.87-10a6.06,6.06,0,0,1,2.85-4.58,7.18,7.18,0,0,1,3.09-.94,5.51,5.51,0,0,1,2.65,0c.45.22.85-.44.4-.69Z" style="fill:#ffa348"/><path d="M132.67,204.32a5.08,5.08,0,0,0-2.23,1,6.93,6.93,0,0,0-1.88,1.74,9.28,9.28,0,0,0-2.15,6,10.94,10.94,0,0,0,.62,2.93,11.77,11.77,0,0,0,1.2,3,8.07,8.07,0,0,0,4.9,3.19,10.64,10.64,0,0,0,6.8-.37,10.5,10.5,0,0,0,4.89-4.54,7.51,7.51,0,0,0,.91-6.23,16.69,16.69,0,0,0-2.71-4.79,7.13,7.13,0,0,0-2.38-2,11,11,0,0,0-3.68-.75c-1.43-.16-3.26-.16-4.45.76a.41.41,0,0,0,.31.75,12.21,12.21,0,0,1,3.25-.14c1.64.19,3.45.38,4.77,1.44a10.65,10.65,0,0,1,2.38,3,7,7,0,0,1,1,5.38,8.64,8.64,0,0,1-8.76,6.28,10.18,10.18,0,0,1-4.92-1.52c-1.55-1.08-2-2.84-2.59-4.53a7.41,7.41,0,0,1,.76-6.25,9.54,9.54,0,0,1,1.67-2.07,11.07,11.07,0,0,1,1.12-.82,3.77,3.77,0,0,1,1.25-.87.25.25,0,0,0-.06-.49Z" style="fill:#ffa348"/><path d="M135.47,210.24a1.69,1.69,0,0,1-.66.2,1.6,1.6,0,0,0-.71.49,2.93,2.93,0,0,0-.81,1.48,2.3,2.3,0,0,0,.38,1.56,1.9,1.9,0,0,0,1.06.91,2.62,2.62,0,0,0,1.83.08,3,3,0,0,0,1.34-1,2.66,2.66,0,0,0,0-3,2.27,2.27,0,0,0-1.56-.93,1.84,1.84,0,0,0-1,.16,4.37,4.37,0,0,0-.82.67c-.24.2.07.61.34.44a2.48,2.48,0,0,1,1.23-.59,1.39,1.39,0,0,1,1.08.49,1.94,1.94,0,0,1,.27,2.18,2.24,2.24,0,0,1-.9.85,1.75,1.75,0,0,1-1.4.09,1.38,1.38,0,0,1-.85-.58,2,2,0,0,1-.39-1.08,2.56,2.56,0,0,1,.63-1.34,1.65,1.65,0,0,1,.58-.47,1.7,1.7,0,0,0,.57-.33c.13-.13-.05-.39-.21-.27Z" style="fill:#ffa348"/><path d="M165.65,210.24a1.64,1.64,0,0,1-.66.2,1.66,1.66,0,0,0-.71.49,3,3,0,0,0-.81,1.48,2.36,2.36,0,0,0,.38,1.56,1.93,1.93,0,0,0,1.06.91,2.65,2.65,0,0,0,1.84.08,3,3,0,0,0,1.33-1,2.64,2.64,0,0,0,0-3,2.23,2.23,0,0,0-1.56-.93,1.86,1.86,0,0,0-1,.16,4.37,4.37,0,0,0-.82.67c-.24.2.08.61.34.44a2.47,2.47,0,0,1,1.24-.59,1.42,1.42,0,0,1,1.08.49,2,2,0,0,1,.27,2.18,2.37,2.37,0,0,1-.9.85,1.77,1.77,0,0,1-1.41.09,1.38,1.38,0,0,1-.85-.58,1.86,1.86,0,0,1-.38-1.08,2.55,2.55,0,0,1,.62-1.34,1.68,1.68,0,0,1,.59-.47,1.76,1.76,0,0,0,.56-.33c.13-.13-.05-.39-.21-.27Z" style="fill:#ffa348"/><path d="M125.32,198.45c.86-.36,2.4,0,3.33-.06h10c4.66,0,9.33.06,14-.08s9.24-.11,13.85,0c2.18,0,4.36.12,6.55.14,1,0,1.92,0,2.88,0,.66,0,1.2.15,1.71-.32s-.31-1.51-.92-.92a6.77,6.77,0,0,1-1.18,0h-1.37c-1.07,0-2.15,0-3.22,0-2.25,0-4.51-.09-6.76-.09-4.49,0-9,0-13.46.11s-9,0-13.52,0l-6.69,0h-3.23a4.35,4.35,0,0,0-2.38.28c-.49.34-.19,1.29.44,1Z" style="fill:#fcc18b"/><path d="M236,208.9c-1.4,4.19-3,6.53-4.93,8-3.24,2.48-7.58,3.26-11.22,4.88-8.31,3.71-14.58,12.24-16.48,21.1-1.57,7.32-1.1,15.8,3.71,21.81A47.23,47.23,0,0,0,227.32,279c7.44,2.63,17.15,3.55,25.06,3.17,9.48-.46,18-4.62,26.83-7.5,20.63-6.71,34.67-1.69,50.82-8.25C353.08,257,349.6,223,337.57,205.6c-5.19-7.53-12.14-12-20.35-15.37a72.05,72.05,0,0,0-10.06-2.94c-3.47-.76-6.06-4.3-8.43-6.85-10.26-11-30.6-10.18-42.06-2.09-5.39,3.8-9.66,9.73-13.29,15.13A71.05,71.05,0,0,0,236,208.9Z" style="fill:#2a9cc8"/><path d="M246.7,258.46c.59,1.75.56,3.9,1,5.76.68,2.89,1.16,5.8,2,8.66,1.4,4.79,2.91,9.34,5.94,13.25,2.41,3.11,6.17,5.23,9.62,7.15s6.8,3.57,10.22,5.25c1.35.66,2.81,1.18,4.19,1.76a6.58,6.58,0,0,0,1.75.67c.69.08.64.08,1.15-.58a38.62,38.62,0,0,0,2.76-3.82c.78-1.29,1.38-2.95,2.46-4a9.22,9.22,0,0,0-2.06-1.12l-2.4-1.42c-1.56-.9-3.2-1.79-4.8-2.68a43.35,43.35,0,0,1-10.11-7.08c-3-3.07-3.47-8.83-4.19-12.83-.28-1.6-1-3.84.47-4.89s3.32-1.45,5-2.31a68.92,68.92,0,0,0,6.75-4.1c6-4.35,8-7.84,8.74-8.46,1.53,4.31,2.62,8.91,4.38,13.24.81,2,1.82,4,2.52,6a17.57,17.57,0,0,1,.57,2.51,14.93,14.93,0,0,0,.28,2.47,11.59,11.59,0,0,1,4.86-3.66c1-.33,2.1-.45,3.16-.68.89-.19,1.74-.21,1.72-.65a46.06,46.06,0,0,0-1.08-6.56,40.68,40.68,0,0,0-1.84-7.14c-1.61-4.11-2.91-8.34-4.51-12.48-1.17-3-3.19-6.38-6-6.8a10.53,10.53,0,0,0-4.51.3,23.33,23.33,0,0,0-5,2.19,43.21,43.21,0,0,0-7.83,5.32,22.72,22.72,0,0,1-2.86,2.53c-1.34.86-2.9.91-4.31,1.69-1.7.94-3.27,2.22-4.92,3.27-1.88,1.2-3.77,2.47-5.57,3.78s-3.87,2.7-5.54,4.21A12.85,12.85,0,0,1,246.7,258.46Z" style="fill:#414355"/><path d="M241.76,217.47c-1.3.56-3.26,0-6.34,3.78a46.14,46.14,0,0,0-3.54,5,36.45,36.45,0,0,0-2.33,4.58A35.32,35.32,0,0,0,227,243.43c0,1.8.18,3.95,1,5.06a8.9,8.9,0,0,0,4.94,3.17c3.47.79,6.55-.35,9.21-2.78a8.19,8.19,0,0,0,1.22,3.25c.83,1.33,1.3,2.55,2,3.91.29.52.82,2.45,1.49,2.7s3.19-.85,3.73-1.11a58.79,58.79,0,0,0,10.71-6.25c1.67-1.23,3.38-2.32,5-3.63a17,17,0,0,0,2-1.86c.37-.47-.31-1.38-.58-2a28.66,28.66,0,0,1-1.95-4.94c-.4-1.93.7-2.93,2.32-1.39,1.1,1,1.25,2.78,2.26,4.07s1,.26,3.68-1.7c1.35-1,4.77-2.86,5.38-3.49,2.38-2.45,2.59-4.5,1.75-5.8-1.28-2-6.85-.59-8.73-1.74a33.86,33.86,0,0,0-5.53-2.82c-1.52-.58-3.12-.88-4.65-1.4-2.6-.89-4.63-2.61-6.9-4.08a16.63,16.63,0,0,0-7.19-2.56,54.23,54.23,0,0,0-6.13-.54Z" style="fill:#f8f8fa"/><path d="M256.13,201.82a10.88,10.88,0,0,0-1-.4,10.6,10.6,0,0,0-5.25-1.57c-2.53-.07-5.92.57-7.8,2.43l-.2.21a8.05,8.05,0,0,0-1.45,1.2c-1.28,1.36-3.29,5.81-1.9,7.85,1.28,5.24,5.91,10.75,11.48,11.18,5.92.46,10.9-4.82,10.89-10.7,0-.14,0-.29,0-.44C261.29,207.67,260.05,203.53,256.13,201.82Z" style="fill:#fcc18b"/><path d="M244.27,191.2c5.77-.89,10.71,0,14.21,3.56a18.58,18.58,0,0,1,5.14,10.31c.22,1.55.52,5.42-.25,6.67-.38.62-1.2.73-2.05.8-1.21.09-.74-3.91-1.86-5.5-.84-1.19-6-1.22-8.1-1.44-2.37-.25-5.65-1.84-7.48,0a13.78,13.78,0,0,0-2,2.23,11.22,11.22,0,0,0-1.89,5.59c-.07,1.4-4.26-.49-4.68-1.12-1.41-2.11-1.48-6.19-1.11-8.59.53-3.53,1.11-5.8,3.35-8.8A11.18,11.18,0,0,1,244.27,191.2Z" style="fill:#414355"/><polygon points="277.49 235.22 279.08 210.54 268.2 216.21 268.05 242.49 277.49 235.22" style="fill:#fcc18b"/><polygon points="268.24 216.19 248.56 214.82 249.96 243.05 268.12 242.44 268.24 216.19" style="fill:#ffa348"/><path d="M246.42,231.91a6,6,0,0,0-1.64,3c-.08,1.22,2,4.93,2.53,5.28a1.54,1.54,0,0,0,1.06.07,19.12,19.12,0,0,0,2.38-.42c1.39-.42,4.6-1.89,4.75-2.28a1.12,1.12,0,0,0-.25-1,1.89,1.89,0,0,0-2-.16,14.08,14.08,0,0,1,1.57-.88c.48-.25,1.59-.63,1.81-1.17.35-.9-.22-1.2-1-1.3a6.73,6.73,0,0,0-2.42.24c-.74.22-1.56.31-2.29.51.27-.18.66-.27.94-.47.64-.45,1.39-.78,2-1.21a6.84,6.84,0,0,0,1.89-1.4c.6-.89-.47-1.16-1.24-1.16s-1.43.48-2.13.52a3.9,3.9,0,0,1,.82-.85c.34-.28,1.13-.54,1.25-1,.32-1.12-1.32-1.16-1.94-1a9.24,9.24,0,0,0-3.86,2.27,21.45,21.45,0,0,0-1.86,1.83Z" style="fill:#fcc18b"/><path d="M245.4,233.18c1-1.08,2-2.2,3.07-3.2a9.07,9.07,0,0,1,4.22-2.49c.38-.06,1.52-.19,1.57.42,0,.45-.77.79-1.08,1-1.44.77-3.2,1.36-4.3,2.62-.2.23,0,.69.33.56,1.16-.45,2.26-1,3.42-1.52a7.35,7.35,0,0,1,2-.61c.29,0,1.1,0,1,.51s-.83.73-1.11.91c-.59.36-1.21.67-1.83,1a16.72,16.72,0,0,0-3,1.65.37.37,0,0,0,.26.63,15.07,15.07,0,0,0,3.4-.83c.71-.19,2.53-.83,3.08,0,.68,1-1.27,1.6-1.91,1.86-1.33.54-2.7,1-4.05,1.42a.14.14,0,0,0,.07.27c1.15-.18,2.22-.67,3.38-.78.46,0,1.27-.1,1.45.46s-.35.89-.72,1.12a14.81,14.81,0,0,1-3.83,1.47c-1.1.31-2.22.59-3.33.86a.14.14,0,0,0,.07.27,32.36,32.36,0,0,0,6.62-2c.62-.29,1.6-.79,1.5-1.61s-1.11-.93-1.82-.85c-1.16.12-2.24.59-3.39.77l.07.27c1.23-.41,2.47-.8,3.69-1.27a6,6,0,0,0,2.55-1.38,1.08,1.08,0,0,0-.41-1.5,4.17,4.17,0,0,0-2.68,0,19.14,19.14,0,0,1-3.74.71l.26.63a15.48,15.48,0,0,1,2.63-1.49,12.1,12.1,0,0,0,2.84-1.83c.46-.47.64-1.15-.09-1.48a4.3,4.3,0,0,0-2.9.3c-.68.24-1.34.51-2,.79a6.06,6.06,0,0,1-1.58.6l.17.63c.68-.47,1.33-1,2.05-1.38s1.33-.73,2-1.12,1.82-1,1.41-1.93-2-.69-2.79-.37a12.57,12.57,0,0,0-3.54,2.46,22.44,22.44,0,0,0-3.12,3.41c-.05.06.06.14.12.09Z" style="fill:#414355"/><path d="M276.61,223.2a14.56,14.56,0,0,1,3,1.78c1.64,1.47,2.13,2.34,2.15,4,0,1.34.19,3.13-1.58,4.28a3,3,0,0,1-2.05.38c-.89-.29-.56-1-.66-1.67a2.24,2.24,0,0,1-2.17.31c-.77-.51-.17-1.46.6-1.75-.72.25-1.71,0-1.78-.84-.09-1,.7-1.14,1.42-1.36-.9,0-2-.28-1.88-1.3s1.34-1.36,2.17-1.4c-.69-.1-1.51-.85-1.34-1.63.14-.6.26-.91,1.17-1Z" style="fill:#fcc18b"/><path d="M280.47,225.67a9,9,0,0,0-1.93-1.49,6.55,6.55,0,0,0-2.75-1.15,1.48,1.48,0,0,0-1.68,1c-.19.82.75,1.51,1.38,1.81a11.92,11.92,0,0,0,2.73.94l.1-.76c-1.23-.08-2.66-.59-3.95-.25a1.2,1.2,0,0,0-1,1.2,1.61,1.61,0,0,0,1.37,1.49,9,9,0,0,0,3,.15l-.38-.39s.17-.36.22-.32l0,0s-.09,0-.11,0l-.34.05-1,.14a3.12,3.12,0,0,0-1.9.7,1.21,1.21,0,0,0,0,1.55,2,2,0,0,0,1.72.26,13.34,13.34,0,0,0,2.08-.58l-.08-.32c-.68.26-1.38.43-2,.74s-1.24.62-1.21,1.27c.07,1.48,2.23.67,3,.37a15.25,15.25,0,0,0,1.79-.94c.14-.09,0-.32-.14-.23a13.36,13.36,0,0,1-1.7.83,3.71,3.71,0,0,1-2.13.49.57.57,0,0,1-.45-.63c.05-.35.48-.59.76-.74a20,20,0,0,1,2.23-.84c.2-.07.12-.39-.08-.32-.53.17-1.06.35-1.6.47a2.51,2.51,0,0,1-1.79,0,.71.71,0,0,1-.22-.77.89.89,0,0,1,.58-.54,5.05,5.05,0,0,1,1.93-.24c.42,0,1.28.19,1.34-.43a.4.4,0,0,0-.39-.39c-.74-.05-1.48.06-2.23,0s-1.5,0-1.61-.77c-.18-1.26,2-.85,2.7-.72s1.07.25,1.6.4.71-.52.3-.71c-.63-.29-1.33-.42-2-.65a11.85,11.85,0,0,1-1.16-.49,1.59,1.59,0,0,1-.79-.6.75.75,0,0,1,.24-.81,1.16,1.16,0,0,1,1-.28,6.4,6.4,0,0,1,2.54,1.06,14.3,14.3,0,0,1,2,1.46.07.07,0,0,0,.1-.1Z" style="fill:#414355"/><path d="M240.19,226.43c.29.51-.07,1.47-.27,1.95a9.74,9.74,0,0,1-.92,1.75c-.34.52-.56,1.06-.85,1.59s-.7,1.16-1,1.75a16.82,16.82,0,0,0-1.8,3.87c-.28,1-.85,2.43-.21,3.45,1.37,2.17,4.24-.17,5.3-1.41.87-1,1.55-2.22,2.39-3.28a32.43,32.43,0,0,1,2.45-2.65A.27.27,0,0,0,245,233a4.84,4.84,0,0,0-2.36,1.88c-.78.92-1.69,1.74-2.43,2.68a7.54,7.54,0,0,1-2.47,2.33c-.26.12-.87.38-1.13.12s0-1,.07-1.32a13.81,13.81,0,0,1,.63-2c.26-.58.56-1.14.87-1.7a13,13,0,0,0,1.53-3.27c.12-.54.35-1,.51-1.53s.3-1.08.49-1.62a2.69,2.69,0,0,0,0-2.54c-.23-.26-.64.08-.48.37Z" style="fill:#414355"/><path d="M244.92,232.78a1.33,1.33,0,0,0-.65.95,4,4,0,0,0-.21,1.42,8,8,0,0,0,.8,2.78,10.24,10.24,0,0,0,.51,1.18c.22.38.54.68.78,1a4.46,4.46,0,0,0,.88,1.13,2.12,2.12,0,0,0,1.25.47c.5,0,.62-.57.37-.89a3.79,3.79,0,0,0-.31-.39c-.11-.13-.26-.22-.38-.34a4.57,4.57,0,0,1-.53-.88c-.18-.32-.44-.58-.61-.91a9.22,9.22,0,0,1-.34-1,9.91,9.91,0,0,1-.71-2.09,2.81,2.81,0,0,1,0-1c.09-.36-.09-.67,0-1s-.51-.63-.85-.48Z" style="fill:#414355"/><path d="M282.56,299.83c1.75.93,2.05,1.82,1.86,3.72a26.87,26.87,0,0,0-.18,4.76c.1,1.16,1.26,3,2.7,2.12a10,10,0,0,0,3.05-4c.68-1.51,1-3.23,1.7-4.73s1.49-3.19,1.4-4.75c-.11-1.85-1.8-2-3.26-2.42-1.27-.38-3.72-1.17-4.82-.26a6.87,6.87,0,0,0-1.68,3.24,7.2,7.2,0,0,1-.67,2.33" style="fill:#ffa348"/><path d="M293.55,269.74c-.12,1.08-.46,2.77.09,3.77s1.91,1.27,3.06,1.33c2.68.12,5.41.17,8.09.43,2.25.22,5.3.58,6.84-1.43s0-4.12-2.28-4.52c-1.07-.19-2.17-.23-3.22-.49-.84-.21-2.25-.31-2.93-.88-.39-.31-.84-.66-1.23-1-1-.93-2.24-.54-3.45-.23a16.69,16.69,0,0,0-4.83,3Z" style="fill:#ffa348"/><path d="M281.47,299.66l1.33.7a2.42,2.42,0,0,1,1.18,2.23c0,1.75-.22,3.48-.2,5.23,0,1,.18,2.53,1.19,3.1,1.25.71,2,.27,3.08-.57,2.68-2.18,3.61-5.49,4.69-8.61a22,22,0,0,0,1.52-4.32,2.55,2.55,0,0,0-1.79-2.66,21.39,21.39,0,0,0-3.68-1c-1.31-.31-2.6-.72-3.9-1.09-.61-.18-.86.62-.4,1a10.39,10.39,0,0,0,3.11,1c.87.28,1.77.47,2.66.68s2.47.52,2.7,1.51a3.4,3.4,0,0,1-.51,1.79c-.31.71-.65,1.39-1,2.09-.61,1.38-.92,2.86-1.52,4.24a12.85,12.85,0,0,1-2.21,3.7,6.45,6.45,0,0,1-1.39,1.22,1.17,1.17,0,0,1-1.6-.64,6.87,6.87,0,0,1-.17-2.12c0-.85,0-1.68.09-2.53.09-1.23.27-2.8-.42-3.9a4.29,4.29,0,0,0-2.59-1.52.27.27,0,0,0-.21.49Z" style="fill:#414355"/><path d="M302.07,266.78a3.3,3.3,0,0,0,1.58,1.57,15,15,0,0,0,3.06.67,26.49,26.49,0,0,1,2.93.54c1.44.39,2.94,1.64,2.42,3.28-.39,1.26-1.86,1.89-3,2.15a14.48,14.48,0,0,1-4.26,0c-2.77-.16-5.52-.54-8.29-.61-1.15,0-2.78-.22-2.75-1.71,0-1.18.17-2.35.18-3.53a.45.45,0,0,0-.9,0c0,1.19-.15,2.38-.17,3.58a2.44,2.44,0,0,0,1.67,2.27,6,6,0,0,0,2,.27c.78,0,1.55.05,2.33.09s1.49.16,2.25.15,1.7,0,2.54.13c2.75.28,6.12.78,8.27-1.4a2.66,2.66,0,0,0,.5-3.43,4.45,4.45,0,0,0-3.18-1.73c-1.13-.2-2.26-.34-3.38-.55a7.1,7.1,0,0,1-2.46-.69,8.1,8.1,0,0,1-1.13-1.21c-.08-.07-.21,0-.15.12Z" style="fill:#414355"/><path d="M284.19,306.77a2.69,2.69,0,0,1,2.24-1.68c.51-.08,1.05.06,1.5-.21.77-.45,3-6.64,3.74-10.06" style="fill:none;stroke:#414355;stroke-miterlimit:10;stroke-width:0.5589618324117409px"/><path d="M311,269.88c-3.08.23-2.67,3.19-3.36,3.56a5.59,5.59,0,0,1-2.31.12c-2.43-.12-4.44-.31-6.86-.61-1.66-.21-3.4-.37-5.08-.61" style="fill:none;stroke:#414355;stroke-miterlimit:10;stroke-width:0.5589618324117409px"/><path d="M304.27,268.53a3.56,3.56,0,0,0-2.61,1.83" style="fill:none;stroke:#414355;stroke-miterlimit:10;stroke-width:0.5589618324117409px"/><path d="M302.59,268a3.57,3.57,0,0,0-2.61,1.84" style="fill:none;stroke:#414355;stroke-miterlimit:10;stroke-width:0.5589618324117409px"/><path d="M306,268.85a4.06,4.06,0,0,0-2.52,1.82" style="fill:none;stroke:#414355;stroke-miterlimit:10;stroke-width:0.5589618324117409px"/><path d="M284.43,302.16a4.47,4.47,0,0,1,1-1.79c.4-.41,1.6-1,2.05-.24" style="fill:none;stroke:#414355;stroke-miterlimit:10;stroke-width:0.5589618324117409px"/><path d="M283.87,301a4.47,4.47,0,0,1,1-1.79c.4-.41,1.6-1,2.05-.24" style="fill:none;stroke:#414355;stroke-miterlimit:10;stroke-width:0.5589618324117409px"/><path d="M283.31,299.92a4.47,4.47,0,0,1,1-1.79c.4-.41,1.61-1,2.05-.24" style="fill:none;stroke:#414355;stroke-miterlimit:10;stroke-width:0.5589618324117409px"/><path d="M248.42,210.42a1.12,1.12,0,1,1-1.12-1.19A1.15,1.15,0,0,1,248.42,210.42Z" style="fill:#414355"/><path d="M256.8,211.53a1.12,1.12,0,1,1-1.11-1.18A1.15,1.15,0,0,1,256.8,211.53Z" style="fill:#414355"/><path d="M68.74,235.24a6,6,0,0,0-3.82-1.83l-3.18-.64c-2.14-.46-2.78-2.13-3.71-3.86-.25-.47-3.65.71-5,.84-.63.06-2.07.25-2.16.5-.62,1.83-.2,3.78-.28,5.67-.08,1.59-.18,2.08,1.55,2.44a55.28,55.28,0,0,0,11,1.08c1.67,0,3.49.14,4.83-1.09C68.79,237.6,69.7,236.3,68.74,235.24Z" style="fill:#fcc18b"/><path d="M10.34,201.09c-1.59.83-3.59.8-5.24,1.56-1.06.49-1.24,2.25-1.43,3.23-.87,4.54-2.54,9.46-.53,14,1.33,3,4.34-1.65,4.88-2.67,2.17-4.08,2.62-9.29,8.18-10.15C16.68,206.94,10.54,201,10.34,201.09Z" style="fill:#fcc18b"/><path d="M55.51,157.45a37.56,37.56,0,0,1,8.39.4c3.25.47,5.7.23,8.93.86,2.53.5,4.61-1.4,4.83,1.33.29,3.71-.62,10.14-1.13,13.76-1.06,7.52-2,15.3-4.33,22.68-2.47,7.93-4.93,15.69-8.9,23.23-1.63,3.11-2.15,6.74-3.77,9.9S53,230.8,49.89,231.8c-.19-2.87.88-5.1,1.83-7.81,2.55-7.28,4-14.94,6.73-22.16a39.25,39.25,0,0,0,2.37-9c.42-2.9.7-14-.35-13.91-.91-.2-7,11.06-11.73,15.7-4.29,4.17-10.9,5.42-16.08,7.55a76.51,76.51,0,0,1-10.2,3.63,19.77,19.77,0,0,0-7.83,3.33c-1.05-.92-1.75-2.91-2.65-4.11a13.14,13.14,0,0,0-3.47-3.32c.86-.34,1.25-1,2-1.58a25.35,25.35,0,0,1,3.36-1.86c2.32-1.23,4.55-2.42,6.94-3.5,4-1.77,7.86-3.14,11.92-4.51a79.81,79.81,0,0,0,9.12-3.17c3.17-1.52,3.23-4.63,4.06-7.78,1-3.78,2.08-7.65,3.17-11.41.74-2.56,2.67-8.18,3.65-9.37A3.66,3.66,0,0,1,55.51,157.45Z" style="fill:#414355"/><path d="M111.93,80.21a1.77,1.77,0,0,0-2.56-.57.57.57,0,0,0-.5.1A24.2,24.2,0,0,0,106,83c-1.64,1.84-3.24,3.67-4.78,5.6a54,54,0,0,1-4.65,4.8c-1.91,1.9-3.44,4.15-5.16,6.22-3.1,3.75-6.1,7.6-8.9,11.59-1.27,1.81-2.51,3.66-3.64,5.56s-2,4.24-3.93,5.53a.22.22,0,0,0-.09.13,3.78,3.78,0,0,1-1.81.38c-1.42-.07-7.52.06-8.69.16-.71.06-1-.77-1.14-.65-3,2.18-5.76,3.62-8.29,6.38-3,3.22-6.13,6.2-9.25,9.28-3.49,3.46-6.59,7.3-9.81,11-1.22,1.4-2.34,3.18-3.42,4.7s-2.3,2.61-3.23,4.09c-.24.39,2.2,4,2.13,4.09-.3.24.09.72.41.53a25.55,25.55,0,0,0,4.64-4.05c2.49-2.47,5-4.93,7.67-7.19,3.52-3,7.3-6,9.92-9.81a51.25,51.25,0,0,0-.93,6.31q-.49,6.09-1.1,12.19a.53.53,0,0,0,0,.26.83.83,0,0,0,.08.12l.08.05,0,0h0l.09,0c1.69.69,3.46.44,5.26.42,3.21,0,6.31.21,9.5.31,2.13.07,4.16-.55,6.31-.52,1.1,0,2.84.33,4-.13a.72.72,0,0,0,.62-.37c1-1.69.41-4.67.41-6.54,0-3.27.3-6.53.23-9.8-.06-3.06.4-6,.48-9.06a25.62,25.62,0,0,0,.09-5c1-.93,1.71-2.17,2.69-3.18a45.15,45.15,0,0,0,4.33-5.5c3.15-4.44,6.43-8.73,9.44-13.27,2.85-4.31,6.36-8.06,9.23-12.33,1.53-2.27,3-4.58,4.56-6.82,1.39-2,2.25-4.31,3.58-6.35C113.23,81.76,112.17,80.53,111.93,80.21Z" style="fill:#ffa348"/><path d="M65.22,93.76c-2,.93-4.42,6.35-5.19,10.7a16.57,16.57,0,0,0,1.42,9.88,34.63,34.63,0,0,1,1.41,4.13,7,7,0,0,1,.59,2.2c0,.45-.76,2.12-.7,2.57a49.88,49.88,0,0,0,6.06-.23c1-.06,3.21-.05,3.35-.28a11.68,11.68,0,0,1,1.7-2.45c1.44-1.3,3.17-2.13,4.29-3.8a15.24,15.24,0,0,0,2-4.74,12.75,12.75,0,0,0,.18-5.4c-.29-1.69-1.42-3.19-1.6-4.85-.14-1.18,2-2.14,1.21-3.63-.49-1-3.28.44-4.45-.38-1.5-1-2.52-2.67-4.12-3.61A7.94,7.94,0,0,0,65.22,93.76Z" style="fill:#414355"/><path d="M111.15,81.69a21.64,21.64,0,0,0-3-1.21c1.83-2.43.83-4.76,1.16-8.34.14-1.49.61-2.56,1.49-2,.61.36.79,1.89,1.06,2.56.34.88.53.45,1.13-.12,1.49-1.42,2.84-3.21,4.84-4,1.55-.57,2,.38,1,1.54A10.89,10.89,0,0,0,116.79,73c1,.18,4.6-3.92,5.37-1.8.62,1.71-3.68,3.11-4.32,4.45a4.45,4.45,0,0,0,2.08-.52c1.24-.46,2.74-1,3-.23.47,1.21-2.28,2.23-2.65,2.39a13.4,13.4,0,0,0-3.36,2.57,7.43,7.43,0,0,1-3.14,1.73c-.54.16-1,1-1.33,1.13Z" style="fill:#414355"/><path d="M31.26,162.79c-1.59.91-3,.49-4.19.61-2,.19-4.69,4-6.8,2.34-1.49-1.17-.61-2.72.28-3.7a14.55,14.55,0,0,1,2.75-2.51c1.12-.73,2.94-.63,4.19-1s1.49-1,2.56-1.93c-.23,1.35.89,4.29,2.7,4.84A4.84,4.84,0,0,1,31.26,162.79Z" style="fill:#414355"/><path d="M72.21,95.06c.31,2.53-1.68,5.22-.94,8.2s.65,6.32-.92,8.82a41.94,41.94,0,0,0-3.73,6.46c-1,2.19.37,5.21-4.29,8-3.08,1.85-9.27,1.14-13-.19s-6.25-3.06-6.57-6.57c-.56-6.14,6.15-4.53,8.62-10.94,1.54-4-1.12-13.7,9.69-17C63.36,91.19,71.65,90.59,72.21,95.06Z" style="fill:#2a9cc8"/></svg>