<svg id="Calque_1" data-name="Calque 1" xmlns="http://www.w3.org/2000/svg" viewBox="0 0 179.34 128.38">
  <defs>
    <style>
      .cls-1 {
        fill: #ffa348;
      }

      .cls-2 {
        fill: #858fa9;
      }

      .cls-3 {
        fill: #dcdde0;
      }

      .cls-4 {
        fill: #414355;
      }

      .cls-5 {
        fill: #2a9cc8;
      }

      .cls-6 {
        fill: none;
        stroke: #2a9cc8;
        stroke-linecap: round;
        stroke-miterlimit: 10;
        stroke-width: 3px;
        stroke-dasharray: 0.05 7;
      }
    </style>
  </defs>
  <g>
    <g>
      <path class="cls-1" d="M89.49,70.65a7.08,7.08,0,0,0-1.83.37l-.06,0L87.51,71a.31.31,0,0,0,0-.08.14.14,0,0,0-.27-.08c-1.78,5.7-3.07,11.62-4.38,17.45a.22.22,0,0,0,.16.27c2,.59,2.7-.23,3.21-2.12.56-2.06.93-4.18,1.41-6.26.73-3.07,1.54-6.13,2.09-9.25A.21.21,0,0,0,89.49,70.65Z" transform="translate(-0.93 -25.81)"/>
      <path class="cls-1" d="M96,69.83a10.39,10.39,0,0,0-2.35.38l0,0,0-.09c0-.06,0-.13,0-.19s-.26-.29-.31-.09C91.62,75.91,90,82,88.26,88a.21.21,0,0,0,.1.25c2.39,1,3.14-.55,3.71-2.69,1.39-5.14,2.84-10.28,4.14-15.45A.22.22,0,0,0,96,69.83Z" transform="translate(-0.93 -25.81)"/>
    </g>
    <g>
      <path class="cls-1" d="M85.32,85.91c.63,0,1.52.28,2,.23l.39-.06c-.18-1.08-1.44-1.88-2.33-.81C85.34,85.27,85.22,85.31,85.32,85.91Z" transform="translate(-0.93 -25.81)"/>
      <path class="cls-1" d="M85.29,86c.1,0,.15.1.24.11l.42.07c.28,0,.55.11.83.15a2.75,2.75,0,0,0,1,0c.14,0,.19-.18.17-.3a1.72,1.72,0,0,0-1.78-1.48,1.47,1.47,0,0,0-.6.23c-.16.09-.2.27-.31.39s0,.58,0,.79a.1.1,0,0,0,.19,0,2.16,2.16,0,0,1,0-.44c0-.14-.09,0,0,0A2,2,0,0,1,86.3,85c.61,0,1,.61,1.13,1.13l.17-.3a2.81,2.81,0,0,1-1,0c-.21,0-.42-.08-.63-.1l-.43,0c-.08,0-.18.07-.26.08S85.16,86,85.29,86Z" transform="translate(-0.93 -25.81)"/>
    </g>
    <g>
      <g>
        <path class="cls-2" d="M75.35,108.75a5.45,5.45,0,0,0-1.71,0c-.25,0-1.46.52-1.24.75a.2.2,0,0,0-.29.27c-.78,1.85-3.12,3.22-4.9,3.94-1.32.53-3,1-3.82,2.31a.31.31,0,0,0,.11.43,2.84,2.84,0,0,0,2,.42c-.32.4-.68.78-1,1.17a.16.16,0,0,0,.07.26c2.52.73,5-.86,6.77-2.47s3.87-4.26,4.2-6.91A.17.17,0,0,0,75.35,108.75Z" transform="translate(-0.93 -25.81)"/>
        <path class="cls-2" d="M80.5,115.31c1.49-1.65,3.11-4.07,3.13-6.39a.18.18,0,0,0-.22-.17,9.75,9.75,0,0,0-3.51,1.39.1.1,0,0,0-.14.06c-1.37,3.17-5.05,3.74-6.94,6.46a.28.28,0,0,0,.1.39,2.74,2.74,0,0,0,2.32.09,4.52,4.52,0,0,0-.44.88.16.16,0,0,0,.1.19C77.16,118.59,79.09,116.87,80.5,115.31Z" transform="translate(-0.93 -25.81)"/>
        <path class="cls-2" d="M91.27,110a.21.21,0,0,0-.2-.2,3.07,3.07,0,0,0-1.66.23c-.27.13-1.06.86-1.3.87a.15.15,0,0,0-.16.16c-1.65,2.5-2.94,4.91-5.66,6.45-2,1.14-4.41,1.72-6,3.47a.3.3,0,0,0,.06.47,3.42,3.42,0,0,0,3.21.27c-.22.48-.43,1-.64,1.43a.21.21,0,0,0,.12.3c2.83.52,5.41-2.4,7.18-4.18C88.66,116.79,91.63,113.79,91.27,110Z" transform="translate(-0.93 -25.81)"/>
        <path class="cls-2" d="M96,108.38a1.87,1.87,0,0,0-1.85.25c-.68.47-.63,1.1-.64,1.8a16.05,16.05,0,0,1-2.82,5,34.18,34.18,0,0,0-2.85,4.31.32.32,0,0,0,.12.43,1.76,1.76,0,0,0,2.2-.37c0,.39,0,.79.32.93.58.27,1.17-.15,1.62-.52,2-1.68,3.07-4.34,4.13-6.68C96.9,112.1,97.92,109.4,96,108.38Z" transform="translate(-0.93 -25.81)"/>
      </g>
      <path class="cls-3" d="M110,89.69c-1.39-1.67-4.11-2.73-6.22-1.84a6,6,0,0,0-2.08-2.46,7.86,7.86,0,0,0-7.36-.23,12.38,12.38,0,0,0-3.13,2.14,9.88,9.88,0,0,0-2.19-1c-3.43-1.13-10.17-.69-10,3.17-.4-.33-1-1.18-1.92-1.35a7.24,7.24,0,0,0-5.82,1.34c-1.42,1.1-2.87,2.87-2.42,4.57a2.74,2.74,0,0,0-3.77,1,4.62,4.62,0,0,0-2.38.25A5.45,5.45,0,0,0,61,97c-1.56-.52-3.86,0-4.4,1.39A3.07,3.07,0,0,0,53,99.72a2.31,2.31,0,0,0,2.67,3.06,1.61,1.61,0,0,0,1,.88c1.53.41,3.12-.66,4.13-2l.16.12a1.9,1.9,0,0,0,2.74-.64l.19,0a3.69,3.69,0,0,0,.94,0,9.31,9.31,0,0,0-.28,3.58,4.82,4.82,0,0,0,3.63,4.29,5.62,5.62,0,0,0,2.4.14c.62,2.4,3.48,3.1,5.7,3.13a10.24,10.24,0,0,0,5.47-1.42.81.81,0,0,0,.12.14c1.7,1.86,4.84,2.12,7.18,1.76a7.65,7.65,0,0,0,4.25-2.2c1.62,1,4,.64,5.7,0,2.64-1,5.09-3.17,5.63-6a.35.35,0,0,0-.15-.37l3.18-4.41a.23.23,0,0,0,.17,0C111.82,99.18,112.13,92.25,110,89.69Z" transform="translate(-0.93 -25.81)"/>
      <path class="cls-4" d="M114.52,100.31a3.33,3.33,0,0,0-2.19-1.11,9.06,9.06,0,0,0-1.94.26c-1.47.29-2.29-.45-3.24-1.4-1.81-1.8-3.76-3.2-7.37-1.39-2.13.74-2.35,1.5-5.31,1.68-1.67.1-3.94.9-4.16,2-.84,4,5.82,2.08,7.13,1.88l.62-.09h0a.39.39,0,0,0,0,.13c0,.45,0,1.44,0,1.9-.07,1.14-.2,2.28-.28,3.42-.15,1.9-.32,4.08.46,5.88,1.66,3.87,7,2.46,8.73-.61,1.87-3.33,1.09-7.52,1.13-11.2a4.83,4.83,0,0,0,4.64,1.19C113.67,102.6,115.49,101.5,114.52,100.31Z" transform="translate(-0.93 -25.81)"/>
      <circle class="cls-5" cx="100.31" cy="75.9" r="0.85"/>
      <circle class="cls-5" cx="104.07" cy="76.44" r="0.85"/>
      <path class="cls-5" d="M105.72,110.3c0-.17-.23-.25-.27-.07-.31,1.23-.77,2.62-2,3.14-1.62.66-3.09-1-3.32-2.43a.15.15,0,0,0-.28,0,2.57,2.57,0,0,0,2.42,3.11.21.21,0,0,0-.06.1,6,6,0,0,0-.12,1.58c0,.12.17,0,.34,0s.3,0,.3,0c0-.53,0-1-.12-1.58a.17.17,0,0,0-.06-.08h.16C104.55,114,105.41,111.84,105.72,110.3Z" transform="translate(-0.93 -25.81)"/>
    </g>
    <g>
      <path class="cls-1" d="M116.1,62.64c-2.19-.62-4.43-1.15-6.68-1.59a.18.18,0,0,0-.25-.2l-.23.11-.54-.11c-.19,0-.27.24-.08.29l.19,0a19.31,19.31,0,0,0-3.32,2.2.18.18,0,0,0,.07.3c3.33.56,8,1.47,10.91-.79C116.27,62.82,116.21,62.67,116.1,62.64Z" transform="translate(-0.93 -25.81)"/>
      <path class="cls-2" d="M173.4,49.17c-6.89-4-13.57-8.27-20.54-12.08-6.33-3.47-13.26-6.92-20.49-7.88C118,27.31,111,42.07,101.22,49.57c-3.56,2.71-9.69,6.21-13.07,1.46-2.4-3.39-2.82-8-4.13-11.85-1.63-4.75-4.53-9.28-9.12-11.59-5-2.5-10.92-1.93-16.18-.94C44.25,29.36,31.73,38,20.07,46.54c-3.56,2.6-7.2,5.13-10.68,7.83-2.93,2.28-6.21,4.93-8,8.27-1.12,2.13-.37,5,2.5,4.49a14.94,14.94,0,0,0,5.37-2.46C7.51,67,6,70,9.51,71.32c3.82,1.47,7.29-1.85,9.86-4.6a37.6,37.6,0,0,0-2,4c-.53,1.68,1.15,2.14,2.46,2.24,3.41.26,6.55-1.14,9.39-2.86,3.29-2,6.4-4.28,9.65-6.33S45.73,59.56,49,57.28c2.73-1.88,5.49-3.94,8.72-4.87,6-1.72,9.36,5.76,11.31,10.12.27.6.52,1.2.76,1.81-1.52,2.29-4.21,4-6.38,5.46a23,23,0,0,1-4.07,2.3,36.94,36.94,0,0,1-5.26,1.46,26.28,26.28,0,0,0-4.34,1.35c-.82.35-2.11.88-2.49,1.79-.62,1.49,1.79,2.22,2.78,2.55,2.74.91,5.69,1.53,8.49,2.2a27.1,27.1,0,0,0,10.93.73c7-1.21,12.77-6.06,19.44-8.29,6.06-2,12.14-3.85,17.21-7.9,2.74-2.18,4.77-5.06,7.36-7.39a23.25,23.25,0,0,1,8.66-5,20.14,20.14,0,0,1,10.17-.2A25.15,25.15,0,0,1,142,58.37c2.59,2,5.1,4.06,7.8,5.87a10.39,10.39,0,0,0,8.27,1.86c1.58-.37,3.45-1.14,3-3a11,11,0,0,0-2.22-3.75c3,2.56,6.65,5.06,10.46,3.51,2.33-1,1.72-3.09.57-4.93,3.06,2,7.4,3.53,9.59.68C182.45,54.73,176.15,50.74,173.4,49.17Z" transform="translate(-0.93 -25.81)"/>
    </g>
    <path class="cls-1" d="M81.81,89.89c.67-.38.44-1.71.67-2.38.53-1.6,2.69-1.63,4-1.82.45-.06.29-.7-.1-.74-1.67-.15-3.76.28-4.64,1.87-.39.71-.75,2.4-.1,3.05a.12.12,0,0,0,.13,0Z" transform="translate(-0.93 -25.81)"/>
    <path class="cls-1" d="M87.84,89.88a11.27,11.27,0,0,1,.47-2.31,1.56,1.56,0,0,1,.78-.84c.39-.16.82,0,1.23-.07a.38.38,0,0,0,.16-.62,1.93,1.93,0,0,0-2.66.57,3.93,3.93,0,0,0-.6,3.27c.09.28.55.34.62,0Z" transform="translate(-0.93 -25.81)"/>
    <path class="cls-6" d="M31.85,152c3.59,1.43,12.07.27,13.66-.46a31.94,31.94,0,0,0,6.93-4.45c2.55-2.13,5-4.39,6.2-7.44.5-1.25,1.88-8.26-1.34-10.22-8.25-5-17.92,6.09-3.41,10.92a13,13,0,0,0,10.21-1.25,20.82,20.82,0,0,0,8.78-11.82" transform="translate(-0.93 -25.81)"/>
  </g>
</svg>
