<svg xmlns="http://www.w3.org/2000/svg" viewBox="0 0 350 350"><path d="M173.45,151.7a13.9,13.9,0,0,0-3.46.7.52.52,0,0,0-.11.07l-.17-.17,0-.15a.26.26,0,0,0-.51-.14c-3.36,10.79-5.81,22-8.29,33a.43.43,0,0,0,.3.52c3.75,1.12,5.1-.43,6.08-4,1.05-3.9,1.75-7.91,2.67-11.84,1.38-5.83,2.9-11.62,3.95-17.51A.4.4,0,0,0,173.45,151.7Z" style="fill:#ffa348"/><path d="M185.77,150.15a19.79,19.79,0,0,0-4.45.73s0,0-.08,0l-.09-.18c0-.12.06-.24.08-.36a.31.31,0,0,0-.6-.16c-3.15,11.45-6.15,22.91-9.52,34.3a.43.43,0,0,0,.2.48c4.53,1.92,5.95-1,7-5.08,2.63-9.75,5.36-19.47,7.82-29.26A.41.41,0,0,0,185.77,150.15Z" style="fill:#ffa348"/><path d="M165.56,180.6c1.19,0,2.87.52,3.72.43l.72-.12c-.34-2-2.72-3.56-4.41-1.53C165.59,179.38,165.36,179.45,165.56,180.6Z" style="fill:#ffa348"/><path d="M165.56,180.81c.12,0,0,0,.1.07a.56.56,0,0,0,.2.11c.11,0,.24,0,.35.06s.47.08.71.13c.47.09.93.18,1.41.25a3.68,3.68,0,0,0,1.1,0l.69-.12a.47.47,0,0,0,.32-.57,3.49,3.49,0,0,0-2.26-2.71,2.6,2.6,0,0,0-1.82.11,2.93,2.93,0,0,0-.39.21,1.88,1.88,0,0,0-.23.16,1,1,0,0,0-.19.32,1,1,0,0,1-.13.16c0,.08-.11.18,0,.06-.08.09-.08,0-.14.14-.24.39,0,1,.11,1.42.05.18.36.16.35-.05a5.08,5.08,0,0,1,0-.78,1.33,1.33,0,0,1,.05-.19h0s.07-.06,0,0-.07,0-.11.06a1,1,0,0,0,.29-.21s.14-.1.1-.08.1,0,.1,0a.37.37,0,0,0,.14-.07c.13-.07.23-.17.36-.24a1.51,1.51,0,0,1,1.17-.14,2.21,2.21,0,0,1,1,.67,2.89,2.89,0,0,1,.67,1.41l.32-.57-.67.12c-.11,0,.11,0,0,0H169l-.57-.05-1.33-.21-.73-.09a2.41,2.41,0,0,0-.38,0,.58.58,0,0,0-.36.21l.16-.07-.18,0A.21.21,0,0,0,165.56,180.81Z" style="fill:#ffa348"/><path d="M146.68,223.83a10.29,10.29,0,0,0-3.23,0c-.47.08-2.77,1-2.36,1.42-.32-.34-.85.18-.53.51-1.48,3.51-5.91,6.11-9.29,7.47-2.5,1-5.72,1.94-7.23,4.36a.61.61,0,0,0,.21.82,5.49,5.49,0,0,0,3.69.8c-.6.76-1.28,1.46-1.9,2.2a.3.3,0,0,0,.13.5c4.76,1.38,9.39-1.63,12.8-4.68,3.67-3.27,7.34-8.05,8-13.07A.34.34,0,0,0,146.68,223.83Z" style="fill:#858fa9"/><path d="M156.42,236.25c2.83-3.13,5.9-7.71,5.93-12.1a.33.33,0,0,0-.41-.32,18.1,18.1,0,0,0-6.64,2.63.2.2,0,0,0-.27.1c-2.6,6-9.56,7.08-13.14,12.23a.54.54,0,0,0,.19.75,5.3,5.3,0,0,0,4.4.17,7.83,7.83,0,0,0-.84,1.66.28.28,0,0,0,.2.35C150.12,242.45,153.76,239.2,156.42,236.25Z" style="fill:#858fa9"/><path d="M176.81,226.18a.38.38,0,0,0-.37-.37,5.88,5.88,0,0,0-3.13.43c-.52.26-2,1.63-2.47,1.65a.32.32,0,0,0-.31.31c-3.12,4.73-5.57,9.29-10.7,12.2-3.82,2.16-8.36,3.26-11.43,6.58a.58.58,0,0,0,.12.89,6.45,6.45,0,0,0,6.07.51c-.4.9-.82,1.8-1.21,2.7-.08.21,0,.52.24.57,5.34,1,10.23-4.55,13.59-7.92C171.87,239,177.49,233.37,176.81,226.18Z" style="fill:#858fa9"/><path d="M185.77,223.12a3.52,3.52,0,0,0-3.5.48c-1.29.88-1.18,2.09-1.22,3.41a30.33,30.33,0,0,1-5.32,9.53,65.84,65.84,0,0,0-5.4,8.16.62.62,0,0,0,.21.82c1.55,1,3,.31,4.19-.7-.06.74,0,1.5.59,1.76,1.1.51,2.22-.28,3.07-1,3.82-3.19,5.82-8.22,7.81-12.64C187.47,230.16,189.4,225.05,185.77,223.12Z" style="fill:#858fa9"/><path d="M212.29,187.74c-2.62-3.16-7.78-5.15-11.77-3.48a11.18,11.18,0,0,0-4-4.65c-3.92-2.54-9.82-2.53-13.92-.45a24.21,24.21,0,0,0-5.92,4.05,19.6,19.6,0,0,0-4.16-2c-6.49-2.12-19.24-1.3-18.82,6-.77-.63-1.94-2.22-3.64-2.56a13.78,13.78,0,0,0-11,2.54c-2.69,2.08-5.43,5.43-4.58,8.65-2-1.47-6-.6-7.14,2a8.71,8.71,0,0,0-4.5.47,10.47,10.47,0,0,0-3.34,3.26c-3-1-7.32,0-8.35,2.64-1.81-.94-5.88.2-6.78,2.5-1.43,3.73,2,6.23,5.06,5.8a3,3,0,0,0,2,1.65c2.91.79,5.91-1.25,7.82-3.68.09.08.2.15.31.23,2.07,1.35,4,.44,5.19-1.21l.36.06a7.56,7.56,0,0,0,1.78,0,17.51,17.51,0,0,0-.54,6.76c.57,4.1,2.83,7,6.87,8.13a10.52,10.52,0,0,0,4.54.27c1.19,4.54,6.59,5.85,10.8,5.91A19.33,19.33,0,0,0,158.88,228l.23.27c3.22,3.52,9.18,4,13.6,3.33a14.57,14.57,0,0,0,8-4.16c3.06,1.88,7.64,1.2,10.78,0,5-1.87,9.63-6,10.66-11.4a.68.68,0,0,0-.29-.7l6-8.35a.4.4,0,0,0,.31.08C215.73,205.71,216.31,192.58,212.29,187.74Z" style="fill:#dcdde0"/><path d="M220.83,207.85a6.31,6.31,0,0,0-4.15-2.1,16.27,16.27,0,0,0-3.67.48c-2.78.56-4.34-.84-6.14-2.64-3.43-3.41-7.11-6.06-13.94-2.64-4,1.41-4.45,2.85-10.05,3.19-3.17.19-7.46,1.69-7.88,3.76-1.58,7.6,11,3.95,13.5,3.56.39-.06.77-.12,1.16-.16l.08,0a.66.66,0,0,0,0,.24c0,.86,0,2.73-.09,3.59-.14,2.16-.38,4.32-.54,6.48-.28,3.59-.59,7.73.87,11.13,3.14,7.32,13.27,4.66,16.53-1.15,3.54-6.31,2.06-14.23,2.13-21.21a9.11,9.11,0,0,0,8.8,2.25C219.21,212.18,222.66,210.1,220.83,207.85Z" style="fill:#414355"/><path d="M197.3,210.5a1.61,1.61,0,1,1-1.61-1.61A1.61,1.61,0,0,1,197.3,210.5Z" style="fill:#2a9cc8"/><path d="M204.42,211.51a1.61,1.61,0,1,1-1.61-1.61A1.62,1.62,0,0,1,204.42,211.51Z" style="fill:#2a9cc8"/><path d="M204.17,226.76c.06-.33-.43-.47-.52-.14-.59,2.33-1.45,5-3.87,5.95-3.06,1.25-5.85-1.89-6.28-4.6-.05-.26-.5-.26-.54,0a4.88,4.88,0,0,0,4.59,5.89.28.28,0,0,0-.12.19,12,12,0,0,0-.23,3c0,.22.33.08.65.09s.57,0,.56-.09a27,27,0,0,0-.23-3,.29.29,0,0,0-.1-.16h.3C202,233.81,203.59,229.68,204.17,226.76Z" style="fill:#2a9cc8"/><path d="M223.83,136.54c-4.16-1.17-8.4-2.18-12.66-3a.33.33,0,0,0-.47-.38l-.42.21-1-.2c-.35-.06-.5.45-.15.53l.36.09a37,37,0,0,0-6.29,4.16.34.34,0,0,0,.15.56c6.3,1.07,15.15,2.8,20.65-1.48A.29.29,0,0,0,223.83,136.54Z" style="fill:#ffa348"/><path d="M332.28,111c-13-7.46-25.69-15.65-38.87-22.87-12-6.56-25.11-13.09-38.8-14.9-27.3-3.61-40.37,24.34-59,38.53-6.74,5.14-18.35,11.76-24.73,2.76-4.56-6.41-5.34-15.13-7.83-22.42-3.07-9-8.57-17.57-17.26-22-9.37-4.72-20.66-3.65-30.62-1.78C87.82,73.56,64.12,90,42,106.07c-6.73,4.92-13.61,9.71-20.2,14.82-5.56,4.31-11.77,9.33-15.09,15.66-2.12,4-.7,9.52,4.73,8.49a28,28,0,0,0,10.16-4.66c-3.38,4.47-6.3,10,.41,12.59,7.24,2.79,13.8-3.49,18.67-8.71-1.16,2.58-2.88,4.9-3.74,7.63-1,3.18,2.17,4.05,4.66,4.24,6.44.5,12.39-2.15,17.77-5.41,6.22-3.76,12.1-8.11,18.27-12,6.44-4,12.93-8,19.2-12.35,5.17-3.56,10.39-7.47,16.51-9.23,11.27-3.24,17.72,10.92,21.42,19.17.5,1.13,1,2.27,1.43,3.42-2.88,4.35-8,7.61-12.07,10.34a43.44,43.44,0,0,1-7.72,4.35,69.84,69.84,0,0,1-10,2.76,50.17,50.17,0,0,0-8.22,2.56c-1.55.67-4,1.67-4.71,3.38C92.39,166,97,167.37,98.83,168c5.19,1.72,10.77,2.88,16.08,4.15,6.79,1.63,13.76,2.6,20.69,1.4,13.28-2.31,24.17-11.48,36.79-15.7,11.46-3.83,23-7.3,32.59-15,5.17-4.13,9-9.57,13.93-14a43.56,43.56,0,0,1,16.38-9.41,38.2,38.2,0,0,1,19.26-.4c6.95,1.52,12.75,5.13,18.36,9.36,4.92,3.7,9.67,7.68,14.78,11.12,4.71,3.17,10,4.8,15.66,3.51,3-.69,6.52-2.14,5.66-5.75-.63-2.6-2.5-4.83-4.21-7.09,5.6,4.83,12.59,9.57,19.8,6.64,4.4-1.8,3.26-5.86,1.08-9.34,5.78,3.8,14,6.68,18.14,1.3C349.42,121.58,337.49,114,332.28,111Z" style="fill:#858fa9"/><path d="M159,188l0-.13-.2.15h0a.67.67,0,0,0,.61-.46c-.08.21,0-.11.07-.17l0-.18a4.85,4.85,0,0,0,.09-.55c0-.29,0-.58.08-.88s0-.31,0-.47a1.49,1.49,0,0,1,0-.21s0-.07,0-.11,0,.18,0,0a8.1,8.1,0,0,1,.2-1c.05-.17.11-.33.16-.49s0,0,0-.07l.13-.26a3.24,3.24,0,0,1,.28-.47,2.43,2.43,0,0,1,.14-.2c-.13.17.07-.07.11-.12a5.66,5.66,0,0,1,.43-.42c.05,0,.24-.19.1-.09l.31-.21a4.59,4.59,0,0,1,.61-.35l.31-.15.29-.11a20.39,20.39,0,0,1,4.71-.88.7.7,0,0,0,0-1.4c-2.61-.26-5.85.27-7.79,2.2a6.59,6.59,0,0,0-1.74,4.6,9.92,9.92,0,0,0,0,1.09c0,.47,0,0,0,.24a1.94,1.94,0,0,0,0,.24c.05.4.14.71.58.85l-.14-.25,0,.13c-.05.25.32.36.39.11Z" style="fill:#ffa348"/><path d="M170.32,188.1a3.32,3.32,0,0,0,.09-.55c0-.26,0-.23.06-.49s.07-.68.11-1a.37.37,0,0,1,0-.11s0,.12,0,0l0-.22c0-.18.07-.35.11-.53s.16-.63.26-.94c0-.15.11-.3.17-.44l0-.06a2.4,2.4,0,0,1,.11-.23c.07-.13.14-.26.22-.39l.12-.17.06-.08c.06-.08-.1.11,0,0s.17-.2.26-.29l.17-.15c.15-.13-.06,0,.06,0a3.62,3.62,0,0,1,.33-.2s.24-.11.13-.07l.14,0,.26-.06.1,0c.12,0-.15,0,0,0a4.87,4.87,0,0,1,.54,0l.27,0h0l.16,0a1.91,1.91,0,0,0,.92,0c.37-.13.7-.63.41-1a2.69,2.69,0,0,0-2.68-.66,3.74,3.74,0,0,0-2,1,6.92,6.92,0,0,0-1.79,4.19,5.24,5.24,0,0,0,.16,2.55.63.63,0,0,0,.58.44.6.6,0,0,0,.58-.44Z" style="fill:#ffa348"/><path d="M64.35,305.71c6.79,2.72,22.84.51,25.85-.87a60.41,60.41,0,0,0,13.12-8.42c4.84-4,9.41-8.31,11.73-14.09,1-2.36,3.57-15.63-2.54-19.35-15.6-9.5-33.91,11.53-6.44,20.69,6.05,2,13.93.91,19.33-2.38A39.42,39.42,0,0,0,142,258.91" style="fill:none;stroke:#2a9cc8;stroke-linecap:round;stroke-miterlimit:10;stroke-width:3.052294771142006px;stroke-dasharray:0.050871580839157104,7.122021198272705"/></svg>