<svg width="177" height="120" viewBox="0 0 177 120" fill="none" xmlns="http://www.w3.org/2000/svg">
<g clip-path="url(#clip0_2834_11057)">
<path d="M134.234 83.0396C134.496 83.5094 134.762 83.9704 135.009 84.444C136.177 86.696 136.868 89.0444 136.08 91.6039C135.732 92.7387 135.246 93.835 134.826 94.9459C141.235 96.9194 147.155 95.6266 152.658 91.8939C154.429 90.6958 155.574 88.9348 156.04 86.8284C156.395 85.2332 155.905 83.7895 154.86 82.5778C153.804 81.3543 152.423 80.6398 150.946 80.0215C149.396 79.3724 147.814 78.7688 146.423 77.7931C145.71 77.2954 145.278 76.6167 145.35 75.654C145.405 74.9309 145.938 74.5878 146.384 74.2176C147.751 73.066 149.402 72.4438 151.035 71.8049C154.148 70.5911 157.348 69.5953 160.341 68.0741C164.681 65.8655 168.462 62.9401 171.495 59.0791C172.678 57.5718 173.577 55.8947 173.996 53.9993C174.539 51.5486 173.309 48.9361 171.235 47.59C170.033 46.8107 168.836 46.0923 167.465 45.7087C164.43 44.8543 161.552 45.5365 158.761 46.8254C155.939 48.1263 153.701 50.2103 151.519 52.3669C149.166 54.6922 146.939 57.1545 144.425 59.3118C143.078 60.469 141.639 61.4573 139.894 61.8859C138.733 62.1695 137.714 62.0761 136.844 61.087C136.116 60.267 135.338 59.4648 134.427 58.8354C132.251 62.7026 130.102 66.5915 127.879 70.4316C127.194 71.6165 126.518 72.8174 125.82 73.9949C125.33 74.8212 124.529 75.5909 124.507 76.6753C124.543 76.6727 124.573 76.6788 124.601 76.6892C125.46 75.9472 126.431 75.3683 127.365 74.7336C128.9 73.6963 130.479 72.7714 132.179 72.0551C134.618 71.0333 137.184 70.4159 139.725 69.7545C142.611 69.0076 145.251 67.8748 147.628 66.0048C151.343 63.0759 154.623 59.6594 158.174 56.5489C159.08 55.7532 159.985 54.9506 160.912 54.1785C161.405 53.7658 162.107 53.845 162.465 54.3647C162.793 54.838 162.597 55.2301 162.177 55.6039C161.121 56.5514 160.118 57.5646 159.053 58.5072C156.599 60.6811 154.234 62.9474 151.808 65.1498C149.425 67.3185 146.924 69.3439 143.908 70.5965C142.17 71.3198 140.348 71.6927 138.541 72.109C137.555 72.3365 136.592 72.6641 135.592 72.8661C134.613 73.0625 133.687 73.5628 132.743 73.9363C130.449 74.8443 128.486 76.2908 126.556 77.7975C128.451 78.8893 130.342 79.9787 132.237 81.0705C133.265 80.8901 134.291 81.04 135.257 81.2655C137.346 81.7493 139.419 82.2929 141.369 83.2595C142.289 83.714 143.048 84.2209 143.589 85.0783C143.887 85.5523 144.039 86.0344 143.628 86.512C143.35 86.8392 142.646 86.7127 142.158 86.2806C141.889 86.0441 141.666 85.7359 141.374 85.5499C139.187 84.18 136.746 83.5229 134.244 83.0333L134.234 83.0396Z" fill="#2D9BC8"/>
<path d="M50.5608 105.859C50.7131 106.266 50.8669 106.677 51.0159 107.09C51.1837 107.544 51.3467 108 51.5129 108.449C49.5956 109.289 46.9771 110.133 43.8171 110.331C42.0462 110.445 39.4879 110.575 36.452 109.504C34.9618 108.981 33.5373 108.219 32.1769 107.214C29.5511 105.267 27.2841 103.009 25.7771 100.058C24.8563 98.2532 24.737 96.4424 25.7025 94.6029C26.2701 93.5285 27.3323 93.1839 28.3392 92.783C29.2105 92.4367 30.1628 92.292 31.0014 91.861C32.6116 91.0365 33.4808 89.6681 33.7619 87.9023C34.0413 86.1477 33.9836 84.3805 33.9419 82.6134C33.8913 80.4094 33.8359 78.2069 34.2526 76.0261C34.626 74.0714 35.4301 72.3214 36.6951 70.7875C36.9989 70.4186 37.3344 70.066 37.8238 69.9285C37.8587 69.9383 37.8968 69.9419 37.9334 69.9406C39.0047 73.08 40.0744 76.2147 41.1457 79.3541C41.1764 79.4819 41.1558 79.6476 41.3416 79.6827C41.7113 80.6809 42.0794 81.6744 42.4491 82.6726C42.4233 82.7234 42.3974 82.7742 42.373 82.8298C41.6187 81.9828 41.1011 80.9849 40.5963 79.9775C40.4292 79.6396 40.2331 79.3269 39.9007 79.1486C39.5541 78.959 39.1672 78.8407 38.81 79.1262C38.4529 79.4116 38.3526 79.7886 38.5046 80.2269C38.6084 80.5323 38.666 80.8581 38.8146 81.1385C40.1586 83.6489 41.967 85.7808 44.0862 87.6634C44.1539 87.7422 44.2231 87.8257 44.2908 87.9044C44.3779 88.1252 44.2389 88.3823 44.4152 88.5848C44.4459 88.7126 44.419 88.875 44.6063 88.9149C46.0384 92.976 47.5997 96.9951 48.866 101.115C49.0468 101.708 49.2372 102.298 49.4213 102.885C49.217 102.793 49.0014 102.714 48.802 102.604C45.0512 100.546 40.9795 99.5404 36.7914 98.9278C34.8332 98.6411 32.8781 98.7243 30.9484 99.1648C30.225 99.3307 29.8831 99.8761 30.0339 100.442C30.1523 100.907 30.828 101.281 31.4319 101.154C33.9747 100.6 36.4784 100.889 38.9898 101.384C40.2757 101.634 43.1913 102.644 48.9814 104.994C49.6136 105.25 50.1333 105.468 50.474 105.607C50.5003 105.688 50.5362 105.767 50.5673 105.847L50.5608 105.859Z" fill="#2D9BC8"/>
<path d="M79.7867 15.6406L96.6263 34.6816" stroke="#2D9BC8" stroke-width="3"/>
<path d="M68.8228 18.5859L63.7343 43.5182" stroke="#2D9BC8" stroke-width="3"/>
<rect width="98.391" height="72.0676" rx="15" transform="matrix(0.965753 -0.259465 0.258175 0.966098 32.1801 50.0312)" fill="#FAC18A"/>
<ellipse cx="9.46067" cy="9.48257" rx="9.46067" ry="9.48257" transform="matrix(0.965753 -0.259465 0.258175 0.966098 61.251 4.91016)" fill="#FAC18A"/>
<path d="M85.133 56.3578L82.2974 56.9665L84.3134 54.8139C85.2947 53.7653 85.251 52.0948 84.2157 51.0849C83.1804 50.0749 81.5441 50.1062 80.5628 51.1549L72.7696 59.4805C72.2022 60.086 71.9533 60.9356 72.1028 61.7662C72.2518 62.5951 72.78 63.3064 73.5226 63.6783L84.2971 69.0615C84.8374 69.3321 85.4241 69.3928 85.9673 69.2762C86.7172 69.1152 87.3872 68.6152 87.7453 67.8584C88.3639 66.5505 87.8236 64.9715 86.5386 64.3274L82.5204 62.3199L86.2358 61.5223C92.0085 60.283 97.7308 64.0768 98.9911 69.9789L99.6479 73.0547C100.908 78.9567 97.2368 84.7672 91.4641 86.0065L85.0253 87.3887C83.6306 87.6881 82.7483 89.0869 83.0524 90.511C83.3565 91.9351 84.7327 92.849 86.1273 92.5496L92.5661 91.1673C101.123 89.3304 106.565 80.7172 104.697 71.9688L104.04 68.893C102.172 60.1447 93.6914 54.5205 85.133 56.3578Z" fill="white"/>
</g>
<defs>
<clipPath id="clip0_2834_11057">
<rect width="176" height="120" fill="white" transform="translate(0.5)"/>
</clipPath>
</defs>
</svg>
