<svg xmlns="http://www.w3.org/2000/svg" viewBox="0 0 350 350"><path d="M181,68c-1.12-.39-4-.86-4.68.5-.58,1.13,1.68,2.47,2.37,2.92,2.79,1.84,5.56,4.13,3.4,7.72A15.36,15.36,0,0,1,177.53,84a.28.28,0,0,0-.49,0l-.38.5a5.74,5.74,0,0,1-1.16.41c-.34.08-.19.58.14.52.14,0,.27-.06.41-.09a3.26,3.26,0,0,0-.55,1.54.41.41,0,0,0,.41.42A11.31,11.31,0,0,0,187,79.57C188.52,74.89,185.53,69.55,181,68Z" style="fill:#ffa348"/><path d="M152.72,92.24a.11.11,0,0,0-.11,0c-.23,0-.45,0-.68.06a.1.1,0,0,0,0,.19l.12,0,.08.08c0,.16-.62.46-.9.72a20.67,20.67,0,0,0-1.87,2,26,26,0,0,0-2.83,4.15,23.73,23.73,0,0,0-2.91,9.39.42.42,0,0,0,.21.36c2.38,1.45,4.24-2.7,5-4.26a36.7,36.7,0,0,1,1.77-3.94c1.66-2.61,3.7-5,5.14-7.71a.45.45,0,0,0-.07-.52A2.19,2.19,0,0,0,152.72,92.24Z" style="fill:#ffa348"/><path d="M177.86,75.12a.5.5,0,0,0-.22-.83,34.37,34.37,0,0,0-3.47-1c-1.22-.32-.64-1.71-1.11-2.76a4.19,4.19,0,0,0-3.59-2.14c-3.72.31-4.76,1.07-6.13,2.66A12.9,12.9,0,0,0,161,74.71c-.95,2.43-1.08,3.4.49,5.43,2.4,3.08-1.53,5.48,2.74,7.08.92.34,3-.49,3.32-.69,1.21-.64.88-2.76,2.17-3.31,1.59-.69,2.56.14,4.22-2.28a17.22,17.22,0,0,0,1.14-2.86C175.57,76.94,176.66,76.15,177.86,75.12Z" style="fill:#ffa348"/><path d="M152,92.84a17.19,17.19,0,0,1,2.77.55c1.74.6,0,2.74-.57,3.88a27.07,27.07,0,0,0-2.05,5.82c-.23,1.83,1.37,1.38,3,1.6,2.28.35,4.91,1,7.31.69,2.17-.23,3.11-1.94,4.14-3.77,1.71-3.08,2.48-7.54,5.22-9.94,1.26-1,3-1.6,4.11-2.74a10.44,10.44,0,0,0,2.57-5c-1.8.09-4.16.89-6.11,1a19.22,19.22,0,0,1-2.62.12,12,12,0,0,0-2.8.37c-2.29.57-4.26-.46-5.71-.26-2.3.32-4.34,2.74-6.17,4.11-1,.73-1.43,1.49-2.34,2.06-.46.34-1.32.68-1.43,1.26Z" style="fill:#fff"/><path d="M165.58,85.47a9.5,9.5,0,0,0,2.55-.07A37.7,37.7,0,0,0,172,85c2.34-.3,4.7-.63,7-1l-.43-.56c-.73,1.31-1.06,2.77-1.67,4.13-.88,2-2.93,2.42-4.56,3.64S169.88,94.2,169,96c-1,2.14-2.06,4.27-3,6.46-.49,1.13-1,2.27-1.57,3.36-.3.57-2.26.56-2.87.68a20.83,20.83,0,0,1-7.67.18c-1.95-.35-2.41-1.53-1.68-3.25.41-1,.67-2,1-3,.77-2.21,1.84-4.43,2.73-6.6a.4.4,0,0,0-.19-.46,7.91,7.91,0,0,0-2-.76c-.7-.09-1.93.13-2.46-.42-.12.31-.25.62-.38.93.72,0,1.11-1,1.61-1.45.75-.66,1.51-1.3,2.24-2s1.49-.93,2.16-1.5c1.48-1.25,3.9-3.78,6-2.8a3.56,3.56,0,0,0,3.24.23.25.25,0,0,0-.13-.48,4.08,4.08,0,0,1-3.21-.49,1.94,1.94,0,0,0-1.13-.22c-1.46.24-2.7,1.4-3.84,2.27-1.32,1-2.68,1.92-4,3-.77.64-1.57,1.21-2.35,1.83-.45.36-.52.53-.64.52a.55.55,0,0,0-.39.93,2.34,2.34,0,0,0,1.47.57,20.84,20.84,0,0,1,3.49.58l-.28-.5c-.73,2.71-2.17,5.13-3,7.78-.5,1.52-1.65,3.35-.62,4.88s3.69,1.31,5.14,1.35c2.66.09,5.18-.76,7.81-.74a.38.38,0,0,0,.32-.18c1.2-2.39,2.15-4.91,3.28-7.33s2.28-5.43,4.29-7.32c1.54-1.46,3.76-1.53,5-3.34,1-1.48,1.24-3.42,1.87-5.06a.38.38,0,0,0-.47-.46A31.54,31.54,0,0,1,172,84.46l-3.3.4a13.61,13.61,0,0,1-3,.22c-.25,0-.37.32-.11.39Z" style="fill:#414355"/><path d="M172.21,68.43c-.78-1.2-2.51-1.07-3.84-.68a5.8,5.8,0,0,0-5.24,1.09,27.88,27.88,0,0,1-4.4,3,34.14,34.14,0,0,0-3.91,1.73,2.32,2.32,0,0,0-.94,1.78,14.82,14.82,0,0,1,0,2.49,10.8,10.8,0,0,0-.56,1.75c-.28,2.41,1.94,3.21,4,3.33a6.1,6.1,0,0,0,6.41-3.59c.73-1.34.52-3,1.24-4.35.8-1.54,3.07-2,4.54-2.52C170.74,72,173.35,70.21,172.21,68.43Z" style="fill:#858fa9"/><path d="M164,154.25c-.44-4.41-.81-8.81-1.19-13.22a97.75,97.75,0,0,1-.54-13.79c.2-3.76.95-7.43,1.35-11.16.14-1.28.22-3.24-1.58-3s-3.31,1.73-4.5,2.82a17.22,17.22,0,0,0-2.73,3v-.41a.17.17,0,0,0-.34,0l-.06,1.07c-.05.09-.09.18-.13.27a2.21,2.21,0,0,0-.18.4.27.27,0,0,0,.25.38c-.15,2.19-.37,4.37-.53,6.56-.23,3.17-.16,6.38-.18,9.57a146,146,0,0,0,1.48,19.7c.39,3,.87,6,1.12,9s.91,5.78,1.27,8.7c.25,2.08.54,4.56,2.1,6.1,1.3,1.28,3.62.6,5.21,1a.38.38,0,0,0,.48-.36A213.62,213.62,0,0,0,164,154.25Z" style="fill:#2a9cc8"/><path d="M203.1,117.6a38.79,38.79,0,0,0-9-8.57c-8.44-5.66-18.29-7.34-28.27-6.42-3,.27-6,.77-8.91,1.3a16.4,16.4,0,0,0-6.57-.87,33.19,33.19,0,0,0-8,1c-5.08,1.31-9.56,4.37-13.51,7.72s-8.25,6.57-10.76,11.16a40.86,40.86,0,0,0-4.64,15.76c0,.45.46.6.79.46,2.45-1.05,4.13-3.22,5.87-5.15a38,38,0,0,1,8.34-6.4c3-1.87,5.69-4.07,8.68-5.89a64,64,0,0,1,7.38-3.76,55,55,0,0,0-7,7.46,45,45,0,0,0-7,14c-1,4.1-1.49,5.94-1.37,10.28.09,3.67.68,6.28,1.27,6.53,1.81.78,4.09-2.78,4.86-3.77,2.66-3.44,5.23-7,7.79-10.48,6.15-8.5,10.74-14.6,16.69-23.24a74.29,74.29,0,0,0,5,7.09c3,3.76,5.47,6.87,8.11,10.85s4.41,6.56,6.86,10.62a39.29,39.29,0,0,0,7.27,9.29.38.38,0,0,0,.64-.27A58.45,58.45,0,0,0,182,129.64a76.71,76.71,0,0,0-6.72-11.88c-1.75-2.44-2.52-4-4.92-6.33,3.83,1.1,6.5,1.88,10.22,3.32a49.45,49.45,0,0,1,13.55,8.15c3.34,2.76,6.85,5.42,10.06,8.34,5.35,4.87,4.4.29,3.75-2.44C206.64,123.54,205.29,120.61,203.1,117.6Z" style="fill:#414355"/><path d="M40.21,204.77c8.53,0,17.06,0,25.59,0,4.39,0,8.74-.18,13.11-.6s8.57-.95,12.88-1.14c9-.41,18.12,0,27.14.12s18.16.09,27.23-.29,18-1.35,27-1.64,18.31-.19,27.47,0c18.23.43,36.48,1.31,54.7.32,9-.49,17.89-.31,26.87-.22,4.45,0,8.9,0,13.36,0,2,0,4.08.06,6.12-.14s4-.55,6.05-.72a17.65,17.65,0,0,1,6,.34A.45.45,0,0,0,314,200c-3.75-1.1-7.61-.29-11.4.16a109.81,109.81,0,0,1-12.83.24c-8.87,0-17.74-.34-26.61-.15-4.6.09-9.19.46-13.79.62s-9.21.22-13.82.22c-9.21,0-18.41-.29-27.62-.53s-18.15-.44-27.24-.32-18.21.89-27.33,1.57c-18.24,1.36-36.54.75-54.8.68A127,127,0,0,0,85.5,203c-4.34.42-8.67.95-13,1.17-8.67.44-17.42.08-26.1.09H40.21a.25.25,0,0,0,0,.49Z" style="fill:#414355"/><path d="M61.14,250.1a15.83,15.83,0,0,0,5.18.31A26.91,26.91,0,0,0,72,248.88c3.81-1.43,7.45-3.21,11.32-4.47,8.51-2.79,17.22-4.88,26.2-5.12a52.71,52.71,0,0,1,12.79.85,51,51,0,0,1,11.43,4.23c7.17,3.56,13.61,8.39,21,11.5a48.13,48.13,0,0,0,12.34,3.41,36,36,0,0,0,13.16-.81c1.05-.25.85-2-.26-1.92a50.1,50.1,0,0,1-22.49-3.1c-7.41-2.84-13.72-7.64-20.73-11.25a61.08,61.08,0,0,0-11.34-4.63,44.37,44.37,0,0,0-12.14-1.41,72.87,72.87,0,0,0-12.94,1.11,72.23,72.23,0,0,0-12.67,3.91c-4.33,1.63-8.61,3.43-12.85,5.27s-8.9,3.66-13.54,3c-.44-.07-.65.59-.19.68Z" style="fill:#414355"/><path d="M191.65,256.44c3.93-1.09,7.28-3.55,11.2-4.62,4.6-1.27,9.3-2.28,14-3.27,2.29-.48,4.58-1,6.88-1.4s4.64-.72,6.91-1.33a41.89,41.89,0,0,0,11.68-5.13,1.14,1.14,0,0,0-.87-2.07c-4.19.82-7.95,3.13-12.1,4.16-4.48,1.12-9.11,1.65-13.61,2.67s-9.3,1.94-13.58,3.71c-3.81,1.58-7.07,4.21-10.87,5.8-.88.37-.58,1.75.4,1.48Z" style="fill:#414355"/><path d="M137.74,272.13a15.2,15.2,0,0,0,7.64,1c2.75-.25,5.52-.56,8.26-.92,6.38-.84,12.74-2.33,19-3.65A91.16,91.16,0,0,1,190,266.32a36.52,36.52,0,0,1,9.62.75c1.34.33,2.65.75,4,1.2,1.63.56,3.25,1.36,4.92,1.82,3.08.83,6.57.77,9.74.77,3.4,0,6.82-.11,10.22-.39a.61.61,0,0,0,0-1.22c-5.92-.45-11.88.11-17.73-1.07-3.07-.62-5.88-2.3-8.83-3.34a29.28,29.28,0,0,0-8.94-1.67c-12.23-.46-24.11,3.13-36,5.49-3.17.63-6.37,1.12-9.53,1.79-2.92.61-6.37,1.55-9.31.75-.54-.14-.94.7-.39.93Z" style="fill:#414355"/><path d="M216.58,260.21a48.28,48.28,0,0,0,13.08-.93c4.51-.89,8.87-2.4,13.33-3.49A90.21,90.21,0,0,1,270,253.3a68.73,68.73,0,0,1,7.81,1c2.61.47,5.51,1.25,8.18,1,.9-.08,1.55-1.48.52-1.94a36.85,36.85,0,0,0-6.95-1.91c-2.31-.5-4.62-1-7-1.32a68.55,68.55,0,0,0-14.1-.49,86.14,86.14,0,0,0-13.67,2c-4.43,1-8.72,2.43-13,3.8-5,1.6-10,3.47-15.25,3.92a.4.4,0,0,0,0,.79Z" style="fill:#414355"/><path d="M239.22,281.18c2.53,1.5,5.34,1.33,8.17.94a91,91,0,0,0,9.38-2c3.78-.94,7.5-2.11,11.29-3a37,37,0,0,1,11.92-.8c2.22.2,4.45.4,6.66.7,1.11.16,2.23.33,3.34.51s2.22.18,3.36.27a1.11,1.11,0,0,0,.55-2.05,12.61,12.61,0,0,0-2.45-1.19,25.13,25.13,0,0,0-2.86-.63c-2-.35-4.1-.6-6.16-.83a42.3,42.3,0,0,0-12.05.06c-7.05,1.21-13.48,4.63-20.33,6.58-3.16.89-7.29,1.84-10.51.68-.44-.16-.69.51-.31.74Z" style="fill:#414355"/><path d="M54.16,259.58c1.26,1.42,3.33,1.72,5.13,1.76a39.34,39.34,0,0,0,6-.46c2.73-.36,5.48-.53,8.21-.86,3.24-.38,6.47-.91,9.7-1.42,6-1,11.93-2.43,18-2.83a44,44,0,0,1,8.89.06c2.71.37,5.36,1,8,1.59,6.81,1.37,13.8,1.39,20.57,3a.64.64,0,0,0,.35-1.24c-5.75-2.08-12-2.06-17.89-3.52-5.55-1.37-10.69-3.66-16.51-3.77-6-.12-11.73,1.29-17.55,2.38-6.19,1.15-12.39,2.26-18.61,3.28-2.4.4-4.76,1-7.16,1.37a17.07,17.07,0,0,1-6.9.12.32.32,0,0,0-.3.53Z" style="fill:#414355"/><path d="M41.24,275.67c5,1,10.18.69,15.29.4s10.48-.29,15.59-1.19a1.42,1.42,0,0,0,0-2.72c-5.1-.89-10.46-.35-15.59,0-2.54.17-5.05.33-7.59.36a42.3,42.3,0,0,0-7.7.67,1.3,1.3,0,0,0,0,2.48Z" style="fill:#414355"/><path d="M87.28,281.32a80.36,80.36,0,0,0,9,0c2.92-.23,5.81-.69,8.7-1.14,5.69-.88,11.61-1.73,17.32-.63,5.33,1,10.47,2.9,15.74,4.15a53.75,53.75,0,0,0,8.06,1.32,54.26,54.26,0,0,0,8.64-.27,85,85,0,0,1,21,.56c.5.08.73-.66.21-.79-5.92-1.57-12.09-1.77-18.19-1.64-3,.07-6.12.33-9.16.15a35.12,35.12,0,0,1-8.23-1.64c-5.18-1.6-10.13-3.86-15.42-5.07-5.87-1.35-11.69-1-17.58,0-3.25.56-6.48,1.29-9.7,2-3.43.81-6.93,1.83-10.46,2a.49.49,0,0,0,0,1Z" style="fill:#414355"/><path d="M191.78,283.12c3.57.66,6.85-.73,10.38-.84a24.85,24.85,0,0,1,5.38.44c1.92.35,3.79,1,5.72,1.27.44.06.83-.57.34-.79A25.75,25.75,0,0,0,202.93,281c-3.71,0-7.31,1.6-11,1.19a.49.49,0,0,0-.13.95Z" style="fill:#414355"/><path d="M254.5,228.48c2.08,0,4.16.21,6.24.25a33.12,33.12,0,0,0,6-.57,29.48,29.48,0,0,1,5.79-.2,11.49,11.49,0,0,0,5.43-.7c.42-.2.12-.85-.3-.73a17.38,17.38,0,0,1-5.57.41,26.63,26.63,0,0,0-5.5.27,39.21,39.21,0,0,1-6.1.64c-2,0-4,.23-6,.24a.2.2,0,0,0,0,.39Z" style="fill:#414355"/><path d="M243.08,219.88c1.94.1,3.87.15,5.82.18a38.72,38.72,0,0,0,5.7-.09.38.38,0,0,0,0-.73,38.72,38.72,0,0,0-5.7-.09c-2,0-3.88.08-5.82.18a.28.28,0,0,0,0,.55Z" style="fill:#414355"/><path d="M273.69,215.27c2.54.07,5.06.2,7.6.22,1.19,0,2.38,0,3.57,0a20,20,0,0,0,3.55-.12.37.37,0,0,0,0-.71,20,20,0,0,0-3.55-.12c-1.19,0-2.38,0-3.57,0-2.54,0-5.06.15-7.6.22a.24.24,0,0,0,0,.47Z" style="fill:#414355"/><path d="M232.37,207.84c1,1.31,3.19,1.15,4.6,1,1.75-.16,3.46-.53,5.19-.76a.39.39,0,0,0,0-.77,7.63,7.63,0,0,0-2,.17c-.93.15-1.85.31-2.78.44a17.48,17.48,0,0,1-2.71.21,2.46,2.46,0,0,1-1.92-.6c-.17-.19-.51.07-.36.28Z" style="fill:#414355"/><path d="M254.5,211.12c1.4,0,2.79.16,4.19.13a18.41,18.41,0,0,0,4.12-.48.32.32,0,0,0-.09-.62c-2.73.2-5.48.53-8.22.58a.2.2,0,0,0,0,.39Z" style="fill:#414355"/><path d="M287.4,237.16c3.35.11,6.69-.33,10-.3,1.51,0,3,.08,4.53,0a8.12,8.12,0,0,0,3.88-.94.36.36,0,0,0-.27-.66,24.59,24.59,0,0,1-4,.62c-1.48.06-3,0-4.44,0s-3,.12-4.47.26c-1.76.16-3.5.55-5.26.63a.2.2,0,0,0,0,.39Z" style="fill:#414355"/><path d="M294.09,224.34c1.15.91,2.78.86,4.16.7a21.29,21.29,0,0,0,4.32-1,.36.36,0,0,0-.19-.69c-1.33.24-2.63.63-4,.85s-2.93.49-4.05-.25c-.22-.14-.49.2-.28.37Z" style="fill:#414355"/><path d="M297,209.31c2.6,0,5.17.32,7.77.13a.35.35,0,0,0,0-.69c-2.6-.19-5.17.1-7.77.13a.22.22,0,0,0,0,.43Z" style="fill:#414355"/><path d="M57.58,234c-3.23-.2-6.49-.08-9.72,0l-4.74.14a32.42,32.42,0,0,0-4.83.21.38.38,0,0,0,0,.73,23.9,23.9,0,0,0,4.71.07l4.86-.18c3.24-.12,6.48-.23,9.72-.44a.28.28,0,0,0,0-.55Z" style="fill:#414355"/><path d="M67.63,222.09c-1.65.13-3.3.23-4.95.26l-2.58,0a17.66,17.66,0,0,0-2.62.09.36.36,0,0,0,0,.68,15.31,15.31,0,0,0,2.62.09c.89,0,1.78,0,2.67-.08a34.13,34.13,0,0,0,4.93-.56.26.26,0,0,0-.07-.5Z" style="fill:#414355"/><path d="M48.37,215.71c-2.08.6-4.27.23-6.39,0-1.93-.16-4.39-.4-6.08.77a.4.4,0,0,0,.31.73,12.11,12.11,0,0,1,3-.63,26.25,26.25,0,0,1,3.32.09,12.82,12.82,0,0,0,6-.55c.26-.11.08-.52-.19-.45Z" style="fill:#414355"/><path d="M74.48,212.53c-1.67.15-3.35.18-5,.2s-3.37-.08-5,.11a.37.37,0,0,0,0,.74,31.26,31.26,0,0,0,5.12,0,38.15,38.15,0,0,0,5-.59c.24-.05.19-.46-.06-.44Z" style="fill:#414355"/><path d="M45.6,246.21a23.2,23.2,0,0,1-4.47.67,42.78,42.78,0,0,0-4.68.19.42.42,0,0,0,0,.81,19.2,19.2,0,0,0,4.85,0,15.63,15.63,0,0,0,4.49-.94.36.36,0,0,0-.19-.7Z" style="fill:#414355"/><path d="M290.4,177.6c-1.47-.55-3.24-.31-4.76-.25a5.55,5.55,0,0,1-3-.41,5.39,5.39,0,0,1-2-2.57c-1.19-2.43-2.28-6.11-5.64-6.19-2.53-.06-4.4,1.79-5.67,3.87-.28-4.41-2.48-8.49-6.88-10.15a10.92,10.92,0,0,0-8.17.48,8.78,8.78,0,0,0-3.68,2.42,16.69,16.69,0,0,0-1.88,4.34A9.85,9.85,0,0,0,243,167c-2.41-.07-4.81,1.31-6.75,2.61a8.11,8.11,0,0,0-3.38,4.52,8.72,8.72,0,0,0-.1,5c-2.66,1.09-5.41,2-5.11,5.48.26,3.12,3.92,4.3,6.54,4.36a.29.29,0,0,0,.3-.26,47.62,47.62,0,0,0,10.05.7c5.18-.06,10.35,0,15.53,0A161.24,161.24,0,0,0,282,187.86a32.47,32.47,0,0,0,7.65-1.84c1.62-.65,3.43-1.67,3.89-3.48C294.07,180.45,292.21,178.27,290.4,177.6Z" style="fill:#dcdde0"/><path d="M115.57,181.91c-.11-3.24-.18-6.86-3.7-8a4.9,4.9,0,0,0-5.62,1.48,9.73,9.73,0,0,0-4.31-7.26c-3.18-2.13-6.12.42-8.26,2.75-.57-5.49-3.34-10.93-9.08-12.36-4.82-1.2-12.7,1.51-13.7,6.94a7.76,7.76,0,0,0-8.67.18,9.32,9.32,0,0,0-3.46,10.25c-2.93-.25-6-.23-8.63,1.14a9,9,0,0,0-4.39,7.21c-.55,5.52,5.29,7.3,9.65,7.8a54.26,54.26,0,0,0,8.36.12c3.66-.14,7.29,0,11,.14,11.06.33,22.13,0,33.17-.6,4.2-.22,7.17,0,11.37-.14,0,0,3.65,0,5.6,0a6.92,6.92,0,0,0,5.82-3.2c2-2.75,0-5.42-1.76-8.06C125.32,174.94,118.13,177,115.57,181.91Z" style="fill:#dcdde0"/><path d="M233.39,230.9C226.69,224,221.64,216,216,208.29c-5.47-7.55-12.2-13.73-19.39-19.6A74.74,74.74,0,0,0,185.36,181a46.37,46.37,0,0,0-13.08-4.58c-9.78-2-20.06-3.4-29.86-.88-6.58,1.7-12.81,5.25-18.45,9a96.89,96.89,0,0,0-15.71,13.08c-5.13,5.22-9.78,11-14.49,16.6a146.92,146.92,0,0,0-11.44,15.2c-.57.6-.82,1.46-.35,1.42,8.72-3.27,18.65-4,28-3.19,10.77.9,20.87,4.36,31,7.92,9.63,3.38,19.31,7.64,29.44,9.25s20.53-.45,30.22-3.52c5.46-1.73,10.3-4.44,15.41-7s11.19-4.88,16.86-2.5C233.39,232,233.71,231.23,233.39,230.9Z" style="fill:#fcc18b"/></svg>