<svg width="292" height="322" viewBox="0 0 292 322" fill="none" xmlns="http://www.w3.org/2000/svg">
<g clip-path="url(#clip0_1711_7310)">
<path d="M185.87 72.89C174.29 48.75 126.19 50.52 77.9901 73.46C29.7901 96.4 5.04005 146.71 16.5401 170.89C28.0401 195.07 69.5401 189.89 117.04 164.39C164.04 139.14 195.87 93.72 185.87 72.89Z" fill="#DCDDE0"/>
<path d="M135.37 250.22C187.26 250.22 230.87 236.88 236.7 213.09C237.146 211.28 237.371 209.424 237.37 207.56C237.37 180.31 192.07 159.25 130.37 158.89C74.72 158.56 35.79 176.24 34.73 205.61C34.73 206.15 34.73 206.68 34.73 207.22C35.04 234.47 79.59 250.22 135.37 250.22Z" fill="#DCDDE0"/>
<path d="M164.7 205.16L165.39 206.68L195.5 258.71L221.37 261.22L174.04 179.42L172.95 177.06L46.3701 244.22L84.1701 247.9L164.7 205.16Z" fill="#FFA348"/>
<path d="M135.35 202.94C134.831 201.932 134.257 200.954 133.63 200.01L134.45 199.44C135.099 200.406 135.694 201.407 136.23 202.44L135.35 202.94Z" fill="white"/>
<path d="M137.36 201.76C137.12 201.35 135.64 199.04 135.36 198.68L136.18 198.1C136.45 198.48 137.95 200.82 138.18 201.27L137.36 201.76Z" fill="white"/>
<path d="M139.34 200.65C139.25 200.36 138.19 198.16 137.71 197.34L138.57 196.83C139.209 197.975 139.786 199.153 140.3 200.36L139.34 200.65Z" fill="white"/>
<path d="M141.39 199.71C141.16 199.17 140.67 198.3 140.23 197.52C139.99 197.09 139.76 196.68 139.6 196.37L140.48 195.91C140.64 196.21 140.86 196.61 141.1 197.03C141.55 197.83 142.1 198.73 142.31 199.32L141.39 199.71Z" fill="white"/>
<path d="M65.3601 239.76C65.1201 239.35 63.6401 237.04 63.3601 236.68L64.1801 236.1C64.4501 236.48 65.9501 238.82 66.1801 239.27L65.3601 239.76Z" fill="white"/>
<path d="M63.3601 240.76C63.1201 240.35 61.6401 238.04 61.3601 237.68L62.1801 237.1C62.4501 237.48 63.9501 239.82 64.1801 240.27L63.3601 240.76Z" fill="white"/>
<path d="M67.3399 238.65C67.2499 238.36 66.19 236.16 65.71 235.34L66.5699 234.83C67.2089 235.975 67.7864 237.153 68.3 238.36L67.3399 238.65Z" fill="white"/>
<path d="M69.3901 237.71C69.1601 237.17 68.6701 236.3 68.2301 235.52C67.9901 235.09 67.7601 234.68 67.6001 234.37L68.4801 233.91C68.6401 234.21 68.8601 234.61 69.1001 235.03C69.5501 235.83 70.1001 236.73 70.3101 237.32L69.3901 237.71Z" fill="white"/>
<path d="M145.35 196.94C144.831 195.932 144.257 194.954 143.63 194.01L144.45 193.44C145.099 194.406 145.694 195.407 146.23 196.44L145.35 196.94Z" fill="white"/>
<path d="M147.36 195.76C147.12 195.35 145.64 193.04 145.36 192.68L146.18 192.1C146.45 192.48 147.95 194.82 148.18 195.27L147.36 195.76Z" fill="white"/>
<path d="M149.44 194.62C148.887 193.523 148.28 192.455 147.62 191.42L148.45 190.86C149.159 191.963 149.807 193.105 150.39 194.28L149.44 194.62Z" fill="white"/>
<path d="M151.39 193.71C151.16 193.17 150.67 192.3 150.23 191.52C149.99 191.09 149.76 190.68 149.6 190.37L150.48 189.91C150.64 190.21 150.87 190.61 151.11 191.03C151.55 191.83 152.06 192.73 152.31 193.32L151.39 193.71Z" fill="white"/>
<path d="M155.35 191.94C154.831 190.932 154.257 189.954 153.63 189.01L154.45 188.44C155.099 189.406 155.694 190.407 156.23 191.44L155.35 191.94Z" fill="white"/>
<path d="M157.36 190.76C157.12 190.35 155.64 188.04 155.36 187.68L156.18 187.1C156.45 187.48 157.95 189.82 158.18 190.27L157.36 190.76Z" fill="white"/>
<path d="M159.44 189.62C158.887 188.523 158.28 187.455 157.62 186.42L158.45 185.86C159.159 186.963 159.807 188.105 160.39 189.28L159.44 189.62Z" fill="white"/>
<path d="M161.39 188.71C161.16 188.17 160.67 187.3 160.23 186.52C159.99 186.09 159.76 185.68 159.6 185.37L160.48 184.91C160.64 185.21 160.87 185.61 161.11 186.03C161.55 186.83 162.06 187.73 162.31 188.32L161.39 188.71Z" fill="white"/>
<path d="M165.35 186.94C164.831 185.932 164.257 184.954 163.63 184.01L164.45 183.44C165.099 184.406 165.694 185.407 166.23 186.44L165.35 186.94Z" fill="white"/>
<path d="M167.36 185.76C167.12 185.35 165.64 183.04 165.36 182.68L166.18 182.1C166.45 182.48 167.95 184.82 168.18 185.27L167.36 185.76Z" fill="white"/>
<path d="M169.44 184.62C168.887 183.523 168.28 182.455 167.62 181.42L168.45 180.86C169.159 181.963 169.807 183.105 170.39 184.28L169.44 184.62Z" fill="white"/>
<path d="M171.39 183.71C171.16 183.17 170.67 182.3 170.23 181.52C169.99 181.09 169.76 180.68 169.6 180.37L170.48 179.91C170.64 180.21 170.87 180.61 171.11 181.03C171.55 181.83 172.06 182.73 172.31 183.32L171.39 183.71Z" fill="white"/>
<path d="M145.11 201.65C144.58 200.78 142.58 197.07 141.72 195.37L142.61 194.92C143.51 196.69 145.49 200.35 145.97 201.13L145.11 201.65Z" fill="white"/>
<path d="M135.11 206.65C134.58 205.78 132.58 202.07 131.72 200.37L132.61 199.92C133.51 201.69 135.49 205.35 135.97 206.13L135.11 206.65Z" fill="white"/>
<path d="M165.11 190.65C164.58 189.78 162.58 186.07 161.72 184.37L162.61 183.92C163.51 185.69 165.49 189.35 165.97 190.13L165.11 190.65Z" fill="white"/>
<path d="M155.11 195.65C154.58 194.78 152.58 191.07 151.72 189.37L152.61 188.92C153.51 190.69 155.49 194.35 155.97 195.13L155.11 195.65Z" fill="white"/>
<path d="M131.54 204.69L130.92 203.56L129.92 201.69L130.81 201.22L131.81 203.08L132.43 204.21L131.54 204.69Z" fill="white"/>
<path d="M213.92 88.22C213.56 91.9 211.25 94.81 209.05 97.62C206.7 100.62 204.77 103.33 201.59 105.54C199.28 107.14 192.26 110.24 193.84 104.4C194.152 103.427 194.693 102.542 195.416 101.82C196.14 101.098 197.026 100.56 198 100.25C200.92 99.25 201.19 102.94 201.27 104.89C201.57 111.72 194.27 119.48 187.62 120.15C184.48 120.46 185.88 116.15 188.37 116.02C191.29 115.83 190.49 121.48 190.22 122.94C189.443 126.831 187.488 130.389 184.62 133.13C183.163 134.651 181.262 135.673 179.19 136.05C176.83 136.31 175.3 134.7 176.47 132.48C177.13 131.22 178.12 131.1 179.37 131.06C181.21 131 181.59 133.14 181.68 134.46C181.813 136.624 181.597 138.795 181.04 140.89C180.17 144.2 177.8 147.06 176.04 149.89C174.906 151.629 173.234 152.949 171.28 153.65C170.572 153.956 169.811 154.122 169.04 154.14C167.7 154.14 167.63 153.4 167.26 152.29C166.51 150.09 166.85 147.56 168.85 146.19C171.39 144.45 173.45 147.58 173.79 149.63C174.07 151.34 174.27 153.06 174.45 154.78C174.69 157.01 173.05 159 171.76 160.63C169.76 163.08 169.43 166.72 165.95 167.76C160.68 169.35 163.49 158.36 166.95 164.22C168.16 166.22 168.36 169.05 168.51 171.34C168.78 175.68 168.45 180.06 166.16 183.86C165.078 185.748 163.568 187.354 161.75 188.55C161.135 188.959 160.413 189.176 159.675 189.176C158.937 189.176 158.215 188.959 157.6 188.55C156.32 187.55 157.1 183.81 158.12 182.81C160.64 180.32 161.33 184.37 161.72 185.92C162.31 188.24 161.63 190.98 161.5 193.32C161.3 195.853 160.707 198.34 159.74 200.69C158.92 202.83 157.99 205.26 156.27 206.83C155.596 207.425 154.806 207.874 153.95 208.15C151.68 208.94 150.57 206.53 150.85 204.73C151.08 203.23 152.99 200.44 154.75 202.93C155.185 203.659 155.521 204.443 155.75 205.26C156.619 207.646 157.115 210.153 157.22 212.69C157.178 214.98 156.551 217.221 155.4 219.2C153.33 223.31 151.22 218.36 150.96 217.42C150.47 216.21 150.78 215.91 151.88 216.53C152.061 217.077 152.207 217.635 152.32 218.2C152.605 219.661 152.594 221.165 152.286 222.622C151.979 224.079 151.381 225.459 150.53 226.68C148.53 229.97 144.92 232.42 143.53 236.11C143.31 236.7 144.24 236.95 144.45 236.37C145.55 233.37 148.45 230.92 150.39 228.43C152.419 225.995 153.502 222.909 153.44 219.74C153.39 218.39 153.11 214.93 151.54 214.38C149.79 213.76 149.82 215.7 149.89 216.91C150.11 220.65 154.74 223.2 156.5 218.99C157.73 216.477 158.261 213.679 158.04 210.89C157.767 208.114 157.013 205.407 155.81 202.89C154.08 199.12 149.98 201.89 149.87 205.15C149.71 209.76 154.13 209.69 156.92 207.44C158.92 205.86 159.67 203.13 160.61 200.9C162.03 197.51 162.15 194.23 162.61 190.67C162.77 189.43 162.82 178.67 159.04 180.92C158.179 181.372 157.457 182.048 156.95 182.877C156.443 183.707 156.17 184.658 156.16 185.63C156.05 187.68 156.37 189.38 158.55 189.99C163.12 191.26 167 184.87 168.33 181.5C169.259 178.792 169.653 175.929 169.49 173.07C169.621 169.856 169.076 166.65 167.89 163.66C167.744 163.239 167.515 162.852 167.216 162.522C166.917 162.192 166.555 161.926 166.15 161.739C165.746 161.552 165.308 161.449 164.863 161.435C164.418 161.422 163.975 161.498 163.56 161.66C161.64 162.32 161.56 164.8 161.91 166.39C162.118 167.203 162.593 167.923 163.258 168.434C163.923 168.945 164.741 169.218 165.58 169.21C167.72 169.36 169.82 167.26 170.89 165.67C171.83 164.28 172.4 162.56 173.44 161.26C174.237 160.288 174.931 159.236 175.51 158.12C176.8 155.54 176.06 152.52 175.62 149.81C175.24 147.44 174.43 145.46 172.15 144.33C170.07 143.33 167.69 144.41 166.37 146.07C164.84 147.99 164.98 150.47 165.63 152.69C166.08 154.2 166.68 155.99 168.63 155.69C174.74 154.79 177.63 150.13 180.42 145.05C181.833 142.548 182.708 139.779 182.99 136.92C183.24 134.4 183.3 131.61 181.16 129.92C179.81 128.84 177.4 129.29 176.16 130.21C175.409 130.794 174.853 131.593 174.565 132.5C174.278 133.407 174.273 134.38 174.55 135.29C176.11 140.71 183.34 136.03 185.55 133.96C189.75 129.96 192.35 123.68 191.55 117.89C190.92 113.23 185.64 114.12 184.33 117.89C182.52 123.03 189.33 121.89 191.88 120.57C194.537 119.15 196.833 117.141 198.594 114.698C200.355 112.254 201.534 109.439 202.04 106.47C202.35 104.74 202.46 101.47 201.44 99.97C200.42 98.47 197.91 98.79 196.44 99.41C193.66 100.58 189.44 106.77 193.36 109.08C197.84 111.69 204.18 106.38 206.95 103.24C208.79 101.002 210.506 98.6655 212.09 96.24C213.846 93.9402 214.811 91.1337 214.84 88.24C214.824 88.1309 214.769 88.0313 214.685 87.9593C214.602 87.8873 214.495 87.8477 214.385 87.8477C214.275 87.8477 214.168 87.8873 214.085 87.9593C214.001 88.0313 213.946 88.1309 213.93 88.24L213.92 88.22Z" fill="#414355"/>
<path d="M215.04 80.39L211.54 88.14L215.91 90.02L219.69 83.26L215.04 80.39Z" fill="#414355"/>
<path d="M222.97 71.58C225.587 72.7546 228.348 73.5784 231.18 74.03L240.79 55.89L250.79 34.89L233.04 27.64L217.29 60.14L214.59 67.02C215.449 67.8174 216.395 68.5152 217.41 69.1C219.17 70.08 221.14 70.77 222.97 71.58Z" fill="#858FA9"/>
<path d="M213.63 69.46L209.54 79.89L224.6 86.44L229.47 77.26C226.74 76.4149 224.067 75.3928 221.47 74.2C218.646 72.9981 216.006 71.4023 213.63 69.46Z" fill="#858FA9"/>
<path d="M222.97 71.58C221.14 70.77 219.17 70.08 217.41 69.1C216.392 68.515 215.446 67.8136 214.59 67.01L213.59 69.46C215.959 71.3978 218.588 72.9934 221.4 74.2C223.998 75.3911 226.67 76.4133 229.4 77.26L231.11 74.03C228.301 73.5725 225.565 72.7488 222.97 71.58Z" fill="#414355"/>
<path d="M239.85 0.330033C231.39 1.24003 227.21 8.95003 226.34 15.19C225.01 24.66 230.53 31.92 239.51 34.72C243.15 35.86 247.18 37.22 251.02 36.52C253.09 36.1896 255.066 35.422 256.816 34.2685C258.566 33.115 260.05 31.6019 261.17 29.83C265.35 23.07 269.27 10.45 260.88 5.02003C257 2.50003 253.25 0.550028 248.73 0.200028C245.775 -0.106649 242.795 -0.0630086 239.85 0.330033Z" fill="#414355"/>
<path d="M265.66 17.56C265.66 17.23 265.74 16.89 265.77 16.56C264.222 16.1429 262.653 15.8091 261.07 15.56C261.052 13.7368 260.918 11.9165 260.67 10.11C262.245 10.333 263.802 10.6672 265.33 11.11C265.219 10.7204 265.089 10.3365 264.94 9.96003C263.484 9.55961 262.005 9.25232 260.51 9.04003C260.27 7.52402 259.936 6.02445 259.51 4.55003L260.41 4.71003L259.35 4.05003C258.95 3.81003 258.56 3.57003 258.16 3.35003L258.04 3.28003C258.044 3.29979 258.044 3.32026 258.04 3.34003C256.254 3.1296 254.458 3.01277 252.66 2.99003C252.42 2.23003 252.16 1.48003 251.87 0.730026L250.71 0.480026C251.04 1.30003 251.33 2.13003 251.6 2.96003L249.71 2.89003C248.71 2.89003 247.71 2.79003 246.65 2.80003C246.414 1.85936 246.12 0.934236 245.77 0.0300293H244.69C245.069 0.945991 245.379 1.88853 245.62 2.85003H245.35C243.882 2.92918 242.422 3.11298 240.98 3.40003C240.62 2.48003 240.18 1.40003 239.67 0.400032C239.32 0.400032 238.98 0.50003 238.67 0.57003C239.19 1.57003 239.67 2.65003 240.02 3.64003C239.02 3.87003 238.02 4.15003 236.84 4.54003C236.47 4.66003 236.06 4.83003 235.63 5.02003C235.356 4.00115 235.022 2.99939 234.63 2.02003C234.33 2.19003 234.05 2.37003 233.77 2.56003C234.14 3.56003 234.44 4.50003 234.7 5.43003C233.48 6.03003 232.13 6.80003 230.79 7.61003C230.68 6.97003 230.57 6.30003 230.43 5.61003C230.14 5.96003 229.87 6.33003 229.62 6.70003C229.71 7.21003 229.79 7.70003 229.86 8.18003L228.14 9.28003C227.9 9.78003 227.7 10.28 227.51 10.8L227.45 10.93C228.24 10.41 229.11 9.84003 230.02 9.27003C230.02 9.45003 230.02 9.63003 230.09 9.80003V10.13C230.22 11.22 230.35 12.32 230.46 13.43L228.4 14.29C227.7 14.59 227.01 14.9 226.33 15.23C226.27 15.63 226.24 16.02 226.21 16.41C227.06 15.97 227.92 15.58 228.79 15.21L230.57 14.47C230.73 16.09 230.85 17.71 230.89 19.34C230.89 19.51 230.89 19.7 230.89 19.88C230.31 20.09 229.72 20.3 229.15 20.55L228.61 20.79C227.97 21.06 227.24 21.37 226.53 21.79C226.61 22.13 226.7 22.46 226.8 22.79C227.515 22.4178 228.249 22.084 229 21.79L229.56 21.55C229.99 21.35 230.45 21.19 230.9 21.03C230.9 22.53 230.9 24.1 230.79 25.75C229.969 25.9528 229.161 26.2032 228.37 26.5C228.54 26.79 228.72 27.08 228.91 27.36C229.49 27.14 230.11 26.96 230.74 26.79C230.69 27.64 230.62 28.51 230.55 29.4C230.843 29.7134 231.143 30.0134 231.45 30.3C231.45 30.11 231.51 29.93 231.52 29.74C231.62 28.63 231.69 27.57 231.75 26.54C233.24 26.16 234.75 25.89 236.29 25.64C236.29 26.38 236.21 27.13 236.15 27.86C236.15 28.37 236.02 28.86 235.95 29.35C234.87 29.55 233.8 29.79 232.75 30.08L231.6 30.43C231.89 30.7 232.19 30.95 232.5 31.2C232.67 31.2 232.84 31.09 233.02 31.05C233.92 30.79 234.86 30.58 235.8 30.4C235.64 31.29 235.44 32.15 235.22 33.01C235.52 33.18 235.82 33.34 236.13 33.49C236.4 32.43 236.66 31.34 236.85 30.22C238.41 29.96 239.98 29.75 241.55 29.6C241.33 30.87 241.06 32.13 240.77 33.39C239.4 33.49 237.92 33.59 236.49 33.66C237.193 33.9936 237.914 34.2874 238.65 34.54L240.53 34.41C240.53 34.64 240.42 34.87 240.36 35.11L241.36 35.4C241.45 35.04 241.54 34.69 241.62 34.33C243.15 34.2 244.48 34.06 245.32 33.91L246.1 33.81C245.95 34.71 245.77 35.61 245.54 36.48C245.87 36.54 246.2 36.6 246.54 36.64C246.79 35.6709 246.99 34.6896 247.14 33.7C248.65 33.58 250.21 33.6 251.74 33.63C251.74 33.63 251.74 33.68 251.74 33.71C251.57 34.61 251.36 35.6 251.12 36.62C251.49 36.55 251.85 36.46 252.21 36.36C252.41 35.5 252.58 34.67 252.73 33.9C252.73 33.82 252.73 33.73 252.73 33.65H253.73C255.04 33.65 256.25 33.71 257.41 33.77V33.97L257.67 33.78C258.039 33.5061 258.393 33.2123 258.73 32.9H258.78C259.09 31.73 259.37 30.54 259.63 29.34C260.22 29.47 260.81 29.6 261.39 29.76C261.56 29.47 261.74 29.18 261.91 28.87C261.22 28.68 260.53 28.51 259.84 28.37C260.2 26.59 260.5 24.79 260.73 22.99C261.918 23.1708 263.091 23.4382 264.24 23.79L264.57 22.85C263.349 22.4778 262.102 22.1938 260.84 22C261.036 20.2265 261.143 18.4443 261.16 16.66C262.675 16.8794 264.177 17.1799 265.66 17.56ZM260.06 15.34C259.12 15.21 258.18 15.1 257.26 15.04C256.34 14.98 255.51 14.98 254.62 14.99C254.575 13.1858 254.421 11.3858 254.16 9.60003C255.988 9.59295 257.815 9.69982 259.63 9.92003C259.887 11.7156 260.024 13.5263 260.04 15.34H260.06ZM253.67 16.65C253.67 18.36 253.58 20.05 253.44 21.72C251.65 21.87 249.93 22.08 248.3 22.34C248.37 20.51 248.38 18.61 248.3 16.66C250.056 16.3452 251.829 16.1315 253.61 16.02C253.65 16.23 253.67 16.44 253.67 16.65ZM252.74 27.65C251.11 27.65 249.49 27.81 247.88 27.96C248.05 26.49 248.17 24.96 248.25 23.38C249.87 23.12 251.58 22.9 253.35 22.75C253.19 24.39 252.98 26.03 252.74 27.63V27.65ZM237.16 14.65C237.1 13.84 237.02 13 236.93 12.16L238.35 11.75C239.35 11.5 240.43 11.23 241.71 10.96C241.83 12.03 241.92 13.1 241.99 14.15C242.06 15.2 242.11 16.03 242.15 16.93L241.22 17.15C240.22 17.39 239.22 17.61 238.27 17.83L237.36 18.04C237.32 16.95 237.25 15.82 237.16 14.67V14.65ZM253.63 15.01C251.846 15.1141 250.07 15.3211 248.31 15.63V14.52C248.24 12.93 248.12 11.42 247.96 9.95003C249.62 9.76003 251.38 9.63003 253.19 9.60003C253.441 11.4 253.588 13.2131 253.63 15.03V15.01ZM247.29 22.48C245.82 22.73 244.45 22.99 243.19 23.26C243.26 21.51 243.26 19.68 243.19 17.71C244.56 17.39 245.95 17.08 247.35 16.81C247.38 18.79 247.37 20.68 247.29 22.5V22.48ZM247.29 14.56C247.29 14.98 247.29 15.39 247.29 15.8C245.89 16.07 244.49 16.37 243.11 16.69C243.11 15.85 243.03 14.98 242.96 14.08C242.88 12.99 242.79 11.88 242.66 10.76C243.96 10.51 245.39 10.27 246.9 10.07C247.09 11.53 247.21 13.01 247.28 14.58L247.29 14.56ZM237.4 19.06L238.5 18.81C239.5 18.59 240.5 18.37 241.5 18.12L242.23 17.95C242.3 19.95 242.29 21.73 242.23 23.47C240.68 23.8 239.09 24.05 237.55 24.3H237.42C237.44 22.63 237.44 20.89 237.39 19.08L237.4 19.06ZM242.93 27.06C243.02 26.16 243.09 25.24 243.15 24.3C244.41 24.04 245.78 23.77 247.25 23.51C247.17 25.07 247.05 26.57 246.88 28.02H246.68L243.87 28.26L242.75 28.35C242.8 27.94 242.87 27.51 242.92 27.07L242.93 27.06ZM258.39 4.37003C258.855 5.85098 259.223 7.3609 259.49 8.89003C257.671 8.68153 255.841 8.58135 254.01 8.59003C253.765 7.03549 253.431 5.49629 253.01 3.98003C254.806 4.01501 256.599 4.14854 258.38 4.38003L258.39 4.37003ZM249.66 3.87003C250.41 3.87003 251.16 3.93003 251.91 3.95003C252.361 5.48144 252.725 7.03729 253 8.61003C251.21 8.61003 249.47 8.79003 247.82 8.97003C247.63 7.53003 247.4 6.14003 247.11 4.79003C247.04 4.46003 246.97 4.12003 246.89 3.79003C247.81 3.79003 248.74 3.83003 249.65 3.89003L249.66 3.87003ZM245.41 3.81003H245.87L246.14 5.01003C246.42 6.33003 246.64 7.69003 246.82 9.10003C245.31 9.30003 243.88 9.54003 242.58 9.79003C242.344 7.93324 241.926 6.10433 241.33 4.33003C242.673 4.06775 244.033 3.89735 245.4 3.82003L245.41 3.81003ZM237.13 5.44003C238.184 5.08299 239.255 4.77927 240.34 4.53003C240.947 6.29835 241.369 8.12475 241.6 9.98003C240.27 10.25 239.09 10.53 238.11 10.79C237.67 10.91 237.26 11.04 236.83 11.17C236.615 9.40606 236.281 7.65871 235.83 5.94003C236.25 5.75148 236.681 5.58786 237.12 5.45003L237.13 5.44003ZM231.13 9.97003V9.64003C231.13 9.31003 231.04 8.98003 231 8.64003C232.36 7.80003 233.76 6.99003 235 6.37003C235.417 8.03772 235.721 9.73154 235.91 11.44C234.36 11.93 232.91 12.44 231.51 13C231.33 12 231.21 10.98 231.1 9.98003L231.13 9.97003ZM231.93 19.27C231.93 17.52 231.75 15.77 231.58 14.04C232.96 13.49 234.43 12.95 235.99 12.46C236.07 13.23 236.14 13.99 236.2 14.73C236.29 15.94 236.35 17.12 236.4 18.27C234.91 18.62 233.4 19.01 231.93 19.49V19.27ZM231.85 25.38C231.93 23.69 231.96 22.07 231.95 20.53C233.41 20.04 234.95 19.65 236.42 19.3C236.42 21.07 236.42 22.81 236.42 24.49C234.88 24.74 233.36 25.02 231.82 25.39L231.85 25.38ZM237.03 29.04C237.09 28.64 237.15 28.24 237.19 27.83C237.26 27.01 237.31 26.18 237.35 25.35L237.69 25.3C239.16 25.06 240.69 24.82 242.15 24.51C242.1 25.34 242.04 26.15 241.95 26.95C241.95 27.46 241.82 27.95 241.74 28.46C240.15 28.62 238.57 28.8 237.04 29.05L237.03 29.04ZM245.15 32.8C244.39 32.94 243.22 33.06 241.86 33.18C242.14 31.93 242.41 30.67 242.62 29.39L243.96 29.28C244.89 29.21 245.83 29.12 246.77 29.03C246.77 29.35 246.69 29.67 246.64 30.03C246.59 30.39 246.52 30.9 246.46 31.35C246.4 31.8 246.33 32.25 246.27 32.7C245.86 32.71 245.49 32.75 245.12 32.81L245.15 32.8ZM247.29 32.57C247.35 32.19 247.4 31.82 247.45 31.45C247.5 31.08 247.57 30.56 247.64 30.13L247.79 28.94C249.39 28.8 251 28.67 252.61 28.62C252.39 29.94 252.16 31.24 251.92 32.51C250.36 32.49 248.8 32.47 247.26 32.58L247.29 32.57ZM253.76 32.57H252.94C253.18 31.29 253.41 29.98 253.62 28.65C255.295 28.6243 256.968 28.7515 258.62 29.03C258.35 30.27 258.05 31.5 257.73 32.72C256.44 32.62 255.13 32.57 253.73 32.56L253.76 32.57ZM258.76 28.03C257.108 27.7522 255.435 27.6184 253.76 27.63C254.01 26 254.22 24.35 254.37 22.63C255.01 22.63 255.65 22.55 256.3 22.53C257.419 22.5013 258.539 22.5547 259.65 22.69C259.42 24.49 259.12 26.27 258.76 28.02V28.03ZM259.76 21.73C258.602 21.5867 257.436 21.5299 256.27 21.56C255.66 21.56 255.06 21.62 254.46 21.66C254.59 20.01 254.67 18.35 254.68 16.66C254.68 16.44 254.68 16.22 254.68 16C255.53 16 256.38 16 257.22 16C258.06 16 259.13 16.18 260.09 16.32C260.078 18.125 259.964 19.9278 259.75 21.72L259.76 21.73Z" fill="#2A9CC8"/>
<path d="M70.79 222.14C73.42 226.82 79.43 229.88 83.29 234.22C91.04 242.89 98.04 252.09 107.53 256.89C118.99 262.66 131.08 263.89 145.46 263.75C159.04 263.59 157.04 244.13 151.73 236.1C147.21 229.27 140.37 228.1 133.54 222.75C131.942 221.633 130.604 220.183 129.62 218.5C128.26 215.5 128.46 212.59 129.62 207.39C131.08 200.63 129.92 189.76 124.08 185.09C114.91 177.75 97.75 179.25 89.41 183.59C72.64 192.26 60.96 204.64 70.79 222.14Z" fill="#FCC18B"/>
<path d="M70.37 198.89C60.72 212.26 61.12 225.44 70.21 234.89C74.37 239.22 81.4 241.24 84.37 246.89C88.37 254.54 75.97 258.89 79.04 263.72C83.37 270.56 95.52 277.21 98.21 260.39C99.74 250.79 98.95 244.15 94.21 239.39C90.72 235.89 84.21 233.81 79.37 230.22C70.37 223.56 66.03 216.48 69.71 204.06C70.5906 201.218 71.6459 198.432 72.87 195.72L70.37 198.89Z" fill="#858FA9"/>
<path d="M63.8501 142.76C70.1001 139.76 75.6001 136.91 81.8501 133.95C83.6001 133.12 82.8501 130.77 81.1001 131.59C74.8501 134.59 69.2301 137.59 62.9801 140.51C61.2301 141.34 62.1201 143.88 63.8601 143.06L63.8501 142.76Z" fill="#2A9CC8"/>
<path d="M65.85 147.76C72.1 144.81 77.6 141.91 83.85 138.95C85.6 138.12 84.85 135.77 83.1 136.59C76.85 139.59 71.23 142.59 64.98 145.51C63.23 146.34 65.85 147.76 65.85 147.76Z" fill="#2A9CC8"/>
<path d="M67.85 152.76C74.1 149.81 79.6 146.91 85.85 143.95C87.6 143.12 86.85 140.77 85.1 141.59C78.85 144.59 73.23 147.59 66.98 150.51C65.23 151.34 67.85 152.76 67.85 152.76Z" fill="#2A9CC8"/>
<path d="M67.54 147.43C68.33 146.81 67.68 145.94 67.04 145.43C66.6462 145.091 66.1393 144.913 65.62 144.93C64.3185 145.239 63.0979 145.822 62.04 146.64C61.8336 146.892 61.695 147.192 61.6372 147.512C61.5795 147.832 61.6045 148.162 61.71 148.47C61.96 149.18 62.86 149.3 63.37 149.22C64.8926 148.998 66.3304 148.381 67.54 147.43Z" fill="#414355"/>
<path d="M63.7401 144.89C64.072 144.673 64.3535 144.388 64.5657 144.053C64.7779 143.719 64.9158 143.342 64.9701 142.95C65.0056 142.137 64.8551 141.326 64.5301 140.58C64.4184 140.3 64.2487 140.047 64.032 139.838C63.8153 139.628 63.5567 139.467 63.2731 139.365C62.9896 139.263 62.6876 139.222 62.3871 139.245C62.0866 139.269 61.7945 139.355 61.5301 139.5C60.8339 139.779 60.2736 140.318 59.9675 141.003C59.6615 141.688 59.6337 142.465 59.8901 143.17C60.1471 143.868 60.5938 144.481 61.1801 144.94C61.5794 145.138 62.0205 145.237 62.4662 145.229C62.9119 145.22 63.3489 145.104 63.7401 144.89Z" fill="#414355"/>
<path d="M67.9499 149.98C66.6699 150.05 65.0299 150.41 64.5699 151.8C64.1099 153.19 66.3399 153.59 67.1699 153.73C67.9109 153.899 68.6866 153.821 69.3799 153.51C69.6962 153.324 69.9666 153.07 70.1709 152.765C70.3752 152.46 70.5082 152.113 70.5599 151.75C70.9599 150.18 69.0999 149.95 67.9499 149.98Z" fill="#414355"/>
<path d="M84.56 130.21C83.56 129.15 81.8301 129.59 80.9101 130.51C80.4648 130.948 80.1831 131.525 80.1122 132.146C80.0412 132.767 80.1852 133.393 80.5201 133.92C81.3401 135.38 83.6101 134.6 84.5201 133.75C84.7616 133.524 84.955 133.251 85.0883 132.949C85.2217 132.646 85.2924 132.319 85.2961 131.989C85.2999 131.658 85.2366 131.33 85.1101 131.024C84.9836 130.718 84.7965 130.441 84.56 130.21Z" fill="#414355"/>
<path d="M87.7299 136.99C87.9699 135.69 87.3199 134.92 85.7299 134.89C85.0318 134.82 84.3303 134.987 83.7388 135.364C83.1473 135.741 82.7002 136.307 82.4699 136.97C82.3464 137.263 82.3015 137.584 82.3396 137.9C82.3778 138.216 82.4977 138.516 82.6876 138.772C82.8774 139.027 83.1306 139.229 83.4221 139.356C83.7136 139.484 84.0334 139.534 84.3499 139.5C85.1666 139.495 85.9622 139.24 86.6299 138.77C86.9367 138.577 87.1953 138.316 87.386 138.007C87.5766 137.699 87.6943 137.351 87.7299 136.99Z" fill="#414355"/>
<path d="M89.8499 141.36C89.4899 140.18 88.4399 139.87 86.9799 140.26C85.5199 140.65 84.9799 142.13 84.6899 143.6C84.3599 145.22 85.9999 145.71 87.2599 145.11C88.5199 144.51 90.3499 142.99 89.8499 141.36Z" fill="#414355"/>
<path d="M85.9199 150.51L78.9799 131.51C78.9799 131.51 78.4199 129.76 77.5399 129.33C76.3699 128.74 74.7299 129.76 74.7299 129.76L66.6699 133.39C66.6699 133.39 64.1199 134.71 63.6699 135.51C63.5034 135.819 63.4213 136.167 63.4318 136.518C63.4423 136.869 63.5452 137.211 63.7299 137.51L74.5999 156.51V156.74C79.1899 154.9 82.3799 153.93 86.1399 151.26L85.9199 150.51Z" fill="#858FA9"/>
<path d="M112.04 211.22L85.3699 149.06C81.3699 151.06 77.9699 152.55 73.3699 154.39L101.37 215.72L112.04 211.22Z" fill="#FFA348"/>
<path d="M109.35 229.52C115.254 229.52 120.04 224.873 120.04 219.14C120.04 213.407 115.254 208.76 109.35 208.76C103.446 208.76 98.6599 213.407 98.6599 219.14C98.6599 224.873 103.446 229.52 109.35 229.52Z" fill="#414355"/>
<path d="M244.54 197.64C250.32 189.8 253.29 183.64 249.79 179.89C246.47 176.34 239.22 176.99 232 179.84C211.66 187.89 230.54 216.64 244.54 197.64Z" fill="#FCC18B"/>
<path d="M221.29 195.39C216.04 207.39 212.04 217.64 208.29 223.39C206.05 226.83 199.12 241.39 197.54 245.14C207.23 244.38 224.08 241.23 229.04 232.64C232.86 226.03 234.89 219.98 237.79 212.89C239.12 209.65 242.36 202.2 243.54 198.89C233.03 203.17 227.79 199.72 226.21 197.56C224.63 195.4 221.29 195.39 221.29 195.39Z" fill="#414355"/>
<path d="M277.7 177.56L249.66 189.64L221.54 198.64L222.45 160.77L274.87 138.56L277.7 177.56Z" fill="#2A9CC8"/>
<path d="M221.79 198.64L203.04 194.39L205.54 156.89L223.41 160.31L221.79 198.64Z" fill="#414355"/>
<path d="M279.04 156.51C273.71 155.18 264.24 153.2 260.04 152.89C250.04 152.14 243.96 162.57 243.04 169.26C241.67 179.26 246.42 183.93 256.92 186.26C260.29 187.01 270.48 189.39 276.04 189.39C286.04 189.39 289.87 182.34 291.04 174.14C292.54 163.64 289.54 159.14 279.04 156.51Z" fill="#414355"/>
<path d="M281.63 161.2C285.09 169.69 281.83 179.39 276.48 186.81C278.79 186.981 281.093 186.395 283.04 185.14C287.04 182.32 288.69 175.96 289.04 171.76C289.65 164.4 285.84 161.33 281.63 161.2Z" fill="#858FA9"/>
<path d="M281.63 161.2C279.248 161.157 276.922 161.929 275.04 163.39C269.41 167.76 266.16 179.2 271.92 184.89C273.163 186.059 274.785 186.741 276.49 186.81C284.54 179.39 286.79 168.01 281.63 161.2Z" fill="#DCDDE0"/>
<path d="M278.46 164.35C278.98 164.45 279.68 166.71 279.73 166.87C280.163 168.587 280.187 170.382 279.8 172.11C279.2 174.81 277.87 177.19 276.89 179.76C276.72 180.21 277.42 180.63 277.73 180.24C280.068 177.261 281.399 173.615 281.53 169.83C281.53 168.26 280.84 163.31 278.46 163.76C278.398 163.78 278.343 163.82 278.305 163.873C278.266 163.926 278.245 163.989 278.245 164.055C278.245 164.121 278.266 164.184 278.305 164.237C278.343 164.29 278.398 164.33 278.46 164.35Z" fill="white"/>
<path d="M259.54 134.02L205.54 156.89L223.53 160.5L274.91 138.56L259.54 134.02Z" fill="#858FA9"/>
<path d="M255.6 146.7L239.04 153.83L241.2 143.06L249.54 139.97L255.6 146.7Z" fill="white"/>
<path d="M241.41 143.02L230.12 139.72L223.37 149.39L238.95 153.81L241.41 143.02Z" fill="#414355"/>
<path d="M244.29 135.27L230.22 139.77L241.35 143.39L249.87 140.18L244.29 135.27Z" fill="#858FA9"/>
<path d="M222.04 156.8C221.6 157.17 221.32 157.8 221.92 158.3C223.04 158.95 225.46 158.54 225.6 157.2C225.73 156.08 223.04 155.8 222.04 156.8Z" fill="#414355"/>
<path d="M193.62 191.81C196.05 187.52 200.79 177.97 207.29 177.06C210.8 176.56 207.99 182.53 206.62 185.89C208.02 184.09 211.29 180.81 213.21 182.22C215.13 183.63 213.79 186.39 212.62 189.06C212.27 189.87 210.74 193.33 210.46 194.22C215.04 190.72 217.54 189.16 218.79 191.47C220.04 193.78 217.71 197.64 213.96 202.47C211.34 205.85 206.86 214.47 204.29 218.06C202.22 220.93 201.73 220.62 197.51 220.14C191.81 219.51 187.77 219.49 187.04 216.14C186.7 214.57 186.36 210.68 187.21 208.31C188.96 203.39 190.79 196.81 193.62 191.81Z" fill="#FCC18B"/>
<path d="M187.21 207.31C180.54 221.06 176.67 231.26 171.42 242.01C169.62 245.7 165.99 250.85 164.42 254.64C174.11 253.88 187.12 257.21 192.08 248.64C195.9 242.03 197.97 235.5 200.87 228.41C202.2 225.17 204.19 220.55 205.37 217.24C194.87 221.53 190.79 217.74 189.21 215.58C187.63 213.42 187.21 207.31 187.21 207.31Z" fill="#414355"/>
<path d="M187.32 208.04C188.093 206.504 188.684 204.883 189.08 203.21C189.74 201.03 190.55 198.87 191.37 196.74C193.15 192.2 195.9 188.1 198.57 184.06C200.242 181.485 202.64 179.463 205.46 178.25C206 178.04 208.46 176.94 208.18 178.83C208.05 179.514 207.852 180.184 207.59 180.83C205.97 185.6 203.4 189.56 201.09 193.99L202.57 194.61C203.13 192.04 205.18 189.28 206.57 187.07C207.28 185.792 208.192 184.638 209.27 183.65C210.63 182.57 213.75 180.8 213.95 184.12C214.1 186.83 212.32 189.25 210.95 191.45C210.27 192.57 209.66 193.73 208.95 194.82C208.331 195.996 207.583 197.099 206.72 198.11L207.92 199.03C209.38 196.82 211.33 195.14 212.92 193.08C213.908 191.976 215.192 191.178 216.62 190.78C218.96 189.99 219.16 192.78 218.74 194.29C218.19 196.29 216.29 198.48 215.1 200.16C214.3 201.28 213.41 202.23 212.7 203.39C209.88 208.03 206.89 212.64 204.44 217.48C204.413 217.553 204.412 217.633 204.438 217.706C204.464 217.779 204.515 217.841 204.582 217.88C204.648 217.919 204.727 217.934 204.804 217.921C204.88 217.908 204.95 217.869 205 217.81C207 214.81 208.81 211.67 210.68 208.57C212.68 205.28 214.83 202.31 216.97 199.14C218.08 197.49 220.06 195.21 219.97 193.06C219.97 192 219.6 189.99 218.34 189.64C216.4 189.11 214.1 190.37 212.64 191.47C210.262 193.398 208.203 195.689 206.54 198.26C206.04 199.02 207.12 199.74 207.74 199.19C208.92 198.13 209.59 196.19 210.41 194.81C211.41 193.06 212.41 191.18 213.31 189.36C214.21 187.54 215.8 183.81 214.15 181.84C209.96 176.84 202.44 191.89 201 193.99C200.41 194.85 201.82 195.67 202.4 194.81C205.615 190.255 208.023 185.181 209.52 179.81C209.88 178.42 209.8 177.11 208.58 176.26C207.36 175.41 204.37 177.26 203.4 177.9C198.77 180.77 195.92 186.65 193.28 191.22C190.32 196.46 189.04 202.28 187.04 207.89C186.97 208.09 187.27 208.2 187.37 208.03L187.32 208.04Z" fill="#414355"/>
<path d="M171.69 47.53C167.767 43.0116 163.357 38.9403 158.54 35.39C145.32 25.67 127.96 19.14 109.96 17.16L109.78 17.07C108.7 16.95 107.62 16.86 106.53 16.78L106.68 16.84C103.68 16.62 100.14 16.42 97.2099 16.45C95.1099 16.45 92.9899 16.53 90.8799 16.67C88.5599 16.82 85.8799 17.14 83.4699 17.45C82.9799 17.51 82.4699 17.59 82.0199 17.67C75.1069 18.7393 68.3008 20.4123 61.6799 22.67L61.0399 22.89L60.6599 23.02C55.9077 24.7423 51.2801 26.7905 46.8099 29.15C46.3499 29.39 45.8999 29.65 45.4499 29.9C43.3999 31.03 41.2299 32.41 39.2299 33.73C39.2342 33.7103 39.2342 33.6898 39.2299 33.67L38.7399 33.99L38.6599 34.07L38.3999 34.3C33.5946 37.5132 29.1194 41.1945 25.0399 45.29L24.0399 46.35C18.4393 52.2412 13.7235 58.9141 10.0399 66.16C9.5799 67.08 9.12989 68 8.68989 68.95C1.37989 84.71 -1.96009 104.47 1.35991 128.64C3.53991 144.51 11.8599 167.39 20.1099 176.14C19.2271 164.835 20.5865 153.468 24.1099 142.69C24.2299 142.3 24.3599 141.91 24.4899 141.52C26.2441 136.374 28.4528 131.394 31.0899 126.64C34.8655 119.851 39.3506 113.482 44.4699 107.64L45.0399 106.89C52.4069 98.8603 60.6214 91.6517 69.5399 85.39L70.1199 84.98C73.2199 82.8 76.7099 80.55 80.1199 78.47C86.9799 74.27 90.5599 72.02 95.9099 69.68C96.0999 69.6 96.3199 69.48 96.5399 69.37C97.3399 69.03 98.5399 68.63 99.4299 68.27C99.4299 68.21 99.4299 68.16 99.4299 68.11C100.61 67.61 103.13 66.51 103.75 66.28C110.786 63.6515 117.997 61.5163 125.33 59.89L126.08 59.73C127.84 59.38 129.73 59.09 131.22 58.9L136.06 58.32C143.471 57.4656 150.968 57.7048 158.31 59.03L158.26 58.96L159.26 59.17L159.19 59.08C164.822 60.2771 170.248 62.2989 175.29 65.08C179.589 67.4656 183.399 70.6412 186.52 74.44C185.14 67.74 180.29 57.41 171.69 47.53Z" fill="#2A9CC8"/>
<path d="M174.04 58.19C172.85 54.78 172.5 51.09 171.71 47.53C167.781 43.0105 163.364 38.9391 158.54 35.39C145.32 25.67 127.96 19.14 109.96 17.16L109.78 17.07C108.7 16.95 107.62 16.86 106.53 16.78L106.68 16.84C103.68 16.62 100.14 16.42 97.2101 16.45C94.2801 16.48 93.2901 16.64 90.8801 16.67C88.4701 16.7 85.6501 17.16 83.2201 17.48C75.8904 18.5007 68.6767 20.2288 61.6801 22.64L61.0401 22.89L60.6701 23.02L60.5601 23.15C58.5101 26.31 58.7501 33.83 56.3001 36.66C52.1401 41.46 49.3001 30.59 45.4501 29.9C43.4001 31.03 41.2401 32.41 39.2401 33.73V33.67L38.7501 33.99L38.6701 34.07C36.9901 35.32 35.5101 37.8 34.6701 39.07C33.4401 40.92 32.9201 43.07 31.7601 44.98C31.1401 45.98 31.9201 46.73 31.7601 47.82C31.6275 48.2514 31.5305 48.6928 31.4701 49.14C31.4095 49.281 31.3286 49.4124 31.2301 49.53C31.1692 49.5975 31.1244 49.6779 31.0991 49.7652C31.0738 49.8524 31.0687 49.9443 31.0841 50.0339C31.0995 50.1235 31.135 50.2084 31.188 50.2822C31.2411 50.356 31.3102 50.4168 31.3901 50.46C31.3901 50.46 30.8801 51.37 30.8801 51.4C28.7901 52.67 26.9301 53.3 26.5801 55.29C26.5522 55.4105 26.5622 55.5366 26.6088 55.6512C26.6553 55.7657 26.7361 55.8631 26.8401 55.93C28.4701 56.93 29.8401 56.65 31.2501 56.18C31.1001 59.05 30.6201 61.83 28.9801 63.79C28.2922 64.4918 27.5235 65.1094 26.6901 65.63L26.7501 65.85L26.3401 65.98C26.3457 65.9469 26.3457 65.9131 26.3401 65.88C24.7601 66.88 22.8901 68.18 22.5201 69.77C21.4301 74.43 22.8301 78.56 23.0701 83.19C23.2201 86.03 24.7501 85.58 25.5401 87.61C25.5686 87.703 25.6172 87.7885 25.6826 87.8605C25.748 87.9325 25.8284 87.9891 25.9182 88.0264C26.0081 88.0637 26.105 88.0806 26.2021 88.0761C26.2992 88.0715 26.3942 88.0455 26.4801 88C28.4378 86.6904 30.1645 85.065 31.5901 83.19C31.5711 83.1284 31.5477 83.0683 31.5201 83.01C31.7425 82.913 31.9537 82.7923 32.1501 82.65C32.1325 82.6023 32.1125 82.5556 32.0901 82.51V82.43C32.5901 81.8 33.1801 81.12 33.5501 80.61C35.8901 77.43 37.5501 73.87 40.1101 70.88C42.3801 68.27 43.0101 69.57 45.1101 70.97C47.0101 72.24 50.1101 73.88 51.5401 71.82C51.9601 71.2 50.4001 67.74 50.1601 67.19C48.3201 62.92 50.8701 62.54 53.6201 62.9H54.6901L54.7701 62.97C56.3001 64.79 59.0201 68.65 59.7701 68.53C61.3601 68.26 64.3601 58.36 65.5001 57.53C68.0301 55.68 67.1701 65.33 68.8901 66.28C72.5901 68.28 82.5401 63.77 85.8901 61.65C86.8901 61.04 88.2701 59.96 89.3901 59.15L89.2301 58.92H89.4101C89.4431 58.9822 89.4798 59.0423 89.5201 59.1L89.7801 58.92H90.0001L89.9301 58.83C92.0301 57.37 94.0401 56.18 94.3901 57.42C94.6581 58.4566 94.6045 59.5502 94.2366 60.5557C93.8687 61.5612 93.2038 62.4311 92.3301 63.05L92.4901 63.31L92.3701 63.42C92.3249 63.3127 92.2714 63.2091 92.2101 63.11C90.8301 64.02 88.8601 64.83 87.8901 65.42C85.6301 66.82 78.8401 67.92 76.6401 69.42C71.8401 72.73 66.3001 71.01 60.7601 71.77L60.5201 71.86V71.92H59.6101C54.8086 72.5822 50.2107 74.2889 46.1401 76.92C41.6701 79.92 37.0201 82.36 33.2101 85.42C33.1601 85.31 33.1201 85.19 33.0701 85.08C33.0836 85.2498 33.0836 85.4203 33.0701 85.59C33.0001 85.82 32.8301 85.87 32.4001 85.87L32.4601 86.04C29.6226 88.4608 27.3609 91.4843 25.8401 94.89C24.2445 98.8762 23.3807 103.117 23.2901 107.41C23.4321 111.401 23.8936 115.373 24.6701 119.29C25.3101 122.79 28.0201 124.66 28.4201 125.16C29.7301 126.85 30.1101 127.34 30.9901 126.66C34.7717 119.875 39.2563 113.507 44.3701 107.66C44.6001 107.4 44.8301 107.15 45.0501 106.89C52.4162 98.8632 60.627 91.6547 69.5401 85.39L70.1201 84.98C73.2201 82.81 76.7101 80.55 80.1201 78.48C86.9801 74.28 90.5601 72.02 95.9101 69.69C96.1101 69.6 96.3201 69.49 96.5401 69.37C97.3401 69.04 98.5401 68.63 99.4401 68.27C99.4351 68.2201 99.4351 68.1699 99.4401 68.12C99.6991 65.9496 99.6385 63.7529 99.2601 61.6C99.1001 60.6 96.5901 58.27 99.7401 58.37C101.13 60.93 102.74 63.15 103.74 66.26C111.127 63.5812 118.684 61.3964 126.36 59.72C128.04 59.4 129.83 59.12 131.25 58.94L136.08 58.36C143.492 57.5107 150.988 57.7499 158.33 59.07V59.01L159.33 59.21L159.26 59.12C164.893 60.3156 170.318 62.3374 175.36 65.12C176.51 63.2 174.52 59.62 174.04 58.19ZM96.8101 47.64C94.9371 48.6313 92.9487 49.3871 90.8901 49.89C88.8901 50.71 86.7401 51.53 85.1801 52.07L85.0401 51.89C84.3401 51.89 84.1401 51.89 84.0401 52.26L84.1401 52.4C82.6201 52.81 81.2701 52.94 81.0101 52.4C80.7331 51.6986 80.612 50.9454 80.6552 50.1925C80.6984 49.4396 80.9048 48.7052 81.2601 48.04C81.4901 47.91 81.7601 47.79 81.9601 47.65L81.7401 47.35C84.7401 44.07 90.3601 41.65 96.5101 42.15C98.2701 42.28 97.0401 45.89 96.7901 47.64H96.8101Z" fill="#414355"/>
<path d="M9.97007 66.16C9.51007 67.0667 9.06006 67.9967 8.62006 68.95C4.63006 104.74 13.0401 127.89 24.0401 142.69C24.1601 142.3 24.2801 141.91 24.4201 141.52C13.4301 126.46 5.28007 102.82 9.97007 66.16Z" fill="#414355"/>
<path d="M31.9799 82.45C29.8047 76.912 28.0823 71.2066 26.8299 65.39C25.386 58.7926 24.7846 52.0387 25.0399 45.29L24.0399 46.35C23.9148 52.9466 24.5863 59.5343 26.0399 65.97C27.3342 71.896 29.1136 77.7055 31.3599 83.34C31.7199 84.25 32.0999 85.16 32.4799 86.06C35.6975 93.6771 39.7204 100.928 44.4799 107.69L45.0399 106.89C40.3136 100.153 36.3241 92.9284 33.1399 85.34C32.7699 84.41 32.3699 83.44 31.9799 82.45Z" fill="#414355"/>
<path d="M60.2099 71.79L60.6499 71.73C58.8799 69.17 57.1099 66.56 55.3799 63.91C48.8699 53.91 42.8999 43.5 39.1899 33.66L38.6999 33.97L38.3799 34.33C41.9199 43.64 47.4499 53.45 53.5299 62.88C55.5299 65.94 57.5299 68.96 59.5299 71.88C62.8199 76.64 66.1199 81.22 69.2399 85.49L70.0599 84.91C67.0599 80.76 63.8199 76.32 60.6299 71.71L60.2099 71.79Z" fill="#414355"/>
<path d="M83.43 17.42C82.94 17.48 82.43 17.56 81.98 17.63C101.81 31.3 114.81 43.93 125.03 59.96L126.08 59.74C115.91 43.69 103.04 31.02 83.43 17.42Z" fill="#414355"/>
<path d="M109.78 17.07C108.7 16.95 107.62 16.86 106.53 16.78C127.62 25.26 146.12 41.78 157.88 58.88C158.35 58.96 158.81 59.06 159.28 59.16C147.98 42.39 130.2 26.08 109.78 17.07Z" fill="#414355"/>
<path d="M92.5 62.75C91.62 61.4166 90.73 60.0833 89.83 58.75L87.63 55.55L86.7 54.22C86.19 53.49 85.7 52.77 85.17 52.04C84.05 50.45 82.9201 48.87 81.7701 47.28L81.17 46.47C75.17 38.31 68.84 30.21 62.05 22.47L61.05 22.82C67.97 30.66 74.4401 38.89 80.4901 47.18L81.22 48.18C82.22 49.57 83.22 50.96 84.22 52.35L85.5 54.18L86.9301 56.18L89.06 59.28C89.96 60.61 90.8601 61.94 91.7401 63.28L92.39 64.28C93.59 66.07 94.74 67.83 95.89 69.6C96.2 69.47 96.57 69.24 96.89 69.1C95.71 67.28 94.4601 65.59 93.2401 63.75L92.5 62.75Z" fill="#414355"/>
<path d="M237.37 213.72C235.26 222.92 226.5 230.72 213.37 236.72L212.37 237.18C202.938 241.138 193.104 244.058 183.04 245.89L182.04 246.08C171.339 248.081 160.514 249.344 149.64 249.86H148.64C144.293 250.073 139.88 250.177 135.4 250.17C131.67 250.17 128.21 250.1 124.59 249.96C120.97 249.82 117.07 249.63 114.07 249.35C113.07 249.35 113.07 249.3 113.07 249.28C101.923 248.432 90.8653 246.662 80.0101 243.99L79.0101 243.72C70.8403 241.655 62.9424 238.634 55.4801 234.72C53.0902 233.429 50.7915 231.975 48.6001 230.37C48.2501 230.12 47.9201 229.86 47.6001 229.6C39.6001 223.39 34.9501 215.87 34.8601 207.19C34.8601 206.65 34.8601 206.11 34.8601 205.57C33.7201 207.17 34.8601 215.57 36.5001 235.52C38.1161 255.162 45.8049 273.815 58.5001 288.89C59.0801 289.57 59.6701 290.25 60.2701 290.89C68.5903 300.15 78.6959 307.633 89.9801 312.89L91.1201 313.43C98.8229 316.878 106.951 319.282 115.29 320.58C115.62 320.64 115.96 320.68 116.29 320.73C121.612 321.536 126.988 321.924 132.37 321.89C136.497 321.837 140.513 321.623 144.42 321.25L145.42 321.15C154.418 320.268 163.282 318.335 171.83 315.39L173.06 314.95C181.857 311.792 190.12 307.307 197.56 301.65L199.04 300.5C205.55 295.284 211.275 289.158 216.04 282.31C223.788 270.947 229.225 258.171 232.04 244.71C232.84 241.09 234.04 236.71 234.54 233.39C235.21 229.22 238.21 213.89 237.37 213.72Z" fill="#2A9CC8"/>
<path d="M113.46 249.39C114.06 262.75 114.58 275.73 115.04 287.85C115.78 285.23 116.68 282.28 117.6 279.7C119.82 273.56 121.85 267.55 122.72 261.06C123.23 257.35 124.02 253.71 124.33 250.01C120.68 249.89 116.97 249.67 113.46 249.39Z" fill="#414355"/>
<path d="M55.3401 234.76C55.6634 236.193 56.0708 237.605 56.5601 238.99C58.1501 243.59 61.1501 246.73 64.1901 250.39C67.0232 254.127 71.0555 256.775 75.6101 257.89C78.6701 258.74 79.8701 261.25 81.2901 263.69C80.4601 257.31 79.7501 250.57 79.0801 243.86C70.8367 241.77 62.8684 238.715 55.3401 234.76Z" fill="#414355"/>
<path d="M79.71 243.97C80.44 251.32 81.23 258.1 82.17 265.06C84.0418 268.028 85.6385 271.161 86.9399 274.42C88.9399 279.69 89.8699 284.98 92.6199 289.93C95.3699 294.88 99.7399 299.03 102.62 304.17C107.84 313.51 110.22 303.17 112.13 297.67C112.94 295.35 113.72 292.67 114.38 290.35C113.9 277.26 113.54 263.85 112.88 249.35C101.695 248.463 90.6017 246.663 79.71 243.97Z" fill="#414355"/>
<path d="M132.72 270.03H132.66C132.3 269.802 131.865 269.723 131.447 269.809C131.03 269.895 130.662 270.139 130.42 270.49C128.72 273.35 128.73 277.72 128.26 280.9C127.98 282.78 124.1 294.28 128.04 294.46C130.33 294.56 132.39 291.98 133.61 290.35C135.79 287.46 136.03 283.94 136.33 280.43C136.54 277.92 136.67 275.43 136.68 272.93C136.68 271.6 137.2 270.98 136.48 269.81C135.61 268.35 133.84 269.73 132.72 270.03Z" fill="#414355"/>
<path d="M211.8 261.19C210.43 266.62 211.35 271.38 213.05 276.66C213.769 278.679 214.78 280.583 216.05 282.31C223.798 270.947 229.235 258.171 232.05 244.71C227.62 246.16 223.51 246.92 219.53 249.71C215.789 252.608 213.079 256.633 211.8 261.19Z" fill="#414355"/>
<path d="M149.93 267.81C151.04 267.69 151.67 266.39 151.79 265.42C151.838 265.164 151.833 264.901 151.776 264.646C151.72 264.392 151.612 264.152 151.46 263.94C151.294 263.743 151.07 263.603 150.82 263.54C150.654 263.29 150.399 263.114 150.107 263.047C149.815 262.98 149.508 263.027 149.25 263.18C149.25 264.75 149.16 266.04 149.12 267.6C149.378 267.709 149.651 267.78 149.93 267.81Z" fill="#414355"/>
<path d="M147.84 265.03C147.799 265.434 147.844 265.843 147.972 266.229C148.099 266.615 148.306 266.969 148.58 267.27C148.58 266.22 148.58 264.73 148.58 263.68C148.255 264.083 148.005 264.54 147.84 265.03Z" fill="#414355"/>
<path d="M47.45 229.64C47.75 248.9 51.45 268.71 58.45 288.93C59.03 289.61 59.6199 290.29 60.2199 290.93C52.7599 270.27 48.82 250.04 48.42 230.39C48.12 230.16 47.79 229.89 47.45 229.64Z" fill="#414355"/>
<path d="M81.5901 264.14C81.4201 263.87 81.2701 263.61 81.1101 263.34C83.4001 280.9 86.3201 297.34 89.9801 312.98L91.1201 313.51C87.5501 298.29 84.6601 282.41 82.3901 265.44L81.5901 264.14Z" fill="#414355"/>
<path d="M81.5899 264.14L82.3899 265.44C81.4633 258.487 80.6332 251.34 79.8999 244L78.8999 243.72C79.5666 250.433 80.3133 256.973 81.1399 263.34C81.2699 263.61 81.4199 263.89 81.5899 264.14Z" fill="#414355"/>
<path d="M114.29 290.64C114.67 301.01 115 310.98 115.29 320.64C115.62 320.7 115.96 320.74 116.29 320.79C115.98 310.08 115.61 299.02 115.17 287.48C114.88 288.55 114.59 289.6 114.29 290.64Z" fill="#414355"/>
<path d="M115.17 287.51C114.72 275.39 114.17 262.74 113.59 249.37L112.59 249.29C113.25 263.83 113.82 277.56 114.3 290.64C114.59 289.6 114.88 288.55 115.17 287.51Z" fill="#414355"/>
<path d="M148.61 249.89C148.61 254.557 148.573 259.19 148.5 263.79C148.5 264.84 148.44 265.89 148.42 266.93C147.95 285.43 146.62 303.57 144.42 321.22L145.42 321.13C147.58 303.75 148.9 285.9 149.42 267.71C149.42 266.15 149.5 264.59 149.53 263.02C149.61 258.647 149.643 254.253 149.63 249.84L148.61 249.89Z" fill="#414355"/>
<path d="M182.04 246.09C181.68 276.33 178.14 296.2 171.88 315.39L173.11 314.95C179.24 296.08 182.7 276.42 183.04 245.9L182.04 246.09Z" fill="#414355"/>
<path d="M212.3 237.14C211.18 256.38 206.3 277.74 197.58 301.65L199.06 300.5C207.56 276.88 212.28 255.75 213.33 236.68L212.3 237.14Z" fill="#414355"/>
<path d="M271.6 79.5C274.42 78.92 276.54 78.22 279.4 77.87C292.23 76.33 288.68 85.87 280.89 91.14C281.444 92.0399 281.887 93.0036 282.21 94.01C282.337 94.8575 282.268 95.7229 282.008 96.5395C281.748 97.356 281.304 98.102 280.71 98.72C279.29 100.14 277.44 101.18 276.96 102.06C276.12 103.56 278.71 106.89 278.19 107.63C277.46 107.81 273.1 103.63 271.46 100.89C270.082 98.6041 268.962 96.1726 268.12 93.64C267.12 94.1 264.55 95.22 263.62 95.72C260.39 97.46 254.74 98.86 249.87 99.14C245.87 99.37 242.29 98.7 242.49 98.14C242.96 97.64 246.49 96.81 247.49 95.42C248.49 94.03 247.49 91.51 247.8 89.42C248.28 85.42 250.14 82 256.95 84.06C256.17 82.06 254.66 79.38 254.55 77.25C254.23 71.37 258.83 70.04 262.88 71.84C266.07 73.25 268.4 75.77 269.88 77.25C270.54 77.89 271.27 79.22 271.6 79.5Z" fill="#FCC18B"/>
<path d="M272.71 78.42C270.27 77.72 269.36 81.75 268.88 83.42C267.88 86.88 266.79 90.95 266.88 94.59C266.88 94.91 267.23 95.25 267.57 95.11C268.66 94.67 269.19 92.98 269.57 91.93C269.57 91.86 270.42 89.61 270.81 88.5C271.62 86.25 272.64 84.18 273.24 81.84C273.43 81.04 273.96 78.41 272.71 78.42Z" fill="#858FA9"/>
<path d="M273.26 78.72C274.17 77.48 275.18 76.33 276 75.01C276.816 73.5465 278.044 72.3541 279.53 71.58C279.6 71.5446 279.654 71.4839 279.681 71.4103C279.708 71.3366 279.706 71.2555 279.676 71.1832C279.645 71.1109 279.588 71.0528 279.517 71.0207C279.445 70.9885 279.364 70.9847 279.29 71.01C276.18 72.01 274.09 75.78 272.98 78.6C272.91 78.77 273.16 78.84 273.26 78.72Z" fill="#858FA9"/>
<path d="M271.74 78.6C271.87 75.47 271.51 71.43 269.13 69.12C268.83 68.84 268.44 69.26 268.69 69.57C270.62 72 270.76 75.66 271.44 78.64C271.44 78.6798 271.456 78.7179 271.484 78.746C271.512 78.7742 271.55 78.79 271.59 78.79C271.63 78.79 271.668 78.7742 271.696 78.746C271.724 78.7179 271.74 78.6798 271.74 78.64V78.6Z" fill="#858FA9"/>
<path d="M188.73 156.26C188.479 156.261 188.231 156.198 188.01 156.078C187.79 155.959 187.602 155.785 187.466 155.574C187.33 155.363 187.248 155.121 187.23 154.871C187.211 154.62 187.256 154.369 187.36 154.14C187.526 153.775 187.829 153.49 188.203 153.346C188.577 153.202 188.992 153.211 189.36 153.37C189.544 153.448 189.711 153.562 189.849 153.706C189.988 153.85 190.096 154.021 190.167 154.208C190.238 154.394 190.271 154.594 190.263 154.794C190.255 154.993 190.206 155.19 190.12 155.37V155.42C189.992 155.678 189.794 155.894 189.548 156.043C189.301 156.192 189.018 156.267 188.73 156.26ZM186.73 163.26C186.479 163.261 186.231 163.198 186.01 163.078C185.79 162.959 185.602 162.785 185.466 162.574C185.33 162.363 185.248 162.121 185.23 161.871C185.211 161.62 185.256 161.369 185.36 161.14C185.526 160.775 185.829 160.49 186.203 160.346C186.577 160.202 186.992 160.211 187.36 160.37C187.544 160.448 187.711 160.562 187.849 160.706C187.988 160.85 188.096 161.021 188.167 161.208C188.238 161.394 188.271 161.594 188.263 161.794C188.255 161.993 188.206 162.19 188.12 162.37V162.42C187.992 162.678 187.794 162.894 187.548 163.043C187.301 163.192 187.018 163.267 186.73 163.26ZM184.73 171.26C184.479 171.261 184.231 171.198 184.01 171.078C183.79 170.959 183.602 170.785 183.466 170.574C183.33 170.363 183.248 170.121 183.23 169.871C183.211 169.62 183.256 169.369 183.36 169.14C183.526 168.775 183.829 168.49 184.203 168.346C184.577 168.202 184.992 168.211 185.36 168.37C185.544 168.448 185.711 168.562 185.849 168.706C185.988 168.85 186.096 169.021 186.167 169.208C186.238 169.394 186.271 169.594 186.263 169.794C186.255 169.993 186.206 170.19 186.12 170.37V170.42C185.992 170.678 185.794 170.894 185.548 171.043C185.301 171.192 185.018 171.267 184.73 171.26ZM183.73 178.26C183.479 178.261 183.231 178.198 183.01 178.078C182.79 177.959 182.602 177.785 182.466 177.574C182.33 177.363 182.248 177.121 182.23 176.871C182.211 176.62 182.256 176.369 182.36 176.14C182.526 175.775 182.829 175.49 183.203 175.346C183.577 175.202 183.992 175.211 184.36 175.37C184.544 175.448 184.711 175.562 184.849 175.706C184.988 175.85 185.096 176.021 185.167 176.208C185.238 176.394 185.271 176.594 185.263 176.794C185.255 176.993 185.206 177.19 185.12 177.37V177.42C184.992 177.678 184.794 177.894 184.548 178.043C184.301 178.192 184.018 178.267 183.73 178.26ZM191.85 149.94C191.602 149.938 191.359 149.877 191.14 149.76C190.796 149.573 190.539 149.26 190.423 148.886C190.307 148.512 190.342 148.108 190.52 147.76C190.709 147.418 191.021 147.162 191.393 147.043C191.765 146.924 192.168 146.951 192.52 147.12C192.693 147.21 192.846 147.333 192.972 147.482C193.097 147.631 193.192 147.803 193.25 147.989C193.309 148.175 193.33 148.371 193.313 148.565C193.296 148.759 193.24 148.947 193.15 149.12C193.027 149.361 192.842 149.565 192.613 149.709C192.384 149.854 192.12 149.933 191.85 149.94ZM195.4 143.85C195.131 143.85 194.867 143.777 194.636 143.639C194.404 143.502 194.214 143.304 194.086 143.068C193.957 142.832 193.894 142.566 193.903 142.297C193.913 142.028 193.995 141.766 194.14 141.54C194.354 141.205 194.69 140.968 195.077 140.878C195.464 140.788 195.871 140.854 196.21 141.06C196.537 141.263 196.772 141.586 196.864 141.96C196.955 142.334 196.896 142.729 196.7 143.06C196.7 143.06 196.7 143.12 196.7 143.12C196.572 143.353 196.384 143.548 196.156 143.683C195.927 143.819 195.666 143.89 195.4 143.89V143.85ZM204.4 132.85C204.131 132.85 203.867 132.777 203.636 132.639C203.404 132.502 203.214 132.304 203.086 132.068C202.957 131.832 202.894 131.566 202.903 131.297C202.913 131.028 202.995 130.766 203.14 130.54C203.354 130.205 203.69 129.968 204.077 129.878C204.464 129.788 204.871 129.854 205.21 130.06C205.537 130.263 205.772 130.586 205.864 130.96C205.955 131.334 205.896 131.729 205.7 132.06C205.7 132.06 205.7 132.12 205.7 132.12C205.572 132.353 205.384 132.548 205.156 132.683C204.927 132.819 204.666 132.89 204.4 132.89V132.85ZM199.4 138.09C199.116 138.09 198.838 138.009 198.598 137.857C198.358 137.705 198.167 137.488 198.045 137.232C197.924 136.975 197.877 136.69 197.912 136.408C197.946 136.126 198.06 135.86 198.24 135.64C198.489 135.334 198.847 135.137 199.238 135.088C199.629 135.04 200.024 135.144 200.34 135.38C200.649 135.616 200.853 135.964 200.909 136.349C200.965 136.734 200.869 137.125 200.64 137.44C200.616 137.472 200.589 137.502 200.56 137.53C200.428 137.699 200.259 137.837 200.068 137.934C199.876 138.031 199.665 138.084 199.45 138.09H199.4ZM209.17 127.96C208.855 127.96 208.548 127.861 208.293 127.677C208.038 127.493 207.846 127.233 207.747 126.934C207.647 126.636 207.644 126.313 207.738 126.013C207.832 125.712 208.018 125.449 208.27 125.26C208.586 125.026 208.979 124.921 209.37 124.968C209.76 125.014 210.118 125.208 210.37 125.51C210.614 125.812 210.731 126.197 210.696 126.584C210.66 126.97 210.475 127.328 210.18 127.58C210.148 127.612 210.111 127.639 210.07 127.66C209.826 127.848 209.528 127.954 209.22 127.96H209.17ZM227.83 118.38C227.432 118.425 227.033 118.31 226.72 118.061C226.406 117.811 226.205 117.448 226.16 117.05C226.115 116.652 226.23 116.253 226.479 115.94C226.729 115.626 227.092 115.425 227.49 115.38H227.6C227.998 115.311 228.407 115.403 228.737 115.636C229.067 115.868 229.291 116.222 229.36 116.62C229.429 117.018 229.337 117.427 229.104 117.757C228.872 118.087 228.518 118.311 228.12 118.38L227.86 116.9L228.11 118.38H227.83ZM220.83 120.38C220.432 120.425 220.033 120.31 219.72 120.061C219.406 119.811 219.205 119.448 219.16 119.05C219.115 118.652 219.23 118.253 219.479 117.94C219.729 117.626 220.092 117.425 220.49 117.38H220.6C220.998 117.311 221.407 117.403 221.737 117.636C222.067 117.868 222.291 118.222 222.36 118.62C222.429 119.018 222.337 119.427 222.104 119.757C221.872 120.087 221.518 120.311 221.12 120.38L220.86 118.9L221.11 120.38H220.83ZM214.83 123.38C214.432 123.425 214.033 123.31 213.72 123.061C213.406 122.811 213.205 122.448 213.16 122.05C213.115 121.652 213.23 121.253 213.479 120.94C213.729 120.626 214.092 120.425 214.49 120.38H214.6C214.797 120.346 214.999 120.351 215.194 120.395C215.389 120.439 215.573 120.52 215.737 120.636C215.9 120.751 216.039 120.897 216.146 121.066C216.253 121.235 216.326 121.423 216.36 121.62C216.394 121.817 216.389 122.019 216.345 122.214C216.301 122.409 216.22 122.593 216.104 122.757C215.989 122.92 215.843 123.059 215.674 123.166C215.505 123.273 215.317 123.346 215.12 123.38L214.86 121.9L215.11 123.38H214.83ZM241.96 117.89H241.87C241.671 117.882 241.475 117.835 241.294 117.751C241.113 117.668 240.951 117.549 240.816 117.402C240.681 117.255 240.577 117.083 240.509 116.896C240.441 116.708 240.411 116.509 240.42 116.31C240.433 115.911 240.601 115.533 240.889 115.257C241.177 114.98 241.561 114.827 241.96 114.83C242.359 114.848 242.735 115.019 243.011 115.308C243.287 115.597 243.44 115.981 243.44 116.38C243.44 116.775 243.285 117.155 243.008 117.437C242.732 117.72 242.355 117.882 241.96 117.89ZM234.87 117.74C234.472 117.74 234.091 117.582 233.809 117.301C233.528 117.019 233.37 116.638 233.37 116.24C233.37 115.842 233.528 115.461 233.809 115.179C234.091 114.898 234.472 114.74 234.87 114.74C235.266 114.74 235.647 114.895 235.931 115.171C236.215 115.447 236.38 115.824 236.39 116.22C236.401 116.611 236.256 116.99 235.988 117.275C235.721 117.56 235.351 117.727 234.96 117.74H234.87ZM248.95 117.48C248.552 117.509 248.159 117.379 247.857 117.118C247.555 116.858 247.369 116.488 247.34 116.09C247.311 115.692 247.441 115.299 247.702 114.997C247.962 114.695 248.332 114.509 248.73 114.48C249.126 114.419 249.53 114.518 249.854 114.754C250.178 114.99 250.396 115.344 250.46 115.74C250.491 115.933 250.484 116.131 250.438 116.321C250.393 116.511 250.31 116.691 250.195 116.849C250.079 117.007 249.934 117.141 249.767 117.242C249.599 117.343 249.413 117.411 249.22 117.44H248.95V117.48ZM255.95 115.48C255.552 115.509 255.159 115.379 254.857 115.118C254.555 114.858 254.369 114.488 254.34 114.09C254.311 113.692 254.441 113.299 254.702 112.997C254.962 112.695 255.332 112.509 255.73 112.48C256.126 112.419 256.53 112.518 256.854 112.754C257.178 112.99 257.396 113.344 257.46 113.74C257.491 113.933 257.484 114.131 257.438 114.321C257.393 114.511 257.31 114.691 257.195 114.849C257.079 115.007 256.934 115.141 256.767 115.242C256.599 115.343 256.413 115.411 256.22 115.44H255.95V115.48ZM260.51 110.28C260.235 110.28 259.965 110.204 259.73 110.06C259.495 109.917 259.304 109.711 259.178 109.467C259.052 109.222 258.996 108.947 259.016 108.673C259.035 108.398 259.13 108.134 259.29 107.91C259.516 107.589 259.858 107.367 260.244 107.293C260.63 107.218 261.03 107.296 261.36 107.51C261.679 107.721 261.903 108.047 261.987 108.419C262.071 108.792 262.008 109.183 261.81 109.51L261.73 109.64C261.592 109.836 261.409 109.996 261.197 110.107C260.985 110.219 260.749 110.278 260.51 110.28ZM263.51 103.92C263.353 103.934 263.194 103.924 263.04 103.89C262.853 103.835 262.68 103.744 262.528 103.621C262.377 103.499 262.251 103.348 262.159 103.177C262.066 103.006 262.007 102.819 261.987 102.625C261.967 102.432 261.985 102.236 262.04 102.05V101.91C262.17 101.525 262.447 101.208 262.811 101.028C263.175 100.848 263.595 100.82 263.98 100.95C264.365 101.08 264.682 101.357 264.862 101.721C265.042 102.085 265.07 102.505 264.94 102.89C264.834 103.182 264.641 103.434 264.387 103.613C264.133 103.792 263.83 103.888 263.52 103.89L263.51 103.92Z" fill="#FFA348"/>
</g>
<defs>
<clipPath id="clip0_1711_7310">
<rect width="291.4" height="321.9" fill="white"/>
</clipPath>
</defs>
</svg>
