<svg xmlns="http://www.w3.org/2000/svg" viewBox="0 0 350 350"><path d="M135.77,77.9c0,1-91.77,230.43-91.77,230.43s46.55,9.64,132.34,9C236.52,320.63,314,298.36,314,298.36L206.93,77.24Z" style="fill:#414355"/><path d="M181.72,74.51c-4.33-6.91-13.48-7.88-19.79-3.51-.07-.16-.27-.26-.4-.1-5.26,6.56-3.48,15.82,2.42,21.19,5,4.56,12.39,3.62,16.68-1.36A13.9,13.9,0,0,0,181.72,74.51Z" style="fill:#fcc18b"/><path d="M207.55,74.9a26.13,26.13,0,0,0-4.2-12.47c-2.4-4-4.81-6.08-8.39-9a37.44,37.44,0,0,0-14-6.74l-1.61-19.36-23.11,1.16-.67,20.2A30.7,30.7,0,0,0,144,56.14,35.61,35.61,0,0,0,138,65.83a41.37,41.37,0,0,0-3,10.74,21.73,21.73,0,0,0-.33,4.31c1.22.44,7.66,0,12.16-.22,6.54-.24,32.65-1.72,39.16-1.9,7.83-.21,12.51-.7,20.93-.45C207.51,78.33,207.8,77.23,207.55,74.9Z" style="fill:#2a9cc8"/><path d="M119.56,160.51a10.08,10.08,0,0,0-3.68,4.74,14.28,14.28,0,0,0-1.07,3.61c-.09.76-.57,3.6-.25,3.79a4.93,4.93,0,0,0,1.92.47,20.47,20.47,0,0,0,6.68-1.22c4.22-1.57,7.62-4.6,10.54-8a.88.88,0,0,0,0-1.22C129.53,158.74,124.71,157.23,119.56,160.51Z" style="fill:#fff"/><path d="M160.63,145c.16-1.38-.4-1.32-1.06-1.73-1.72-1.06-7.23-2.39-10.32-1.16-5.34,2.14-6.2,5.42-6.81,10.9a16.65,16.65,0,0,0,.05,3.35.66.66,0,0,0,.64.64c5,0,8.93-.86,12.89-4A15.85,15.85,0,0,0,160.63,145Z" style="fill:#fff"/><path d="M204.62,177.29c-2.3-.78-5.54.41-7.35,3a8.73,8.73,0,0,0-.72,6.09,6.41,6.41,0,0,0,8.84,4.13c4.14-2.08,4.31-6,3.49-9.5C208.45,179.26,206.34,177.87,204.62,177.29Z" style="fill:#fff"/><path d="M233.24,184.73a8,8,0,0,0-5.05-4.46c-1.72-.6-4.08,0-5.9.91-2.61,1.52-3.67,5.2-3.33,7.47.65,4.35,5,6.6,9.19,5.73A7.11,7.11,0,0,0,233.24,184.73Z" style="fill:#fff"/><path d="M146.87,219.29c-2.32-3.61-7.43-3.39-11.25-2.87-2.75.38-9.71,3.36-8.49,8,.43,1.65,2.8,2.62,4.67,2.95a26.56,26.56,0,0,0,11.18-.78c3.56-1.18,4.38-3.4,4.59-4.51A3.87,3.87,0,0,0,146.87,219.29Z" style="fill:#fff"/><path d="M183.07,214.87c-2.88-3.47-9-3.29-14.37-2.34-3.69.6-7.16,2.24-6.67,6.24.43,3.47,3.81,3.88,5.37,4.07a31.19,31.19,0,0,0,9.93-.73C181.61,221.28,185.83,218.18,183.07,214.87Z" style="fill:#fff"/><path d="M150.24,140.58C142.79,142.1,147,155.31,154,150c7.35-5.62-4.32-15.36-6.32-6" style="fill:#414355"/><path d="M122.74,156.93c-7.67,3.17-3.66,15.66,3.45,10.82,6.7-4.57-2.21-16.1-6.13-7.37" style="fill:#414355"/><path d="M133.76,213.52a10.35,10.35,0,0,0-1.83,2.49c-3.52,6.93,6,12.64,10.57,5.75C148.13,213.24,133.76,213.52,133.76,213.52Z" style="fill:#414355"/><path d="M169.79,209.78c-9.69,1.42.71,15.28,8.35,7.79,7.05-6.91-7-12-11.56-5" style="fill:#414355"/><path d="M223.41,183.24c-2.68,0-5,.68-6,3C216,189,218,193,221.4,193c2.35,0,5-2.36,5.71-5.38.33-3.36-4-5.38-6.72-3.69" style="fill:#414355"/><path d="M200.38,179.76c-2.76,0-5.18.69-6.21,3.11-1.38,2.76.69,6.9,4.14,6.9,2.41,0,5.17-2.42,5.86-5.52.35-3.45-4.14-5.52-6.9-3.8" style="fill:#414355"/></svg>