<svg width="109" height="61" viewBox="0 0 109 61" fill="none" xmlns="http://www.w3.org/2000/svg">
<g clip-path="url(#clip0_2364_7386)">
<path d="M65.5448 19.52C64.3026 22.3047 64.2846 23.4002 63.0902 25.01C61.8959 26.6197 60.9249 29.4857 61.2882 30.6169C61.6515 31.748 62.9436 32.3784 64.9316 32.9398C67.8529 33.765 71.9099 33.2029 74.7497 32.3297C81.6889 29.8019 85.1831 27.7192 87.5242 20.1957C89.0804 15.1844 86.3171 11.1895 81.0053 11.0603C76.5499 10.9592 72.6362 11.458 69.3635 14.285C68.5887 14.9486 66.8132 16.6766 65.5448 19.52Z" fill="#FDA448"/>
<path fill-rule="evenodd" clip-rule="evenodd" d="M89.8427 2.20532C90.6461 2.40737 91.1336 3.22246 90.9316 4.02587C89.7489 8.72835 86.6205 13.701 83.2229 17.8652C83.7758 19.2469 84.1819 21.1201 83.7534 23.4514C83.6037 24.2662 82.8217 24.8053 82.007 24.6555C81.1922 24.5058 80.6531 23.7238 80.8028 22.9091C80.9631 22.0372 80.9617 21.2641 80.8673 20.585C79.3393 22.2486 77.8051 23.7351 76.3907 24.9546C74.6284 26.4742 72.9509 27.6682 71.6557 28.22C70.8935 28.5447 70.0125 28.1901 69.6878 27.4279C69.3631 26.6658 69.7177 25.7847 70.4799 25.46C71.3324 25.0968 72.7231 24.1558 74.4316 22.6826C75.7726 21.5263 77.2478 20.0961 78.7241 18.4833C77.4204 18.3545 75.9119 18.3495 74.1412 18.8028C73.3387 19.0083 72.5215 18.5242 72.3161 17.7217C72.1106 16.9192 72.5946 16.102 73.3972 15.8966C76.6152 15.0727 79.2865 15.492 80.9212 15.7486C80.9681 15.7559 81.0143 15.7632 81.0595 15.7702C84.2557 11.8166 87.0082 7.32593 88.0222 3.29418C88.2242 2.49077 89.0393 2.00327 89.8427 2.20532Z" fill="#414355"/>
<path d="M25.3087 56.117C27.8374 57.848 30.8653 57.8173 33.8319 57.5965C37.0886 57.3548 40.2867 56.7614 43.4991 56.2013C47.379 55.5244 51.2262 54.6027 55.1247 54.016C59.2234 53.3943 63.1448 53.4399 67.2401 54.0795C69.4751 54.4322 71.7025 54.7762 73.9222 55.2329C75.0034 55.4593 76.0757 55.6933 77.1475 55.9353C77.7242 56.063 78.2921 56.1983 78.8787 56.3025C79.457 56.4061 80.0205 56.3632 80.6005 56.4427C81.6942 56.6052 82.1984 55.0137 81.2957 54.4677C80.4253 53.932 79.702 53.4142 78.7117 53.0645C77.7373 52.724 76.7416 52.4548 75.7349 52.2253C73.7138 51.7577 71.6702 51.3775 69.6256 51.0134C67.6702 50.6715 65.7021 50.2722 63.716 50.1384C61.6232 49.9976 59.5244 50.0665 57.4402 50.2821C50.1582 51.0372 43.3665 54.0332 36.2277 55.4692C34.3383 55.8515 32.4233 56.1269 30.4869 56.1098C28.9456 56.1031 27.105 56.0115 25.6798 55.3899C25.2476 55.1991 24.9477 55.8501 25.318 56.1015L25.3087 56.117Z" fill="#414355"/>
<path d="M18.1998 22.753C23.6857 23.7534 28.7298 21.6306 34.1544 21.4842C36.9157 21.411 39.6771 21.6794 42.3894 22.1796C45.2489 22.7164 48.0226 23.6558 50.8944 24.0706C51.5571 24.1682 51.6431 23.3416 50.8944 23C45.5 21 40.3632 20 35 20C29.33 20 23.8697 22.4422 18.1997 21.82C17.3897 21.7346 17.3898 22.6066 18.1998 22.753Z" fill="#414355"/>
<path d="M31.917 29.1154C27.4964 29.0181 23.8227 31.3404 19.5975 32.1444C17.4464 32.5526 15.2515 32.69 13.0652 32.6374C10.759 32.5745 8.46825 32.1815 6.16809 32.2169C5.63704 32.2236 5.29841 33.0526 5.92802 33.2285C10.0316 34.4095 14.7992 34.52 18.9953 33.8399C23.4314 33.1209 27.4307 30.4976 31.9468 30.2718C32.5915 30.2368 32.5696 29.1288 31.917 29.1154Z" fill="#414355"/>
<path d="M14.9907 49.5503C16.2306 49.6397 17.4975 49.6169 18.7157 49.3322C19.9769 49.0385 21.1773 48.5795 22.3389 48.0624C24.7724 46.9792 27.0838 45.7225 29.5763 44.7332C35.1581 42.5185 40.9009 40.6971 46.9554 39.9395C49.7495 39.5914 52.6438 39.3094 55.4427 39.5465C58.1694 39.7766 60.8198 40.3906 63.3734 41.1859C68.4627 42.7638 73.1097 45.1768 78.3119 46.5148C81.054 47.2196 83.8839 47.6536 86.7683 47.7059C89.8949 47.7624 92.8496 47.2648 95.8174 46.3563C96.1357 46.259 100.636 44.5704 103.026 41.6005C103.66 40.8125 104.819 38.6306 103.624 38.6306C103.299 38.6306 101.035 41.204 99.441 42.1945C94.6609 45.1644 85.0594 46.0875 80.042 44.9452C74.9005 43.7725 70.3671 41.3957 65.4381 39.773C62.857 38.9235 60.1752 38.2173 57.4291 37.8511C54.6826 37.4801 51.9543 37.6121 49.1866 37.8956C46.2443 38.192 43.3296 38.7047 40.478 39.4586C37.5946 40.2253 34.9083 41.415 32.2273 42.6042C29.3732 43.8727 26.5726 45.2358 23.7844 46.612C21.1477 47.911 18.151 49.2367 15.0809 49.1412C14.7834 49.1331 14.6863 49.5286 14.9962 49.5498L14.9907 49.5503Z" fill="#414355"/>
</g>
<defs>
<clipPath id="clip0_2364_7386">
<rect width="108" height="61" fill="white" transform="translate(0.5)"/>
</clipPath>
</defs>
</svg>
