<svg xmlns="http://www.w3.org/2000/svg" viewBox="0 0 350 350"><path d="M177.38,46.23c2.05.08,3.29,1.41,4.37,3,1.57,2.31,2.71-1.45,3.25-1.93a4.42,4.42,0,0,1,2.75-1.46c1.19,0,1.18,1,.7,1.82a29.57,29.57,0,0,0-2.09,3.62c-.29.76-.39,1.48-.68,2.17,0,0,0,0,0,0a3.33,3.33,0,0,1-2,4c-2,.92-4.73-1-6.26-2.07a7.11,7.11,0,0,1-3-4.92C174.14,49,175.58,46.15,177.38,46.23Z" style="fill:#414355"/><path d="M205.48,62.83c2.23-.06,4.34,1.06,6.58,1.14,2.08.08,3.83-.36,5.75.57a14,14,0,0,1,4.4,3.46,12.91,12.91,0,0,1,2.94,6.39c0,.26-.87.9-.84,1l-3.69-3.29a10.31,10.31,0,0,0-7.19-2.59c-5.7-.16-6.81,6.93-7.53,12.39-.06.45-2.33-1.42-2.6-1.82C199.31,74,197.15,63.07,205.48,62.83Z" style="fill:#2a9cc8"/><path d="M219,98.22c-.09,3.64-1,13.4-2,14.56-1.42,1.83-5,.84-7,.87-5.16.06-10.33-.15-15.47-.49-2.11-.13-8.27.63-9-.1-1.25-1.19.56-4.57,1.12-6.16.65-1.83,3.86-6.9,4.48-8.12,2.62-5.19,7.47-7.19,8-11.48s-2.43-4-5.51-10.37A47.21,47.21,0,0,0,190,71c-1.25-1.79-2-3.85-3.26-5.66s-3.44-5.1-4-7.15c-.28-1,1.87-4.11,2.61-4.85,1.07-1.07,2.9,1.21,4.12,3,1.07,1.6,1.85,3.24,3,4.77a36.38,36.38,0,0,1,3.06,5c1,1.81,2.41,3.51,3.38,5.32,1.41,2.62,3.1,4.5,4.62,7.14,4.41,7.63,7.77,5.88,12.11,7.9.7.34,2.26.57,2.79,1.09s.54,2.16.6,2.93A72.42,72.42,0,0,1,219,98.22Z" style="fill:#fff"/><path d="M219.23,87.58a43.63,43.63,0,0,1,.13,13.83c-.39,2.71-.68,5.38-.81,8.11-.05,1.27-.12,2.91-1.17,3.77a.59.59,0,0,1-.93-.71c1.3-3.07,1.08-7.18,1.62-10.47a65.41,65.41,0,0,0,.86-7.64c.09-2.3-.39-4.53-.34-6.8,0-.36.58-.46.64-.09Z" style="fill:#858fa9"/><path d="M219.3,88.06a13.14,13.14,0,0,0-.12,3.81,10.92,10.92,0,0,1-.83,3.59,24.79,24.79,0,0,1-3.67,6.29,58.46,58.46,0,0,0-4.6,6.88c-1.48,2.8-2.33,5.94-4,8.62-.2.32-.76.12-.63-.27a57,57,0,0,1,7.34-14.26,36,36,0,0,0,4.56-7.54c1-2.44.2-5.1,1.25-7.43.19-.43.84-.12.73.31Z" style="fill:#858fa9"/><path d="M205,81.36c-5.48-7.77-9.87-16.22-15.49-23.91-.78-1.07-1.6-2.11-2.42-3.14-1.13-1.43-1.46-.33-2.11.82a9.19,9.19,0,0,1-1.09,1.38c-1.25,1.42-.21,2.65.59,4.05,2.4,4.2,5,8.32,7.44,12.49,2.31,3.9,4.88,7.65,7.15,11.54,1.6,2.73.59,5.12-1.44,7.24a43.07,43.07,0,0,0-8.32,11.31c-2.22,4.64-3.62,9.63-5.54,14.4-.33.8-1.65.45-1.32-.37,3.67-9.12,6-18.83,13.6-25.67,1.48-1.33,3-2.76,2.62-5a8.62,8.62,0,0,0-1.89-3.42,71.48,71.48,0,0,1-4.18-6.74c-2.79-4.82-5.57-9.59-8.7-14.2-.85-1.24-2.54-3.06-2.54-4.68,0-1.28,1.52-2.23,2.18-3.14C185.17,52,186,50.93,188,53.6c6.45,8.8,11.42,18.45,17.46,27.49.19.29-.27.55-.47.27Z" style="fill:#858fa9"/><path d="M204.92,74.13c1.56-5.49,6.51-6.69,10.22-6.41a12.54,12.54,0,0,1,4,.91c3.46,1.22,6.1,5.17,6.83,8.16,1.67,7-4.4,14-11.48,12.6C208.34,88.19,203,80.83,204.92,74.13Z" style="fill:#414355"/><polygon points="264.85 111.66 187.92 179.62 171.49 142.65 142.74 107.18 264.85 111.66" style="fill:#fcc18b"/><polygon points="260.37 113.9 141.62 165.43 164.4 132.57 260.37 113.9" style="fill:#dcdde0"/><path d="M124.26,162.44c-18.22,6.63-91.67,67.22-40.52,90,29.44,13.1,34.05-18.59,21.29-28C86.77,211,59.65,246.81,58.72,259.16,56.37,290.59,84.86,323.38,106.9,340" style="fill:none;stroke:#2a9cc8;stroke-linecap:round;stroke-miterlimit:10;stroke-width:3.3606629024887087px;stroke-dasharray:0.056011442095041275,7.841542720794678"/></svg>