<svg width="151" height="150" viewBox="0 0 151 150" fill="none" xmlns="http://www.w3.org/2000/svg">
<path d="M75.5 150C116.921 150 150.5 116.421 150.5 75C150.5 33.5786 116.921 0 75.5 0C34.0786 0 0.5 33.5786 0.5 75C0.5 116.421 34.0786 150 75.5 150Z" fill="#E5F5FF"/>
<path d="M131.65 83.1153L90.7986 105.12V55.2055L131.65 42.4521V83.1153Z" fill="#DA6A0B"/>
<path d="M90.7989 55.204L42.5742 50.3254L32.6907 35.744C32.5764 35.5753 32.5101 35.3786 32.4991 35.175C32.4881 34.9715 32.5327 34.7688 32.6282 34.5887C32.7237 34.4086 32.8665 34.2579 33.0411 34.1528C33.2158 34.0477 33.4158 33.9922 33.6197 33.9922H79.0479C79.253 33.9922 79.4542 34.0484 79.6296 34.1547C79.8049 34.261 79.9479 34.4133 80.0428 34.5952L90.7989 55.204Z" fill="#FFCBA0"/>
<path d="M42.5739 100.243L25.732 96.7388C25.4794 96.6862 25.2527 96.5483 25.09 96.3482C24.9272 96.1481 24.8384 95.898 24.8384 95.6401V48.0177C24.8384 47.8509 24.8755 47.6863 24.9472 47.5357C25.0188 47.3851 25.1231 47.2523 25.2525 47.1471C25.3819 47.0419 25.5331 46.9668 25.6951 46.9274C25.8571 46.8879 26.0259 46.8851 26.1892 46.919L42.5739 50.3283V100.243Z" fill="#FFCBA0"/>
<path d="M90.7988 105.119L42.574 100.24V50.3252L90.7988 55.2038V105.119Z" fill="#2A9CC8"/>
<path d="M78.536 118.476L29.3302 116.513L42.5743 100.242L90.799 105.121L79.4246 118.094C79.3143 118.22 79.1773 118.32 79.0235 118.386C78.8698 118.452 78.7032 118.483 78.536 118.476Z" fill="#FFCBA0"/>
<path d="M90.7989 55.2042L131.651 42.4509L81.7166 37.8027L90.7989 55.2042Z" fill="#FF8D2E"/>
<path d="M42.574 100.24L90.7988 77.7221V55.2038L42.574 50.3252V100.24Z" fill="#2F7EA7"/>
<path d="M67.6708 93.4034C67.6708 93.4034 47.5883 92.1707 49.9348 106.522C49.9348 106.522 49.4645 109.058 51.7211 110.21C51.7211 110.21 51.7581 109.133 53.7822 109.505C54.503 109.628 55.2357 109.664 55.9648 109.612C56.953 109.545 57.8923 109.15 58.639 108.487C58.639 108.487 64.2885 106.113 66.487 96.7034C66.487 96.7034 68.1148 94.647 68.0725 94.1194L64.6796 95.5998C64.6796 95.5998 65.837 98.0922 64.9227 100.165C64.9227 100.165 64.817 95.6913 64.1617 95.7936C64.0295 95.7936 62.4018 96.6603 62.4018 96.6603C62.4018 96.6603 64.3942 100.999 62.888 104.159C62.888 104.159 63.4588 98.8082 61.7782 96.9725L59.3894 98.3937C59.3894 98.3937 61.7201 102.878 60.1399 106.539C60.1399 106.539 60.5468 100.924 58.8874 98.7382L56.7206 100.455C56.7206 100.455 58.9138 104.88 57.5767 107.917C57.5767 107.917 57.4023 101.381 56.2502 100.886C56.2502 100.886 54.3583 102.587 54.0729 103.287C54.0729 103.287 55.5685 106.517 54.6384 108.191C54.6384 108.191 54.0676 103.836 53.5814 103.815C53.5814 103.815 51.6947 106.7 51.4991 108.66C51.5905 106.833 52.1499 105.062 53.1216 103.524C52.0342 103.733 51.031 104.263 50.2361 105.047C50.2361 105.047 50.5267 103.007 53.5866 102.829C53.5866 102.829 55.1721 100.639 55.5632 100.504C55.5632 100.504 52.5191 100.246 50.6747 101.08C50.6747 101.08 52.2972 99.1581 56.1234 100.003L58.2374 98.2268C58.2374 98.2268 54.2314 97.6885 52.5297 98.286C52.5297 98.286 54.4851 96.5849 58.8134 97.8231L61.1387 96.4073C61.1387 96.4073 57.7247 95.6536 55.69 95.9282C55.69 95.9282 57.8357 94.7493 61.8205 96.0251L63.4852 95.266C63.4852 95.266 60.9802 94.7654 60.2509 94.6847C59.5216 94.6039 59.4793 94.3993 59.4793 94.3993C61.064 94.1307 62.691 94.3171 64.1775 94.9377C64.1775 94.9377 67.7448 93.6295 67.6708 93.4034Z" fill="#5AC235"/>
<path d="M94.7023 94.3675C94.7023 94.3675 88.9056 78.9559 78.9906 85.499C78.9906 85.499 76.9429 85.994 76.8387 88.064C76.8387 88.064 77.6538 87.7323 78.0537 89.3681C78.2026 89.9478 78.4207 90.5071 78.7033 91.0343C79.0838 91.75 79.6926 92.3197 80.4364 92.6562C80.4364 92.6562 84.0956 96.0836 91.8462 94.5848C91.8462 94.5848 93.9237 95.1142 94.3028 94.9065L92.0646 92.8664C92.0646 92.8664 90.5934 94.5628 88.7425 94.5717C88.7425 94.5717 92.0423 92.9996 91.7469 92.5442C91.7027 92.4455 90.5122 91.5191 90.5122 91.5191C90.5122 91.5191 87.9437 94.4555 85.0841 94.3852C85.0841 94.3852 89.2643 93.0255 90.0709 91.1575L88.2125 89.8476C88.2125 89.8476 85.6487 93.0852 82.3912 93.1268C82.3912 93.1268 86.7132 91.5566 87.7878 89.5876L85.7829 88.5424C85.7829 88.5424 83.2173 91.6576 80.5066 91.6723C80.5066 91.6723 85.3206 89.3607 85.3045 88.3348C85.3045 88.3348 83.4036 87.4895 82.7864 87.5099C82.7864 87.5099 80.8785 89.7051 79.3193 89.5692C79.3193 89.5692 82.3753 87.6892 82.2287 87.3189C82.2287 87.3189 79.4466 86.8728 77.9204 87.3808C79.3129 86.8393 80.8199 86.666 82.2917 86.8784C81.7718 86.1362 81.0415 85.5636 80.191 85.2316C80.191 85.2316 81.8093 84.7677 82.965 86.994C82.965 86.994 85.1286 87.4469 85.3597 87.6941C85.3597 87.6941 84.5344 85.3341 83.2955 84.235C83.2955 84.235 85.2709 84.8054 85.9203 87.9454L87.9517 88.9314C87.9517 88.9314 87.0134 85.7596 85.9988 84.6879C85.9988 84.6879 87.921 85.5807 88.4453 89.2269L90.2784 90.4912C90.2784 90.4912 89.6986 87.6896 88.8136 86.2615C88.8136 86.2615 90.41 87.4706 90.7914 90.8728L91.914 91.8629C91.914 91.8629 91.4495 89.8247 91.2658 89.253C91.0821 88.6813 91.2205 88.5815 91.2205 88.5815C91.9508 89.6755 92.3559 90.9529 92.3903 92.2704C92.3903 92.2704 94.5585 94.4982 94.7023 94.3675Z" fill="#F1CA00"/>
<path d="M39.2221 114.702C39.2221 114.702 32.3232 95.3713 20.1781 103.166C20.1781 103.166 17.6749 103.712 17.5211 106.277C17.5211 106.277 18.5175 105.892 18.986 107.934C19.1612 108.659 19.421 109.361 19.7599 110.025C20.2127 110.929 20.9477 111.659 21.8516 112.103C21.8516 112.103 26.2744 116.479 35.743 114.887C35.743 114.887 38.2637 115.616 38.7209 115.346L35.9993 112.749C35.9993 112.749 34.1867 114.801 31.93 114.755C31.93 114.755 35.97 112.911 35.6186 112.342C35.57 112.217 34.1229 111.021 34.1229 111.021C34.1229 111.021 30.9534 114.584 27.4726 114.394C27.4726 114.394 32.6003 112.845 33.5907 110.563L31.3406 108.875C31.3406 108.875 28.1739 112.801 24.2004 112.743C24.2004 112.743 29.4882 110.942 30.8263 108.536L28.3906 107.168C28.3906 107.168 25.2282 110.943 21.9241 110.869C21.9241 110.869 27.8207 108.168 27.8301 106.888C27.8301 106.888 25.5222 105.777 24.7617 105.765C24.7617 105.765 22.4246 108.4 20.5158 108.203C20.5158 108.203 24.2414 105.989 24.0935 105.532C24.0935 105.532 20.7101 104.883 18.8231 105.468C20.5301 104.843 22.3726 104.68 24.1667 104.996C23.5429 104.057 22.6611 103.32 21.6295 102.876C21.6295 102.876 23.6112 102.359 24.9905 105.157C24.9905 105.157 27.6155 105.77 27.9015 106.11C27.9015 106.11 26.9258 103.156 25.4259 101.75C25.4259 101.75 27.832 102.523 28.5579 106.445L31.0317 107.764C31.0317 107.764 29.9409 103.786 28.7027 102.435C28.7027 102.435 31.0338 103.606 31.6311 108.144L33.8479 109.776C33.8479 109.776 33.1719 106.279 32.1144 104.476C32.1144 104.476 34.0469 106.039 34.4682 110.27L35.8273 111.534C35.8273 111.534 35.2848 108.99 35.0648 108.272C34.8448 107.555 35.0166 107.436 35.0166 107.436C35.8957 108.819 36.3769 110.418 36.4066 112.055C36.4066 112.055 39.0282 114.852 39.2221 114.702Z" fill="#5AC235"/>
<path d="M89.5538 125.955C89.5538 125.955 74.7887 116.999 70.9647 128.496C70.9647 128.496 69.615 130.171 70.8755 131.917C70.8755 131.917 71.3212 131.153 72.7159 132.227C73.2106 132.603 73.7469 132.921 74.3144 133.175C75.0885 133.519 75.9531 133.605 76.7772 133.42C76.7772 133.42 81.9997 133.936 87.3459 127.92C87.3459 127.92 89.3834 127.059 89.5372 126.648L86.388 126.371C86.388 126.371 86.29 128.668 84.7809 129.825C84.7809 129.825 86.4492 126.491 85.9292 126.316C85.8214 126.28 84.2556 126.239 84.2556 126.239C84.2556 126.239 84.067 130.228 81.6865 131.947C81.6865 131.947 84.2151 128.244 83.661 126.219L81.2898 126.292C81.2898 126.292 81.2984 130.538 78.6688 132.582C78.6688 132.582 81.1778 128.617 80.7761 126.346L78.4609 126.743C78.4609 126.743 78.3897 130.869 76.188 132.567C76.188 132.567 78.61 127.702 77.9379 126.869C77.9379 126.869 75.8355 127.36 75.3421 127.759C75.3421 127.759 75.223 130.719 73.8545 131.591C73.8545 131.591 75.1238 128.164 74.7797 127.962C74.7797 127.962 72.2197 129.326 71.2927 130.701C72.0805 129.395 73.1996 128.316 74.5398 127.572C73.6315 127.292 72.6624 127.28 71.7508 127.536C71.7508 127.536 72.7752 126.156 75.1856 127.246C75.1856 127.246 77.2248 126.263 77.5935 126.332C77.5935 126.332 75.3865 124.926 73.658 124.799C73.658 124.799 75.6448 124.035 78.2025 126.206L80.5201 125.757C80.5201 125.757 77.6974 123.74 76.1671 123.517C76.1671 123.517 78.3155 123.046 81.1139 125.692L83.436 125.58C83.436 125.58 81.1341 123.662 79.4929 123.05C79.4929 123.05 81.5854 123.041 84.1092 125.579L85.6685 125.683C85.6685 125.683 83.9645 124.315 83.44 123.964C82.9154 123.613 82.9654 123.446 82.9654 123.446C84.2744 123.881 85.4377 124.669 86.3248 125.719C86.3248 125.719 89.5154 126.146 89.5538 125.955Z" fill="#D1AF00"/>
<path d="M107.058 110.532L90.799 105.119V55.2041L107.767 60.853C107.99 60.9274 108.185 61.0703 108.323 61.2614C108.46 61.4525 108.535 61.6821 108.535 61.9177V109.467C108.535 109.645 108.492 109.82 108.411 109.978C108.33 110.137 108.213 110.273 108.069 110.377C107.924 110.481 107.758 110.55 107.582 110.576C107.406 110.603 107.227 110.588 107.058 110.532Z" fill="#FFCBA0"/>
</svg>
