<svg width="200" height="142" viewBox="0 0 200 142" fill="none" xmlns="http://www.w3.org/2000/svg">
<path d="M100.053 109.998C101.296 109.998 102.304 108.991 102.304 107.747C102.304 106.504 101.296 105.496 100.053 105.496C98.8096 105.496 97.8018 106.504 97.8018 107.747C97.8018 108.991 98.8096 109.998 100.053 109.998Z" fill="#F59700"/>
<path d="M101.104 96.0016H99.1026C98.4402 96.0016 97.9026 96.544 97.9026 97.2016V103.6C97.9026 104.258 98.445 104.8 99.1026 104.8H101.104C101.762 104.8 102.304 104.258 102.304 103.6V97.2016C102.304 96.544 101.762 96.0016 101.104 96.0016Z" fill="#F59700"/>
<path d="M100 88C91.7104 88 85 94.7104 85 103C85 111.29 91.7104 118 100 118C108.29 118 115 111.29 115 103C115 94.7104 108.29 88 100 88ZM100.014 113.709C94.1057 113.709 89.3104 108.918 89.3104 103.005C89.3104 97.0912 94.1008 92.3007 100.014 92.3007C105.928 92.3007 110.718 97.0912 110.718 103.005C110.718 108.918 105.923 113.709 100.014 113.709Z" fill="#F59700"/>
<path d="M33.4128 45.1743C34.8807 45.8715 36.0184 46.8991 36.789 48.2202C37.5963 49.5413 37.9633 51.0826 37.9633 52.8807C37.9633 54.6422 37.5596 56.2202 36.789 57.5413C35.9817 58.8257 34.844 59.8899 33.4128 60.5871C31.945 61.2844 30.2202 61.6514 28.2752 61.6514H26.4037C25.7431 61.6514 25.1927 62.2752 25.1927 62.9725V65.9816C25.1927 66.7156 24.6422 67.3027 23.9817 67.3027H19.211C18.5505 67.3027 18 66.6789 18 65.9816V45.4312C18 44.6972 18.5505 44.1101 19.211 44.1101H28.2385C30.2202 44.1101 31.945 44.5137 33.4128 45.1743ZM29.9633 54.8624C30.4404 54.3853 30.6972 53.7615 30.6972 52.8807C30.6972 52 30.4771 51.3394 29.9633 50.8991C29.4862 50.422 28.7523 50.2018 27.7615 50.2018H26.367C25.7064 50.2018 25.156 50.8257 25.156 51.5229V54.3119C25.156 55.0459 25.7064 55.633 26.367 55.633H27.7615C28.7523 55.5963 29.4862 55.3394 29.9633 54.8624Z" fill="#E78113"/>
<path d="M49.3394 61.4312C48.6422 61.4312 48.055 62.055 48.055 62.8257V65.8716C48.055 66.6422 47.4679 67.2661 46.7706 67.2661H42.1101C41.4128 67.2661 40.8257 66.6422 40.8257 65.8716V45.4679C40.8257 44.6972 41.4128 44.0734 42.1101 44.0734H51.1376C53.1193 44.0734 54.844 44.4404 56.2752 45.1376C57.7431 45.8349 58.8807 46.8624 59.6514 48.1835C60.4587 49.5046 60.8257 51.0459 60.8257 52.844C60.8257 54.4954 60.4954 55.9633 59.7982 57.1743C59.3211 58.055 58.6972 58.789 57.8532 59.4128C57.266 59.8532 57.156 60.6972 57.5596 61.3211L59.9449 65.1009C60.5321 66.0184 59.9083 67.2661 58.8807 67.2661H54.2936C53.8532 67.2661 53.4862 67.0459 53.2294 66.6422L50.3303 62.0183C50.1468 61.6881 49.7431 61.4312 49.3394 61.4312ZM52.8991 50.8624C52.422 50.3853 51.6881 50.1651 50.6972 50.1651H49.3394C48.6422 50.1651 48.055 50.789 48.055 51.5596V54.2018C48.055 54.9725 48.6422 55.5963 49.3394 55.5963H50.6972C51.6881 55.5963 52.422 55.3761 52.8991 54.8991C53.3761 54.422 53.633 53.7982 53.633 52.9174C53.5963 52 53.3761 51.3028 52.8991 50.8624Z" fill="#DC688A"/>
<path d="M68.8992 65.8349C67.1377 64.844 65.7799 63.4495 64.7524 61.6514C63.7616 59.8899 63.2478 57.8716 63.2478 55.6697C63.2478 53.4679 63.7616 51.4495 64.7524 49.6881C65.7432 47.9266 67.1377 46.5321 68.8992 45.5046C70.6607 44.5138 72.6423 44 74.8808 44C77.1194 44 79.101 44.5138 80.8625 45.5046C82.6239 46.4954 83.9817 47.8899 85.0093 49.6881C86.0001 51.4495 86.5139 53.4679 86.5139 55.6697C86.5139 57.8716 86.0001 59.8899 85.0093 61.6514C84.0184 63.4128 82.6239 64.8073 80.8625 65.8349C79.101 66.8257 77.1194 67.3394 74.8808 67.3394C72.5689 67.3028 70.6607 66.789 68.8992 65.8349ZM77.1194 60.5505C77.7799 60.1101 78.3671 59.4495 78.7707 58.6055C79.1744 57.7615 79.3946 56.8073 79.3946 55.6697C79.3946 54.5321 79.1744 53.578 78.7707 52.7339C78.3671 51.8899 77.8166 51.2294 77.1194 50.789C76.4588 50.3486 75.6515 50.1284 74.7707 50.1284C73.89 50.1284 73.1194 50.3486 72.4221 50.789C71.7616 51.2294 71.1744 51.8899 70.7707 52.7339C70.3671 53.578 70.1469 54.5321 70.1469 55.6697C70.1469 56.8073 70.3671 57.7615 70.7707 58.6055C71.1744 59.4495 71.7249 60.1101 72.4221 60.5505C73.0827 60.9908 73.89 61.2477 74.7707 61.2477C75.6515 61.2844 76.4588 61.0275 77.1194 60.5505Z" fill="#38A7DB"/>
<path d="M119.174 65.8349C117.413 64.844 116.055 63.4495 115.028 61.6514C114.037 59.8899 113.523 57.8716 113.523 55.6697C113.523 53.4679 114.037 51.4495 115.028 49.6881C116.018 47.9266 117.413 46.5321 119.174 45.5046C120.936 44.5138 122.917 44 125.156 44C127.395 44 129.376 44.5138 131.138 45.5046C132.899 46.4954 134.257 47.8899 135.284 49.6881C136.275 51.4495 136.789 53.4679 136.789 55.6697C136.789 57.8716 136.275 59.8899 135.284 61.6514C134.294 63.4128 132.899 64.8073 131.138 65.8349C129.376 66.8257 127.395 67.3394 125.156 67.3394C122.917 67.3394 120.936 66.789 119.174 65.8349ZM127.468 60.5505C128.128 60.1101 128.716 59.4495 129.119 58.6055C129.523 57.7615 129.743 56.8073 129.743 55.6697C129.743 54.5321 129.523 53.578 129.119 52.7339C128.716 51.8899 128.165 51.2294 127.468 50.789C126.807 50.3486 126 50.1284 125.119 50.1284C124.239 50.1284 123.468 50.3486 122.771 50.789C122.11 51.2294 121.523 51.8899 121.119 52.7339C120.716 53.578 120.495 54.5321 120.495 55.6697C120.495 56.8073 120.716 57.7615 121.119 58.6055C121.523 59.4495 122.073 60.1101 122.771 60.5505C123.431 60.9908 124.239 61.2477 125.119 61.2477C125.963 61.2844 126.734 61.0275 127.468 60.5505Z" fill="#E8AB00"/>
<path d="M110.587 45.1009V66.2752C110.587 66.8624 110.183 67.3027 109.67 67.3027H105.119C104.862 67.3027 104.569 67.1559 104.422 66.9358L98.1834 58.8991C97.5963 58.2018 96.532 58.6055 96.532 59.5596V66.2752C96.532 66.8624 96.1284 67.3027 95.6146 67.3027H90.477C89.9632 67.3027 89.5596 66.8624 89.5596 66.2752V45.0642C89.5596 44.477 89.9632 44.0367 90.477 44.0367H95.0275C95.2843 44.0367 95.5779 44.1835 95.7247 44.4037L101.927 52.4404C102.514 53.1376 103.578 52.7339 103.578 51.7798V45.1009C103.578 44.5137 103.982 44.0734 104.495 44.0734H109.633C110.147 44.1101 110.587 44.5504 110.587 45.1009Z" fill="#16A477"/>
<path d="M143.064 50.1651H139.908C139.027 50.1651 138.367 49.3945 138.367 48.477V45.7982C138.367 44.8807 139.064 44.1101 139.908 44.1101H156.532C157.413 44.1101 158.073 44.8807 158.073 45.7982V48.477C158.073 49.3945 157.376 50.1651 156.532 50.1651H153.376C152.495 50.1651 151.835 50.9358 151.835 51.8532V65.578C151.835 66.4954 151.138 67.266 150.294 67.266H146.22C145.339 67.266 144.679 66.4954 144.679 65.578V51.8532C144.605 50.8991 143.945 50.1651 143.064 50.1651Z" fill="#8389C2"/>
<path d="M179.064 62.7523V65.9083C179.064 66.6789 178.477 67.2661 177.816 67.2661H162.55C161.853 67.2661 161.303 66.6422 161.303 65.9083V45.4312C161.303 44.6606 161.89 44.0734 162.55 44.0734H177.45C178.147 44.0734 178.697 44.6972 178.697 45.4312V48.6239C178.697 49.3945 178.11 49.9817 177.45 49.9817H169.67C168.972 49.9817 168.422 50.6055 168.422 51.3394C168.422 52.1101 169.009 52.6972 169.67 52.6972H176.202C176.899 52.6972 177.45 53.3211 177.45 54.055V56.9541C177.45 57.7248 176.862 58.3119 176.202 58.3119H169.67C168.972 58.3119 168.422 58.9358 168.422 59.6697V60.0367C168.422 60.8073 169.009 61.3945 169.67 61.3945H177.853C178.514 61.4312 179.064 61.9817 179.064 62.7523Z" fill="#B4AB94"/>
</svg>
