<svg width="24" height="24" viewBox="0 0 24 24" fill="none" xmlns="http://www.w3.org/2000/svg">
<g clip-path="url(#clip0_7419_819)">
<path d="M19.5003 8.04227C19.5003 3.8302 16.0066 0.434769 11.7516 0.60055C7.94474 0.74791 4.78876 3.87319 4.6107 7.68001C4.51246 9.68166 5.21243 11.5237 6.41587 12.9113C7.34302 13.9858 7.91404 15.3182 7.91404 16.7366V17.1848H15.8224C15.8224 15.6498 16.4733 14.2191 17.5109 13.0955C18.7451 11.7693 19.5003 9.99481 19.5003 8.03614V8.04227Z" fill="#FAEA9C"/>
<path d="M17.6278 2.24587C16.0375 0.717005 13.9314 -0.0689347 11.7272 0.00474574C7.59494 0.164387 4.20565 3.52914 4.00917 7.65524C3.91093 9.73671 4.60474 11.7445 5.95555 13.3102C6.82744 14.3172 7.30637 15.539 7.30637 16.7425V17.1907C7.30637 17.5223 7.57652 17.7924 7.90808 17.7924H15.8164C16.148 17.7924 16.4182 17.5223 16.4182 17.1907C16.4182 15.8829 16.9646 14.575 17.947 13.5128C19.3347 12.0208 20.096 10.0805 20.096 8.04819C20.096 5.83778 19.218 3.78088 17.6278 2.24587ZM8.50981 16.589C8.47297 15.1461 7.88967 13.7032 6.86428 12.5181C5.70996 11.1857 5.12051 9.47882 5.20647 7.70435C5.37225 4.19225 8.25807 1.33714 11.7763 1.20206C13.6552 1.1161 15.4296 1.79765 16.7927 3.10547C18.1497 4.40716 18.8926 6.1632 18.8926 8.04205C18.8926 9.77354 18.2418 11.4191 17.0629 12.6901C16.0252 13.8075 15.3866 15.1829 15.2393 16.589H8.50366H8.50981Z" fill="#D1AF00"/>
<path d="M15.8226 16.46H7.91423C7.58267 16.46 7.3125 16.7301 7.3125 17.0617V19.444C7.3125 21.9553 9.35714 23.9999 11.8684 23.9999C14.3797 23.9999 16.4243 21.9553 16.4243 19.444V17.0617C16.4243 16.7301 16.1541 16.46 15.8226 16.46Z" fill="#D1AF00"/>
<path d="M13.7842 18.1241H12.8816L12.9307 11.0692H11.2299V18.118H10.3273V11.0692H9.31426C8.92744 11.057 8.39941 10.9587 7.94505 10.5719C7.45998 10.1605 7.15911 9.49739 7.14069 8.80357C7.12227 8.165 7.34945 7.58784 7.77311 7.18873C8.44851 6.55017 9.54759 6.42738 10.3335 6.9063C10.573 7.05366 10.7756 7.25014 10.9413 7.48346C11.1317 7.75976 11.2299 8.09745 11.2299 8.44743V10.1728H12.9369L12.9491 8.46585C12.9491 7.84571 13.2684 7.28697 13.7658 7.01067C14.478 6.62385 15.2885 6.83261 15.7797 7.20715C16.2586 7.56942 16.5595 8.20799 16.584 8.90181C16.6086 9.59563 16.3507 10.2403 15.9025 10.6272C15.5709 10.9096 15.135 11.0692 14.6315 11.0754H13.8333L13.7842 18.1303V18.1241ZM9.259 7.50801C8.94586 7.50801 8.62044 7.61854 8.39326 7.83958C8.15994 8.06062 8.03099 8.39218 8.04327 8.779C8.05555 9.21494 8.23976 9.64474 8.52834 9.8842C8.78622 10.1052 9.1055 10.1605 9.33268 10.1667H10.3273V8.44131C10.3273 8.26939 10.2844 8.11587 10.1923 7.98693C10.1002 7.85185 9.98967 7.74748 9.86073 7.66766C9.68267 7.55714 9.47391 7.50801 9.259 7.50801ZM14.5824 7.69835C14.4596 7.69835 14.3307 7.72292 14.214 7.79046C13.993 7.91327 13.8517 8.17728 13.8517 8.472L13.8394 10.1728H14.6254C14.8218 10.1728 15.1043 10.1298 15.3192 9.9456C15.5587 9.73684 15.6999 9.35002 15.6876 8.9325C15.6753 8.5027 15.5095 8.12817 15.2394 7.92555C15.0981 7.81503 14.8464 7.70449 14.5824 7.70449V7.69835Z" fill="#D1AF00"/>
</g>
<defs>
<clipPath id="clip0_7419_819">
<rect width="24" height="24" fill="white"/>
</clipPath>
</defs>
</svg>
