<svg width="24" height="24" viewBox="0 0 24 24" fill="none" xmlns="http://www.w3.org/2000/svg">
<g clip-path="url(#clip0_7419_824)">
<path d="M12 24C18.6274 24 24 18.6274 24 12C24 5.37258 18.6274 0 12 0C5.37257 0 0 5.37258 0 12C0 18.6274 5.37257 24 12 24Z" fill="#B9E3F8"/>
<path d="M19.1267 14.8836L16.2157 13.298C16.1096 13.2432 15.9829 13.2432 15.8801 13.3014C15.7774 13.3596 15.7123 13.4692 15.7089 13.5891C15.6575 15.6747 13.4726 16.5001 13.4486 16.5103C13.3527 16.5446 13.2774 16.6199 13.2431 16.7158C13.2089 16.8117 13.2192 16.9179 13.2705 17.0069L14.0068 18.2638C14.0685 18.3665 14.1815 18.4316 14.3013 18.4316H16.0548C17.8459 18.4316 19.3013 16.9761 19.3013 15.185C19.3013 15.0583 19.2329 14.9453 19.1233 14.8836H19.1267Z" fill="#2F7EA7"/>
<path d="M10.5514 16.5102C10.5309 16.5033 8.34599 15.6848 8.29462 13.5889C8.29462 13.4691 8.22613 13.3595 8.12339 13.3013C8.02065 13.2431 7.89393 13.2396 7.78777 13.2979L4.87681 14.8835C4.76722 14.9417 4.69873 15.0581 4.69873 15.1848C4.69873 16.9759 6.1542 18.4314 7.9453 18.4314H9.69872C9.81858 18.4314 9.9316 18.3663 9.99325 18.2636L10.7295 17.0068C10.7809 16.9177 10.7912 16.8115 10.7569 16.7157C10.7227 16.6198 10.6473 16.5444 10.5514 16.5102Z" fill="#2F7EA7"/>
<path d="M16.0514 13.5995L15.75 13.4351C15.1918 13.1303 14.7774 12.62 14.5959 12.0139L13.75 9.19537C13.6644 8.91455 13.613 8.62687 13.589 8.33235L13.274 4.25701C13.25 3.92482 12.9692 3.66797 12.637 3.66797C12.2843 3.66797 11.9966 3.95564 11.9966 4.30838V14.3426C11.9966 14.87 12.2534 15.3666 12.6884 15.668C12.9007 15.8152 13.0788 16.007 13.2089 16.233L13.5616 16.8358C13.5616 16.8358 15.9897 15.9693 16.0479 13.6029L16.0514 13.5995Z" fill="white"/>
<path d="M7.94873 13.5995L8.2501 13.4351C8.80832 13.1303 9.2227 12.62 9.40421 12.0139L10.2501 9.19537C10.3357 8.91455 10.3871 8.62687 10.411 8.33235L10.7261 4.25701C10.7501 3.92482 11.0309 3.66797 11.3631 3.66797C11.7158 3.66797 12.0035 3.95564 12.0035 4.30838V14.3426C12.0035 14.87 11.7466 15.3666 11.3117 15.668C11.0994 15.8152 10.9213 16.007 10.7912 16.233L10.4384 16.8358C10.4384 16.8358 8.01038 15.9693 7.95216 13.6029L7.94873 13.5995Z" fill="white"/>
<path d="M16.2157 13.2978L15.9143 13.1334C15.4349 12.8732 15.0821 12.4382 14.9246 11.9142L14.0787 9.09575C14.0033 8.8389 13.952 8.5752 13.9314 8.30466L13.6198 4.22931C13.5821 3.72246 13.1506 3.32178 12.6403 3.32178C12.3937 3.32178 12.1746 3.41425 11.9999 3.56493C11.8287 3.41425 11.6061 3.32178 11.3595 3.32178C10.8492 3.32178 10.4212 3.71904 10.3801 4.22931L10.065 8.30466C10.0444 8.57178 9.99308 8.8389 9.91773 9.09575L9.07184 11.9142C8.91431 12.4382 8.56157 12.8732 8.08211 13.1334L7.78075 13.2978C7.66774 13.3595 7.59924 13.4793 7.60266 13.606C7.66773 16.2875 10.404 17.1745 10.4314 17.1745C10.5513 17.1745 10.6643 17.1095 10.7259 17.0067L11.0787 16.404C11.1848 16.2225 11.3253 16.0684 11.4999 15.9485C11.6951 15.8115 11.8629 15.6403 11.9965 15.4485C12.1301 15.6403 12.2944 15.8115 12.4931 15.9485C12.6677 16.0684 12.8081 16.2225 12.9143 16.404L13.267 17.0067C13.3287 17.1095 13.4417 17.1745 13.5616 17.1745C13.5992 17.1745 13.6403 17.1677 13.6746 17.154C13.702 17.1437 16.3253 16.1848 16.3869 13.606C16.3869 13.4759 16.3218 13.3595 16.2088 13.2978H16.2157ZM13.7054 16.3971L13.5068 16.0615C13.3492 15.7944 13.1403 15.5684 12.8869 15.3903C12.5444 15.154 12.3424 14.7636 12.3424 14.3458V4.31151C12.3424 4.14712 12.4759 4.01356 12.6403 4.01356C12.7944 4.01356 12.9246 4.13342 12.9348 4.28753L13.2499 8.36287C13.2739 8.68137 13.3321 8.99301 13.4246 9.2978L14.2705 12.1163C14.4794 12.8149 14.9485 13.3903 15.589 13.743L15.702 13.8047C15.5581 15.3252 14.2842 16.1231 13.7122 16.404L13.7054 16.3971ZM11.6574 14.3423C11.6574 14.7567 11.4554 15.1471 11.1129 15.3868C10.8561 15.5649 10.6472 15.791 10.4931 16.0581L10.2944 16.3971C9.72253 16.1163 8.44514 15.3184 8.30472 13.7978L8.41773 13.7362C9.05814 13.3868 9.52732 12.8115 9.73623 12.1095L10.5821 9.29096C10.6746 8.98616 10.7328 8.67452 10.7568 8.35602L11.0718 4.28068C11.0821 4.12657 11.2122 4.00671 11.3664 4.00671C11.5307 4.00671 11.6643 4.14027 11.6643 4.30466V14.3389L11.6574 14.3423Z" fill="#2A9CC8"/>
</g>
<defs>
<clipPath id="clip0_7419_824">
<rect width="24" height="24" fill="white"/>
</clipPath>
</defs>
</svg>
