<svg width="50" height="50" viewBox="0 0 50 50" fill="none" xmlns="http://www.w3.org/2000/svg">
<path d="M25 29.78C31.33 29.78 44 32.89 44 39.22V44H6V39.22C6 32.89 18.67 29.78 25 29.78ZM25 26C23.76 26.0013 22.5318 25.758 21.3859 25.2841C20.24 24.8102 19.1988 24.1149 18.322 23.238C17.4451 22.3612 16.7498 21.32 16.2759 20.1741C15.802 19.0282 15.5587 17.8 15.56 16.56C15.56 14.0564 16.5546 11.6553 18.3249 9.88491C20.0953 8.11456 22.4964 7.12 25 7.12C27.5036 7.12 29.9047 8.11456 31.6751 9.88491C33.4454 11.6553 34.44 14.0564 34.44 16.56C34.4413 17.8 34.198 19.0282 33.7241 20.1741C33.2502 21.32 32.5549 22.3612 31.678 23.238C30.8012 24.1149 29.76 24.8102 28.6141 25.2841C27.4682 25.758 26.24 26.0013 25 26V26Z" fill="#000000"/>
</svg>