<svg xmlns="http://www.w3.org/2000/svg" viewBox="0 0 50 50"><g id="admin"><path id="path1142" fill="#000" d="M23.59,25a5.68,5.68,0,0,1-5.66,5.67A5.68,5.68,0,0,1,12.26,25a5.68,5.68,0,0,1,5.67-5.67A5.68,5.68,0,0,1,23.59,25Zm17-11.33a2.78,2.78,0,0,1-.87,2,2.58,2.58,0,0,1-2,.83,3,3,0,0,1-2-.83,2.48,2.48,0,0,1-.83-2,2.85,2.85,0,0,1,2.81-2.82,2.81,2.81,0,0,1,2,.84A2.49,2.49,0,0,1,40.59,13.69Zm0,22.66a2.63,2.63,0,0,1-.87,2,2.75,2.75,0,0,1-4,0,2.49,2.49,0,0,1-.83-2,2.74,2.74,0,0,1,.83-2,2.71,2.71,0,0,1,2-.83,2.85,2.85,0,0,1,2,.83A2.56,2.56,0,0,1,40.59,36.35ZM32.07,27V23a.68.68,0,0,0-.16-.44.57.57,0,0,0-.31-.23l-3.45-.56a11,11,0,0,0-.71-1.66c.5-.72,1.16-1.56,2-2.54a.85.85,0,0,0,.16-.44.6.6,0,0,0-.16-.43,17.16,17.16,0,0,0-1.82-2c-.9-.87-1.47-1.31-1.71-1.31a.71.71,0,0,0-.47.16l-2.54,2a7.91,7.91,0,0,0-1.7-.67,24.39,24.39,0,0,0-.52-3.45.65.65,0,0,0-.67-.52H15.87a.72.72,0,0,0-.44.16.51.51,0,0,0-.2.4l-.51,3.37a9.65,9.65,0,0,0-1.67.71l-2.61-2a.58.58,0,0,0-.44-.16.78.78,0,0,0-.47.16c-2.12,2-3.17,3.17-3.17,3.56a.64.64,0,0,0,.15.4c.14.21.44.61.92,1.19s.81,1,1,1.35a10.43,10.43,0,0,0-.8,1.82l-3.36.51a.72.72,0,0,0-.36.2.58.58,0,0,0-.16.44v4.12a.64.64,0,0,0,.16.4.55.55,0,0,0,.36.23l3.4.56c.19.5.43,1.06.72,1.66-.51.72-1.17,1.56-2,2.54a.77.77,0,0,0-.16.44.71.71,0,0,0,.16.47,18.47,18.47,0,0,0,1.82,1.94c.9.87,1.48,1.31,1.74,1.31a.84.84,0,0,0,.48-.16l2.53-2a11.44,11.44,0,0,0,1.71.71,25,25,0,0,0,.51,3.41.6.6,0,0,0,.64.52H20a.69.69,0,0,0,.43-.16.63.63,0,0,0,.24-.4l.52-3.37a13.42,13.42,0,0,0,1.66-.67l2.58,1.94a.71.71,0,0,0,.47.16.66.66,0,0,0,.44-.16q3.21-3,3.21-3.56a.66.66,0,0,0-.16-.4c-.19-.24-.5-.64-.95-1.19a12.2,12.2,0,0,1-1-1.35,14.81,14.81,0,0,0,.75-1.82l3.37-.48a.65.65,0,0,0,.35-.23.88.88,0,0,0,.16-.44ZM46.22,15.23V12.14c0-.24-1.1-.46-3.29-.67a5.63,5.63,0,0,0-.63-1.15,12.44,12.44,0,0,0,1.11-3.05.23.23,0,0,0-.08-.16c-1.8-1.06-2.71-1.59-2.74-1.59s-.47.36-1,1.07-.94,1.21-1.15,1.47a5.63,5.63,0,0,0-1.34,0,18.19,18.19,0,0,0-1.15-1.47,7.86,7.86,0,0,0-1-1.07s-.94.53-2.74,1.59c-.08,0-.12.1-.12.16a12.45,12.45,0,0,0,1.15,3.05,7,7,0,0,0-.67,1.15c-2.19.21-3.29.43-3.29.67v3.09c0,.24,1.1.48,3.29.72a5.34,5.34,0,0,0,.67,1.14,12.45,12.45,0,0,0-1.15,3.06q0,.08.12.15l.76.44c.44.26.88.52,1.3.75a6.28,6.28,0,0,0,.68.36c.1,0,.43-.34,1-1s.93-1.19,1.15-1.51c.31,0,.54,0,.67,0s.36,0,.67,0a19.63,19.63,0,0,0,2,2.5l.16,0c.06,0,1-.52,2.74-1.55a.22.22,0,0,0,.08-.15,12.44,12.44,0,0,0-1.11-3.06A6.87,6.87,0,0,0,42.93,16c2.19-.24,3.29-.48,3.29-.72Zm0,22.67V34.81c0-.24-1.1-.48-3.29-.72a5.91,5.91,0,0,0-.63-1.15,12.29,12.29,0,0,0,1.11-3,.22.22,0,0,0-.08-.15c-1.8-1-2.71-1.55-2.74-1.55s-.47.34-1,1-.94,1.19-1.15,1.51a5.63,5.63,0,0,0-1.34,0,13.35,13.35,0,0,0-1.15-1.51c-.58-.69-.91-1-1-1s-.94.51-2.74,1.55q-.12.07-.12.15a12.3,12.3,0,0,0,1.15,3,7.47,7.47,0,0,0-.67,1.15c-2.19.24-3.29.48-3.29.72V37.9c0,.24,1.1.46,3.29.67a5.42,5.42,0,0,0,.67,1.15,12.45,12.45,0,0,0-1.15,3.05c0,.06,0,.11.12.16l.76.44,1.3.75a6.28,6.28,0,0,0,.68.36c.1,0,.43-.35,1-1s.93-1.18,1.15-1.47c.31,0,.54,0,.67,0s.36,0,.67,0a21.16,21.16,0,0,0,2,2.46l.16,0c.06,0,1-.52,2.74-1.55a.23.23,0,0,0,.08-.16,12.44,12.44,0,0,0-1.11-3.05,7,7,0,0,0,.63-1.15C45.12,38.36,46.22,38.14,46.22,37.9Z"/></g></svg>