<svg width="50" height="50" viewBox="0 0 50 50" fill="none" xmlns="http://www.w3.org/2000/svg">
<path d="M6 44.5V5.5H45V12.44H40.75V16.15H45V23.09H40.75V26.91H45V33.82H40.75V37.56H45V44.5H6ZM13.5 33.39H33.18V27.34L25.89 23C26.8302 22.5282 27.6148 21.7957 28.15 20.89C28.6963 19.9834 28.993 18.9484 29.01 17.89C29.008 17.1653 28.8619 16.4482 28.5804 15.7804C28.2989 15.1126 27.8874 14.5074 27.37 14C26.856 13.4581 26.2351 13.029 25.5465 12.7398C24.8579 12.4506 24.1167 12.3076 23.37 12.32C22.6221 12.2988 21.8782 12.4377 21.1883 12.7275C20.4985 13.0172 19.8785 13.4511 19.37 14C18.3275 15.0472 17.7384 16.4623 17.73 17.94C17.7103 19.0035 18.0099 20.0485 18.59 20.94C19.162 21.8061 19.9426 22.5145 20.86 23L13.5 27.34V33.39Z" fill="#000"/>
</svg>
