<svg width="50" height="50" viewBox="0 0 50 50" fill="none" xmlns="http://www.w3.org/2000/svg">
<path d="M36.027 14.0237V7.1736C36.027 5.97315 35.0677 5 33.8842 5C32.7007 5 31.7413 5.97315 31.7413 7.1736V14.0237C31.7413 15.2242 32.7007 16.1973 33.8842 16.1973C35.0677 16.1973 36.027 15.2242 36.027 14.0237ZM19.3781 9.69525V13.715C19.3781 15.7056 17.7984 17.3079 15.836 17.3079C13.8737 17.3079 12.294 15.7056 12.294 13.715V9.69525H9.67552C7.0854 9.69525 5 11.8106 5 14.4379V40.2573C5 42.8847 7.0854 45 9.67552 45H40.3245C42.9147 45 45 42.8847 45 40.2573V14.4379C45 11.8106 42.9147 9.69525 40.3245 9.69525H37.3072V13.716C37.3072 15.7066 35.7275 17.3089 33.7652 17.3089C31.8028 17.3089 30.2232 15.7066 30.2232 13.716V9.69525H19.3781ZM24.4573 21.0786C24.5358 21.0796 24.614 21.0825 24.6918 21.0877C25.3157 21.13 25.9193 21.3064 26.4572 21.5691C28.6085 22.62 30.1788 24.8785 30.2232 27.4127C30.2505 28.9693 29.3657 30.2828 28.3022 31.011C27.2563 31.7273 26.0535 32.0552 24.8988 32.2627C25.5573 32.8763 26.1998 33.6067 26.7383 34.4745C27.2528 35.3035 27.66 35.638 27.8177 35.7512L27.8257 35.739C27.8358 35.7235 27.846 35.7082 27.8693 35.6798C28.2395 35.2327 28.6648 33.8547 28.6648 33.8547C28.7078 33.6677 28.7867 33.491 28.897 33.335C29.0072 33.179 29.1467 33.0463 29.3075 32.945C29.4682 32.8437 29.647 32.7753 29.8338 32.7442C30.0207 32.7128 30.2117 32.7193 30.396 32.763C30.5803 32.8065 30.7543 32.8865 30.9082 32.9983C31.062 33.1102 31.1927 33.2517 31.2927 33.4148C31.3925 33.5778 31.4598 33.7593 31.4907 33.9487C31.5215 34.1382 31.5152 34.3318 31.4722 34.5188C31.4722 34.5188 31.1943 36.207 30.075 37.559C29.5153 38.235 28.413 38.9318 27.224 38.6472C26.035 38.3625 25.1805 37.4525 24.2992 36.0323C23.5633 34.8465 22.4502 33.9458 21.5205 33.3407C21.5273 33.4125 21.5238 33.5013 21.5203 33.5897C21.5165 33.6852 21.5127 33.7803 21.522 33.853C21.7617 35.7383 22.2512 36.6503 22.2512 36.6503C22.429 36.9932 22.4652 37.3937 22.352 37.7637C22.2388 38.1337 21.9855 38.443 21.6475 38.6237C21.48 38.7132 21.2966 38.7683 21.108 38.786C20.9194 38.8037 20.7292 38.7833 20.5483 38.7263C20.3675 38.6693 20.1994 38.5767 20.0539 38.4537C19.9083 38.3308 19.7881 38.18 19.7 38.0098C19.7 38.0098 18.9575 36.5397 18.6635 34.2265C18.3694 31.9133 18.4753 28.638 19.9677 24.7672C20.6019 23.1222 21.5753 21.9492 22.8092 21.4076C23.349 21.1707 23.9082 21.0714 24.4573 21.0786ZM24.3735 23.9913C24.2267 23.998 24.0887 24.032 23.9537 24.0912C23.5938 24.2492 23.0987 24.6718 22.6515 25.8318C22.1215 27.2065 21.9072 28.3903 21.7233 29.5363C21.8402 29.539 21.9545 29.5432 22.069 29.5473C22.6678 29.5693 23.2788 29.5917 24.3483 29.4033C25.2923 29.2372 26.1788 28.938 26.6887 28.5888C27.1985 28.2397 27.35 28.0355 27.34 27.4645C27.32 26.32 26.2358 24.7053 25.2082 24.2033C24.887 24.0465 24.6182 23.9803 24.3735 23.9913ZM18.028 7.1736V14.0237C18.028 15.2242 17.0687 16.1973 15.8852 16.1973C14.7017 16.1973 13.7424 15.2242 13.7424 14.0237V7.1736C13.7424 5.97315 14.7017 5 15.8852 5C17.0687 5 18.028 5.97315 18.028 7.1736Z" fill="#000"/>
</svg>
