<svg xmlns="http://www.w3.org/2000/svg" viewBox="0 0 50 50"><g id="appointments" data-name="appointments"><path fill="#000" d="M36.5784 13.4749V6.28228C36.5784 5.02181 35.571 4 34.3284 4C33.0857 4 32.0784 5.02181 32.0784 6.28228V13.4749C32.0784 14.7354 33.0857 15.7572 34.3284 15.7572C35.571 15.7572 36.5784 14.7354 36.5784 13.4749ZM19.097 8.93001V13.1508C19.097 15.2408 17.4383 16.9233 15.3779 16.9233C13.3173 16.9233 11.6587 15.2408 11.6587 13.1508V8.93001H8.90929C6.18967 8.93001 4 11.1511 4 13.9098V41.0202C4 43.7789 6.18967 46 8.90929 46H41.0907C43.8104 46 46 43.7789 46 41.0202V13.9098C46 11.1511 43.8104 8.93001 41.0907 8.93001H37.9225V13.1518C37.9225 15.2419 36.2639 16.9243 34.2034 16.9243C32.143 16.9243 30.4843 15.2419 30.4843 13.1518V8.93001H19.097ZM24.4302 20.8825C24.5126 20.8836 24.5947 20.8866 24.6764 20.8921C25.3314 20.9365 25.9653 21.1217 26.53 21.3976C28.7889 22.501 30.4378 24.8724 30.4843 27.5333C30.513 29.1678 29.584 30.547 28.4673 31.3116C27.3692 32.0637 26.1062 32.4079 24.8938 32.6258C25.5852 33.2701 26.2598 34.037 26.8253 34.9482C27.3655 35.8187 27.793 36.1699 27.9586 36.2887L27.9669 36.2759C27.9776 36.2597 27.9883 36.2436 28.0128 36.2138C28.4015 35.7443 28.8481 34.2974 28.8481 34.2974C28.8932 34.101 28.976 33.9155 29.0919 33.7517C29.2075 33.5879 29.354 33.4487 29.5229 33.3423C29.6916 33.2359 29.8794 33.1641 30.0755 33.1314C30.2717 33.0985 30.4723 33.1053 30.6658 33.1512C30.8594 33.1968 31.0421 33.2808 31.2036 33.3983C31.3651 33.5157 31.5023 33.6643 31.6073 33.8356C31.7121 34.0067 31.7828 34.1973 31.8152 34.3961C31.8476 34.5951 31.8409 34.7984 31.7958 34.9948C31.7958 34.9948 31.5041 36.7674 30.3288 38.187C29.7411 38.8968 28.5837 39.6284 27.3352 39.3295C26.0868 39.0306 25.1895 38.0751 24.2641 36.584C23.4915 35.3388 22.3227 34.3931 21.3465 33.7577C21.3536 33.8331 21.35 33.9264 21.3463 34.0191C21.3423 34.1194 21.3384 34.2194 21.3481 34.2957C21.5998 36.2753 22.1137 37.2328 22.1137 37.2328C22.3005 37.5928 22.3384 38.0133 22.2196 38.4018C22.1008 38.7903 21.8348 39.1152 21.4799 39.3049C21.304 39.3988 21.1114 39.4567 20.9134 39.4753C20.7154 39.4938 20.5157 39.4725 20.3258 39.4127C20.1358 39.3528 19.9594 39.2555 19.8066 39.1264C19.6537 38.9974 19.5275 38.839 19.435 38.6603C19.435 38.6603 18.6554 37.1166 18.3466 34.6878C18.0379 32.259 18.1491 28.8199 19.7161 24.7555C20.382 23.0283 21.4041 21.7966 22.6996 21.228C23.2665 20.9793 23.8536 20.875 24.4302 20.8825ZM24.3422 23.9409C24.188 23.9479 24.0431 23.9836 23.9014 24.0457C23.5235 24.2116 23.0036 24.6554 22.5341 25.8734C21.9776 27.3168 21.7525 28.5598 21.5595 29.7631C21.6822 29.7659 21.8022 29.7703 21.9224 29.7747C22.5512 29.7978 23.1928 29.8213 24.3158 29.6235C25.307 29.449 26.2378 29.1349 26.7731 28.7683C27.3084 28.4017 27.4675 28.1873 27.457 27.5877C27.436 26.386 26.2976 24.6906 25.2186 24.1635C24.8813 23.9988 24.5991 23.9294 24.3422 23.9409ZM17.6795 6.28228V13.4749C17.6795 14.7354 16.6721 15.7572 15.4295 15.7572C14.1868 15.7572 13.1795 14.7354 13.1795 13.4749V6.28228C13.1795 5.02181 14.1868 4 15.4295 4C16.6721 4 17.6795 5.02181 17.6795 6.28228Z"/></g></svg>