<svg xmlns="http://www.w3.org/2000/svg" viewBox="0 0 50 50"><g id="archive"><path id="path1271" d="M23,13.15V10.21H20.1v2.94Zm3,3v-3H23v3Zm-3,2.94V16.14H20.1v2.94Zm3,3v-3H23v3Zm16.16-9a5.32,5.32,0,0,1,1.11,1.74,5.22,5.22,0,0,1,.46,2.07V43.47a2.16,2.16,0,0,1-.62,1.58,2.32,2.32,0,0,1-1.58.66H10.49a2.08,2.08,0,0,1-1.58-.66,2.43,2.43,0,0,1-.66-1.58V6.53A2.08,2.08,0,0,1,8.91,5a2.43,2.43,0,0,1,1.58-.66H31.2a5.51,5.51,0,0,1,2,.45A5.08,5.08,0,0,1,35,5.86ZM31.9,7.44v8.7h8.7a2,2,0,0,0-.5-1L32.86,7.93a2,2,0,0,0-1-.49Zm8.91,35.33V19.08H31.2a2.06,2.06,0,0,1-1.58-.67A2.36,2.36,0,0,1,29,16.88V7.23H26v3H23v-3H11.19V42.77ZM26.31,26.08l2.49,8.07A4.74,4.74,0,0,1,29,35.36a3.89,3.89,0,0,1-1.66,3.19A6.58,6.58,0,0,1,23,39.79a7.15,7.15,0,0,1-4.23-1.24,4.06,4.06,0,0,1-1.7-3.19,3.81,3.81,0,0,1,.21-1.21q.49-1.44,2.78-9.15V22.06H23V25h1.82a1.46,1.46,0,0,1,.91.29,1.6,1.6,0,0,1,.54.79ZM23,36.85a4.42,4.42,0,0,0,2.11-.46c.58-.3.87-.65.87-1s-.29-.74-.87-1A4.54,4.54,0,0,0,23,33.86a4.28,4.28,0,0,0-2.07.46c-.56.3-.85.65-.87,1s.26.73.87,1A4.44,4.44,0,0,0,23,36.85Z"/></g></svg>