<svg width="50" height="50" viewBox="0 0 50 50" fill="none" xmlns="http://www.w3.org/2000/svg">
<path d="M10.1801 22.18C10.3586 22.1647 10.5246 22.0815 10.6436 21.9476C10.7627 21.8136 10.8259 21.6391 10.8201 21.46C10.8228 21.3747 10.8082 21.2898 10.7771 21.2104C10.746 21.131 10.6992 21.0587 10.6393 20.9979C10.5795 20.9371 10.5079 20.8891 10.429 20.8568C10.35 20.8245 10.2654 20.8086 10.1801 20.81H6.18008C5.99935 20.8044 5.82346 20.8689 5.68924 20.9901C5.55503 21.1112 5.47291 21.2796 5.46008 21.46C5.47188 21.6471 5.55152 21.8234 5.68408 21.956C5.81663 22.0885 5.99299 22.1682 6.18008 22.18H10.1801ZM10.1801 25.08C10.3475 25.0597 10.5017 24.9789 10.6136 24.8526C10.7254 24.7264 10.7872 24.5636 10.7872 24.395C10.7872 24.2264 10.7254 24.0635 10.6136 23.9373C10.5017 23.8111 10.3475 23.7303 10.1801 23.71H6.18008C6.08317 23.6983 5.98488 23.7072 5.8917 23.7363C5.79852 23.7654 5.71256 23.8139 5.63951 23.8786C5.56646 23.9433 5.50798 24.0228 5.46793 24.1119C5.42787 24.2009 5.40716 24.2974 5.40716 24.395C5.40716 24.4926 5.42787 24.5891 5.46793 24.6781C5.50798 24.7671 5.56646 24.8466 5.63951 24.9114C5.71256 24.9761 5.79852 25.0246 5.8917 25.0537C5.98488 25.0828 6.08317 25.0917 6.18008 25.08H10.1801ZM18.6401 25.65C20.8183 25.6069 22.9816 26.0177 24.9925 26.8561C27.0033 27.6945 28.8177 28.9423 30.3201 30.52V15.38C28.8485 17.0106 27.0446 18.3068 25.0298 19.1814C23.015 20.0559 20.8362 20.4885 18.6401 20.45V25.65ZM38.6401 16.79L37.3101 15.42L42.8301 9.93999L44.2001 11.23L38.6401 16.79ZM39.6401 23.79V21.9H48.9001V23.83L39.6401 23.79ZM37.3001 30.68L38.6301 29.31L44.1901 34.87L42.8401 36.2L37.3001 30.68ZM32.1701 9.93999C32.3556 9.93332 32.5406 9.96361 32.7143 10.0291C32.888 10.0946 33.0469 10.194 33.1819 10.3215C33.3168 10.449 33.425 10.602 33.5003 10.7717C33.5755 10.9414 33.6162 11.1244 33.6201 11.31V34.55C33.6149 34.7352 33.5733 34.9175 33.4976 35.0866C33.4219 35.2557 33.3136 35.4082 33.179 35.5355C33.0443 35.6627 32.8859 35.7621 32.7128 35.8281C32.5397 35.8941 32.3553 35.9253 32.1701 35.92C31.9868 35.9253 31.8044 35.8939 31.6335 35.8274C31.4626 35.761 31.3069 35.6609 31.1754 35.5331C31.0439 35.4054 30.9394 35.2526 30.8681 35.0837C30.7967 34.9148 30.76 34.7333 30.7601 34.55C28.3801 31.65 24.2301 27.9 18.0001 27.9H15.4101L21.0501 37.41L17.6301 39.9C17.2276 40.0541 16.7846 40.0668 16.3739 39.936C15.9633 39.8051 15.6093 39.5385 15.3701 39.18L8.37008 27.9H4.58008C4.58008 27.9 1.08008 26 1.08008 23C1.08008 20 4.58008 18.25 4.58008 18.25H18.0001C24.2401 18.25 28.3901 14.38 30.7701 11.32C30.7686 11.1363 30.8044 10.9541 30.8752 10.7846C30.9461 10.6151 31.0505 10.4617 31.1823 10.3337C31.3141 10.2056 31.4704 10.1056 31.6419 10.0397C31.8134 9.97374 31.9965 9.94323 32.1801 9.94999L32.1701 9.93999Z" fill="#000"/>
</svg>
