<svg width="50" height="50" viewBox="0 0 50 50" fill="none" xmlns="http://www.w3.org/2000/svg">
<path d="M47.128 41.9442C47.128 43.3249 46.0087 44.4442 44.628 44.4442H39.9999C39.0794 44.4442 38.3333 43.698 38.3333 42.7775C38.3334 41.8572 39.0795 41.1108 39.9999 41.1108H43.7947V3.33333H16.0172V6.0791C16.0172 6.99958 15.271 7.74577 14.3505 7.74577C13.43 7.74577 12.6838 6.99958 12.6838 6.0791V2.5C12.6838 1.11929 13.8031 1.72568e-08 15.1838 0H44.628C46.0087 0 47.128 1.11929 47.128 2.5V41.9442Z" fill="#000"/>
<path d="M8.33333 45.8333H37.5V8.33333H8.33333V45.8333ZM40.8333 46.6667C40.8333 48.0474 39.714 49.1667 38.3333 49.1667H7.5C6.11929 49.1667 5 48.0474 5 46.6667V7.5C5 6.11929 6.11929 5 7.5 5H38.3333C39.714 5 40.8333 6.11929 40.8333 7.5V46.6667Z" fill="#000"/>
<path d="M20.9817 21.1094C15.8365 21.1094 11.6667 25.2791 11.6667 30.4244C11.6667 35.5696 15.8365 39.7393 20.9817 39.7393C26.127 39.7393 30.2967 35.5696 30.2967 30.4244H20.9817V21.1094Z" fill="#000"/>
<path d="M25.1267 17.2196V26.5346H34.4417C34.4417 21.3893 30.272 17.2196 25.1267 17.2196Z" fill="#000"/>
</svg>
