<svg width="50" height="50" viewBox="0 0 50 50" fill="none" xmlns="http://www.w3.org/2000/svg">
<path d="M35.2188 3L35.374 3.01562C36.4041 3.12169 37.3054 3.55683 37.9795 4.27637C38.6081 4.95044 38.957 5.82893 38.957 6.75293V6.77246L38.9531 6.79102V7.16602H40.5703C41.4714 7.16609 42.2512 7.49165 42.9062 8.14648C43.5614 8.80163 43.9062 9.57832 43.9365 10.4834L43.9326 10.4873V33.9268C43.9325 34.8356 43.5694 35.7066 42.9219 36.3428L33.1016 46.0225C32.4654 46.6473 31.6096 46.9999 30.7197 47H9.37793C8.47694 46.9999 7.69699 46.6744 7.04199 46.0195C6.38686 45.3644 6.0606 44.5877 6.06055 43.6826V10.4912C6.06055 9.58985 6.3868 8.80949 7.04199 8.1543C7.69702 7.49936 8.47308 7.17394 9.37793 7.17383H12.2412V6.88574C12.1806 5.77993 12.662 4.70446 13.5859 3.93945C14.3244 3.32592 15.211 3.00391 16.1465 3.00391H17.9414L18.0967 3.01855C19.1268 3.1246 20.028 3.56071 20.7021 4.28027C21.3308 4.95437 21.6797 5.83282 21.6797 6.75684V6.77539L21.6758 6.79492V7.16992H29.5186V6.88184C29.458 5.77603 29.9393 4.70054 30.8633 3.93555C31.6018 3.32202 32.4884 3 33.4238 3H35.2188ZM9.39746 13.0176V43.6748H29.5762L29.5 33.5928C29.4927 32.7333 30.1893 32.0333 31.0488 32.0332H32.4424V23.667C31.6471 24.1252 30.6285 24.5452 29.8408 24.8027C29.4962 24.9164 29.1284 24.8594 28.833 24.6436C28.5379 24.4277 28.3672 24.0947 28.3672 23.7275V23.1484C28.3672 22.6714 28.6705 22.2433 29.1172 22.0879C30.3935 21.6448 31.8326 20.7769 32.9688 19.7695C33.2338 19.5347 33.5674 19.4063 33.9082 19.4062H34.6699C35.3249 19.4065 35.8584 19.9407 35.8584 20.5957V32.0293H40.5625V13.0176H38.8125C38.6534 13.8544 38.2141 14.619 37.5439 15.1719C36.8357 15.7589 35.9491 16.0693 34.9834 16.0693H33.4541C33.3859 16.0731 33.3133 16.0732 33.2451 16.0732C32.2341 16.0731 31.2912 15.6869 30.5869 14.9863C30.0303 14.4335 29.6625 13.7521 29.5186 13.0176H21.5391C21.38 13.8543 20.9407 14.619 20.2705 15.1719C19.5623 15.7589 18.6757 16.0693 17.71 16.0693H16.1807C16.1125 16.0731 16.0398 16.0732 15.9717 16.0732C14.9606 16.0732 14.0178 15.6869 13.3135 14.9863C12.7569 14.4335 12.3891 13.7522 12.2451 13.0176H9.39746ZM19.4229 19.1484C23.7778 19.1486 25.7284 21.8982 25.7285 24.6211C25.7285 26.973 24.4668 28.1547 23.5654 28.6963C25.4893 29.5939 26.5723 31.3891 26.5723 33.7334C26.5722 36.7556 24.6865 40.2852 19.373 40.2852C16.0216 40.2851 13.5563 38.7174 12.6094 35.9795C12.4579 35.544 12.526 35.074 12.7949 34.6953C13.0637 34.3205 13.4989 34.0968 13.957 34.0967H14.4688C15.0558 34.0967 15.5825 34.4531 15.7832 34.9795C16.1241 35.8733 17.0556 37.3769 19.4941 37.377C21.7701 37.377 23.1258 36.0286 23.126 33.7451C23.126 31.4615 21.8122 30.3057 19.2256 30.3057H18.8691C18.0854 30.3055 17.4493 29.7112 17.4492 28.8857C17.4492 28.0602 18.0853 27.424 18.8691 27.4238H18.998C21.3348 27.4238 22.3311 26.6133 22.3311 24.7197C22.3311 23.0685 21.2095 22.084 19.3311 22.084C17.7294 22.0841 16.7523 22.7011 16.2676 24.0264C16.0707 24.564 15.5407 24.9237 14.9463 24.9238H14.5332C14.0636 24.9238 13.6244 24.6929 13.3555 24.3066C13.0904 23.9241 13.0333 23.4581 13.1924 23.0264C13.7341 21.5796 15.0679 19.1484 19.4229 19.1484ZM16.1504 6.05664C16.0784 6.05664 16.0135 6.06786 15.9453 6.08301C15.8015 6.1171 15.6688 6.18111 15.54 6.28711C15.4492 6.36284 15.3854 6.44282 15.3438 6.51855C15.3021 6.5942 15.2905 6.67337 15.3018 6.74902V7.16211L15.3057 7.16602L15.2451 12.3125C15.2451 12.3579 15.2484 12.3999 15.2598 12.4453C15.2825 12.5476 15.3393 12.6465 15.415 12.7412C15.4339 12.7676 15.4531 12.7938 15.4795 12.8164C15.5401 12.877 15.6088 12.919 15.6846 12.9531C15.6993 12.9569 15.7106 12.964 15.7217 12.9678C15.7974 12.9943 15.8777 13.0098 15.9648 13.0098C15.9723 13.0133 15.9799 13.0137 15.9873 13.0137C16.0213 13.0137 16.0558 13.0098 16.0898 13.0098H17.7256C17.9716 13.0097 18.1758 12.9451 18.3311 12.8164C18.4068 12.752 18.468 12.6761 18.5059 12.5928C18.5284 12.5513 18.5395 12.5061 18.5508 12.4609C18.5621 12.4155 18.5664 12.3655 18.5664 12.3125L18.5889 10.4609L18.6309 7.16602V6.75293C18.6308 6.68489 18.6192 6.6131 18.5928 6.54883C18.5701 6.48459 18.5323 6.42014 18.4795 6.36719C18.4378 6.32553 18.392 6.28311 18.3428 6.24902C18.2444 6.17714 18.1305 6.12781 17.998 6.09375C17.9338 6.07487 17.8618 6.06421 17.79 6.05664H16.1504ZM33.4199 6.04492C33.3669 6.04492 33.3138 6.04919 33.2607 6.06055C33.1017 6.09084 32.9536 6.16192 32.8135 6.2793C32.7642 6.32096 32.7265 6.35959 32.6924 6.39746C32.6584 6.43899 32.6322 6.47309 32.6133 6.51465C32.5944 6.55627 32.579 6.59023 32.5752 6.63184V7.16211L32.5371 10.457L32.5332 10.4492L32.5107 12.3018C32.5108 12.347 32.5151 12.3884 32.5264 12.4336C32.5491 12.5358 32.6059 12.6348 32.6816 12.7295C32.7004 12.7557 32.719 12.7821 32.7451 12.8047C32.8057 12.8653 32.8745 12.9073 32.9502 12.9414C32.9653 12.9452 32.9769 12.9532 32.9883 12.957C33.0639 12.9835 33.1435 12.998 33.2305 12.998C33.238 13.0018 33.2454 13.002 33.2529 13.002C33.287 13.002 33.3214 12.998 33.3555 12.998H34.9912C35.2374 12.998 35.4424 12.9335 35.5977 12.8047C35.6731 12.7405 35.7337 12.6651 35.7715 12.582C35.7942 12.5404 35.806 12.4947 35.8174 12.4492C35.8287 12.4039 35.832 12.3547 35.832 12.3018L35.8545 10.4492L35.8965 7.1543V6.74219C35.8965 6.67402 35.8849 6.60149 35.8584 6.53711C35.8357 6.47281 35.7981 6.40842 35.7451 6.35547C35.7035 6.31381 35.6576 6.27237 35.6084 6.23828C35.51 6.16637 35.3962 6.11708 35.2637 6.08301C35.1994 6.06413 35.1275 6.05248 35.0557 6.04492H33.4199Z" fill="#000"/>
</svg>
