<svg xmlns="http://www.w3.org/2000/svg" viewBox="0 0 50 50"><g id="calendar"><path id="path1034" fill="#000" d="M9.16,41.26h6.48V34.78H9.16Zm7.93,0h7.17V34.78H17.09ZM9.16,33.34h6.48V26.17H9.16Zm7.93,0h7.17V26.17H17.09ZM9.16,24.72h6.48V18.25H9.16ZM25.7,41.26h7.21V34.78H25.7ZM17.09,24.72h7.17V18.25H17.09ZM34.32,41.26h6.47V34.78H34.32ZM25.7,33.34h7.21V26.17H25.7Zm-7.88-19.4V7.46A.6.6,0,0,0,17.58,7a1,1,0,0,0-.49-.24H15.64a.63.63,0,0,0-.48.24,1.09,1.09,0,0,0-.24.48v6.48a.72.72,0,0,0,.24.52.54.54,0,0,0,.48.2h1.45a.66.66,0,0,0,.49-.2A.9.9,0,0,0,17.82,13.94Zm16.5,19.4h6.47V26.17H34.32ZM25.7,24.72h7.21V18.25H25.7Zm8.62,0h6.47V18.25H34.32ZM35,13.94V7.46a.66.66,0,0,0-.2-.48.82.82,0,0,0-.52-.24H32.91a.76.76,0,0,0-.53.24.57.57,0,0,0-.2.48v6.48a.81.81,0,0,0,.2.52.56.56,0,0,0,.53.2h1.41a.69.69,0,0,0,.52-.2A.72.72,0,0,0,35,13.94Zm8.65-1.45V41.26a2.71,2.71,0,0,1-.88,2,2.85,2.85,0,0,1-2,.84H9.16a2.87,2.87,0,0,1-2.85-2.86V12.49a2.74,2.74,0,0,1,.84-2,2.79,2.79,0,0,1,2-.85h2.9V7.46a3.43,3.43,0,0,1,1-2.53,3.44,3.44,0,0,1,2.53-1h1.45a3.57,3.57,0,0,1,3.58,3.58V9.63h8.62V7.46a3.38,3.38,0,0,1,1.08-2.53,3.55,3.55,0,0,1,2.54-1h1.41a3.57,3.57,0,0,1,2.57,1,3.25,3.25,0,0,1,1,2.53V9.63h2.85a2.79,2.79,0,0,1,2,.85,2.86,2.86,0,0,1,.88,2Z"/></g></svg>