<svg xmlns="http://www.w3.org/2000/svg" viewBox="0 0 50 50"><g id="collaborative_wall" data-name="collaborative wall"><path id="path1703" fill="#000" d="M24.45,21.32A4.43,4.43,0,0,1,23,24.66a5.23,5.23,0,0,1-3.59,1.43,5,5,0,0,1-5.11-4.77,4.44,4.44,0,0,1,1.52-3.38,5.33,5.33,0,0,1,7.18,0A4.27,4.27,0,0,1,24.45,21.32Zm11.82,0a4.45,4.45,0,0,1-1.47,3.34,5.27,5.27,0,0,1-3.59,1.43,5,5,0,0,1-3.59-1.43,4.66,4.66,0,0,1-1.52-3.34,4.4,4.4,0,0,1,1.52-3.38,5.12,5.12,0,0,1,3.59-1.39,5.06,5.06,0,0,1,3.59,1.39A4.49,4.49,0,0,1,36.27,21.32Zm5.32,4.22V9.83a4.43,4.43,0,0,0-.76-2.91,3.17,3.17,0,0,0-2.61-.84H12a3.38,3.38,0,0,0-2.66.8,4.89,4.89,0,0,0-.72,3V25.71a13.25,13.25,0,0,0,2.11.93c.73.25,1.37.48,1.9.68a9.09,9.09,0,0,0,1.9.42c.73.08,1.3.17,1.69.25a7,7,0,0,0,1.65.09,5.38,5.38,0,0,1,1.35,0A4.16,4.16,0,0,0,20.61,28c.7-.11,1.05-.12,1.05,0a3.14,3.14,0,0,1,2.24.63.89.89,0,0,0,.21.22c.43.39.9.8,1.44,1.22q.16-2.16,2.79-2.07l.88,0,1,0,1.05,0a6.08,6.08,0,0,0,1.27,0A7,7,0,0,1,33.83,28a4.53,4.53,0,0,0,1.43-.21,7.15,7.15,0,0,1,1.48-.3A4.15,4.15,0,0,0,38.3,27a8.44,8.44,0,0,1,1.61-.63,5.13,5.13,0,0,0,1.68-.85Zm3.85-.08a21.77,21.77,0,0,1-8.79,5.91c1.33,4.47,1.14,8.13-.54,11a7.1,7.1,0,0,1-4.31,3.46,5,5,0,0,1-4.27-.34,4,4,0,0,1-1.94-3.88l0-7.69L25,33.78l-.55-.13,0,7.94a4,4,0,0,1-1.94,3.88,5.14,5.14,0,0,1-4.31.34,7.27,7.27,0,0,1-4.31-3.5q-2.44-4.28-.5-10.94a21.77,21.77,0,0,1-8.79-5.91,1.2,1.2,0,0,1-.08-1.52c.34-.42.8-.41,1.39,0a3,3,0,0,1,.3.17,1.36,1.36,0,0,1,.25.17V8a4.24,4.24,0,0,1,1.1-2.92,3.36,3.36,0,0,1,2.7-1.18h29.6a3.62,3.62,0,0,1,2.7,1.18A3.89,3.89,0,0,1,43.62,8V24.32l.51-.34c.59-.42,1-.44,1.39,0s.31.9-.08,1.52Z"/></g></svg>