<?xml version="1.0" encoding="UTF-8"?><svg id="community" xmlns="http://www.w3.org/2000/svg" viewBox="0 0 50 50"><path d="M40.39,35.97c1.45,0,2.7,.52,3.75,1.56s1.56,2.29,1.56,3.75c0,1.45-.52,2.7-1.56,3.75s-2.28,1.56-3.7,1.56-2.67-.52-3.75-1.56-1.6-2.31-1.56-3.79c0-.57,.13-1.19,.38-1.85l-8.01-5.78c-1.55,1.58-3.41,2.37-5.59,2.37s-4.05-.77-5.59-2.32c-1.55-1.55-2.34-3.43-2.37-5.64,0-.28,.05-.7,.14-1.23l-6.35-2.09c-.51,.44-1.07,.66-1.71,.66-.76,0-1.39-.25-1.9-.76-.51-.51-.76-1.14-.76-1.9,0-.76,.25-1.37,.76-1.85,.51-.47,1.14-.73,1.9-.76,.63,0,1.17,.21,1.61,.62s.74,.9,.9,1.47l6.4,2.13c.66-1.3,1.63-2.32,2.89-3.08s2.62-1.14,4.08-1.14c1.64,0,3.16,.49,4.55,1.47l9.43-9.43c-.51-.95-.76-1.82-.76-2.61,0-1.45,.52-2.7,1.56-3.75,1.04-1.04,2.29-1.56,3.75-1.56s2.69,.52,3.7,1.56c1.01,1.04,1.53,2.29,1.56,3.75,.03,1.45-.49,2.69-1.56,3.7-1.07,1.01-2.32,1.53-3.75,1.56-.82,0-1.69-.27-2.61-.81l-9.43,9.48c.98,1.39,1.47,2.91,1.47,4.55,0,1.17-.27,2.32-.81,3.46l8.01,5.74c1.04-.82,2.16-1.23,3.37-1.23h0Z" fill="#000"/></svg>