<svg width="50" height="50" viewBox="0 0 50 50" fill="none" xmlns="http://www.w3.org/2000/svg">
<path d="M39.7634 35.4765C41.2069 35.4765 42.4465 35.9933 43.4821 37.0268C44.5177 38.0604 45.0355 39.2975 45.0355 40.7383C45.0354 42.179 44.5176 43.4161 43.4821 44.4497C42.4466 45.4832 41.2227 46 39.8105 46C38.3983 46 37.1587 45.4832 36.0918 44.4497C35.0248 43.4161 34.507 42.1634 34.5384 40.6913C34.5384 40.1276 34.6639 39.5168 34.915 38.8591L26.9598 33.1276C25.4221 34.6935 23.5706 35.4765 21.4052 35.4765C19.2399 35.4765 17.3884 34.7092 15.8507 33.1745C14.313 31.6398 13.5285 29.7763 13.4972 27.5839C13.4972 27.3021 13.5442 26.8949 13.6383 26.3624L7.33072 24.2954C6.82861 24.7339 6.26373 24.9531 5.63609 24.9531C4.88292 24.9531 4.25528 24.7026 3.75317 24.2014C3.25106 23.7003 3 23.0739 3 22.3222C3 21.5705 3.25106 20.9598 3.75317 20.49C4.25528 20.0202 4.88292 19.7697 5.63609 19.7383C6.26373 19.7383 6.79723 19.9419 7.23658 20.349C7.67593 20.7561 7.97404 21.2416 8.13092 21.8054L14.4856 23.9194C15.1446 22.6353 16.1018 21.6174 17.3571 20.8657C18.6123 20.1141 19.9617 19.7382 21.4052 19.7382C23.037 19.7382 24.5434 20.2237 25.9242 21.1946L35.2915 11.8456C34.7894 10.906 34.5383 10.0447 34.5383 9.26175C34.5383 7.82107 35.0561 6.58392 36.0917 5.55032C37.1272 4.51671 38.3668 3.99994 39.8104 4C41.254 4.00006 42.4778 4.51683 43.482 5.55032C44.4862 6.5838 45.004 7.82094 45.0354 9.26175C45.0668 10.7025 44.549 11.924 43.482 12.9261C42.415 13.9283 41.1754 14.445 39.7633 14.4765C38.9473 14.4765 38.0843 14.2103 37.1743 13.6778L27.807 23.0738C28.7798 24.4518 29.2662 25.9552 29.2662 27.5838C29.2662 28.7427 28.9995 29.8859 28.466 31.0134L36.4212 36.6979C37.4568 35.8836 38.5708 35.4764 39.7634 35.4764V35.4765Z" fill="#000"/>
</svg>
