<svg width="24" height="24" viewBox="0 0 24 24" fill="none" xmlns="http://www.w3.org/2000/svg">
<path fill-rule="evenodd" clip-rule="evenodd" d="M12.2119 15.0029C15.4503 15.0973 18 17.2688 18 20.1367C17.9999 21.3574 16.8619 21.9998 15.9316 22H8.07129C7.13489 22 6.00299 21.3526 6.00293 20.1367V20.0996C6.00173 20.0796 6.00001 20.0594 6 20.0391C6 17.001 9.01922 14.91 12.2119 15.0029ZM12.1543 17.002C9.68214 16.9299 8.03506 18.4847 8.00098 19.9912C8.02044 19.9957 8.04382 20 8.07129 20H15.9316C15.9559 20 15.9769 19.996 15.9951 19.9922C15.9096 18.5269 14.5285 17.0713 12.1543 17.002Z" fill="#000"/>
<path d="M4.66113 11.0029C5.28292 11.0236 5.86794 11.1564 6.39648 11.3848C6.90343 11.6039 7.13704 12.1923 6.91797 12.6992C6.71254 13.1745 6.18243 13.409 5.69922 13.2559L5.60352 13.2207L5.375 13.1348C5.13884 13.0584 4.87808 13.0114 4.59473 13.002C3.18861 12.9551 2.1454 13.9091 2.01465 15H5C5.55228 15 6 15.4477 6 16C6 16.5523 5.55228 17 5 17H1.74805C0.856278 17 0.000147921 16.3149 0 15.3096V15.2314C5.63097e-07 12.7675 2.18224 10.9205 4.66113 11.0029Z" fill="#000"/>
<path d="M19.6611 11.0029C22.0557 11.0824 24 12.9783 24 15.3096C23.9998 16.3197 23.1386 17 22.252 17H19C18.4477 17 18 16.5523 18 16C18 15.4477 18.4477 15 19 15H21.9736C21.8151 13.9516 20.8682 13.0442 19.5947 13.002C19.1611 12.9875 18.756 13.0711 18.4014 13.2266C17.8956 13.4482 17.3057 13.2177 17.084 12.7119C16.8624 12.2061 17.0929 11.6163 17.5986 11.3945C18.225 11.1199 18.9269 10.9785 19.6611 11.0029Z" fill="#000"/>
<path fill-rule="evenodd" clip-rule="evenodd" d="M12 5C14.2091 5 16 6.79086 16 9C16 11.2091 14.2091 13 12 13C9.79086 13 8 11.2091 8 9C8 6.79086 9.79086 5 12 5ZM12 7C10.8954 7 10 7.89543 10 9C10 10.1046 10.8954 11 12 11C13.1046 11 14 10.1046 14 9C14 7.89543 13.1046 7 12 7Z" fill="#000"/>
<path fill-rule="evenodd" clip-rule="evenodd" d="M4.5 2C6.433 2 8 3.567 8 5.5C8 7.433 6.433 9 4.5 9C2.567 9 1 7.433 1 5.5C1 3.567 2.567 2 4.5 2ZM4.5 4C3.67157 4 3 4.67157 3 5.5C3 6.32843 3.67157 7 4.5 7C5.32843 7 6 6.32843 6 5.5C6 4.67157 5.32843 4 4.5 4Z" fill="#000"/>
<path fill-rule="evenodd" clip-rule="evenodd" d="M19.5 2C21.433 2 23 3.567 23 5.5C23 7.433 21.433 9 19.5 9C17.567 9 16 7.433 16 5.5C16 3.567 17.567 2 19.5 2ZM19.5 4C18.6716 4 18 4.67157 18 5.5C18 6.32843 18.6716 7 19.5 7C20.3284 7 21 6.32843 21 5.5C21 4.67157 20.3284 4 19.5 4Z" fill="#000"/>
</svg>
