<svg width="24" height="24" viewBox="0 0 24 24" fill="none" xmlns="http://www.w3.org/2000/svg">
<path d="M12.2119 15.0029C15.4503 15.0973 18 17.2688 18 20.1367C17.9999 21.3574 16.8619 21.9998 15.9316 22H8.07129C7.13489 22 6.00299 21.3526 6.00293 20.1367V20.0996C6.00173 20.0796 6.00001 20.0594 6 20.0391C6 17.001 9.01922 14.91 12.2119 15.0029Z" fill="#000"/>
<path d="M4.66113 11.0029C5.28292 11.0236 5.86794 11.1564 6.39648 11.3848C6.40483 11.3884 6.41363 11.3917 6.42188 11.3955C6.69516 11.5226 6.93675 11.7249 7.11816 11.9033C7.31167 12.0936 7.49897 12.3194 7.6543 12.5547C7.80282 12.7798 7.95918 13.069 8.03516 13.3828C8.10415 13.668 8.16402 14.25 7.70703 14.707L5.70703 16.707C5.5195 16.8946 5.26522 17 5 17H1.74805C0.856278 17 0.000147921 16.3149 0 15.3096V15.2314C5.63097e-07 12.7675 2.18224 10.9205 4.66113 11.0029Z" fill="#000"/>
<path d="M19.6611 11.0029C22.0555 11.0825 24 12.9783 24 15.3096C23.9999 16.3195 23.1384 16.9998 22.252 17H19C18.7349 16.9999 18.4804 16.8944 18.293 16.707L16.293 14.707C15.8873 14.3012 15.8128 13.7869 15.8945 13.3652C15.9674 12.9894 16.1599 12.6719 16.3301 12.4463C16.6633 12.0045 17.1672 11.5837 17.5986 11.3945C18.2249 11.12 18.927 10.9785 19.6611 11.0029Z" fill="#000"/>
<path d="M12 5C14.2091 5 16 6.79086 16 9C16 11.2091 14.2091 13 12 13C9.79086 13 8 11.2091 8 9C8 6.79086 9.79086 5 12 5Z" fill="#000"/>
<path d="M4.5 2C6.433 2 8 3.567 8 5.5C8 7.433 6.433 9 4.5 9C2.567 9 1 7.433 1 5.5C1 3.567 2.567 2 4.5 2Z" fill="#000"/>
<path d="M19.5 2C21.433 2 23 3.567 23 5.5C23 7.433 21.433 9 19.5 9C17.567 9 16 7.433 16 5.5C16 3.567 17.567 2 19.5 2Z" fill="#000"/>
</svg>
