<svg width="50" height="50" viewBox="0 0 50 50" fill="none" xmlns="http://www.w3.org/2000/svg">
<path d="M25.8066 33.165C30.533 33.3358 33.8075 37.1616 33.8076 41.665C33.8076 42.6489 33.0117 43.4404 32.0322 43.4404H18.9766C17.9927 43.4404 17.2012 42.6445 17.2012 41.665V41.4639H17.1973C17.1975 36.7767 21.0801 32.9945 25.8066 33.165Z" fill="#000"/>
<path d="M8.60938 24.4512C13.3361 24.6217 16.6113 28.4475 16.6113 32.9512C16.6112 33.9349 15.8153 34.7266 14.8359 34.7266H1.77539C0.791629 34.7266 8.43954e-05 33.9305 0 32.9512V32.75C0 28.0627 3.88273 24.2807 8.60938 24.4512Z" fill="#000"/>
<path d="M41.6094 24.0059C46.1087 24.1676 49.6113 28.0022 49.6113 32.5059C49.6112 33.4896 48.8153 34.2812 47.8359 34.2812H34.7793C33.7957 34.2811 33.004 33.4851 33.0039 32.5059V32.3047H33C33 27.6174 36.8827 23.8354 41.6094 24.0059Z" fill="#000"/>
<path d="M25.1416 20C27.9813 20 30.2839 22.3019 30.2842 25.1416C30.2842 27.9815 27.9815 30.2842 25.1416 30.2842C22.3018 30.2841 20 27.9814 20 25.1416C20.0003 22.302 22.302 20.0001 25.1416 20Z" fill="#000"/>
<path d="M8.30762 11.627C11.1475 11.627 13.4492 13.9287 13.4492 16.7686C13.4492 19.6084 11.1475 21.9101 8.30762 21.9102C5.46774 21.9102 3.16603 19.6084 3.16602 16.7686C3.16602 13.9287 5.46773 11.627 8.30762 11.627Z" fill="#000"/>
<path d="M41.6914 11.627C44.5313 11.627 46.834 13.9287 46.834 16.7686C46.834 19.6084 44.5313 21.9102 41.6914 21.9102C38.8517 21.9099 36.5498 19.6083 36.5498 16.7686C36.5498 13.9288 38.8517 11.6272 41.6914 11.627Z" fill="#000"/>
<path d="M24.9971 5.55664C27.837 5.55664 30.1396 7.85933 30.1396 10.6992C30.1396 13.5391 27.8369 15.8408 24.9971 15.8408C22.1574 15.8406 19.8555 13.5389 19.8555 10.6992C19.8555 7.85949 22.1574 5.55689 24.9971 5.55664Z" fill="#000"/>
</svg>
