<svg width="24" height="24" viewBox="0 0 24 24" fill="none" xmlns="http://www.w3.org/2000/svg">
<path d="M12.3872 15.9192C14.6558 16.0012 16.2276 17.8376 16.2277 19.9992C16.2277 20.4714 15.8456 20.8514 15.3755 20.8514H9.10875C8.63652 20.8514 8.25656 20.4694 8.25656 19.9992V19.9027H8.25469C8.25479 17.6528 10.1184 15.8374 12.3872 15.9192Z" fill="#000"/>
<path d="M4.1325 11.7366C6.40131 11.8184 7.97344 13.6548 7.97344 15.8166C7.9734 16.2888 7.59135 16.6687 7.12125 16.6687H0.852188C0.379982 16.6687 4.05098e-05 16.2867 0 15.8166V15.72C0 13.4701 1.86371 11.6547 4.1325 11.7366Z" fill="#000"/>
<path d="M19.9725 11.5228C22.1322 11.6005 23.8134 13.441 23.8134 15.6028C23.8134 16.075 23.4314 16.455 22.9613 16.455H16.6941C16.2219 16.4549 15.8419 16.0729 15.8419 15.6028V15.5062H15.84C15.84 13.2563 17.7037 11.441 19.9725 11.5228Z" fill="#000"/>
<path d="M12.068 9.6C13.431 9.6 14.5363 10.7049 14.5364 12.068C14.5364 13.4311 13.4311 14.5364 12.068 14.5364C10.7049 14.5363 9.6 13.4311 9.6 12.068C9.60012 10.705 10.7049 9.60006 12.068 9.6Z" fill="#000"/>
<path d="M3.98766 5.58094C5.3508 5.58094 6.45563 6.68576 6.45563 8.04891C6.45562 9.41204 5.35079 10.5169 3.98766 10.5169C2.62451 10.5169 1.51969 9.41205 1.51969 8.04891C1.51969 6.68576 2.62451 5.58094 3.98766 5.58094Z" fill="#000"/>
<path d="M20.0119 5.58094C21.375 5.58094 22.4803 6.68576 22.4803 8.04891C22.4803 9.41205 21.375 10.5169 20.0119 10.5169C18.6488 10.5168 17.5439 9.41197 17.5439 8.04891C17.5439 6.68584 18.6488 5.58106 20.0119 5.58094Z" fill="#000"/>
<path d="M11.9986 2.66719C13.3617 2.66719 14.467 3.77248 14.467 5.13562C14.467 6.49876 13.3617 7.60359 11.9986 7.60359C10.6356 7.60347 9.53063 6.49869 9.53063 5.13562C9.53063 3.77255 10.6356 2.66731 11.9986 2.66719Z" fill="#000"/>
</svg>
