<?xml version="1.0" encoding="UTF-8"?>
<svg id="skills" xmlns="http://www.w3.org/2000/svg" viewBox="0 0 156.53 156.53">
  <path class="cls-1" d="m130.71,52.09c0-.18-.03-.37-.07-.55-.01-.04-.01-.09-.03-.13-.06-.2-.13-.39-.23-.58,0-.01-.02-.03-.03-.04-.02-.04-.06-.08-.08-.12-.1-.15-.21-.29-.33-.42-.04-.05-.09-.09-.14-.13-.14-.13-.3-.24-.46-.34-.02-.01-.04-.04-.07-.05l-49.63-27.23s-.07-.02-.1-.04c-.14-.07-.29-.13-.44-.17-.06-.02-.11-.04-.17-.05-.2-.05-.41-.08-.63-.08,0,0,0,0,0,0,0,0-.02,0-.03,0-.21,0-.41.03-.61.08-.06.01-.11.04-.17.05-.15.05-.3.1-.44.18-.03.02-.07.02-.1.04l-49.12,27.23s-.05.04-.08.06c-.15.09-.3.2-.43.32-.05.04-.09.09-.14.13-.12.13-.23.26-.32.42-.03.04-.06.08-.08.12,0,.01-.02.02-.03.04-.1.19-.18.38-.23.57-.01.04-.02.09-.03.13-.04.18-.07.36-.07.54,0,.03-.01.06-.01.09v53.96s.01.06.01.09c0,.18.03.37.07.55,0,.04.01.08.02.12.06.19.13.38.23.57,0,.01.02.03.03.04.03.05.06.08.09.13.1.15.2.28.32.41.04.05.09.09.14.13.14.13.28.24.44.33.03.02.05.04.07.05l49.38,27.48s.07.02.1.04c.14.07.29.13.45.18.06.02.11.04.16.05.21.05.42.08.64.08h.01c.21,0,.42-.03.62-.08.05-.01.1-.03.16-.05.15-.05.3-.1.44-.17.03-.01.06-.02.09-.04l48.87-26.6s.01-.01.02-.02c.13-.07.24-.17.35-.26.08-.06.16-.11.23-.18.07-.07.13-.16.19-.24.09-.11.19-.22.26-.34,0-.01.02-.02.02-.03.1-.18.18-.38.24-.57.01-.04.02-.09.03-.13.04-.18.07-.36.08-.54,0-.03.01-.06.01-.1l.5-54.84s-.01-.06-.01-.1Zm-8.54.07l-18.19,9.94-22.89-13.04v-19.43l41.08,22.54Zm-46.63-22.52v20.53l-23.25,11.57-17.37-9.58,40.62-22.52Zm-43.58,27.22l17.23,9.51,1.35,24.91-18.59,10.16v-44.58Zm2.97,49.28l17.16-9.38,23.59,12.22.09,19.89-40.84-22.73Zm46.39,22.8l-.09-19.57,16.6-15.91,23.9,13.49-40.4,21.99Zm43.39-26.67l-23.92-13.5,6.69-22.27,17.64-9.64-.42,45.41Z"/>
</svg>