<svg width="24" height="24" viewBox="0 0 24 24" fill="none" xmlns="http://www.w3.org/2000/svg">
<path d="M18.5 0C19.7095 0 20.7186 0.85886 20.9502 2H21.5C22.3284 2 23 2.67157 23 3.5V6.5C23 7.32843 22.3284 8 21.5 8H21V9H21.5C22.3284 9 23 9.67157 23 10.5V13.5C23 14.3284 22.3284 15 21.5 15H21V16H21.5C22.3284 16 23 16.6716 23 17.5V20.5C23 21.3284 22.3284 22 21.5 22H20.9502C20.7186 23.1411 19.7095 24 18.5 24H5.5C4.11929 24 3 22.8807 3 21.5V19H2C1.44772 19 1 18.5523 1 18C1 17.4477 1.44772 17 2 17H3V15H2C1.44772 15 1 14.5523 1 14C1 13.4477 1.44772 13 2 13H3V11H2C1.44772 11 1 10.5523 1 10C1 9.44772 1.44772 9 2 9H3V7H2C1.44772 7 1 6.55228 1 6C1 5.44772 1.44772 5 2 5H3V2.5C3 1.11929 4.11929 0 5.5 0H18.5ZM5.5 2C5.22386 2 5 2.22386 5 2.5V21.5C5 21.7761 5.22386 22 5.5 22H18.5C18.7761 22 19 21.7761 19 21.5V2.5C19 2.22386 18.7761 2 18.5 2H5.5ZM15.5 5C16.3284 5 17 5.67157 17 6.5V8.5L16.9922 8.65332C16.9205 9.35931 16.3593 9.92051 15.6533 9.99219L15.5 10H8.5L8.34668 9.99219C7.64069 9.92051 7.07949 9.35931 7.00781 8.65332L7 8.5V6.5C7 5.67157 7.67157 5 8.5 5H15.5ZM9 8H15V7H9V8Z" fill="#000"/>
</svg>
