<?xml version="1.0" encoding="UTF-8"?>
<svg id="textbook" xmlns="http://www.w3.org/2000/svg" viewBox="0 0 156.53 156.53">
  
  <path class="cls-1" d="m110.8,25.16H44.5c-1.55.05-2.8,1.3-2.85,2.85v1.24h2.21c4.45,0,8.07,3.8,8.07,8.46v.97c0,4.67-3.62,8.46-8.07,8.46h-2.21v7.61h2.21c4.45,0,8.07,3.8,8.07,8.46v.97c0,4.67-3.62,8.46-8.07,8.46h-2.21v7.61h2.21c4.45,0,8.07,3.8,8.07,8.46v.97c0,4.67-3.62,8.46-8.07,8.46h-2.21v7.61h2.21c4.45,0,8.07,3.8,8.07,8.46v.97c0,4.67-3.62,8.46-8.07,8.46h-2.21v1.24c0,1.66,1.35,2.85,3.01,2.85h48.89c.01-.08.02-.16.04-.24l11.36-55.92c.54-2.68,1.67-5.23,3.27-7.39l5.45-7.37v-28.82c-.05-1.55-1.3-2.8-2.85-2.85Zm-14.79,29.07h-33.88v-10.98h33.88v10.98Z"/>
  <g>
    <path class="cls-1" d="m46.07,35.89c-.5-.79-1.3-1.3-2.21-1.3h-11.67c-.42,0-.83.11-1.19.31-.48.26-.88.68-1.15,1.2-.07.13-.13.26-.18.4-.07.19-.12.38-.16.59-.04.2-.06.41-.06.63v.97c0,1.29.69,2.4,1.67,2.88.33.16.69.25,1.06.25h11.67c.49,0,.95-.16,1.35-.42.21-.14.41-.3.58-.49.02-.02.03-.05.05-.07.46-.56.75-1.31.75-2.13v-.97c0-.68-.2-1.31-.52-1.82Z"/>
    <path class="cls-1" d="m43.86,60.09h-11.67c-.75,0-1.44.35-1.93.91-.37.42-.64.97-.75,1.58-.04.2-.06.41-.06.63v.97c0,.22.02.43.06.63.11.61.37,1.16.75,1.58.49.57,1.18.91,1.93.91h11.67c.75,0,1.44-.35,1.93-.91.49-.57.8-1.35.8-2.21v-.97c0-.86-.31-1.64-.8-2.21-.49-.57-1.18-.91-1.93-.91Z"/>
    <path class="cls-1" d="m43.86,85.6h-11.67c-1.51,0-2.73,1.4-2.73,3.12v.97c0,.65.17,1.25.47,1.75.49.83,1.32,1.38,2.27,1.38h11.67c.83,0,1.57-.44,2.07-1.11.1-.14.19-.28.27-.44.24-.46.39-1,.39-1.58v-.97c0-.65-.17-1.25-.47-1.75-.49-.83-1.32-1.38-2.27-1.38Z"/>
    <path class="cls-1" d="m46.44,113.22c-.02-.07-.05-.13-.07-.19-.03-.09-.06-.18-.1-.26-.07-.14-.15-.28-.23-.41-.5-.75-1.28-1.25-2.17-1.25h-11.67c-.75,0-1.44.35-1.93.91-.49.57-.8,1.35-.8,2.21v.97c0,1.73,1.22,3.12,2.73,3.12h11.67c.94,0,1.78-.55,2.27-1.38.29-.5.47-1.1.47-1.75v-.97c0-.31-.05-.6-.12-.88-.01-.04-.02-.09-.03-.13Z"/>
  </g>
  <path class="cls-1" d="m127.61,69.97l-1.11-4.61-2.12-8.86c-.04-.18-.12-.35-.2-.51-.29-.63-.79-1.1-1.42-1.33-.11-.04-.22-.1-.34-.12-.21-.04-.42-.04-.62-.03-.08,0-.16.02-.24.03-.14.02-.28.06-.42.1-.08.03-.15.05-.23.09-.14.06-.27.14-.4.23-.06.04-.12.08-.18.12-.18.15-.35.31-.49.5l-6.2,8.39-2.03,2.74c-.46.62-.85,1.29-1.2,1.99-.21.41-.4.83-.57,1.27-.31.79-.58,1.61-.75,2.45l-5.68,27.96-5.56,27.36-.12.61c-.09.43-.13.86-.14,1.28-.02,1.27.3,2.47.89,3.48.78,1.34,2.04,2.33,3.59,2.64l7.39,1.5c.31.06.63.09.94.09.22,0,.44,0,.66-.02.13-.01.27-.05.4-.07.52-.1,1.03-.27,1.51-.53.31-.16.61-.34.89-.56,1.26-.97,2.14-2.4,2.47-4.05l11.36-55.92c.09-.43.14-.86.19-1.3.01-.11.03-.22.04-.33.14-1.56.03-3.13-.32-4.61Z"/>
</svg>