<svg width="50" height="50" viewBox="0 0 50 50" fill="none" xmlns="http://www.w3.org/2000/svg">
<path d="M41.8145 15.4209C41.8614 15.4288 41.9043 15.4521 41.9473 15.4678C42.1949 15.5582 42.3918 15.7427 42.5059 15.9902C42.5373 16.0531 42.5693 16.1207 42.585 16.1914L43.418 19.6758L43.8545 21.4883L43.8516 21.4805C43.989 22.0624 44.0316 22.6796 43.9766 23.293C43.9726 23.3362 43.9649 23.3796 43.9609 23.4229C43.9413 23.5958 43.9221 23.7655 43.8867 23.9346L39.4189 45.9238C39.2892 46.5725 38.9436 47.1352 38.4482 47.5166C38.3381 47.6031 38.2195 47.6744 38.0977 47.7373C37.909 47.8394 37.7082 47.9061 37.5039 47.9453C37.4528 47.9532 37.3977 47.9688 37.3467 47.9727C37.2603 47.9805 37.1734 47.9805 37.0869 47.9805C36.9651 47.9804 36.8395 47.9689 36.7178 47.9453L33.8115 47.3555C33.2021 47.2336 32.7062 46.8443 32.3994 46.3174C32.1676 45.9204 32.042 45.4485 32.0498 44.9492C32.0538 44.784 32.0691 44.6144 32.1045 44.4453L32.1523 44.2061L36.5723 22.4512C36.6391 22.1211 36.7453 21.7987 36.8672 21.4883C36.9341 21.3152 37.0082 21.1495 37.0908 20.9883C37.2284 20.7131 37.3827 20.4498 37.5635 20.2061L38.3613 19.1289L40.7998 15.8291C40.8548 15.7545 40.9215 15.6917 40.9922 15.6328C41.0156 15.6171 41.0391 15.6015 41.0625 15.5859C41.1136 15.5505 41.1656 15.5187 41.2207 15.4951C41.2519 15.4795 41.2793 15.4717 41.3105 15.46C41.3655 15.4443 41.4206 15.4287 41.4756 15.4209C41.5071 15.417 41.5388 15.4082 41.5703 15.4082C41.6489 15.4043 41.7319 15.4051 41.8145 15.4209Z" fill="#000"/>
<path fill-rule="evenodd" clip-rule="evenodd" d="M37.2529 3.85938C37.8621 3.87928 38.3532 4.37033 38.373 4.97949V16.3135L36.2305 19.2109C35.6013 20.0603 35.1567 21.0633 34.9443 22.1172L30.4766 44.1074C30.4687 44.1388 30.4649 44.1707 30.4609 44.2021H11.2354C10.5827 44.202 10.0518 43.7337 10.0518 43.0811V42.5938H10.9209C12.6708 42.5938 14.0947 41.103 14.0947 39.2666V38.8848C14.0945 37.0524 12.6707 35.5586 10.9209 35.5586H10.0518V32.5654H10.9209C12.6707 32.5654 14.0946 31.0756 14.0947 29.2393V28.8574C14.0947 27.0249 12.6708 25.5303 10.9209 25.5303H10.0518V22.5381H10.9209C12.6708 22.5381 14.0947 21.0474 14.0947 19.2109V18.8301C14.0947 16.9976 12.6708 15.5029 10.9209 15.5029H10.0518V12.5107H10.9209C12.6708 12.5107 14.0947 11.02 14.0947 9.18359V8.80176C14.0945 6.96947 12.6707 5.47559 10.9209 5.47559H10.0518V4.98828C10.0714 4.37875 10.5633 3.88685 11.1729 3.86719H37.2451L37.2529 3.85938ZM18.1055 15.2988H31.4287V10.9805H18.1055V15.2988Z" fill="#000"/>
<path d="M10.9248 37.666C11.2746 37.666 11.5817 37.8625 11.7783 38.1572C11.8097 38.2083 11.8416 38.2643 11.8691 38.3193C11.8848 38.3506 11.8964 38.3858 11.9082 38.4209C11.916 38.4445 11.9277 38.4687 11.9355 38.4961L11.9434 38.4922C11.9473 38.5078 11.9512 38.5273 11.9551 38.543C11.9826 38.653 12.0029 38.767 12.0029 38.8887V39.2705C12.0029 39.5261 11.9314 39.7623 11.8174 39.959C11.6247 40.2852 11.2943 40.501 10.9248 40.501H6.33594C5.74219 40.5009 5.2627 39.9547 5.2627 39.2744V38.8926C5.26281 38.5546 5.38466 38.2485 5.57715 38.0244C5.76982 37.8042 6.04104 37.666 6.33594 37.666H10.9248Z" fill="#000"/>
<path d="M10.9209 27.6309C11.2943 27.6309 11.6207 27.8467 11.8135 28.1729C11.9315 28.3695 11.999 28.6058 11.999 28.8613V29.2432C11.999 29.4711 11.9401 29.6835 11.8457 29.8643C11.8143 29.9271 11.7785 29.9821 11.7393 30.0371C11.5426 30.3005 11.2512 30.4736 10.9248 30.4736H6.33594C5.96238 30.4736 5.63604 30.257 5.44336 29.9307C5.32554 29.7342 5.25884 29.4986 5.25879 29.2432V28.8613C5.25884 28.185 5.73828 27.6348 6.33203 27.6348H10.9209V27.6309Z" fill="#000"/>
<path d="M10.9209 17.6035C11.2157 17.6035 11.487 17.7369 11.6797 17.9609C11.8724 18.185 11.9951 18.4919 11.9951 18.8301V19.2109C11.9951 19.5491 11.8724 19.8559 11.6797 20.0801C11.487 20.3003 11.2158 20.4385 10.9209 20.4385H6.33203C6.03711 20.4385 5.76593 20.3042 5.57324 20.0801C5.42386 19.9149 5.32157 19.6988 5.27832 19.459C5.26261 19.3804 5.25488 19.2974 5.25488 19.2109V18.8301C5.25488 18.7435 5.26259 18.6607 5.27832 18.582C5.3216 18.3423 5.42778 18.1261 5.57324 17.9609C5.76592 17.7408 6.03714 17.6035 6.33203 17.6035H10.9209Z" fill="#000"/>
<path d="M10.9209 7.5752C11.2788 7.5752 11.5934 7.77625 11.79 8.08691L11.7861 8.09863C11.912 8.29916 11.9912 8.54713 11.9912 8.81445V9.19531C11.9912 9.51777 11.8763 9.81298 11.6953 10.0332C11.6877 10.0411 11.6836 10.0528 11.6758 10.0605C11.6091 10.1351 11.5307 10.1979 11.4482 10.2529C11.2909 10.3552 11.1097 10.4189 10.917 10.4189H6.32812C6.18262 10.4189 6.0409 10.3832 5.91113 10.3203C5.52576 10.1316 5.25488 9.69478 5.25488 9.1875V8.80664C5.25488 8.72016 5.2626 8.63722 5.27832 8.55859C5.29406 8.47601 5.31329 8.40089 5.34082 8.32617C5.36047 8.27119 5.38461 8.22001 5.41211 8.16895C5.51828 7.96459 5.67559 7.79946 5.86426 7.69727C6.00578 7.61868 6.16694 7.5752 6.33203 7.5752H10.9209Z" fill="#000"/>
</svg>
