<svg width="24" height="24" viewBox="0 0 24 24" fill="none" xmlns="http://www.w3.org/2000/svg">
<path d="M18.5 0C19.8807 0 21 1.11929 21 2.5V21.5C21 22.8807 19.8807 24 18.5 24H5.5C4.11929 24 3 22.8807 3 21.5V19H2C1.44772 19 1 18.5523 1 18C1 17.4477 1.44772 17 2 17H3V15H2C1.44772 15 1 14.5523 1 14C1 13.4477 1.44772 13 2 13H3V11H2C1.44772 11 1 10.5523 1 10C1 9.44772 1.44772 9 2 9H3V7H2C1.44772 7 1 6.55228 1 6C1 5.44772 1.44772 5 2 5H3V2.5C3 1.11929 4.11929 0 5.5 0H18.5ZM22.5 16C23.3284 16 24 16.6716 24 17.5V20.5C24 21.3284 23.3284 22 22.5 22H22V16H22.5ZM22.5 9C23.3284 9 24 9.67157 24 10.5V13.5C24 14.3284 23.3284 15 22.5 15H22V9H22.5ZM8.5 5C7.67157 5 7 5.67157 7 6.5V7.5C7 8.32843 7.67157 9 8.5 9H15.5C16.3284 9 17 8.32843 17 7.5V6.5C17 5.67157 16.3284 5 15.5 5H8.5ZM22.5 2C23.3284 2 24 2.67157 24 3.5V6.5C24 7.32843 23.3284 8 22.5 8H22V2H22.5Z" fill="#000"/>
</svg>
