<svg width="50" height="50" viewBox="0 0 50 50" fill="none" xmlns="http://www.w3.org/2000/svg">
<path d="M37.736 3.00817H10.6487C10.0154 3.0286 9.50474 3.53929 9.48431 4.17256V4.67917H10.3872C12.2053 4.67917 13.6843 6.23168 13.6843 8.13555V8.53185C13.6843 10.4398 12.2053 11.9882 10.3872 11.9882H9.48431V15.0973H10.3872C12.2053 15.0973 13.6843 16.6499 13.6843 18.5537V18.95C13.6843 20.858 12.2053 22.4064 10.3872 22.4064H9.48431V25.5155H10.3872C12.2053 25.5155 13.6843 27.068 13.6843 28.9719V29.3682C13.6843 31.2762 12.2053 32.8246 10.3872 32.8246H9.48431V35.9337H10.3872C12.2053 35.9337 13.6843 37.4862 13.6843 39.3901V39.7864C13.6843 41.6943 12.2053 43.2428 10.3872 43.2428H9.48431V43.7494C9.48431 44.4276 10.0359 44.9138 10.7141 44.9138H30.6884C30.6925 44.8811 30.6965 44.8484 30.7047 44.8157L35.3459 21.9693C35.5665 20.8743 36.0282 19.8325 36.6819 18.95L38.9085 15.939V4.16438C38.8881 3.53112 38.3774 3.02043 37.7441 3L37.736 3.00817ZM31.6934 14.8849H17.8515V10.399H31.6934V14.8849Z" fill="#000"/>
<path d="M11.2902 7.39202C11.0859 7.06926 10.7591 6.8609 10.3873 6.8609H5.61944C5.44785 6.8609 5.28034 6.90584 5.13326 6.98755C4.93715 7.09378 4.77373 7.26537 4.66342 7.47782C4.63482 7.53093 4.61031 7.58405 4.58988 7.64124C4.56128 7.71887 4.54086 7.79649 4.52451 7.88229C4.50817 7.964 4.5 8.0498 4.5 8.13968V8.53598C4.5 9.06302 4.7819 9.51652 5.18229 9.71262C5.31711 9.77799 5.46419 9.81476 5.61536 9.81476H10.3832C10.5834 9.81476 10.7713 9.74939 10.9348 9.64317C11.0206 9.58597 11.1023 9.5206 11.1717 9.44298C11.1799 9.4348 11.184 9.42255 11.1921 9.41438C11.3801 9.18558 11.4986 8.87917 11.4986 8.54415V8.14785C11.4986 7.87004 11.4169 7.61264 11.2861 7.40428L11.2902 7.39202Z" fill="#000"/>
<path d="M10.3873 17.2791H5.61944C5.31303 17.2791 5.03112 17.4221 4.83093 17.6509C4.67976 17.8225 4.56945 18.0472 4.52451 18.2964C4.50817 18.3781 4.5 18.4639 4.5 18.5538V18.9501C4.5 19.04 4.50817 19.1258 4.52451 19.2075C4.56945 19.4567 4.67568 19.6814 4.83093 19.853C5.03112 20.0859 5.31303 20.2248 5.61944 20.2248H10.3873C10.6937 20.2248 10.9756 20.0818 11.1758 19.853C11.376 19.6201 11.5027 19.3014 11.5027 18.9501V18.5538C11.5027 18.2024 11.376 17.8837 11.1758 17.6509C10.9756 17.418 10.6937 17.2791 10.3873 17.2791Z" fill="#000"/>
<path d="M10.3873 27.7013H5.61945C5.00253 27.7013 4.50409 28.2733 4.50409 28.976V29.3723C4.50409 29.6379 4.57354 29.883 4.69611 30.0873C4.8963 30.4264 5.23541 30.6511 5.62353 30.6511H10.3914C10.7305 30.6511 11.0328 30.4713 11.2371 30.1976C11.2779 30.1404 11.3147 30.0832 11.3474 30.0178C11.4455 29.8299 11.5067 29.6093 11.5067 29.3723V28.976C11.5067 28.7105 11.4373 28.4653 11.3147 28.261C11.1145 27.9219 10.7754 27.6972 10.3873 27.6972V27.7013Z" fill="#000"/>
<path d="M11.4414 38.9856C11.4332 38.9571 11.4209 38.9325 11.4128 38.908C11.4005 38.8713 11.3883 38.8345 11.3719 38.8018C11.3433 38.7446 11.3106 38.6874 11.278 38.6343C11.0737 38.3279 10.755 38.1236 10.3914 38.1236H5.62354C5.31712 38.1236 5.03522 38.2666 4.83502 38.4954C4.63483 38.7283 4.50818 39.0469 4.50818 39.3983V39.7946C4.50818 40.5014 5.00662 41.0693 5.62354 41.0693H10.3914C10.7754 41.0693 11.1186 40.8446 11.3188 40.5055C11.4373 40.3012 11.5108 40.0561 11.5108 39.7905V39.3942C11.5108 39.2676 11.4904 39.1491 11.4618 39.0347C11.4577 39.0183 11.4536 38.9979 11.4495 38.9816L11.4414 38.9856Z" fill="#000"/>
<path d="M44.6038 21.3156L44.1503 19.4321L43.2842 15.8123C43.2679 15.7388 43.2352 15.6693 43.2025 15.604C43.084 15.3466 42.8797 15.1546 42.6223 15.0606C42.5774 15.0443 42.5325 15.0197 42.4834 15.0116C42.3976 14.9952 42.3118 14.9952 42.2301 14.9993C42.1974 14.9993 42.1648 15.0075 42.1321 15.0116C42.0749 15.0197 42.0177 15.0361 41.9605 15.0524C41.9278 15.0647 41.8992 15.0728 41.8665 15.0892C41.8093 15.1137 41.7562 15.1464 41.7031 15.1832C41.6786 15.1995 41.6541 15.2158 41.6296 15.2322C41.556 15.2935 41.4866 15.3588 41.4294 15.4365L38.8963 18.8643L38.0669 19.9837C37.879 20.237 37.7197 20.5107 37.5767 20.7967C37.4909 20.9642 37.4133 21.1358 37.3438 21.3156C37.2171 21.6383 37.1068 21.9734 37.0374 22.3165L34.7168 33.7398L32.4452 44.9179L32.3962 45.1671C32.3594 45.3428 32.3431 45.5184 32.339 45.69C32.3308 46.2089 32.4616 46.6992 32.7026 47.1118C33.0213 47.6593 33.5361 48.0638 34.1693 48.1904L37.1885 48.8032C37.3152 48.8278 37.4459 48.84 37.5726 48.84C37.6625 48.84 37.7524 48.84 37.8422 48.8318C37.8953 48.8278 37.9525 48.8114 38.0057 48.8032C38.2181 48.7624 38.4265 48.6929 38.6226 48.5867C38.7492 48.5213 38.8718 48.4478 38.9862 48.3579C39.501 47.9616 39.8605 47.3774 39.9953 46.7033L44.6365 23.8568C44.6733 23.6811 44.6937 23.5054 44.7141 23.3257C44.7182 23.2807 44.7264 23.2358 44.7305 23.1909C44.7877 22.5535 44.7427 21.9121 44.5998 21.3074L44.6038 21.3156Z" fill="#000"/>
</svg>
