<?xml version="1.0" encoding="UTF-8"?>
<svg id="schedule" xmlns="http://www.w3.org/2000/svg" viewBox="0 0 156.53 156.53">

  <path class="cls-1" d="m129.9,32.96c-1.71-1.71-3.67-2.59-6.03-2.59h-6.69s.01-.88.01-.88v-.05s0-.05,0-.05c0-2.41-.91-4.7-2.55-6.46-1.75-1.87-4.1-3.01-6.79-3.28l-.41-.04h-4.67c-2.44,0-4.74.84-6.66,2.43-2.41,1.99-3.67,4.79-3.5,7.67v.67s-20.5.02-20.5.02v-.92s.01-.05.01-.05v-.05c0-2.41-.91-4.7-2.55-6.46-1.75-1.87-4.1-3.01-6.79-3.28l-.41-.04h-4.67c-2.44,0-4.74.84-6.66,2.43-2.41,1.99-3.67,4.79-3.5,7.67v.71s-7.32,0-7.32,0c-2.35,0-4.45.88-6.15,2.59-1.71,1.71-2.56,3.74-2.56,6.09v36.28c2.84-2.13,5.99-3.87,9.36-5.15v-20.81h8.29c.35.5.74.97,1.19,1.42,1.84,1.83,4.3,2.83,6.93,2.83.18,0,.36,0,.55-.01h3.99c1.35,0,2.63-.25,3.81-.7v16.37c1.17.35,2.31.75,3.43,1.21v-19.75c.43-.42.82-.88,1.16-1.37h24.03c.33.47.7.92,1.12,1.34v21.85h-22.01c1.8,1.01,3.5,2.15,5.11,3.43h16.9v23.54h-2.84c.2,1.13.35,2.27.44,3.43h2.4v22.07h-7.18c-1.9,3.38-4.29,6.44-7.09,9.09l42.8-.03c2.35,0,4.32-.82,6.03-2.53,1.71-1.71,2.56-3.73,2.56-6.09V39.05c0-2.36-.85-4.38-2.56-6.09Zm-65.77-2.54l-.16,13.46c0,.54-.2.98-.61,1.31s-.93.5-1.58.5h-4.26c-.09,0-.18.01-.27.01-.53,0-.96-.17-1.31-.52-.41-.4-.61-.84-.61-1.31l.16-13.46v-1.03c-.07-.4.13-.81.62-1.21s1.02-.6,1.58-.6h4.26c.77.08,1.37.35,1.8.8.27.29.4.65.4,1.01v1.02Zm36.43-.03v-.99c-.07-.4.13-.81.62-1.21s1.01-.6,1.58-.6h4.26c.77.08,1.37.35,1.8.8.27.29.4.65.4,1.01v.99s-.17,13.5-.17,13.5c0,.54-.2.98-.61,1.31s-.93.5-1.58.5h-4.26c-.09,0-.18.01-.27.01-.53,0-.96-.17-1.31-.52-.41-.4-.61-.84-.61-1.31l.16-13.49Zm22.85,94.69h-24.66v-22.07h24.66v22.07Zm0-25.49h-24.66v-23.54h24.66v23.54Zm0-26.97h-24.66v-19.61c1.12.43,2.32.66,3.57.66.18,0,.36,0,.55-.01h3.99c2.52,0,4.82-.81,6.67-2.34.67-.56,1.25-1.2,1.74-1.9h8.15v23.19Z"/>
  <path class="cls-1" d="m88.8,103.01c-.11-1.16-.28-2.3-.5-3.43-.02-.09-.03-.18-.05-.26-.23-1.12-.51-2.22-.85-3.3-.67-2.15-1.55-4.22-2.61-6.17-.53-.98-1.11-1.92-1.73-2.84-1.86-2.75-4.1-5.21-6.65-7.32-.85-.7-1.73-1.36-2.65-1.98-.89-.6-1.81-1.16-2.76-1.68-.03-.01-.05-.03-.07-.05-.98-.53-1.98-1.02-3.01-1.45-1.95-.83-4-1.47-6.12-1.93-1.79-.39-3.62-.64-5.5-.73-.59-.03-1.18-.04-1.77-.04s-1.18.02-1.77.04c-1.88.1-3.71.35-5.5.73-2.12.46-4.16,1.1-6.12,1.93-1.03.44-2.03.92-3.01,1.45-.98.53-1.92,1.11-2.84,1.73-.92.62-1.8,1.28-2.65,1.98-.41.33-.79.69-1.18,1.05-2.06,1.87-3.91,3.96-5.47,6.27-.62.92-1.2,1.86-1.73,2.84-1.06,1.95-1.94,4.01-2.61,6.17-.34,1.08-.62,2.18-.85,3.3-.46,2.24-.7,4.55-.7,6.93,0,2.96.38,5.84,1.09,8.59.28,1.1.62,2.18,1.01,3.23s.82,2.08,1.31,3.09c.48,1,1.01,1.98,1.59,2.92.58.95,1.2,1.86,1.86,2.75,6.28,8.39,16.3,13.84,27.57,13.84,7.49,0,14.41-2.41,20.07-6.49,2.86-2.06,5.39-4.53,7.5-7.35.42-.56.8-1.16,1.18-1.75.22-.34.46-.65.67-1,.58-.95,1.11-1.92,1.59-2.92.48-1,.92-2.03,1.31-3.09s.72-2.13,1.01-3.23c.71-2.75,1.09-5.63,1.09-8.59,0-1.09-.06-2.17-.16-3.24Zm-30.36-3.43v6.67c0,1-.39,1.97-1.08,2.69l-11.47,11.99c-.77.8-1.79,1.2-2.82,1.2-.78,0-1.56-.25-2.23-.72-.16-.11-.32-.22-.46-.36-1.56-1.49-1.61-3.96-.12-5.51l.59-.61,9.8-10.25v-19.57c0-2.15,1.75-3.9,3.9-3.9s3.9,1.75,3.9,3.9v14.47Z"/>
</svg>