<svg width="50" height="50" viewBox="0 0 50 50" fill="none" xmlns="http://www.w3.org/2000/svg">
<path fill-rule="evenodd" clip-rule="evenodd" d="M15.3535 21.9482C15.5703 21.9482 15.7872 21.9519 16.0039 21.9629C16.6946 21.996 17.3668 22.0882 18.0244 22.2314C18.8034 22.4005 19.557 22.6354 20.2734 22.9404C20.6519 23.0985 21.0198 23.2789 21.3799 23.4736C21.3871 23.4808 21.3945 23.4876 21.4053 23.4912C21.7544 23.6823 22.0928 23.889 22.4199 24.1094C22.7578 24.3371 23.0814 24.5799 23.3936 24.8369C24.3304 25.6122 25.1535 26.5161 25.8369 27.5264C26.0646 27.8644 26.2779 28.2102 26.4727 28.5703C26.862 29.2867 27.1856 30.047 27.4316 30.8369C27.5566 31.2338 27.6596 31.6383 27.7441 32.0498C27.7514 32.0791 27.7554 32.1126 27.7627 32.1455C27.8435 32.5606 27.906 32.9793 27.9463 33.4053H27.9424C27.9791 33.7984 28.001 34.1952 28.001 34.5957C28.001 35.6832 27.8614 36.7415 27.6006 37.752C27.494 38.1561 27.3727 38.55 27.2295 38.9395C27.0862 39.3288 26.9244 39.707 26.748 40.0742C26.5718 40.4416 26.3772 40.7984 26.1641 41.1475C26.087 41.2759 25.9987 41.39 25.918 41.5146C25.7784 41.7315 25.6387 41.9525 25.4844 42.1582C24.7091 43.1943 23.7793 44.1015 22.7285 44.8584C20.6488 46.3576 18.1057 47.2431 15.3535 47.2432C11.2123 47.2432 7.53025 45.2412 5.22266 42.1582C4.98015 41.8312 4.75217 41.4965 4.53906 41.1475C4.32601 40.8021 4.13141 40.4416 3.95508 40.0742C3.77512 39.7033 3.61687 39.3252 3.47363 38.9395C3.33033 38.5537 3.20543 38.1561 3.10254 37.752C2.84172 36.7415 2.70215 35.6832 2.70215 34.5957C2.70217 33.7214 2.79003 32.8727 2.95898 32.0498C3.0435 31.6383 3.14656 31.2338 3.27148 30.8369C3.51763 30.0434 3.84109 29.2867 4.23047 28.5703C4.42518 28.2102 4.63844 27.8644 4.86621 27.5264C5.43933 26.6777 6.11918 25.9097 6.87598 25.2227C7.01914 25.0905 7.1591 24.9581 7.30957 24.8369C7.62191 24.5798 7.94613 24.3372 8.28418 24.1094C8.62212 23.8817 8.96719 23.6684 9.32715 23.4736C9.68725 23.2789 10.0551 23.1021 10.4336 22.9404C11.1535 22.6355 11.9029 22.4005 12.6816 22.2314C13.3394 22.0918 14.0123 21.9996 14.7031 21.9629C14.9199 21.9555 15.1368 21.9482 15.3535 21.9482ZM15.3604 25.3945C14.5705 25.3948 13.9277 26.0382 13.9277 26.8281V34.0186L10.3271 37.7852L10.1104 38.0098C9.56285 38.5793 9.58108 39.4866 10.1543 40.0342C10.2057 40.0855 10.2645 40.1256 10.3232 40.166C10.5694 40.3387 10.856 40.4307 11.1426 40.4307C11.5211 40.4306 11.8958 40.2841 12.1787 39.9902L16.3936 35.584C16.6469 35.3195 16.79 34.963 16.79 34.5957V32.1455H16.7939V26.8281C16.7939 26.0381 16.1504 25.3945 15.3604 25.3945Z" fill="#000"/>
<path fill-rule="evenodd" clip-rule="evenodd" d="M18.2344 2.75684L18.3848 2.77148C19.3732 2.87069 20.2368 3.28943 20.8799 3.97656C21.4823 4.62315 21.8173 5.46426 21.8174 6.34961V6.36816L21.8135 6.38672V6.72461L29.3457 6.71777V6.47168C29.2832 5.41355 29.7465 4.38453 30.6318 3.65332C31.3373 3.06911 32.1826 2.75981 33.0791 2.75977H34.7949L34.9463 2.77441C35.9346 2.87368 36.7984 3.29341 37.4414 3.98047C38.0437 4.62707 38.3779 5.46825 38.3779 6.35352V6.39062L38.374 6.71387H40.833C41.6997 6.71398 42.4197 7.03708 43.0479 7.66504H43.0596C43.6879 8.29338 44 9.03614 44 9.90332V41.6729C44 42.5401 43.6879 43.2828 43.0596 43.9111C42.4313 44.5394 41.7071 44.8408 40.8438 44.8408L25.1162 44.8516C26.1449 43.878 27.0236 42.7536 27.7217 41.5117H30.3604V33.4014H29.4785C29.4455 32.9753 29.3899 32.5567 29.3164 32.1416H30.3604V23.4912H24.1504C23.5588 23.0209 22.9338 22.6025 22.2725 22.2314H30.3604V14.2021C30.206 14.0478 30.0695 13.8826 29.9482 13.71H21.1191C20.9942 13.8899 20.8503 14.0595 20.6924 14.2139V21.4707C20.281 21.3017 19.8624 21.1549 19.4326 21.0264V15.0107C18.9991 15.1761 18.5283 15.2676 18.0322 15.2676H16.5664C16.4967 15.2712 16.4303 15.2715 16.3643 15.2715C15.3978 15.2715 14.4935 14.9039 13.8174 14.2314C13.6521 14.0662 13.5084 13.8935 13.3799 13.71H10.334V21.3564C9.09569 21.8268 7.93808 22.4663 6.89453 23.249V9.91797C6.89454 9.05446 7.20761 8.30899 7.83594 7.68066C8.4606 7.05233 9.2322 6.72852 10.0957 6.72852H12.7852V6.46777C12.7227 5.40952 13.1858 4.38064 14.0713 3.64941C14.7768 3.0652 15.622 2.75684 16.5186 2.75684H18.2344ZM31.6025 33.4053V41.5146H40.6631V33.4053H31.6025ZM31.6025 23.499V32.1484H40.6631V23.499H31.6025ZM37.6729 13.7139C37.4929 13.971 37.2794 14.2063 37.0332 14.4121C36.3534 14.9743 35.5079 15.2715 34.582 15.2715H33.1162C33.0464 15.2752 32.9802 15.2754 32.9141 15.2754C32.4549 15.2754 32.014 15.191 31.6025 15.0332V22.2383H40.6631L40.667 22.2354V13.7139H37.6729ZM33.0752 5.69238C32.8659 5.69248 32.6751 5.7662 32.4951 5.91309C32.3151 6.06004 32.2419 6.21048 32.2676 6.35742V6.7207H32.2705L32.2119 11.6777C32.2119 11.8504 32.2858 12.0122 32.4365 12.1592C32.5651 12.2878 32.7233 12.3506 32.918 12.3506C32.9508 12.3506 32.9837 12.3467 33.0166 12.3467H34.582C34.8209 12.3467 35.0124 12.2844 35.1631 12.1631C35.3136 12.0418 35.3867 11.8799 35.3867 11.6816L35.4492 6.7207V6.35742C35.4492 6.22522 35.4018 6.09285 35.3027 5.98633C35.1447 5.82097 34.9235 5.72178 34.6406 5.69238H33.0752ZM16.5146 5.68457C16.309 5.68457 16.1144 5.75849 15.9346 5.90527C15.7547 6.0521 15.6806 6.20277 15.7061 6.34961V6.72852L15.6475 11.6748C15.6476 11.8473 15.7215 12.0084 15.8721 12.1553C16.0005 12.2838 16.158 12.3466 16.3525 12.3467C16.3856 12.3467 16.4191 12.3428 16.4521 12.3428H18.0176C18.2563 12.3428 18.447 12.2804 18.5977 12.1592C18.7482 12.0379 18.8223 11.8761 18.8223 11.6777L18.8809 6.73242L18.8887 6.72461V6.34961C18.8886 6.21746 18.8403 6.08496 18.7412 5.97852C18.5833 5.81335 18.3628 5.71397 18.0801 5.68457H16.5146Z" fill="#000"/>
</svg>
