<svg width="50" height="50" viewBox="0 0 50 50" fill="none" xmlns="http://www.w3.org/2000/svg">
<path d="M43.718 7.07607C43.0683 6.42636 42.3236 6.09201 41.427 6.09201H38.8851L38.8889 5.75766V5.73866V5.71966C38.8889 4.804 38.5432 3.93392 37.9201 3.26522C37.2552 2.55472 36.3623 2.12158 35.3402 2.019L35.1845 2.0038H33.4101C32.483 2.0038 31.6092 2.32295 30.8797 2.92707C29.964 3.68316 29.4853 4.747 29.5499 5.84125V6.09581L21.761 6.10341V5.75386L21.7648 5.73486V5.71587C21.7648 4.8002 21.419 3.93012 20.7959 3.26142C20.131 2.55092 19.2381 2.11778 18.2161 2.0152L18.0603 2H16.286C15.3589 2 14.485 2.31915 13.7555 2.92327C12.8399 3.67936 12.3611 4.74321 12.4257 5.83745V6.10721H9.64453C8.75166 6.10721 7.95377 6.44156 7.30786 7.09127C6.65816 7.74097 6.33521 8.51226 6.33521 9.40514V23.1896C7.41425 22.3803 8.61108 21.7192 9.89149 21.2328V13.3262H13.0412C13.1742 13.5161 13.3224 13.6947 13.4934 13.8657C14.1925 14.561 15.1271 14.9409 16.1264 14.9409C16.1948 14.9409 16.2632 14.9409 16.3354 14.9371H17.8513C18.3643 14.9371 18.8506 14.8422 19.2989 14.6712V20.8909C19.7435 21.0239 20.1766 21.1758 20.6022 21.3506V13.8467C20.7655 13.6871 20.9137 13.5123 21.0429 13.3262H30.173C30.2984 13.5047 30.4389 13.6757 30.5985 13.8353V22.1371H22.2359C22.9198 22.5208 23.5657 22.954 24.1774 23.4403H30.5985V32.3842H29.5195C29.5955 32.8136 29.6525 33.2467 29.6866 33.6874H30.5985V42.0728H27.8705C27.1486 43.3571 26.2405 44.5197 25.1767 45.5265L41.4384 45.5151C42.3312 45.5151 43.0797 45.2036 43.7294 44.5539C44.3791 43.9042 44.7021 43.1367 44.7021 42.24V9.38994C44.7021 8.49327 44.3791 7.72578 43.7294 7.07607H43.718ZM18.729 6.11101L18.6682 11.2251C18.6682 11.4302 18.5922 11.5974 18.4365 11.7228C18.2807 11.8482 18.0831 11.9128 17.8361 11.9128H16.2176C16.1834 11.9128 16.1492 11.9166 16.115 11.9166C15.9136 11.9166 15.7502 11.852 15.6173 11.719C15.4615 11.567 15.3855 11.3998 15.3855 11.2213L15.4463 6.10721V5.71587C15.4197 5.56389 15.4957 5.40811 15.6819 5.25613C15.868 5.10415 16.0694 5.02816 16.2822 5.02816H17.9007C18.1933 5.05856 18.4213 5.16115 18.5846 5.33212C18.6872 5.44231 18.7366 5.57908 18.7366 5.71587V6.10341L18.729 6.11101ZM32.5704 6.09961V5.72346C32.5438 5.57149 32.6198 5.41571 32.806 5.26373C32.9922 5.11175 33.1897 5.03576 33.4063 5.03576H35.0249C35.3174 5.06616 35.5454 5.16874 35.7088 5.33972C35.8114 5.4499 35.8608 5.58668 35.8608 5.72346V6.09961L35.7962 11.2289C35.7962 11.434 35.7202 11.6012 35.5644 11.7266C35.4086 11.852 35.2111 11.9166 34.9641 11.9166H33.3455C33.3113 11.9166 33.2771 11.9204 33.2429 11.9204C33.0416 11.9204 32.8782 11.8558 32.7452 11.7228C32.5894 11.5708 32.5134 11.4036 32.5134 11.2251L32.5742 6.09961H32.5704ZM41.2522 42.0766H31.8827V33.6912H41.2522V42.0766ZM41.2522 32.3918H31.8827V23.4479H41.2522V32.3918ZM41.2522 22.1447H31.8827V14.694C32.3083 14.8573 32.7642 14.9447 33.2391 14.9447C33.3075 14.9447 33.3759 14.9447 33.4481 14.9409H34.9641C35.9215 14.9409 36.7954 14.6332 37.4983 14.0519C37.7529 13.8391 37.9733 13.5959 38.1594 13.33H41.256V22.1409L41.2522 22.1447Z" fill="#000"/>
<path d="M28.1022 33.6912C28.0605 33.2505 27.9959 32.8174 27.9123 32.388C27.9047 32.3538 27.9009 32.3196 27.8933 32.2892C27.8059 31.8637 27.6995 31.4458 27.5703 31.0354C27.3158 30.2185 26.9814 29.4321 26.5787 28.6912C26.3773 28.3188 26.1569 27.9617 25.9214 27.6121C25.2147 26.5673 24.3636 25.6326 23.3947 24.8309C23.0718 24.565 22.7374 24.3142 22.3879 24.0786C22.0497 23.8507 21.7002 23.6379 21.3392 23.4403C21.3278 23.4365 21.3202 23.4289 21.3126 23.4213C20.9403 23.2199 20.5603 23.0338 20.169 22.8704C19.4281 22.555 18.6492 22.3119 17.8437 22.1371C17.1636 21.9889 16.4683 21.8939 15.754 21.8597C15.5299 21.8483 15.3057 21.8445 15.0815 21.8445C14.8574 21.8445 14.6332 21.8521 14.409 21.8597C13.6947 21.8977 12.9994 21.9927 12.3193 22.1371C11.5138 22.3119 10.7387 22.555 9.99405 22.8704C9.60271 23.0376 9.22276 23.2199 8.85041 23.4213C8.47807 23.6227 8.12092 23.8431 7.77137 24.0786C7.42182 24.3142 7.08747 24.565 6.76451 24.8309C6.60874 24.9563 6.46436 25.0931 6.31618 25.2299C5.53349 25.9404 4.83059 26.7344 4.23788 27.6121C4.00231 27.9617 3.78194 28.3188 3.58057 28.6912C3.17783 29.4321 2.84348 30.2147 2.58891 31.0354C2.45973 31.4458 2.35335 31.8637 2.26596 32.2892C2.09119 33.1403 2 34.018 2 34.9223C2 36.0469 2.14438 37.1411 2.41414 38.186C2.52053 38.6039 2.64971 39.0143 2.79789 39.4132C2.94606 39.8122 3.10944 40.2035 3.29561 40.5872C3.47799 40.9672 3.67936 41.3395 3.89973 41.6967C4.12009 42.0576 4.35566 42.4034 4.60642 42.7415C6.99248 45.9293 10.7995 48 15.0815 48C17.9273 48 20.5565 47.0843 22.707 45.5341C23.7937 44.7514 24.7549 43.813 25.5566 42.7415C25.7162 42.5288 25.8606 42.3008 26.0049 42.0766C26.0885 41.9475 26.1797 41.8297 26.2595 41.6967C26.4799 41.3357 26.6813 40.9672 26.8636 40.5872C27.046 40.2073 27.2132 39.816 27.3614 39.4132C27.5095 39.0105 27.6349 38.6039 27.7451 38.186C28.0149 37.1411 28.1592 36.0469 28.1592 34.9223C28.1592 34.5081 28.1364 34.0978 28.0984 33.6912H28.1022ZM16.5671 32.388V34.9223C16.5671 35.3022 16.4189 35.6708 16.1568 35.9443L11.7988 40.4999C11.5062 40.8038 11.1187 40.9558 10.7273 40.9558C10.431 40.9558 10.1346 40.8608 9.88007 40.6822C9.81927 40.6404 9.75848 40.5986 9.70529 40.5455C9.11258 39.9793 9.09358 39.0409 9.6597 38.452L9.88387 38.2202L13.6073 34.3257V26.8902C13.6073 26.0733 14.2722 25.4084 15.0891 25.4084C15.906 25.4084 16.5709 26.0733 16.5709 26.8902V32.388H16.5671Z" fill="#000"/>
</svg>
