<svg width="50" height="50" viewBox="0 0 50 50" fill="none" xmlns="http://www.w3.org/2000/svg">
<path d="M15.2101 41.1L23.5901 36.91V30L15.2101 33.61V41.1ZM13.8001 31.1L22.6501 27.34L13.8001 23.54L5.00008 27.39L13.8001 31.1ZM37.6101 41.1L46.0001 36.91V30L37.6201 33.61L37.6101 41.1ZM36.2001 31.1L45.0001 27.39L36.1901 23.59L27.3401 27.39L36.2001 31.1ZM26.4101 24.71L34.7901 21.11V15.33L26.4101 18.93V24.71ZM25.0001 16.46L34.6301 12.35L25.0001 8.19999L15.3601 12.35L25.0001 16.46ZM48.7701 27.78V36.91C48.7737 37.4166 48.6389 37.9145 48.3801 38.35C48.1143 38.7946 47.7155 39.1444 47.2401 39.35L37.4501 44.25C37.0647 44.4532 36.6357 44.5594 36.2001 44.5594C35.7645 44.5594 35.3354 44.4532 34.9501 44.25L25.1601 39.35C25.0997 39.3409 25.0437 39.3129 25.0001 39.27C24.9548 39.3105 24.8996 39.3381 24.8401 39.35L15.0501 44.25C14.6687 44.4634 14.237 44.5705 13.8001 44.56C13.3724 44.5732 12.9496 44.4658 12.5801 44.25L2.79008 39.35C2.31905 39.1416 1.92425 38.7922 1.66008 38.35C1.3969 37.9142 1.24892 37.4187 1.23008 36.91V27.78C1.22531 27.2337 1.38946 26.6994 1.70008 26.25C2.00419 25.7962 2.44062 25.4471 2.95008 25.25L12.4301 21.18V12.43C12.428 11.8817 12.5858 11.3447 12.8842 10.8847C13.1826 10.4247 13.6086 10.0616 14.1101 9.83999L23.9001 5.64999C24.247 5.49857 24.6215 5.42041 25.0001 5.42041C25.3786 5.42041 25.7531 5.49857 26.1001 5.64999L35.8901 9.83999C36.3878 10.0569 36.8192 10.402 37.1401 10.84C37.4556 11.302 37.6199 11.8506 37.6101 12.41V21.14L47.0901 25.21C47.5995 25.4071 48.036 25.7562 48.3401 26.21C48.6474 26.659 48.7985 27.1966 48.7701 27.74V27.78Z" fill="#000"/>
</svg>
