<svg xmlns="http://www.w3.org/2000/svg" viewBox="0 0 50 50"><g id="exercizer"><path id="path1235" fill="#000" d="M15.21,41.1l8.38-4.19V30l-8.38,3.61Zm-1.41-10,8.85-3.76-8.85-3.8L5,27.39Zm23.81,10L46,36.91V30l-8.38,3.61Zm-1.41-10L45,27.39l-8.81-3.8-8.85,3.8Zm-9.79-6.39,8.38-3.6V15.33l-8.38,3.6ZM25,16.46l9.63-4.11L25,8.2l-9.64,4.15ZM48.77,27.78v9.13a2.78,2.78,0,0,1-.39,1.44,2.47,2.47,0,0,1-1.14,1l-9.79,4.9a2.68,2.68,0,0,1-2.5,0l-9.79-4.9a.29.29,0,0,1-.16-.08.34.34,0,0,1-.16.08l-9.79,4.9a2.44,2.44,0,0,1-1.25.31,2.28,2.28,0,0,1-1.22-.31l-9.79-4.9a2.49,2.49,0,0,1-1.13-1,3,3,0,0,1-.43-1.44V27.78a2.65,2.65,0,0,1,.47-1.53,2.66,2.66,0,0,1,1.25-1l9.48-4.07V12.43a2.82,2.82,0,0,1,1.68-2.59L23.9,5.65a2.75,2.75,0,0,1,2.2,0l9.79,4.19a3.07,3.07,0,0,1,1.25,1,2.7,2.7,0,0,1,.47,1.57v8.73l9.48,4.07a2.66,2.66,0,0,1,1.25,1,2.48,2.48,0,0,1,.43,1.53Z"/></g></svg>