<svg width="50" height="50" viewBox="0 0 50 50" fill="none" xmlns="http://www.w3.org/2000/svg">
<path d="M45.6001 20.46V37.89C45.5845 39.3545 44.9958 40.7546 43.9602 41.7902C42.9246 42.8258 41.5245 43.4144 40.0601 43.43H9.94009C9.20547 43.4453 8.47573 43.3074 7.79737 43.025C7.11901 42.7426 6.50691 42.3221 6.00009 41.7901C5.47309 41.2878 5.05542 40.6822 4.77323 40.0111C4.49103 39.3401 4.35039 38.618 4.36009 37.89V14.11C4.35039 13.3821 4.49103 12.66 4.77323 11.989C5.05542 11.3179 5.47309 10.7123 6.00009 10.2101C6.50232 9.68305 7.10793 9.26538 7.779 8.98319C8.45007 8.70099 9.17216 8.56035 9.90009 8.57005H17.8401C18.568 8.56035 19.2901 8.70099 19.9612 8.98319C20.6322 9.26538 21.2379 9.68305 21.7401 10.2101C22.2684 10.7118 22.6876 11.3171 22.9715 11.9881C23.2554 12.6591 23.3979 13.3815 23.3901 14.11V14.91H40.0601C41.5263 14.9257 42.9278 15.5158 43.9637 16.5535C44.9995 17.5912 45.5871 18.9939 45.6001 20.46Z" fill="#000"/>
</svg>
