<svg width="50" height="50" viewBox="0 0 50 50" fill="none" xmlns="http://www.w3.org/2000/svg">
<path d="M11.4023 37.5918C11.4023 40.9036 14.0964 43.5977 17.4082 43.5977H36.8213C36.3254 44.9949 34.9906 45.9998 33.4248 46H12.6035C10.6163 45.9999 9.00014 44.3829 9 42.3965V13.4082C9 11.8422 10.0042 10.5066 11.4023 10.0107V37.5918Z" fill="#000"/>
<path fill-rule="evenodd" clip-rule="evenodd" d="M38.2285 5C40.2157 5.0001 41.8319 6.61707 41.832 8.60352V37.5918C41.832 39.5791 40.2151 41.1962 38.2285 41.1963H17.4082C15.4208 41.1963 13.8037 39.5784 13.8037 37.5918V8.60352C13.8039 6.61625 15.4217 5 17.4082 5H38.2285ZM25.7559 30.2402C25.287 29.7715 24.5264 29.7714 24.0576 30.2402L21.5098 32.7881L20.6602 31.9385C20.1914 31.4697 19.4307 31.4698 18.9619 31.9385C18.4931 32.4073 18.4931 33.1679 18.9619 33.6367L20.6602 35.335C21.129 35.8038 21.8896 35.8038 22.3584 35.335L25.7559 31.9375C26.2247 31.4687 26.2247 30.7091 25.7559 30.2402ZM30.0225 31.6611C29.3596 31.6611 28.8215 32.1995 28.8213 32.8623C28.8213 33.5253 29.3587 34.0635 30.0225 34.0635H36.4287C37.0915 34.0633 37.6289 33.5251 37.6289 32.8623C37.6287 32.1996 37.0921 31.6613 36.4287 31.6611H30.0225ZM25.7559 20.6309C25.287 20.162 24.5264 20.162 24.0576 20.6309L21.5098 23.1787L20.6602 22.3291C20.1913 21.8603 19.4307 21.8603 18.9619 22.3291C18.4931 22.7979 18.4931 23.5585 18.9619 24.0273L20.6602 25.7256C21.129 26.1944 21.8896 26.1944 22.3584 25.7256L25.7559 22.3281C26.2247 21.8593 26.2246 21.0997 25.7559 20.6309ZM30.0293 22.0186C29.3666 22.0188 28.8292 22.557 28.8291 23.2197C28.8291 23.8826 29.3658 24.4207 30.0293 24.4209H36.4355C37.0985 24.4209 37.6367 23.8827 37.6367 23.2197C37.6366 22.5568 37.0992 22.0186 36.4355 22.0186H30.0293ZM25.7559 11.0205C25.2871 10.5521 24.5263 10.5519 24.0576 11.0205L21.5098 13.5693L20.6602 12.7197C20.1913 12.2509 19.4307 12.2509 18.9619 12.7197C18.4932 13.1886 18.4931 13.9492 18.9619 14.418L20.6602 16.1162C21.1289 16.5849 21.8896 16.5849 22.3584 16.1162L25.7559 12.7188C26.2247 12.2499 26.2247 11.4893 25.7559 11.0205ZM30.4229 12.4326C29.7601 12.4328 29.2227 12.971 29.2227 13.6338C29.2228 14.2965 29.7594 14.8348 30.4229 14.835H36.8291C37.492 14.835 38.0302 14.2967 38.0303 13.6338C38.0303 12.9708 37.4921 12.4326 36.8291 12.4326H30.4229Z" fill="#000"/>
</svg>
