<svg xmlns="http://www.w3.org/2000/svg" viewBox="0 0 50 50">
<path fill="#000" d="M28.3645 11.1661C28.3645 11.2361 28.372 11.3038 28.3833 11.3708C28.3728 11.2985 28.3668 11.2255 28.3653 11.1503C28.3653 11.1555 28.3645 11.1608 28.3645 11.1668V11.1661Z"/>
<path fill="#000" d="M38.2283 5H17.4077C15.4211 5 13.804 6.6164 13.804 8.60379V37.5922C13.804 39.5788 15.4204 41.196 17.4077 41.196H38.2283C40.215 41.196 41.8321 39.5796 41.8321 37.5922V8.60379C41.8321 6.61715 40.2157 5 38.2283 5ZM37.1718 11.1458C37.1718 11.1526 37.1725 11.1593 37.1725 11.1661C37.1725 11.2414 37.165 11.3151 37.1515 11.3866C37.1635 11.3083 37.1703 11.2278 37.1718 11.145V11.1458ZM25.7561 31.9378L22.3585 35.3354C21.8897 35.8042 21.1289 35.8042 20.6601 35.3354L18.9617 33.6369C18.4929 33.1681 18.4929 32.4073 18.9617 31.9385C19.4305 31.4697 20.1913 31.4697 20.6601 31.9385L21.5097 32.7881L24.0577 30.2401C24.5265 29.7713 25.2873 29.7713 25.7561 30.2401C26.225 30.7089 26.225 31.4697 25.7561 31.9385V31.9378ZM25.7561 22.3282L22.3585 25.7258C21.8897 26.1946 21.1289 26.1946 20.6601 25.7258L18.9617 24.0273C18.4929 23.5585 18.4929 22.7977 18.9617 22.3289C19.4305 21.8601 20.1913 21.8601 20.6601 22.3289L21.5097 23.1785L24.0577 20.6305C24.5265 20.1617 25.2873 20.1617 25.7561 20.6305C26.225 21.0993 26.225 21.8601 25.7561 22.3289V22.3282ZM25.7561 12.7185L22.3585 16.1161C21.8897 16.585 21.1289 16.585 20.6601 16.1161L18.9617 14.4177C18.4929 13.9489 18.4929 13.1881 18.9617 12.7193C19.4305 12.2505 20.1913 12.2505 20.6601 12.7193L21.5097 13.5689L24.0577 11.0209C24.5265 10.5521 25.2873 10.5521 25.7561 11.0209C26.225 11.4897 26.225 12.2505 25.7561 12.7193V12.7185ZM28.3644 11.1654C28.3644 11.1601 28.3651 11.1548 28.3651 11.1488C28.3659 11.2241 28.3726 11.2978 28.3832 11.3693C28.3719 11.3023 28.3644 11.2346 28.3644 11.1646V11.1654ZM36.4283 34.0636H30.0222C29.3584 34.0636 28.8211 33.5256 28.8211 32.8626C28.8211 32.1996 29.3592 31.6616 30.0222 31.6616H36.4283C37.092 31.6616 37.6293 32.1996 37.6293 32.8626C37.6293 33.5256 37.0913 34.0636 36.4283 34.0636ZM36.4358 24.4209H30.0297C29.366 24.4209 28.8287 23.8829 28.8287 23.2199C28.8287 22.5569 29.3667 22.0189 30.0297 22.0189H36.4358C37.0996 22.0189 37.6368 22.5569 37.6368 23.2199C37.6368 23.8829 37.0988 24.4209 36.4358 24.4209ZM36.8294 14.8346H30.4232C29.7595 14.8346 29.2222 14.2966 29.2222 13.6336C29.2222 12.9706 29.7603 12.4326 30.4232 12.4326H36.8294C37.4924 12.4326 38.0304 12.9706 38.0304 13.6336C38.0304 14.2966 37.4924 14.8346 36.8294 14.8346Z"/>
<path fill="#000" d="M11.402 37.5914V10.011C10.0039 10.5069 9 11.8419 9 13.4078V42.3962C9 44.3829 10.6164 46 12.6038 46H33.4244C34.9904 46 36.3253 44.9954 36.8212 43.598H17.4078C14.096 43.598 11.402 40.904 11.402 37.5922V37.5914Z"/>
</svg>
