<svg xmlns="http://www.w3.org/2000/svg" viewBox="0 0 50 50"><g id="forum"><path id="path1106" fill="#000" d="M38.37,20a10.5,10.5,0,0,1-2.48,6.69,16.62,16.62,0,0,1-6.68,4.86A23.37,23.37,0,0,1,20,33.32a25.76,25.76,0,0,1-4.58-.42,23,23,0,0,1-7.25,3.36c-.65.16-1.4.3-2.24.42h-.1a.92.92,0,0,1-.56-.23A.73.73,0,0,1,5,35.89a.2.2,0,0,1,0-.14.43.43,0,0,1,0-.19.39.39,0,0,0,0-.14l0-.14.09-.14L5.27,35l.14-.14.1-.09.6-.66.71-.75a4.34,4.34,0,0,0,.56-.79,7.93,7.93,0,0,1,.65-1,3,3,0,0,0,.51-1.17,15,15,0,0,1-5-4.58,10.26,10.26,0,0,1,.6-12.58A16.85,16.85,0,0,1,10.79,8.4,23.48,23.48,0,0,1,20,6.62,23.55,23.55,0,0,1,29.21,8.4a16.72,16.72,0,0,1,6.68,4.86A10.54,10.54,0,0,1,38.37,20Zm10,6.64a10.28,10.28,0,0,1-1.87,5.89,14.84,14.84,0,0,1-5,4.58A8,8,0,0,0,42,38.27a6.41,6.41,0,0,0,.65,1c.25.32.46.57.61.75s.38.45.66.8a4.72,4.72,0,0,0,.6.65l.1.09.14.14a.66.66,0,0,1,.09.15.85.85,0,0,0,.09.14l.05.14,0,.14a.65.65,0,0,1,0,.18.33.33,0,0,1,0,.14,1.21,1.21,0,0,1-.33.61.62.62,0,0,1-.56.19c-.87-.13-1.62-.27-2.24-.42a23,23,0,0,1-7.3-3.37A25.84,25.84,0,0,1,30,40a21.76,21.76,0,0,1-12.29-3.46c1,.1,1.76.14,2.29.14a27.43,27.43,0,0,0,8-1.17A23.78,23.78,0,0,0,35,32.15a18.42,18.42,0,0,0,5-5.56A12.88,12.88,0,0,0,41.69,20a13.2,13.2,0,0,0-.61-4,15.29,15.29,0,0,1,5.33,4.63,10.22,10.22,0,0,1,2,6Z"/></g></svg>