<svg width="50" height="50" viewBox="0 0 50 50" fill="none" xmlns="http://www.w3.org/2000/svg">
<path fill-rule="evenodd" clip-rule="evenodd" d="M23.5804 4.68103C25.8513 4.68103 27.7858 6.12157 28.5202 8.13848C33.9121 8.19223 38.8626 10.1849 41.9732 14.0777C42.3009 14.0138 42.6392 13.9796 42.9856 13.9796C45.888 13.9796 48.2414 16.3323 48.2417 19.2347C48.2417 21.3928 46.9401 23.2463 45.0797 24.0555C44.8295 28.1582 42.9816 32.296 39.9545 35.7872C40.3405 36.5186 40.5603 37.3517 40.5603 38.2363C40.5602 41.1386 38.2075 43.4911 35.3052 43.4913C33.9192 43.4913 32.6589 42.9541 31.7199 42.0774C27.0322 44.3658 21.9472 45.1409 17.4121 44.4293C16.4659 45.8152 14.8749 46.7256 13.0703 46.7257C10.1678 46.7257 7.8144 44.373 7.81417 41.4706C7.81417 40.9131 7.90121 40.3755 8.06206 39.8713C7.12912 38.9281 6.3195 37.847 5.65959 36.629C3.9495 33.4726 3.56096 29.9745 4.24567 26.5382C2.74796 25.6122 1.75 23.9547 1.75 22.0645C1.75026 19.1623 4.1029 16.8096 7.00509 16.8094C7.69355 16.8094 8.35088 16.9435 8.95344 17.1842C10.9301 14.8671 13.4225 12.8275 16.3106 11.2628C16.9773 10.9016 17.654 10.5726 18.3372 10.2742C18.3302 10.1627 18.3254 10.0504 18.3253 9.93711C18.3253 7.03467 20.678 4.68125 23.5804 4.68103ZM28.6392 11.36C28.0184 13.5707 25.9896 15.1922 23.5804 15.1922C21.948 15.1921 20.489 14.4483 19.5251 13.2805C18.9653 13.5303 18.4069 13.8055 17.8514 14.1065C15.2612 15.5098 13.1075 17.2737 11.4303 19.2297C11.9555 20.0477 12.2611 21.0202 12.2612 22.0645C12.2612 24.8297 10.1254 27.0944 7.4136 27.3027C6.90618 30.0531 7.24375 32.7633 8.50328 35.0882C8.91855 35.8546 9.4243 36.5593 10.0074 37.1991C10.8698 36.5797 11.9275 36.2145 13.0703 36.2145C15.9147 36.2148 18.229 38.4748 18.3204 41.2971C21.957 41.8025 26.1024 41.1941 30.1473 39.2456C30.0837 38.9189 30.0492 38.5816 30.0491 38.2363C30.0491 35.3337 32.4027 32.9802 35.3052 32.9802C36.1493 32.9802 36.9464 33.1807 37.6532 33.5344C40.0661 30.6993 41.4825 27.4676 41.7858 24.3509C39.4618 23.8079 37.7305 21.7242 37.7305 19.2347C37.7306 17.8733 38.2476 16.6323 39.0968 15.6989C36.6884 13.0072 32.9141 11.4538 28.6392 11.36Z" fill="#000"/>
</svg>
