<?xml version="1.0" encoding="UTF-8" standalone="no"?>
<svg
   xmlns:dc="http://purl.org/dc/elements/1.1/"
   xmlns:cc="http://creativecommons.org/ns#"
   xmlns:rdf="http://www.w3.org/1999/02/22-rdf-syntax-ns#"
   xmlns:svg="http://www.w3.org/2000/svg"
   xmlns="http://www.w3.org/2000/svg"
   xmlns:sodipodi="http://sodipodi.sourceforge.net/DTD/sodipodi-0.dtd"
   xmlns:inkscape="http://www.inkscape.org/namespaces/inkscape"
   viewBox="0 0 624.93872 753.5083"
   version="1.1"
   id="svg4"
   sodipodi:docname="aide-aux-devoirs3.svg"
   width="624.93872"
   height="753.5083"
   inkscape:version="0.92.2 (5c3e80d, 2017-08-06)">
  <metadata
     id="metadata10">
    <rdf:RDF>
      <cc:Work
         rdf:about="">
        <dc:format>image/svg+xml</dc:format>
        <dc:type
           rdf:resource="http://purl.org/dc/dcmitype/StillImage" />
        <dc:title></dc:title>
      </cc:Work>
    </rdf:RDF>
  </metadata>
  <defs
     id="defs8" />
  <sodipodi:namedview
     pagecolor="#ffffff"
     bordercolor="#666666"
     borderopacity="1"
     objecttolerance="10"
     gridtolerance="10"
     guidetolerance="10"
     inkscape:pageopacity="0"
     inkscape:pageshadow="2"
     inkscape:window-width="1920"
     inkscape:window-height="1001"
     id="namedview6"
     showgrid="false"
     inkscape:zoom="0.23046875"
     inkscape:cx="1890.0161"
     inkscape:cy="1041.9134"
     inkscape:window-x="-9"
     inkscape:window-y="-9"
     inkscape:window-maximized="1"
     inkscape:current-layer="svg4" />
  <path
     style="fill:#1a22a2;fill-opacity:1;stroke-width:1.42251444"
     d="m 228.32995,0 c -67.40412,0 -122.03304,44.3801 -122.03304,99.15223 0,54.77209 54.62892,99.1522 122.03304,99.1522 18.30532,0 35.60799,-3.38435 51.19655,-9.24767 11.72631,9.3432 35.41837,24.5012 67.02293,24.5012 1.52585,0 2.86127,-0.85789 3.48108,-2.28794 0.61925,-1.43013 0.33191,-3.05049 -0.71699,-4.14694 -0.24084,-0.23807 -20.16281,-21.64273 -26.12064,-45.6681 C 340.16308,144.437 350.3638,122.79618 350.3638,99.15223 350.3638,44.3801 295.73461,0 228.32995,0 Z m 260.04743,25.18127 c -50.28,0 -91.04137,40.7596 -91.04137,91.03979 0,50.2802 40.76137,91.04153 91.04137,91.04153 50.28028,0 91.04136,-40.76133 91.04136,-91.04153 0,-50.28019 -40.76108,-91.03979 -91.04136,-91.03979 z m -68.28053,204.84215 c -37.71076,0 -68.28055,30.56989 -68.28055,68.28076 V 479.7769 c 27.5917,-4.63966 53.3223,-6.83215 71.42112,-7.85784 14.26341,-0.8075 26.15581,10.05871 26.16522,23.7775 v 195.57528 c 0,12.57782 -10.17276,23.06675 -23.2508,23.75131 -5.14231,0.26963 -11.03452,0.64692 -17.435,1.14409 v 3.20167 c 0,18.85544 15.28545,34.13939 34.14083,34.13939 h 91.0397 c 18.85566,0 34.14138,-15.28395 34.14138,-34.13939 V 525.90544 h 22.75917 c 18.8551,0 34.14082,-15.28406 34.14082,-34.13955 V 298.30418 c 0,-37.71087 -30.56978,-68.28076 -68.28026,-68.28076 h -16.1605 c -32.30685,14.85534 -70.54136,15.49691 -104.24092,0 z m -11.38001,486.14382 v -190.2618 h -22.76137 c -18.85511,0 -34.13917,-15.28406 -34.13917,-34.13955 V 479.7769 c -37.10451,6.23923 -77.58019,16.91144 -107.44103,35.19453 -3.59845,2.20303 -5.62563,6.10953 -5.62563,10.20854 v 215.736 c 0,8.94411 9.77718,14.59571 18.02822,10.44383 46.38535,-23.34447 110.64777,-31.98576 151.93898,-35.19256 z M 224.69606,303.35261 c -46.53677,0 -84.26137,37.72454 -84.26137,84.26143 0,46.53687 37.7246,84.26147 84.26137,84.26147 46.53677,0 84.2611,-37.7246 84.2611,-84.26147 0,-46.53689 -37.72433,-84.26143 -84.2611,-84.26143 z M 24.825667,471.87726 C 11.161029,471.79336 0,482.40641 0,495.69656 v 195.55788 c 0,12.57767 10.172486,23.06682 23.250809,23.74263 38.321429,2.01003 115.849591,9.3728 169.434881,36.36273 8.22418,4.14285 17.97562,-1.49997 17.97562,-10.41769 V 525.02995 c 0,-4.09895 -2.0355,-7.85549 -5.63394,-10.05852 -52.07576,-31.87891 -136.42489,-40.63865 -178.871558,-43.05237 -0.445416,-0.0249 -0.889438,-0.0393 -1.330145,-0.0421 z"
     id="path2-8"
     inkscape:connector-curvature="0" />
</svg>
