<svg width="24" height="24" viewBox="0 0 24 24" fill="none" xmlns="http://www.w3.org/2000/svg">
<g clip-path="url(#clip0_1102_23253)">
<path d="M12.0806 0.000554303C12.2958 0.00868408 12.5081 0.0315953 12.7181 0.0788958C13.1089 0.166106 13.4817 0.326485 13.8147 0.548206C13.9715 0.653154 14.117 0.770666 14.2543 0.900003C17.2208 3.78386 20.1153 6.74014 23.0466 9.65947C23.1576 9.77551 23.2633 9.89376 23.3593 10.0238C23.5731 10.3128 23.7404 10.6373 23.8484 10.9809C23.9564 11.3209 24.0074 11.6779 23.9991 12.0356C23.9804 12.9262 23.5858 13.7924 22.9235 14.391C22.688 14.6039 22.4202 14.782 22.1337 14.9187C21.8434 15.0562 21.5337 15.15 21.2164 15.1981C21.0566 15.2217 20.8984 15.2306 20.7371 15.2335H20.7273V21.7876L20.7243 21.8844C20.7078 22.1032 20.6696 22.3161 20.5946 22.5215C20.3883 23.0847 19.948 23.5474 19.3952 23.7809C19.2287 23.8511 19.0547 23.9006 18.8762 23.9272C18.7787 23.942 18.7547 23.942 18.6572 23.9501C14.252 24.061 9.84613 23.9524 5.44023 23.9524C5.18821 23.9464 4.94144 23.9065 4.70367 23.8193C4.10586 23.6006 3.62357 23.1187 3.4053 22.5215C3.31829 22.285 3.27929 22.0389 3.27254 21.7876V15.2335C3.23204 15.2335 3.19078 15.2328 3.14953 15.2313L3.02652 15.2239C2.8645 15.2092 2.70549 15.1885 2.54572 15.153C2.2352 15.0813 1.93367 14.966 1.6569 14.8086C1.38012 14.6512 1.1266 14.4546 0.908328 14.2255C0.374281 13.6682 0.0517521 12.9254 0.00599798 12.1561C-0.015754 11.7998 0.0217494 11.4406 0.117008 11.0962C0.213016 10.7503 0.36603 10.42 0.568548 10.1243C0.660806 9.98984 0.765066 9.86493 0.873075 9.74299C3.77283 6.73719 6.75285 3.80973 9.74712 0.899264C9.88513 0.771405 10.0299 0.653154 10.1867 0.547467C10.5189 0.325745 10.8917 0.166106 11.2818 0.0788958C11.4918 0.0315953 11.7055 0.00868408 11.9208 0.000554303C12.0018 -0.000184768 12.0011 -0.000184768 12.0836 0.000554303H12.0806ZM11.9711 2.17638C11.698 2.18599 11.449 2.2902 11.248 2.47496C8.28674 5.35438 5.33897 8.24858 2.47147 11.2219C2.34546 11.3623 2.2532 11.5264 2.20969 11.7111C2.09568 12.19 2.32971 12.7044 2.76699 12.9321C2.91026 13.006 3.06777 13.0437 3.22904 13.0525C3.60707 13.0592 3.9836 13.0533 4.36164 13.0533C4.49065 13.0592 4.61291 13.0747 4.73442 13.1198C5.03595 13.2284 5.27747 13.4701 5.38698 13.7702C5.43123 13.8914 5.44773 14.0133 5.45223 14.1419C5.45223 16.6806 5.45223 19.2179 5.45223 21.7566C5.45223 21.7618 5.44998 21.7677 5.45298 21.7706C5.45598 21.7751 5.46198 21.7721 5.46573 21.7721C9.82062 21.7721 14.1755 21.7721 18.5304 21.7721C18.5341 21.7721 18.5401 21.7751 18.5431 21.7706C18.5462 21.7677 18.5439 21.7618 18.5439 21.7566C18.5439 19.2179 18.5439 16.6806 18.5439 14.1419C18.5484 14.0133 18.5649 13.8914 18.6092 13.7702C18.7179 13.4701 18.9602 13.2284 19.2602 13.1198C19.3825 13.0755 19.5055 13.0592 19.6345 13.0533C20.0118 13.0533 20.3898 13.0592 20.7671 13.0525C20.9299 13.0437 21.0866 13.006 21.2314 12.9306C21.6679 12.7037 21.9004 12.1886 21.7864 11.7119C21.7429 11.5264 21.6499 11.3623 21.5232 11.2211C18.6437 8.23602 15.8182 5.18292 12.7069 2.43801C12.5201 2.28207 12.2958 2.1919 12.0521 2.17712C12.0243 2.17638 11.9966 2.17638 11.9688 2.17638H11.9711Z" fill="#000"/>
<path d="M12.077 7.00102C12.2042 7.00577 12.33 7.0146 12.4565 7.03496C12.7727 7.08249 13.0813 7.18297 13.3666 7.32894C13.9468 7.62563 14.4205 8.1131 14.703 8.69901C14.8323 8.96583 14.9209 9.25233 14.9649 9.54427C15.0117 9.84639 15.0117 10.1539 14.9649 10.4561C14.9209 10.748 14.8323 11.0338 14.703 11.3007C14.5463 11.6259 14.3311 11.9219 14.0692 12.171C13.808 12.4209 13.5014 12.6218 13.168 12.7631C12.7988 12.9206 12.4001 13 12 13C11.5999 13 11.2012 12.9199 10.832 12.7631C10.4993 12.6225 10.192 12.4209 9.9308 12.171C9.66888 11.9219 9.45371 11.6259 9.29697 11.3007C9.16774 11.0338 9.07906 10.748 9.03506 10.4561C8.98831 10.1539 8.98831 9.84571 9.03506 9.54427C9.07906 9.25233 9.16774 8.96583 9.29697 8.69901C9.5802 8.1131 10.0538 7.62563 10.6341 7.32894C10.9187 7.18229 11.228 7.08249 11.5442 7.03496C11.67 7.01528 11.7965 7.00577 11.923 7.00102C12.0014 6.99966 12 6.99966 12.077 7.00102ZM11.9739 8.99977C11.8254 9.00588 11.6797 9.04119 11.547 9.10908C11.2871 9.24215 11.0919 9.48928 11.0259 9.77443C10.9984 9.89052 10.9929 10.0107 11.008 10.1288C11.0211 10.2259 11.0479 10.3216 11.0878 10.4106C11.1373 10.5206 11.2074 10.621 11.294 10.7066C11.3792 10.7928 11.4796 10.8627 11.5896 10.9123C11.7106 10.9673 11.8419 10.9965 11.9739 11.0006C12.1066 11.0033 12.2406 10.9802 12.365 10.9313C12.4778 10.8858 12.5823 10.8213 12.6709 10.7399C12.761 10.6591 12.8359 10.5606 12.8909 10.4534C12.9363 10.3671 12.9672 10.2728 12.9844 10.177C13.005 10.0603 13.005 9.94008 12.9844 9.82331C12.9335 9.53409 12.7507 9.27813 12.4963 9.13216C12.3671 9.05816 12.2255 9.01607 12.0784 9.00317C12.0433 9.00113 12.0096 9.00045 11.9739 9.00045V8.99977Z" fill="#000"/>
</g>
<defs>
<clipPath id="clip0_1102_23253">
<rect width="24" height="24" fill="white"/>
</clipPath>
</defs>
</svg>
