<svg width="50" height="50" viewBox="0 0 50 50" fill="none" xmlns="http://www.w3.org/2000/svg">
<path d="M5.88623 16.837V16.589C5.88623 16.3759 5.97088 16.1715 6.12155 16.0209C6.27222 15.8702 6.47658 15.7855 6.68966 15.7855H10.1216C10.3347 15.7855 10.539 15.8702 10.6897 16.0209C10.8404 16.1715 10.925 16.3759 10.925 16.589V16.837C10.925 16.942 10.9042 17.046 10.8637 17.1429C10.8232 17.2398 10.7639 17.3278 10.6891 17.4016C10.6144 17.4754 10.5257 17.5336 10.4283 17.5729C10.3309 17.6122 10.2266 17.6318 10.1216 17.6305H6.68966C6.58462 17.6318 6.48037 17.6122 6.38295 17.5729C6.28553 17.5336 6.19688 17.4754 6.12214 17.4016C6.0474 17.3278 5.98806 17.2398 5.94757 17.1429C5.90707 17.046 5.88622 16.942 5.88623 16.837V16.837ZM6.68966 9.20933H10.1216C10.3347 9.20933 10.539 9.12468 10.6897 8.97401C10.8404 8.82334 10.925 8.61899 10.925 8.4059V8.13809C10.925 8.03305 10.9042 7.92905 10.8637 7.83212C10.8232 7.7352 10.7639 7.64728 10.6891 7.57346C10.6144 7.49964 10.5257 7.4414 10.4283 7.40211C10.3309 7.36282 10.2266 7.34327 10.1216 7.34458H6.68966C6.58462 7.34327 6.48037 7.36282 6.38295 7.40211C6.28553 7.4414 6.19688 7.49964 6.12214 7.57346C6.0474 7.64728 5.98806 7.7352 5.94757 7.83212C5.90707 7.92905 5.88622 8.03305 5.88623 8.13809V8.38606C5.88358 8.49323 5.90241 8.59984 5.9416 8.69962C5.98079 8.7994 6.03955 8.89032 6.11442 8.96704C6.18929 9.04376 6.27876 9.10472 6.37755 9.14633C6.47634 9.18794 6.58246 9.20936 6.68966 9.20933V9.20933ZM6.68966 25.9226H10.1216C10.2266 25.924 10.3309 25.9044 10.4283 25.8651C10.5257 25.8258 10.6144 25.7676 10.6891 25.6938C10.7639 25.62 10.8232 25.532 10.8637 25.4351C10.9042 25.3382 10.925 25.2342 10.925 25.1291V24.8812C10.925 24.6681 10.8404 24.4637 10.6897 24.3131C10.539 24.1624 10.3347 24.0777 10.1216 24.0777H6.68966C6.47658 24.0777 6.27222 24.1624 6.12155 24.3131C5.97088 24.4637 5.88623 24.6681 5.88623 24.8812V25.1291C5.88622 25.2342 5.90707 25.3382 5.94757 25.4351C5.98806 25.532 6.0474 25.62 6.12214 25.6938C6.19688 25.7676 6.28553 25.8258 6.38295 25.8651C6.48037 25.9044 6.58462 25.924 6.68966 25.9226V25.9226ZM6.68966 34.2644H10.1216C10.2266 34.2657 10.3309 34.2462 10.4283 34.2069C10.5257 34.1676 10.6144 34.1094 10.6891 34.0355C10.7639 33.9617 10.8232 33.8738 10.8637 33.7769C10.9042 33.68 10.925 33.576 10.925 33.4709V33.2229C10.925 33.0099 10.8404 32.8055 10.6897 32.6548C10.539 32.5042 10.3347 32.4195 10.1216 32.4195H6.68966C6.47658 32.4195 6.27222 32.5042 6.12155 32.6548C5.97088 32.8055 5.88623 33.0099 5.88623 33.2229V33.4709C5.88622 33.576 5.90707 33.68 5.94757 33.7769C5.98806 33.8738 6.0474 33.9617 6.12214 34.0355C6.19688 34.1094 6.28553 34.1676 6.38295 34.2069C6.48037 34.2462 6.58462 34.2657 6.68966 34.2644ZM10.8953 41.8623V41.6143C10.8807 41.4167 10.7937 41.2315 10.6509 41.0942C10.5081 40.9569 10.3196 40.8772 10.1216 40.8704H6.68966C6.58415 40.8704 6.47968 40.8912 6.3822 40.9316C6.28472 40.9719 6.19616 41.0311 6.12155 41.1057C6.04695 41.1803 5.98776 41.2689 5.94739 41.3664C5.90701 41.4638 5.88623 41.5683 5.88623 41.6738V41.8623C5.88622 41.9673 5.90707 42.0713 5.94757 42.1683C5.98806 42.2652 6.0474 42.3531 6.12214 42.4269C6.19688 42.5007 6.28553 42.559 6.38295 42.5983C6.48037 42.6376 6.58462 42.6571 6.68966 42.6558H10.1216C10.3286 42.6506 10.5254 42.5647 10.6699 42.4165C10.8145 42.2682 10.8953 42.0693 10.8953 41.8623V41.8623ZM39.5509 5.16243V44.838C39.5509 45.144 39.43 45.4377 39.2145 45.6551C38.999 45.8724 38.7064 45.9958 38.4003 45.9985H10.0422C9.88444 46.0065 9.72664 45.9825 9.57836 45.9279C9.43008 45.8733 9.29439 45.7893 9.17946 45.6808C9.06453 45.5724 8.97275 45.4418 8.90965 45.297C8.84655 45.1521 8.81344 44.996 8.8123 44.838V43.1914C9.19856 43.2212 9.58655 43.2212 9.97281 43.1914C10.2945 43.2257 10.6186 43.1542 10.8961 42.9878C11.1735 42.8213 11.3891 42.569 11.5102 42.269C11.6004 42.0491 11.6347 41.8103 11.61 41.574C11.5853 41.3376 11.5025 41.1111 11.3688 40.9146C11.2352 40.7181 11.055 40.5577 10.8443 40.4479C10.6335 40.3381 10.3989 40.2822 10.1613 40.2852H8.8123V34.7802H10.2208C10.5243 34.8032 10.827 34.7265 11.083 34.5618C11.339 34.3971 11.5343 34.1534 11.6392 33.8677C11.7214 33.6496 11.7466 33.4141 11.7124 33.1836C11.6782 32.9531 11.5857 32.7351 11.4436 32.5503C11.3016 32.3656 11.1147 32.2201 10.9007 32.1278C10.6867 32.0355 10.4527 31.9993 10.2208 32.0228H8.8123V26.4384H9.5463C11.0738 26.4384 11.6888 26.002 11.6888 25.02C11.6888 24.0381 11.0242 23.6711 9.5463 23.6711H8.8123V18.1958H10.2208C10.611 18.1932 10.9844 18.0364 11.2594 17.7595C11.5344 17.4826 11.6888 17.1082 11.6888 16.7179V16.7179C11.6902 16.5266 11.653 16.3369 11.5792 16.1604C11.5054 15.9838 11.3967 15.824 11.2595 15.6905C11.1224 15.5571 10.9597 15.4528 10.7811 15.3839C10.6026 15.315 10.412 15.2829 10.2208 15.2896H8.8123V9.68544C9.26146 9.65566 9.71211 9.65566 10.1613 9.68544C10.432 9.69956 10.7013 9.63846 10.9394 9.50891C11.1775 9.37935 11.3751 9.1864 11.5102 8.95144C11.6248 8.73836 11.6799 8.49841 11.6698 8.25672C11.6597 8.01502 11.5849 7.78048 11.453 7.57766C11.3212 7.37483 11.1373 7.21119 10.9205 7.10388C10.7037 6.99656 10.462 6.94951 10.2208 6.96766H8.8123V5.21202C8.82222 4.90738 8.94767 4.61793 9.16319 4.4024C9.37872 4.18688 9.66817 4.06143 9.97281 4.05151H38.3904C38.695 4.06143 38.9845 4.18688 39.2 4.4024C39.4155 4.61793 39.541 4.90738 39.5509 5.21202V5.16243ZM31.9431 16.4402H18.0567V19.0985H31.9431V16.4402ZM31.9431 12.2247H18.0567V14.8829H31.9431V12.2247ZM42.5563 37.3988H41.0883C40.6122 37.3988 40.2254 37.9443 40.2254 38.599V43.1517C40.2254 43.8064 40.6122 44.342 41.0883 44.342H42.5563C43.4094 44.342 44.1136 43.3501 44.1136 42.1797V39.5611C44.1136 38.3708 43.4094 37.3988 42.5563 37.3988ZM42.5563 29.5331H41.0883C40.6122 29.5331 40.2254 30.0687 40.2254 30.7333V35.2762C40.2254 35.9407 40.6122 36.4763 41.0883 36.4763H42.5563C43.4094 36.4763 44.1136 35.4844 44.1136 34.314V31.6954C44.1136 30.5052 43.4094 29.5331 42.5563 29.5331ZM42.5563 21.6674H41.0883C40.6122 21.6674 40.2254 22.2031 40.2254 22.8577V27.4105C40.2254 28.0651 40.6122 28.6007 41.0883 28.6007H42.5563C43.4094 28.6007 44.1136 27.6089 44.1136 26.4384V23.8298C44.1136 22.6296 43.4094 21.6674 42.5563 21.6674ZM42.5563 13.7919H41.0883C40.6122 13.7919 40.2254 14.3275 40.2254 14.992V19.5349C40.2254 20.1995 40.6122 20.7351 41.0883 20.7351H42.5563C43.4094 20.7351 44.1136 19.7432 44.1136 18.5728V15.9542C44.1136 14.7639 43.4094 13.7919 42.5563 13.7919V13.7919ZM42.5563 5.92618H41.0883C40.6122 5.92618 40.2254 6.4618 40.2254 7.12637V11.6692C40.2254 12.3338 40.6122 12.8694 41.0883 12.8694H42.5563C43.4094 12.8694 44.1136 11.8775 44.1136 10.7071V8.13809C44.1136 6.94783 43.4094 5.97578 42.5563 5.97578V5.92618Z" fill="#000"/>
</svg>
