<svg xmlns="http://www.w3.org/2000/svg" viewBox="0 0 50 50"><g id="cahier_texte_1D" data-name="cahier texte 1D"><path fill="#000" d="M5.73,16.77v-.25a.81.81,0,0,1,.81-.81H10a.81.81,0,0,1,.81.81v.25a.8.8,0,0,1-.81.8H6.54A.8.8,0,0,1,5.73,16.77Zm.81-7.69H10a.81.81,0,0,0,.81-.81V8a.8.8,0,0,0-.81-.8H6.54a.8.8,0,0,0-.81.8v.25A.81.81,0,0,0,6.54,9.08Zm0,16.85H10a.8.8,0,0,0,.81-.8v-.25a.81.81,0,0,0-.81-.81H6.54a.81.81,0,0,0-.81.81v.25A.8.8,0,0,0,6.54,25.93Zm0,8.41H10a.8.8,0,0,0,.81-.8v-.25a.81.81,0,0,0-.81-.81H6.54a.81.81,0,0,0-.81.81v.25A.8.8,0,0,0,6.54,34.34ZM10.78,42v-.25A.81.81,0,0,0,10,41H6.54a.81.81,0,0,0-.81.81V42a.8.8,0,0,0,.81.8H10A.8.8,0,0,0,10.78,42Zm28.89-37V45a1.17,1.17,0,0,1-1.16,1.17H9.92A1.18,1.18,0,0,1,8.68,45V43.34a7.61,7.61,0,0,0,1.17,0,1.5,1.5,0,0,0,1.55-.93,1.45,1.45,0,0,0-1.36-2H8.68V34.86H10.1a1.41,1.41,0,0,0,1.43-.92,1.38,1.38,0,0,0-1.43-1.86H8.68V26.45h.74c1.54,0,2.16-.44,2.16-1.43s-.67-1.36-2.16-1.36H8.68V18.14H10.1a1.49,1.49,0,0,0,1.48-1.49v0a1.43,1.43,0,0,0-1.48-1.44H8.68V9.56a10.28,10.28,0,0,1,1.36,0,1.48,1.48,0,0,0,1.36-.74,1.36,1.36,0,0,0-1.3-2H8.68V5.05A1.21,1.21,0,0,1,9.85,3.88H38.5a1.21,1.21,0,0,1,1.17,1.17ZM32,16.37H18v2.68H32Zm0-4.25H18V14.8H32ZM42.7,37.5H41.22c-.48,0-.87.55-.87,1.21V43.3c0,.66.39,1.2.87,1.2H42.7c.86,0,1.57-1,1.57-2.18V39.68C44.27,38.48,43.56,37.5,42.7,37.5Zm0-7.93H41.22c-.48,0-.87.54-.87,1.21v4.58c0,.67.39,1.21.87,1.21H42.7c.86,0,1.57-1,1.57-2.18V31.75C44.27,30.55,43.56,29.57,42.7,29.57Zm0-7.93H41.22c-.48,0-.87.54-.87,1.2v4.59c0,.66.39,1.2.87,1.2H42.7c.86,0,1.57-1,1.57-2.18V23.82C44.27,22.61,43.56,21.64,42.7,21.64Zm0-7.94H41.22c-.48,0-.87.54-.87,1.21v4.58c0,.67.39,1.21.87,1.21H42.7c.86,0,1.57-1,1.57-2.18V15.88c0-1.2-.71-2.18-1.57-2.18Zm0-7.93H41.22c-.48,0-.87.54-.87,1.21v4.58c0,.67.39,1.21.87,1.21H42.7c.86,0,1.57-1,1.57-2.18V8c0-1.2-.71-2.18-1.57-2.18Z"/></g></svg>