<svg width="24" height="24" viewBox="0 0 24 24" fill="none" xmlns="http://www.w3.org/2000/svg">
<g clip-path="url(#clip0_1102_23252)">
<path d="M12.0818 0.000745605C11.9993 -4.39456e-06 12 -4.39456e-06 11.919 0.000745605C11.7038 0.00899561 11.49 0.0322456 11.28 0.0787456C10.89 0.165746 10.5173 0.325496 10.185 0.547496C10.0283 0.652496 9.88352 0.770996 9.74552 0.898496C6.75152 3.80925 3.77176 6.7365 0.872265 9.74325C0.764265 9.86475 0.660015 9.98925 0.567765 10.1242C0.366015 10.4197 0.212265 10.7497 0.116265 11.0955C0.021015 11.4405 -0.016485 11.7997 0.00526502 12.156C0.051015 12.9247 0.374265 13.6687 0.907515 14.226C1.12652 14.4547 1.37926 14.652 1.65601 14.8095C1.93277 14.967 2.23426 15.0825 2.54476 15.1537C2.70451 15.189 2.86426 15.21 3.02552 15.225L3.14851 15.2325C3.18901 15.2332 3.23101 15.2347 3.27151 15.2347V21.789C3.27902 22.0402 3.31727 22.287 3.40426 22.5232C3.62251 23.1202 4.10476 23.6025 4.70252 23.8207C4.94027 23.9077 5.18702 23.9482 5.43901 23.9535C9.84451 23.9535 14.25 24.0622 18.6548 23.9512C18.753 23.9437 18.777 23.9437 18.8738 23.928C19.0523 23.9017 19.2263 23.8522 19.3928 23.7817C19.9455 23.5477 20.3858 23.0857 20.592 22.5225C20.667 22.317 20.7053 22.104 20.7218 21.8857L20.7248 21.789V15.2347H20.7345C20.895 15.2317 21.054 15.2227 21.2138 15.1995C21.531 15.1515 21.8408 15.0577 22.131 14.9205C22.4175 14.784 22.6853 14.6055 22.9208 14.3925C23.583 13.7947 23.9775 12.9277 23.9963 12.0375C24.0045 11.6797 23.9535 11.3227 23.8455 10.983C23.7375 10.6395 23.571 10.3147 23.3565 10.026C23.2613 9.89625 23.1548 9.77775 23.0438 9.6615C20.1128 6.7425 17.2178 3.786 14.2523 0.901496C14.1143 0.772496 13.9695 0.654746 13.8128 0.550496C13.4798 0.328496 13.107 0.167996 12.7163 0.0809956C12.5063 0.0337456 12.294 0.0112456 12.0788 0.00299561L12.0818 0.000745605ZM8.16002 9.29175C8.16002 7.31925 9.88051 5.718 12 5.718C14.1195 5.718 15.84 7.31925 15.84 9.29175C15.84 11.2642 14.1195 12.8655 12 12.8655C9.88051 12.8655 8.16002 11.2642 8.16002 9.29175Z" fill="#000"/>
<path d="M10.56 9.36001C10.56 8.56501 11.205 7.92001 12 7.92001C12.795 7.92001 13.44 8.56501 13.44 9.36001C13.44 10.155 12.795 10.8 12 10.8C11.205 10.8 10.56 10.155 10.56 9.36001Z" fill="#000"/>
</g>
<defs>
<clipPath id="clip0_1102_23252">
<rect width="24" height="24" fill="white"/>
</clipPath>
</defs>
</svg>
