<svg width="50" height="50" viewBox="0 0 50 50" fill="none" xmlns="http://www.w3.org/2000/svg">
<path d="M25.5 3C28.0151 3 30.4859 3.41232 32.8428 4.22559C33.603 4.48837 34.007 5.31688 33.7451 6.07715C33.4829 6.83754 32.6533 7.24167 31.8936 6.97949C29.8426 6.2721 27.6918 5.91312 25.501 5.91309C14.7005 5.91309 5.91309 14.6998 5.91309 25.501C5.91326 36.302 14.7006 45.0889 25.501 45.0889C36.3013 45.0887 45.0889 36.3014 45.0889 25.501C45.0888 21.8488 44.0819 18.3093 42.1768 15.2246L40.9326 15.9375C40.1219 16.4023 39.136 15.7177 39.2881 14.7959L39.915 10.998C40.0256 10.3314 40.6999 9.91767 41.3438 10.1221L45.2031 11.3477C46.122 11.64 46.2553 12.8852 45.4189 13.3652L44.7061 13.7744L44.7051 13.7734C46.8626 17.2995 48 21.3372 48 25.5C48 37.9069 37.9069 48 25.5 48C13.0931 48 3 37.9069 3 25.5C3 13.0931 13.0937 3 25.5 3Z" fill="#000"/>
<path d="M27.2891 41.0361C27.1713 41.9795 26.3492 42.6749 25.4307 42.6396C24.6153 42.6084 23.914 42.0095 23.7393 41.2002L23.7119 41.0361H27.2891Z" fill="#000"/>
<path d="M29.9248 38.3584C29.9248 39.5365 28.97 40.492 27.792 40.4922H23.0879C21.883 40.4921 20.9063 39.5154 20.9062 38.3105V37.6367H29.9248V38.3584Z" fill="#000"/>
<path d="M30.0166 34.4688C29.9591 35.0041 29.9271 35.5437 29.9258 36.085H20.9062V34.4688H30.0166Z" fill="#000"/>
<path fill-rule="evenodd" clip-rule="evenodd" d="M35.1387 20.9648C35.1387 23.2539 34.3503 25.3585 33.0283 27.0205C31.6521 28.7511 30.7275 30.7765 30.2666 32.917H20.793C20.5014 30.9379 19.6396 29.072 18.2646 27.5938C16.6375 25.8455 15.6468 23.4978 15.6592 20.918C15.684 15.6784 19.9248 11.3513 25.1631 11.2275C30.6503 11.0981 35.1382 15.5071 35.1387 20.9648ZM24.542 13.5879C23.7113 13.7253 20.8675 14.3914 19.1436 17.1895C17.6433 19.624 17.975 22.0737 18.1875 23.0146C18.2535 23.3089 18.515 23.5088 18.8047 23.5088C18.8503 23.5088 18.8974 23.5036 18.9443 23.4932C19.285 23.416 19.499 23.0766 19.4219 22.7354C19.244 21.9459 18.9649 19.8902 20.2207 17.8525C21.7016 15.4491 24.2528 14.9193 24.749 14.8369C25.0941 14.78 25.3263 14.4545 25.2695 14.1094C25.2126 13.7648 24.8879 13.531 24.542 13.5879Z" fill="#000"/>
<path d="M37.5537 6.15137C38.8869 6.15137 39.9678 7.23226 39.9678 8.56543C39.9677 9.89854 38.8868 10.9795 37.5537 10.9795C36.2207 10.9793 35.1407 9.89843 35.1406 8.56543C35.1406 7.23237 36.2207 6.15155 37.5537 6.15137Z" fill="#000"/>
</svg>
