<svg width="50" height="50" viewBox="0 0 50 50" fill="none" xmlns="http://www.w3.org/2000/svg">
<path d="M19.5029 30.6202C18.8257 29.9254 17.7132 29.9078 17.014 30.585L15.0352 32.5111L13.1091 30.5323C12.4319 29.8375 11.3194 29.8199 10.6202 30.4971C9.92543 31.1743 9.90785 32.2869 10.585 32.9861L12.5111 34.9649L10.5323 36.891C9.83749 37.5682 9.8199 38.6808 10.4971 39.38C10.8401 39.7362 11.3018 39.912 11.7591 39.912C12.2165 39.912 12.643 39.7449 12.986 39.4151L14.9648 37.4891L16.8909 39.4679C17.2339 39.8241 17.6956 40 18.1529 40C18.6102 40 19.0368 39.8329 19.3798 39.5031C20.0746 38.8259 20.0922 37.7133 19.415 37.0141L17.4889 35.0353L19.4677 33.1092C20.1625 32.432 20.1801 31.3194 19.5029 30.6202Z" fill="#000"/>
<path d="M30.4971 19.38C30.8401 19.7362 31.3018 19.9121 31.7591 19.9121C32.2165 19.9121 32.643 19.7449 32.986 19.4151L34.9648 17.4891L36.8909 19.4679C37.2339 19.8241 37.6956 20 38.1529 20C38.6102 20 39.0368 19.8329 39.3798 19.5031C40.0746 18.8259 40.0922 17.7133 39.415 17.0141L37.4889 15.0353L39.4677 13.1092C40.1625 12.432 40.1801 11.3194 39.5029 10.6202C38.8257 9.92543 37.7132 9.90784 37.014 10.5851L35.0352 12.5111L33.1091 10.5323C32.4319 9.83748 31.3194 9.81989 30.6202 10.4971C29.9254 11.1743 29.9078 12.2869 30.585 12.9861L32.5111 14.9649L30.5323 16.891C29.8375 17.5682 29.8199 18.6808 30.4971 19.38Z" fill="#000"/>
<path d="M44.2222 4H5.77778C4.79555 4 4 4.79555 4 5.77778V44.2222C4 45.2044 4.79555 46 5.77778 46H44.2222C45.2044 46 46 45.2044 46 44.2222V5.77778C46 4.79555 45.2044 4 44.2222 4ZM42.4444 23.2222H26.7778V7.55555H42.4444V23.2222ZM7.55555 7.55555H23.2222V23.2222H7.55555V7.55555ZM7.55555 26.7778H23.2222V42.4444H7.55555V26.7778ZM42.4444 42.4444H26.7778V26.7778H42.4444V42.4444Z" fill="#000"/>
</svg>
