<svg width="50" height="50" viewBox="0 0 50 50" fill="none" xmlns="http://www.w3.org/2000/svg">
<path d="M28 32.5V23.5C28 19.9196 26.5777 16.4858 24.0459 13.9541C21.5142 11.4223 18.0804 10 14.5 10C10.9196 10 7.4858 11.4223 4.95406 13.9541C2.42232 16.4858 1 19.9196 1 23.5L1 32.5H7V23.5C7 21.5109 7.79018 19.6032 9.1967 18.1967C10.6032 16.7902 12.5109 16 14.5 16C15.4849 16 16.4602 16.194 17.3701 16.5709C18.2801 16.9478 19.1069 17.5003 19.8033 18.1967C20.4997 18.8931 21.0522 19.7199 21.4291 20.6299C21.806 21.5398 22 22.5151 22 23.5V32.5M7 35.5H1V40H7M28 35.5H22V40H28" fill="#000"/>
<path d="M49 32.5V23.5C49 21.7272 48.6508 19.9717 47.9724 18.3338C47.2939 16.6959 46.2995 15.2076 45.0459 13.9541C43.7923 12.7005 42.3041 11.7061 40.6662 11.0276C39.0283 10.3492 37.2728 10 35.5 10C31.9196 10 28.4858 11.4223 25.9541 13.9541C23.4223 16.4858 22 19.9196 22 23.5V32.5H28V23.5C28 21.5109 28.7902 19.6032 30.1967 18.1967C31.6032 16.7902 33.5109 16 35.5 16C36.4849 16 37.4602 16.194 38.3701 16.5709C39.2801 16.9478 40.1069 17.5003 40.8033 18.1967C41.4997 18.8931 42.0522 19.7199 42.4291 20.6299C42.806 21.5398 43 22.5151 43 23.5V32.5M28 35.5H22V40H28M49 35.5H43V40H49" fill="#000"/>
</svg>
