<svg xmlns="http://www.w3.org/2000/svg" viewBox="0 0 50 50"><g id="magneto" data-name="magneto"><path fill="#000" d="M28 31.5V23.7C28 20.597 26.7357 17.621 24.4853 15.4268C22.2348 13.2327 19.1826 12 16 12C12.8174 12 9.76515 13.2327 7.51472 15.4269C5.26428 17.621 4 20.597 4 23.7L4 31.5H9.33334V23.7C9.33334 21.9761 10.0357 20.3228 11.286 19.1038C12.5362 17.8848 14.2319 17.2 16 17.2C16.8755 17.2 17.7424 17.3681 18.5512 17.6948C19.3601 18.0214 20.095 18.5002 20.714 19.1038C21.3331 19.7074 21.8242 20.4239 22.1592 21.2126C22.4942 22.0012 22.6667 22.8464 22.6667 23.7V31.5M9.33334 34.1H4V38H9.33334M28 34.1H22.6667V38H28"/><path fill="#000" d="M46 31.5V23.7C46 22.1635 45.6896 20.6421 45.0866 19.2226C44.4835 17.8031 43.5996 16.5133 42.4853 15.4268C41.371 14.3404 40.0481 13.4786 38.5922 12.8906C37.1363 12.3026 35.5759 12 34 12C30.8174 12 27.7652 13.2327 25.5147 15.4269C23.2643 17.621 22 20.597 22 23.7V31.5H27.3333V23.7C27.3333 21.9761 28.0357 20.3228 29.286 19.1038C30.5362 17.8848 32.2319 17.2 34 17.2C34.8755 17.2 35.7424 17.3681 36.5512 17.6948C37.3601 18.0214 38.095 18.5002 38.714 19.1038C39.3331 19.7074 39.8242 20.4239 40.1592 21.2126C40.4942 22.0012 40.6667 22.8464 40.6667 23.7V31.5M27.3333 34.1H22V38H27.3333M46 34.1H40.6667V38H46"/></g></svg>