<?xml version="1.0" encoding="utf-8"?>
<!-- Generator: Adobe Illustrator 26.0.3, SVG Export Plug-In . SVG Version: 6.00 Build 0)  -->
<svg version="1.1"
	 id="svg4898" inkscape:version="0.92.2 (5c3e80d, 2017-08-06)" sodipodi:docname="logo-mediacentre-final.svg" xmlns:cc="http://creativecommons.org/ns#" xmlns:dc="http://purl.org/dc/elements/1.1/" xmlns:inkscape="http://www.inkscape.org/namespaces/inkscape" xmlns:rdf="http://www.w3.org/1999/02/22-rdf-syntax-ns#" xmlns:sodipodi="http://sodipodi.sourceforge.net/DTD/sodipodi-0.dtd" xmlns:svg="http://www.w3.org/2000/svg"
	 xmlns="http://www.w3.org/2000/svg" xmlns:xlink="http://www.w3.org/1999/xlink" x="0px" y="0px" viewBox="0 0 132.3 113.6"
	 style="enable-background:new 0 0 132.3 113.6;" xml:space="preserve">
<style type="text/css">
	.st0{fill:#1A22A2;fill-opacity:0.9804;}
	.st1{fill:#323CDE;fill-opacity:0.9895;}
	.st2{fill:#FB0008;}
	.st3{fill:#FFB549;}
	.st4{fill:#001871;}
	.st5{fill:#FFB3B3;}
	.st6{fill:#FF656A;}
</style>
<sodipodi:namedview  bordercolor="#666666" borderopacity="1.0" id="base" inkscape:current-layer="layer1" inkscape:cx="-416.08794" inkscape:cy="-292.82794" inkscape:document-units="mm" inkscape:pageopacity="0.0" inkscape:pageshadow="2" inkscape:window-height="1001" inkscape:window-maximized="1" inkscape:window-width="1920" inkscape:window-x="-9" inkscape:window-y="-9" inkscape:zoom="0.35" pagecolor="#ffffff" showgrid="false">
	</sodipodi:namedview>
<g id="layer1" transform="translate(-49.235768,-31.275004)" inkscape:groupmode="layer" inkscape:label="Calque 1">
	
		<g id="g4249" transform="matrix(0.88555145,0,0,0.88555145,-34.873672,-113.48681)" inkscape:export-xdpi="142.30562" inkscape:export-ydpi="142.30562">
		<path id="rect3988" class="st0" d="M137.2,174.6L137.2,174.6c7.8,0,14.1,5.4,14.1,12.1v81.9c0,6.7-6.3,12.1-14.1,12.1l0,0
			c-7.8,0-14.1-5.4-14.1-12.1v-81.9C123.1,180,129.4,174.6,137.2,174.6z"/>
		<path id="rect3988-2-7" inkscape:connector-curvature="0" sodipodi:nodetypes="sssssss" class="st1" d="M130.3,176.2
			c7.9-4.3,19,0.5,23.6,9.7l33.7,68.2c4.6,9.2,2.5,19.8-4.7,23.6c-7.2,3.8-16.6-0.5-21.2-9.7l-37.1-74.5
			C121.1,186.5,123.2,180.1,130.3,176.2L130.3,176.2z"/>
		<ellipse id="path4076-1-6-8" class="st2" cx="135.7" cy="211.7" rx="7.1" ry="7.4"/>
		<ellipse id="path4076-1-6-8-8" class="st3" cx="119.7" cy="234.9" rx="11.9" ry="12.4"/>
		<ellipse id="path4076-1-6-8-8-5" class="st4" cx="121" cy="188.4" rx="9.8" ry="10.2"/>
		<ellipse id="path4076-1-6-8-7" class="st5" cx="126.5" cy="266.4" rx="8.9" ry="9.3"/>
		<path id="rect3988-2-7-9" class="st6" d="M174.2,176.7L174.2,176.7c7.1-3.8,16.6,0.5,21.2,9.7l33.7,68.2
			c4.5,9.2,2.4,19.8-4.7,23.6l0,0c-7.1,3.8-16.6-0.5-21.2-9.7l-33.7-68.2C165,191.1,167.1,180.5,174.2,176.7z"/>
	</g>
</g>
</svg>
