<svg width="50" height="50" viewBox="0 0 50 50" fill="none" xmlns="http://www.w3.org/2000/svg">
<path d="M27.8566 6.92897C27.3731 6.9225 26.838 6.99795 26.2621 7.17255C23.3484 8.06495 23.4107 11.7424 24.7666 14.0704L39.5912 39.4996C41.3897 42.5842 44.2627 44.0672 46.6543 42.3385C49.7722 40.0838 46.6092 35.4213 45.769 33.9986L32.8547 11.0914C31.892 9.38632 30.4888 6.96562 27.8566 6.92897ZM14.6822 7.05184C12.3938 7.05184 10.5522 8.60385 10.5522 10.5309V10.5546C10.4964 11.0051 10.4964 11.4772 10.5522 11.9622V20.9596C10.1354 20.8281 9.70131 20.7612 9.2651 20.7612C8.07252 20.7612 6.92936 21.257 6.08702 22.1387C5.24469 23.0203 4.77196 24.2166 4.77196 25.4625C4.77196 26.7106 5.24469 27.9048 6.08702 28.7864C6.92936 29.6681 8.07252 30.1638 9.2651 30.1638C9.70131 30.1638 10.1354 30.097 10.5522 29.9655V39.4004C10.5522 41.3275 12.3938 42.8795 14.6822 42.8795C16.9707 42.8795 18.8122 41.3275 18.8122 39.4004V27.0146L25.9291 39.5794C27.6889 42.6855 30.9852 43.9379 33.2887 42.0906C35.7427 40.1226 33.2823 35.4924 32.4894 34.0633L20.05 11.447C19.5042 10.4598 18.9304 9.56307 18.3008 8.84311C17.6025 7.76749 16.2444 7.04322 14.6801 7.04322L14.6844 7.04968L14.6822 7.05184ZM6.08058 7.69204C5.6895 7.69204 5.30271 7.7718 4.94171 7.92915C4.58071 8.08651 4.25195 8.315 3.9769 8.60385C3.6997 8.89269 3.48053 9.23543 3.33226 9.61481C3.18399 9.99419 3.10663 10.3973 3.10663 10.8068C3.10663 11.2164 3.18399 11.6216 3.33226 11.9989C3.48053 12.3761 3.70185 12.721 3.9769 13.0098C4.25409 13.2987 4.58071 13.5293 4.94171 13.6845C5.30271 13.8397 5.6895 13.9216 6.08058 13.9216C6.86919 13.9216 7.62772 13.594 8.18426 13.0098C8.7408 12.4257 9.05667 11.6346 9.05667 10.809C9.05667 10.3994 8.97931 9.99419 8.83105 9.61696C8.68278 9.23974 8.46145 8.89485 8.18641 8.606C7.90921 8.31716 7.58259 8.08651 7.22159 7.93131C6.86059 7.77611 6.47381 7.6942 6.08273 7.6942L6.08058 7.69204ZM40.6419 12.0894C39.9307 12.0894 39.2474 12.3847 38.7445 12.9107C38.2417 13.4366 37.9581 14.1501 37.9581 14.8959C37.9581 15.6396 38.2417 16.3553 38.7445 16.8812C39.2474 17.4072 39.9307 17.7025 40.6419 17.7025C40.9943 17.7025 41.3424 17.6292 41.6691 17.4891C41.9957 17.349 42.2901 17.142 42.5393 16.8812C42.7886 16.6204 42.9863 16.3122 43.1217 15.9694C43.257 15.6288 43.3258 15.2646 43.3258 14.8959C43.3258 14.5273 43.257 14.1631 43.1217 13.8225C42.9863 13.4819 42.7886 13.1715 42.5393 12.9128C42.2901 12.6542 41.9935 12.4451 41.6691 12.305C41.3446 12.1648 40.9943 12.0916 40.6419 12.0916V12.0894ZM5.39081 33.8843C4.94601 33.8843 4.50551 33.977 4.09293 34.1538C3.68036 34.3305 3.30862 34.5935 2.99275 34.9233C2.67687 35.2531 2.42761 35.6433 2.25786 36.0744C2.0881 36.5055 2 36.9668 2 37.4324C2 38.3722 2.3567 39.2754 2.99275 39.9393C3.62879 40.6032 4.49046 40.9783 5.39081 40.9783C5.83561 40.9783 6.27612 40.8856 6.68869 40.7089C7.10126 40.5321 7.473 40.2691 7.78888 39.9393C8.10475 39.6095 8.35401 39.2194 8.52377 38.7883C8.69352 38.3571 8.78162 37.8959 8.78162 37.4303C8.78162 36.9646 8.69352 36.5034 8.52377 36.0722C8.35401 35.6411 8.1026 35.251 7.78888 34.9212C7.47515 34.5914 7.09911 34.3305 6.68869 34.1516C6.27827 33.9727 5.83561 33.8843 5.39081 33.8843Z" fill="#000"/>
</svg>
