<svg width="50" height="50" viewBox="0 0 50 50" fill="none" xmlns="http://www.w3.org/2000/svg">
<path d="M46 25.8009L41.1168 28.7227V29.747L39.1661 30.9721V33.0057L37.2155 34.2225V39.457L46 34.1937V25.8009ZM45.0247 27.5554V33.6065L38.1908 37.7025V34.7945L40.1414 33.5777V31.5441L42.0921 30.319V29.3098L45.0247 27.5554ZM38.2542 13.1623L36.2268 14.6156V23.3095L36.4719 23.4594L38.2757 24.5195L40.128 23.4099V14.2788L38.2542 13.1623ZM38.2959 14.3571L39.1513 14.8659V22.8214L38.2676 23.3439L37.194 22.7141V15.145L38.2959 14.3571ZM14.6084 3L6.99596 7.56898V15.8902L7.2344 16.0332L12.4612 19.1626V23.2091L12.6996 23.3521L14.6084 24.5195L16.7557 23.2091V19.1626L21.5339 16.2903V7.26649L14.6084 3ZM14.6017 4.18109L20.5586 7.8481V15.7046L14.6084 19.2781L7.97126 15.2962V8.15609L14.6017 4.18109ZM15.7804 19.7497V22.622L14.6084 23.3384L13.4365 22.622V19.7497L14.6084 20.451L15.7804 19.7497ZM31.8473 23.5529L17.696 31.8741V34.5016L19.2533 35.4187V37.4454L25.0202 40.8966L37.2142 33.3769V31.2361L39.1648 30.0193V27.9073L31.8473 23.5529ZM31.8473 24.7202L38.1895 28.4945V29.4404L36.2389 30.6655V32.7994L25.0135 39.7169L20.2353 36.8597V34.8261L18.6713 33.909V32.4695L31.8473 24.7202ZM26.4939 8.16296C26.4023 8.16296 26.3121 8.18496 26.2339 8.23446L21.5326 11.0627V12.237L26.4791 9.25743L32.8213 13.0454L25.062 17.6928C24.7387 17.8867 24.7387 18.3734 25.062 18.5659L30.8639 22.0899L18.1863 29.5518L5.49394 21.896L11.2474 18.4298L10.2721 17.8427L4.27346 21.4519C3.95016 21.6527 3.95016 22.1325 4.27346 22.3333L17.9412 30.5761C18.088 30.6628 18.2712 30.6696 18.4248 30.5761L32.0858 22.5409C32.4158 22.347 32.4225 21.8603 32.0925 21.6595L26.2824 18.1355L34.0418 13.4882C34.3651 13.2874 34.3651 12.8076 34.0418 12.6068L26.7243 8.22346C26.6542 8.18771 26.5694 8.15884 26.4859 8.15884L26.4939 8.16296ZM34.2896 13.0551C34.2896 13.2338 34.198 13.3988 34.0445 13.4923L33.3143 13.9295V14.7889L26.9991 18.57L27.9744 19.1571L34.0431 15.5259C34.198 15.4324 34.2883 15.2605 34.2883 15.0817L34.2896 13.0551ZM8.91154 28.0352V30.0482L6.96093 28.8313V36.1213L18.4746 43.1254V39.9176L16.819 38.9001V36.8597L14.7701 35.6429V31.5757L8.91154 28.0352ZM9.88684 29.7979L13.7948 32.1546V36.23L15.8437 37.4468V39.4804L17.4993 40.4978V41.3572L7.93624 35.5425V30.6298L9.88684 31.8466V29.7979ZM24.7831 9.10206L21.5352 11.0572V11.0641L24.7912 9.10893L24.7831 9.10206ZM10.2519 17.8385L4 21.6059V34.3958L24.9784 47L45.9636 34.0878V21.8067L40.1266 18.3046V19.4789L44.9883 22.3938V33.5075L24.9784 45.8175L4.9753 33.8087V22.7595L4.27346 22.3374C3.95016 22.1367 3.95016 21.6568 4.27346 21.456L10.2721 17.8468L10.2519 17.8385ZM46 25.794L45.2699 26.2381L41.1168 28.7227V29.747L39.1661 30.9639V32.9974L37.2155 34.2225V39.457L46 34.1937V25.794ZM45.0247 27.5554V33.6065L38.1908 37.7025V34.7945L40.1414 33.5777V31.5441L42.0921 30.319V29.3098L45.0247 27.5554ZM38.2542 13.1623L36.22 14.6156V23.3095L36.4719 23.4594L38.2771 24.5195L40.1293 23.4099V14.2788L38.2542 13.1623ZM38.2959 14.3571L39.1513 14.8659V22.8214L38.2676 23.3439L37.194 22.7141V15.145L38.2959 14.3571ZM14.6084 3L6.99596 7.56898V15.8902L7.24113 16.0332L12.4612 19.1626V23.2091L12.6996 23.3521L14.6084 24.5195L16.7557 23.2091V19.1626L21.5406 16.2903V7.26649L14.6084 3ZM14.6084 4.18109L20.5586 7.8481V15.7046L14.6084 19.2781L7.97126 15.2962V8.15609L14.6084 4.18109ZM15.7804 19.7497V22.622L14.6084 23.3384L13.4365 22.622V19.7497L14.6084 20.451L15.7804 19.7497ZM31.8473 23.5529L17.696 31.8741V34.5016L19.26 35.4187V37.4454L25.0202 40.8966L37.2142 33.3769V31.2361L39.1648 30.0193V27.9073L31.8473 23.5529ZM31.8473 24.7202L38.1895 28.4945V29.4404L36.2389 30.6655V32.7994L25.0135 39.7169L20.2353 36.8597V34.8261L18.6713 33.909V32.4695L31.8473 24.7202ZM26.4939 8.16296C26.4023 8.16296 26.3121 8.18496 26.2339 8.23446L21.5406 11.0627V12.237L26.4805 9.25743L32.8213 13.0454L25.0633 17.6928C24.74 17.8867 24.74 18.3734 25.0633 18.5659L30.8639 22.0899L18.1877 29.5449L5.49529 21.896L11.2474 18.4298L10.2721 17.8427L4.28154 21.4519C3.9515 21.6527 3.9515 22.1325 4.28154 22.3333L17.9425 30.5693C18.0894 30.6628 18.2793 30.6628 18.4261 30.5693L32.0858 22.5409C32.4225 22.3401 32.4239 21.8534 32.0938 21.6527L26.2838 18.1287L34.0431 13.4813C34.3731 13.2874 34.3731 12.8007 34.0431 12.6L26.7256 8.23171C26.6556 8.18909 26.5707 8.16709 26.4872 8.16021L26.4939 8.16296ZM34.2896 13.0551C34.2896 13.2338 34.198 13.3988 34.0445 13.4923L33.3143 13.9295V14.7889L26.9991 18.57L27.9744 19.1571L34.0431 15.5259C34.198 15.4324 34.2883 15.2605 34.2883 15.0817L34.2896 13.0551ZM34.2896 14.8301V15.0804C34.2896 15.266 34.198 15.431 34.0445 15.5176L33.7643 15.6895L36.2268 17.1579V15.9837L34.2896 14.8301ZM40.1334 18.3101V19.4775L45.0234 22.3924V23.3384L41.4589 25.5232L38.2946 27.4137L32.3377 23.8402V22.0995C32.3377 21.9208 32.2461 21.7489 32.0925 21.6623L27.9744 19.1626L26.9991 19.7429L31.3637 22.3924V24.1331C31.3637 24.3187 31.4553 24.4837 31.6089 24.5772L38.0494 28.4436C38.1962 28.5302 38.3794 28.5302 38.533 28.4436L41.9493 26.41H41.956L45.022 24.5195V26.2162C45.0287 26.2588 45.0355 26.2876 45.0436 26.3165C45.0503 26.3303 45.057 26.3523 45.0651 26.366C45.0732 26.3798 45.0786 26.3949 45.0867 26.4155L45.115 26.4581C45.1567 26.5076 45.1998 26.5585 45.2551 26.5943L45.2968 26.6231L45.3386 26.6451C45.352 26.652 45.3736 26.652 45.3871 26.652C45.4787 26.6809 45.5837 26.674 45.6753 26.6451L45.7171 26.6231C45.7454 26.6094 45.7804 26.5874 45.8087 26.5736C45.8154 26.5599 45.8303 26.5516 45.8437 26.5379C45.8572 26.5241 45.8653 26.509 45.8788 26.5021L45.9138 26.4664C45.9205 26.4526 45.9273 26.4375 45.9353 26.4238C45.9569 26.3949 45.9704 26.3591 45.9771 26.3303C45.9838 26.3165 45.9838 26.2945 45.9906 26.2808L45.9973 26.2313C45.9973 26.2175 45.9973 26.2024 45.9973 26.1818V22.1147C45.9973 21.929 45.9057 21.7572 45.7521 21.6705L40.1334 18.3101ZM8.91154 28.0352V30.0482L6.96093 28.8313V36.1213L18.4814 43.1254V39.9176L16.819 38.9001V36.8597L14.7701 35.6429V31.5757L8.91154 28.0352ZM9.89358 29.7979L13.7948 32.1546V36.23L15.8437 37.4468V39.4804L17.4993 40.4978V41.3572L7.93624 35.5425V30.6298L9.89358 31.8466V29.7979ZM24.7831 9.10206L21.5352 11.0572V11.0641L24.7912 9.10893L24.7831 9.10206ZM10.2586 17.8385L4 21.6059V34.3958L24.9852 47L45.9636 34.0878V21.8067L40.1266 18.3046V19.4789L44.9883 22.3938V33.5075L24.9784 45.8175L4.9753 33.8087V22.7595L4.2802 22.3374C3.95016 22.1367 3.95016 21.6568 4.2802 21.456L10.2721 17.8537L10.2586 17.8385Z" fill="#000"/>
</svg>
