<svg width="50" height="50" viewBox="0 0 50 50" fill="none" xmlns="http://www.w3.org/2000/svg">
<path d="M25.0001 17.91H16.4601V26.43H25.0001V17.91ZM27.8701 32.13V35H13.6301V32.13H27.8701ZM27.8701 15.04V29.26H13.6301V15L27.8701 15.04ZM42.0701 32.13V35H30.6801V32.13H42.0701ZM42.0701 26.43V29.26H30.6801V26.43H42.0701ZM42.0701 20.74V23.61H30.6801V20.74H42.0701ZM42.0701 15.04V17.91H30.6801V15L42.0701 15.04ZM7.93015 36.39V15H5.06015V36.39C5.07723 36.7664 5.23442 37.1228 5.50086 37.3893C5.7673 37.6557 6.12373 37.8129 6.50015 37.83C6.6881 37.8292 6.87387 37.7897 7.04591 37.714C7.21794 37.6383 7.37256 37.528 7.50015 37.39C7.63731 37.2623 7.74637 37.1074 7.8204 36.9352C7.89444 36.7631 7.93181 36.5774 7.93015 36.39V36.39ZM44.9301 36.39V12.21H10.7601V36.39C10.7585 36.8798 10.6775 37.3661 10.5201 37.83H43.5201C43.7079 37.828 43.8933 37.788 44.0652 37.7123C44.2371 37.6367 44.3918 37.5271 44.5201 37.39C44.6519 37.2606 44.754 37.1042 44.8196 36.9316C44.8852 36.759 44.9127 36.5742 44.9002 36.39H44.9301ZM47.7901 9.38998V36.39C47.7982 36.9516 47.6936 37.5092 47.4823 38.0297C47.2711 38.5502 46.9576 39.0231 46.5604 39.4203C46.1632 39.8175 45.6904 40.1309 45.1699 40.3422C44.6494 40.5534 44.0918 40.6581 43.5301 40.65H6.50015C5.9437 40.6529 5.39217 40.5457 4.8773 40.3346C4.36244 40.1235 3.89441 39.8127 3.50015 39.42C3.09195 39.0374 2.77084 38.5715 2.55861 38.0539C2.34638 37.5362 2.248 36.979 2.27015 36.42V12.21H7.93015V9.34998L47.7901 9.38998Z" fill="#000"/>
</svg>
