<svg xmlns="http://www.w3.org/2000/svg" viewBox="0 0 50 50"><g id="news_feed" data-name="news feed"><path id="path1487" fill="#000" d="M25,18.91H16.46v8.52H25V18.91Zm2.87,14.22V36H13.63V33.13Zm0-17.09V30.26H13.63V16ZM42.07,33.13V36H30.68V33.13Zm0-5.7v2.83H30.68V27.43Zm0-5.69v2.87H30.68V21.74Zm0-5.7v2.87H30.68V16ZM7.93,37.39V16H5.06V37.39A1.51,1.51,0,0,0,6.5,38.83a1.37,1.37,0,0,0,1-.44A1.35,1.35,0,0,0,7.93,37.39Zm37,0V13.21H10.76V37.39a4.53,4.53,0,0,1-.24,1.44h33a1.39,1.39,0,0,0,1-.44A1.28,1.28,0,0,0,44.9,37.39Zm2.86-27v27a4.2,4.2,0,0,1-4.26,4.26H6.5a4.22,4.22,0,0,1-3-1.23,3.9,3.9,0,0,1-1.23-3V13.21H7.93V10.35Z"/></g></svg>