<svg xmlns="http://www.w3.org/2000/svg" viewBox="0 0 50 50"><g id="pad"><path id="path1523" fill="#000" d="M31.21,34.34H19.64v-1H31.21Zm-4.77-3.08h-6.8v-1h6.8Zm2-3.08H19.64v-1h8.84Zm3.42-3H19.64v-1H31.9Zm-5.46-3.07h-6.8V21h6.8Zm8.49-6.66H16.56V40H34.93ZM13.53,43V12.39H38V43ZM9.31,18a6.53,6.53,0,0,0-2.08,3.68l7.59,7.94a4.15,4.15,0,0,0,.7-2.58,4.67,4.67,0,0,0,2.63-2.68,3.42,3.42,0,0,0,2.38-.6l-7.6-7.94A7,7,0,0,0,9.31,18ZM1.17,14.88a22.71,22.71,0,0,1,1.49,1.93,5.92,5.92,0,0,1,1.88-3.72,6,6,0,0,1,3.73-2c-.65-.49-1.49-1.24-1.79-1.49-.79-.79-2.33-1.34-4.57.55S.32,14,1.17,14.88Zm15.44,13.2a7.35,7.35,0,0,1-.7,2.19L24.65,34l-3.52-9s-.35.35-1.84.35a4.87,4.87,0,0,1-2.68,2.78Zm-11.12-14c-2.14,2.24-1.84,3.77-1.84,3.77l.84.85a6.52,6.52,0,0,1,2-3.53,7.3,7.3,0,0,1,3.62-2.28L9.21,12S7.57,12,5.49,14.08ZM7.27,16c-2,2.13-1.73,3.62-1.73,3.62l.74.8A7.08,7.08,0,0,1,8.22,17a6.89,6.89,0,0,1,3.47-2.18L10.85,14S9.26,13.93,7.27,16Zm29.84-6L29.52,17.9a3.2,3.2,0,0,0,2.33.6,4.51,4.51,0,0,0,2.68,2.68,3.81,3.81,0,0,0,.7,2.58l7.59-7.94a6.77,6.77,0,0,0-2.13-3.67A6.46,6.46,0,0,0,37.11,10Zm11-5.71C45.85,2.41,44.31,3,43.52,3.75c-.25.3-1.14,1-1.74,1.54a5.74,5.74,0,0,1,3.68,1.94A5.47,5.47,0,0,1,47.34,11c.55-.69,1.34-1.78,1.49-1.93.85-.9,1.49-2.83-.74-4.72ZM30.71,19.44c-1.49,0-1.84-.34-1.84-.34l-3.47,9,8.69-3.72a6.35,6.35,0,0,1-.65-2.19,4.87,4.87,0,0,1-2.73-2.78ZM40.79,6.14,39.94,7a7.55,7.55,0,0,1,3.58,2.29,7,7,0,0,1,2,3.52l.79-.84s.3-1.54-1.84-3.73S40.79,6.14,40.79,6.14Zm-1.64,2L38.31,9a7,7,0,0,1,3.47,2.18,6.51,6.51,0,0,1,1.94,3.38l.79-.8s.25-1.49-1.78-3.57S39.15,8.12,39.15,8.12Z"/></g></svg>