<svg width="50" height="50" viewBox="0 0 50 50" fill="none" xmlns="http://www.w3.org/2000/svg">
<path fill-rule="evenodd" clip-rule="evenodd" d="M18.832 37.4951H13.3096V32.3896H18.832V37.4951ZM14.8115 36.1055H17.3311V33.7764H14.8115V36.1055Z" fill="#000"/>
<path fill-rule="evenodd" clip-rule="evenodd" d="M18.832 30.6016H13.3096V25.4971H18.832V30.6016ZM14.8115 29.2129H17.3311V26.8838H14.8115V29.2129Z" fill="#000"/>
<path d="M32.4336 30.6006H20.9551V29.2129H32.4336V30.6006Z" fill="#000"/>
<path fill-rule="evenodd" clip-rule="evenodd" d="M18.832 23.709H13.3096V18.6045H18.832V23.709ZM14.8115 22.3203H17.3311V19.9912H14.8115V22.3203Z" fill="#000"/>
<path d="M32.4336 23.708H20.9551V22.3203H32.4336V23.708Z" fill="#000"/>
<path fill-rule="evenodd" clip-rule="evenodd" d="M18.832 16.8164H13.3096V11.7119H18.832V16.8164ZM14.8115 15.4277H17.3311V13.0986H14.8115V15.4277Z" fill="#000"/>
<path d="M32.4336 16.8154H20.9551V15.4277H32.4336V16.8154Z" fill="#000"/>
<path fill-rule="evenodd" clip-rule="evenodd" d="M41.3408 11.4424V27.8779C41.3801 27.8663 41.4192 27.8525 41.459 27.8418L41.5908 26.7021C41.6118 26.5263 41.7688 26.3838 41.9414 26.3838H43.5684C43.7377 26.3838 43.8957 26.5279 43.915 26.7021L44.0508 27.8418C44.4734 27.9563 44.877 28.1273 45.248 28.3467L46.1299 27.6377C46.2654 27.528 46.4757 27.5402 46.5967 27.666L47.7461 28.8408C47.8671 28.965 47.8819 29.1812 47.7754 29.3184L47.082 30.2197C47.2982 30.6004 47.4646 31.0137 47.5791 31.4492L48.6953 31.584L48.6934 31.583C48.8626 31.604 49.003 31.7632 49 31.9404V33.6025C48.9999 33.7798 48.8612 33.9372 48.6904 33.96L47.5742 34.0957C47.4597 34.5312 47.2952 34.9432 47.0791 35.3223L47.7725 36.2256C47.8786 36.3643 47.8675 36.5787 47.7451 36.7012L46.5947 37.8789C46.4738 38.0028 46.2643 38.014 46.1289 37.9062L45.2461 37.1982C44.8752 37.4175 44.4736 37.5886 44.0479 37.7031L43.915 38.8447C43.8957 39.0172 43.7382 39.159 43.5674 39.1592H41.9414C41.7688 39.1592 41.6102 39.0173 41.5908 38.8447L41.457 37.7031C41.4178 37.6925 41.3797 37.6785 41.3408 37.667V43.2666H36.3359C36.2955 43.3454 36.2564 43.4251 36.2129 43.502L37.1338 44.6982C37.2757 44.8805 37.2579 45.1659 37.0967 45.332L35.5693 46.8975C35.4081 47.0618 35.1308 47.0778 34.9502 46.9346L33.7773 45.9941C33.2822 46.2861 32.7481 46.5147 32.1836 46.668L32.0059 48.1846C31.9783 48.415 31.7708 48.6052 31.542 48.6055H29.3818C29.1528 48.6055 28.9445 48.4168 28.917 48.1846L28.7393 46.6699C28.1748 46.5151 27.641 46.287 27.1475 45.9951L25.9746 46.9395C25.7955 47.0811 25.5167 47.0645 25.3555 46.8984L23.8291 45.3369C23.6683 45.1724 23.6521 44.8875 23.792 44.7021L24.7119 43.5049C24.6679 43.4268 24.6278 43.3465 24.5869 43.2666H7.77832V3.56738H32.7061L41.3408 11.4424ZM27.6816 43.2676C28.4172 43.9454 29.3908 44.3584 30.459 44.3584C31.5274 44.3584 32.5017 43.9456 33.2373 43.2676H27.6816ZM30.459 35.8691C28.1669 35.8692 26.3086 37.7689 26.3086 40.1143C26.3086 41.366 26.8385 42.4901 27.6807 43.2666H33.2383C34.0802 42.4901 34.6094 41.3659 34.6094 40.1143C34.6094 37.7689 32.7511 35.8691 30.459 35.8691ZM10.4023 41.0059H22.1582V39.0127C22.1582 38.7772 22.3455 38.5646 22.5713 38.5371L24.0518 38.3564C24.1293 38.0602 24.2257 37.7722 24.3389 37.4941H20.9551V36.1074H24.2344L23.7891 35.5283C23.6488 35.3445 23.665 35.0607 23.8262 34.8945L25.3535 33.3311C25.5148 33.1665 25.7946 33.1504 25.9736 33.2939L27.1455 34.2363C27.6391 33.9444 28.1737 33.7157 28.7383 33.5625L28.915 32.0469C28.9427 31.8164 29.151 31.6261 29.3799 31.626H31.54C31.7689 31.6261 31.9773 31.8148 32.0049 32.0469L32.1807 33.5635C32.7451 33.7167 33.279 33.9444 33.7725 34.2363L34.9453 33.293C35.1243 33.1495 35.4031 33.1651 35.5645 33.3311L37.0908 34.8926C37.2536 35.0587 37.2697 35.3428 37.1279 35.5283L36.208 36.7256C36.4935 37.232 36.7166 37.7791 36.8682 38.3564L38.3486 38.5371L38.3516 38.5352C38.4192 38.5433 38.4827 38.5685 38.5391 38.6045V37.5L37.7617 36.7061C37.6408 36.5819 37.6277 36.3672 37.7324 36.2285L38.4258 35.3271C38.2112 34.9449 38.0442 34.5329 37.9297 34.1006L36.8145 33.9619C36.6453 33.944 36.505 33.7814 36.5049 33.6074V31.9443C36.5049 31.7686 36.6436 31.6071 36.8145 31.5859L37.9297 31.4502C38.0458 31.0148 38.2097 30.6032 38.4258 30.2227L37.7324 29.3193C37.6262 29.1822 37.6373 28.9679 37.7598 28.8438L38.5391 28.0459V13.4502H30.9688V6.45312H10.4023V41.0059ZM42.7559 29.5781C41.0315 29.5781 39.6309 31.0088 39.6309 32.7734C39.631 34.538 41.0283 35.9688 42.7559 35.9688C44.48 35.9686 45.8788 34.5363 45.8789 32.7734C45.8789 31.0072 44.4801 29.5782 42.7559 29.5781ZM32.8564 11.8018H37.4775L32.8564 7.43359V11.8018Z" fill="#000"/>
</svg>
