<?xml version="1.0" encoding="UTF-8"?><svg id="poll" xmlns="http://www.w3.org/2000/svg" viewBox="0 0 50 50"><path d="M35.66,43.66H14.34c-2.22,0-4.09-.78-5.62-2.35-1.53-1.57-2.32-3.44-2.35-5.62V14.31c0-2.22,.78-4.09,2.35-5.62s3.44-2.32,5.62-2.35h13.29c.75,0,1.38,.27,1.89,.82s.78,1.16,.82,1.84-.24,1.31-.82,1.89c-.58,.58-1.21,.85-1.89,.82H14.34c-.72,0-1.35,.26-1.89,.77-.55,.51-.8,1.12-.77,1.84v21.37c0,.72,.26,1.33,.77,1.84,.51,.51,1.14,.77,1.89,.77h21.32c.72,0,1.33-.26,1.84-.77,.51-.51,.78-1.12,.82-1.84v-8.03c0-.72,.27-1.33,.82-1.84,.55-.51,1.18-.78,1.89-.82,.72-.03,1.33,.24,1.84,.82,.51,.58,.77,1.19,.77,1.84v8.03c0,2.22-.78,4.09-2.35,5.62-1.57,1.53-3.44,2.32-5.62,2.35h0Zm-7.57-11.15c-.99,0-1.82-.34-2.51-1.02l-7.06-7.06c-.68-.75-1.02-1.6-1.02-2.56s.34-1.79,1.02-2.51c.68-.72,1.5-1.06,2.45-1.02,.95,.03,1.79,.37,2.51,1.02l3.83,3.78,9.2-14.52c.48-.85,1.19-1.41,2.15-1.69,.95-.27,1.86-.19,2.71,.26,.85,.44,1.41,1.16,1.69,2.15s.15,1.89-.36,2.71l-11.5,18.61c-.61,1.23-1.65,1.84-3.12,1.84h0Z" fill="#000"/></svg>