<svg width="50" height="50" viewBox="0 0 50 50" fill="none" xmlns="http://www.w3.org/2000/svg">
<path d="M36.0822 43.9999H14.9177C12.7183 43.9999 10.8573 43.2227 9.33465 41.6684C7.81202 40.1141 7.0338 38.2557 7 36.0931V14.9068C7 12.7105 7.77822 10.852 9.33465 9.33146C10.8911 7.81091 12.7521 7.03376 14.9177 7H28.1138C28.8582 7 29.4842 7.27033 29.9917 7.81098C30.4992 8.35163 30.7699 8.95986 30.8038 9.63567C30.8376 10.3115 30.5669 10.9366 29.9917 11.511C29.4164 12.0854 28.7905 12.3557 28.1138 12.322H14.9177C14.2071 12.322 13.5811 12.5754 13.0398 13.0822C12.4984 13.5891 12.2446 14.1973 12.2785 14.9069V36.0932C12.2785 36.8028 12.5322 37.411 13.0398 37.9179C13.5473 38.4248 14.1732 38.6782 14.9177 38.6781H36.0822C36.7928 38.6781 37.4019 38.4247 37.9094 37.9179C38.417 37.4111 38.6877 36.8028 38.7215 36.0932V28.1356C38.7215 27.4261 38.9922 26.8178 39.5336 26.3109C40.075 25.804 40.701 25.5337 41.4115 25.4999C42.1221 25.4662 42.7311 25.7365 43.2387 26.3109C43.7463 26.8853 44.0001 27.4936 44 28.1356V36.0932C44 38.2895 43.2218 40.148 41.6653 41.6685C40.1089 43.1891 38.2479 43.9662 36.0823 44L36.0822 43.9999ZM28.5706 32.9506C27.5894 32.9506 26.7604 32.6127 26.0837 31.9369L19.0796 24.9425C18.4029 24.1991 18.0645 23.3543 18.0645 22.4083C18.0645 21.4622 18.4029 20.6343 19.0796 19.9247C19.7563 19.215 20.5684 18.8771 21.5158 18.911C22.4631 18.9448 23.2921 19.2827 24.0027 19.9247L27.8094 23.6754L36.9451 9.28082C37.4189 8.43609 38.1294 7.87856 39.0769 7.60823C40.0243 7.33791 40.921 7.42237 41.7669 7.86161C42.6127 8.30086 43.171 9.01046 43.4417 9.99043C43.7124 10.9704 43.594 11.8658 43.0865 12.6767L31.6668 31.126C31.0577 32.3425 30.0257 32.9507 28.5707 32.9507L28.5706 32.9506Z" fill="#000"/>
</svg>
