<svg width="50" height="50" viewBox="0 0 50 50" fill="none" xmlns="http://www.w3.org/2000/svg">
<path d="M38.9736 5.00667C40.9605 5.13812 42.4696 6.90169 42.4697 8.93635V10.9237C42.598 18.6872 41.1752 24.8607 38.2393 29.2586C36.7684 31.4157 36.2138 34.0441 36.3838 36.6785C36.4285 36.9799 36.4277 37.2817 36.4277 37.6278V44.1444C36.4276 45.1826 35.6046 45.9998 34.5723 45.9998H8.85547C7.8323 45.9996 7.00011 45.1675 7 44.1444V37.6278C7.00001 32.8658 9.48275 29.8556 12.7021 28.0594C13.1883 27.782 13.7965 27.8204 14.25 28.1424C16.3386 29.6283 19.0363 30.4998 21.6709 30.4998C24.3055 30.4998 26.7641 29.7211 28.79 28.3426C29.2674 28.0025 29.6973 27.6565 30.1299 27.3104C33.4984 24.5057 35.2231 18.8126 35.0918 10.9149V8.67366C35.092 6.60015 36.8613 4.87539 38.9736 5.00667Z" fill="#000"/>
<path d="M15.4277 11.4442C18.9 7.97211 24.5297 7.97203 28.002 11.4442C31.4742 14.9164 31.474 20.5461 28.002 24.0184C24.5296 27.4907 18.9 27.4907 15.4277 24.0184C11.9555 20.5461 11.9555 14.9164 15.4277 11.4442Z" fill="#000"/>
</svg>
