<svg viewBox="0 0 50 50" fill="none" xmlns="http://www.w3.org/2000/svg">
<path d="M28.0019 24.0188C31.4742 20.5464 31.4742 14.9167 28.0019 11.4444C24.5296 7.9721 18.8999 7.9721 15.4276 11.4444C11.9552 14.9167 11.9552 20.5464 15.4276 24.0188C18.8999 27.4911 24.5296 27.4911 28.0019 24.0188Z" fill="#000"/>
<path d="M42.4702 10.9237V8.93656C42.4702 6.90168 40.9604 5.13832 38.9733 5.00703C36.8608 4.87575 35.0915 6.60033 35.0915 8.67399V10.9147C35.2228 18.8126 33.4982 24.5055 30.1296 27.3101C29.697 27.6563 29.2673 28.0024 28.7899 28.3425C26.764 29.721 24.3054 30.4997 21.6708 30.4997C19.0362 30.4997 16.339 29.6285 14.2504 28.1426C13.7969 27.8204 13.1882 27.7816 12.7018 28.059C9.48243 29.8552 7 32.8658 7 37.6278V44.1441C7 45.1675 7.83245 46 8.85586 46H34.5723C35.6047 46 36.4282 45.1825 36.4282 44.1441V37.6278C36.4282 37.2816 36.4282 36.9803 36.3834 36.6789C36.2133 34.0443 36.7683 31.4157 38.2393 29.2585C41.1752 24.8605 42.5985 18.6873 42.4702 10.9237Z" fill="#000"/>
</svg>
