<svg xmlns="http://www.w3.org/2000/svg" viewBox="0 0 50 50"><g id="presence"><path id="path16" fill="#000" d="M26.64,6.46A150.66,150.66,0,0,0,14.7,18.74c-3.46,4.65-4.44,6.87-4.61,10.75-.17,4.1,1,7.64,3.16,9.81a5.55,5.55,0,0,0,4.52,1.88l1.83.08.13.86a3.73,3.73,0,0,0,2.56,2.64,3.46,3.46,0,0,0,4.1-2.64l.12-.9H30c3.16,0,3.54,0,4.52-.51,2-1,3.67-3.11,4.61-6.1a12.08,12.08,0,0,0,.51-4.39c0-3.2-.3-4.44-1.62-6.87l-.81-1.54,5.54-13L41.91,7l-.76-1.83H28.22L26.64,6.46Zm5.08,9.59-1.07,1.07H20.41l1.07-1.07,1-1.06H32.74Zm2,7c2.22.89,3.67,3.84,3.67,7.42A9.28,9.28,0,0,1,35,37.08a2.71,2.71,0,0,1-4.22.13c-2.69-2.43-3.37-7.8-1.5-11.56A5.23,5.23,0,0,1,31.8,23C32.74,22.58,32.74,22.58,33.68,23ZM17.56,6.29c-.34.34-.34,5.29,0,5.67A1,1,0,0,0,19,11.79,11.57,11.57,0,0,0,19.22,9c0-1.84,0-2.39-.34-2.65a.87.87,0,0,0-1.32-.08Zm-7,3.07c-.59.55-.38,1,1.45,2.81,1.54,1.54,1.88,1.75,2.39,1.71s.64-.17.69-.68-.18-.9-1.67-2.39C11.63,9,11.2,8.76,10.6,9.36Zm-3,6.82a1.16,1.16,0,0,0-.34.69c0,.76.47.89,3.11.89s3.07-.13,3.07-1-.38-.94-3-.94c-2,0-2.61,0-2.86.34Z"/></g></svg>