<svg xmlns="http://www.w3.org/2000/svg" viewBox="0 0 50 50"><g id="casier"><path id="path1415" fill="#000" d="M31.74,27.71h8.33a.79.79,0,0,0,0-.24.36.36,0,0,0-.1-.19l-5.58-13.1H15.66l-5.58,13.1a.36.36,0,0,0-.1.19.79.79,0,0,0-.05.24h8.33l2.51,5.06h8.46Zm13.53.75V41.19a1.63,1.63,0,0,1-.47,1.18,1.82,1.82,0,0,1-1.23.52H6.43a1.53,1.53,0,0,1-1.18-.52,1.89,1.89,0,0,1-.52-1.18V28.46a8.38,8.38,0,0,1,.66-3.21l6.29-14.57a2.34,2.34,0,0,1,1-1.14A2.17,2.17,0,0,1,14,9.11H36a2.7,2.7,0,0,1,1.37.43,2.07,2.07,0,0,1,1,1.14l6.29,14.57a8.38,8.38,0,0,1,.66,3.21Z"/></g></svg>