<svg xmlns="http://www.w3.org/2000/svg" viewBox="0 0 50 50"><g id="rbs"><path id="path1595" fill="#000" d="M16.18,3.3c-.79.32-.93.83-.93,4.5,0,3.2.05,3.66.42,4a1.69,1.69,0,0,0,1,.42c1.35-.05,1.58-.75,1.58-4.64,0-3.16,0-3.3-.56-3.86a1.19,1.19,0,0,0-1.53-.41Zm16.25.27c-.56.42-.56.61-.65,3.62-.1,3.44,0,4.09.55,4.65a1.56,1.56,0,0,0,2.05-.05c.32-.37.37-1,.37-4,0-3.85-.1-4.22-1.16-4.5a1.26,1.26,0,0,0-1.16.32ZM8.06,8.31A5.28,5.28,0,0,0,6.34,9.93c-.6,1-.69,1.4-.79,3.44l-.09,2.32H44.54l-.09-2.28c-.1-2.73-.61-3.89-2.09-4.87-.88-.6-1.16-.65-3.81-.7l-2.88-.09V9.61c0,1.67,0,2-.6,2.55a2.14,2.14,0,0,1-2.83.6C31.31,12.21,31,11.51,31,9.52V7.8H19V9.52c0,2-.24,2.69-1.21,3.24a2.15,2.15,0,0,1-2.83-.6c-.51-.6-.6-.88-.6-2.55V7.8h-2.6c-2.32,0-2.79,0-3.67.51ZM5.51,28.73c0,13.32,0,13.46,1.62,14.9a5,5,0,0,0,1.58,1c.84.23,31.79.23,32.63,0a5.48,5.48,0,0,0,1.53-1c1.62-1.44,1.62-1.58,1.62-14.9V17.08h-39V28.73Zm9.7-6.64L15.16,26H6.81l-.1-3.9,0-3.85h8.58Zm9.33-.18v3.66L23.33,25a7.62,7.62,0,0,0-5.89,0,10.17,10.17,0,0,1-1.12.51,21.74,21.74,0,0,1-.14-3.62V18.24h8.36v3.67Zm9.46.18L34,26l-4.13.09-4.13.05V18.24h8.35l0,3.85Zm9.29,0,0,3.9H35.12l-.1-3.9,0-3.85h8.35ZM13.86,28.31a7,7,0,0,0-.32,6c.14.37-.1.42-3.34.42H6.67V27.06h7.89l-.7,1.25Zm10.68,2.55v3.86H16.18V27.06h8.36v3.8Zm9.51,0v3.86H30.43c-3.34,0-3.62,0-3.43-.42a12.94,12.94,0,0,0,.46-1.77,5.91,5.91,0,0,0-.7-4.59l-.6-.88h7.89v3.8Zm9.28,0v3.86H35V27.06h8.35v3.8ZM14.84,36c.37.32.41.78.41,4.08v3.71l-3.11-.09c-2.69,0-3.2-.14-3.75-.56C7,42.1,6.81,41.68,6.71,38.52l-.09-2.88h3.9c3.3,0,3.94,0,4.32.38Zm9.7-.1c0,.65-1.58,1.63-3.07,1.91-1.3.27-1.39.69-.14.55a9.27,9.27,0,0,0,3.07-1.06,16.26,16.26,0,0,1,.14,3.2v3.25H16.18V40.61c0-2.92.05-3.16.42-3,1.72.7,2.37.89,2.74.75s0-.37-1.3-1c-1-.52-1.77-1-1.81-1.3s.28-.38,4.13-.38c3.34,0,4.18,0,4.18.28Zm9.51,3.76v4.09H25.7V40.05c0-2,.09-3.85.14-4,.13-.33.74-.38,4.17-.38h4Zm9.28-1.16c-.09,3.16-.28,3.58-1.71,4.64-.56.47-1,.51-3.58.51H35.12l-.1-4,0-4h8.4l-.05,2.88Z"/></g></svg>