<svg xmlns="http://www.w3.org/2000/svg" viewBox="0 0 50 50"><path fill="#000" d="M31.65,25a6.47,6.47,0,0,0-1.92-4.71,6.3,6.3,0,0,0-4.71-2,6.34,6.34,0,0,0-4.72,2,6.71,6.71,0,0,0-2,4.71,6.2,6.2,0,0,0,2,4.71,6.63,6.63,0,0,0,9.43,0A6,6,0,0,0,31.65,25ZM45,22.15v5.79a1,1,0,0,1-.19.61.7.7,0,0,1-.51.32l-4.86.75a14.93,14.93,0,0,1-1,2.38c.6.84,1.51,2,2.76,3.6a.86.86,0,0,1,.28.6.92.92,0,0,1-.24.61,26.34,26.34,0,0,1-2.56,2.85c-1.25,1.24-2.07,1.85-2.48,1.82a1.17,1.17,0,0,1-.65-.23L32,38.44a13.22,13.22,0,0,1-2.39,1,45.92,45.92,0,0,1-.74,4.86.89.89,0,0,1-.94.75H22.13a1,1,0,0,1-.66-.24.69.69,0,0,1-.28-.56l-.75-4.81a15.37,15.37,0,0,1-2.33-1l-3.69,2.81a1,1,0,0,1-.65.23.86.86,0,0,1-.65-.28,37.19,37.19,0,0,1-4.3-4.39,1,1,0,0,1-.19-.61.88.88,0,0,1,.24-.56c.25-.37.68-1,1.3-1.72s1.09-1.4,1.41-1.87a13.57,13.57,0,0,1-1.08-2.57l-4.76-.7a.69.69,0,0,1-.51-.33,1.31,1.31,0,0,1-.24-.6V22.06a.92.92,0,0,1,.24-.61.86.86,0,0,1,.46-.32l4.86-.75a13.82,13.82,0,0,1,1-2.38c-.72-1-1.65-2.2-2.81-3.6a1,1,0,0,1-.28-.65,1,1,0,0,1,.24-.56,28.48,28.48,0,0,1,2.57-2.8c1.24-1.25,2.06-1.87,2.47-1.87a1.38,1.38,0,0,1,.7.23l3.59,2.81a12,12,0,0,1,2.34-1,36.37,36.37,0,0,1,.79-4.86A.85.85,0,0,1,22.13,5h5.78a.92.92,0,0,1,.61.24.84.84,0,0,1,.33.56l.7,4.81a19.7,19.7,0,0,1,2.38.93l3.69-2.76a.81.81,0,0,1,.6-.23,1.17,1.17,0,0,1,.66.23,37.74,37.74,0,0,1,4.29,4.44.83.83,0,0,1,.19.56,1,1,0,0,1-.19.61c-.28.37-.73,1-1.35,1.72s-1.09,1.4-1.4,1.87a14.72,14.72,0,0,1,1.07,2.52l4.76.75a.84.84,0,0,1,.56.33.72.72,0,0,1,.19.6Z"/></svg>