<svg id="scrapbook" xmlns="http://www.w3.org/2000/svg" viewBox="0 0 50 50"><path id="path1631" fill="#000" d="M6,35.62v-.21a.69.69,0,0,1,.69-.69h3a.69.69,0,0,1,.69.69v.21a.69.69,0,0,1-.69.69H6.69A.69.69,0,0,1,6,35.62Zm.69-6.52h3a.69.69,0,0,0,.69-.69V28.2a.69.69,0,0,0-.69-.69H6.69A.69.69,0,0,0,6,28.2v.21A.69.69,0,0,0,6.69,29.1Zm0-7.17h3a.69.69,0,0,0,.69-.69V21a.69.69,0,0,0-.69-.69H6.69A.69.69,0,0,0,6,21v.21A.69.69,0,0,0,6.69,21.93Zm0-7.28h3a.69.69,0,0,0,.69-.69v-.22a.69.69,0,0,0-.69-.69H6.69a.69.69,0,0,0-.69.69V14A.69.69,0,0,0,6.69,14.65ZM31.23,8.23l9.5-2.65v8.8a4,4,0,0,0-2.18.11c-1.7.58-2.7,2.07-2.33,3.29s2,1.75,3.66,1.16c1.43-.47,2.44-1.37,2.44-2.64V2.3c0-.75-.53-1.17-1.38-.87L30.7,4.19a1.36,1.36,0,0,0-1.06,1.54v4.46h1.59v-2ZM26.15,28.32l9,2.47v6.4c-1.11.42-2.23.92-3.28,1.43-.37.21-.48.42-.26.84a20.48,20.48,0,0,1,1.11,2.87c0,.11,0,.21-.06.21l-.1-.1C31.66,41.64,31,40.8,30,40a2.06,2.06,0,0,0-2.13-.43c-1.53.53-3.12,1-4.66,1.43a5.29,5.29,0,0,1-1.28.26c-.21-.26,0-.42,0-.63C23,36.7,24,32.78,25.08,28.91c.16-.64.43-.75,1.07-.59Zm1.74,5.53a1.32,1.32,0,1,0,1.22-2.34,1.38,1.38,0,0,0-1.91.59,1.33,1.33,0,0,0,.69,1.75Zm-17.56,9v-.21A.69.69,0,0,0,9.64,42H6.69a.69.69,0,0,0-.69.69v.21a.69.69,0,0,0,.69.69h3A.69.69,0,0,0,10.33,42.9Zm34.9-10.85q-5.07-1.33-10.13-2.72v1.46l8.34,2.31c.31,0,.85,0,.69.58-.75,2.76-1.49,5.47-2.29,8.38-.68-1.21-1.27-2.33-2-3.33-1.54-2.45-1.85-2.55-4.61-1.6l-.17.06V45.4a1,1,0,0,1-1,1H32.83c2.63.73,5.27,1.47,7.9,2.18.69.16,1,.11,1.16-.58,1.33-5,2.65-9.92,4-14.85.21-.74,0-.9-.69-1.11ZM20.68,43.13c-.69-.22-.91-.38-.75-1.11,1.38-4.94,2.76-9.87,4.08-14.85.16-.69.48-.75,1.17-.59l9.92,2.75V11.2a1,1,0,0,0-1-1H31.23v8.22a3.42,3.42,0,0,1-2.39,2.65c-1.69.59-3.34.06-3.71-1.16s.69-2.71,2.33-3.29a3.83,3.83,0,0,1,2.18-.11V10.19H9.53a1,1,0,0,0-1,1v1.48H9.75a1.07,1.07,0,0,1,1,.42,1.11,1.11,0,0,1,.11,1.33,1.29,1.29,0,0,1-1.17.63,9,9,0,0,0-1.16,0v4.83H9.75A1.17,1.17,0,0,1,11,21.06a1.22,1.22,0,0,1-1.27,1.22H8.53v4.88h.63c1.28,0,1.86.37,1.86,1.16s-.54,1.22-1.86,1.22H8.53v4.83H9.75A1.19,1.19,0,0,1,11,36a1.22,1.22,0,0,1-1.22.79H8.53v4.77H9.69a1.25,1.25,0,0,1,1.17,1.7A1.29,1.29,0,0,1,9.53,44a5.56,5.56,0,0,1-1,0V45.4a1,1,0,0,0,1.06,1H32.83l-2.13-.58c-3.34-.9-6.69-1.85-10-2.7Z"/></svg>