<svg width="50" height="50" viewBox="0 0 50 50" fill="none" xmlns="http://www.w3.org/2000/svg">
<path d="M5.99992 34.62V34.41C5.99992 34.227 6.07262 34.0515 6.20202 33.9221C6.33142 33.7927 6.50692 33.72 6.68992 33.72H9.68992C9.87292 33.72 10.0484 33.7927 10.1778 33.9221C10.3072 34.0515 10.3799 34.227 10.3799 34.41V34.62C10.3799 34.803 10.3072 34.9785 10.1778 35.1079C10.0484 35.2373 9.87292 35.31 9.68992 35.31H6.68992C6.50692 35.31 6.33142 35.2373 6.20202 35.1079C6.07262 34.9785 5.99992 34.803 5.99992 34.62V34.62ZM6.68992 28.1H9.68992C9.87292 28.1 10.0484 28.0273 10.1778 27.8979C10.3072 27.7685 10.3799 27.593 10.3799 27.41V27.2C10.3799 27.017 10.3072 26.8415 10.1778 26.7121C10.0484 26.5827 9.87292 26.51 9.68992 26.51H6.68992C6.50692 26.51 6.33142 26.5827 6.20202 26.7121C6.07262 26.8415 5.99992 27.017 5.99992 27.2V27.41C5.99992 27.593 6.07262 27.7685 6.20202 27.8979C6.33142 28.0273 6.50692 28.1 6.68992 28.1V28.1ZM6.68992 20.93H9.68992C9.78053 20.93 9.87026 20.9122 9.95397 20.8775C10.0377 20.8428 10.1138 20.792 10.1778 20.7279C10.2419 20.6638 10.2927 20.5878 10.3274 20.5041C10.3621 20.4203 10.3799 20.3306 10.3799 20.24V20C10.3799 19.817 10.3072 19.6415 10.1778 19.5121C10.0484 19.3827 9.87292 19.31 9.68992 19.31H6.68992C6.50692 19.31 6.33142 19.3827 6.20202 19.5121C6.07262 19.6415 5.99992 19.817 5.99992 20V20.21C5.99587 20.3031 6.01072 20.3961 6.04358 20.4833C6.07643 20.5705 6.12661 20.6501 6.1911 20.7174C6.25558 20.7847 6.33302 20.8382 6.41875 20.8748C6.50448 20.9113 6.59673 20.9301 6.68992 20.93ZM6.68992 13.65H9.68992C9.87292 13.65 10.0484 13.5773 10.1778 13.4479C10.3072 13.3185 10.3799 13.143 10.3799 12.96V12.74C10.3799 12.557 10.3072 12.3815 10.1778 12.2521C10.0484 12.1227 9.87292 12.05 9.68992 12.05H6.68992C6.50692 12.05 6.33142 12.1227 6.20202 12.2521C6.07262 12.3815 5.99992 12.557 5.99992 12.74V13C6.01014 13.176 6.08732 13.3414 6.21563 13.4623C6.34394 13.5831 6.51364 13.6503 6.68992 13.65V13.65ZM31.2299 7.23001L40.7299 4.58001V13.38C40.0071 13.2139 39.2523 13.252 38.5499 13.49C36.8499 14.07 35.8499 15.56 36.2199 16.78C36.5899 18 38.2199 18.53 39.8799 17.94C41.3099 17.47 42.3199 16.57 42.3199 15.3V1.30001C42.3199 0.550011 41.7899 0.130011 40.9399 0.430011L30.6999 3.19001C30.3599 3.26255 30.0605 3.46258 29.8633 3.749C29.6662 4.03542 29.5862 4.38647 29.6399 4.73001V9.19001H31.2299V7.19001V7.23001ZM26.1499 27.32L35.1499 29.79V36.19C34.0399 36.61 32.9199 37.11 31.8699 37.62C31.4999 37.83 31.3899 38.04 31.6099 38.46C32.0514 39.3875 32.4224 40.3469 32.7199 41.33C32.7199 41.44 32.7199 41.54 32.6599 41.54L32.5599 41.44C31.6599 40.64 30.9999 39.8 29.9999 39C29.7202 38.737 29.3726 38.5573 28.9962 38.4813C28.6199 38.4053 28.2298 38.4361 27.8699 38.57C26.3399 39.1 24.7499 39.57 23.2099 40C22.7956 40.1392 22.3657 40.2266 21.9299 40.26C21.7199 40 21.9299 39.84 21.9299 39.63C22.9999 35.7 23.9999 31.78 25.0799 27.91C25.2399 27.27 25.5099 27.16 26.1499 27.32ZM27.8899 32.85C28.044 32.936 28.2139 32.9902 28.3893 33.0095C28.5647 33.0287 28.7423 33.0125 28.9114 32.962C29.0804 32.9114 29.2377 32.8274 29.3737 32.715C29.5098 32.6026 29.622 32.4641 29.7036 32.3076C29.7852 32.1511 29.8345 31.9798 29.8488 31.8039C29.863 31.6279 29.8419 31.451 29.7865 31.2834C29.7312 31.1158 29.6428 30.961 29.5266 30.8281C29.4103 30.6953 29.2687 30.5871 29.1099 30.51C28.9468 30.4187 28.7668 30.3615 28.5809 30.3418C28.395 30.3221 28.2071 30.3404 28.0285 30.3956C27.8498 30.4508 27.6843 30.5417 27.5419 30.6627C27.3994 30.7838 27.2831 30.9326 27.1999 31.1C27.1303 31.2602 27.0929 31.4326 27.0899 31.6072C27.0869 31.7819 27.1184 31.9554 27.1824 32.1179C27.2465 32.2804 27.342 32.4287 27.4634 32.5543C27.5847 32.68 27.7297 32.7804 27.8899 32.85ZM10.3299 41.85V41.64C10.3173 41.4658 10.239 41.3029 10.111 41.1841C9.98291 41.0653 9.81458 40.9996 9.63992 41H6.68992C6.50692 41 6.33142 41.0727 6.20202 41.2021C6.07262 41.3315 5.99992 41.507 5.99992 41.69V41.9C5.99992 42.083 6.07262 42.2585 6.20202 42.3879C6.33142 42.5173 6.50692 42.59 6.68992 42.59H9.68992C9.86412 42.5774 10.027 42.4991 10.1458 42.3711C10.2646 42.243 10.3304 42.0747 10.3299 41.9V41.85ZM45.2299 31C41.8499 30.1133 38.4733 29.2067 35.0999 28.28V29.74L43.4399 32.05C43.7499 32.05 44.2899 32.05 44.1299 32.63C43.3799 35.39 42.6399 38.1 41.8399 41.01C41.1599 39.8 40.5699 38.68 39.8399 37.68C38.2999 35.23 37.9899 35.13 35.2299 36.08L35.0599 36.14V44.4C35.0599 44.6652 34.9546 44.9196 34.767 45.1071C34.5795 45.2947 34.3251 45.4 34.0599 45.4H32.8299C35.4599 46.13 38.0999 46.87 40.7299 47.58C41.4199 47.74 41.7299 47.69 41.8899 47C43.2199 42 44.5399 37.08 45.8899 32.15C46.0999 31.41 45.8899 31.25 45.1999 31.04L45.2299 31ZM20.6799 42.13C19.9899 41.91 19.7699 41.75 19.9299 41.02C21.3099 36.08 22.6899 31.15 24.0099 26.17C24.1699 25.48 24.4899 25.42 25.1799 25.58L35.0999 28.33V10.2C35.0999 9.93479 34.9946 9.68044 34.807 9.4929C34.6195 9.30537 34.3651 9.20001 34.0999 9.20001H31.2299V17.42C31.1141 18.0389 30.8297 18.6139 30.408 19.0814C29.9862 19.549 29.4436 19.8911 28.8399 20.07C27.1499 20.66 25.4999 20.13 25.1299 18.91C24.7599 17.69 25.8199 16.2 27.4599 15.62C28.1605 15.3727 28.918 15.3344 29.6399 15.51V9.19001H9.52992C9.2647 9.19001 9.01035 9.29537 8.82281 9.4829C8.63528 9.67044 8.52992 9.92479 8.52992 10.19V11.67H9.74992C9.93891 11.6446 10.1313 11.6701 10.3071 11.7439C10.4829 11.8178 10.6358 11.9372 10.7499 12.09C10.91 12.2698 11.0073 12.4967 11.0271 12.7366C11.047 12.9765 10.9883 13.2164 10.8599 13.42C10.7404 13.6213 10.5684 13.7863 10.3623 13.8973C10.1562 14.0082 9.92375 14.061 9.68992 14.05C9.30366 14.0251 8.91618 14.0251 8.52992 14.05V18.88H9.74992C9.91101 18.869 10.0726 18.8914 10.2246 18.9458C10.3766 19.0003 10.5157 19.0856 10.6331 19.1965C10.7506 19.3073 10.8438 19.4413 10.9069 19.5899C10.97 19.7385 11.0017 19.8986 10.9999 20.06C11.0001 20.2245 10.9669 20.3874 10.9025 20.5387C10.8381 20.6901 10.7437 20.8269 10.6251 20.9409C10.5065 21.0548 10.366 21.1436 10.2122 21.2019C10.0583 21.2602 9.89429 21.2868 9.72992 21.28H8.52992V26.16H9.15992C10.4399 26.16 11.0199 26.53 11.0199 27.32C11.0199 28.11 10.4799 28.54 9.15992 28.54H8.52992V33.37H9.74992C9.95601 33.3442 10.1653 33.3727 10.3569 33.4528C10.5485 33.5329 10.7159 33.6618 10.8423 33.8266C10.9687 33.9914 11.0497 34.1865 11.0774 34.3923C11.105 34.5982 11.0783 34.8077 10.9999 35C10.9082 35.2451 10.7401 35.4543 10.5204 35.5965C10.3007 35.7388 10.0411 35.8066 9.77992 35.79H8.52992V40.56H9.68992C9.89322 40.5594 10.0936 40.6084 10.2737 40.7027C10.4538 40.797 10.6082 40.9339 10.7234 41.1013C10.8387 41.2688 10.9114 41.4619 10.9351 41.6638C10.9589 41.8657 10.9331 42.0703 10.8599 42.26C10.7453 42.5085 10.5548 42.714 10.3157 42.8471C10.0766 42.9801 9.80143 43.0336 9.52992 43C9.19726 43.03 8.86258 43.03 8.52992 43V44.4C8.52967 44.5365 8.55739 44.6717 8.61135 44.7971C8.66532 44.9225 8.74439 45.0355 8.8437 45.1292C8.94301 45.2229 9.06045 45.2953 9.18879 45.3418C9.31712 45.3884 9.45364 45.4082 9.58992 45.4H32.8299L30.6999 44.82C27.3599 43.92 24.0099 42.97 20.6999 42.12L20.6799 42.13Z" fill="#000"/>
</svg>
