<svg width="50" height="50" viewBox="0 0 50 50" fill="none" xmlns="http://www.w3.org/2000/svg">
<path d="M25 6L1 15.8935L5.00033 17.5425V35.7879H7.0005V18.3671L25 25.7879L49 15.8935L25 6ZM13 22.8328V31.6213C13 31.6213 17.2927 35.7879 25 35.7879C28.9604 35.7879 31.5249 34.7904 33.5629 33.7209C33.5354 33.5759 33.357 33.4222 33.2439 33.3093L32.5551 32.6213C32.1792 32.2458 32.4243 31.5158 32.691 31.2494L34.259 29.6748C34.5257 29.4084 35.3592 29.3022 35.6258 29.5686L36.3147 30.2566C36.5422 30.4632 36.7053 30.7325 36.9999 30.6162V22.8329L24.9999 28.1494L13 22.8328ZM49 38.0759V36.167C49 35.7896 48.6889 35.4789 48.3111 35.4789H47.3333C46.9999 35.4789 46.6888 35.2569 46.5999 34.9462C46.511 34.6577 46.3777 34.3691 46.2444 34.0805C46.0888 33.7698 46.1554 33.4146 46.3777 33.1705L47.0666 32.4824C47.3333 32.216 47.3333 31.7943 47.0666 31.5279L45.711 30.1739C45.4443 29.9076 45.0221 29.9076 44.7554 30.1739L44.0665 30.862C43.822 31.1062 43.4664 31.1505 43.1553 30.9952C42.8886 30.862 42.5997 30.7288 42.2886 30.6401C41.9775 30.5291 41.7553 30.2405 41.7553 29.9076V28.931C41.7553 28.5536 41.4442 28.2429 41.0664 28.2429H39.1552C38.7774 28.2429 38.4663 28.5536 38.4663 28.931V29.9076C38.4663 30.2405 38.244 30.5512 37.9329 30.6401C37.6441 30.7289 37.3551 30.8621 37.0662 30.9952C36.7551 31.1505 36.3995 31.084 36.1551 30.862L35.4662 30.1739C35.1995 29.9076 34.7773 29.9076 34.5106 30.1739L33.155 31.5279C32.8883 31.7943 32.8883 32.216 33.155 32.4824L33.8439 33.1705C34.0883 33.4146 34.1328 33.7698 33.9772 34.0805C33.8439 34.3469 33.7105 34.6355 33.6217 34.9462C33.5106 35.2569 33.2216 35.4789 32.8883 35.4789H31.9105C31.5327 35.4789 31.2216 35.7896 31.2216 36.167V38.0759C31.2216 38.4533 31.5327 38.764 31.9105 38.764H32.8883C33.2216 38.764 33.5327 38.986 33.6217 39.2967C33.7106 39.5852 33.8439 39.8738 33.9772 40.1624C34.1328 40.4731 34.0661 40.8282 33.8439 41.0724L33.155 41.7605C32.8883 42.0269 32.8883 42.4486 33.155 42.715L34.5106 44.069C34.7772 44.3353 35.1995 44.3353 35.4662 44.069L36.1551 43.3809C36.3995 43.1367 36.7551 43.0923 37.0662 43.2477C37.3329 43.3809 37.6218 43.5141 37.9329 43.6028C38.244 43.7138 38.4663 44.0024 38.4663 44.3353V45.3119C38.4663 45.6893 38.7774 46 39.1552 46H41.0664C41.4442 46 41.7553 45.6893 41.7553 45.3119V44.3353C41.7553 44.0024 41.9775 43.6916 42.2886 43.6028C42.5775 43.514 42.8664 43.3808 43.1553 43.2477C43.4664 43.0923 43.822 43.1589 44.0665 43.3809L44.7554 44.069C45.0221 44.3353 45.4443 44.3353 45.711 44.069L47.0666 42.715C47.3333 42.4486 47.3333 42.0269 47.0666 41.7605L46.3777 41.0724C46.1332 40.8282 46.0888 40.4731 46.2444 40.1624C46.3777 39.896 46.511 39.6074 46.5999 39.2967C46.711 38.986 46.9999 38.764 47.3333 38.764H48.3111C48.6889 38.764 49 38.4533 49 38.0759ZM40.1106 40.6729C38.155 40.6729 36.5549 39.0747 36.5549 37.1214C36.5549 35.1681 38.155 33.57 40.1106 33.57C42.0663 33.57 43.6663 35.1681 43.6663 37.1214C43.6663 39.0747 42.0663 40.6729 40.1106 40.6729Z" fill="#000"/>
</svg>
