<svg xmlns="http://www.w3.org/2000/svg" viewBox="0 0 50 50"><g id="ShareBigFile"><path id="path893" fill="#000" d="M43.65,23.85,34.93,9.18a1.63,1.63,0,0,0-2.16-.54L18.16,17.36a1.61,1.61,0,0,0-.7.92,1.47,1.47,0,0,0,.16,1.19l8.66,14.66a1.6,1.6,0,0,0,1.35.76,2,2,0,0,0,.81-.22L43.05,26a1.54,1.54,0,0,0,.6-2.11Zm-3.52.22L28.22,31.15l-7.08-11.9L33,12.16ZM47,27a1.57,1.57,0,0,0-2.16-.54L29.09,35.86a5.13,5.13,0,0,0-3.68-.59L11.5,11.78a1.36,1.36,0,0,0-1-.7L3.06,9.62a1.58,1.58,0,0,0-1.84,1.24A1.6,1.6,0,0,0,2.47,12.7L9.18,14,22.7,36.78a5.08,5.08,0,1,0,8.45,1.52l15.31-9.09A1.58,1.58,0,0,0,47,27Z"/></g></svg>