<svg width="50" height="50" viewBox="0 0 50 50" fill="none" xmlns="http://www.w3.org/2000/svg">
<path d="M43.6501 23.85L34.9301 9.17998C34.7057 8.83286 34.3577 8.58399 33.9567 8.48373C33.5557 8.38347 33.1315 8.43933 32.7701 8.63998L18.1601 17.36C17.8209 17.5694 17.5715 17.8972 17.4601 18.28C17.4015 18.4784 17.3855 18.687 17.4131 18.8921C17.4406 19.0971 17.5112 19.2941 17.6201 19.47L26.2801 34.13C26.4224 34.3606 26.6209 34.5513 26.857 34.6843C27.0931 34.8172 27.3591 34.888 27.6301 34.89C27.9126 34.8748 28.1887 34.7998 28.4401 34.67L43.0501 26C43.2291 25.9019 43.3869 25.7693 43.5142 25.6097C43.6415 25.4501 43.7358 25.2669 43.7916 25.0705C43.8474 24.8742 43.8637 24.6687 43.8394 24.466C43.8151 24.2634 43.7508 24.0676 43.6501 23.89V23.85ZM40.1301 24.07L28.2201 31.15L21.1401 19.25L33.0001 12.16L40.1301 24.07ZM47.0001 27C46.8942 26.8223 46.7541 26.6672 46.588 26.5438C46.422 26.4204 46.2331 26.3311 46.0324 26.2809C45.8317 26.2307 45.623 26.2207 45.4184 26.2514C45.2138 26.2822 45.0172 26.353 44.8401 26.46L29.0901 35.86C27.9808 35.2089 26.6674 34.9983 25.4101 35.27L11.5001 11.78C11.3995 11.5935 11.2567 11.433 11.0831 11.3115C10.9094 11.19 10.7098 11.1107 10.5001 11.08L3.06011 9.61998C2.65201 9.54343 2.23016 9.6306 1.88583 9.86266C1.5415 10.0947 1.30235 10.453 1.22011 10.86C1.14913 11.2689 1.23982 11.6894 1.47306 12.0327C1.70629 12.3761 2.0638 12.6153 2.47011 12.7L9.18011 14L22.7001 36.78C22.0856 37.4501 21.6622 38.2728 21.4741 39.1624C21.286 40.0519 21.3401 40.9756 21.6307 41.8371C21.9213 42.6986 22.4378 43.4663 23.1263 44.0601C23.8148 44.654 24.65 45.0521 25.5449 45.2131C26.4397 45.3741 27.3613 45.2919 28.2136 44.9753C29.0659 44.6586 29.8175 44.119 30.3901 43.4128C30.9628 42.7065 31.3353 41.8596 31.469 40.9603C31.6027 40.0609 31.4926 39.1422 31.1501 38.3L46.4601 29.21C46.6436 29.1031 46.8037 28.9603 46.9308 28.7902C47.0578 28.62 47.1493 28.426 47.1997 28.2197C47.2501 28.0134 47.2584 27.7991 47.2241 27.5895C47.1898 27.38 47.1136 27.1794 47.0001 27V27Z" fill="#000"/>
</svg>
