<svg width="50" height="50" viewBox="0 0 50 50" fill="none" xmlns="http://www.w3.org/2000/svg">
<path d="M45.8605 13.7928C45.8605 13.7218 45.8484 13.647 45.8324 13.576C45.8284 13.5603 45.8284 13.5406 45.8203 13.5248C45.7962 13.446 45.7682 13.3712 45.728 13.2963C45.728 13.2924 45.72 13.2845 45.716 13.2805C45.708 13.2648 45.6919 13.249 45.6839 13.2333C45.6437 13.1742 45.5996 13.119 45.5514 13.0678C45.5354 13.0481 45.5153 13.0323 45.4952 13.0165C45.4391 12.9653 45.3748 12.922 45.3106 12.8826C45.3026 12.8786 45.2946 12.8668 45.2825 12.8629L25.3637 2.13396C25.3637 2.13396 25.3356 2.12608 25.3236 2.1182C25.2674 2.09062 25.2072 2.06698 25.147 2.05122C25.1229 2.04334 25.1028 2.03546 25.0787 2.03152C24.9985 2.01182 24.9142 2 24.8259 2C24.8259 2 24.8179 2 24.8138 2C24.7296 2 24.6493 2.01182 24.569 2.03152C24.5449 2.03546 24.5249 2.04728 24.5008 2.05122C24.4406 2.07092 24.3804 2.09062 24.3242 2.12214C24.3122 2.13002 24.2961 2.13002 24.2841 2.1379L4.56991 12.8668C4.56991 12.8668 4.54985 12.8826 4.5378 12.8905C4.4776 12.9259 4.4174 12.9693 4.36523 13.0165C4.34516 13.0323 4.3291 13.052 4.30904 13.0678C4.26088 13.119 4.21673 13.1702 4.18061 13.2333C4.16857 13.249 4.15653 13.2648 4.1485 13.2805C4.1485 13.2845 4.14047 13.2884 4.13646 13.2963C4.09632 13.3712 4.06422 13.446 4.04415 13.5209C4.04013 13.5366 4.03612 13.5563 4.03211 13.5721C4.01605 13.643 4.00401 13.7139 4.00401 13.7849C4.00401 13.7967 4 13.8085 4 13.8203V35.0812C4 35.0812 4.00401 35.1048 4.00401 35.1166C4.00401 35.1876 4.01605 35.2624 4.03211 35.3333C4.03211 35.3491 4.03612 35.3649 4.04013 35.3806C4.06422 35.4555 4.09231 35.5303 4.13244 35.6052C4.13244 35.6091 4.14047 35.617 4.14449 35.621C4.15653 35.6407 4.16857 35.6525 4.18061 35.6722C4.22074 35.7313 4.26088 35.7825 4.30904 35.8337C4.32509 35.8534 4.34516 35.8692 4.36523 35.885C4.42141 35.9362 4.4776 35.9795 4.54182 36.015C4.55386 36.0229 4.56189 36.0307 4.56991 36.0347L24.3884 46.8621C24.3884 46.8621 24.4165 46.87 24.4285 46.8779C24.4847 46.9054 24.5449 46.9291 24.6092 46.9488C24.6332 46.9567 24.6533 46.9645 24.6734 46.9685C24.7577 46.9882 24.8419 47 24.9302 47H24.9342C25.0185 47 25.1028 46.9882 25.1831 46.9685C25.2031 46.9645 25.2232 46.9567 25.2473 46.9488C25.3075 46.9291 25.3677 46.9094 25.4239 46.8818C25.4359 46.8779 25.448 46.8739 25.46 46.866L45.0738 36.3853C45.0738 36.3853 45.0778 36.3814 45.0819 36.3775C45.134 36.3499 45.1782 36.3105 45.2223 36.275C45.2544 36.2514 45.2865 36.2317 45.3146 36.2041C45.3427 36.1765 45.3668 36.1411 45.3909 36.1095C45.427 36.0662 45.4671 36.0229 45.4952 35.9756C45.4952 35.9716 45.5033 35.9677 45.5033 35.9638C45.5434 35.8928 45.5755 35.814 45.5996 35.7392C45.6036 35.7234 45.6076 35.7037 45.6116 35.6879C45.6277 35.617 45.6397 35.5461 45.6437 35.4752C45.6437 35.4634 45.6477 35.4515 45.6477 35.4358L45.8484 13.8282C45.8484 13.8282 45.8444 13.8046 45.8444 13.7888L45.8605 13.7928ZM42.433 13.8203L35.1325 17.7368L25.9456 12.5989V4.94326L42.433 13.8243V13.8203ZM23.7182 4.9472V13.0362L14.3869 17.595L7.41546 13.8203L23.7182 4.9472ZM6.22747 15.6722L13.1427 19.4192L13.6845 29.234L6.22346 33.2372V15.6722H6.22747ZM7.41947 35.089L14.3066 31.3932L23.7744 36.208L23.8105 44.0449L7.41947 35.089ZM26.0379 44.0725L26.0018 36.3617L32.6642 30.093L42.2564 35.4082L26.042 44.0725H26.0379ZM43.4524 33.5642L33.8522 28.2451L36.5372 19.4705L43.6169 15.6722L43.4484 33.5642H43.4524Z" fill="#000"/>
</svg>
