<svg xmlns="http://www.w3.org/2000/svg" viewBox="0 0 50 50"><g id="competence"><rect fill="#000" x="4.85" y="40.09" width="40.3" height="4.03" rx="0.54"/><rect fill="#000" x="4.85" y="34.72" width="6.45" height="4.03" rx="0.54"/><rect fill="#000" x="13.31" y="31.36" width="6.45" height="7.39" rx="0.54"/><rect fill="#000" x="21.78" y="29.34" width="6.45" height="9.4" rx="0.54"/><rect fill="#000" x="30.24" y="24.64" width="6.45" height="14.1" rx="0.54"/><rect fill="#000" x="38.7" y="18.6" width="6.45" height="20.15" rx="0.54"/><path fill="#000" d="M5.5,31a47.4,47.4,0,0,0,23.26-6.24c10.54-6.22,13.3-9.66,13.76-10.29l2.09,1.08c.26.14.47,0,.47-.29l0-11c0-.3-.2-.4-.44-.23l-9,6.35a.29.29,0,0,0,0,.55L38,12.07c-.34.7-2.2,3.47-12.08,10C14.28,29.68,5.48,30.73,5.48,30.73c-.73.13-.72.22,0,.22Z"/></g></svg>