<svg width="50" height="50" viewBox="0 0 50 50" fill="none" xmlns="http://www.w3.org/2000/svg">
<path d="M28.33 37.5V32.5C28.3357 32.3882 28.3179 32.2764 28.2777 32.1719C28.2376 32.0674 28.1759 31.9725 28.0967 31.8933C28.0175 31.8141 27.9226 31.7524 27.8181 31.7123C27.7136 31.6721 27.6018 31.6543 27.49 31.66H22.49C22.3781 31.6558 22.2665 31.6739 22.1617 31.7134C22.057 31.7529 21.9612 31.813 21.88 31.89C21.8015 31.9702 21.7405 32.0659 21.7009 32.1709C21.6613 32.2759 21.644 32.388 21.65 32.5V37.5C21.644 37.6121 21.6613 37.7242 21.7009 37.8292C21.7405 37.9342 21.8015 38.0298 21.88 38.11C21.9612 38.1871 22.057 38.2471 22.1617 38.2866C22.2665 38.3261 22.3781 38.3443 22.49 38.34H27.49C27.6018 38.3458 27.7136 38.328 27.8181 38.2878C27.9226 38.2476 28.0175 38.1859 28.0967 38.1068C28.1759 38.0276 28.2376 37.9327 28.2777 37.8282C28.3179 37.7236 28.3357 37.6119 28.33 37.5ZM35 20C34.9965 18.4626 34.4869 16.969 33.55 15.75C32.6074 14.4802 31.377 13.4521 29.96 12.75C28.587 12.0527 27.0699 11.6862 25.53 11.68C23.5636 11.6186 21.6188 12.105 19.9129 13.0851C18.207 14.0652 16.8073 15.5003 15.87 17.23C15.8012 17.3131 15.7512 17.41 15.7234 17.5142C15.6955 17.6183 15.6904 17.7273 15.7084 17.8336C15.7264 17.9399 15.7672 18.041 15.8278 18.1301C15.8885 18.2193 15.9677 18.2943 16.06 18.35L19.51 20.91C19.5701 20.9735 19.6432 21.0234 19.7243 21.0562C19.8054 21.089 19.8926 21.1039 19.98 21.1C20.1074 21.1048 20.234 21.0771 20.3478 21.0193C20.4615 20.9616 20.5586 20.8758 20.63 20.77C21.273 19.8882 22.0258 19.0918 22.87 18.4C23.5242 17.9407 24.3112 17.7088 25.11 17.74C25.9116 17.7325 26.6953 17.9774 27.35 18.44C27.6275 18.5982 27.8632 18.8206 28.0371 19.0885C28.2111 19.3564 28.3184 19.6621 28.35 19.98C28.3785 20.556 28.1933 21.1222 27.83 21.57C27.3101 22.0786 26.6856 22.4676 26 22.71C24.8476 23.2499 23.8245 24.0308 23 25C22.5698 25.4287 22.229 25.9384 21.9973 26.4997C21.7655 27.0611 21.6475 27.6628 21.65 28.27V29.2C21.644 29.3121 21.6613 29.4242 21.7009 29.5292C21.7405 29.6342 21.8015 29.7298 21.88 29.81C21.9612 29.8871 22.057 29.9471 22.1617 29.9866C22.2665 30.0261 22.3781 30.0443 22.49 30.04H27.49C27.6018 30.0458 27.7136 30.028 27.8181 29.9878C27.9226 29.9476 28.0175 29.8859 28.0967 29.8068C28.1759 29.7276 28.2376 29.6327 28.2777 29.5282C28.3179 29.4236 28.3357 29.3119 28.33 29.2C28.3905 28.7346 28.5851 28.2968 28.89 27.94C29.2601 27.4131 29.7371 26.9701 30.29 26.64C30.85 26.33 31.29 26.08 31.59 25.89C32.0034 25.6255 32.3947 25.3279 32.76 25C33.1959 24.6282 33.5853 24.2051 33.92 23.74C34.2582 23.26 34.5119 22.7256 34.67 22.16C34.8753 21.4578 34.9862 20.7315 35 20ZM45 25C45.0241 28.5113 44.1055 31.9648 42.34 35C40.5804 38.0411 38.0482 40.5629 35 42.31C31.9696 44.0906 28.5147 45.02 25 45C21.4622 45.0173 17.9846 44.0848 14.93 42.3C11.9034 40.5697 9.40688 38.0455 7.70997 35C6.00042 31.9393 5.06976 28.5051 4.99997 25C4.8875 21.4712 5.83113 17.9892 7.70997 15C9.5202 12.0435 11.996 9.5506 14.94 7.72003C17.97 5.8835 21.4573 4.9406 25 5.00003C28.5219 4.93336 31.9902 5.86979 35 7.70003C37.958 9.55184 40.4601 12.0471 42.32 15C44.2617 17.9601 45.2012 21.4656 45 25Z" fill="#000"/>
</svg>
