<svg xmlns="http://www.w3.org/2000/svg" viewBox="0 0 50 50"><g id="Support"><path id="path1379" fill="#000" d="M28.33,37.5v-5a.8.8,0,0,0-.84-.84h-5a.84.84,0,0,0-.61.23.81.81,0,0,0-.23.61v5a.81.81,0,0,0,.23.61.84.84,0,0,0,.61.23h5a.8.8,0,0,0,.84-.84ZM35,20a7,7,0,0,0-1.45-4.25,10,10,0,0,0-3.59-3,9.87,9.87,0,0,0-4.43-1.07,10.61,10.61,0,0,0-9.66,5.55.75.75,0,0,0,.19,1.12l3.45,2.56a.61.61,0,0,0,.47.19.75.75,0,0,0,.65-.33,12.86,12.86,0,0,1,2.24-2.37,3.65,3.65,0,0,1,2.24-.66,3.82,3.82,0,0,1,2.24.7,2,2,0,0,1,1,1.54,2.34,2.34,0,0,1-.52,1.59A5,5,0,0,1,26,22.71,8.89,8.89,0,0,0,23,25a4.59,4.59,0,0,0-1.35,3.27v.93a.81.81,0,0,0,.23.61.84.84,0,0,0,.61.23h5a.8.8,0,0,0,.84-.84,2.42,2.42,0,0,1,.56-1.26,4.58,4.58,0,0,1,1.4-1.3c.56-.31,1-.56,1.3-.75A9.06,9.06,0,0,0,32.76,25a7.13,7.13,0,0,0,1.16-1.26,5.15,5.15,0,0,0,.75-1.58A8.25,8.25,0,0,0,35,20Zm10,5a19.62,19.62,0,0,1-2.66,10A19.93,19.93,0,0,1,35,42.31,19.52,19.52,0,0,1,25,45a19.77,19.77,0,0,1-10.07-2.7A19.14,19.14,0,0,1,7.71,35,21.38,21.38,0,0,1,5,25,17.73,17.73,0,0,1,7.71,15a22.26,22.26,0,0,1,7.23-7.28A18.8,18.8,0,0,1,25,5a18.57,18.57,0,0,1,10,2.7A23.2,23.2,0,0,1,42.32,15,16.52,16.52,0,0,1,45,25Z"/></g></svg>