<svg xmlns="http://www.w3.org/2000/svg" viewBox="0 0 50 50"><g id="TimelineGenerator"><path id="path1307" fill="#000" d="M34.52,36a5.71,5.71,0,1,1,0,11.42,5.22,5.22,0,0,1-5.24-3.52h-7.8c-2.8,0-4.87-.86-6.24-2.57a8.86,8.86,0,0,1-2.05-5.62V13.58A5.44,5.44,0,0,1,9.77,8.34a5.51,5.51,0,0,1,1.66-4,5.51,5.51,0,0,1,4.05-1.66,5.67,5.67,0,0,1,5.71,5.71,5.44,5.44,0,0,1-3.43,5.24V19q0,3.72,3.72,3.72h7.8a5.22,5.22,0,0,1,5.24-3.43A5.67,5.67,0,0,1,40.23,25a5.67,5.67,0,0,1-5.71,5.71,5.22,5.22,0,0,1-5.24-3.52h-7.8a9,9,0,0,1-3.72-.76v9.23q0,3.72,3.72,3.72h7.8A5.22,5.22,0,0,1,34.52,36Zm0-14.28a3.27,3.27,0,0,0-2.33.95,3.13,3.13,0,0,0-1,2.38,3,3,0,0,0,1,2.28,3.31,3.31,0,0,0,4.66,0,3,3,0,0,0,1-2.28,3.13,3.13,0,0,0-1-2.38A3.27,3.27,0,0,0,34.52,21.67ZM12.15,8.34a3,3,0,0,0,1,2.28,3.31,3.31,0,0,0,4.66,0,3,3,0,0,0,1-2.28,3.13,3.13,0,0,0-1-2.38,3.33,3.33,0,0,0-4.66,0A3.13,3.13,0,0,0,12.15,8.34ZM34.52,44.9A3.27,3.27,0,0,0,36.85,44a3,3,0,0,0,1-2.29,3.15,3.15,0,0,0-1-2.38,3.33,3.33,0,0,0-4.66,0,3.15,3.15,0,0,0-1,2.38,3,3,0,0,0,1,2.29A3.27,3.27,0,0,0,34.52,44.9Z"/></g></svg>