<svg width="50" height="50" viewBox="0 0 50 50" fill="none" xmlns="http://www.w3.org/2000/svg">
<path d="M34.5201 35C36.0345 35 37.4868 35.6016 38.5577 36.6724C39.6285 37.7433 40.2301 39.1956 40.2301 40.71C40.2301 42.2244 39.6285 43.6767 38.5577 44.7476C37.4868 45.8184 36.0345 46.42 34.5201 46.42C33.3821 46.4859 32.2539 46.1774 31.3077 45.5418C30.3615 44.9062 29.6494 43.9784 29.2801 42.9H21.4801C18.6801 42.9 16.6101 42.04 15.2401 40.33C13.9259 38.751 13.2012 36.7643 13.1901 34.71V12.58C12.15 12.1648 11.2634 11.4388 10.6513 10.5009C10.0392 9.56311 9.73145 8.45923 9.77008 7.34C9.76226 6.59571 9.90532 5.85755 10.1906 5.17007C10.4759 4.48259 10.8976 3.86004 11.4301 3.34C11.9559 2.80131 12.5866 2.3761 13.2832 2.0906C13.9797 1.80509 14.7274 1.66535 15.4801 1.68C16.2314 1.67468 16.9763 1.81874 17.6715 2.10381C18.3667 2.38888 18.9982 2.80928 19.5295 3.34056C20.0608 3.87185 20.4812 4.50343 20.7663 5.1986C21.0513 5.89377 21.1954 6.63867 21.1901 7.39C21.2279 8.5104 20.9187 9.61513 20.3048 10.5531C19.6908 11.4911 18.802 12.2164 17.7601 12.63V18C17.7601 20.48 19.0001 21.72 21.4801 21.72H29.2801C29.665 20.6584 30.3838 19.7503 31.3286 19.1319C32.2733 18.5134 33.3932 18.218 34.5201 18.29C35.2714 18.2847 36.0163 18.4287 36.7115 18.7138C37.4067 18.9989 38.0382 19.4193 38.5695 19.9506C39.1008 20.4818 39.5212 21.1134 39.8063 21.8086C40.0913 22.5038 40.2354 23.2487 40.2301 24C40.2354 24.7513 40.0913 25.4962 39.8063 26.1914C39.5212 26.8866 39.1008 27.5182 38.5695 28.0494C38.0382 28.5807 37.4067 29.0011 36.7115 29.2862C36.0163 29.5713 35.2714 29.7153 34.5201 29.71C33.3821 29.7759 32.2539 29.4674 31.3077 28.8318C30.3615 28.1962 29.6494 27.2684 29.2801 26.19H21.4801C20.2001 26.2041 18.9319 25.945 17.7601 25.43V34.66C17.7601 37.14 19.0001 38.38 21.4801 38.38H29.2801C29.6735 37.3278 30.3959 36.4305 31.3399 35.8216C32.284 35.2127 33.3992 34.9245 34.5201 35ZM34.5201 20.72C34.0882 20.7166 33.66 20.7989 33.26 20.9619C32.8601 21.125 32.4965 21.3656 32.1901 21.67C31.8637 21.9728 31.6057 22.3417 31.4333 22.7521C31.2608 23.1625 31.1779 23.605 31.1901 24.05C31.1838 24.4795 31.2699 24.9053 31.4424 25.2986C31.6149 25.692 31.8699 26.0437 32.1901 26.33C32.81 26.9443 33.6474 27.289 34.5201 27.289C35.3928 27.289 36.2302 26.9443 36.8501 26.33C37.1703 26.0437 37.4252 25.692 37.5978 25.2986C37.7703 24.9053 37.8563 24.4795 37.8501 24.05C37.8622 23.605 37.7793 23.1625 37.6069 22.7521C37.4344 22.3417 37.1764 21.9728 36.8501 21.67C36.5478 21.3566 36.1861 21.1067 35.786 20.935C35.3858 20.7633 34.9555 20.6732 34.5201 20.67V20.72ZM12.1501 7.34C12.1438 7.76947 12.2299 8.19528 12.4024 8.58863C12.5749 8.98198 12.8299 9.3337 13.1501 9.62C13.77 10.2343 14.6074 10.579 15.4801 10.579C16.3528 10.579 17.1902 10.2343 17.8101 9.62C18.1303 9.3337 18.3852 8.98198 18.5578 8.58863C18.7303 8.19528 18.8163 7.76947 18.8101 7.34C18.8222 6.89499 18.7393 6.45251 18.5669 6.0421C18.3944 5.63169 18.1364 5.26278 17.8101 4.96C17.1877 4.35045 16.3512 4.00907 15.4801 4.00907C14.6089 4.00907 13.7725 4.35045 13.1501 4.96C12.8237 5.26278 12.5657 5.63169 12.3933 6.0421C12.2208 6.45251 12.1379 6.89499 12.1501 7.34V7.34ZM34.5201 43.9C35.3852 43.9201 36.2231 43.5965 36.8501 43C37.1716 42.7126 37.4273 42.3593 37.5999 41.9641C37.7724 41.5689 37.8578 41.1411 37.8501 40.71C37.861 40.2652 37.7775 39.8231 37.6051 39.4129C37.4327 39.0026 37.1754 38.6336 36.8501 38.33C36.2277 37.7205 35.3912 37.3791 34.5201 37.3791C33.6489 37.3791 32.8125 37.7205 32.1901 38.33C31.8648 38.6336 31.6074 39.0026 31.4351 39.4129C31.2627 39.8231 31.1792 40.2652 31.1901 40.71C31.1824 41.1411 31.2677 41.5689 31.4403 41.9641C31.6129 42.3593 31.8686 42.7126 32.1901 43C32.8171 43.5965 33.6549 43.9201 34.5201 43.9V43.9Z" fill="#000"/>
</svg>
