<svg width="50" height="50" viewBox="0 0 50 50" fill="none" xmlns="http://www.w3.org/2000/svg">
<path d="M17.3854 9.23105C17.531 9.23105 17.6491 9.51039 17.6491 9.85495V38.2827C17.6491 38.6273 17.531 38.9066 17.3854 38.9066C17.2398 38.9066 17.1217 38.6273 17.1217 38.2827V9.85495C17.1217 9.51034 17.2398 9.23105 17.3854 9.23105ZM17.5484 19.4818V19.5059C17.5484 19.6451 17.4357 19.758 17.2967 19.758H5.8299C5.69093 19.758 5.57823 19.6451 5.57823 19.5059V19.4818C5.57823 19.3426 5.69093 19.2297 5.8299 19.2297H17.2967C17.4357 19.2297 17.5484 19.3426 17.5484 19.4818ZM17.3166 28.9881V29.0122C17.3166 29.1514 17.2039 29.2643 17.0649 29.2643H5.5981C5.45914 29.2643 5.34644 29.1514 5.34644 29.0122V28.9881C5.34644 28.8488 5.45914 28.7359 5.5981 28.7359H17.0649C17.2039 28.7359 17.3166 28.8488 17.3166 28.9881ZM7.75455 37.6722C7.77395 37.5269 7.78893 37.3802 7.81433 37.2364C8.01012 36.1808 8.56014 35.3558 9.43299 34.7344C10.0368 35.3079 10.7482 35.6104 11.5792 35.6089C12.4072 35.6089 13.1171 35.3094 13.727 34.7314C13.848 34.8273 13.9751 34.9186 14.0916 35.0219C14.827 35.6762 15.2604 36.4922 15.3784 37.473C15.3859 37.5389 15.3963 37.6062 15.4053 37.6722C15.4053 37.7515 15.4053 37.8324 15.4053 37.9117C12.8541 37.9117 10.3043 37.9117 7.75305 37.9117C7.75455 37.8324 7.75455 37.7515 7.75455 37.6722V37.6722ZM11.7601 30.2455C11.911 30.2755 12.065 30.2949 12.2114 30.3368C13.1082 30.5869 13.7718 31.3819 13.8645 32.3118C13.993 33.601 13.0484 34.7329 11.7556 34.8393C10.5914 34.9366 9.51968 34.1055 9.32243 32.9511C9.11021 31.7173 9.87992 30.5674 11.101 30.2964C11.1996 30.2739 11.3013 30.262 11.4014 30.2455C11.521 30.2455 11.6405 30.2455 11.7601 30.2455H11.7601ZM20.8584 36.5901C20.9097 36.2058 20.9493 35.8177 21.0165 35.4375C21.5344 32.6452 22.9894 30.4628 25.2982 28.8191C26.8954 30.336 28.7773 31.1361 30.9755 31.1322C33.1658 31.1322 35.0437 30.34 36.6568 28.8112C36.977 29.0647 37.3131 29.3063 37.6215 29.5795C39.5666 31.3104 40.7131 33.469 41.0255 36.0633C41.0452 36.2375 41.0729 36.4158 41.0967 36.5901C41.0967 36.8 41.0967 37.0139 41.0967 37.2238C34.3479 37.2238 27.6032 37.2238 20.8545 37.2238C20.8584 37.0138 20.8584 36.8 20.8584 36.5901H20.8584ZM31.4539 16.9447C31.8532 17.0239 32.2604 17.0754 32.6479 17.1863C35.02 17.8477 36.7753 19.9509 37.0204 22.4105C37.3605 25.8207 34.8618 28.815 31.442 29.0963C28.3622 29.3538 25.5274 27.1556 25.0056 24.1018C24.4442 20.8382 26.4803 17.7963 29.7103 17.0794C29.9713 17.02 30.2401 16.9883 30.505 16.9447C30.8212 16.9447 31.1375 16.9447 31.4538 16.9447L31.4539 16.9447ZM7.73957 28.4891C7.75897 28.3439 7.77395 28.1972 7.79935 28.0534C7.99514 26.9978 8.54516 26.1728 9.41801 25.5514C10.0218 26.1249 10.7332 26.4274 11.5642 26.4258C12.3922 26.4258 13.1022 26.1264 13.712 25.5484C13.833 25.6442 13.9601 25.7356 14.0766 25.8389C14.812 26.4932 15.2454 27.3092 15.3635 28.29C15.3709 28.3559 15.3814 28.4232 15.3904 28.4891C15.3904 28.5685 15.3904 28.6494 15.3904 28.7287C12.8391 28.7287 10.2894 28.7287 7.73807 28.7287C7.73957 28.6493 7.73957 28.5685 7.73957 28.4891V28.4891ZM11.7451 21.0625C11.896 21.0925 12.05 21.1119 12.1964 21.1538C13.0932 21.4039 13.7568 22.199 13.8495 23.1288C13.978 24.418 13.0334 25.55 11.7406 25.6563C10.5764 25.7536 9.5047 24.9226 9.30745 23.7682C9.09523 22.5344 9.86495 21.3844 11.086 21.1134C11.1846 21.0909 11.2863 21.079 11.3864 21.0625C11.506 21.0625 11.6256 21.0625 11.7451 21.0625H11.7451ZM7.75455 19.015C7.77395 18.8698 7.78893 18.7231 7.81433 18.5793C8.01012 17.5237 8.56014 16.6987 9.43299 16.0773C10.0368 16.6508 10.7482 16.9533 11.5792 16.9518C12.4072 16.9518 13.1171 16.6523 13.727 16.0743C13.848 16.1702 13.9751 16.2615 14.0916 16.3648C14.827 17.0191 15.2604 17.8351 15.3784 18.8159C15.3859 18.8818 15.3963 18.9491 15.4053 19.015C15.4053 19.0944 15.4053 19.1753 15.4053 19.2546C12.8541 19.2546 10.3043 19.2546 7.75305 19.2546C7.75455 19.1752 7.75455 19.0944 7.75455 19.015V19.015ZM11.7601 11.5883C11.911 11.6183 12.065 11.6377 12.2114 11.6797C13.1082 11.9297 13.7718 12.7248 13.8645 13.6546C13.993 14.9438 13.0484 16.0758 11.7556 16.1821C10.5914 16.2794 9.51968 15.4484 9.32243 14.294C9.11021 13.0602 9.87992 11.9102 11.101 11.6392C11.1996 11.6168 11.3013 11.6048 11.4014 11.5883C11.521 11.5883 11.6405 11.5883 11.7601 11.5883H11.7601ZM47 11.4551V36.4359C47 38.4575 45.348 40.1125 43.3357 40.1125H30.868C30.868 42.0619 32.3315 43.7169 32.3315 44.5166C32.3315 45.3219 31.6662 45.9883 30.868 45.9883H19.132C18.3282 45.9883 17.663 45.3219 17.663 44.5166C17.663 43.6669 19.132 42.1063 19.132 40.107L6.66433 40.1125C4.64642 40.1125 3 38.4575 3 36.4359V11.4551C3 9.43351 4.64646 7.78409 6.66433 7.78409H43.3357C45.348 7.78409 47 9.43355 47 11.4551ZM44.0674 36.0527V11.6606C44.0674 11.1608 43.7237 10.722 43.3356 10.722H6.66429C6.27623 10.722 5.93251 11.1608 5.93251 11.6606V36.0527C5.93251 36.5525 6.27623 36.9913 6.66429 36.9913H43.3356C43.7237 36.9913 44.0674 36.5525 44.0674 36.0527ZM24.9962 7.03344C26.1048 7.03344 27.0035 6.13321 27.0035 5.02252C27.0035 3.91183 26.1049 3.0116 24.9962 3.0116C23.8877 3.0116 22.989 3.91183 22.989 5.02252C22.989 6.13321 23.8876 7.03344 24.9962 7.03344ZM25.0055 3.47104C25.0904 3.47104 25.1599 3.54065 25.1599 3.62574C25.1599 3.71083 25.0904 3.78043 25.0055 3.78043C24.9206 3.78043 24.8511 3.71083 24.8511 3.62574C24.8511 3.54065 24.9206 3.47104 25.0055 3.47104ZM24.9962 4.09443C25.5073 4.09443 25.9226 4.51049 25.9226 5.02252C25.9226 5.53455 25.5073 5.95061 24.9962 5.95061C24.4851 5.95061 24.0698 5.53455 24.0698 5.02252C24.0698 4.51049 24.4851 4.09443 24.9962 4.09443ZM24.9962 5.48661C25.251 5.48661 25.4595 5.27778 25.4595 5.02252C25.4595 4.76726 25.251 4.55843 24.9962 4.55843C24.7414 4.55843 24.533 4.76726 24.533 5.02252C24.533 5.27778 24.7414 5.48661 24.9962 5.48661ZM26.3349 6.9143C25.9566 7.185 25.4934 7.34279 24.9962 7.34279C24.4991 7.34279 24.0359 7.185 23.6576 6.9143L23.2917 7.48975C23.1604 7.69548 23.3086 7.96463 23.5511 7.96463H26.4415C26.6839 7.96463 26.8321 7.69548 26.7009 7.48975L26.3349 6.9143Z" fill="#000"/>
</svg>
