<svg width="50" height="50" viewBox="0 0 50 50" fill="none" xmlns="http://www.w3.org/2000/svg">
<path d="M34.2159 29.344C34.2159 31.024 34.6939 31.694 35.9439 31.694C38.7299 31.694 40.5039 28.144 40.5039 22.24C40.5039 13.216 33.9279 8.89602 25.7179 8.89602C17.2719 8.89602 9.5899 14.56 9.5899 25.264C9.5899 35.488 16.3099 41.056 26.6299 41.056C30.1339 41.056 32.4859 40.672 36.0839 39.472L36.8559 42.686C33.3039 43.84 29.5079 44.174 26.5819 44.174C13.0459 44.174 5.7959 36.734 5.7959 25.262C5.7959 13.694 14.1979 5.82202 25.7659 5.82202C37.8139 5.82202 44.1959 13.022 44.1959 21.854C44.1959 29.342 41.8459 35.054 34.4539 35.054C31.0919 35.054 28.8859 33.71 28.5979 30.732C27.7339 34.044 25.4299 35.054 22.3079 35.054C18.1319 35.054 14.6279 31.836 14.6279 25.358C14.6279 18.83 17.7019 14.798 23.2219 14.798C26.1499 14.798 27.9739 15.95 28.7859 17.774L30.1799 15.23H34.2119V29.344H34.2159ZM28.3139 23.008C28.3139 20.37 26.3439 19.264 24.7119 19.264C22.9359 19.264 20.9699 20.702 20.9699 24.928C20.9699 28.288 22.4579 30.16 24.7119 30.16C26.2959 30.16 28.3139 29.152 28.3139 26.368V23.008V23.008Z" fill="#000"/>
</svg>
