<svg xmlns="http://www.w3.org/2000/svg" viewBox="0 0 50 50"><g id="wiki"><path id="path1775" fill="#000" d="M1.78,13.27v-.88l.08-.08H12.32l.08.08v.84c0,.23-.14.34-.42.34l-1.09,0q-1.38,0-1.38.84a2.76,2.76,0,0,0,.29,1.18Q11.9,20.74,19.12,36l.25,0L24,26.71c-.36-.84-.67-1.52-.92-2.06l-3.19-6.29-.84-1.68a21.23,21.23,0,0,0-1.43-2.57,2,2,0,0,0-1.38-.54c-.4-.06-.59-.16-.59-.3v-.88l.12-.08h8.28l.21,0v.88c0,.23-.14.34-.42.34l-.63.08a3.17,3.17,0,0,0-.8.21.45.45,0,0,0-.21.51,2.73,2.73,0,0,0,.17.71c.08.22.28.66.58,1.3l3.07,6.3,3.4-6.8c.45-.9.52-1.5.21-1.81s-.69-.38-1.55-.46l-.38,0a.37.37,0,0,1-.29-.13c-.09,0-.13-.11-.13-.25v-.8l.13-.08q2.39,0,7.81,0l.08.08v.84c0,.23-.13.34-.38.34a4.68,4.68,0,0,0-1.26.17,1.66,1.66,0,0,0-.71.67,19.29,19.29,0,0,0-1.26,2l-4.41,8.23-.13.3,5.38,11,.33.12,8.49-20.19c.33-.79.29-1.36-.13-1.72a2.47,2.47,0,0,0-1.64-.55l-.8,0a.36.36,0,0,1-.25-.13.27.27,0,0,1-.17-.25v-.84l.13-.08h9.62l.08.08v.84c0,.2-.13.32-.38.38a4.52,4.52,0,0,0-2.77.8,5.07,5.07,0,0,0-1.43,2.05L33.15,40.23a2.54,2.54,0,0,1-.93,1.26.89.89,0,0,1-1,0,3.22,3.22,0,0,1-1-1.26q-1.61-3.15-5.12-11-4.41,9.06-5.5,11.08-1.72,3-3,0-1.34-3.15-5.45-12t-5.46-12a5.91,5.91,0,0,0-1.18-2.19,4.05,4.05,0,0,0-2.18-.54c-.39-.06-.59-.16-.59-.3Z"/></g></svg>