<svg width="50" height="50" viewBox="0 0 50 50" fill="none" xmlns="http://www.w3.org/2000/svg">
  <path d="M15.503 29.7414C13.7429 29.7414 12.2113 29.9357 10.9643 30.1759C10.2852 30.3067 9.62867 29.8623 9.49784 29.1832C9.36701 28.5041 9.81146 27.8475 10.4905 27.7167C11.866 27.4517 13.5581 27.237 15.503 27.237C17.482 27.237 19.2087 27.4513 20.6076 27.7159C21.2871 27.8445 21.7337 28.4996 21.6052 29.1791C21.4766 29.8586 20.8215 30.3053 20.142 30.1767C18.8704 29.9361 17.3012 29.7414 15.503 29.7414Z" fill="#000" />
  <path d="M10.9643 20.1796C12.2113 19.9394 13.7429 19.7451 15.503 19.7451C17.3012 19.7451 18.8704 19.9398 20.142 20.1804C20.8215 20.309 21.4766 19.8623 21.6052 19.1828C21.7337 18.5033 21.2871 17.8482 20.6076 17.7196C19.2087 17.455 17.482 17.2407 15.503 17.2407C13.5581 17.2407 11.866 17.4554 10.4905 17.7204C9.81146 17.8512 9.36701 18.5078 9.49784 19.1869C9.62867 19.866 10.2852 20.3104 10.9643 20.1796Z" fill="#000" />
  <path fill-rule="evenodd" clip-rule="evenodd" d="M34.7301 6.45067C39.0328 6.4258 42.6014 7.10975 45.1251 7.78106C45.6894 7.93118 46.0822 8.4421 46.0822 9.02606V12.1112H46.7787C47.4532 12.1112 48 12.658 48 13.3325V42.7797C48 43.157 47.8257 43.513 47.5277 43.7444C47.2298 43.9757 46.8416 44.0564 46.4761 43.963C43.9202 43.3094 40.1546 42.6189 35.568 42.6657L35.5657 42.6658C31.341 42.7009 27.8432 43.3446 25.4025 43.9636C25.2357 44.0059 25.0618 44.0124 24.8923 43.9829C22.1218 43.4995 18.6768 43.0982 14.7114 43.0627C10.262 43.0273 6.43832 43.464 3.42896 43.9832C3.07398 44.0445 2.71007 43.9459 2.43455 43.7139C2.15903 43.4818 2 43.14 2 42.7797V13.3325C2 12.658 2.54679 12.1112 3.2213 12.1112H4.06217V9.02606C4.06217 8.43209 4.46827 7.9151 5.04534 7.77442C7.53856 7.16662 10.8616 6.5963 14.7918 6.55898C18.9373 6.51146 22.4416 7.08151 25.0519 7.69773C27.4902 7.06784 30.7924 6.47446 34.7301 6.45067ZM23.7779 10.0506C21.4088 9.53443 18.3633 9.09468 14.8201 9.1354L14.8175 9.13543C11.6171 9.16572 8.8453 9.57198 6.63875 10.0511V38.9124C8.94131 38.4775 11.684 38.1393 14.7888 38.0993C18.4076 38.0486 21.3053 38.4242 23.7779 38.907V10.0506ZM26.3545 38.8259C28.6271 38.2983 31.6217 37.8521 34.8099 37.8226C38.2672 37.793 41.2259 38.2639 43.5056 38.8152V10.03C42.5298 9.79798 41.4225 9.5765 40.1988 9.40093V21.1033C40.1988 21.789 39.489 22.2341 38.8756 21.9333L36.169 20.6222C35.9044 20.4898 35.6036 20.4899 35.339 20.6342L33.0655 21.8491C32.452 22.1739 31.7062 21.7288 31.7062 21.0312V9.16785C29.6526 9.34611 27.8517 9.67266 26.3545 10.0291V38.8259Z" fill="#000" />
</svg>