<svg width="50" height="50" viewBox="0 0 50 50" fill="none" xmlns="http://www.w3.org/2000/svg">
<path d="M15.503 29.7414C13.7429 29.7414 12.2113 29.9356 10.9643 30.1759C10.2852 30.3067 9.62867 29.8622 9.49784 29.1831C9.36701 28.5041 9.81146 27.8475 10.4905 27.7166C11.866 27.4517 13.5581 27.2369 15.503 27.2369C17.482 27.2369 19.2087 27.4512 20.6076 27.7159C21.2871 27.8444 21.7337 28.4995 21.6052 29.179C21.4766 29.8586 20.8215 30.3052 20.142 30.1766C18.8704 29.9361 17.3012 29.7414 15.503 29.7414Z" fill="#000"/>
<path d="M10.9643 20.1796C12.2113 19.9393 13.7429 19.7451 15.503 19.7451C17.3012 19.7451 18.8704 19.9398 20.142 20.1803C20.8215 20.3089 21.4766 19.8623 21.6052 19.1827C21.7337 18.5032 21.2871 17.8481 20.6076 17.7196C19.2087 17.4549 17.482 17.2406 15.503 17.2406C13.5581 17.2406 11.866 17.4554 10.4905 17.7203C9.81146 17.8512 9.36701 18.5078 9.49784 19.1868C9.62867 19.8659 10.2852 20.3104 10.9643 20.1796Z" fill="#000"/>
<path fill-rule="evenodd" clip-rule="evenodd" d="M34.7301 6.45061C39.0328 6.42574 42.6014 7.10968 45.1251 7.781C45.6894 7.93112 46.0822 8.44204 46.0822 9.026V12.1111H46.7787C47.4532 12.1111 48 12.6579 48 13.3324V42.7797C48 43.1569 47.8257 43.513 47.5277 43.7443C47.2298 43.9757 46.8416 44.0564 46.4761 43.9629C43.9202 43.3093 40.1546 42.6189 35.568 42.6657L35.5657 42.6657C31.341 42.7008 27.8432 43.3446 25.4025 43.9635C25.2357 44.0058 25.0618 44.0124 24.8923 43.9828C22.1218 43.4994 18.6768 43.0981 14.7114 43.0627C10.262 43.0273 6.43832 43.4639 3.42896 43.9832C3.07398 44.0444 2.71007 43.9459 2.43455 43.7138C2.15903 43.4817 2 43.1399 2 42.7797V13.3324C2 12.6579 2.54679 12.1111 3.2213 12.1111H4.06217V9.026C4.06217 8.43202 4.46827 7.91504 5.04534 7.77436C7.53856 7.16656 10.8616 6.59623 14.7918 6.55892C18.9373 6.5114 22.4416 7.08145 25.0519 7.69767C27.4902 7.06778 30.7924 6.4744 34.7301 6.45061ZM23.7779 10.0505C21.4088 9.53437 18.3633 9.09461 14.8201 9.13534L14.8175 9.13537C11.6171 9.16566 8.8453 9.57192 6.63875 10.0511V38.9124C8.94131 38.4774 11.684 38.1392 14.7888 38.0993C18.4076 38.0486 21.3053 38.4241 23.7779 38.9069V10.0505ZM26.3545 38.8258C28.6271 38.2983 31.6217 37.852 34.8099 37.8226C38.2672 37.7929 41.2259 38.2639 43.5056 38.8151V10.0299C42.5298 9.79792 41.4225 9.57644 40.1988 9.40087V21.1033C40.1988 21.7889 39.489 22.234 38.8756 21.9333L36.169 20.6221C35.9044 20.4898 35.6036 20.4898 35.339 20.6341L33.0655 21.8491C32.452 22.1739 31.7062 21.7288 31.7062 21.0311V9.16779C29.6526 9.34604 27.8517 9.6726 26.3545 10.029V38.8258Z" fill="#000"/>
</svg>
