<svg width="180" height="180" viewBox="0 0 180 180" fill="none" xmlns="http://www.w3.org/2000/svg">
<path d="M71.21 42.9697H47.22C42.3047 42.9697 38.32 46.9544 38.32 51.8697V75.8597C38.32 80.7751 42.3047 84.7597 47.22 84.7597H71.21C76.1253 84.7597 80.11 80.7751 80.11 75.8597V51.8697C80.11 46.9544 76.1253 42.9697 71.21 42.9697Z" fill="#FFEFE3"/>
<path d="M72.48 90.8896H45.96C44.9051 90.8896 44.05 91.7425 44.05 92.7946C44.05 93.8467 44.9051 94.6996 45.96 94.6996H72.48C73.5349 94.6996 74.39 93.8467 74.39 92.7946C74.39 91.7425 73.5349 90.8896 72.48 90.8896Z" fill="#FFEFE3"/>
<path d="M137.38 42.9697H113.39C108.475 42.9697 104.49 46.9544 104.49 51.8697V75.8597C104.49 80.7751 108.475 84.7597 113.39 84.7597H137.38C142.295 84.7597 146.28 80.7751 146.28 75.8597V51.8697C146.28 46.9544 142.295 42.9697 137.38 42.9697Z" fill="#AADAED"/>
<path d="M138.64 90.8896H112.12C111.065 90.8896 110.21 91.7425 110.21 92.7946C110.21 93.8467 111.065 94.6996 112.12 94.6996H138.64C139.695 94.6996 140.55 93.8467 140.55 92.7946C140.55 91.7425 139.695 90.8896 138.64 90.8896Z" fill="#AADAED"/>
<path d="M141.51 98.5098H109.26C108.205 98.5098 107.35 99.3627 107.35 100.415C107.35 101.467 108.205 102.32 109.26 102.32H141.51C142.565 102.32 143.42 101.467 143.42 100.415C143.42 99.3627 142.565 98.5098 141.51 98.5098Z" fill="#AADAED"/>
<path d="M137.38 116.91H113.39C108.475 116.91 104.49 120.895 104.49 125.81V149.8C104.49 154.715 108.475 158.7 113.39 158.7H137.38C142.295 158.7 146.28 154.715 146.28 149.8V125.81C146.28 120.895 142.295 116.91 137.38 116.91Z" fill="#FFEFE3"/>
<path d="M138.64 164.82H112.12C111.065 164.82 110.21 165.673 110.21 166.725C110.21 167.777 111.065 168.63 112.12 168.63H138.64C139.695 168.63 140.55 167.777 140.55 166.725C140.55 165.673 139.695 164.82 138.64 164.82Z" fill="#FFEFE3"/>
<path d="M71.21 116.91H47.22C42.3047 116.91 38.32 120.895 38.32 125.81V149.8C38.32 154.715 42.3047 158.7 47.22 158.7H71.21C76.1253 158.7 80.11 154.715 80.11 149.8V125.81C80.11 120.895 76.1253 116.91 71.21 116.91Z" fill="#AADAED"/>
<path d="M72.48 164.82H45.96C44.9051 164.82 44.05 165.673 44.05 166.725C44.05 167.777 44.9051 168.63 45.96 168.63H72.48C73.5349 168.63 74.39 167.777 74.39 166.725C74.39 165.673 73.5349 164.82 72.48 164.82Z" fill="#AADAED"/>
<path d="M66.48 9.09961H48.22C44.713 9.09961 41.87 11.9426 41.87 15.4496V15.4596C41.87 18.9666 44.713 21.8096 48.22 21.8096H66.48C69.987 21.8096 72.83 18.9666 72.83 15.4596V15.4496C72.83 11.9426 69.987 9.09961 66.48 9.09961Z" fill="#2A9CC8"/>
<path d="M108.31 9.09961H84.09C80.583 9.09961 77.74 11.9426 77.74 15.4496V15.4596C77.74 18.9666 80.583 21.8096 84.09 21.8096H108.31C111.817 21.8096 114.66 18.9666 114.66 15.4596V15.4496C114.66 11.9426 111.817 9.09961 108.31 9.09961Z" fill="#FFEFE3"/>
<path d="M126.23 9.09961H146.28V21.8096H126.23C122.72 21.8096 119.88 18.9596 119.88 15.4596C119.88 11.9496 122.73 9.10961 126.23 9.10961V9.09961Z" fill="#FFEFE3"/>
</svg>
