<svg width="180" height="180" viewBox="0 0 180 180" fill="none" xmlns="http://www.w3.org/2000/svg">
<path d="M120.057 43.3066H63.7355C59.6049 43.3066 56.2563 46.6552 56.2563 50.7858V107.107C56.2563 111.238 59.6049 114.587 63.7355 114.587H120.057C124.188 114.587 127.536 111.238 127.536 107.107V50.7858C127.536 46.6552 124.188 43.3066 120.057 43.3066Z" fill="#B9E3F8"/>
<path d="M114.918 125.387H69.5948C67.7952 125.387 66.3363 126.837 66.3363 128.627C66.3363 130.416 67.7952 131.867 69.5948 131.867H114.918C116.717 131.867 118.176 130.416 118.176 128.627C118.176 126.837 116.717 125.387 114.918 125.387Z" fill="#FFCBA0"/>
<path d="M119.904 138.347H63.889C62.0595 138.347 60.5764 139.797 60.5764 141.587C60.5764 143.376 62.0595 144.827 63.889 144.827H119.904C121.733 144.827 123.216 143.376 123.216 141.587C123.216 139.797 121.733 138.347 119.904 138.347Z" fill="#FFCBA0"/>
<path d="M58.3612 20.3036C60.2504 20.3036 61.9067 21.4265 62.6841 23.0791L69.0764 36.6373L83.322 38.8044L83.4948 38.8345C85.2187 39.1612 86.5745 40.4081 87.1341 42.0081L87.1867 42.1696C87.7238 43.8935 87.2881 45.8127 86.0036 47.1197L75.6265 57.7071L78.079 72.6851L78.1053 72.8503C78.3306 74.578 77.6395 76.3432 76.2124 77.4248C74.7251 78.5553 72.7195 78.7168 71.0707 77.8079L58.3575 70.811L45.6443 77.8079C43.9955 78.7168 41.9899 78.5553 40.5026 77.4248C39.0341 76.3056 38.3431 74.4616 38.636 72.6813L41.0885 57.7034L30.7114 47.1159C29.4269 45.8051 28.995 43.8897 29.5283 42.1658C30.0654 40.4307 31.5339 39.0823 33.393 38.8007L47.6348 36.6336L54.0271 23.0753C54.8046 21.4228 56.4608 20.2998 58.35 20.2998L58.3612 20.3036Z" fill="#F1CA00"/>
<path d="M43.3757 80.97C41.8095 80.97 40.2471 80.4668 38.9514 79.479C36.743 77.7964 35.6501 75.0359 36.1045 72.2755L38.3467 58.582L28.8822 48.9222C26.9442 46.9466 26.2532 44.066 27.0795 41.4069C27.9207 38.7028 30.2493 36.6822 33.0136 36.2615L45.9033 34.301L51.7097 21.9821C52.9266 19.4019 55.5368 17.7344 58.3574 17.7344C61.178 17.7344 63.7882 19.4019 65.0051 21.9821L70.8115 34.301L83.9679 36.3066C86.5406 36.7948 88.6814 38.6577 89.5565 41.1628L89.6391 41.4107C90.4654 44.0697 89.7743 46.9504 87.8363 48.9222L78.3718 58.582L80.6516 72.5309C80.9971 75.2012 79.8929 77.8678 77.7671 79.4828C75.4686 81.2292 72.3513 81.4621 69.8275 80.0724L58.3536 73.759L46.8798 80.0724C45.7831 80.6771 44.5738 80.9738 43.3682 80.9738L43.3757 80.97ZM58.3611 22.8722C57.5086 22.8722 56.7424 23.3718 56.3631 24.1717L49.3886 38.9694L33.791 41.3431C32.9459 41.4708 32.2586 42.0792 31.992 42.928C31.7291 43.7768 31.9432 44.6932 32.5553 45.3166L43.8414 56.8356L41.1786 73.1017C41.0358 73.9843 41.3739 74.8557 42.0649 75.3815C42.756 75.9073 43.6536 75.9749 44.4085 75.558L58.3611 67.8775L72.3138 75.558C73.0687 75.9749 73.9701 75.9073 74.6611 75.3815C75.3184 74.882 75.6639 74.0444 75.5625 73.1994L75.5437 73.0792L72.8809 56.8356L84.167 45.3166C84.7754 44.6969 84.9895 43.7881 84.7341 42.943L84.6965 42.8303C84.4261 42.0717 83.7876 41.5083 83.029 41.3581L82.905 41.3355L67.3299 38.9657L60.3555 24.168C59.9761 23.368 59.2137 22.8685 58.3574 22.8685L58.3611 22.8722Z" fill="white"/>
<path d="M84.2262 43.3242C83.9623 42.474 83.2651 41.8543 82.4208 41.7296L66.7677 39.3416L59.7685 24.4539C59.3916 23.6528 58.6151 23.1465 57.7633 23.1465C57.6126 23.1465 57.7633 68.4292 57.7633 68.4292L71.7655 76.1565C72.5194 76.5721 73.4315 76.5041 74.1175 75.9789C74.8072 75.4536 75.1502 74.5657 75.007 73.6852L72.3347 57.3201L83.6608 45.7312C84.2714 45.1077 84.49 44.1744 84.2262 43.328V43.3242Z" fill="#D1AF00"/>
</svg>
