<svg xmlns="http://www.w3.org/2000/svg" xmlns:xlink="http://www.w3.org/1999/xlink" viewBox="0 0 100 100"><defs><clipPath id="a"><rect width="100" height="100" style="fill:none"/></clipPath></defs><g style="clip-path:url(#a)"><path d="M23,44.11C40.59,34.86,39.65,17.19,52.26,8.45S84.31,9,92.66,22.09,96,58,82.4,72.1,25,101.44,8.91,84.43,5.35,53.36,23,44.11Z" style="fill:#fff"/><path d="M28.4,44.19l-.35-1c2.74-4.45,9-7.08,11.61-12.42l1.61.93C41.56,40.16,34,43.47,28.4,44.19Z" style="fill:#e67614;fill-rule:evenodd"/><path d="M28.4,44.19l-.35-1c2.74-4.45,9-7.08,11.61-12.42l1.61.93C41.56,40.16,34,43.47,28.4,44.19Z" style="fill:#ff8600;fill-rule:evenodd"/><path d="M28.39,44.19l-.35-1c2.74-4.45,9-7.08,11.62-12.42l1.6.93C41.56,40.16,34,43.47,28.39,44.19Z" style="fill-rule:evenodd;opacity:0.2"/><polygon points="28.21 50.3 29.17 66.84 29.18 81.21 30.52 80.56 32.73 48.1 28.21 50.3" style="fill:#d29f80;fill-rule:evenodd"/><path d="M28.75,79.46a2.66,2.66,0,0,0-.21.83,6.6,6.6,0,0,0,.11,1h7c.18-.59.07-.92-.32-1l-1-.13-3.24-1.45a.13.13,0,0,0-.16.07h0l-.21.5a2.2,2.2,0,0,1-.88.26,2,2,0,0,1-.76-.23h0a.26.26,0,0,0-.33.13Z" style="fill:#00afea;fill-rule:evenodd"/><path d="M28.52,78.55l3.23-.89c.65-4.47,3.53-22.88,1.46-29.79l-6.59,3.21C25.37,57.42,29,74.08,28.52,78.55Z" style="fill:#5c63a9;fill-rule:evenodd"/><path d="M28.52,78.55l3.23-.89c.65-4.47,3.53-22.88,1.46-29.79l-6.59,3.21C25.37,57.42,29,74.08,28.52,78.55Z" style="fill:#003261;fill-rule:evenodd"/><path d="M28.52,78.55l3.23-.89c.65-4.47,3.53-22.88,1.46-29.79l-6.59,3.21C25.37,57.42,29,74.08,28.52,78.55Z" style="fill-rule:evenodd;opacity:0.2"/><path d="M64.75,95.22c-1.09-.75-28.37-19.4-29-20s-.37-1,.58-1.27,19-4.73,20.15-5a5,5,0,0,1,3.28.2c.62.43,28.18,19.41,28.87,20s.53,1.16-.21,1.39l-20.27,5S65.85,96,64.75,95.22Z" style="fill:#003261"/><path d="M64.75,94.49c-1.09-.75-28.37-19.4-29-20s-.37-1,.58-1.27,19-4.73,20.15-5a5,5,0,0,1,3.28.2c.62.43,28.18,19.41,28.87,20s.53,1.16-.21,1.39l-20.27,5S65.85,95.24,64.75,94.49Z" style="fill:#00afea"/><path d="M78.87,90.67c-.06.61-1,.94-2.24.85s-2.47-.7-2.47-1.41,1.41-.82,2.28-.77S78.94,90.06,78.87,90.67Z" style="fill:#fff"/><path d="M63.12,91.06c-.9-.61-23.3-15.92-23.84-16.44s-.31-.85.48-1,15.59-3.88,16.53-4.1a4.13,4.13,0,0,1,2.69.17c.51.35,23.14,15.93,23.7,16.4s.44,1-.16,1.14l-16.65,4.1A4.48,4.48,0,0,1,63.12,91.06Z" style="fill:#fff"/><path d="M43.38,75.19l-.13-.39c3.7-1.27,14.65-4,16.21-4.41l.11.39C58,71.23,47.08,73.92,43.38,75.19Z" style="fill:#dbe1e7"/><path d="M44.65,76.38,44.52,76c1.09-.4,4.44-1.44,5.94-1.88,2.36-.7,9.62-2,10.91-2.62l.19.37c-1.32.68-8.6,1.93-11,2.64C49.08,75,45.73,76,44.65,76.38Z" style="fill:#dbe1e7"/><path d="M46.13,77.42l.19.36c2.55-1.36,6.9-2.08,8.31-2.46l-.1-.39C53,75.34,48.07,76.38,46.13,77.42Z" style="fill:#dbe1e7"/><path d="M55.82,75l-.11-.39c1.27-.38,2.07-.53,1.28-.34.78-.19,4.34-1.19,5-1.52l.18.36c-.71.35-4.33,1.37-5.09,1.56C56.68,74.81,56.27,74.91,55.82,75Z" style="fill:#dbe1e7"/><path d="M48,79l-.15-.39c2.14-.78,5.23-1.65,7.68-2.43.82-.26,8.39-2.57,9-2.79l.32.33-9.25,2.85C53.24,77.39,50.15,78.26,48,79Z" style="fill:#dbe1e7"/><path d="M49.46,80.42l-.17-.37c1.54-.75,8-2.61,10-3.19,1.62-.46,5.85-1.6,7.08-2.11l.15.29c-1.25.51-5.49,1.75-7.12,2.22C57.38,77.83,51,79.68,49.46,80.42Z" style="fill:#dbe1e7"/><path d="M51.8,81.69l-.16-.37a66.89,66.89,0,0,1,7.58-2.63l8.36-2.84.12.39-8.36,2.84A67.47,67.47,0,0,0,51.8,81.69Z" style="fill:#dbe1e7"/><path d="M53.17,83,53,82.57c1.5-.54,6.68-2.41,8.31-2.91s6.06-2.31,7.35-2.77l.13.39c-1.3.45-5.82,2.29-7.36,2.77S54.67,82.42,53.17,83Z" style="fill:#dbe1e7"/><path d="M55.17,84,55,83.59c.79-.29,1.74-.6,2.74-.92s2-.67,2.91-1l.14.39c-.88.31-1.92.65-2.92,1S56,83.69,55.17,84Z" style="fill:#dbe1e7"/><path d="M57.31,85.29l-.12-.39a81.24,81.24,0,0,0,8-2.83l.16.37A79.45,79.45,0,0,1,57.31,85.29Z" style="fill:#dbe1e7"/><path d="M66.14,81.62l.17.37c1.93-.91,3.94-1.77,5.75-2.47a3.1,3.1,0,0,0-.21-.36C70,79.86,68.05,80.72,66.14,81.62Z" style="fill:#dbe1e7"/><path d="M66.94,79.11c1-.32,2-.66,2.91-1l.13.38c-.88.32-1.91.65-2.92,1S65.93,79.44,66.94,79.11Z" style="fill:#dbe1e7"/><path d="M59.25,86.84c2.14-1,7.28-3,9-3.71,1.17-.45,3.76-1.4,5.49-2.11a2.91,2.91,0,0,0,.31.24c-1.74.74-4.44,1.79-5.65,2.26-1.71.65-6.77,2.61-8.92,3.65Z" style="fill:#dbe1e7"/><path d="M62.18,88,62,87.61a47.76,47.76,0,0,1,5.24-1.91,2.59,2.59,0,0,1,0,.41A50.78,50.78,0,0,0,62.18,88Z" style="fill:#dbe1e7"/><polygon points="50.22 59.68 37.91 39.76 43.83 36.61 44.81 37.19 56.52 55.92 53.95 58.16 50.22 59.68" style="fill:#003261;fill-rule:evenodd"/><polygon points="51.61 60.54 54.58 66.22 57.69 70.92 62.99 67.78 60.35 63.18 56.88 57.54 51.61 60.54" style="fill:#003261;fill-rule:evenodd"/><path d="M63.51,81.45a19.51,19.51,0,0,1,3.24,1.37,18.17,18.17,0,0,1,3,2.27l.34-.15a37.25,37.25,0,0,1-.57-3.7,29.44,29.44,0,0,1,0-3.77l-5.54-7.23s-1-.49-2.85.68-1.63,2-1.63,2Z" style="fill:#efc300;fill-rule:evenodd"/><circle cx="64.94" cy="77.16" r="0.84" style="fill:#0e332e;stroke:#0e332e;stroke-miterlimit:10;stroke-width:0.4721064442099381px"/><line x1="64.88" y1="77.16" x2="69.93" y2="85.01" style="fill:#0e332e;stroke:#0e332e;stroke-miterlimit:10;stroke-width:0.31473762947329204px"/><path d="M61.1,70.91c1.86-1.16,2.84-.67,2.84-.67L63,67.78a3.59,3.59,0,0,0-3.16.58,4.86,4.86,0,0,0-2.14,2.56l1.78,2S59.23,72.07,61.1,70.91Z" style="fill:#00afea;fill-rule:evenodd"/><path d="M54.37,59.43a4.44,4.44,0,0,1,3.32-.75l-1.17-2.76a5.86,5.86,0,0,0-3.74.84,7.47,7.47,0,0,0-2.56,2.92l2,2.22A4.64,4.64,0,0,1,54.37,59.43Z" style="fill:#00afea;fill-rule:evenodd"/><path d="M39.08,41.53h0C38.7,40.94,39,40,40,39c1.32-1.3,3.32-2.08,4.47-1.75a1,1,0,0,1,.72.66h0l.92,1.43a4.13,4.13,0,0,0-.27-3.42,3.52,3.52,0,0,0-.36-.5L28.06,10.7a3.24,3.24,0,0,0-4.46-.82,3.23,3.23,0,0,0-1.52,4.28l14.77,27a4.18,4.18,0,0,0,3.24,2Z" style="fill:#003261;fill-rule:evenodd"/><path d="M39.08,41.55h0C38.7,41,39,40,40,39c1.32-1.29,3.32-2.07,4.47-1.74a1,1,0,0,1,.72.66h0l.92,1.42a4.1,4.1,0,0,0-.27-3.41,3.61,3.61,0,0,0-.36-.51,4.28,4.28,0,0,0-3.19-.38,7,7,0,0,0-4.72,3,5.46,5.46,0,0,0-.75,3.14,4.18,4.18,0,0,0,3.24,2Z" style="fill:#00afea;fill-rule:evenodd"/><polygon points="27.88 12.18 28.5 11.54 43.55 32.74 43.24 32.98 29.91 14.16 29.52 14.43 27.88 12.18" style="fill:#efc300;fill-rule:evenodd"/><polygon points="28.5 11.54 29.46 11.54 44.92 32.86 43.55 32.74 28.5 11.54" style="fill:#00afea;fill-rule:evenodd"/><polygon points="43.24 32.98 43.55 32.74 44.92 32.86 44.62 33.08 43.24 32.98" style="fill:#ff8600;fill-rule:evenodd"/><path d="M36.29,29.15C37,31.87,38,38,37,38.92H30.82v0a4.6,4.6,0,0,1-4.09-4.57V29.84a4.59,4.59,0,0,1,4.6-4.59h.42A4.58,4.58,0,0,1,36.29,29.15Z" style="fill:#efc300;fill-rule:evenodd"/><path d="M29.14,33.47a5.82,5.82,0,0,1-1.54-4.16c.32-4.57,6.68-3.56,7.92-1.26s.79,5.85-.05,6.78a3.12,3.12,0,0,1-3.84.72l.87,6.14H27.38Z" style="fill:#d29f80;fill-rule:evenodd"/><path d="M30.53,32.7c.23,2.53.14,5.43-.57,6.12H23.77c-.35-6,3-3.68,3-9.32.21-.2.4-.41.6-.58v-.17q1.61-3.29,4.08-3.29a4,4,0,0,1,3.92,2.13c-.5,1.7-2.42,2-4.14,3a1.19,1.19,0,0,0-.74-.26,1.18,1.18,0,0,0,0,2.35Z" style="fill:#efc300;fill-rule:evenodd"/><polygon points="26.08 50.86 22.44 67.02 18.5 80.84 19.96 80.58 31.03 49.99 26.08 50.86" style="fill:#d29f80;fill-rule:evenodd"/><path d="M18.37,79.46a2.66,2.66,0,0,0-.21.83,5.45,5.45,0,0,0,.11,1h7c.18-.59.07-.92-.32-1l-1-.13-3.24-1.45a.13.13,0,0,0-.16.07h0l-.21.5a2.25,2.25,0,0,1-.88.26,2,2,0,0,1-.76-.23h0a.26.26,0,0,0-.33.13Z" style="fill:#00afea;fill-rule:evenodd"/><path d="M18.59,78.1l3.35,0c1.86-4.11,9.7-21,9.62-28.23l-7.22,1.27C21.39,56.91,20.32,73.94,18.59,78.1Z" style="fill:#003261;fill-rule:evenodd"/><path d="M27.73,39.76c-.39-.12-1.1.56-2.12-.33s-1.09-4,.48-3.09a9.27,9.27,0,0,0,4.24.93,3.87,3.87,0,0,1,1.33.38,4.1,4.1,0,0,1,1,.71c2.31,8.3,2.35,11.81,1.2,14.55L23.5,52.76C23.42,46.62,24.53,44,27.73,39.76Z" style="fill:#ff8600;fill-rule:evenodd"/><path d="M36.24,46.91l-.12-2.58c5.2,1.33,8,2,8.27,2.15.72.25,1.76-.41,2.32-.7.42.82-1,.81-.42,1.84s1.35,1.64.72,2.8a.38.38,0,0,1-.66,0,11.35,11.35,0,0,0-2.18-2.29A65.32,65.32,0,0,0,36.24,46.91Z" style="fill:#d29f80;fill-rule:evenodd"/><path d="M28.58,38.05l.93-.55c4.92,1.76,8.78,7.28,14.56,8.78L43.5,48C35.26,50.09,30.45,43.39,28.58,38.05Z" style="fill:#ff8600;fill-rule:evenodd"/><path d="M34.91,30.52c.08,0,.06.36.11.93a1.47,1.47,0,0,0,.55,1.13c.27.21.14.36.07.38s-.23,0-.52-.3a1.72,1.72,0,0,1-.43-1.2C34.67,30.93,34.84,30.5,34.91,30.52Z" style="fill:#010101;opacity:0.2"/><path d="M60.19,40.88h0a.47.47,0,0,0-.18-.25.66.66,0,0,0-.4-.13s-.06,0-.08-.06a.39.39,0,0,0-.06-.11.67.67,0,0,0-.19-.14l-.09,0a.14.14,0,0,0-.09,0,.58.58,0,0,0-.29.05.53.53,0,0,0-.14.12.46.46,0,0,0-.09.2s0,0,0,0a.35.35,0,0,0-.14-.06.5.5,0,0,0-.43.06.46.46,0,0,0-.19.28l0,0a.29.29,0,0,0-.24.34h0a.34.34,0,0,0,.34.24h1.82a.39.39,0,0,0,.18,0,.54.54,0,0,0,.32-.31.11.11,0,0,0,0-.08h0A.14.14,0,0,0,60.19,40.88Z" style="fill:#fff"/><path d="M73.76,19h0a.64.64,0,0,0-.25-.35,1.09,1.09,0,0,0-.55-.18s-.08,0-.11-.08a.44.44,0,0,0-.08-.15.83.83,0,0,0-.26-.19l-.12,0a.21.21,0,0,0-.13,0,.74.74,0,0,0-.39.07,1.56,1.56,0,0,0-.2.16.79.79,0,0,0-.13.28s0,0-.05,0a.66.66,0,0,0-.19-.09.75.75,0,0,0-.6.08.71.71,0,0,0-.26.39s0,0,0,0a.4.4,0,0,0-.33.46s0,0,0,0a.48.48,0,0,0,.47.33H73a.69.69,0,0,0,.25,0,.74.74,0,0,0,.44-.44.13.13,0,0,0,0-.1v0A.11.11,0,0,0,73.76,19Z" style="fill:#eaeaea"/><path d="M46.62,21.85h0a1.26,1.26,0,0,1,.53-.72,2,2,0,0,1,1.13-.38.23.23,0,0,0,.23-.16,1.17,1.17,0,0,1,.17-.31,1.52,1.52,0,0,1,.54-.4l.26-.08a.41.41,0,0,1,.27-.05,1.57,1.57,0,0,1,.8.15,2.69,2.69,0,0,1,.41.33,1.46,1.46,0,0,1,.28.59c0,.08,0,.07.1,0a1.14,1.14,0,0,1,.4-.19,1.49,1.49,0,0,1,1.23.17,1.42,1.42,0,0,1,.55.8c0,.05,0,.05.09.07a.84.84,0,0,1,.68.95s0,0,0,0a1,1,0,0,1-1,.69H48.12a1.3,1.3,0,0,1-.52-.09,1.48,1.48,0,0,1-.91-.9.31.31,0,0,1-.06-.23v0A.23.23,0,0,1,46.62,21.85Z" style="fill:#eaeaea"/><path d="M59.09,32.56h0A2.31,2.31,0,0,1,60,31.29a3.6,3.6,0,0,1,2-.65.41.41,0,0,0,.39-.27,2.15,2.15,0,0,1,.3-.56,2.94,2.94,0,0,1,1-.69l.45-.15a.84.84,0,0,1,.47-.08,2.64,2.64,0,0,1,1.41.27,3.6,3.6,0,0,1,.71.58,2.4,2.4,0,0,1,.48,1c0,.14.09.13.18.06a2.2,2.2,0,0,1,.69-.33,2.66,2.66,0,0,1,2.16.31,2.43,2.43,0,0,1,1,1.38c0,.09.09.1.16.13A1.48,1.48,0,0,1,72.49,34s0,0,0,0a1.73,1.73,0,0,1-1.73,1.19H61.7a2.23,2.23,0,0,1-.91-.17,2.6,2.6,0,0,1-1.58-1.56.62.62,0,0,1-.11-.4V33A.42.42,0,0,1,59.09,32.56Z" style="fill:#eaeaea"/><path d="M64.85,11.29h0a.89.89,0,0,0-.38-.51,1.42,1.42,0,0,0-.82-.28.16.16,0,0,1-.16-.11.72.72,0,0,0-.12-.23A1.24,1.24,0,0,0,63,9.86l-.19,0a.27.27,0,0,0-.19,0,1.2,1.2,0,0,0-.59.11,2.17,2.17,0,0,0-.29.24,1.09,1.09,0,0,0-.2.42c0,.06,0,.06-.07,0a1.11,1.11,0,0,0-.29-.14,1.08,1.08,0,0,0-.89.13,1.05,1.05,0,0,0-.4.57s0,0-.06,0a.62.62,0,0,0-.5.69s0,0,0,0a.72.72,0,0,0,.72.5h3.74a.83.83,0,0,0,.38-.07,1.06,1.06,0,0,0,.65-.64.22.22,0,0,0,0-.17v0A.17.17,0,0,0,64.85,11.29Z" style="fill:#eaeaea"/><path d="M79.81,28.93h0a.88.88,0,0,1,.38-.52,1.48,1.48,0,0,1,.83-.28.16.16,0,0,0,.16-.11.86.86,0,0,1,.13-.23,1.24,1.24,0,0,1,.39-.29l.19-.06a.31.31,0,0,1,.19,0,1.09,1.09,0,0,1,.59.11,1.76,1.76,0,0,1,.3.24.94.94,0,0,1,.19.42c0,.06,0,.06.08,0a1,1,0,0,1,.29-.14,1.08,1.08,0,0,1,.89.13,1,1,0,0,1,.4.58s0,0,.07,0a.62.62,0,0,1,.5.69s0,0,0,0a.72.72,0,0,1-.72.5H80.9a.83.83,0,0,1-.38-.07,1.06,1.06,0,0,1-.66-.65.22.22,0,0,1,0-.16v0A.17.17,0,0,1,79.81,28.93Z" style="fill:#eaeaea"/><path d="M88.87,36.72h0a1.64,1.64,0,0,1,.67-.91A2.51,2.51,0,0,1,91,35.32a.3.3,0,0,0,.29-.2,1.39,1.39,0,0,1,.21-.4,2.14,2.14,0,0,1,.69-.51l.33-.1a.5.5,0,0,1,.34-.06,1.89,1.89,0,0,1,1,.2,2.54,2.54,0,0,1,.52.41,1.73,1.73,0,0,1,.35.75c0,.1.06.09.13,0a1.54,1.54,0,0,1,.5-.24,1.93,1.93,0,0,1,1.57.23,1.7,1.7,0,0,1,.69,1c0,.07.07.08.12.09a1.08,1.08,0,0,1,.87,1.21h0a1.25,1.25,0,0,1-1.26.87H90.77a1.65,1.65,0,0,1-.66-.12A1.86,1.86,0,0,1,89,37.36a.36.36,0,0,1-.08-.28V37A.29.29,0,0,1,88.87,36.72Z" style="fill:#eaeaea"/><path d="M84.59,18.16h0a.69.69,0,0,0-.27-.38,1.07,1.07,0,0,0-.6-.19c-.06,0-.09,0-.12-.09a.43.43,0,0,0-.09-.16.83.83,0,0,0-.28-.21l-.13,0a.21.21,0,0,0-.15,0,.77.77,0,0,0-.42.08.91.91,0,0,0-.21.18.71.71,0,0,0-.15.3s0,0,0,0a.68.68,0,0,0-.21-.1.83.83,0,0,0-.65.09.78.78,0,0,0-.29.42s0,0,0,0a.44.44,0,0,0-.36.5s0,0,0,0a.52.52,0,0,0,.52.36h2.72a.65.65,0,0,0,.27-.05.77.77,0,0,0,.48-.47.17.17,0,0,0,0-.12v0A.11.11,0,0,0,84.59,18.16Z" style="fill:#eaeaea"/><path d="M88.84,47.23h0a.44.44,0,0,0-.19-.25.68.68,0,0,0-.39-.13.09.09,0,0,1-.08-.05.67.67,0,0,0-.06-.12.94.94,0,0,0-.19-.14l-.09,0a.15.15,0,0,0-.09,0,.58.58,0,0,0-.29,0,.81.81,0,0,0-.14.12.75.75,0,0,0-.1.2s0,0,0,0a.37.37,0,0,0-.14-.07.54.54,0,0,0-.43.06.46.46,0,0,0-.19.28s0,0,0,0a.31.31,0,0,0-.24.34s0,0,0,0a.36.36,0,0,0,.35.24h1.82a.57.57,0,0,0,.18,0,.54.54,0,0,0,.31-.32.08.08,0,0,0,0-.08h0A.14.14,0,0,0,88.84,47.23Z" style="fill:#eaeaea"/><path d="M69.12,49.29h0a.88.88,0,0,1,.38-.52,1.45,1.45,0,0,1,.82-.28.18.18,0,0,0,.17-.11.63.63,0,0,1,.12-.23,1.41,1.41,0,0,1,.4-.29l.18-.06a.45.45,0,0,1,.2,0,1,1,0,0,1,.58.12,1.76,1.76,0,0,1,.3.24,1,1,0,0,1,.2.42c0,.06,0,.06.07,0a.86.86,0,0,1,.29-.14,1.1,1.1,0,0,1,.9.13,1,1,0,0,1,.4.58s0,0,.07,0a.61.61,0,0,1,.49.69h0a.72.72,0,0,1-.72.5H70.2a.79.79,0,0,1-.37-.07,1,1,0,0,1-.66-.65.18.18,0,0,1,0-.16v0A.19.19,0,0,1,69.12,49.29Z" style="fill:#eaeaea"/><path d="M78.18,57.08h0a1.65,1.65,0,0,1,.67-.92,2.55,2.55,0,0,1,1.44-.47.29.29,0,0,0,.28-.2,1.41,1.41,0,0,1,.22-.4,2,2,0,0,1,.69-.51l.32-.1a.54.54,0,0,1,.35-.06,2,2,0,0,1,1,.19,3,3,0,0,1,.52.42,1.83,1.83,0,0,1,.34.75c0,.1.07.09.13,0a1.7,1.7,0,0,1,.51-.24,1.94,1.94,0,0,1,1.57.22,1.8,1.8,0,0,1,.69,1c0,.06.07.07.12.09a1.08,1.08,0,0,1,.87,1.21s0,0,0,0a1.26,1.26,0,0,1-1.26.87H80.08a1.65,1.65,0,0,1-.66-.12,1.86,1.86,0,0,1-1.15-1.14.38.38,0,0,1-.08-.29v0A.29.29,0,0,1,78.18,57.08Z" style="fill:#eaeaea"/><path d="M82.37,41.62h0a.7.7,0,0,0-.28-.37,1.07,1.07,0,0,0-.59-.2.12.12,0,0,1-.12-.08.91.91,0,0,0-.09-.17.86.86,0,0,0-.29-.21l-.13,0a.35.35,0,0,0-.14,0,.92.92,0,0,0-.43.09.83.83,0,0,0-.21.17.59.59,0,0,0-.14.31s0,0-.06,0a.67.67,0,0,0-.21-.09.76.76,0,0,0-.64.09.68.68,0,0,0-.29.41s0,0,0,0a.45.45,0,0,0-.36.5s0,0,0,0a.52.52,0,0,0,.52.36h2.72a.66.66,0,0,0,.28,0,.76.76,0,0,0,.47-.47.14.14,0,0,0,0-.11v0A.11.11,0,0,0,82.37,41.62Z" style="fill:#eaeaea"/></g></svg>