<svg xmlns="http://www.w3.org/2000/svg" xmlns:xlink="http://www.w3.org/1999/xlink" viewBox="0 0 100 100"><defs><clipPath id="a"><rect width="100" height="100" style="fill:none"/></clipPath><clipPath id="b"><path d="M88.25,53c0,2.87-.87,6.68-3.52,8.62s-4.14-.2-4.14-3.08a8.45,8.45,0,0,1,3.62-7.28C86.77,49.41,88.25,50.07,88.25,53Z" style="fill:none"/></clipPath></defs><g style="clip-path:url(#a)"><path d="M2.93,41.14c2-6.7,6.62-12.58,12-17.36S38.07,8.52,46.22,13.16s7.88,6.15,21.4,11.67S81,28.73,89.69,33.31,99,45.7,98.36,53.92s-5.49,11.6-14.44,16.82S53.07,79.9,44.26,81.12,23.8,81,18.32,78.63,5.33,65.57,3.19,60.39.91,47.85,2.93,41.14Z" style="fill:#f5f5f5"/><path d="M28.58,38.8a19.82,19.82,0,0,0-4.3.73A36.1,36.1,0,0,0,19.79,41" style="fill:none;stroke:#b1b1b1;stroke-linecap:round;stroke-linejoin:round;stroke-width:0.08412533256824976px"/><ellipse cx="65.24" cy="31.11" rx="0.69" ry="0.73" transform="translate(28.15 93.15) rotate(-84.63)" style="fill:#ff074e"/><polygon points="76.73 38.32 75.4 36.53 74.52 38.58 76.73 38.32" style="fill:#efc300"/><polygon points="63.84 37.68 63.44 36.88 64.29 36.47 64.69 37.27 63.84 37.68" style="fill:#00afea"/><rect x="73.87" y="40.97" width="1.3" height="1.3" transform="translate(14.56 102.37) rotate(-74.56)" style="fill:#4ec100"/><circle cx="68.68" cy="36.7" r="0.83" style="fill:#571c96"/><polygon points="71.42 34.43 71.1 33.8 71.77 33.48 72.09 34.11 71.42 34.43" style="fill:#ff8600"/><path d="M68.27,34.56a19.16,19.16,0,0,0-4.26-1,36.6,36.6,0,0,0-4.71-.36" style="fill:none;stroke:#b1b1b1;stroke-linecap:round;stroke-linejoin:round;stroke-width:0.08412533256824976px"/><path d="M80,41.45a18.91,18.91,0,0,0-4-1.63,37.85,37.85,0,0,0-4.59-1.13" style="fill:none;stroke:#b1b1b1;stroke-linecap:round;stroke-linejoin:round;stroke-width:0.08412533256824976px"/><path d="M30.13,43l-.28-14.78s.33-1.05,12.73-1.05S56.45,28.8,56.45,28.8V43.42A63.76,63.76,0,0,0,42.8,42.31,101.35,101.35,0,0,0,30.13,43Z" style="fill:#9e9e9e"/><path d="M11.4,49.9a22.05,22.05,0,0,0-3.24,4.79S8,52,7.93,48c-.06-3.52-.69-7.2.89-10.42s5.86-5.42,5.86-5.42,1,14.64.11,14.92S13.29,47.9,11.4,49.9Z" style="fill:#9e9e9e"/><path d="M18.75,51.23c.29.91.2,14.55.2,14.55s-8.25-3.72-10-6.91A6.25,6.25,0,0,1,7.84,55a130.3,130.3,0,0,1,0-14.13,12.35,12.35,0,0,0,4.72,6.31C16.22,49.57,18.46,50.32,18.75,51.23Z" style="fill:#cbcbcb"/><path d="M85.48,50.88a21.89,21.89,0,0,1,3.24,4.79S88.89,53,89,49c.06-3.51.69-7.2-.89-10.41s-5.86-5.43-5.86-5.43-1,14.64-.11,14.92S83.59,48.88,85.48,50.88Z" style="fill:#9e9e9e"/><path d="M78.13,52.21c-.29.91-.2,14.55-.2,14.55S86.19,63,88,59.85A8,8,0,0,0,89,56a79.54,79.54,0,0,0,0-14.05,12.32,12.32,0,0,1-4.73,6.23C80.66,50.56,78.42,51.3,78.13,52.21Z" style="fill:#cbcbcb"/><path d="M43.57,53.46l-2.49,6.41a75.83,75.83,0,0,0-.18,11.87,54.26,54.26,0,0,0,2.23,13.79c.3,1.25,1.75.66,1.55-.53s-.57-4.84.09-13.3,2.64-12.87,2.64-12.87Z" style="fill:#a26952"/><path d="M44.9,85.22a2.37,2.37,0,0,1,.32.71,1.85,1.85,0,0,1,.09.9c-.09.38-4.87,1.28-5.27,1.16s-.48-.54.08-.94,2.72-2,2.72-2A.1.1,0,0,1,43,85h0l.26.42a1.19,1.19,0,0,0,1.35-.29h0a.19.19,0,0,1,.29,0Z" style="fill:#4cabdf;fill-rule:evenodd"/><path d="M53.38,55.35l1.77,6.73a60.87,60.87,0,0,1,.18,10.75,45.56,45.56,0,0,1-2.22,12.5c-.31,1.14-1.76.6-1.55-.48s.57-4.38-.1-12-2.64-11.67-2.64-11.67Z" style="fill:#a26952"/><path d="M56,68.65a75,75,0,0,0-.79-11.84l-1.45-6.62-11.23.5L41,57.28a74.52,74.52,0,0,0-.78,11.84,59.91,59.91,0,0,0,1.36,14c.24,1.27,4.09.9,3.95-.3s-.81-4.52.29-12.93A51.74,51.74,0,0,1,48.2,59.47a52.48,52.48,0,0,1,2.19,9.93c1.1,8.41.44,11.73.3,12.94s3.7,1.57,3.94.3A60.24,60.24,0,0,0,56,68.65Z" style="fill:#fd3a55"/><path d="M51.39,85.05a2.47,2.47,0,0,0-.32.64,1.53,1.53,0,0,0-.09.82c.1.34,4.88,1.16,5.27,1s.48-.49-.07-.85-2.72-1.85-2.72-1.85a.1.1,0,0,0-.15,0h0l-.26.38a2,2,0,0,1-.77,0,1.77,1.77,0,0,1-.59-.31h0a.21.21,0,0,0-.29,0Z" style="fill:#4cabdf;fill-rule:evenodd"/><path d="M49.78,32.21a16.46,16.46,0,0,0-.71-2.54c-.1-.76.28-1.19.2-2.68a8.47,8.47,0,0,0-1.42-4.31,4.24,4.24,0,0,0-3.24-1.88,8.64,8.64,0,0,0-3.87.27,3.59,3.59,0,0,0-2.36,2.77,19.46,19.46,0,0,1-.87,4.79,4.4,4.4,0,0,1-2,2.25c-1.05.61-1.26.29-3.05.76s-1.42,2.88-2.34,4S28.33,36,26.82,37a2.82,2.82,0,0,0-1.27,2.9c0,.68.05,1.66,1.44,3.37s2.32,1.94,5.11,2.16,4.52-.56,8.58-.57,8.57-10,8.57-10A5,5,0,0,0,49.78,32.21Z" style="fill:#1f3658;fill-rule:evenodd"/><path d="M50.19,35.17S48.62,31.6,48.3,30.6s-1.55-4.08-1.55-4.08a5.1,5.1,0,0,0-2.42-3.33c-2-1.12-4.44.19-5.18,1s-.4,2.55,0,4.23,2,3.72,3.41,4.08a2.86,2.86,0,0,0,2.6-1.08,8.09,8.09,0,0,1,0,2.14c-.17.74-2.24,2.7-2.24,2.7l3.93,2.59Z" style="fill:#885e42;fill-rule:evenodd"/><path d="M39.85,27.21a1.88,1.88,0,0,1,1.48,1.19c.43.91.29,1.94-.3,2.24a.74.74,0,0,1-.36.09,1.9,1.9,0,0,1-1.48-1.2c-.43-.91-.29-1.94.3-2.24a.73.73,0,0,1,.36-.08m0-.43a1.17,1.17,0,0,0-.55.13c-.81.41-1,1.67-.5,2.8a2.27,2.27,0,0,0,1.87,1.44,1.17,1.17,0,0,0,.55-.13c.81-.41,1-1.66.49-2.8a2.25,2.25,0,0,0-1.86-1.44Z" style="fill:#e6c339"/><path d="M43.61,25.26a1.88,1.88,0,0,1,1.48,1.2c.43.91.29,1.93-.3,2.24a.86.86,0,0,1-.36.08,1.88,1.88,0,0,1-1.49-1.2c-.42-.91-.29-1.93.31-2.23a.74.74,0,0,1,.36-.09m0-.42a1.21,1.21,0,0,0-.56.13,2.11,2.11,0,0,0-.49,2.79,2.28,2.28,0,0,0,1.87,1.45,1.18,1.18,0,0,0,.55-.14,2.11,2.11,0,0,0,.49-2.79,2.25,2.25,0,0,0-1.86-1.44Z" style="fill:#e6c339"/><path d="M42.75,27.89a.56.56,0,0,0-.65,0,.64.64,0,0,0-.33.64" style="fill:none;stroke:#e6c339;stroke-linecap:round;stroke-linejoin:round;stroke-width:0.4247162934456213px;fill-rule:evenodd"/><path d="M42.38,28.47s.37.43.46.81a1.49,1.49,0,0,1-.09.94c-.1.26-.56.21-.43-.11a1.69,1.69,0,0,0,.19-.74C42.51,29.07,42.34,28.52,42.38,28.47Z" style="fill:#010101;fill-rule:evenodd;opacity:0.2"/><path d="M39,23.75l2-1.42L43.68,21l3.23,1.83L49.27,27S48,28.05,46,26.13A10,10,0,0,1,43.54,23a2.65,2.65,0,0,1-.13.51,3.18,3.18,0,0,1-1.89,2.23,6.51,6.51,0,0,1-2.34.4l-1-.15Z" style="fill:#1f3658;fill-rule:evenodd"/><path d="M55.4,48c.28-2.16.3-10-.82-12.16a5.25,5.25,0,0,0-4.35-2.77c-1,.12-2,1-4.08,1.47s-2.25,0-2.93.2S41.79,36.1,41,37.32s-1.35,9.92-1,12.9,1.39,3.63,2.47,4.32,10.29.49,11.42-1S55.11,50.16,55.4,48Z" style="fill:#fd8b2e;fill-rule:evenodd"/><path d="M37.36,48.45l-5.6,2.22a18.78,18.78,0,0,1-4.1,3c-.39.11-1.05.12-.31-.88s1.46-2.07,1.2-2.44-1.09,0-1.39-.6c-.2-.39,1.18-.81,4.14-1.24l6.05-4.3,1.44,2Z" style="fill:#885e42;fill-rule:evenodd"/><path d="M42.13,35.67A11.4,11.4,0,0,1,41,37.79c-.67.9-6.07,8.33-8.54,9.25l1.73,3.16c2.76-.39,10.65-7.31,13.3-9.65C47.9,40.86,42.47,35,42.13,35.67Z" style="fill:#fd8b2e;fill-rule:evenodd"/><path d="M60.62,42.88l6-.3a18.87,18.87,0,0,0,5,1c.4-.07,1-.33-.08-.93s-2.2-1.28-2.11-1.73,1-.45,1-1.11c0-.45-1.41-.25-4.29.58L58.86,39l-.48,2.39Z" style="fill:#885e42;fill-rule:evenodd"/><path d="M51,33.22a11,11,0,0,0,1.93,1.45c1,.55,9,5.07,11.62,4.88l-.27,3.6c-2.68.78-12.73-2.24-16.11-3.27C46.83,42.15,48.88,31.6,51,33.22Z" style="fill:#fd8b2e;fill-rule:evenodd"/><path d="M38,55.19,37.7,70s.33,1,12.73,1S64.3,69.35,64.3,69.35V54.74a63.76,63.76,0,0,1-13.65,1.11A101.35,101.35,0,0,1,38,55.19Z" style="fill:#cbcbcb"/><circle cx="50.87" cy="63.5" r="3.57" style="fill:#010101;opacity:0.2"/><path d="M50.12,65.63A9.58,9.58,0,0,0,53,63.27a9.3,9.3,0,0,0-3.1-2.09C49.46,61.2,49.72,65.65,50.12,65.63Z" style="fill:#fff"/><path d="M88.25,53c0,2.87-.87,6.68-3.52,8.62s-4.14-.2-4.14-3.08a8.45,8.45,0,0,1,3.62-7.28C86.77,49.41,88.25,50.07,88.25,53Z" style="opacity:0.2"/><g style="clip-path:url(#b)"><path d="M84.51,57.17A8,8,0,0,0,81,63.64a15.48,15.48,0,0,0,7-5.06C88,56.15,86.73,55.58,84.51,57.17Z" style="fill:#fff"/><path d="M86.29,53.13a4.79,4.79,0,0,1-1.8,3.65c-1.1.79-2,.28-2-.93a4.34,4.34,0,0,1,1.79-3.42C85.35,51.67,86.23,51.94,86.29,53.13Z" style="fill:#fff"/></g><ellipse cx="34.17" cy="66.5" rx="0.73" ry="0.69" transform="translate(-1.16 0.61) rotate(-1.01)" style="fill:#ff074e"/><polygon points="21.95 60.62 23.47 62.25 24.13 60.12 21.95 60.62" style="fill:#efc300"/><polygon points="34.63 57.23 35.49 58.53 34.1 59.4 33.24 58.1 34.63 57.23" style="fill:#00afea"/><rect x="25.09" y="58.08" width="0.76" height="0.76" transform="translate(-36.27 74.41) rotate(-80.94)" style="fill:#4ec100"/><circle cx="30.13" cy="61.33" r="0.83" style="fill:#571c96"/><polygon points="27.86 65.63 28.47 66.56 27.48 67.19 26.86 66.25 27.86 65.63" style="fill:#ff8600"/><path d="M27.05,63.26a19.49,19.49,0,0,0,4.27.9,36.52,36.52,0,0,0,4.71.31" style="fill:none;stroke:#b1b1b1;stroke-linecap:round;stroke-linejoin:round;stroke-width:0.08412533256824976px"/><path d="M20.41,54.69a19.73,19.73,0,0,0,4,1.66A37.36,37.36,0,0,0,29,57.51" style="fill:none;stroke:#b1b1b1;stroke-linecap:round;stroke-linejoin:round;stroke-width:0.08412533256824976px"/><ellipse cx="16.93" cy="33.33" rx="0.73" ry="0.69" transform="translate(-11.68 9.27) rotate(-23.01)" style="fill:#ff074e"/><polygon points="17.67 42.75 16.73 42.1 17.43 41.13 18.37 41.78 17.67 42.75" style="fill:#00afea"/><rect x="26.69" y="34.41" width="0.76" height="0.76" transform="translate(-7.1 6.94) rotate(-12.94)" style="fill:#4ec100"/><circle cx="23" cy="36.61" r="0.83" style="fill:#571c96"/><polygon points="23.11 31.77 22.19 31.14 22.88 30.19 23.8 30.82 23.11 31.77" style="fill:#ff8600"/><path d="M24.74,33.67a19.81,19.81,0,0,0-4.29.76A36,36,0,0,0,16,35.91" style="fill:none;stroke:#b1b1b1;stroke-linecap:round;stroke-linejoin:round;stroke-width:0.08412533256824976px"/><polygon points="18.68 37.31 18.96 38.5 19.86 37.67 18.68 37.31" style="fill:#efc300"/><polygon points="75.78 55.22 76.62 55.9 75.93 56.85 75.09 56.16 75.78 55.22" style="fill:#00afea"/><polygon points="67.19 63.14 66.5 63.28 66.37 62.53 67.06 62.39 67.19 63.14" style="fill:#4ec100"/><ellipse cx="70.62" cy="61.16" rx="0.83" ry="0.77" transform="translate(6.78 129.37) rotate(-87.79)" style="fill:#571c96"/><polygon points="70.32 65.99 71.15 66.66 70.47 67.59 69.65 66.92 70.32 65.99" style="fill:#ff8600"/><path d="M68.89,64a16.59,16.59,0,0,0,4-.61,32.15,32.15,0,0,0,4.2-1.32" style="fill:none;stroke:#b1b1b1;stroke-linecap:round;stroke-linejoin:round;stroke-width:0.08090975245372437px"/><path d="M65.54,58.78a16.57,16.57,0,0,0,4-.58,32.68,32.68,0,0,0,4.21-1.28" style="fill:none;stroke:#b1b1b1;stroke-linecap:round;stroke-linejoin:round;stroke-width:0.08090975245372437px"/><polygon points="74.63 60.62 74.42 59.42 73.56 60.22 74.63 60.62" style="fill:#efc300"/></g></svg>