<svg xmlns="http://www.w3.org/2000/svg" xmlns:xlink="http://www.w3.org/1999/xlink" viewBox="0 0 100 100"><defs><clipPath id="a"><rect width="100" height="100" style="fill:none"/></clipPath><clipPath id="b"><circle cx="25.5" cy="56.55" r="30.29" style="fill:none"/></clipPath><clipPath id="c"><rect x="43.59" y="33.22" width="43.17" height="32.2" rx="12.75" style="fill:none"/></clipPath></defs><g style="clip-path:url(#a)"><path d="M15.77,47.54C16,33.21,22.82,33.11,29.52,26.09s13.48-7,24.59-7.77,19.41-2.59,25.41.9,13.62,7.35,13.42,19.16c-.17,9.32,5.51,19.75-1.3,28.48S77.33,80,63.17,79.8s-26.53,7.12-39.62-8.39C19.63,66.77,15.52,61.88,15.77,47.54Z" style="fill:#f5f5f5"/><circle cx="25.5" cy="56.55" r="30.29" style="fill:none"/><g style="clip-path:url(#b)"><path d="M19.42,39.77c3.35-1.86,11-2.38,14.88.28S33.48,45.2,37,47.18s2.88,4.69,2,7.68-1.27,6.24,2,7.86,4.27,5.52,2.1,7.59S33.73,73,25.69,72.8C18,72.57,11.07,71.49,9.21,69.68s-2.33-5.79.9-7.38,3.2-4.71,2.42-7.15a6.59,6.59,0,0,1,2.54-7.52C17.85,45.64,16.08,41.62,19.42,39.77Z" style="fill:#003261;fill-rule:evenodd"/><path d="M41.53,80.18l.86,8.93a19.68,19.68,0,0,1,1.81,5c0,.42-.18,1.08-1,.05s-1.66-2.07-2.11-1.91-.33,1.09-1,1.22q-.69.12-.05-4.52l-2.57-7.33Z" style="fill:#977659;fill-rule:evenodd"/><path d="M29.73,66.55c2.43,4.58,7.05,11.66,9.1,21.52L43,87c.43-3.33-3.14-15-5.48-19.27s-5.23-7.8-6.33-7.8S29.6,61,28.5,62.72a1.29,1.29,0,0,0-.08,1.35l1.3,2.49Z" style="fill:#adb7c3;fill-rule:evenodd"/><path d="M9.48,80.18l-.86,8.93a19.3,19.3,0,0,0-1.81,5c0,.42.18,1.08,1,.05s1.67-2.07,2.12-1.91.33,1.09,1,1.22c.46.08.48-1.43,0-4.52l2.58-7.33Z" style="fill:#977659;fill-rule:evenodd"/><path d="M21.28,66.55c-2.43,4.58-7,11.66-9.1,21.52L8,87c-.43-3.33,3.14-15,5.48-19.27s5.09-7.79,6.5-7.79,1.42,1,2.51,2.8a1.26,1.26,0,0,1,.09,1.35l-1.3,2.49Z" style="fill:#adb7c3;fill-rule:evenodd"/><path d="M24.27,54a11.64,11.64,0,0,1-3.81-8c-.16-9.18,12.73-8.29,15.6-3.9s2,10.74.5,12.94-4.45,4-7.36,2.53l.3,3.7-7.32,9.5Z" style="fill:#b08967;fill-rule:evenodd"/><path d="M29.83,38.31c-1.37-.1-5,.07-5.69.13a14.57,14.57,0,0,0-1.83.31c-5.22,1.43-6.74,8.18-4.81,12.87,1,2.54,3.93,8.29,6,8.28.24-2,2.19-6.71,1.66-7.42-1-1.36-1.5-3.18.08-4.33,1.36-1,3.05.93,3.08.93a22.81,22.81,0,0,0,5.59-3.51c1.55-1.53,2.7-3.44,2-4.64S31.72,38.46,29.83,38.31Z" style="fill:#003261;fill-rule:evenodd"/><path d="M16.25,39a3,3,0,0,0,2.06,2.22s.44.35,2.19-.49A6.22,6.22,0,0,0,22.87,39a2.83,2.83,0,0,0,.33-2.91c-.66-1.88-2.7-1.61-4.36-.89S15.81,37.22,16.25,39Z" style="fill:#003261;fill-rule:evenodd"/><path d="M35.43,48.13a10.13,10.13,0,0,0,.47,3.17,4.19,4.19,0,0,0,1.22,1.53.39.39,0,0,1,.09.62.49.49,0,0,1-.74,0,3.68,3.68,0,0,1-1.16-1.86A7.5,7.5,0,0,1,35.43,48.13Z" style="fill-rule:evenodd;opacity:0.2"/><path d="M31.19,59.91c-1.05,0-10.15,0-11.2,0-5.12,2.91-8.22,21.44-6.46,29.2,2.12-.07,21.67.37,23.79.43C39.07,81.79,36.32,62.81,31.19,59.91Z" style="fill:#c3cdd4;fill-rule:evenodd"/></g><path d="M26.76,46c-.59.08-1.45.58-2.85,1.92-2.42,2.32-4.34,5.1-3.75,5.71s3.44-1.18,5.87-3.5c1.39-1.34,1.94-2.17,2-2.76l-.13-1.26Z" style="fill:#efc300"/><path d="M27.69,44.8,28.05,46l1.1.35a2.06,2.06,0,0,0,2.25-1.14,2.77,2.77,0,0,0-.22-3c-.38.68-.59.6-1.42.78S27.71,43.79,27.69,44.8Z" style="fill:#b08967"/><path d="M28.6,45.75l.55.58a2.06,2.06,0,0,0,2.25-1.14,2.77,2.77,0,0,0-.22-3C31.7,44.29,29.27,45.43,28.6,45.75Z" style="opacity:0.2"/><path d="M30.88,45.84a3,3,0,0,0,.52-.65,2.77,2.77,0,0,0-.22-3c-.38.68-.59.6-1.42.78l-.44.12a.69.69,0,0,1-.08.52,2.75,2.75,0,0,1,1,.6.93.93,0,0,1,.18.32C30.52,44.94,30.44,45.38,30.88,45.84Z" style="fill:#ff8600"/><path d="M30.88,45.84a3,3,0,0,0,.52-.65,2.77,2.77,0,0,0-.22-3,2.35,2.35,0,0,1-.77,2.34C30.52,44.94,30.44,45.38,30.88,45.84Z" style="opacity:0.2"/><path d="M26.66,45.88l1.5,1.57a.32.32,0,0,0,.45,0l.62-.59a.32.32,0,0,0,0-.45l-1.51-1.57a.31.31,0,0,0-.44,0l-.62.6A.31.31,0,0,0,26.66,45.88Z" style="fill:#c3cdd4"/><path d="M28.62,46.24l-.62.59a.31.31,0,0,1-.44,0l.6.63a.32.32,0,0,0,.45,0l.62-.59a.33.33,0,0,0,0-.45l-.61-.63A.32.32,0,0,1,28.62,46.24Z" style="opacity:0.2"/><path d="M25.5,49.56A11.65,11.65,0,0,0,27.74,47l.33.34c-.1.59-.65,1.42-2,2.76-2.43,2.32-5.29,4.12-5.87,3.5C20.45,53.92,23.07,51.88,25.5,49.56Z" style="opacity:0.2"/><path d="M25,52.17a2.87,2.87,0,0,1-.63-1.66,2.33,2.33,0,0,1,.7-1.56,2.63,2.63,0,0,1,1.74-.74,1.61,1.61,0,0,1,1.33.81" style="fill:#b08967"/><path d="M34.6,39.8a9.57,9.57,0,0,0,1.54,6c2,3.25,3.24,3.77,2.62,2.87s-.21-3.86-1.57-6.07A7.21,7.21,0,0,0,34.6,39.8Z" style="fill:#003261;fill-rule:evenodd"/><rect x="42.79" y="33.37" width="46.27" height="35.29" rx="12.75" style="opacity:0.2"/><rect x="42.06" y="31.94" width="46.27" height="35.29" rx="12.75" style="fill:#ffbe8d"/><g style="clip-path:url(#c)"><rect x="43.65" y="33.19" width="43.12" height="32.09" style="fill:#fff;isolation:isolate"/><rect x="43.65" y="33.28" width="43.12" height="32.09" style="fill:#00afea;isolation:isolate;opacity:0.300000011920929"/><path d="M58,57.69c-5.44,0-6.32.45-8.54,1.46a13.36,13.36,0,0,0-5,3.76,3.77,3.77,0,0,0-.72,2.44l22.47,0,8.76,0a7.79,7.79,0,0,0-2.72-4.2,17.6,17.6,0,0,0-6-2.69A34.48,34.48,0,0,0,58,57.69Z" style="fill:#a6cd39"/><rect x="57.41" y="54.88" width="0.28" height="3.06" style="fill:#3e3d56"/><path d="M58.56,55.26a1.07,1.07,0,0,0-.21-.64,1.06,1.06,0,0,0-.18-1.44,1,1,0,0,0-1.4.17,1,1,0,0,0-.21.62h0a1,1,0,0,0,.2.64,1.06,1.06,0,0,0,.18,1.44,1,1,0,0,0,1.4-.17,1,1,0,0,0,.21-.62h0Z" style="fill:#61a432"/><path d="M56.56,55.12a1.08,1.08,0,0,1,.2-.5,1,1,0,0,1,.18-1.44,1,1,0,0,1,1.4.17,1.1,1.1,0,0,1,.2.82A14.87,14.87,0,0,1,56.56,55.12Z" style="fill:#447021"/><rect x="52.95" y="55.33" width="0.28" height="3.06" style="fill:#3e3d56"/><path d="M54.1,55.7a1.09,1.09,0,0,0-.21-.64,1.06,1.06,0,0,0-.17-1.44,1,1,0,0,0-1.41.17,1,1,0,0,0-.21.62h0a1.06,1.06,0,0,0,.2.64,1.07,1.07,0,0,0,.18,1.45,1,1,0,0,0,1.4-.18,1.06,1.06,0,0,0,.22-.61h0Z" style="fill:#61a432"/><path d="M52.11,55.56a1.1,1.1,0,0,1,.19-.5,1,1,0,0,1,.18-1.44,1,1,0,0,1,1.4.17,1.12,1.12,0,0,1,.2.83A14.68,14.68,0,0,1,52.11,55.56Z" style="fill:#447021"/><rect x="55.18" y="55.6" width="0.28" height="3.06" style="fill:#3e3d56"/><path d="M56.32,56a1,1,0,0,0-.2-.64,1.06,1.06,0,0,0-.18-1.44,1,1,0,0,0-1.4.17,1,1,0,0,0-.21.61h0a1,1,0,0,0,.2.64,1.06,1.06,0,0,0,.18,1.44,1,1,0,0,0,1.4-.17,1,1,0,0,0,.21-.62h0Z" style="fill:#61a432"/><path d="M54.33,55.84a1.08,1.08,0,0,1,.2-.5,1,1,0,0,1,.18-1.44,1,1,0,0,1,1.4.17,1.09,1.09,0,0,1,.2.82A14.87,14.87,0,0,1,54.33,55.84Z" style="fill:#447021"/><path d="M52.25,50.23h0a.48.48,0,0,0-.19-.27.81.81,0,0,0-.42-.14.09.09,0,0,1-.08,0,.29.29,0,0,0-.07-.12.7.7,0,0,0-.19-.15l-.1,0-.1,0a.65.65,0,0,0-.3.06l-.15.12a.62.62,0,0,0-.1.22s0,0,0,0a.61.61,0,0,0-.14-.07.57.57,0,0,0-.46.07.47.47,0,0,0-.2.29s0,0,0,0a.31.31,0,0,0-.25.35h0a.37.37,0,0,0,.37.25H51.7a.4.4,0,0,0,.19,0,.56.56,0,0,0,.34-.33.15.15,0,0,0,0-.09h0A.07.07,0,0,0,52.25,50.23Z" style="fill:#fff"/><path d="M53.91,36.91h0a.85.85,0,0,0-.34-.47,1.35,1.35,0,0,0-.73-.24.14.14,0,0,1-.14-.1.67.67,0,0,0-.12-.2,1.06,1.06,0,0,0-.34-.26l-.17,0a.25.25,0,0,0-.17,0,.92.92,0,0,0-.52.1,1.39,1.39,0,0,0-.27.21.83.83,0,0,0-.17.38s0,0-.07,0a.62.62,0,0,0-.26-.12,1,1,0,0,0-.79.11.89.89,0,0,0-.36.51s0,0-.06,0a.55.55,0,0,0-.44.61s0,0,0,0a.66.66,0,0,0,.64.45H53a1,1,0,0,0,.92-.64.2.2,0,0,0,0-.15v0A.14.14,0,0,0,53.91,36.91Z" style="fill:#fff"/><path d="M58.16,46.19h0A.33.33,0,0,0,58,46a.54.54,0,0,0-.3-.1s0,0-.06,0a.2.2,0,0,0,0-.08.49.49,0,0,0-.14-.11l-.07,0h-.07a.36.36,0,0,0-.21,0,.31.31,0,0,0-.11.09.26.26,0,0,0-.07.15s0,0,0,0l-.11,0a.37.37,0,0,0-.32,0,.32.32,0,0,0-.14.2s0,0,0,0a.22.22,0,0,0-.18.25h0a.25.25,0,0,0,.26.18h1.37a.31.31,0,0,0,.13,0,.38.38,0,0,0,.24-.24s0,0,0,0v0A.06.06,0,0,0,58.16,46.19Z" style="fill:#fff"/><path d="M48.27,42h0a.42.42,0,0,0-.16-.21.6.6,0,0,0-.34-.11.06.06,0,0,1-.06,0s0-.07-.06-.09a.48.48,0,0,0-.16-.12l-.07,0h-.08a.39.39,0,0,0-.24,0,.38.38,0,0,0-.12.09.44.44,0,0,0-.09.18s0,0,0,0a.24.24,0,0,0-.11-.06.44.44,0,0,0-.37.05.4.4,0,0,0-.16.24l0,0a.25.25,0,0,0-.21.28h0a.31.31,0,0,0,.3.21h1.54a.41.41,0,0,0,.16,0,.45.45,0,0,0,.27-.27s0,0,0-.06v0A.06.06,0,0,0,48.27,42Z" style="fill:#fff"/><path d="M60.75,51.14h0a.27.27,0,0,1,.12-.17.47.47,0,0,1,.26-.08.1.1,0,0,0,0,0,.16.16,0,0,1,0-.07.27.27,0,0,1,.12-.09l.06,0a.07.07,0,0,1,.06,0,.4.4,0,0,1,.19,0l.09.08a.31.31,0,0,1,.06.13s0,0,0,0a.19.19,0,0,1,.09,0,.31.31,0,0,1,.28,0,.26.26,0,0,1,.12.18h0a.2.2,0,0,1,.16.22h0a.23.23,0,0,1-.23.16H61.09l-.12,0a.36.36,0,0,1-.21-.21.07.07,0,0,1,0,0h0A0,0,0,0,1,60.75,51.14Z" style="fill:#fff"/><path d="M64.09,40.68h0a.84.84,0,0,0-.34-.46A1.32,1.32,0,0,0,63,40a.14.14,0,0,1-.14-.1.78.78,0,0,0-.11-.2,1.1,1.1,0,0,0-.35-.26l-.17,0a.25.25,0,0,0-.17,0,1,1,0,0,0-.52.1,1.33,1.33,0,0,0-.26.21.89.89,0,0,0-.18.38s0,0-.07,0a.72.72,0,0,0-.25-.12A1,1,0,0,0,60,40a.88.88,0,0,0-.35.51s0,0-.06.05a.54.54,0,0,0-.44.62h0a.63.63,0,0,0,.64.44h3.34a.79.79,0,0,0,.34-.06A1,1,0,0,0,64,41a.18.18,0,0,0,0-.14v0A.18.18,0,0,0,64.09,40.68Z" style="fill:#fff"/><path d="M48.13,55.13h0a.36.36,0,0,0-.13-.19.63.63,0,0,0-.3-.1.05.05,0,0,1-.06,0,.14.14,0,0,0,0-.08.53.53,0,0,0-.14-.11l-.07,0h-.07a.39.39,0,0,0-.21,0l-.11.09a.41.41,0,0,0-.07.15s0,0,0,0l-.1,0a.4.4,0,0,0-.32,0,.36.36,0,0,0-.15.21s0,0,0,0a.21.21,0,0,0-.18.25h0a.26.26,0,0,0,.26.18h1.36a.35.35,0,0,0,.14,0,.37.37,0,0,0,.24-.23.13.13,0,0,0,0-.06h0S48.15,55.15,48.13,55.13Z" style="fill:#fff"/><path d="M66,46.89h0a.55.55,0,0,1,.2-.27.78.78,0,0,1,.42-.14.09.09,0,0,0,.08,0,.45.45,0,0,1,.06-.12,1,1,0,0,1,.2-.15l.1,0,.1,0a.65.65,0,0,1,.3.06l.15.12a.62.62,0,0,1,.1.22s0,0,0,0a.61.61,0,0,1,.14-.07.57.57,0,0,1,.46.07.47.47,0,0,1,.2.29s0,0,0,0a.31.31,0,0,1,.25.35s0,0,0,0a.37.37,0,0,1-.37.25H66.54a.46.46,0,0,1-.2,0,.57.57,0,0,1-.33-.33A.15.15,0,0,1,66,47h0A.1.1,0,0,1,66,46.89Z" style="fill:#fff"/><path d="M72.92,40.64h0a.79.79,0,0,1,.34-.46,1.21,1.21,0,0,1,.73-.24.16.16,0,0,0,.14-.11,1.28,1.28,0,0,1,.11-.2,1.1,1.1,0,0,1,.35-.26l.17,0a.25.25,0,0,1,.17,0,1,1,0,0,1,.52.1,1.39,1.39,0,0,1,.27.21.93.93,0,0,1,.17.38c0,.05,0,.05.07,0a1.15,1.15,0,0,1,.25-.12A1,1,0,0,1,77,40a.94.94,0,0,1,.35.52s0,0,.06,0a.56.56,0,0,1,.45.62s0,0,0,0a.65.65,0,0,1-.64.44H73.88a.72.72,0,0,1-.33-.06A.94.94,0,0,1,73,41a.18.18,0,0,1,0-.14v0A.14.14,0,0,1,72.92,40.64Z" style="fill:#fff"/><path d="M66.81,36.79h0A.45.45,0,0,1,67,36.6a.53.53,0,0,1,.3-.09s0,0,.06,0a.18.18,0,0,1,0-.08.36.36,0,0,1,.14-.1l.06,0h.08a.39.39,0,0,1,.21,0l.11.09a.41.41,0,0,1,.07.15s0,0,0,0l.11-.05a.4.4,0,0,1,.32.05.36.36,0,0,1,.15.21l0,0a.22.22,0,0,1,.18.25h0a.26.26,0,0,1-.26.18H67.21a.32.32,0,0,1-.14,0,.37.37,0,0,1-.24-.23.13.13,0,0,1,0-.06h0A.06.06,0,0,1,66.81,36.79Z" style="fill:#fff"/><path d="M82.78,41.11h0a.42.42,0,0,1,.16-.21.58.58,0,0,1,.34-.11.06.06,0,0,0,.06,0,.73.73,0,0,1,0-.09.52.52,0,0,1,.17-.12l.07,0h.08a.39.39,0,0,1,.24,0,.38.38,0,0,1,.12.09.42.42,0,0,1,.08.18s0,0,0,0a.34.34,0,0,1,.12-.06.53.53,0,0,1,.37.05.4.4,0,0,1,.16.24l0,0a.24.24,0,0,1,.2.28h0a.3.3,0,0,1-.29.21H83.23a.41.41,0,0,1-.16,0,.45.45,0,0,1-.27-.27s0,0,0-.06v0A.09.09,0,0,1,82.78,41.11Z" style="fill:#fff"/><path d="M78.7,35.62h0a.33.33,0,0,0-.12-.17.45.45,0,0,0-.26-.08.05.05,0,0,1,0,0,.25.25,0,0,0,0-.07.27.27,0,0,0-.12-.09l-.06,0H78a.28.28,0,0,0-.18,0l-.1.07a.3.3,0,0,0-.06.14h0l-.09,0a.37.37,0,0,0-.29,0,.32.32,0,0,0-.12.18l0,0a.19.19,0,0,0-.16.22h0a.24.24,0,0,0,.23.15h1.18a.25.25,0,0,0,.12,0,.35.35,0,0,0,.21-.2.11.11,0,0,0,0-.05v0A0,0,0,0,0,78.7,35.62Z" style="fill:#fff"/><path d="M65.35,52.48h0a.84.84,0,0,1,.34-.46,1.32,1.32,0,0,1,.74-.25.14.14,0,0,0,.14-.1.78.78,0,0,1,.11-.2,1.1,1.1,0,0,1,.35-.26l.17-.05a.25.25,0,0,1,.17,0,1,1,0,0,1,.52.1,1.33,1.33,0,0,1,.26.21.89.89,0,0,1,.18.38s0,0,.07,0a.72.72,0,0,1,.25-.12,1,1,0,0,1,.8.11.88.88,0,0,1,.35.51s0,0,.06,0a.54.54,0,0,1,.44.62h0a.63.63,0,0,1-.64.44H66.32a.79.79,0,0,1-.34-.06,1,1,0,0,1-.58-.58.18.18,0,0,1,0-.14v0A.18.18,0,0,1,65.35,52.48Z" style="fill:#fff"/><path d="M73.82,56h0a.45.45,0,0,1,.14-.19.63.63,0,0,1,.3-.1.05.05,0,0,0,.06,0,.14.14,0,0,1,.05-.08.36.36,0,0,1,.14-.1l.07,0h.07a.39.39,0,0,1,.21,0l.11.09a.41.41,0,0,1,.07.15s0,0,0,0l.11-.05a.4.4,0,0,1,.32.05.36.36,0,0,1,.15.21s0,0,0,0a.22.22,0,0,1,.18.25h0a.26.26,0,0,1-.26.18H74.22a.35.35,0,0,1-.14,0,.37.37,0,0,1-.24-.23.13.13,0,0,1,0-.06h0A.06.06,0,0,1,73.82,56Z" style="fill:#fff"/><path d="M75.71,60.08A13.77,13.77,0,0,1,80,60.6a23.9,23.9,0,0,1,3.29,1.45,9.06,9.06,0,0,1,2.91,2.28,2.88,2.88,0,0,1,.59,1l-15.31,0-4.55,0a6,6,0,0,1,1.41-2.89,8.17,8.17,0,0,1,3.14-1.86A13.77,13.77,0,0,1,75.71,60.08Z" style="fill:#447021"/><path d="M84.46,56.73h0a.46.46,0,0,0-.19-.26.73.73,0,0,0-.42-.14.08.08,0,0,1-.08-.06.47.47,0,0,0-.07-.12.62.62,0,0,0-.2-.15l-.09,0a.17.17,0,0,0-.1,0,.61.61,0,0,0-.3,0,.93.93,0,0,0-.15.13.41.41,0,0,0-.1.21s0,0,0,0a.26.26,0,0,0-.15-.07.51.51,0,0,0-.45.06.48.48,0,0,0-.2.29s0,0,0,0a.31.31,0,0,0-.25.35h0a.39.39,0,0,0,.37.26h1.91a.41.41,0,0,0,.19,0,.53.53,0,0,0,.34-.33.11.11,0,0,0,0-.08v0A.08.08,0,0,0,84.46,56.73Z" style="fill:#fff"/><path d="M79,46.18h0a.28.28,0,0,1,.12-.16.39.39,0,0,1,.26-.09.05.05,0,0,0,0,0,.25.25,0,0,1,0-.07.27.27,0,0,1,.12-.09l.06,0h.06a.27.27,0,0,1,.18,0l.1.07A.3.3,0,0,1,80,46h0l.09,0a.37.37,0,0,1,.29,0,.32.32,0,0,1,.12.18l0,0a.19.19,0,0,1,.16.22h0a.24.24,0,0,1-.23.15H79.33a.25.25,0,0,1-.12,0,.35.35,0,0,1-.21-.2.11.11,0,0,1,0,0v0A0,0,0,0,1,79,46.18Z" style="fill:#fff"/><path d="M75.7,50.58h0a.44.44,0,0,0-.17-.23.61.61,0,0,0-.37-.12s0,0-.07,0a.23.23,0,0,0,0-.1.46.46,0,0,0-.18-.13l-.08,0a.14.14,0,0,0-.09,0,.47.47,0,0,0-.26.05l-.13.1a.48.48,0,0,0-.09.19s0,0,0,0a.31.31,0,0,0-.13-.06.48.48,0,0,0-.4.06.41.41,0,0,0-.17.25l0,0a.26.26,0,0,0-.22.3h0a.32.32,0,0,0,.32.23h1.67a.41.41,0,0,0,.16,0,.48.48,0,0,0,.3-.29.11.11,0,0,0,0-.08h0A.11.11,0,0,0,75.7,50.58Z" style="fill:#fff"/></g></g></svg>