<svg xmlns="http://www.w3.org/2000/svg" xmlns:xlink="http://www.w3.org/1999/xlink" viewBox="0 0 100 100"><defs><clipPath id="a"><rect width="100" height="100" style="fill:none"/></clipPath><linearGradient id="b" x1="12.64" y1="87.06" x2="16.48" y2="87.06" gradientUnits="userSpaceOnUse"><stop offset="0" stop-color="#293680"/><stop offset="1" stop-color="#201c3f"/></linearGradient><linearGradient id="c" x1="22.25" y1="82.54" x2="8.29" y2="93.5" gradientUnits="userSpaceOnUse"><stop offset="0" stop-color="#6cc8ef"/><stop offset="1" stop-color="#3b519e"/></linearGradient><linearGradient id="d" x1="24.73" y1="85.7" x2="10.77" y2="96.66" xlink:href="#c"/><linearGradient id="e" x1="18.48" y1="87.17" x2="24.01" y2="87.17" xlink:href="#b"/><linearGradient id="f" x1="-1989.6" y1="-550.66" x2="-1983.67" y2="-550.66" gradientTransform="translate(1778.03 -1028.4) rotate(-46.73)" xlink:href="#b"/><linearGradient id="g" x1="15.24" y1="63.89" x2="13.27" y2="67.39" xlink:href="#b"/></defs><g style="clip-path:url(#a)"><path d="M95.32,52.76c0,16.56-2.15,23.61-9.74,31.86S59,94.81,46.22,95.87A35.91,35.91,0,0,1,17.61,85.43c-5.48-5.75-15.82-20.35-15.82-34,0-10.77,8.85-7.94,16.54-18.15S29.86,7,46.22,7,74.63,22.13,78.5,28,95.32,36.2,95.32,52.76Z" style="fill:#fff"/><path d="M17.22,17.89c-.27,10.88-1.15,48.4-.73,61.69a2.67,2.67,0,0,0,2.58,2.59c7,.22,27,.8,38.4.32a4.5,4.5,0,0,0,4.31-4.39c.24-11.42.76-43.53-.48-58.24A3.67,3.67,0,0,0,58,16.52c-7.59-.76-27.74-2.61-37.58-2A3.43,3.43,0,0,0,17.22,17.89Z" style="fill:#00afea"/><path d="M20.05,21.27c-.38,8.91-1.58,38.54-1.2,49.5a3.1,3.1,0,0,0,2.92,3c6.58.39,23.48,1.24,33.14.46a3.48,3.48,0,0,0,3.2-3.28c.49-9.09,1.89-36.69,1.53-47.52a3.42,3.42,0,0,0-3.12-3.29c-7.13-.64-25.43-2.17-33.64-1.72A3,3,0,0,0,20.05,21.27Z" style="fill:#fff8fb"/><path d="M39.24,81.1a3,3,0,1,1,3-3A3,3,0,0,1,39.24,81.1Zm0-5.71A2.74,2.74,0,1,0,42,78.12,2.74,2.74,0,0,0,39.24,75.39Z" style="fill:#fff;opacity:0.65"/><path d="M34.43,16.45h0a.62.62,0,0,0,.6.62l8.35.45a.62.62,0,0,0,.65-.74v-.07a.66.66,0,0,0-.56-.51A82.7,82.7,0,0,0,35,15.82.63.63,0,0,0,34.43,16.45Z" style="fill:#fff;opacity:0.5"/><rect x="83.56" y="77.58" width="0.89" height="9.64" style="fill:#522c86"/><path d="M80.65,86.82h6.71a.55.55,0,0,1,.55.55v0a0,0,0,0,1,0,0H80.11a0,0,0,0,1,0,0v0A.55.55,0,0,1,80.65,86.82Z" style="fill:#522c86"/><rect x="79.26" y="75.42" width="9.81" height="2.78" rx="0.96" style="fill:#522c86"/><path d="M77.43,71.15a7.8,7.8,0,0,0-2.81,1.2.73.73,0,0,0-.33.71,31.51,31.51,0,0,0,3.33,10.45,1.14,1.14,0,0,1,.1.77l-.42,2-.77.73h2l1.34-3.61-.57-.18a1.08,1.08,0,0,1-.76-1l-.07-3.88a4.41,4.41,0,0,0-1-2.92l3.2-.15Z" style="fill:#cc997e"/><path d="M77.43,71.15a7.8,7.8,0,0,0-2.81,1.2.73.73,0,0,0-.33.71,31.51,31.51,0,0,0,3.33,10.45,1.14,1.14,0,0,1,.1.77l-.42,2-.77.73h2l1.34-3.61-.57-.18a1.08,1.08,0,0,1-.76-1l-.07-3.88a4.41,4.41,0,0,0-1-2.92l3.2-.15Z" style="opacity:0.05"/><path d="M75.74,87.32c-.18.24,2,.55,3.05,0,0,0,1.51-2.62,1.51-4,0,0-.12-.27-1-.21,0,0-.51,3.1-1,3.45a2.18,2.18,0,0,1-1.5,0A3.06,3.06,0,0,0,75.74,87.32Z" style="fill:#733888"/><path d="M80.21,75.42S76.76,75,76.76,75a7.78,7.78,0,0,1-.23,2.48c-.36,1.43-5.39,7.66-5.39,7.66l.52,1.67a8.48,8.48,0,0,1-4.82.29l3.28-2s3.06-10.45,4.94-12.31l3.44-1.19Z" style="fill:#cc997e"/><path d="M87.91,69.34s2,2.94,2.14,4.28-.54,1.89-2.62,2-7.61.09-7.61.09l-4.73-4s3.45-1.23,4.34-1.58S87.91,69.34,87.91,69.34Z" style="fill:#f08318"/><path d="M71.46,86.26a1,1,0,0,1,.19,1.16s-4.51.8-5.73.44c0,0,.25-.58,1.63-1.24l-.1.08a.16.16,0,0,0,.11.29A12.73,12.73,0,0,0,71.46,86.26Z" style="fill:#733888"/><path d="M82.56,69a44.86,44.86,0,0,1-3.43-3.64,3.05,3.05,0,0,1-.52-2.78,35.33,35.33,0,0,1,1.52-3.83c.12-.43,2.71-.41,2.71-.41a19.78,19.78,0,0,1,7.07,8.88l-2.24.7A25.8,25.8,0,0,0,85,64.23s2.27,3,2.35,4.22Z" style="fill:#e8463a"/><path d="M79.81,56.29c0,.09.71,2.33.76,2.37a3.71,3.71,0,0,0,2.15-.33L81.58,56Z" style="fill:#cc997e"/><path d="M80.92,51.6a4.56,4.56,0,0,0-2,2.27c-.83,1.76-.21,2.57.56,2.69a3.64,3.64,0,0,0,3.17-1.05C83.84,54.38,82.5,51,80.92,51.6Z" style="fill:#cc997e"/><path d="M81.78,54.58S82.7,52,80.42,52l-.54.38a1.47,1.47,0,0,1,.54-2.11,2.93,2.93,0,0,1,4,1.78c.58,1.85.24,3-.73,3.93s-1.38-.12-1.38-.12.53-.83.32-1.27-.71.09-.71.09Z" style="fill:#efc200"/><path d="M82,54.86s.46-1.32,1.08-.8-.5,1.23-.94,1.45Z" style="fill:#cc997e"/><path d="M77.87,69.11l1.69-1.63,2.34,1a11.61,11.61,0,0,0,3.67,0l1.33-.36,3-.94.48,1.34a.81.81,0,0,1-.3.93,5.88,5.88,0,0,1-.76.47c-.39.17-9.78-.12-9.78-.12Z" style="fill:#cc997e"/><path d="M84.25,52.31a.52.52,0,0,1,.31-.87c1.34-.21,3.37,0,4.23,2.86,1,3.23,1.59,4.84,2.24,5.12a.52.52,0,0,1,0,1,2.24,2.24,0,0,1-1.4,0C84.73,59.35,86,54.06,84.25,52.31Z" style="fill:#efc200"/><path d="M84.27,69.88H74.44a.43.43,0,0,1-.44-.44.44.44,0,0,1,.44-.44h9.81a.44.44,0,0,1,.44.44A.43.43,0,0,1,84.27,69.88Z" style="fill:#cac9c9"/><path d="M84.27,69.88H74.44a.43.43,0,0,1-.44-.44.44.44,0,0,1,.44-.44h9.81a.44.44,0,0,1,.44.44A.43.43,0,0,1,84.27,69.88Z" style="opacity:0.2"/><path d="M65.61,61h8.18a1.56,1.56,0,0,1,1.41.9l3.78,8H68.82a.94.94,0,0,1-.88-.6L65,61.86A.65.65,0,0,1,65.61,61Z" style="fill:#cac9c9"/><path d="M71.37,65.08c.18.55,0,1.08-.29,1.19s-.76-.24-.93-.8-.05-1.08.29-1.19S71.2,64.53,71.37,65.08Z" style="opacity:0.2"/><path d="M98,70.24a.35.35,0,0,0-.08-.31.42.42,0,0,0-.32-.14H56.64a.47.47,0,0,0-.39.2.4.4,0,0,0,0,.42l.44.9a.61.61,0,0,0,.56.34H97.31a.47.47,0,0,0,.47-.36Z" style="fill:#233552"/><path d="M58.93,89.22l-.14,0a.38.38,0,0,1-.19-.48l7.54-17.93a.36.36,0,0,1,.47-.2.37.37,0,0,1,.19.49L59.26,89A.35.35,0,0,1,58.93,89.22Z" style="fill:#233552"/><path d="M67.43,89.22A.35.35,0,0,1,67.1,89L59.56,71.07a.37.37,0,0,1,.19-.49.36.36,0,0,1,.47.2l7.54,17.93a.38.38,0,0,1-.19.48Z" style="fill:#233552"/><path d="M88.62,89.22a.32.32,0,0,1-.14,0,.36.36,0,0,1-.19-.48l7.54-17.93a.35.35,0,0,1,.47-.2.39.39,0,0,1,.19.49L89,89A.36.36,0,0,1,88.62,89.22Z" style="fill:#233552"/><path d="M97.11,89.22a.36.36,0,0,1-.33-.22L89.24,71.07a.38.38,0,0,1,.19-.49.36.36,0,0,1,.47.2l7.54,17.93a.37.37,0,0,1-.19.48A.32.32,0,0,1,97.11,89.22Z" style="fill:#233552"/><path d="M28.29,44.07a.38.38,0,0,1,0-.57l20.19-18a.18.18,0,0,1,.21,0h0a.19.19,0,0,1,0,.31L28.82,44.08a.38.38,0,0,1-.53,0Z" style="fill:#233980"/><path d="M16.48,88.43a.28.28,0,0,0,0-.09c-.43-1.71-2.58-2.78-2.58-2.78l-.85.07a6,6,0,0,0-.35,2.85,0,0,0,0,1,0,0A20,20,0,0,0,16.48,88.43Z" style="fill:url(#b)"/><path d="M12.7,88.51a.35.35,0,0,0,.27.27,11.57,11.57,0,0,0,3.25,0,.31.31,0,0,0,.26-.31A20,20,0,0,1,12.7,88.51Z" style="fill:url(#c)"/><path d="M9.34,58.1a7.85,7.85,0,0,1-1.85,1.34,15.63,15.63,0,0,0,3.37,3l.42.93,1.33-1.6A7.23,7.23,0,0,1,9.34,58.1Z" style="fill:#cc997e"/><path d="M12.7,84.36l.36,1.74a.29.29,0,0,0,.24.23,2.68,2.68,0,0,0,.56,0,.35.35,0,0,0,.28-.42l-.25-1.54Z" style="fill:#cc997e"/><path d="M20.16,88.49a5.15,5.15,0,0,1-1.68-.23,2.72,2.72,0,0,0,0,.28.18.18,0,0,0,.17.19l5.16,0a.24.24,0,0,0,.19-.35A35.1,35.1,0,0,1,20.16,88.49Z" style="fill:url(#d)"/><path d="M24,88.35l0,0a6.59,6.59,0,0,0-3.91-2.46l-1.1,0a5.28,5.28,0,0,0-.5,2.43,5.15,5.15,0,0,0,1.68.23A35.1,35.1,0,0,0,24,88.35Z" style="fill:url(#e)"/><path d="M18.78,84.16c0,.08.16,1.33.22,1.81a.24.24,0,0,0,.2.22,2.79,2.79,0,0,0,.76,0,.33.33,0,0,0,.24-.33V83.9Z" style="fill:#cc997e"/><path d="M17.9,61.44a97.77,97.77,0,0,1,2.6,22.75.49.49,0,0,1-.39.48,5.78,5.78,0,0,1-1.23.14.44.44,0,0,1-.43-.38C18.08,82.25,15.94,70,14.73,68c0,0-.8,10.94-.55,16.61a.26.26,0,0,1-.23.28,5.32,5.32,0,0,1-1,0,.36.36,0,0,1-.32-.31,163.85,163.85,0,0,1-1.72-20.74,11.92,11.92,0,0,1,1.18-2.38Z" style="fill:#1c355c"/><path d="M22,47.87a10.36,10.36,0,0,0-2-2.94c-2.95.54-7.79,1-9.81,1.27a2.58,2.58,0,0,0-1.62.87c-1.64,1.9-5.26,7.12-1,12.37A7.85,7.85,0,0,0,9.34,58.1,6.52,6.52,0,0,1,9.81,53c0,.16.08.33.13.49a30.28,30.28,0,0,1,1.43,8.71.26.26,0,0,0,.17.25c1.79.72,5.23.29,6.38.12a.39.39,0,0,0,.33-.44c-.57-4.11,2.34-10.87,3.11-12.56a1.09,1.09,0,0,1,.56-.56l.37-.17C22.19,48.51,22.09,48.19,22,47.87Z" style="fill:#522c86"/><path d="M13.21,42.25,13,45.92a.24.24,0,0,0,.17.23,4,4,0,0,0,2.88-.29.35.35,0,0,0,.16-.41l-.93-3.3Z" style="fill:#cc997e"/><path d="M15.51,38.23c.05.05,2,3.9,2,3.9L15.3,43.21l-2.41-3.38S14.71,37.48,15.51,38.23Z" style="fill:#cc997e"/><path d="M13.88,39.92a.4.4,0,0,0,0,.32L15,42.09l.06.07a.59.59,0,0,0,.94,0,3,3,0,0,1,.88-.95.34.34,0,0,1,.47.16,12,12,0,0,1,.76,1.8.35.35,0,0,1-.2.43,10,10,0,0,1-2.13.62.35.35,0,0,1-.34-.14c-.34-.47-1.3-1.77-1.63-2.09s-.86-.19-1.11-.12a.37.37,0,0,1-.29,0,.78.78,0,0,1-.29-1.19.35.35,0,0,0-.11-.48.78.78,0,0,1-.3-1.11,1.1,1.1,0,0,1,1.2-.59.36.36,0,0,0,.38-.22.26.26,0,0,1,.19-.14.35.35,0,0,0,.28-.41.9.9,0,0,1,.5-1,1.46,1.46,0,0,1,2,1.06c.21.73-.86,1.24-1.54,1.33C14.26,39.1,14,39.64,13.88,39.92Z" style="fill:url(#f)"/><path d="M14.24,42.67s-.43-1.25-1-1.21-1,.59-.3,1.2C13.81,43.43,14.24,42.67,14.24,42.67Z" style="fill:#cc997e"/><path d="M9.63,52.68a11,11,0,0,1-.45-4.38l.2,0a10.82,10.82,0,0,0,.44,4.29Z" style="fill:#522c86"/><path d="M9.38,48.32a10.82,10.82,0,0,0,.44,4.29" style="opacity:0.2"/><path d="M14.63,67.72a.12.12,0,0,1-.1-.07c-.22-.85-1.86-1.78-1.88-1.79a.1.1,0,1,1,.1-.18c.07,0,1.74,1,2,1.92a.11.11,0,0,1-.07.12Z" style="fill:url(#g)"/><path d="M28.71,46.07c-2.8,1-8.78-1.14-8.78-1.14l-.41,4.89c4.79,1.51,7.9,1.07,9.93-.2A6.7,6.7,0,0,0,28.71,46.07Z" style="fill:#522c86"/><path d="M33.18,41,32,40.8s-.32,3.73-2.94,5.11a3,3,0,0,1-.36.16,6.7,6.7,0,0,1,.74,3.55C33.57,47,33.18,41,33.18,41Z" style="fill:#cc997e"/><path d="M32.07,41.12,32,40.8a1.78,1.78,0,0,1,.4-1.58c.94-1.14,1.62-.72,1.62-.72A2.15,2.15,0,0,0,34,39a.2.2,0,0,0,.34.14l1.52-1.4s.43,2.23-2.85,3.76Z" style="fill:#cc997e"/></g></svg>