<svg xmlns="http://www.w3.org/2000/svg" xmlns:xlink="http://www.w3.org/1999/xlink" viewBox="0 0 100 100"><defs><clipPath id="a"><rect width="100" height="100" style="fill:none"/></clipPath></defs><g style="clip-path:url(#a)"><path d="M10.62,35.52c5.38-14.63,9.56-20.15,18.94-25S56.31,10.17,68,13.39a33.79,33.79,0,0,1,21.87,18.5c3,6.86,7.37,23.11,2.94,35.15-3.49,9.5-10.4,4.13-20.5,10.66S53.57,97.16,39.12,91.85,19,69.27,17.43,62.85,5.25,50.14,10.62,35.52Z" style="fill:#fff;isolation:isolate"/><path d="M66.07,18.52h0a1.77,1.77,0,0,0-.73-1A2.78,2.78,0,0,0,63.77,17a.35.35,0,0,1-.32-.22,1.67,1.67,0,0,0-.23-.44,2.34,2.34,0,0,0-.75-.55l-.36-.12a.63.63,0,0,0-.38-.06,2.08,2.08,0,0,0-1.12.21,3.48,3.48,0,0,0-.57.46,1.87,1.87,0,0,0-.37.81c0,.11-.07.1-.15.05a1.74,1.74,0,0,0-.55-.26,2.11,2.11,0,0,0-1.71.24,1.89,1.89,0,0,0-.76,1.11.15.15,0,0,1-.13.09,1.18,1.18,0,0,0-.95,1.33h0a1.37,1.37,0,0,0,1.38.95H64a1.67,1.67,0,0,0,.73-.14A2,2,0,0,0,66,19.22a.43.43,0,0,0,.08-.31v-.06A.3.3,0,0,0,66.07,18.52Z" style="fill:#eaeaea"/><path d="M48.55,25.22h0a.5.5,0,0,0-.2-.27.86.86,0,0,0-.43-.15.09.09,0,0,1-.09-.06.37.37,0,0,0-.07-.12.75.75,0,0,0-.2-.15l-.1,0a.2.2,0,0,0-.11,0,.62.62,0,0,0-.3.06l-.16.13a.51.51,0,0,0-.11.22s0,0,0,0l-.16-.07a.56.56,0,0,0-.47.07.54.54,0,0,0-.21.3s0,0,0,0a.33.33,0,0,0-.27.37s0,0,0,0a.4.4,0,0,0,.38.26h2a.48.48,0,0,0,.2,0,.52.52,0,0,0,.34-.34s0-.06,0-.09h0A.07.07,0,0,0,48.55,25.22Z" style="fill:#eaeaea"/><path d="M22.6,37.06h0a1.75,1.75,0,0,0-.73-1,2.71,2.71,0,0,0-1.57-.52.35.35,0,0,1-.32-.22,1.42,1.42,0,0,0-.23-.44,2.38,2.38,0,0,0-.75-.56l-.36-.11a.72.72,0,0,0-.38-.07,2.19,2.19,0,0,0-1.12.22,3.48,3.48,0,0,0-.57.46,1.87,1.87,0,0,0-.37.81c0,.11-.07.1-.15,0a1.55,1.55,0,0,0-.55-.26,2.11,2.11,0,0,0-1.71.24,1.91,1.91,0,0,0-.76,1.1c0,.07-.08.08-.13.1a1.18,1.18,0,0,0-1,1.33h0a1.38,1.38,0,0,0,1.38,1h7.2a1.77,1.77,0,0,0,.72-.13,2,2,0,0,0,1.26-1.24.43.43,0,0,0,.08-.31v-.07A.3.3,0,0,0,22.6,37.06Z" style="fill:#eaeaea"/><path d="M19,18.24h0a1,1,0,0,1,.42-.57,1.62,1.62,0,0,1,.9-.3.18.18,0,0,0,.18-.12.94.94,0,0,1,.14-.26,1.22,1.22,0,0,1,.43-.31l.2-.07a.41.41,0,0,1,.22,0,1.32,1.32,0,0,1,.64.13,1.92,1.92,0,0,1,.32.26,1.13,1.13,0,0,1,.22.47c0,.06,0,0,.08,0a1.17,1.17,0,0,1,.32-.15,1.25,1.25,0,0,1,1,.14,1.11,1.11,0,0,1,.43.63s.05.05.08.06a.67.67,0,0,1,.54.76h0a.8.8,0,0,1-.79.55H20.19a1,1,0,0,1-.42-.08,1.16,1.16,0,0,1-.71-.71.24.24,0,0,1,0-.18v0A.19.19,0,0,1,19,18.24Z" style="fill:#eaeaea"/><path d="M35.46,9.83h0a1.85,1.85,0,0,1,.73-1,2.79,2.79,0,0,1,1.58-.52.32.32,0,0,0,.31-.22,1.58,1.58,0,0,1,.24-.44,2.28,2.28,0,0,1,.75-.55L39.43,7a.59.59,0,0,1,.37-.07,2.17,2.17,0,0,1,1.12.22,2.76,2.76,0,0,1,.57.45,2.06,2.06,0,0,1,.38.82c0,.11.07.1.14,0a1.66,1.66,0,0,1,.55-.27,2.13,2.13,0,0,1,1.72.25A1.93,1.93,0,0,1,45,9.53c0,.07.07.08.13.1A1.18,1.18,0,0,1,46.12,11s0,0,0,0a1.38,1.38,0,0,1-1.38,1h-7.2a1.85,1.85,0,0,1-.73-.13,2,2,0,0,1-1.25-1.25.38.38,0,0,1-.09-.31v-.06A.3.3,0,0,1,35.46,9.83Z" style="fill:#eaeaea"/><path d="M33.92,40.5h0a1.78,1.78,0,0,1,.73-1A2.76,2.76,0,0,1,36.23,39a.32.32,0,0,0,.31-.22,1.45,1.45,0,0,1,.24-.44,2.15,2.15,0,0,1,.75-.55l.36-.12a.6.6,0,0,1,.37-.06,2.06,2.06,0,0,1,1.12.21,2.8,2.8,0,0,1,.57.46,2,2,0,0,1,.38.81c0,.11.07.1.14,0a2,2,0,0,1,.55-.26,2.12,2.12,0,0,1,1.72.24,1.94,1.94,0,0,1,.76,1.1.14.14,0,0,0,.13.1,1.19,1.19,0,0,1,.95,1.33s0,0,0,0a1.38,1.38,0,0,1-1.38,1H36a1.63,1.63,0,0,1-.72-.14A2,2,0,0,1,34,41.2a.44.44,0,0,1-.09-.31v-.06A.3.3,0,0,1,33.92,40.5Z" style="fill:#eaeaea"/><path d="M15.49,54.11h0a.86.86,0,0,0-.33-.44,1.2,1.2,0,0,0-.7-.23.17.17,0,0,1-.14-.1.78.78,0,0,0-.11-.2.88.88,0,0,0-.33-.24l-.16,0a.25.25,0,0,0-.17,0,1,1,0,0,0-.5.09,1.64,1.64,0,0,0-.25.21.8.8,0,0,0-.17.36c0,.05,0,0-.06,0a1.15,1.15,0,0,0-.25-.12,1,1,0,0,0-.76.11.81.81,0,0,0-.34.49s0,0-.06.05a.51.51,0,0,0-.42.59h0a.6.6,0,0,0,.61.42h3.21a.87.87,0,0,0,.32-.06.89.89,0,0,0,.56-.56.18.18,0,0,0,0-.14v0A.14.14,0,0,0,15.49,54.11Z" style="fill:#eaeaea"/><path d="M39.42,63.61h0a.74.74,0,0,0-.3-.41,1.18,1.18,0,0,0-.65-.22.13.13,0,0,1-.13-.09.64.64,0,0,0-.1-.18,1.19,1.19,0,0,0-.31-.23l-.15,0a.21.21,0,0,0-.15,0,.8.8,0,0,0-.46.09.88.88,0,0,0-.24.19.84.84,0,0,0-.16.33c0,.05,0,.05-.06,0a.62.62,0,0,0-.22-.1.85.85,0,0,0-.71.1.82.82,0,0,0-.32.45s0,0-.05,0a.49.49,0,0,0-.39.55s0,0,0,0a.56.56,0,0,0,.57.39h3a.73.73,0,0,0,.3-.06.82.82,0,0,0,.52-.51.17.17,0,0,0,0-.13v0A.1.1,0,0,0,39.42,63.61Z" style="fill:#eaeaea"/><path d="M34.71,28.3h0a.73.73,0,0,0-.31-.42,1.14,1.14,0,0,0-.65-.21.14.14,0,0,1-.13-.09.51.51,0,0,0-.09-.18,1,1,0,0,0-.31-.23l-.15-.05a.29.29,0,0,0-.16,0,.93.93,0,0,0-.46.09,1.43,1.43,0,0,0-.24.19.81.81,0,0,0-.15.34s0,0-.06,0a.7.7,0,0,0-.23-.11.89.89,0,0,0-.71.1.78.78,0,0,0-.31.46.09.09,0,0,1-.06,0,.48.48,0,0,0-.39.54h0a.57.57,0,0,0,.57.4h3a.79.79,0,0,0,.3-.05.86.86,0,0,0,.52-.52.19.19,0,0,0,0-.13v0A.14.14,0,0,0,34.71,28.3Z" style="fill:#eaeaea"/><path d="M80.48,27.91h0a1.85,1.85,0,0,1,.73-1,2.79,2.79,0,0,1,1.58-.52.32.32,0,0,0,.31-.22,1.58,1.58,0,0,1,.24-.44,2.28,2.28,0,0,1,.75-.55l.36-.11a.59.59,0,0,1,.37-.07,2.17,2.17,0,0,1,1.12.22,2.76,2.76,0,0,1,.57.45,2.06,2.06,0,0,1,.38.82c0,.11.07.1.14.05a1.66,1.66,0,0,1,.55-.27,2.13,2.13,0,0,1,1.72.25,1.93,1.93,0,0,1,.76,1.1c0,.07.07.08.13.1a1.18,1.18,0,0,1,1,1.32s0,0,0,0a1.38,1.38,0,0,1-1.38.95h-7.2a1.85,1.85,0,0,1-.73-.13,2.06,2.06,0,0,1-1.25-1.25.38.38,0,0,1-.09-.31v-.06A.3.3,0,0,1,80.48,27.91Z" style="fill:#eaeaea"/><path d="M87.12,63.14h0a1.85,1.85,0,0,1,.73-1,2.79,2.79,0,0,1,1.58-.52.33.33,0,0,0,.31-.22A1.58,1.58,0,0,1,90,61a2.28,2.28,0,0,1,.75-.55l.36-.11a.59.59,0,0,1,.37-.07,2,2,0,0,1,1.12.22,2.76,2.76,0,0,1,.57.45,2,2,0,0,1,.38.82c0,.1.07.1.14,0a1.85,1.85,0,0,1,.55-.26,2.13,2.13,0,0,1,1.72.25,1.93,1.93,0,0,1,.76,1.1c0,.07.07.08.13.09a1.19,1.19,0,0,1,1,1.33s0,0,0,0a1.38,1.38,0,0,1-1.38.95H89.2a1.85,1.85,0,0,1-.73-.13,2.06,2.06,0,0,1-1.25-1.25.38.38,0,0,1-.09-.31v-.06A.3.3,0,0,1,87.12,63.14Z" style="fill:#eaeaea"/><path d="M65.9,29.92h0a.47.47,0,0,0-.2-.28.84.84,0,0,0-.43-.14.09.09,0,0,1-.09-.06.29.29,0,0,0-.07-.12.5.5,0,0,0-.2-.15l-.1,0a.12.12,0,0,0-.1,0,.56.56,0,0,0-.31.06,1,1,0,0,0-.16.12.48.48,0,0,0-.1.23s0,0,0,0a.46.46,0,0,0-.16-.07.56.56,0,0,0-.47.07.5.5,0,0,0-.21.3s0,0,0,0a.32.32,0,0,0-.27.36h0a.38.38,0,0,0,.38.26h2a.48.48,0,0,0,.2,0,.59.59,0,0,0,.35-.34.15.15,0,0,0,0-.09v0A.07.07,0,0,0,65.9,29.92Z" style="fill:#eaeaea"/><path d="M76.54,36.88h0A1,1,0,0,1,77,36.3a1.53,1.53,0,0,1,.9-.29.21.21,0,0,0,.18-.13,1,1,0,0,1,.13-.25,1.66,1.66,0,0,1,.43-.32l.21-.06a.31.31,0,0,1,.21,0,1.17,1.17,0,0,1,.64.12,1.7,1.7,0,0,1,.33.27,1.09,1.09,0,0,1,.22.46c0,.06,0,.06.08,0a.89.89,0,0,1,.31-.15,1.17,1.17,0,0,1,1,.14,1.09,1.09,0,0,1,.44.63s0,0,.07.06a.67.67,0,0,1,.55.76s0,0,0,0a.79.79,0,0,1-.79.54H77.73a1,1,0,0,1-.42-.07,1.17,1.17,0,0,1-.72-.72.22.22,0,0,1,0-.17v0A.17.17,0,0,1,76.54,36.88Z" style="fill:#eaeaea"/><path d="M71,48.89h0a1.55,1.55,0,0,1,.62-.84A2.32,2.32,0,0,1,73,47.6a.26.26,0,0,0,.26-.18,1.46,1.46,0,0,1,.2-.37,1.93,1.93,0,0,1,.63-.47l.3-.09a.59.59,0,0,1,.32-.06,1.91,1.91,0,0,1,.94.18,2.56,2.56,0,0,1,.48.39,1.71,1.71,0,0,1,.32.68c0,.09.06.09.12,0A1.62,1.62,0,0,1,77,47.5a1.78,1.78,0,0,1,1.44.21,1.62,1.62,0,0,1,.64.92c0,.06.06.07.11.09a1,1,0,0,1,.8,1.11h0a1.15,1.15,0,0,1-1.16.8h-6a1.61,1.61,0,0,1-.61-.11,1.75,1.75,0,0,1-1.06-1.05.35.35,0,0,1-.07-.26v-.06A.24.24,0,0,1,71,48.89Z" style="fill:#eaeaea"/><path d="M85.58,55.59h0a.74.74,0,0,0-.3-.41,1.21,1.21,0,0,0-.65-.22.12.12,0,0,1-.13-.09.64.64,0,0,0-.1-.18.87.87,0,0,0-.31-.23l-.15-.05a.29.29,0,0,0-.16,0,.83.83,0,0,0-.46.09,1.3,1.3,0,0,0-.23.18.89.89,0,0,0-.16.34s0,0-.06,0a1,1,0,0,0-.23-.11.89.89,0,0,0-.71.1.78.78,0,0,0-.31.46s0,0-.05,0a.49.49,0,0,0-.4.55s0,0,0,0a.57.57,0,0,0,.57.39h3a.79.79,0,0,0,.3-.05.84.84,0,0,0,.52-.52.17.17,0,0,0,0-.12v0A.14.14,0,0,0,85.58,55.59Z" style="fill:#eaeaea"/><path d="M34,73.66h0a1.82,1.82,0,0,0-.73-1,2.79,2.79,0,0,0-1.58-.52.34.34,0,0,1-.31-.22,1.45,1.45,0,0,0-.24-.44,2.28,2.28,0,0,0-.75-.55L30,70.8a.63.63,0,0,0-.38-.06,2.06,2.06,0,0,0-1.12.21,2.8,2.8,0,0,0-.57.46,2,2,0,0,0-.38.81c0,.11-.07.11-.14,0a1.85,1.85,0,0,0-.55-.26,2.09,2.09,0,0,0-1.72.25,1.93,1.93,0,0,0-.76,1.1c0,.07-.07.08-.12.09a1.19,1.19,0,0,0-1,1.33s0,0,0,0a1.38,1.38,0,0,0,1.38,1h7.2a1.85,1.85,0,0,0,.73-.13,2.06,2.06,0,0,0,1.25-1.25.39.39,0,0,0,.09-.31V74A.3.3,0,0,0,34,73.66Z" style="fill:#eaeaea"/><path d="M60.28,43.07h0a.47.47,0,0,0-.2-.28.76.76,0,0,0-.43-.14.09.09,0,0,1-.09-.06.45.45,0,0,0-.06-.12.51.51,0,0,0-.21-.15l-.1,0a.12.12,0,0,0-.1,0,.56.56,0,0,0-.31.06.61.61,0,0,0-.16.12.48.48,0,0,0-.1.23s0,0,0,0a.51.51,0,0,0-.15-.07.58.58,0,0,0-.48.07.5.5,0,0,0-.21.3s0,0,0,0a.31.31,0,0,0-.26.36h0a.37.37,0,0,0,.38.26h2a.48.48,0,0,0,.2,0,.59.59,0,0,0,.35-.34.15.15,0,0,0,0-.09v0A.07.07,0,0,0,60.28,43.07Z" style="fill:#eaeaea"/><path d="M54.63,88.25h0a1,1,0,0,1,.42-.57,1.62,1.62,0,0,1,.9-.3.18.18,0,0,0,.18-.12.77.77,0,0,1,.14-.25,1.24,1.24,0,0,1,.43-.32l.2-.06a.34.34,0,0,1,.22,0,1.2,1.2,0,0,1,.64.12,1.35,1.35,0,0,1,.32.26,1.19,1.19,0,0,1,.22.47c0,.06,0,.06.08,0a.94.94,0,0,1,.32-.15,1.18,1.18,0,0,1,1,.14,1.14,1.14,0,0,1,.44.63s0,0,.07,0a.67.67,0,0,1,.54.76s0,0,0,0a.79.79,0,0,1-.79.55H55.82a1.14,1.14,0,0,1-.41-.07,1.19,1.19,0,0,1-.72-.72.23.23,0,0,1,0-.18v0A.19.19,0,0,1,54.63,88.25Z" style="fill:#eaeaea"/><path d="M91.49,45.56h0a.71.71,0,0,0-.31-.41,1.15,1.15,0,0,0-.65-.22.14.14,0,0,1-.13-.09.64.64,0,0,0-.1-.18.79.79,0,0,0-.31-.23l-.14,0a.3.3,0,0,0-.16,0,.83.83,0,0,0-.46.09,1.08,1.08,0,0,0-.24.18.87.87,0,0,0-.15.34c0,.05,0,0-.06,0a1,1,0,0,0-.23-.11.89.89,0,0,0-.71.1.78.78,0,0,0-.31.46s0,0-.06,0a.49.49,0,0,0-.39.55s0,0,0,0a.56.56,0,0,0,.57.39h3a.79.79,0,0,0,.3-.05.86.86,0,0,0,.52-.52.17.17,0,0,0,0-.12v0A.14.14,0,0,0,91.49,45.56Z" style="fill:#eaeaea"/><path d="M71.16,78.61h0a.74.74,0,0,0-.3-.41,1.15,1.15,0,0,0-.65-.22.13.13,0,0,1-.13-.09.64.64,0,0,0-.1-.18,1,1,0,0,0-.31-.23l-.15,0a.21.21,0,0,0-.15,0,.8.8,0,0,0-.46.09.88.88,0,0,0-.24.19.78.78,0,0,0-.16.33s0,0-.06,0a.76.76,0,0,0-.22-.11.89.89,0,0,0-.71.1.84.84,0,0,0-.32.46s0,0,0,0a.48.48,0,0,0-.39.55s0,0,0,0a.56.56,0,0,0,.57.39h3a.73.73,0,0,0,.3-.06.82.82,0,0,0,.52-.51.17.17,0,0,0,0-.13v0A.12.12,0,0,0,71.16,78.61Z" style="fill:#eaeaea"/><path d="M50.08,64.62h0a1.76,1.76,0,0,1,.73-1,2.86,2.86,0,0,1,1.57-.52.3.3,0,0,0,.31-.22,1.88,1.88,0,0,1,.24-.44,2.5,2.5,0,0,1,.75-.55l.36-.11a.63.63,0,0,1,.38-.07,2.13,2.13,0,0,1,1.11.22,3.14,3.14,0,0,1,.57.45,1.82,1.82,0,0,1,.38.82c0,.11.07.1.14.05a1.71,1.71,0,0,1,.56-.27,2.11,2.11,0,0,1,1.71.25,1.91,1.91,0,0,1,.76,1.1c0,.07.08.08.13.1a1.17,1.17,0,0,1,.95,1.32h0a1.39,1.39,0,0,1-1.38,1h-7.2a1.77,1.77,0,0,1-.72-.13,2,2,0,0,1-1.26-1.25.42.42,0,0,1-.08-.31V65A.3.3,0,0,1,50.08,64.62Z" style="fill:#eaeaea"/><path d="M74.16,71.15h0a1.81,1.81,0,0,1,.73-1,2.86,2.86,0,0,1,1.57-.52.32.32,0,0,0,.32-.22A1.85,1.85,0,0,1,77,69a2.43,2.43,0,0,1,.76-.55l.35-.11a.63.63,0,0,1,.38-.07,2.19,2.19,0,0,1,1.12.22,4,4,0,0,1,.57.45,2.06,2.06,0,0,1,.38.82c0,.11.07.1.14,0a1.64,1.64,0,0,1,.55-.26,2.07,2.07,0,0,1,1.71.24,1.93,1.93,0,0,1,.77,1.1c0,.07.07.08.12.1a1.17,1.17,0,0,1,1,1.33s0,0,0,0a1.38,1.38,0,0,1-1.38,1H76.24a1.82,1.82,0,0,1-.73-.13,2.05,2.05,0,0,1-1.26-1.25.42.42,0,0,1-.08-.31v-.06A.3.3,0,0,1,74.16,71.15Z" style="fill:#eaeaea"/><path d="M24.11,65.34h0a.54.54,0,0,0-.2-.27.77.77,0,0,0-.44-.14.1.1,0,0,1-.08-.06.54.54,0,0,0-.07-.13.8.8,0,0,0-.21-.15l-.09,0a.22.22,0,0,0-.11,0,.66.66,0,0,0-.31.06.93.93,0,0,0-.15.13.65.65,0,0,0-.11.22s0,0,0,0a.36.36,0,0,0-.15-.08.6.6,0,0,0-.47.07.54.54,0,0,0-.21.3s0,0,0,0a.33.33,0,0,0-.26.37s0,0,0,0a.39.39,0,0,0,.38.26h2a.48.48,0,0,0,.2,0,.55.55,0,0,0,.34-.34s0,0,0-.09h0A.14.14,0,0,0,24.11,65.34Z" style="fill:#eaeaea"/><path d="M50,76.29h0a1,1,0,0,1,.42-.57,1.54,1.54,0,0,1,.9-.3.19.19,0,0,0,.18-.13,1.19,1.19,0,0,1,.13-.25,1.66,1.66,0,0,1,.43-.32l.21-.06a.32.32,0,0,1,.21,0,1.26,1.26,0,0,1,.64.12,2.16,2.16,0,0,1,.33.27,1.09,1.09,0,0,1,.22.46c0,.06,0,.06.08,0a.89.89,0,0,1,.31-.15,1.23,1.23,0,0,1,1,.14,1.08,1.08,0,0,1,.43.63s0,0,.07.06a.67.67,0,0,1,.55.76s0,0,0,0a.78.78,0,0,1-.79.54H51.19a1,1,0,0,1-.42-.07,1.18,1.18,0,0,1-.72-.71s0-.12,0-.18v0A.17.17,0,0,1,50,76.29Z" style="fill:#eaeaea"/><path d="M35,86.19h0a1.53,1.53,0,0,1,.61-.84,2.37,2.37,0,0,1,1.33-.43.29.29,0,0,0,.26-.19,1.48,1.48,0,0,1,.2-.37,2,2,0,0,1,.63-.46l.3-.1a.51.51,0,0,1,.32-.05,1.71,1.71,0,0,1,.94.18,2.86,2.86,0,0,1,.48.38,1.6,1.6,0,0,1,.31.69c0,.09.06.08.12,0a1.19,1.19,0,0,1,.47-.22,1.74,1.74,0,0,1,1.44.2,1.61,1.61,0,0,1,.64.93c0,.06.06.07.11.08a1,1,0,0,1,.8,1.12s0,0,0,0a1.17,1.17,0,0,1-1.16.8H36.72a1.52,1.52,0,0,1-.6-.11,1.72,1.72,0,0,1-1.06-1,.35.35,0,0,1-.07-.26v0A.26.26,0,0,1,35,86.19Z" style="fill:#eaeaea"/><path d="M72.62,63.61h0a.71.71,0,0,0-.31-.41,1.15,1.15,0,0,0-.65-.22.14.14,0,0,1-.13-.09.64.64,0,0,0-.1-.18,1,1,0,0,0-.31-.23l-.14,0a.22.22,0,0,0-.16,0,.83.83,0,0,0-.46.09.88.88,0,0,0-.24.19A.82.82,0,0,0,70,63c0,.05,0,.05-.06,0a.67.67,0,0,0-.23-.1A.85.85,0,0,0,69,63a.76.76,0,0,0-.31.45.05.05,0,0,1-.06,0,.5.5,0,0,0-.39.55s0,0,0,0a.57.57,0,0,0,.57.39h3a.8.8,0,0,0,.3-.06.87.87,0,0,0,.52-.51.21.21,0,0,0,0-.13v0A.12.12,0,0,0,72.62,63.61Z" style="fill:#eaeaea"/><path d="M42.31,44.51C57,44.1,60,40.17,60,40.17l5.36,5.41s-5.9,13.18-10.72,18.88-11.46,9.61-14.34,10-5.43.9-7.95-2.39,0-3.83-1.5-6.49S28.23,64,27.24,60.34s0-4-.89-6.65-4.19-2-3.84-4S27.59,44.92,42.31,44.51Z" style="fill:#00afea"/><polygon points="75.42 20.95 73.92 22.34 73.95 19.85 75.42 20.95" style="fill:#00afea"/><polygon points="71.8 19.09 73.37 19.9 74.17 20.32 77.09 21.79 79.17 16.45 71.8 19.09" style="fill:#003261"/><polygon points="79.17 16.45 73.37 19.9 73.92 22.34 74.17 20.32 79.17 16.45" style="fill:#005e8b"/><path d="M73.33,23.52a6.1,6.1,0,0,1-2.48,2.65" style="fill:none;stroke:#005e8b;stroke-linecap:round;stroke-linejoin:round;stroke-width:0.4423893702715499px"/><path d="M69.66,27.13c-.22.2-.43.42-.64.65" style="fill:none;stroke:#005e8b;stroke-linecap:round;stroke-linejoin:round;stroke-width:0.4423893702715499px;stroke-dasharray:0.15308287739753723,1.5308287143707275"/><path d="M68.54,28.38a8.26,8.26,0,0,0-1.39,4.4c-.42,6.44,7.3,17.56.7,21.64s-10.66,1.14-17.6-.91S33.7,52.19,28.8,55.76a13.55,13.55,0,0,0-4.32,5.48" style="fill:none;stroke:#005e8b;stroke-linecap:round;stroke-linejoin:round;stroke-width:0.4423893702715499px;stroke-dasharray:7.654143810272217,1.5308287143707275,0.15308287739753723,1.5308287143707275"/><path d="M24.18,62a15.49,15.49,0,0,0-.95,3.55" style="fill:none;stroke:#005e8b;stroke-linecap:round;stroke-linejoin:round;stroke-width:0.4423893702715499px"/><path d="M15.08,70.18l-.43,1.17c2,.42,7.71,2.18,14.77,4,.46-1.08.46-.71-.1-2.33C22.87,72.54,17.07,70.27,15.08,70.18Z" style="fill:#8f5b3c;fill-rule:evenodd"/><path d="M17.53,69.9c-.13,1-.13,2.69-.13,2.69S30.32,78,35.19,77.53,51.1,61.23,51.1,61.23,50.85,57,47.77,56,34.64,70.83,34.13,72.6C32.93,71.7,17.28,68.74,17.53,69.9Z" style="fill:#003261;fill-rule:evenodd"/><path d="M16.66,69.93a2.65,2.65,0,0,0-.48-.64,6.82,6.82,0,0,0-.78-.48l-4,5c.33.48.62.59.88.34s.48-.47.66-.63l2.93-1.51a.13.13,0,0,0,.05-.16h0l-.25-.44a2.12,2.12,0,0,1,.33-.79,2,2,0,0,1,.6-.42h0a.23.23,0,0,0,.1-.31Z" style="fill:#00afea;fill-rule:evenodd"/><path d="M6.77,69.26,7.09,71c2.27-.74,9.27-2.35,17.65-4.69,8.8-2.45,17.55-6,20.19-9.26L42.66,55c-3.56,1.5-11.77,4.9-19.62,8.68C16.08,67,8.9,68.17,6.77,69.26Z" style="fill:#8f5b3c;fill-rule:evenodd"/><path d="M8.41,68.28a3.06,3.06,0,0,0-.72-.73,7.5,7.5,0,0,0-1.07-.5l-4.4,7.16c.5.56.9.66,1.2.29s.54-.68.74-.92l3.53-2.42a.16.16,0,0,0,0-.21h0l-.38-.53a2.71,2.71,0,0,1,.29-1.07,2.57,2.57,0,0,1,.71-.64h0a.29.29,0,0,0,.08-.41Z" style="fill:#00afea;fill-rule:evenodd"/><path d="M9.13,68l1.11,3c2.28-.74,10.7-2.35,19.08-4.69,8.8-2.45,17.55-6,20.19-9.26l-4.94-6c-3.56,1.5-11.65,6.46-19.5,10.25C18.11,64.69,11.25,66.91,9.13,68Z" style="fill:#003261;fill-rule:evenodd"/><path d="M75,33.4a4.87,4.87,0,0,0-3.41-1.53,5,5,0,0,0-2,.24c-3.06.34-4.62-1.75-9.4-.08-6,2.18-4.82-2.26-11,.42-2.2.83-1.16,3.82.29,5.8s.42,3.51,3.48,5.29C57.72,46.33,66,47.89,66,47.89a2.67,2.67,0,0,0,2.92-.56c1.65-1.28,6.68-5.09,7.49-8.16A5.18,5.18,0,0,0,75,33.4Z" style="fill:#003261;fill-rule:evenodd"/><path d="M67.63,39.79a6.57,6.57,0,0,1,.84-4.94c2.89-4.28,7.75-.58,7.75,2.58a6.63,6.63,0,0,1-2.79,5.68,3.37,3.37,0,0,1-5-1l-4.77,5.24-3.8-3.2Z" style="fill:#8f5b3c;fill-rule:evenodd"/><path d="M59.44,41.82c-.3-.54-1.75-.54-1.92-2.54s3-5.44,3.7-2.8,3.09,4.81,3.56,5.36a5.52,5.52,0,0,1,1.34,3.54c-6.1,11.24-9.68,15-13.73,16.78L41.52,51.34C47.76,44.7,51.67,43,59.44,41.82Z" style="fill:#ff8600;fill-rule:evenodd"/><path d="M77.31,49.84l-2.88-2.52Q84.59,41,85.26,40.7c1-.51,1.37-2.3,1.64-3.2,1.31.4-.14,1.87,1.53,2.35,1.52.44,3.14.25,3.73,2.11.07.23-.07.74-.72.66a17.29,17.29,0,0,0-4.7,0Q85.63,43.07,77.31,49.84Z" style="fill:#8f5b3c;fill-rule:evenodd"/><path d="M59.94,48.89l.37-1.56c7-3.44,16.84-1.87,24.4-6.5L86,43.26C79.69,54.18,67.57,52.4,59.94,48.89Z" style="fill:#ff8600;fill-rule:evenodd"/><path d="M45.89,48.25l2.3-3.07q-11.25-4-12-4.22c-1.09-.29-1.82-2-2.28-2.79-1.19.66.53,1.8-1,2.62s-3,.9-3.21,2.84c0,.24.22.7.84.49a18,18,0,0,1,4.59-1Q36.35,43.35,45.89,48.25Z" style="fill:#8f5b3c;fill-rule:evenodd"/><path d="M62.69,43.71,62,42.25C54.48,40.34,45.14,43.93,36.79,41L36,43.62C44.47,53,56,48.73,62.69,43.71Z" style="fill:#ff8600;fill-rule:evenodd"/><path d="M60.79,38c5.09-1.78,4.38,2,10,0,.72-.52,6.31-.34,5.5-2.57A5.16,5.16,0,0,0,70.21,32c-3.49.73-4.93-1.76-10,0-6,2.18-4.82-2.26-11,.42-2.46.93-1.57,6.44,1.07,5.79C55.91,36,55,40.13,60.79,38Z" style="fill:#003261;fill-rule:evenodd"/><path d="M67.85,54.42A14.69,14.69,0,0,1,64.52,56" style="fill:none;stroke:#005e8b;stroke-linecap:round;stroke-linejoin:round;stroke-width:0.4423893702715499px"/><path d="M63.26,56.29a7.13,7.13,0,0,1-.77.11" style="fill:none;stroke:#005e8b;stroke-linecap:round;stroke-linejoin:round;stroke-width:0.4423893702715499px;stroke-dasharray:0.1295834183692932,1.2958341836929321"/><path d="M61.84,56.45c-3.65.17-7-1.58-11.59-2.94-6.94-2.06-16.55-1.32-21.45,2.25A12.19,12.19,0,0,0,27.32,57" style="fill:none;stroke:#005e8b;stroke-linecap:round;stroke-linejoin:round;stroke-width:0.4423893702715499px;stroke-dasharray:6.479170799255371,1.2958341836929321,0.1295834183692932,1.2958341836929321"/><path d="M26.88,57.5a14,14,0,0,0-2.06,3" style="fill:none;stroke:#005e8b;stroke-linecap:round;stroke-linejoin:round;stroke-width:0.4423893702715499px"/></g></svg>