<svg xmlns="http://www.w3.org/2000/svg" xmlns:xlink="http://www.w3.org/1999/xlink" viewBox="0 0 100 100"><defs><clipPath id="a"><rect width="100" height="100" style="fill:none"/></clipPath><clipPath id="b"><path d="M7.65,41.23c0-8.81,14.8-14.31,26.22-14.29s15.91,2.8,22.48,3.27,15.16-5.52,26.84-.42C88.1,31.94,100.75,44,100.65,50.32c-.09,5.83-8.86,16.07-14.38,18.49s-9,.12-9,.12c-14.23,10.8-43.5,7.94-54.22,0-3.1-2.31-7.57-7.37-8.39-10.4a18.59,18.59,0,0,0-10-5.65C.83,52,7.65,44.53,7.65,41.23Z" style="fill:none;clip-rule:evenodd"/></clipPath><clipPath id="c"><path d="M12.57,42.2c0-8.81,6.66-25.63,18.08-25.62S50.45,14.42,57,14.89s14.6,9.8,26.28,14.9c7.2,3.15,13.49,20.27,10.22,30C91.5,65.9,82.78,70,78.44,70.53s-3.17-.13-4.33.51c-15,8.26-41,5.27-50.94-2.11C12.45,61,12.57,51,12.57,42.2Z" style="fill:none;clip-rule:evenodd"/></clipPath></defs><g style="clip-path:url(#a)"><path d="M12.46,42.2c0-8.81,10-15.28,21.41-15.26s15.91,2.8,22.48,3.27,15.16-5.52,26.84-.42,8.31,28.33-5.92,39.14-43.5,7.94-54.22,0S12.46,51,12.46,42.2Z" style="fill:#f5f5f5;fill-rule:evenodd"/><g style="clip-path:url(#b)"><path d="M54.86,61c-.6-1.22-2.13-1.7-3.34-2a7.47,7.47,0,0,0-4.88.52,20.16,20.16,0,0,0-4.57,3.16c-1.06.88-2.14,1.77-3.14,2.72a25.35,25.35,0,0,0,2.52-3.29c1.32-2,2.58-3.94,4-5.82,2.52-3.26,4.56-6.79,4-11.08-.19-1.49-1.11-3.6-2.91-3.51S43.78,44,43.15,45.28A33.36,33.36,0,0,0,41,51.6a74.22,74.22,0,0,1-2.22,7.12c-.81,2.18-1.33,4.33-1.63,5.15s-.76,1.71-.88,1.66a7.32,7.32,0,0,1,.41-1.69s2.25-7.25,2.31-11.6c0-2.66,0-5.32-.11-8a22.36,22.36,0,0,0-1-6.85,5.34,5.34,0,0,0-3.36-3.6c-1.93-.58-3.35,1.19-4,2.73A12.24,12.24,0,0,0,30,42.81a69.82,69.82,0,0,0,1.47,7.6c1.08,4.58,2,9.21,3.08,13.79h0a12.25,12.25,0,0,0-1-2.89c-1-2.51-2-5-2.86-7.61s-1.64-5.1-2.64-7.6a46.54,46.54,0,0,0-3-6.72A6.76,6.76,0,0,0,20.48,36a2.81,2.81,0,0,0-3.39,1.91c-.4,1.54.4,3.31,1,4.69a54,54,0,0,0,4.07,7.13c2,3.26,3.95,6.59,5.95,9.87a61,61,0,0,0-5.17-4.87c-1.88-1.65-3.57-3.51-5.56-5a19.52,19.52,0,0,0-6-3,11.35,11.35,0,0,0-3.22-.47,3.43,3.43,0,0,0-2.27.61C4.43,48.26,6.71,50.12,7.7,51a36.77,36.77,0,0,0,5.94,4c2.25,1.31,4.48,2.65,6.68,4.06,3.51,2.26,7.05,4.46,10.55,6.73-4.09-1.66-8.1-3.58-12.31-4.92a41.33,41.33,0,0,0-7.6-1.7c-1.64-.18-3.66-.3-5.05.76s-.63,3,.3,4.18a8.18,8.18,0,0,0,5.07,2.61c5.14.9,10.33-.65,15.49-.34,1.35.09,2.69.26,4,.39l0,.31c-1.34.18-2.68.34-4,.64a29.5,29.5,0,0,0-6,2.12,25.25,25.25,0,0,0-2.49,1.26,9.06,9.06,0,0,0-1.88,1.78,9.33,9.33,0,0,0-1.3,1.87,3.17,3.17,0,0,0-.51,2.08c.44,1.35,2.22,1.39,3.36,1,1.75-.52,3.28-2.35,4.5-3.62a31.61,31.61,0,0,1,4.63-4.48,19.35,19.35,0,0,1,3.58-1.87l4.57.08,2.35-.68s0,0,0,0l.65-.19h0a39,39,0,0,1,5.43-1.39,33.56,33.56,0,0,1,5.49.1,7.11,7.11,0,0,0,4.55-1.34A2.81,2.81,0,0,0,54.86,61Z" style="fill:#6ebc2e"/><path d="M25.66,65.23c-1.06-.27-2.11-.56-3.18-.82l-.1,0A22.57,22.57,0,0,0,21.18,62a.09.09,0,0,0-.15.11c.42.67.5,1.5.92,2.16-.87-.15-1.75-.2-2.61-.39-.29-.07-.59-.12-.88-.17a9.84,9.84,0,0,1-.5-.9c-.31-.61-.85-1-1-1.71a.11.11,0,0,0-.21,0,3,3,0,0,0,.67,1.5,9.16,9.16,0,0,1,.56,1c-1.14-.2-2.3-.36-3.44-.54-.21-.47-.48-.91-.72-1.37a9.58,9.58,0,0,0-1-1.63.09.09,0,0,0-.14.1c.53.91.92,1.91,1.45,2.82-.42-.07-.84-.14-1.26-.23l-2-.43c-.69-.88-1.14-1.93-1.85-2.8-.08-.09-.22,0-.15.1.35.52.64,1.08,1,1.59.23.33.37.72.61,1-1.28-.28-2.57-.55-3.87-.76-.08,0-.11.11,0,.13,1,.22,1.82.63,2.79.83.5.1,1,.23,1.5.36a10.72,10.72,0,0,0-1.47.84,11,11,0,0,1-1.62,1c-.09,0,0,.19.08.16A8.42,8.42,0,0,0,9.28,64c.59-.33,1.2-.69,1.77-1.05.56.15,1.12.31,1.68.44s1.24.26,1.87.37c-1.2.75-2.18,1.86-3.42,2.53-.08,0,0,.17.07.14a4.52,4.52,0,0,0,1.39-.85c.71-.57,1.46-1.09,2.17-1.67a.11.11,0,0,0,0-.1c1.46.25,2.92.45,4.37.7.94.17,1.91.16,2.85.35l.27.06c-.44.26-.87.56-1.31.81s-.71.54-1.12.74c-.07,0,0,.16.05.13A3.6,3.6,0,0,0,21,66c.48-.34,1-.6,1.48-1a.08.08,0,0,0,0-.09c1,.22,2.06.47,3.09.7,2.16.49,4.33.91,6.48,1.4.16,0,.21-.2.06-.25C30,66.11,27.8,65.76,25.66,65.23Z" style="fill:#c7e3f4"/><path d="M21.29,71.72a7.61,7.61,0,0,0-1.35.12,7.51,7.51,0,0,0-1.33.21c-.09,0,0,.16.05.14.79-.18,1.66,0,2.45-.24,0,.51-.08,1-.11,1.54s.2,1,.06,1.43a.06.06,0,0,0,.12,0,2.48,2.48,0,0,0,0-1.18c-.06-.62.11-1.25.09-1.87h0A.09.09,0,0,0,21.29,71.72Z" style="fill:#c7e3f4"/><path d="M21.92,69.85a.08.08,0,0,0,0,.16,7.42,7.42,0,0,0,2.21.12c.12,0,.13-.19,0-.22C23.39,69.78,22.65,69.91,21.92,69.85Z" style="fill:#c7e3f4"/><path d="M24.28,68.73a.06.06,0,0,0-.05.1,4.22,4.22,0,0,0,1.89.43c.11,0,.12-.17,0-.2A13,13,0,0,1,24.28,68.73Z" style="fill:#c7e3f4"/><path d="M9.69,48.4a14.22,14.22,0,0,1-1.07-1.8.08.08,0,0,0-.15,0,7.16,7.16,0,0,0,1.06,1.86A.1.1,0,0,0,9.69,48.4Z" style="fill:#c7e3f4"/><path d="M24.43,58.52a.12.12,0,1,0,.22-.07c-.11-.4-.24-.79-.38-1.18a5.69,5.69,0,0,0-.42-1.13c-.06-.12-.22,0-.16.11a7.83,7.83,0,0,1,.38,1.25Q24.24,58,24.43,58.52Z" style="fill:#c7e3f4"/><path d="M21.39,39.75c.08-.59.21-1.17.3-1.76a3,3,0,0,0,.09-1.35c0-.09-.19-.06-.17,0a3.92,3.92,0,0,1-.21,1.39,6.4,6.4,0,0,0-.27,1.67C21.14,39.88,21.37,39.9,21.39,39.75Z" style="fill:#c7e3f4"/><path d="M27.05,50.05a.13.13,0,0,0,.26,0,14,14,0,0,1,.36-2.12,2,2,0,0,0,0-1.25c-.05-.1-.2,0-.17.08.17.45-.13,1.16-.25,1.62A4.83,4.83,0,0,0,27.05,50.05Z" style="fill:#c7e3f4"/><path d="M32,60.38c0-.51.2-1,.19-1.53,0-.13-.19-.11-.19,0,0,.51-.25,1-.25,1.49-.24-.56-.49-1.12-.73-1.67l-.6-1.34a.12.12,0,0,0,.16-.09,12,12,0,0,0,.3-2.06.1.1,0,0,0-.2,0c0,.67-.29,1.29-.35,1.95-.46-1-.93-2-1.4-3.06a.05.05,0,0,0,0,0c.14-.6.24-1.21.32-1.82a3,3,0,0,0,.08-1.29c0-.1-.19-.07-.17,0A4.89,4.89,0,0,1,29,52.34c-.08.46-.16.91-.21,1.37-.48-1-1-2-1.45-3a.14.14,0,0,0-.06-.11c-.66-1.33-1.34-2.65-2.05-4a9.25,9.25,0,0,1,.32-1.73A3.28,3.28,0,0,0,25.84,43c-.05-.11-.22-.06-.18.06.18.53-.29,1.49-.46,2a4.88,4.88,0,0,0-.24,1c-.58-1-1.17-2.07-1.8-3.07l-.07-.12a11,11,0,0,1,.65-2.09c.18-.52.64-1.19.52-1.75,0-.12-.21-.07-.2,0h0a2.57,2.57,0,0,1-.43,1.14c-.16.36-.3.72-.45,1.08a5,5,0,0,0-.39,1.09c-.63-1-1.26-2-1.87-3a16,16,0,0,0-2-3.06c-.08-.08-.22,0-.15.13a29.71,29.71,0,0,1,1.7,3.21l.06.11A14,14,0,0,0,19,39.3l-.7-.18-.49-.19a1.05,1.05,0,0,1-.27-.2c-.07-.07-.19,0-.13.13a1.83,1.83,0,0,0,1,.62c.72.23,1.43.51,2.15.72a.15.15,0,0,0,.17-.05c.52.91,1.06,1.8,1.61,2.69a13.21,13.21,0,0,0-2-.6A6.9,6.9,0,0,0,18,41.72a.09.09,0,0,0,0,.17,12.09,12.09,0,0,1,2.26.72c.75.2,1.49.44,2.24.66h.09l.06.08c1.38,2.22,2.6,4.54,3.78,6.88-.78-.27-1.58-.45-2.35-.73-.5-.18-1.18-.61-1.73-.39a.07.07,0,0,0,.05.13l.12,0,1,.31a6.16,6.16,0,0,0,.72.34c.79.28,1.6.5,2.39.77l.18.35c.51,1,1,2.06,1.49,3.1-1.32-.69-2.83-1-4.08-1.78-.09-.06-.18.09-.1.16a6.29,6.29,0,0,0,2,1c.8.29,1.58.68,2.38,1,.5,1.07,1,2.15,1.48,3.23-.39-.21-.81-.38-1.21-.56l-1.32-.59a4.74,4.74,0,0,0-1.07-.5.08.08,0,0,0-.05.16c.65.28,1.26.71,1.91,1a22,22,0,0,1,2,1l.41.9c.26.59.51,1.19.75,1.79-.52-.25-1.06-.46-1.58-.73a3.43,3.43,0,0,0-1.42-.57.09.09,0,0,0,0,.17,6.8,6.8,0,0,1,1.49.77,17,17,0,0,0,1.69.74,49.64,49.64,0,0,0,2.08,4.84,55.47,55.47,0,0,0-5.53-4.85l-1.08-.8s0,0,0-.05A9.45,9.45,0,0,0,26.2,58a.09.09,0,0,0-.17.06v0a.07.07,0,0,0,0,.13c.22.69.4,1.41.66,2.08-.73-.53-1.46-1.06-2.17-1.63-.92-.74-1.83-1.49-2.74-2.24a22.15,22.15,0,0,0-.71-2.72c0-.11-.19-.05-.17.06.19.74.22,1.51.4,2.26l-.29-.24c-.52-.43-1-.84-1.6-1.24a21.18,21.18,0,0,0-1.07-3.3.09.09,0,0,0-.17.06A28.06,28.06,0,0,0,19,54.23c-.91-.66-1.83-1.29-2.77-1.9a.22.22,0,0,0,0-.08,28.22,28.22,0,0,0-1.19-3.34.09.09,0,1,0-.17.06,28.67,28.67,0,0,0,1,3.11l-1.56-1c-.54-.35-1.09-.67-1.65-1-.23-.94-1-1.75-1.11-2.71,0-.12-.17-.1-.18,0a3.57,3.57,0,0,0,.39,1.45c.11.32.26.65.4,1-.54-.3-1.09-.59-1.66-.85C9.12,48.32,7.69,47.76,6.37,47c-.1-.06-.17.09-.07.15,1,.61,2.06,1.18,3.11,1.74-.31.08-.62.19-.92.29a3.35,3.35,0,0,1-1,.38c-.07,0-.06.11,0,.12s.08,0,.11,0l.78-.26,0,0c.39-.16.79-.26,1.18-.42.89.48,1.78,1,2.66,1.47a9.37,9.37,0,0,0-1.46.61c-.21.1-.4.22-.61.33l-.59.24-.14,0a0,0,0,0,0,0,.07,1.43,1.43,0,0,0,.93-.14c.69-.37,1.41-.66,2.12-1,.44.26.88.52,1.31.79l1.57,1a13.41,13.41,0,0,0-3.14,1.08.09.09,0,0,0,.06.17c1.15-.29,2.24-.75,3.38-1.06,1.11.74,2.21,1.49,3.29,2.28a11.18,11.18,0,0,0-3.25.83.07.07,0,1,0,.05.14c1.18-.24,2.44-.33,3.59-.68.55.4,1.09.81,1.62,1.24,1.05.84,2.11,1.65,3.18,2.45a3.71,3.71,0,0,0-1,.22c-.41.14-.86.12-1.26.29-.08,0-.07.2,0,.18a13.09,13.09,0,0,0,2.32-.48.11.11,0,0,0,.07-.11c.78.6,1.58,1.18,2.37,1.77-.67,0-1.31.37-2,.44a.09.09,0,1,0,0,.18,7.89,7.89,0,0,0,2.15-.43s0,0,0,0l1,.75c2.26,1.68,4.28,3.63,6.39,5.5.13.12.29-.08.18-.2a2.5,2.5,0,0,0-.23-.23.16.16,0,0,0,.06-.19c-.67-2-1.52-4.06-2.39-6A.13.13,0,0,0,32,60.38Z" style="fill:#c7e3f4"/><path d="M37.09,59.8a1.57,1.57,0,0,0,.65-.77c0-.1-.13-.15-.17-.06a2.32,2.32,0,0,1-.86.72,4.35,4.35,0,0,0-.42.33q.06-1.12.09-2.25.23-.3.48-.6a6.8,6.8,0,0,0,.75-.77c.16-.24.48-.42.57-.7a.1.1,0,0,0-.07-.1h0a.08.08,0,0,0-.08,0,11.57,11.57,0,0,0-1.64,1.57q0-1.91-.15-3.81c.38-.42.77-.83,1.14-1.25s.66-1,1.13-1.25a.08.08,0,0,0-.07-.15,2.56,2.56,0,0,0-1,.86c-.41.45-.86.87-1.26,1.33-.11-1.07-.25-2.14-.45-3.21-.06-.3-.1-.61-.15-.92.36-.46.76-.87,1.14-1.32s.83-1.12,1.31-1.62c.08-.08,0-.2-.12-.14a9.21,9.21,0,0,0-1.34,1.38,9.09,9.09,0,0,0-1.09,1.14c-.26-1.65-.46-3.31-.63-5a18.44,18.44,0,0,1,1.86-1.89,2.16,2.16,0,0,0,1-1.28.08.08,0,0,0-.15,0c-.17.69-.93,1-1.41,1.4a9.86,9.86,0,0,0-1.32,1.27c0-.48-.09-1-.14-1.45-.08-.76-.14-1.52-.2-2.28a.14.14,0,0,0,.23,0,21.74,21.74,0,0,0,2.1-3c.06-.12-.12-.2-.18-.09C36,37,35,37.75,34.43,38.83c0-.58-.11-1.17-.18-1.75-.11-.87-.12-1.84-.32-2.72-.07-.33-.3-.34-.25,0,.19,1,.21,2.09.32,3.1.17,1.4.23,2.81.32,4.22a78.46,78.46,0,0,0,.84,8.11,41.25,41.25,0,0,1,.66,7.92c0,1.15,0,2.32-.16,3.46C35,60.45,34.57,59.6,33.89,59c-.09-.08-.2,0-.12.14a21.64,21.64,0,0,0,1.85,2.3h0c0,.06,0,.11,0,.17A30.45,30.45,0,0,0,35.37,65c0,.21.34.24.37,0,.23-1.51.4-3,.51-4.54C36.54,60.29,36.8,60,37.09,59.8Z" style="fill:#c7e3f4"/><path d="M38.71,64.07c.43-.92.87-1.83,1.31-2.73a.16.16,0,0,0,.15,0c.66-.29,1.31-.62,2-.88a.1.1,0,0,0-.06-.19,13.53,13.53,0,0,0-1.92.73l.11-.22L41.21,59a.17.17,0,0,0,.25.13c.93-.52,2.29-1,2.92-1.89a.09.09,0,0,0-.13-.11c-.81.83-2,1.06-3,1.72.59-1.17,1.17-2.35,1.67-3.57a.21.21,0,0,0,.19,0,18.33,18.33,0,0,0,3.52-1.44.11.11,0,0,0-.07-.21h0l-.05,0h-.06a.07.07,0,0,0-.11.05c-.47.16-.91.4-1.38.57-.63.22-1.27.38-1.89.62l.12-.29c.36-.94.74-1.87,1.09-2.82,0-.15.12-.29.18-.43.79-.23,1.46-.67,2.22-1a2.94,2.94,0,0,0,1.45-.93.08.08,0,0,0-.12-.1,4,4,0,0,1-1.77.86c-.33.11-.66.34-1,.47l-.61.22c.33-.72.7-1.43,1-2.17A10.45,10.45,0,0,0,46,47.66a12.3,12.3,0,0,1,1.5-.85c.53-.27,1-.69,1.51-1,.11-.06,0-.22-.1-.19a18.61,18.61,0,0,0-1.77.92,7.06,7.06,0,0,0-1,.5c.33-1.44.47-2.94.93-4.34a.16.16,0,0,0-.3-.11c-.77,1.68-.88,3.64-1.4,5.4A25.26,25.26,0,0,1,44.05,51c-.44,1-.8,2.09-1.18,3.13-.19.51-.39,1-.59,1.51a7.11,7.11,0,0,0-.16-1.78,17.4,17.4,0,0,0-.59-2.57.09.09,0,0,0-.18.06c.32,1.47.43,3,.63,4.48a.15.15,0,0,0,.16.13c-.39,1-.81,1.91-1.23,2.85a17.25,17.25,0,0,0-.46-3.06.08.08,0,0,0-.15,0c.2,1,.14,2.12.37,3.17a.11.11,0,0,0,.13.08c-.16.37-.33.73-.5,1.1-.46,1-.91,2-1.36,3a9.57,9.57,0,0,1-1.58,3.08c-.06.07,0,.17.11.1A9,9,0,0,0,38.71,64.07Z" style="fill:#c7e3f4"/><path d="M18.6,74.13a.09.09,0,0,0-.09,0,14.92,14.92,0,0,0-3,1c-.1.05,0,.22.06.17,1-.37,2-.51,2.94-.94a7.17,7.17,0,0,0-.1,1.39,5.49,5.49,0,0,0,.11.77l0,.55a.58.58,0,0,1-.05.14c0,.06,0,.09.08.06.31-.28.18-.75.12-1.1a10.26,10.26,0,0,1,0-1.92S18.63,74.13,18.6,74.13Z" style="fill:#c7e3f4"/><path d="M23.8,70.3a2.07,2.07,0,0,0-.25,1.1,4.29,4.29,0,0,0-.07.5,1.28,1.28,0,0,1-.14.84c-.06.07,0,.2.12.13a1.08,1.08,0,0,0,.26-.89A4.41,4.41,0,0,1,24,70.41C24,70.31,23.87,70.21,23.8,70.3Z" style="fill:#c7e3f4"/><path d="M25.61,69.48c-.12.42-.19.86-.29,1.28,0,.06.08.1.11,0a4,4,0,0,0,.32-1.31A.07.07,0,0,0,25.61,69.48Z" style="fill:#c7e3f4"/><path d="M18.43,64.64a.1.1,0,0,0-.11-.16c-1.12.59-2.06,1.46-3.21,2-.08,0,0,.15,0,.13A11.73,11.73,0,0,0,18.43,64.64Z" style="fill:#c7e3f4"/><path d="M21.26,57.39a.08.08,0,0,0-.05-.15A14.12,14.12,0,0,0,19,57.7a.09.09,0,0,0,.06.16A13.79,13.79,0,0,0,21.26,57.39Z" style="fill:#c7e3f4"/><path d="M27.8,62.82c.35,0,.69-.1,1-.12.1,0,.12-.18,0-.19a3.45,3.45,0,0,0-1,.06,7,7,0,0,0-1,.16c-.06,0-.05.14,0,.13C27.19,62.82,27.5,62.84,27.8,62.82Z" style="fill:#c7e3f4"/><path d="M21.92,46.39a22.94,22.94,0,0,0,2.44.62.13.13,0,0,0,.05-.26c-.84-.26-1.72-.41-2.55-.71a3.51,3.51,0,0,0-1.6-.43.1.1,0,0,0,0,.2A7,7,0,0,1,21.92,46.39Z" style="fill:#c7e3f4"/><path d="M33.87,39.08c.15.09.27-.14.16-.25-.49-.48-1-.94-1.55-1.4s-.81-1-1.33-1.33c-.09-.06-.19,0-.11.12A20.67,20.67,0,0,0,33.87,39.08Z" style="fill:#c7e3f4"/><path d="M34,42.89c-1.07-1.23-2.35-2.26-3.42-3.49-.09-.1-.27,0-.19.13a17.23,17.23,0,0,0,3.34,3.59C33.86,43.25,34.12,43,34,42.89Z" style="fill:#c7e3f4"/><path d="M34.72,48.78c.13.14.32-.06.23-.2a11,11,0,0,0-1.82-2,12.19,12.19,0,0,1-2-2.13c-.06-.1-.21,0-.18.09.24.79,1,1.25,1.47,1.86C33.13,47.21,34,48,34.72,48.78Z" style="fill:#c7e3f4"/><path d="M35.55,53.39c-1.18-1.63-2.63-3.07-4-4.58-.07-.08-.21,0-.15.1a56.07,56.07,0,0,0,3.9,4.67C35.44,53.7,35.64,53.52,35.55,53.39Z" style="fill:#c7e3f4"/><path d="M35.47,57.82c.12.12.33-.07.23-.2-.42-.51-.85-1-1.29-1.52a12.22,12.22,0,0,0-1.35-1.52c-.09-.08-.2.05-.12.14C33.83,55.71,34.53,56.86,35.47,57.82Z" style="fill:#c7e3f4"/><path d="M45.48,47a10.15,10.15,0,0,0-.32-1.55c-.16-.62-.21-1.26-.39-1.87a.07.07,0,0,0-.13,0c.12.45.13.92.23,1.38.15.67.33,1.33.43,2A.09.09,0,1,0,45.48,47Z" style="fill:#c7e3f4"/><path d="M44,50.83a23.21,23.21,0,0,0-.95-4.2c0-.1-.17-.05-.15.06.28,1.39.39,2.82.77,4.2C43.73,51.08,44,51,44,50.83Z" style="fill:#c7e3f4"/><path d="M39.09,59.21a12.33,12.33,0,0,0,.1,2.35.13.13,0,0,0,.26,0c0-.77-.15-1.54-.18-2.32C39.27,59.12,39.1,59.1,39.09,59.21Z" style="fill:#c7e3f4"/><path d="M54.21,60.59v0s0,0,0,0h0l0,0c-.56.27-1.06.64-1.6.94-.09.06,0,.21.08.16.57-.28,1-.7,1.59-1C54.34,60.68,54.28,60.57,54.21,60.59Z" style="fill:#c7e3f4"/><path d="M48.13,59.43c-.55.73-1.21,1.34-1.81,2a.13.13,0,0,0,.2.18,8.78,8.78,0,0,0,1.75-2.1C48.32,59.44,48.19,59.35,48.13,59.43Z" style="fill:#c7e3f4"/><path d="M45.43,60.67a.23.23,0,0,1,0,.11l-.26.36-.41.41a8.87,8.87,0,0,0-.71,1c-.06.1.11.21.18.11.29-.43.6-.85.92-1.25.16-.21.46-.44.42-.74A.06.06,0,0,0,45.43,60.67Z" style="fill:#c7e3f4"/><path d="M50.22,61.29l-.4,0c.38-.31.76-.62,1.12-.94a2.49,2.49,0,0,0,.23-.23l.65-.5.12,0c.08,0,.09-.13,0-.14a1,1,0,0,0-.8.37c-.53.49-1.13.88-1.62,1.4a.07.07,0,0,0,0,.06,9.19,9.19,0,0,0-3.42.68A27.9,27.9,0,0,0,42,64c-.75.44-1.48.91-2.21,1.37-.51.32-1,1-1.62,1.11-.12,0-.11.2,0,.19a1.53,1.53,0,0,0,.89-.43,14.15,14.15,0,0,1,1.7-1.16c.35-.21.71-.41,1.07-.6a.15.15,0,0,0,.06,0,2.06,2.06,0,0,1,.91.72.11.11,0,0,0,.19-.12,1.5,1.5,0,0,0-.92-.77q1-.51,2-1c.77.71,1.37,1.57,2.13,2.28.06,0,.16,0,.11-.1a15.36,15.36,0,0,0-2.09-2.25l1-.44c.43-.19.86-.36,1.3-.51l0,0a10.57,10.57,0,0,1,1.11,1.11c.49.48,1,.95,1.51,1.4a.16.16,0,0,0,.21-.24c-.48-.49-1-1-1.48-1.44a7.58,7.58,0,0,0-1.09-.95,8.89,8.89,0,0,1,2.67-.44h0c.71.61,1.25,1.37,1.92,2,.11.11.27-.07.16-.19a17.57,17.57,0,0,0-1.82-1.84,9.22,9.22,0,0,1,2.27.38c.68.19,1.3.55,2,.71.22,0,.35-.3.13-.38A14.33,14.33,0,0,0,50.22,61.29Z" style="fill:#c7e3f4"/><path d="M85.88,77.52c.36-1.31-.47-2.68-1.19-3.71a7.51,7.51,0,0,0-4-2.82,20.48,20.48,0,0,0-5.52-.63c-1.38,0-2.78-.08-4.16,0a25.94,25.94,0,0,0,4.07-.81c2.29-.63,4.53-1.27,6.86-1.73,4-.79,7.91-2.11,10.33-5.68.84-1.24,1.54-3.44.13-4.55s-3.63-.16-4.94.38a33.55,33.55,0,0,0-5.77,3.34c-2.07,1.39-4.15,2.72-6.35,3.9S71.47,67.57,70.7,68s-1.69.79-1.76.67,1.43-1,1.43-1,6.47-4,9.38-7.2c1.78-2,3.49-4,5.17-6.08a22.63,22.63,0,0,0,3.73-5.85,5.32,5.32,0,0,0-.16-4.91c-1.08-1.71-3.31-1.31-4.82-.6a12.17,12.17,0,0,0-4.48,4.42,69.67,69.67,0,0,0-3.9,6.68c-2.21,4.16-4.57,8.24-6.76,12.41l0,0a12.25,12.25,0,0,0,1.18-2.8c.87-2.58,1.77-5.11,2.86-7.61s2.13-4.92,3-7.46a45.77,45.77,0,0,0,2.16-7A6.77,6.77,0,0,0,76.5,36a2.81,2.81,0,0,0-3.81-.79c-1.32.89-1.88,2.75-2.35,4.17a53.94,53.94,0,0,0-1.64,8c-.61,3.79-1.36,7.56-2,11.34A59.6,59.6,0,0,0,66,51.75c-.32-2.48-.37-5-.87-7.45a19.14,19.14,0,0,0-2.56-6.24,10.39,10.39,0,0,0-2.11-2.47,3.38,3.38,0,0,0-2.1-1c-2,.14-1.52,3.05-1.35,4.36a36,36,0,0,0,1.83,6.92c.84,2.47,1.63,5,2.35,7.45,1.16,4,2.38,8,3.51,12-2-3.95-3.74-8-6-11.81a40.5,40.5,0,0,0-4.6-6.28C53,46,51.52,44.57,49.78,44.45s-2.49,1.88-2.53,3.35a8.23,8.23,0,0,0,2.1,5.3c3.28,4.06,8.21,6.31,11.88,9.94,1,1,1.85,2,2.78,2.95l-.22.22c-1.13-.75-2.24-1.5-3.43-2.15a28.89,28.89,0,0,0-5.88-2.32,22.73,22.73,0,0,0-2.7-.69,8.93,8.93,0,0,0-2.58.09,10.45,10.45,0,0,0-2.22.55c-.56.21-1.5.64-1.75,1.23-.56,1.31.76,2.51,1.84,3,1.66.76,4,.39,5.76.24a31.69,31.69,0,0,1,6.45-.33,19.83,19.83,0,0,1,3.92,1l3.38,3.08,2.22,1h0l.61.28h0a36.75,36.75,0,0,1,5,2.53,33.64,33.64,0,0,1,4.06,3.68,7.06,7.06,0,0,0,4.3,2A2.8,2.8,0,0,0,85.88,77.52Z" style="fill:#6ebc2e"/><path d="M61.15,61.44c-.62-.89-1.22-1.81-1.85-2.7l-.06-.08a23.94,23.94,0,0,0,.64-2.56.09.09,0,0,0-.18,0c-.13.79-.62,1.47-.73,2.24-.56-.69-1.19-1.3-1.71-2l-.55-.71c.06-.34.13-.67.21-1,.17-.66,0-1.31.39-1.93.06-.12-.08-.24-.17-.13a2.93,2.93,0,0,0-.48,1.56,9.81,9.81,0,0,1-.25,1.13c-.72-.9-1.49-1.78-2.23-2.67.16-.49.24-1,.35-1.5a8.83,8.83,0,0,0,.3-1.92.09.09,0,0,0-.17,0c-.2,1-.56,2-.76,3.09-.27-.33-.55-.66-.8-1-.42-.54-.83-1.1-1.24-1.65.06-1.12.41-2.2.45-3.33a.09.09,0,0,0-.18,0c-.08.62-.22,1.23-.29,1.86-.05.39-.2.78-.21,1.17-.79-1.06-1.58-2.12-2.42-3.12-.05-.07-.15,0-.1.07.57.79,1,1.68,1.55,2.46.31.41.6.84.89,1.27a10.51,10.51,0,0,0-1.65-.34A11.83,11.83,0,0,1,48,49.21c-.1,0-.13.13,0,.17a8.37,8.37,0,0,0,1.67.33c.66.13,1.35.26,2,.37.32.48.63,1,1,1.43s.76,1,1.16,1.52c-1.4-.23-2.87,0-4.24-.35-.09,0-.12.11,0,.15a4.4,4.4,0,0,0,1.61.28c.91,0,1.82.14,2.73.17a.11.11,0,0,0,.1-.05c.93,1.14,1.9,2.26,2.83,3.41.6.74,1.33,1.37,1.91,2.13l.16.23c-.5-.1-1-.15-1.52-.26s-.89-.06-1.32-.18c-.08,0-.14.09,0,.13a3.37,3.37,0,0,0,1.14.25c.59.06,1.16.21,1.77.23a.09.09,0,0,0,.08-.05c.63.85,1.24,1.71,1.86,2.56,1.3,1.79,2.66,3.54,4,5.32.1.13.28,0,.2-.15C63.84,65,62.42,63.25,61.15,61.44Z" style="fill:#c7e3f4"/><path d="M53.59,63.45a7.18,7.18,0,0,0-1.1-.8,7.48,7.48,0,0,0-1.14-.71c-.09,0-.13.09-.05.13.71.39,1.28,1.07,2,1.44-.37.36-.74.72-1.1,1.09s-.48.85-.9,1.11c-.06,0,0,.14.06.11a2.51,2.51,0,0,0,.79-.89c.36-.5.9-.87,1.3-1.34h0A.09.09,0,0,0,53.59,63.45Z" style="fill:#c7e3f4"/><path d="M55.3,62.46c-.08-.07-.19,0-.13.1a7.45,7.45,0,0,0,1.58,1.54c.09.09.23,0,.16-.15C56.45,63.38,55.81,63,55.3,62.46Z" style="fill:#c7e3f4"/><path d="M57.8,63.17a0,0,0,1,0-.09,0,4.3,4.3,0,0,0,1.13,1.57c.08.08.21,0,.14-.14A12.87,12.87,0,0,1,57.8,63.17Z" style="fill:#c7e3f4"/><path d="M60.22,38.27a12.89,12.89,0,0,1,.38-2.06c0-.1-.11-.16-.15-.07a7.19,7.19,0,0,0-.42,2.1A.1.1,0,0,0,60.22,38.27Z" style="fill:#c7e3f4"/><path d="M64.64,55.59a.12.12,0,0,0,.22.09c.18-.38.34-.75.49-1.14a6.73,6.73,0,0,0,.43-1.13c0-.13-.17-.14-.2,0a7.86,7.86,0,0,1-.53,1.19C64.9,54.91,64.77,55.25,64.64,55.59Z" style="fill:#c7e3f4"/><path d="M74.72,39.46c.45-.39.92-.75,1.38-1.13a2.94,2.94,0,0,0,1-1c0-.08-.1-.17-.15-.08a3.89,3.89,0,0,1-1.07.9,6.84,6.84,0,0,0-1.31,1.09C74.45,39.39,74.6,39.56,74.72,39.46Z" style="fill:#c7e3f4"/><path d="M72.19,50.93a.14.14,0,0,0,.21.17,12.87,12.87,0,0,1,1.67-1.36c.32-.28.73-.5.84-.94,0-.1-.14-.14-.18,0-.18.45-.87.79-1.25,1.06A4.78,4.78,0,0,0,72.19,50.93Z" style="fill:#c7e3f4"/><path d="M69.15,62c.37-.36.81-.63,1.15-1,.08-.1-.07-.21-.16-.12-.35.36-.82.58-1.15,1,.18-.58.36-1.16.53-1.74s.29-.93.43-1.4a.13.13,0,0,0,.19,0,10.88,10.88,0,0,0,1.58-1.36c.08-.1-.07-.21-.16-.12-.45.49-1.06.78-1.54,1.24.32-1.08.65-2.15,1-3.23h0q.75-.55,1.44-1.17a2.93,2.93,0,0,0,.91-.91.09.09,0,0,0-.15-.09,4.82,4.82,0,0,1-1.06.89c-.36.3-.72.58-1.06.89.31-1.08.62-2.15.91-3.24a.12.12,0,0,0,0-.12c.38-1.44.74-2.88,1.06-4.33a9.43,9.43,0,0,1,1.37-1.08c.47-.29,1.25-.68,1.44-1.22a.1.1,0,0,0-.18-.08c-.21.52-1.19.93-1.65,1.2a5.19,5.19,0,0,0-.87.63c.25-1.16.48-2.33.67-3.5l0-.13a11.87,11.87,0,0,1,1.87-1.15c.48-.27,1.26-.47,1.54-1,.06-.11-.11-.19-.17-.1h0c-.21.29-.76.44-1.08.58l-1,.51a5.65,5.65,0,0,0-1,.57c.19-1.18.38-2.35.59-3.51a15.84,15.84,0,0,0,.54-3.6.1.1,0,0,0-.2,0,29.13,29.13,0,0,1-.83,3.53l0,.13a12.35,12.35,0,0,0-.84-1.4c-.12-.19-.27-.39-.41-.59l-.24-.47a1.14,1.14,0,0,1-.07-.32.09.09,0,0,0-.18,0,1.74,1.74,0,0,0,.37,1.15c.38.65.73,1.32,1.13,2a.16.16,0,0,0,.16.07c-.2,1-.38,2.06-.55,3.09a13.48,13.48,0,0,0-1.11-1.77,6.89,6.89,0,0,0-1.42-1.94.09.09,0,0,0-.11.14,11.42,11.42,0,0,1,1.23,2c.43.65.83,1.31,1.25,2a.19.19,0,0,0,.07.06V43c-.42,2.58-1,5.13-1.68,7.66-.41-.71-.89-1.38-1.29-2.09-.26-.47-.49-1.24-1-1.43a.07.07,0,0,0-.06.13.26.26,0,0,1,.11.07l.54.88a6,6,0,0,0,.33.73c.41.73.87,1.43,1.29,2.16,0,.13-.06.25-.1.38-.29,1.11-.6,2.21-.92,3.31-.53-1.39-1.49-2.58-1.89-4,0-.11-.2-.06-.19,0a6.7,6.7,0,0,0,.83,2.06c.41.76.74,1.55,1.14,2.31-.34,1.14-.67,2.28-1,3.41a12,12,0,0,0-.54-1.21l-.6-1.32A4.75,4.75,0,0,0,67.76,55c-.05-.08-.19,0-.15.09.31.63.49,1.36.77,2s.61,1.37.83,2.08c-.1.32-.2.64-.29,1-.19.61-.4,1.23-.61,1.84-.23-.53-.5-1.05-.71-1.59a3.43,3.43,0,0,0-.7-1.37c-.07-.06-.17,0-.12.12a7.14,7.14,0,0,1,.61,1.55,17.07,17.07,0,0,0,.78,1.68,51.23,51.23,0,0,0-1.62,5,54.3,54.3,0,0,0-1-7.29c-.08-.44-.18-.88-.28-1.32,0,0,0,0,0,0a9.63,9.63,0,0,0,1-2.42c0-.1-.12-.14-.17-.07l0,0a.07.07,0,0,0,0,.13c-.29.66-.62,1.32-.86,2-.21-.89-.41-1.77-.57-2.66-.21-1.16-.39-2.33-.58-3.49a21,21,0,0,0,1.25-2.51.09.09,0,0,0-.16-.07c-.35.68-.83,1.29-1.19,2l-.06-.36c-.11-.67-.25-1.33-.39-2a20.8,20.8,0,0,0,1.36-3.19.09.09,0,0,0-.17-.07c-.44.88-1,1.78-1.32,2.72-.25-1.1-.53-2.18-.83-3.26a.1.1,0,0,0,0-.06,32.18,32.18,0,0,0,1.31-3.29.09.09,0,0,0-.17-.07,29.16,29.16,0,0,0-1.32,3c-.17-.59-.34-1.18-.52-1.78s-.38-1.22-.59-1.82c.45-.87.42-2,1-2.77a.09.09,0,0,0-.14-.11,3.44,3.44,0,0,0-.66,1.34,10,10,0,0,0-.34,1c-.22-.59-.44-1.17-.69-1.74-.6-1.38-1.31-2.75-1.81-4.17,0-.11-.19,0-.16.06.37,1.14.78,2.25,1.2,3.36-.29-.14-.59-.26-.89-.39s-.74-.14-1-.39c-.06,0-.12,0-.07.1s0,.06.07.07l.75.32h.05c.4.14.77.33,1.17.46.36.95.71,1.9,1,2.86a10.27,10.27,0,0,0-1.51-.5c-.21-.06-.45-.1-.67-.15l-.6-.21a.57.57,0,0,1-.13-.08,0,0,0,0,0,0,.05,1.43,1.43,0,0,0,.8.51c.76.17,1.49.43,2.24.65.16.48.33,1,.47,1.45L61.83,45a13.41,13.41,0,0,0-3.07-1.26.09.09,0,0,0-.07.17c1.05.54,2.17.91,3.24,1.43.35,1.29.68,2.58,1,3.88a10.93,10.93,0,0,0-3-1.51.07.07,0,0,0-.06.13c1,.59,2.06,1.36,3.16,1.86.14.66.28,1.32.4,2,.24,1.32.5,2.63.77,3.94a3.47,3.47,0,0,0-.92-.52,12.38,12.38,0,0,0-1.14-.6.09.09,0,0,0-.09.16,13.54,13.54,0,0,0,2.07,1.16.1.1,0,0,0,.12,0c.2,1,.41,1.93.62,2.89-.54-.4-1.23-.58-1.78-1a.1.1,0,0,0-.12.15A8.08,8.08,0,0,0,64.86,59h0l.27,1.22c.59,2.76.83,5.56,1.19,8.35,0,.18.27.13.26,0s0-.21,0-.32a.15.15,0,0,0,.17-.1c.83-2,1.52-4,2.17-6.12A.13.13,0,0,0,69.15,62Z" style="fill:#c7e3f4"/><path d="M73.33,64.89a1.71,1.71,0,0,0,1-.15c.08-.06,0-.2-.09-.16a2.36,2.36,0,0,1-1.12,0,4.75,4.75,0,0,0-.54,0c.53-.53,1-1.07,1.55-1.63.25,0,.5-.1.76-.13A9.45,9.45,0,0,0,76,62.67c.28-.08.64,0,.89-.15a.09.09,0,0,0,0-.13h0a.07.07,0,0,0-.08,0,10.84,10.84,0,0,0-2.27.11c.84-1,1.64-1.95,2.39-3,.57-.06,1.13-.11,1.69-.18a5.31,5.31,0,0,1,1.67-.2.09.09,0,0,0,0-.16,2.68,2.68,0,0,0-1.32,0c-.61.07-1.22.09-1.82.18.62-.88,1.22-1.78,1.77-2.72.16-.26.33-.52.49-.79.58-.11,1.15-.16,1.73-.24s1.36-.3,2.06-.36c.11,0,.1-.17,0-.19A9.58,9.58,0,0,0,81.3,55a9.47,9.47,0,0,0-1.57.15c.89-1.42,1.84-2.8,2.8-4.16a19.55,19.55,0,0,1,2.64-.2,2.16,2.16,0,0,0,1.57-.33.08.08,0,0,0-.09-.12c-.58.41-1.34.11-2,.12a9.35,9.35,0,0,0-1.82.1l.84-1.19c.44-.62.9-1.23,1.35-1.85,0,.09.06.19.17.16a22.12,22.12,0,0,0,3.53-.84c.12,0,0-.23-.08-.19-1.13.4-2.41.26-3.51.72.34-.47.68-1,1-1.44.5-.72,1.12-1.46,1.56-2.25.16-.3,0-.45-.16-.2-.53.89-1.23,1.71-1.8,2.55-.81,1.16-1.69,2.26-2.55,3.39a79,79,0,0,0-4.7,6.65,41.68,41.68,0,0,1-4.72,6.39c-.78.85-1.56,1.72-2.4,2.51,0-.94.19-1.88.1-2.81,0-.12-.18-.09-.18,0a20.8,20.8,0,0,0-.12,3,0,0,0,0,0,0,0l-.12.12a33.3,33.3,0,0,0-2.47,2.43c-.14.16.1.41.27.27q1.75-1.47,3.37-3.08C72.6,64.89,73,64.86,73.33,64.89Z" style="fill:#c7e3f4"/><path d="M71.74,69.16,74.53,68a.12.12,0,0,0,.09.12c.69.22,1.38.4,2.06.65a.1.1,0,1,0,.08-.18,13,13,0,0,0-1.92-.72l.23-.1L77,67a.17.17,0,0,0,.1.26c1,.23,2.37.8,3.44.51a.09.09,0,0,0,0-.17c-1.15.09-2.24-.55-3.37-.66,1.22-.49,2.43-1,3.62-1.59a.19.19,0,0,0,.11.16,18.43,18.43,0,0,0,3.6,1.23.11.11,0,0,0,.08-.2h0l0,0,0,0a.08.08,0,0,0-.12,0c-.46-.18-1-.29-1.41-.48-.62-.24-1.21-.54-1.83-.78l.28-.13c.89-.47,1.79-.92,2.67-1.41l.42-.21a23.92,23.92,0,0,0,2.31.75,2.86,2.86,0,0,0,1.7.25.08.08,0,0,0,0-.15,3.87,3.87,0,0,1-1.89-.52c-.32-.14-.72-.18-1.06-.3l-.6-.23c.72-.33,1.47-.62,2.18-1a9.7,9.7,0,0,0,1-.58,11.93,11.93,0,0,1,1.68.35c.58.14,1.19.12,1.78.26.12,0,.16-.16,0-.21a17.7,17.7,0,0,0-1.94-.47,6.71,6.71,0,0,0-1.07-.27c1.19-.87,2.29-1.91,3.55-2.67.16-.09,0-.34-.15-.27-1.69.76-3.06,2.16-4.61,3.15a26.82,26.82,0,0,1-3,1.32c-1,.48-2,1-3,1.57q-.72.39-1.44.75a6.73,6.73,0,0,0,1-1.44,16.33,16.33,0,0,0,1.25-2.33.09.09,0,1,0-.17-.07c-.73,1.32-1.65,2.53-2.48,3.79a.16.16,0,0,0,0,.21c-.93.46-1.87.9-2.81,1.32A16.64,16.64,0,0,0,78.55,64c0-.08-.08-.15-.13-.08-.53.92-1.29,1.69-1.81,2.63a.11.11,0,0,0,0,.15l-1.1.5c-1,.44-2,.89-3,1.35a9.52,9.52,0,0,1-3.22,1.27.08.08,0,0,0,0,.15A8.8,8.8,0,0,0,71.74,69.16Z" style="fill:#c7e3f4"/><path d="M50,63.5a.1.1,0,0,0,0-.09A14.44,14.44,0,0,0,47,62.18c-.11,0-.18.12-.07.16,1,.35,1.86.94,2.84,1.23a7.72,7.72,0,0,0-1,1c-.15.19-.27.43-.42.65l-.38.4a.57.57,0,0,1-.13.08c-.05,0,0,.09,0,.09.41,0,.62-.44.81-.75A10.15,10.15,0,0,1,50,63.59.07.07,0,0,0,50,63.5Z" style="fill:#c7e3f4"/><path d="M56.41,64a2.18,2.18,0,0,0-.91.66c-.13.12-.26.2-.38.33s-.38.49-.65.54c-.1,0-.11.18,0,.18.33,0,.57-.27.78-.5a4.22,4.22,0,0,1,1.21-1C56.56,64.18,56.53,64,56.41,64Z" style="fill:#c7e3f4"/><path d="M58.32,64.61c-.37.24-.71.52-1.07.78,0,0,0,.12.06.09a3.7,3.7,0,0,0,1.1-.77A.07.07,0,0,0,58.32,64.61Z" style="fill:#c7e3f4"/><path d="M56.1,56.24a.1.1,0,0,0,0-.19c-1.24-.3-2.52-.26-3.75-.6a.07.07,0,1,0-.05.12A11.68,11.68,0,0,0,56.1,56.24Z" style="fill:#c7e3f4"/><path d="M63,52.65a.08.08,0,1,0,.06-.15,13.63,13.63,0,0,0-2-1.11c-.1,0-.16.11-.06.16A13.57,13.57,0,0,0,63,52.65Z" style="fill:#c7e3f4"/><path d="M64.35,61c.28.21.59.38.86.59.09.07.21-.05.14-.13a3.62,3.62,0,0,0-.77-.58,5.3,5.3,0,0,0-.87-.55c-.07,0-.13.07-.07.11C63.89,60.64,64.11,60.86,64.35,61Z" style="fill:#c7e3f4"/><path d="M70.74,44.81c.45.7.92,1.41,1.43,2.06a.13.13,0,0,0,.21-.15c-.46-.75-1-1.45-1.45-2.21-.28-.49-.43-1.07-.93-1.39a.1.1,0,0,0-.12.16A6.55,6.55,0,0,1,70.74,44.81Z" style="fill:#c7e3f4"/><path d="M84.55,47.17c0,.17.3.08.28-.08,0-.69-.15-1.39-.24-2.07s0-1.26-.13-1.89a.08.08,0,0,0-.16,0A20,20,0,0,0,84.55,47.17Z" style="fill:#c7e3f4"/><path d="M82.13,50.11c0-1.63-.29-3.25-.28-4.87a.12.12,0,0,0-.23,0,17.13,17.13,0,0,0,.15,4.9C81.8,50.3,82.13,50.32,82.13,50.11Z" style="fill:#c7e3f4"/><path d="M78.8,55c0,.19.28.17.31,0a11.34,11.34,0,0,0,0-2.73,13,13,0,0,1-.1-2.92.1.1,0,0,0-.19-.05,5.5,5.5,0,0,0-.12,2.36C78.64,52.8,78.76,53.93,78.8,55Z" style="fill:#c7e3f4"/><path d="M76.39,59.05c.18-2,0-4,0-6,0-.12-.17-.14-.18,0a53.61,53.61,0,0,0-.14,6.08C76.11,59.21,76.37,59.2,76.39,59.05Z" style="fill:#c7e3f4"/><path d="M73.42,62.33a.15.15,0,0,0,.3,0c0-.67,0-1.33,0-2a12.51,12.51,0,0,0,0-2c0-.12-.19-.09-.19,0C73.56,59.66,73.34,61,73.42,62.33Z" style="fill:#c7e3f4"/><path d="M88.05,60.8a10.47,10.47,0,0,0,.79-1.38c.28-.57.67-1.09.93-1.67,0-.08-.08-.13-.12,0-.21.42-.51.78-.74,1.19-.33.6-.63,1.22-1,1.8C87.84,60.79,88,60.9,88.05,60.8Z" style="fill:#c7e3f4"/><path d="M84.45,62.69a24.25,24.25,0,0,0,2-3.78c0-.1-.1-.15-.16-.06-.7,1.23-1.56,2.38-2.19,3.67C84.07,62.69,84.35,62.86,84.45,62.69Z" style="fill:#c7e3f4"/><path d="M75.22,65.76a11.73,11.73,0,0,0-1.46,1.83.13.13,0,1,0,.2.16c.48-.61.9-1.26,1.39-1.86C75.42,65.81,75.3,65.68,75.22,65.76Z" style="fill:#c7e3f4"/><path d="M85.69,76.76v0s0,0,0,0h0v0c-.59-.18-1.21-.22-1.82-.35a.09.09,0,0,0,0,.17c.61.17,1.25.17,1.87.28C85.74,76.91,85.76,76.78,85.69,76.76Z" style="fill:#c7e3f4"/><path d="M81.88,71.87c-.89.2-1.79.22-2.69.34a.13.13,0,0,0,0,.26,8.82,8.82,0,0,0,2.71-.42C82,72,82,71.85,81.88,71.87Z" style="fill:#c7e3f4"/><path d="M79,71a.31.31,0,0,1-.09.07l-.43.1c-.23,0-.46,0-.58,0a7.79,7.79,0,0,0-1.18.28c-.12,0-.06.22,0,.2.5-.13,1-.24,1.52-.34.26,0,.64,0,.8-.27C79.17,71,79.08,71,79,71Z" style="fill:#c7e3f4"/><path d="M82.23,74.65,82,74.38l1.45,0,.33,0,.82.05.1.07c.06.06.16,0,.1-.1a1,1,0,0,0-.85-.25c-.71,0-1.43-.09-2.14,0,0,0,0,0-.05,0a9.41,9.41,0,0,0-3-1.75,29.08,29.08,0,0,0-4.43-1.14c-.85-.16-1.71-.29-2.57-.43-.59-.09-1.43.1-1.94-.22a.1.1,0,1,0-.12.15,1.51,1.51,0,0,0,1,.25,15.36,15.36,0,0,1,2,.25c.41.07.81.16,1.21.25a.09.09,0,0,0,0,.07,2,2,0,0,1,.21,1.15.12.12,0,0,0,.23,0,1.47,1.47,0,0,0-.19-1.17c.72.17,1.42.37,2.13.58.1,1,0,2.08.09,3.11,0,.08.15.08.15,0a15.74,15.74,0,0,0-.09-3.07l1,.32a13.52,13.52,0,0,1,1.31.47v0a11.61,11.61,0,0,1,.1,1.57c.06.68.12,1.37.22,2a.16.16,0,0,0,.32,0c0-.69-.1-1.38-.17-2.06a6.94,6.94,0,0,0-.2-1.44,8.81,8.81,0,0,1,2.31,1.43s0,0,0,0c.14.92,0,1.85.12,2.78,0,.16.25.12.25,0a18.52,18.52,0,0,0-.16-2.58,9.63,9.63,0,0,1,1.45,1.79c.39.59.62,1.26,1,1.84.13.18.45,0,.34-.2A14,14,0,0,0,82.23,74.65Z" style="fill:#c7e3f4"/></g><g style="clip-path:url(#c)"><path d="M39.07,74.12a39.25,39.25,0,0,1,5-1.88c.85-.24,1.72-.36,2.57-.6A16,16,0,0,1,50,71.17a27.94,27.94,0,0,1,6.32.49A31.4,31.4,0,0,1,62.82,73c.12,0,.21-.14.08-.19C61.12,72,59,71.9,57,71.56a43.64,43.64,0,0,0-6.35-.63,28.31,28.31,0,0,0-6.34,1,17.19,17.19,0,0,0-2.58.91c-1,.35-1.84.67-2.77,1.09-.12,0,0,.24.07.19Z" style="fill:#848ca4"/><path d="M37.84,42.91A19.19,19.19,0,0,0,43,40.77l-.48-9.15L41,30a39,39,0,0,0-6.44,4.78c-3.29,3-4.06,4.93-4.06,4.93a5,5,0,0,0-.32,2.43c.21,1.12.66,1.48,1.72,1.81S34.6,43.79,37.84,42.91Z" style="fill:#e8c203"/><path d="M38.89,42a40.6,40.6,0,0,0,4.8-2.41l-.43-7.22-1.56-1.7a59.54,59.54,0,0,0-6.23,4.41c-3.23,2.62-4,4.29-4,4.29a4,4,0,0,0-.31,2.12c.2,1,.65,1.29,1.69,1.58S37.18,42.6,38.89,42Z" style="fill:#010101;opacity:0.1"/><path d="M54.88,25.67a30.88,30.88,0,0,1,1.72,4.89c.34,1.81.57,6.76.57,6.76s1.32.2,5.83-.62,7.27-2.89,7.8-3.8a2.94,2.94,0,0,0,0-3.33c-.83-1.46-2.77-2.79-7-3.43A54.36,54.36,0,0,0,54.88,25.67Z" style="fill:#e8c203"/><path d="M53.89,26.49a24.15,24.15,0,0,1,1.72,4.26,57.2,57.2,0,0,1,.57,5.9A25.79,25.79,0,0,0,62,36.1c4.5-.71,7.27-2.52,7.8-3.31a2.28,2.28,0,0,0,0-2.9c-.83-1.28-2.76-2.43-7-3A63.45,63.45,0,0,0,53.89,26.49Z" style="fill:#010101;opacity:0.1"/><path d="M40.89,38.38s0,4.39-1,6.59-3.79,3.59-4.22,5.51-.89,5.79,2.27,6.64,5.6-2.28,9.51-2.37,7,1.8,10.37,1.46a6.25,6.25,0,0,0,5.46-5.84,7.62,7.62,0,0,0-2.05-5.24c-1.07-1.15-5.51-2.54-5.51-2.54l-12-.85Z" style="fill:#fd8b2e"/><path d="M40.9,36.13a17.91,17.91,0,0,0,2.87,9.93,7.18,7.18,0,0,0,6.52,2.76c2.47-.23,4.2-1.2,5.75-3.87a17.33,17.33,0,0,0,1.89-10c-.43-3.24-8-8.22-8-8.22l-7.16,4.06A9.43,9.43,0,0,0,40.9,36.13Z" style="fill:#e4b596"/><path d="M56.42,28.27a8.73,8.73,0,0,0-4.74-4.74c-1.82-.82-3.87,1.12-5.22,1.42s-2.59-.12-4,1.31c-1.84,1.88-2.12,6.15-2.12,8.18A5.46,5.46,0,0,0,41,37.36,6.76,6.76,0,0,0,44,35.13,10.68,10.68,0,0,0,46,30.77a16.62,16.62,0,0,0,1.62,1.82,14.4,14.4,0,0,0,4.09,2.07c1.75.6,6.26.25,6.26.25A21.68,21.68,0,0,0,56.42,28.27Z" style="fill:#fd8b2e"/><path d="M40.34,31.5l5-3.08a20.51,20.51,0,0,1,5-1.65A46.9,46.9,0,0,1,56,26.48a37.73,37.73,0,0,0-2.74-4.16,4,4,0,0,0-2.93-1.23c-1.45,0-2,1-2.61,1.65a2.23,2.23,0,0,1-1.75.73,7.33,7.33,0,0,0-2.5-.16c-1.36.23-1.94,1.66-2.4,3A32.91,32.91,0,0,0,40.34,31.5Z" style="fill:#e8c203"/><path d="M41.89,56.12c.52.65,4.86,1.91,8,1.91s6.55-.31,9.57-.53,6.44-1.43,5.74-2.35-5.58-.56-6.74-.86-1.77-.49-3.07-2.75a10,10,0,0,1-1.15-4.95l-7.31.66a20.24,20.24,0,0,1,1.3,5c.14,2.22-2.22,2.85-2.22,2.85S41.37,55.47,41.89,56.12Z" style="fill:#e4b596"/><path d="M35.5,77.46A37.57,37.57,0,0,1,33,68.92a11.36,11.36,0,0,1,2.44-9.06c2-2.41,5.43-4,6.57-4s2.85.75,5.39,1a76.83,76.83,0,0,0,11-.23c2.09-.26,3.6-2,5.61-2s3.63,1.74,5.15,3.81,4.5,5.43,5,10.33a8.39,8.39,0,0,1-2.89,7.4l-4.85,3.39Z" style="fill:#1f3658"/><path d="M54.21,47.28a5.73,5.73,0,0,1-1,.69c.19-1.31,1.91-2.51,2.75-3.22-1.07-1.26-2,1-3.34-.57s-1.78-3.36-4.12-3.12c-.29,0-.78.43-.38,1.11a21.24,21.24,0,0,1,2.26,5.19,8.11,8.11,0,0,1-.22,1.48,8,8,0,0,1-2.83-.3c.34,1,1.59,1.18,2.58,1.41q-.82,3.49-3,11.33l4.18,2c1-6.45,1.58-10.84,1.91-13.2.92-.06,1.65-.23,1.57-.53A11.71,11.71,0,0,1,54.21,47.28Z" style="fill:#010101;fill-rule:evenodd;opacity:0.2"/><path d="M47.51,61.21l4.17,2Q53.78,49,53.84,48c.09-1.36,1.9-2.62,2.76-3.35-1.07-1.26-2,1.05-3.33-.57S51.49,40.76,49.15,41c-.29,0-.78.42-.39,1.11A20.81,20.81,0,0,1,51,47.3Q51,48.76,47.51,61.21Z" style="fill:#e4b596;fill-rule:evenodd"/><path d="M54,35.77a2.5,2.5,0,0,1,1.63-1l8.62-.52-.47,5.94-9.25-.92A2.52,2.52,0,0,1,54,35.77Z" style="fill:#8a8793"/><path d="M63.48,34.6a2.53,2.53,0,0,1,1.62-1l6.4-.11-.81,9.65-7.06-.75C62.51,41.59,62.65,35.72,63.48,34.6Z" style="fill:#8a8793"/><ellipse cx="70.92" cy="38.24" rx="2.87" ry="3.94" transform="translate(-3.56 7.49) rotate(-5.9)" style="fill:#46ade4"/><path d="M71.06,33.51c-1.91,0-3.48,2.13-3.5,4.78S69.08,43.1,71,43.11s3.48-2.12,3.5-4.77S73,33.53,71.06,33.51ZM71,41.74c-1.37,0-2.46-1.55-2.45-3.44s1.13-3.43,2.5-3.42,2.46,1.56,2.44,3.45S72.36,41.75,71,41.74Z" style="fill:#5c5669"/><g style="opacity:0.46"><ellipse cx="71.36" cy="37.47" rx="1.04" ry="1.43" transform="translate(-3.47 7.53) rotate(-5.9)" style="fill:#fff"/></g><path d="M47.14,38.82a2.5,2.5,0,0,1,1.63-1l8.62-.52L57.09,45l-9.25-.93C46.73,43.23,46.32,39.93,47.14,38.82Z" style="fill:#8a8793"/><path d="M56.62,37.65a2.45,2.45,0,0,1,1.63-1l6.4-.12-.81,9.66-7.07-.75C55.66,44.64,55.8,38.76,56.62,37.65Z" style="fill:#8a8793"/><ellipse cx="64.06" cy="41.29" rx="2.87" ry="3.94" transform="translate(-3.91 6.8) rotate(-5.9)" style="fill:#46ade4"/><path d="M64.2,36.56c-1.9,0-3.47,2.13-3.49,4.78s1.51,4.81,3.42,4.82,3.48-2.12,3.5-4.77S66.11,36.58,64.2,36.56Zm-.06,8.23c-1.36,0-2.46-1.56-2.44-3.45s1.13-3.42,2.49-3.41,2.46,1.56,2.45,3.45S65.51,44.8,64.14,44.79Z" style="fill:#5c5669"/><g style="opacity:0.46"><ellipse cx="64.51" cy="40.52" rx="1.04" ry="1.43" transform="matrix(0.99, -0.1, 0.1, 0.99, -3.82, 6.85)" style="fill:#fff"/></g><path d="M47.51,61.21l4.17,2Q53.78,49,53.84,48c.09-1.36.76-2.3-.57-3.92S51.49,40.76,49.15,41c-.29,0-.78.42-.39,1.11A20.81,20.81,0,0,1,51,47.3Q51,48.76,47.51,61.21Z" style="fill:#e4b596;fill-rule:evenodd"/><path d="M39.9,69.49c0-2.39,3.51-1.91,6-6.68s2.77-10.25,3.25-10.93,4.11-1.15,4.41-.47-.14,8.6-.73,12.46-3.57,5.78-5.48,7S39.9,71.88,39.9,69.49Z" style="fill:#1f3658"/><path d="M24,74.72s-1.44-2.53,0-3.4a3.18,3.18,0,0,1,3,0,3,3,0,0,1,2.3-3c2.38-.51,3.8.24,4.23.94a9.73,9.73,0,0,1,.68,2.62s2.47-1.36,3.86-.38.44,3.4.44,3.4Z" style="fill:#b4dbf3"/><path d="M31.31,64.29s1.13,2.3,1.23,2.71a7.56,7.56,0,0,1,.09,2,27,27,0,0,0,0,2.86c.06.68.24.93.29,1.36a24.53,24.53,0,0,1,.16,3.13l-.08.9-.42,0A10.1,10.1,0,0,0,32.71,76a15.69,15.69,0,0,0-.17-2.73,8.75,8.75,0,0,1-.27-1.61,25.67,25.67,0,0,1,0-2.74,5.47,5.47,0,0,0-.13-1.87C32,66.52,31,64.2,31,64.2Z" style="fill:#6ebc2e"/><path d="M32.26,63.51s1.18-3.33,1-3.52-2.61,2.2-2.61,2.2-2.9-1.65-3.09-1.45S29.41,64,29.41,64s-1.46,2.64-1.24,2.8S31,65,31,65s3.3,1.37,3.39,1.17A21.33,21.33,0,0,0,32.26,63.51Z" style="fill:#4cabdf"/><path d="M31.57,62.86s-1.2-2.22-1.49-2.15,0,2.45,0,2.45-2.27.81-2.23,1,2.67.46,2.67.46a12.46,12.46,0,0,0,1,2,17.14,17.14,0,0,0,.32-2.38A12.12,12.12,0,0,0,34,62.92,10.53,10.53,0,0,0,31.57,62.86Z" style="fill:#4d3481"/><path d="M31.35,63.58a.47.47,0,0,0-.62-.42.49.49,0,0,0-.38.66.48.48,0,0,0,.62.38C31.42,64.14,31.4,63.8,31.35,63.58Z" style="fill:#fff"/><path d="M31.23,63.6a.36.36,0,0,0-.47-.32.38.38,0,0,0-.29.51.37.37,0,0,0,.47.29C31.28,64,31.27,63.77,31.23,63.6Z" style="fill:#85b3de"/><path d="M43.6,64s-1.3,2.21-1.43,2.62a7.94,7.94,0,0,0-.28,2c-.09,1.11-.15,2.23-.28,2.91s-.33.91-.42,1.34A28.36,28.36,0,0,0,40.73,76V77l.4,0a10.09,10.09,0,0,1,0-1.2A16.61,16.61,0,0,1,41.54,73,8.76,8.76,0,0,0,42,71.39c.13-.72.18-1.91.23-2.79a5.47,5.47,0,0,1,.31-1.87c.2-.53,1.43-2.76,1.43-2.76Z" style="fill:#6ebc2e"/><path d="M43,63.28s-.7-3.14-.5-3.29,2,2.25,2,2.25,2.61-1.09,2.76-.89S45.34,64,45.34,64s1,2.55.81,2.67-2.24-1.9-2.24-1.9a13.83,13.83,0,0,1-2.8.61A16.58,16.58,0,0,1,43,63.28Z" style="fill:#4cabdf"/><path d="M43.5,62.54s1.35-2.13,1.62-2S44.87,63,44.87,63s2.07,1.06,2,1.29a10.28,10.28,0,0,1-2.57.18,12.41,12.41,0,0,1-1.11,1.9,20.34,20.34,0,0,1-.06-2.45s-2-1.39-2-1.58A9.37,9.37,0,0,1,43.5,62.54Z" style="fill:#e8c203"/><path d="M43.63,63.29a.45.45,0,0,1,.63-.36.51.51,0,0,1,.29.71.45.45,0,0,1-.62.33C43.51,63.85,43.56,63.51,43.63,63.29Z" style="fill:#fff"/><path d="M43.74,63.33c0-.17.18-.39.48-.28a.4.4,0,0,1,.22.55.34.34,0,0,1-.47.24C43.65,63.75,43.69,63.5,43.74,63.33Z" style="fill:#85b3de"/><path d="M25.72,64.29s1.52,2.07,1.69,2.46a7.43,7.43,0,0,1,.43,1.92,27.1,27.1,0,0,0,.49,2.82c.19.65.4.87.53,1.28a25.06,25.06,0,0,1,.7,3.06l.07.9-.42,0a9.12,9.12,0,0,0-.07-1.18,15.83,15.83,0,0,0-.64-2.65A7.87,7.87,0,0,1,28,71.38a26.61,26.61,0,0,1-.43-2.71,5.11,5.11,0,0,0-.45-1.81c-.26-.5-1.7-2.6-1.7-2.6Z" style="fill:#6ebc2e"/><path d="M26.19,62.89s.58-3.49.33-3.63-2.19,2.62-2.19,2.62S21.19,60.76,21,61s2.43,2.88,2.43,2.88-1,2.85-.74,3,2.47-2.25,2.47-2.25,3.49.77,3.54.56A21,21,0,0,0,26.19,62.89Z" style="fill:#b4dbf3"/><path d="M25.39,62.37s-1.57-2-1.84-1.86.43,2.42.43,2.42-2.1,1.18-2,1.4a11.68,11.68,0,0,0,2.71,0A11.78,11.78,0,0,0,26,66.09a16.92,16.92,0,0,0-.1-2.39s2-1.51,1.95-1.69A10.63,10.63,0,0,0,25.39,62.37Z" style="fill:#d65345"/><path d="M25.3,63.11a.47.47,0,0,0-.68-.3.54.54,0,0,0,.41,1C25.46,63.65,25.39,63.33,25.3,63.11Z" style="fill:#fff"/><path d="M25.19,63.16a.36.36,0,0,0-.52-.24.38.38,0,0,0-.2.55.36.36,0,0,0,.51.21C25.31,63.57,25.25,63.32,25.19,63.16Z" style="fill:#85b3de"/><path d="M37,61.57s-1.3,2.76-1.42,3.25a10.32,10.32,0,0,0-.12,2.37c0,1.32.06,2.65,0,3.47s-.28,1.11-.35,1.63a32.15,32.15,0,0,0-.21,3.78l.08,1.1.48-.06a10.7,10.7,0,0,1-.14-1.42,19.88,19.88,0,0,1,.22-3.29,10.69,10.69,0,0,0,.33-2c.07-.86,0-2.26,0-3.31A6.74,6.74,0,0,1,36,64.89c.19-.64,1.41-3.41,1.41-3.41Z" style="fill:#6ebc2e"/><path d="M35.66,61.35s-2.07-3.22-1.9-3.46,3.17,1.69,3.17,1.69,2.47-2.28,2.72-2.13-1,3.73-1,3.73,2.15,2.42,2,2.64-3.26-1.2-3.26-1.2-2.74,2-2.88,1.82A19.31,19.31,0,0,1,35.66,61.35Z" style="fill:#b4dbf3"/><path d="M36,60.31s.64-2.92,1-2.92.74,2.87.74,2.87,2.73.34,2.76.62-2.79,1.24-2.79,1.24a14.89,14.89,0,0,1-.46,2.57A22.78,22.78,0,0,1,36.11,62s-2.81-.73-2.83-1S36,60.31,36,60.31Z" style="fill:#fd8b2e"/><path d="M36.4,61.09a.54.54,0,0,1,.56-.66.61.61,0,0,1,.61.68c0,.25,0,.57-.55.61S36.42,61.37,36.4,61.09Z" style="fill:#fff"/><path d="M36.54,61.09c0-.21,0-.5.42-.5a.45.45,0,0,1,.47.51c0,.19,0,.43-.42.47S36.55,61.3,36.54,61.09Z" style="fill:#85b3de"/></g></g></svg>