<svg xmlns="http://www.w3.org/2000/svg" viewBox="0 0 157 128"><defs><style>.a{fill:#ea5c89;}.b{fill:#4ab594;}.c,.e{fill:none;stroke-miterlimit:10;stroke-width:2px;}.c{stroke:#22a47c;stroke-linecap:round;}.d{fill:#1d9f75;}.e{stroke:#4ab594;}.f{fill:#017f7d;}.g{fill:#33b1b8;}.h{fill:#1d6b67;}.i{fill:#13817f;}.j{fill:#fff;}.k{fill:#1d1939;}.l{fill:#fbc02c;}.m{fill:#f18934;}.n{fill:#bcbec0;}.o{fill:#a348c0;}.p{fill:#6fbe2e;}.q{fill:#ff8d2e;}.r{fill:#ff3a55;}.s{fill:#46afe6;}</style></defs><path class="a" d="M112.66,53.75s-.73-34.32-48.25-35.84C22.36,16.56,12.88,44.59,12.93,63c0,10.59,8,20.2,24.1,17.53,18.51-3.06,19.39,4.9,44.81,5.48C109.51,86.63,112.66,53.75,112.66,53.75Z"/><path class="b" d="M85.84,8c-.59-.19-7.16,13.13,12.69,28.62C98.53,36.65,107,14.9,85.84,8Z"/><line class="c" x1="87.4" y1="10.08" x2="98.25" y2="31.84"/><polyline class="c" points="92.79 13.02 91.15 17.61 85.9 14.49"/><polyline class="c" points="88.19 19.93 94.01 23.38 95.8 17.48"/><polyline class="c" points="90.68 25.11 96.09 27.51 97.98 23.56"/><path class="d" d="M99.87,39.43a60,60,0,0,0,6.92-2.22c1.67-.82,2.31-2.51.32-3.43s-2.62-2.28-.41-3.41,6.7-2.9,4.93-4-3.51.72-3.77-1.42,3.41-2,4.63-4.65-.27-2.69-1.36-2.19-3-.17-2.1-2.15,3-4,1.79-7.08-4,3.15-4.53,4.49-1.26,4-3.36,1.08-3.26-.31-2.44,2.29,1.1,6,0,5.67-2.32-2.58-3.32-2.63-1.26,3.52.4,6.14c1.83,2.9-.59,2.37-3.39.83-1.32-.73-2.73,3,.84,8.64l2.63,4.1Z"/><path class="e" d="M99.51,37.54s4.4-.59,5-1.24,1.2-1.41-.12-2.13-2.93-1.68-1.29-2.81,4.63-2.21,4.3-3.18-2.07-1.29-2.24-1.82,3.26-3.85,3.19-4.56-.57-1.06-1.52-.78-.58-1.07,0-2.38-.32-2.6-1.14-1.22-1.3,2.49-2.18,1.43-1.37.38-1.25,1.6.7,4.4-.08,4.9-2.14-1-2.61-1.18-1.28.93-.3,2.53,1.28,3.84.8,4.34-2-.24-2.53-.72-1.43.48-.9,1.94A26.79,26.79,0,0,0,99.51,37.54Z"/><path class="f" d="M127.89,52.71c0-.12,0-.24,0-.37h-.16l0,.37Z"/><path class="f" d="M114.64,83.53h2v-.15h-6.36v.15h4.38Z"/><path class="g" d="M130.54,36.48a24.56,24.56,0,0,1,3.11,7.89c.81.34,4.53,2.35,5.64,10.52,1.15,8.53-.77,11.81-2.23,12.58a34.22,34.22,0,0,1-.09,7.32c9.55-1.88,8.21-18.69,3.33-29.31C136,36.05,131.51,36.3,130.54,36.48Z"/><path class="h" d="M106.91,28.64c.53,0,1.07-.05,1.64-.05a13.49,13.49,0,0,1,2.88.11c0-.51.21-2.37,3-2.37a2.58,2.58,0,0,1,2.91,2.74,16.7,16.7,0,0,1,3,.64h0a7.81,7.81,0,0,1,1.3.15c0-.57-.4-6.17-7.63-6.17C107.33,23.69,106.9,27.59,106.91,28.64Z"/><path class="i" d="M137.06,67.55v-.08c-.42-5.79-1.69-13.11-3.06-21.29-.11-.63-.23-1.23-.35-1.81a.29.29,0,0,1,0-.09,24.4,24.4,0,0,0-3.09-7.8l0-.07a15.12,15.12,0,0,0-6.08-5.55q-.59-.28-1.11-.48a13.77,13.77,0,0,0-1.75-.52,7.81,7.81,0,0,0-1.3-.15h0a16.7,16.7,0,0,0-3-.64,28.9,28.9,0,0,0-4.84-.21c5.1,1,13.56,5,15.15,20.8h0v.09q.06.68.12,1.32c0,.43.08.85.11,1.27l0,.37c1.64,19.87-1.11,29.78-11.26,30.74A87.35,87.35,0,0,0,127.34,83l.18,0c3.47-.5,5.68-1.49,7.57-3.49A8.41,8.41,0,0,0,137,74.87s0-.05,0-.08A34.14,34.14,0,0,0,137.06,67.55Z"/><path class="i" d="M94,64.15a19.61,19.61,0,0,0-.09,2.49,22.52,22.52,0,0,0,.3,3.42c.8,4.79,3.5,10.74,12,10.74,10,0,13.31-5.58,14.41-10.74a24.18,24.18,0,0,0,.45-3.42c.06-.92.08-1.76.08-2.49Z"/><path class="g" d="M127.74,47c-.75-17.35-10.18-17.11-15.28-18.11h0l-.33-.06-.62-.09h-.08a13.49,13.49,0,0,0-2.88-.11c-.56,0-1.1,0-1.63.05h-.09C91,29.77,92.77,46.59,91.05,65.16c-1.57,16.76,8.59,18.26,19.21,18.36h.22a0,0,0,0,0,0,0c1.23,0,2.47,0,3.69,0h.74c.59,0,1.15,0,1.69-.07h0C129.93,82.49,129.37,66.84,127.74,47Zm-7.11,23.09c-1.1,5.16-4.43,10.74-14.41,10.74-8.51,0-11.21-6-12-10.74-.1-.62-.18-1.23-.22-1.8a.31.31,0,0,1,0-.1c0-.54-.07-1.06-.07-1.52h27.17A24.18,24.18,0,0,1,120.63,70.06Z"/><path class="h" d="M120.07,68.43h.54a.24.24,0,1,0,0-.47h-.54a.24.24,0,0,0,0,.47Z"/><path class="h" d="M117.2,68.2a.23.23,0,0,0,.23.23h1.09a.23.23,0,0,0,.23-.23.23.23,0,0,0-.23-.24h-1.09A.23.23,0,0,0,117.2,68.2Zm-2.64,0a.23.23,0,0,0,.23.23h1.09a.23.23,0,0,0,.23-.23.24.24,0,0,0-.23-.24h-1.09A.23.23,0,0,0,114.56,68.2Zm-2.65,0a.23.23,0,0,0,.24.23h1.09a.23.23,0,0,0,.23-.23.24.24,0,0,0-.23-.24h-1.09A.24.24,0,0,0,111.91,68.2Zm-2.63,0a.23.23,0,0,0,.23.23h1.08a.23.23,0,0,0,.24-.23.24.24,0,0,0-.24-.24h-1.08A.23.23,0,0,0,109.28,68.2Zm-2.65,0a.23.23,0,0,0,.24.23H108a.23.23,0,0,0,.23-.23A.24.24,0,0,0,108,68h-1.09A.24.24,0,0,0,106.63,68.2Zm-2.64,0a.23.23,0,0,0,.24.23h1.08a.23.23,0,0,0,.24-.23.24.24,0,0,0-.24-.24h-1.08A.24.24,0,0,0,104,68.2Zm-2.64,0a.23.23,0,0,0,.24.23h1.09a.23.23,0,0,0,.23-.23.24.24,0,0,0-.23-.24h-1.09A.24.24,0,0,0,101.35,68.2Zm-2.64,0a.23.23,0,0,0,.24.23H100a.23.23,0,0,0,.24-.23A.24.24,0,0,0,100,68H99A.24.24,0,0,0,98.71,68.2Zm-2.64,0a.23.23,0,0,0,.24.23H97.4a.23.23,0,0,0,.23-.23A.24.24,0,0,0,97.4,68H96.31A.24.24,0,0,0,96.07,68.2Z"/><path class="h" d="M94.21,68.43h.54a.24.24,0,1,0,0-.47h-.54a.24.24,0,0,0,0,.47Z"/><path class="h" d="M123.38,30.73A16.91,16.91,0,0,1,125,32.39a.29.29,0,0,0,.24.11.31.31,0,0,0,.2-.07.32.32,0,0,0,0-.44c-.4-.48-.75-.85-1-1.13s-.76-.35-1.11-.48A.31.31,0,0,0,123.38,30.73Zm2.71,3.12c.44.61.87,1.26,1.28,1.92a.3.3,0,0,0,.26.15.29.29,0,0,0,.16,0,.31.31,0,0,0,.11-.43c-.41-.68-.85-1.34-1.31-2a.31.31,0,0,0-.43-.07A.32.32,0,0,0,126.09,33.85Zm2.19,3.53c.35.68.69,1.38,1,2.09a.31.31,0,0,0,.29.19l.12,0a.31.31,0,0,0,.16-.41c-.31-.72-.65-1.44-1-2.13a.31.31,0,0,0-.42-.13A.3.3,0,0,0,128.28,37.38ZM130,41.19c.26.72.5,1.46.71,2.2a.31.31,0,0,0,.3.22h.09a.31.31,0,0,0,.21-.38c-.21-.76-.46-1.51-.72-2.25a.31.31,0,0,0-.59.22Zm1.16,4c.17.74.31,1.51.43,2.27a.3.3,0,0,0,.3.27h0a.3.3,0,0,0,.26-.35c-.12-.78-.26-1.56-.43-2.32a.31.31,0,0,0-.61.14Zm.69,4.12c.12.82.25,1.67.35,2.31a.3.3,0,0,0,.3.27h.05a.31.31,0,0,0,.26-.35c-.1-.65-.23-1.49-.35-2.31a.31.31,0,1,0-.61.09Zm.64,4.16c.11.76.23,1.52.35,2.3a.31.31,0,0,0,.31.27h0a.31.31,0,0,0,.27-.35l-.36-2.31a.32.32,0,0,0-.36-.26A.32.32,0,0,0,132.44,53.46Zm.62,4.15c.11.82.21,1.58.3,2.31a.31.31,0,0,0,.31.27h0a.31.31,0,0,0,.27-.35c-.09-.73-.19-1.49-.3-2.32a.32.32,0,0,0-.36-.26A.31.31,0,0,0,133.06,57.61Zm.51,4.16c.08.8.14,1.58.19,2.31a.32.32,0,0,0,.31.3h0a.31.31,0,0,0,.29-.33c0-.74-.11-1.53-.19-2.33a.31.31,0,0,0-.35-.28A.3.3,0,0,0,133.57,61.77Zm.31,5.75v.74a.3.3,0,0,0,.3.31h0a.3.3,0,0,0,.31-.3c0-.25,0-.5,0-.75,0-.51,0-1,0-1.6a.32.32,0,0,0-.32-.3.3.3,0,0,0-.3.32C133.87,66.48,133.88,67,133.88,67.52Zm-.08,5.24h0a.32.32,0,0,0,.31-.26c.11-.74.2-1.53.26-2.35a.31.31,0,0,0-.62,0c-.06.8-.15,1.57-.26,2.29A.32.32,0,0,0,133.8,72.76Zm-1.12,4,.11,0a.31.31,0,0,0,.29-.2,16.74,16.74,0,0,0,.71-2.27.31.31,0,1,0-.6-.14,16.86,16.86,0,0,1-.69,2.18A.33.33,0,0,0,132.68,76.8Zm-2.21,3.54a.32.32,0,0,0,.2.08.34.34,0,0,0,.24-.11,12.63,12.63,0,0,0,1.36-2,.32.32,0,0,0-.12-.43.31.31,0,0,0-.42.12,11.42,11.42,0,0,1-1.3,1.86A.32.32,0,0,0,130.47,80.34Zm-3.35,2.49a.28.28,0,0,0,.22.16h0a.28.28,0,0,0,.13,0h0a11.3,11.3,0,0,0,2-1.31.31.31,0,1,0-.4-.48,10.63,10.63,0,0,1-1.89,1.24A.31.31,0,0,0,127.12,82.83Z"/><path class="h" d="M95.52,70.59a7.2,7.2,0,0,0,.26.73.31.31,0,0,0,.29.2l.11,0a.33.33,0,0,0,.18-.41,6.07,6.07,0,0,1-.24-.67.32.32,0,0,0-.39-.22A.32.32,0,0,0,95.52,70.59Zm21.82,2.33a.32.32,0,0,0,.16,0,.31.31,0,0,0,.27-.15,12.22,12.22,0,0,0,1.06-2.15.31.31,0,1,0-.58-.21,13.53,13.53,0,0,1-1,2A.32.32,0,0,0,117.34,72.92Zm-20.74.13A15.22,15.22,0,0,0,98,75a.32.32,0,0,0,.24.11.31.31,0,0,0,.2-.07.32.32,0,0,0,0-.44,13.22,13.22,0,0,1-1.28-1.88.32.32,0,0,0-.55.31Zm18,3.06a.34.34,0,0,0,.23.1.32.32,0,0,0,.21-.08,13.61,13.61,0,0,0,1.63-1.75.31.31,0,0,0-.06-.43.3.3,0,0,0-.43,0,13.06,13.06,0,0,1-1.56,1.67A.31.31,0,0,0,114.62,76.11Zm-15.34.29a10.51,10.51,0,0,0,2,1.39.26.26,0,0,0,.15,0,.31.31,0,0,0,.27-.15.31.31,0,0,0-.12-.43,10.17,10.17,0,0,1-1.84-1.32.31.31,0,0,0-.41.47ZM111,78.22a.3.3,0,0,0,.29.2l.11,0a11.53,11.53,0,0,0,2.12-1.1.3.3,0,0,0,.09-.43.3.3,0,0,0-.43-.09,11.59,11.59,0,0,1-2,1A.3.3,0,0,0,111,78.22Zm-8,.36a11.14,11.14,0,0,0,2.33.54h0a.3.3,0,0,0,.3-.27.31.31,0,0,0-.27-.35,10.07,10.07,0,0,1-2.2-.51.32.32,0,0,0-.4.2A.31.31,0,0,0,103,78.58Zm3.92.33a.3.3,0,0,0,.31.3h0a11.47,11.47,0,0,0,2.37-.27.31.31,0,1,0-.12-.6,12,12,0,0,1-2.26.25A.31.31,0,0,0,106.9,78.91Z"/><path class="j" d="M107.31,54.25s-3,.66-4.71.82-1.94,4.16,2.77,5.56,9.14-2.45,8.87-5.91S109.06,53.82,107.31,54.25Z"/><path class="k" d="M129.93,29.17a.4.4,0,0,0,.35-.21l4-7.57a.38.38,0,0,0-.16-.52.39.39,0,0,0-.53.16l-4,7.56a.39.39,0,0,0,.16.53A.41.41,0,0,0,129.93,29.17Z"/><path class="k" d="M127.19,28.51a.38.38,0,0,0,.37-.27L129,23.67a.38.38,0,0,0-.26-.48.38.38,0,0,0-.48.25L126.82,28a.4.4,0,0,0,.26.49Z"/><path class="k" d="M124.71,28.25h0a.38.38,0,0,0,.36-.41l-.26-3.92a.39.39,0,0,0-.41-.36.4.4,0,0,0-.37.41l.27,3.92A.38.38,0,0,0,124.71,28.25Z"/><path class="k" d="M131.76,31.77a.37.37,0,0,0,.26-.1l3.79-3.52a.4.4,0,0,0,0-.55.38.38,0,0,0-.55,0l-3.79,3.52a.39.39,0,0,0,.27.67Z"/><path class="k" d="M132.54,33.86h.07l4.69-.79a.39.39,0,1,0-.13-.76l-4.69.78a.39.39,0,0,0-.32.45A.38.38,0,0,0,132.54,33.86Z"/><ellipse class="k" cx="100.4" cy="44.8" rx="2.37" ry="2.46" transform="matrix(1, -0.01, 0.01, 1, -0.43, 0.97)"/><ellipse class="j" cx="99.71" cy="44.06" rx="0.93" ry="0.97" transform="translate(-0.42 0.96) rotate(-0.55)"/><ellipse class="k" cx="115.45" cy="44.86" rx="2.37" ry="2.46" transform="translate(-0.43 1.11) rotate(-0.55)"/><ellipse class="j" cx="114.68" cy="44.12" rx="0.93" ry="0.97" transform="matrix(1, -0.01, 0.01, 1, -0.42, 1.1)"/><path class="l" d="M117.34,35a8.56,8.56,0,0,0-8.16,6.23L106,41.2a8.87,8.87,0,1,0,.14,1.66,1.93,1.93,0,0,0,0-.24l2.72.06c0,.37-.07.75-.08,1.14A8.51,8.51,0,1,0,117.34,35ZM97.64,50.22a7.41,7.41,0,1,1,7.17-7.37A7.27,7.27,0,0,1,97.64,50.22Zm19.63,1.05a7.41,7.41,0,1,1,7.16-7.38A7.29,7.29,0,0,1,117.27,51.27Z"/><path class="j" d="M55.15,30.56a1.84,1.84,0,0,1,.24.69,6.54,6.54,0,0,1,0,.88v14c0,1.16-.32,1.85-1,2.05a4.11,4.11,0,0,1-1.21.15,4,4,0,0,1-1.16-.13,1.85,1.85,0,0,1-.66-.3,1.23,1.23,0,0,1-.36-.51A5.21,5.21,0,0,1,51,46.1V37.64c-.42.52-1,1.35-1.85,2.49S47.79,42,47.57,42.26l-.45.59a2.4,2.4,0,0,1-.62.46,2.09,2.09,0,0,1-1.06.29,2,2,0,0,1-1-.27,2.28,2.28,0,0,1-.67-.51l-.2-.28c-.34-.42-1-1.32-2-2.69l-1.62-2.21v8.51a6.28,6.28,0,0,1,0,.87,1.8,1.8,0,0,1-.24.65c-.25.45-.91.68-2,.68s-1.67-.23-1.92-.68a1.67,1.67,0,0,1-.24-.66,6.86,6.86,0,0,1,0-.91v-14a6.28,6.28,0,0,1,0-.87,1.76,1.76,0,0,1,.24-.67c.25-.44.91-.66,2-.66a3.61,3.61,0,0,1,1.17.17,1.51,1.51,0,0,1,.65.34l.15.15,5.74,7.53q4.29-5.68,5.73-7.51c.29-.45,1-.68,2-.68S54.92,30.11,55.15,30.56Z"/><path class="j" d="M59.19,36.73a6.94,6.94,0,0,1,9.68,0,6.5,6.5,0,0,1,2.1,5,6.58,6.58,0,0,1-1.09,3.72,6.7,6.7,0,0,1-2.64,2.4A7.1,7.1,0,0,1,64,48.6a6.83,6.83,0,0,1-3.23-.82,7.09,7.09,0,0,1-2.64-2.42,6.35,6.35,0,0,1-1.08-3.63A6.54,6.54,0,0,1,59.19,36.73Zm3.16,6.81a2.49,2.49,0,0,0,3.31,0,2.52,2.52,0,0,0,0-3.71A2.72,2.72,0,0,0,64,39.2a2.59,2.59,0,0,0-1.69.64,2.22,2.22,0,0,0-.79,1.85A2.19,2.19,0,0,0,62.35,43.54Z"/><path class="j" d="M80,35.06A5.33,5.33,0,0,1,84.22,37a6.94,6.94,0,0,1,1.68,4.72v4.44a8.42,8.42,0,0,1,0,.87,2.17,2.17,0,0,1-.22.65c-.23.45-.89.68-2,.68s-1.88-.31-2.07-.94a4.08,4.08,0,0,1-.15-1.28V41.68a2.19,2.19,0,0,0-.59-1.62,2.22,2.22,0,0,0-1.59-.58,2.19,2.19,0,0,0-1.62.61A2.12,2.12,0,0,0,77,41.68v4.47A6.28,6.28,0,0,1,77,47a1.63,1.63,0,0,1-.24.65c-.22.45-.87.68-1.94.68s-1.71-.23-2-.68a2.2,2.2,0,0,1-.21-.67,6.46,6.46,0,0,1,0-.87v-9a6,6,0,0,1,0-.84,1.63,1.63,0,0,1,.24-.65c.23-.42.88-.63,1.94-.63s1.66.19,1.9.58a2,2,0,0,1,.25,1,2.76,2.76,0,0,1,.45-.51,4.92,4.92,0,0,1,.69-.53A3.27,3.27,0,0,1,80,35.06Z"/><path class="j" d="M35.57,62.93a3,3,0,0,1-.77,2.3,2.38,2.38,0,0,1-1.7.75h-6a1.4,1.4,0,0,0,.83,1.19,3.33,3.33,0,0,0,1.67.48,7,7,0,0,0,2.3-.31l.28-.1a2.63,2.63,0,0,1,1-.28c.54,0,1,.38,1.39,1.14a2.75,2.75,0,0,1,.33,1.16q0,2.25-5.39,2.25a8.13,8.13,0,0,1-3.32-.64A5.63,5.63,0,0,1,24,69.16a7.26,7.26,0,0,1-1.59-4.57,6.62,6.62,0,0,1,2.06-5.09,7.27,7.27,0,0,1,5.14-1.91,5.73,5.73,0,0,1,5.15,2.48A5.06,5.06,0,0,1,35.57,62.93Zm-7.37-6.3a1.67,1.67,0,0,1-.76.18c-.51,0-.92-.5-1.24-1.49a3.24,3.24,0,0,1-.2-1,1.13,1.13,0,0,1,.17-.66,1.79,1.79,0,0,1,.91-.53l4.17-1.28a5.57,5.57,0,0,1,.76-.18c.51,0,.91.5,1.21,1.49a3.19,3.19,0,0,1,.21,1,1,1,0,0,1-.18.65,1.68,1.68,0,0,1-.91.53Zm2,7q1,0,1-.81a1.13,1.13,0,0,0-.44-.93,2,2,0,0,0-1.26-.36,2.59,2.59,0,0,0-1.63.67,1.88,1.88,0,0,0-.81,1.43Z"/><path class="j" d="M41.38,64.53a2,2,0,0,0,.71,1.66,2.28,2.28,0,0,0,1.5.6,2.63,2.63,0,0,0,1.49-.47,2.27,2.27,0,0,1,1.13-.47c.5,0,1.12.45,1.84,1.34a2.21,2.21,0,0,1,.58,1.31c0,.64-.46,1.24-1.39,1.8a6,6,0,0,1-3.53,1,7.28,7.28,0,0,1-4.52-1.69,6,6,0,0,1-1.7-2.16,6.75,6.75,0,0,1-.65-3,6.52,6.52,0,0,1,.65-2.95,6,6,0,0,1,1.7-2.14,7,7,0,0,1,4.47-1.66,6.92,6.92,0,0,1,1.87.26,6.56,6.56,0,0,1,1.34.52l.4.25.71.48a1.46,1.46,0,0,1,.65,1.15,2.64,2.64,0,0,1-.53,1.45c-.6.93-1.18,1.39-1.74,1.39A2.9,2.9,0,0,1,45,62.67a1.83,1.83,0,0,0-1.31-.43,2.37,2.37,0,0,0-1.57.61A2.05,2.05,0,0,0,41.38,64.53Z"/><path class="j" d="M52,59.54a6.94,6.94,0,0,1,9.67,0,6.53,6.53,0,0,1,2.1,5,6.61,6.61,0,0,1-1.08,3.73,6.84,6.84,0,0,1-2.64,2.4,7.24,7.24,0,0,1-3.23.77,6.83,6.83,0,0,1-3.23-.82A7.27,7.27,0,0,1,51,68.16a6.31,6.31,0,0,1-1.07-3.62A6.5,6.5,0,0,1,52,59.54Zm3.16,6.8a2.63,2.63,0,0,0,1.64.62,2.79,2.79,0,0,0,1.67-.63,2.21,2.21,0,0,0,.83-1.87,2.18,2.18,0,0,0-.78-1.84,2.71,2.71,0,0,0-1.7-.61,2.65,2.65,0,0,0-1.69.63,2.25,2.25,0,0,0-.78,1.86A2.16,2.16,0,0,0,55.18,66.34Z"/><path class="j" d="M65.43,53.83c0-.39,0-.68,0-.88a2.59,2.59,0,0,1,.22-.67c.23-.45.89-.68,2-.68s1.66.23,1.92.68a2.28,2.28,0,0,1,.24.69c0,.2,0,.49,0,.88v11.7A2.64,2.64,0,0,0,70,66.7c.1.16.32.24.67.24a3.53,3.53,0,0,1,.69,0,1.12,1.12,0,0,1,.43.21c.34.22.51.82.51,1.79s-.17,1.71-.51,2-1.48.35-3.13.15a3.17,3.17,0,0,1-2.53-1.29,8.29,8.29,0,0,1-.71-3.94Z"/><path class="j" d="M86.28,62.93a3.07,3.07,0,0,1-.77,2.3A2.42,2.42,0,0,1,83.8,66h-6a1.39,1.39,0,0,0,.84,1.19,3.29,3.29,0,0,0,1.66.48,7,7,0,0,0,2.3-.31l.28-.1a2.63,2.63,0,0,1,1-.28c.54,0,1,.38,1.39,1.14a2.75,2.75,0,0,1,.33,1.16q0,2.25-5.38,2.25a8.06,8.06,0,0,1-3.32-.64,5.66,5.66,0,0,1-2.27-1.71,7.26,7.26,0,0,1-1.59-4.57,6.62,6.62,0,0,1,2.06-5.09,7.28,7.28,0,0,1,5.14-1.91,5.76,5.76,0,0,1,5.16,2.48A5.13,5.13,0,0,1,86.28,62.93ZM81,63.68q1,0,1-.81a1.11,1.11,0,0,0-.45-.93,1.93,1.93,0,0,0-1.26-.36,2.59,2.59,0,0,0-1.63.67,1.88,1.88,0,0,0-.81,1.43Z"/><path d="M28.2,103.52a2.9,2.9,0,0,1-1.52-.4,2.82,2.82,0,0,1-1.07-1.07,3,3,0,0,1-.41-1.53V95.6a.54.54,0,0,1,.16-.4.57.57,0,0,1,.4-.15.54.54,0,0,1,.4.15.54.54,0,0,1,.16.4v2.91a2.83,2.83,0,0,1,.92-.72,2.72,2.72,0,0,1,1.18-.26,2.67,2.67,0,0,1,1.43.39,2.86,2.86,0,0,1,1,1.07,3.2,3.2,0,0,1,.36,1.53,2.9,2.9,0,0,1-1.47,2.6A2.92,2.92,0,0,1,28.2,103.52Zm0-1a1.9,1.9,0,0,0,1-.27,1.94,1.94,0,0,0,.69-.73,2.19,2.19,0,0,0,0-2.07,1.86,1.86,0,0,0-1.69-1,1.91,1.91,0,0,0-1,.26,1.93,1.93,0,0,0-.7.72,2.27,2.27,0,0,0,0,2.07,1.89,1.89,0,0,0,.7.73A1.83,1.83,0,0,0,28.2,102.55Z"/><path d="M34.9,103.24a.5.5,0,0,1-.67-.26l-2.5-4.7a.42.42,0,0,1,0-.39.5.5,0,0,1,.29-.28.53.53,0,0,1,.39,0,.51.51,0,0,1,.29.27l2.38,4.7a.64.64,0,0,1,.09.39A.36.36,0,0,1,34.9,103.24Zm-1.29,2.82a.73.73,0,0,1-.26-.06.45.45,0,0,1-.26-.68l3.33-7.44a.48.48,0,0,1,.69-.26.46.46,0,0,1,.27.68L34,105.73A.45.45,0,0,1,33.61,106.06Z"/><path d="M70.56,96.53A1.22,1.22,0,1,1,73,96.39v2.48a11.15,11.15,0,0,1,7.84-3.58,9.76,9.76,0,0,1,7.27,3.08,10.18,10.18,0,0,1,3,7.39V116.6a1.31,1.31,0,0,1-.36.9,1.28,1.28,0,0,1-.89.37,1.13,1.13,0,0,1-.86-.37,1.28,1.28,0,0,1-.37-.9V105.72a7.5,7.5,0,0,0-2.31-5.58,7.71,7.71,0,0,0-11-.1l-.1.1A7.51,7.51,0,0,0,73,105.72v10.84a1.24,1.24,0,0,1-1.26,1.24,1.19,1.19,0,0,1-.86-.37,1.3,1.3,0,0,1-.36-.9l.07-20Z"/><path class="m" d="M113.06,110.47a1.25,1.25,0,0,1,1,.1,1.32,1.32,0,0,1,.56,1.68,11.11,11.11,0,0,1-15.37,3.58,11.35,11.35,0,0,1-4.73-6.19,11.15,11.15,0,1,1,21.26-6.73,1.27,1.27,0,0,1-.07.94,1,1,0,0,1-.72.6L97.26,110a9.43,9.43,0,0,0,3.83,4,8.49,8.49,0,0,0,11.31-3A.93.93,0,0,1,113.06,110.47Zm-.1-8a9,9,0,0,0-3.83-4,8.64,8.64,0,0,0-11.7,3.64v0a9.61,9.61,0,0,0-1,5.49Z"/><path d="M67.21,106.29a12.68,12.68,0,0,0-2.64-6.82,8.12,8.12,0,0,0,1.55-1.57c2.15-2.58-2.68-4.25-3.93-4.25l-.24,0c-1.09.44-1.55,2.78-1.55,2.78a17.5,17.5,0,0,0-11.17-.37,3.87,3.87,0,0,0-.76-1.84c-.2-.27-.43-.73-1-.73h-.23a6.71,6.71,0,0,0-3.5,1.53c-1.52,1.38.76,3.82,1,3.88-.69.91-4.2,6.39-3.9,8.83,1,7.5,6.74,10.24,12.66,10.24a20.48,20.48,0,0,0,8.93-2.07C64.8,114.72,67.67,112.92,67.21,106.29Z"/><path class="j" d="M62.62,99.34a13.46,13.46,0,0,0-16.6.23c-2.25,2-3.17,5.38-3.74,7-.43,1.38-.26,7.4,9,9.2A10.26,10.26,0,0,0,53,116h.3c3.86,0,9-1.74,10.77-3.78C67.51,108.23,65.66,101.68,62.62,99.34Z"/><path class="n" d="M64.07,112.18c-2.15,2.44-9,4.35-12.83,3.61-5.62-1.1-7.86-3.74-8.69-6,.69,2.54,2.84,5.68,9,6.72,1.58.27,10.38.1,13.55-4.58a8.11,8.11,0,0,0,.66-3.21A7,7,0,0,1,64.07,112.18Z"/><path d="M46.09,105.82l.29,1.11c.6-.77,3.21-3.48,5.06.53l.53-1S50.05,101.11,46.09,105.82Z"/><path d="M59.64,106.86a1.16,1.16,0,1,0-1.39-1.14A1.28,1.28,0,0,0,59.64,106.86Z"/><path d="M59.64,109.17a3.47,3.47,0,1,1,3.9-3.45A3.7,3.7,0,0,1,59.64,109.17Zm0-5.72a2.35,2.35,0,1,0,2.78,2.31A2.56,2.56,0,0,0,59.64,103.45Z"/><path d="M53,109.34h3.18l-1.59,1.74Z"/><path d="M54.22,114.32a6.32,6.32,0,0,1-4-1.57l.69-.9a4.72,4.72,0,0,0,4.73,1.07,4.91,4.91,0,0,0,1.88-1.18l.83.77A6.67,6.67,0,0,1,56,114,5,5,0,0,1,54.22,114.32Z"/><path class="j" d="M52,111.37a.75.75,0,0,0-.26,0l-.39.14-.36.12.23-.3.25-.34a.82.82,0,0,0,.12-.73.81.81,0,0,0-.52-.53,1,1,0,0,0-.24,0,.79.79,0,0,0-.58.25.82.82,0,0,0-.23.58v.8l-.22-.31-.23-.35a.82.82,0,0,0-.66-.34.8.8,0,0,0-.76,1.07.82.82,0,0,0,.52.52l.4.12.36.11-.36.11-.4.12a.82.82,0,0,0-.52.52.8.8,0,0,0,.76,1.07.82.82,0,0,0,.66-.34l.23-.35L50,113v.8a.82.82,0,0,0,.23.58.79.79,0,0,0,.58.25,1,1,0,0,0,.24,0,.81.81,0,0,0,.52-.53.85.85,0,0,0-.12-.74l-.25-.33-.23-.3.36.12.39.14a.75.75,0,0,0,.26,0,.81.81,0,0,0,0-1.62Z"/><path class="o" d="M50.22,110.56A.56.56,0,0,1,51,110h0a.56.56,0,0,1,.27.87l-.25.34-.72,1,0-1.21Z"/><path class="p" d="M48.72,111.71a.56.56,0,0,1-.29-.87h0a.55.55,0,0,1,.9,0l.24.34.68,1-1.14-.35Z"/><path class="q" d="M49.33,113.51a.55.55,0,0,1-.9,0h0a.56.56,0,0,1,.29-.87l.39-.12,1.14-.35-.68,1Z"/><path class="r" d="M51.22,113.48a.56.56,0,0,1-.27.87h0a.56.56,0,0,1-.73-.55v-.41l0-1.21.72,1Z"/><path class="s" d="M51.77,111.65a.56.56,0,0,1,.74.53h0a.56.56,0,0,1-.74.53l-.39-.14-1.13-.39,1.13-.39Z"/><circle class="o" cx="50.25" cy="112.18" r="0.14"/></svg>