<svg xmlns="http://www.w3.org/2000/svg" viewBox="0 0 326 228.02"><defs><style>.a{fill: #fff;} .b{fill: none;} .c{fill: #35b0e6;} .d{fill: #48ad3c;} .e{fill: #e7343b;} .f{fill: #ea5425;} .g{fill: #f39232;} .h{fill: #627cbd;} .i{fill: #ecbe30;}</style></defs><path class="b" d="M170.23,165.46q3.6,4.56,11.23,4.55a15.71,15.71,0,0,0,14.84-10.57,6.89,6.89,0,0,1,.78-1.56,29.89,29.89,0,0,1-.66-4.3L186,158.3Q172.55,164.38,170.23,165.46Z" /><path class="b" d="M181.46,138.58a15.62,15.62,0,0,0-15.69,15.74v.33l26.5-11.9Q188.76,138.58,181.46,138.58Z" /><path class="b" d="M98.66,123.32a21,21,0,0,0-14.87,35.83,21,21,0,0,0,29.68,0,21,21,0,0,0-14.81-35.83Z" /><path class="b" d="M192.5,80.16a15.71,15.71,0,0,0,15.69-15.69,15.7,15.7,0,1,0-26.83,11.09A15.15,15.15,0,0,0,192.5,80.16Z" /><path class="b" d="M226.66,133.44a17.47,17.47,0,1,0,17.44,17.44v-.32a17.45,17.45,0,0,0-17.44-17.12Z" /><path class="b" d="M276.62,138.58a15.62,15.62,0,0,0-15.7,15.74v.33l26.51-11.9Q283.92,138.58,276.62,138.58Z" /><path class="c" d="M110.84,190.43a9.49,9.49,0,0,0-6-2.13,12.11,12.11,0,0,0-2.81.34A49.25,49.25,0,0,1,90.56,190a45.53,45.53,0,0,1-45.67-45.67A45.68,45.68,0,0,1,90.56,98.57a46.83,46.83,0,0,1,11.5,1.45,12.11,12.11,0,0,0,2.81.34,9.49,9.49,0,0,0,6-2.13,9.84,9.84,0,0,0,4.09-8.18V89.8q0-7.93-7.84-10c-1.15-.29-2.31-.54-3.47-.76v6.39a5.28,5.28,0,0,1-1.7,4,5.51,5.51,0,0,1-4,1.71h-.14a5.49,5.49,0,0,1-4-1.71,5.29,5.29,0,0,1-1.71-4V77.83c-.48,0-1,0-1.45,0q-27.53,0-47,19.52T24,144.33q0,27.53,19.52,47t47,19.52a67,67,0,0,0,16.53-2q7.84-2,7.84-10.05v-.17A9.7,9.7,0,0,0,110.84,190.43Z" /><path class="d" d="M254.39,138.33a30.16,30.16,0,0,0-6.34-9,30.29,30.29,0,0,0-42.84.05,32.51,32.51,0,0,0-4.41,5.48,26.4,26.4,0,0,1,5.46,7.89,5.54,5.54,0,0,1,.57,2.42,5.66,5.66,0,0,1-.38,2,5.45,5.45,0,0,1-3,3.22l-7,3.15a29.89,29.89,0,0,0,.66,4.3,5.3,5.3,0,0,1,4.72-2.33,5.51,5.51,0,0,1,4.7,2.47,5.4,5.4,0,0,1,1.09,3.17,6,6,0,0,1-.38,2,26.53,26.53,0,0,1-3.76,7.18c.56.65,1.14,1.29,1.76,1.91a29.24,29.24,0,0,0,21.45,8.91q11.43,0,17.44-8.7a16.44,16.44,0,0,1-5.53,12.28A16.73,16.73,0,0,1,226.66,190q-10.54,0-15.75-7.95a5.87,5.87,0,0,0-5-3,7.36,7.36,0,0,0-2.53.47l-.15.05a6,6,0,0,0-3.9,4,6,6,0,0,0,.68,5.48q8.85,13.8,26.61,13.8,11.6,0,20.81-8.85T257,173.12a27.21,27.21,0,0,1-2.61-34.79ZM244.1,150.88a17.05,17.05,0,1,1,0-.32Z" /><path class="e" d="M173.2,83.62a27.24,27.24,0,0,0,38.59,0c.45-.45.85-.91,1.26-1.37V60a22.21,22.21,0,0,1,2.45-10.4A29,29,0,0,0,211.79,45a27.22,27.22,0,0,0-38.59,0c-.56.56-1.08,1.14-1.59,1.73V81.88C172.12,82.47,172.64,83.05,173.2,83.62Zm8.16-30.3a15.72,15.72,0,0,1,26.83,11.15,15.7,15.7,0,1,1-26.83-11.15Z" /><path class="c" d="M213.05,82.25V85.9a5.35,5.35,0,0,0,1.7,4,5.54,5.54,0,0,0,4,1.7h.15a5.55,5.55,0,0,0,4-1.7,5.35,5.35,0,0,0,1.7-4V60a11.31,11.31,0,1,1,22.62,0V85.9a5.35,5.35,0,0,0,1.7,4,5.6,5.6,0,0,0,4.08,1.7h.1a5.81,5.81,0,0,0,5.73-5.73V60a22.89,22.89,0,0,0-39.11-16.21,23.22,23.22,0,0,0-4.28,5.81,26.24,26.24,0,0,1,4.31,14.76A26.19,26.19,0,0,1,213.05,82.25Z" /><path class="f" d="M213.05,82.25a26.19,26.19,0,0,0,6.76-17.93,26.24,26.24,0,0,0-4.31-14.76A22.21,22.21,0,0,0,213.05,60Z" /><path class="e" d="M134.09,95.82h-.19a7.63,7.63,0,0,0-5.27,2,6.51,6.51,0,0,0-2.23,5v17.73a36.4,36.4,0,0,1,0,47.28v10.93a6.21,6.21,0,0,0,2.23,4.89,7.51,7.51,0,0,0,5.27,2.07h.19a7.49,7.49,0,0,0,5.27-2.07,6.22,6.22,0,0,0,2.24-4.89V102.78a6.52,6.52,0,0,0-2.24-5A7.61,7.61,0,0,0,134.09,95.82Z" /><path class="e" d="M161.26,135.87V102.78a6.51,6.51,0,0,0-2.23-5,7.63,7.63,0,0,0-5.27-2h-.19a7.64,7.64,0,0,0-5.28,2,6.55,6.55,0,0,0-2.23,5v75.94a6.25,6.25,0,0,0,2.23,4.89,7.51,7.51,0,0,0,5.28,2.07h.19a7.51,7.51,0,0,0,5.27-2.07,6.21,6.21,0,0,0,2.23-4.89v-6.23a27.13,27.13,0,0,1,0-36.62Z" /><path class="g" d="M103.62,40A11.19,11.19,0,1,1,126,40V69.28a5.3,5.3,0,0,0,1.71,4A5.57,5.57,0,0,0,131.79,75h.09a5.84,5.84,0,0,0,5.74-5.74V40A11.21,11.21,0,1,1,160,40V85.46a5.84,5.84,0,0,0,5.74,5.74h.1A5.53,5.53,0,0,0,170,89.49a5.45,5.45,0,0,0,1.66-4V81.88a26.13,26.13,0,0,1-6.42-17.56,26.17,26.17,0,0,1,6.42-17.56V40a22,22,0,0,0-6.68-16.12,22,22,0,0,0-16.12-6.69q-11.3,0-17,7.5-5.73-7.5-17-7.5a22,22,0,0,0-16.12,6.69A22,22,0,0,0,92,40V77.83a66.09,66.09,0,0,1,11.61,1.24Z" /><path class="h" d="M93.72,89.49a5.49,5.49,0,0,0,4,1.71h.14a5.51,5.51,0,0,0,4-1.71,5.28,5.28,0,0,0,1.7-4V79.07A66.09,66.09,0,0,0,92,77.83v7.63A5.29,5.29,0,0,0,93.72,89.49Z" /><path class="f" d="M171.61,81.88V46.76a26.17,26.17,0,0,0-6.42,17.56A26.13,26.13,0,0,0,171.61,81.88Z" /><path class="g" d="M196.3,159.44A15.71,15.71,0,0,1,181.46,170q-7.64,0-11.23-4.55,2.31-1.08,15.74-7.16l10.45-4.72c-.07-.89-.11-1.79-.11-2.7a29.18,29.18,0,0,1,4.49-16,28,28,0,0,0-4.45-3.58,27.17,27.17,0,0,0-34.18,3.55c-.33.32-.61.66-.91,1v36.62c.3.33.58.66.91,1a27.17,27.17,0,0,0,35.22,2.85,26.61,26.61,0,0,0,6.06-5.91,28.71,28.71,0,0,1-6.37-12.53A6.89,6.89,0,0,0,196.3,159.44Zm-30.53-5.12a15.62,15.62,0,0,1,15.69-15.74q7.31,0,10.81,4.17l-26.5,11.9Z" /><path class="g" d="M177.19,104.06h-7.34a3,3,0,0,0-2.9,1.85,3.68,3.68,0,0,0-.42,1.61,2.62,2.62,0,0,0,.85,1.9l12,11.9a3.63,3.63,0,0,0,2.47,1.09h3.6a3,3,0,0,0,2.89-1.75,3,3,0,0,0-.33-3.42l-8.29-11.85A2.87,2.87,0,0,0,177.19,104.06Z" /><path class="f" d="M196.42,153.58l7-3.15a5.45,5.45,0,0,0,3-3.22,5.66,5.66,0,0,0,.38-2,5.54,5.54,0,0,0-.57-2.42,26.4,26.4,0,0,0-5.46-7.89,29.18,29.18,0,0,0-4.49,16C196.31,151.79,196.35,152.69,196.42,153.58Z" /><path class="f" d="M207.59,161.19A5.4,5.4,0,0,0,206.5,158a5.51,5.51,0,0,0-4.7-2.47,5.3,5.3,0,0,0-4.72,2.33,28.71,28.71,0,0,0,6.37,12.53,26.53,26.53,0,0,0,3.76-7.18A6,6,0,0,0,207.59,161.19Z" /><path class="f" d="M154.15,154.18a26.2,26.2,0,0,0,7.11,18.31V135.87A26.18,26.18,0,0,0,154.15,154.18Z" /><path class="c" d="M301.65,158a5.5,5.5,0,0,0-4.69-2.47,5.36,5.36,0,0,0-5.5,3.89,15.5,15.5,0,0,1-5.65,7.59,15.3,15.3,0,0,1-9.19,3q-7.64,0-11.24-4.55,2.33-1.08,15.74-7.16l17.45-7.87a5.46,5.46,0,0,0,3-3.22,5.66,5.66,0,0,0,.38-2,5.54,5.54,0,0,0-.57-2.42,27.25,27.25,0,0,0-44.09-7.92,29.28,29.28,0,0,0-2.93,3.45A30,30,0,0,1,257,150.77v21.76c0,.2,0,.39,0,.59s.2.24.32.35a27.3,27.3,0,0,0,45-10.24,6,6,0,0,0,.38-2A5.33,5.33,0,0,0,301.65,158Zm-40.73-3.7a15.62,15.62,0,0,1,15.7-15.74q7.29,0,10.81,4.17l-26.51,11.9Z" /><path class="h" d="M257,150.77a30,30,0,0,0-2.62-12.44A27.21,27.21,0,0,0,257,173.12c0-.2,0-.39,0-.59Z" /><path class="d" d="M124.43,118.38a35.15,35.15,0,0,0-25.77-10.69A36.52,36.52,0,0,0,62.2,144.15a36.53,36.53,0,0,0,36.46,36.46,35.12,35.12,0,0,0,25.77-10.7c.69-.69,1.34-1.4,2-2.12V120.51C125.77,119.79,125.12,119.08,124.43,118.38Zm-11,40.77a21,21,0,0,1-29.68,0,21,21,0,0,1,14.87-35.83,21,21,0,0,1,14.81,35.83Z" /><path class="f" d="M126.4,120.51v47.28a36.4,36.4,0,0,0,0-47.28Z" /></svg>