<?xml version="1.0" encoding="UTF-8"?>
<svg id="RVB" xmlns="http://www.w3.org/2000/svg" viewBox="0 0 644.97 121.64">
  <defs>
    <style>
      .cls-1 {
        fill: #fff;
      }

      .cls-2 {
        fill: #ecb500;
      }

      .cls-3 {
        fill: #8483b9;
      }

      .cls-4 {
        fill: #b73720;
      }

      .cls-5 {
        fill: #919294;
      }

      .cls-6 {
        fill: #fff7c7;
      }

      .cls-7 {
        fill: #4dade2;
      }
    </style>
  </defs>
  <g>
    <path class="cls-4" d="m99.89,100.5c-7.98-7.98-72.52-7.98-80.5,0,7.98-7.98,7.98-72.52,0-80.5,7.98,7.97,72.52,7.97,80.5,0-7.98,7.97-7.98,72.52,0,80.5Z"/>
    <g>
      <path class="cls-4" d="m151.07,61.72c0,.82-.29,1.52-.87,2.1-.58.58-1.28.87-2.1.87s-1.52-.29-2.1-.87c-.58-.57-.87-1.28-.87-2.1v-16.44h-22.08v16.44c0,.82-.29,1.52-.87,2.1-.58.58-1.28.87-2.1.87s-1.52-.29-2.1-.87c-.58-.57-.87-1.28-.87-2.1V22.9c0-.82.29-1.52.87-2.1s1.28-.86,2.1-.86,1.52.29,2.1.86c.58.58.87,1.28.87,2.1v16.45h22.08v-16.45c0-.82.29-1.52.87-2.1s1.28-.86,2.1-.86,1.52.29,2.1.86c.58.58.87,1.28.87,2.1v38.83h0Z"/>
      <path class="cls-4" d="m179.24,61.78v-.56c-1.4,1.12-2.92,1.98-4.56,2.57-1.64.6-3.39.89-5.26.89-4.32,0-8.02-1.53-11.08-4.58-3.06-3.06-4.59-6.75-4.59-11.08s1.53-8.01,4.59-11.07c3.06-3.06,6.75-4.59,11.08-4.59s7.98,1.53,11.08,4.59c3.06,3.06,4.58,6.75,4.58,11.07v12.76c0,.8-.28,1.49-.85,2.06-.57.57-1.26.85-2.06.85s-1.51-.28-2.08-.85-.85-1.26-.85-2.06m-9.82-22.57c-1.38,0-2.67.26-3.86.78s-2.23,1.23-3.1,2.11c-.88.88-1.57,1.93-2.08,3.12s-.77,2.46-.77,3.8.26,2.62.77,3.81c.51,1.2,1.21,2.23,2.08,3.12.88.89,1.91,1.59,3.1,2.11s2.48.79,3.86.79,2.64-.26,3.83-.79c1.19-.52,2.23-1.23,3.12-2.12.88-.9,1.58-1.93,2.1-3.12.51-1.18.77-2.45.77-3.79s-.26-2.6-.77-3.79c-.51-1.19-1.21-2.23-2.1-3.12-.89-.9-1.93-1.6-3.12-2.12s-2.47-.78-3.83-.78"/>
      <path class="cls-4" d="m213.91,64.69c-.84,0-1.53-.28-2.07-.84-.54-.56-.82-1.24-.84-2.04-1.29,1.01-2.65,1.74-4.08,2.2-1.44.46-3,.68-4.67.68-2,0-3.88-.39-5.65-1.16-1.77-.78-3.32-1.82-4.64-3.15-1.32-1.32-2.37-2.87-3.15-4.64-.77-1.77-1.16-3.66-1.16-5.65v-13.82c0-.8.28-1.49.85-2.06s1.27-.85,2.08-.85,1.49.28,2.06.85c.57.57.85,1.25.85,2.06v13.82c0,1.21.23,2.35.69,3.41.45,1.07,1.08,1.99,1.87,2.78.79.79,1.72,1.42,2.78,1.87,1.06.46,2.2.68,3.41.68s2.32-.23,3.38-.68c1.06-.46,2-1.08,2.8-1.89.8-.8,1.43-1.73,1.89-2.78.46-1.06.68-2.19.68-3.4v-13.82c0-.8.29-1.49.85-2.06.57-.57,1.26-.85,2.09-.85s1.49.28,2.06.85c.57.57.85,1.25.85,2.06v25.51c0,.81-.28,1.49-.85,2.06-.57.57-1.26.85-2.08.85"/>
      <path class="cls-4" d="m220.25,39.21v14.07c0,7.61,3.81,11.41,11.44,11.41.8,0,1.48-.28,2.04-.85s.84-1.26.84-2.08-.28-1.49-.84-2.06-1.24-.85-2.04-.85c-3.73,0-5.59-1.85-5.59-5.56v-14.07h3.5c.8,0,1.48-.29,2.04-.86s.84-1.26.84-2.08-.28-1.49-.84-2.06-1.24-.85-2.04-.85h-3.5v-10.52c0-.8-.29-1.48-.85-2.05-.57-.57-1.26-.85-2.06-.85s-1.52.29-2.08.85c-.57.57-.85,1.25-.85,2.05v16.37h0Z"/>
      <path class="cls-4" d="m257.46,55.88c.84,0,1.54.28,2.08.82.55.55.82,1.25.82,2.08s-.28,1.52-.84,2.1c-2.89,2.54-6.3,3.8-10.24,3.8-4.33,0-8.02-1.53-11.08-4.59s-4.59-6.75-4.59-11.08,1.53-8.01,4.59-11.07c3.05-3.06,6.75-4.58,11.08-4.58s7.98,1.53,11.07,4.58c1.53,1.51,2.67,3.19,3.45,5.05.76,1.85,1.14,3.86,1.14,6.02,0,.84-.28,1.54-.86,2.08-.56.55-1.26.83-2.08.83h-22.15c.32,1.02.78,1.96,1.4,2.81.62.85,1.34,1.58,2.17,2.18.83.61,1.74,1.08,2.74,1.42,1,.33,2.04.5,3.12.5,1.23,0,2.36-.19,3.38-.56,1.03-.38,1.97-.93,2.85-1.68.56-.46,1.2-.71,1.93-.72m1.26-9.76c-.32-1.02-.79-1.96-1.41-2.81-.62-.85-1.35-1.58-2.18-2.18-.83-.6-1.74-1.08-2.74-1.41-1-.33-2.03-.5-3.09-.5s-2.1.17-3.11.5-1.93.8-2.77,1.41c-.84.61-1.57,1.34-2.18,2.18-.62.85-1.08,1.79-1.37,2.81h18.85Z"/>
      <path class="cls-4" d="m272.35,49.78c-1.75-.67-2.99-1.36-3.69-2.07h.03c-1.42-1.44-2.13-3.12-2.13-5.06,0-1.42.38-2.7,1.14-3.84.75-1.15,1.74-2.12,2.95-2.92,1.22-.8,2.58-1.42,4.1-1.86,1.52-.44,3.04-.65,4.57-.65,4.66,0,8.66,1.87,12,5.62.39.49.59,1.07.59,1.76,0,.84-.28,1.53-.83,2.08-.55.55-1.25.82-2.08.82-.6,0-1.11-.17-1.52-.5-.42-.34-.83-.7-1.22-1.09-1.9-1.9-4.21-2.85-6.93-2.85s-4.83.82-6.43,2.46c-.3.3-.46.71-.46,1.23s.24.88.73,1.06l13.09,4.31c1.83.71,3.06,1.4,3.69,2.07h-.02c1.41,1.44,2.12,3.12,2.12,5.06,0,1.44-.38,2.73-1.14,3.86-.75,1.14-1.73,2.11-2.95,2.92-1.21.81-2.57,1.43-4.08,1.86-1.5.43-3.03.65-4.55.65-4.7,0-8.7-1.86-12-5.57-.42-.54-.62-1.15-.62-1.82,0-.84.27-1.53.83-2.08.55-.55,1.24-.83,2.08-.83.62,0,1.14.18,1.57.54s.82.71,1.17,1.05c1.9,1.9,4.22,2.85,6.97,2.85s4.81-.84,6.43-2.52c.28-.32.42-.7.42-1.15,0-.52-.25-.88-.75-1.09l-13.06-4.31h-.02Z"/>
      <path class="cls-4" d="m298.96,51.93c-.83,0-1.54-.27-2.08-.83-.55-.55-.82-1.24-.82-2.08s.27-1.53.82-2.08c.55-.55,1.25-.82,2.08-.82h12.75c.84,0,1.54.28,2.09.82.55.55.82,1.25.82,2.08s-.28,1.53-.82,2.08c-.55.55-1.25.83-2.09.83h-12.75Z"/>
      <path class="cls-4" d="m315.13,60.38l14.93-38.43c.6-1.34,1.55-2.02,2.83-2.02s2.26.67,2.82,2.02l14.99,38.57c.15.37.22.78.22,1.2,0,.82-.28,1.52-.87,2.1-.58.58-1.28.87-2.09.87s-1.51-.29-2.07-.87c-.31-.3-.53-.61-.68-.95l-5.17-13.29h-14.32l-5.2,13.29c-.15.34-.37.65-.67.95-.58.58-1.28.87-2.11.87s-1.51-.29-2.08-.87c-.57-.58-.85-1.28-.85-2.1,0-.45.1-.89.31-1.34m22.63-16.73l-4.87-12.56-4.87,12.56h9.74Z"/>
      <path class="cls-4" d="m377.8,64.69c-3.75,0-7.02-1.15-9.82-3.44v13.95c0,.84-.29,1.54-.86,2.08-.56.55-1.26.83-2.09.83s-1.53-.28-2.08-.83-.83-1.24-.83-2.08v-26.18c0-4.32,1.53-8.01,4.58-11.07,3.06-3.05,6.75-4.58,11.08-4.58s7.99,1.53,11.08,4.58c1.53,1.51,2.68,3.19,3.44,5.05.77,1.86,1.15,3.87,1.15,6.03,0,4.37-1.53,8.06-4.59,11.08-1.57,1.55-3.27,2.7-5.11,3.46-1.83.75-3.82,1.13-5.96,1.13m-9.82-15.67c0,1.34.26,2.62.76,3.81.52,1.19,1.21,2.23,2.09,3.12.87.88,1.91,1.59,3.1,2.11,1.2.52,2.48.78,3.86.78s2.63-.26,3.83-.78c1.19-.52,2.23-1.23,3.11-2.13.89-.9,1.59-1.93,2.1-3.12.51-1.18.77-2.45.77-3.79s-.26-2.6-.77-3.79c-.51-1.18-1.21-2.22-2.1-3.12-.88-.9-1.92-1.61-3.11-2.12-1.2-.52-2.48-.79-3.83-.79s-2.66.26-3.86.79c-1.19.52-2.23,1.22-3.1,2.11-.88.89-1.57,1.93-2.09,3.12-.51,1.19-.76,2.46-.76,3.8"/>
      <path class="cls-4" d="m419.88,55.88c.84,0,1.54.28,2.09.82.55.55.82,1.25.82,2.08s-.28,1.52-.84,2.1c-2.89,2.54-6.3,3.8-10.23,3.8-4.33,0-8.02-1.53-11.08-4.59s-4.59-6.75-4.59-11.08,1.53-8.01,4.59-11.07c3.05-3.06,6.75-4.58,11.08-4.58s7.98,1.53,11.07,4.58c1.53,1.51,2.68,3.19,3.44,5.05.76,1.85,1.14,3.86,1.14,6.02,0,.84-.28,1.54-.85,2.08-.57.55-1.26.83-2.08.83h-22.16c.32,1.02.78,1.96,1.4,2.81.62.85,1.34,1.58,2.17,2.18.83.61,1.75,1.08,2.75,1.42.99.33,2.04.5,3.12.5,1.23,0,2.36-.19,3.38-.56,1.03-.38,1.98-.93,2.85-1.68.56-.46,1.21-.71,1.93-.72m1.26-9.76c-.32-1.02-.79-1.96-1.41-2.81-.62-.85-1.35-1.58-2.18-2.18-.84-.6-1.75-1.08-2.74-1.41-1-.33-2.04-.5-3.09-.5s-2.1.17-3.11.5c-1.01.33-1.93.8-2.77,1.41-.85.61-1.57,1.34-2.19,2.18-.61.85-1.06,1.79-1.36,2.81h18.85,0Z"/>
      <path class="cls-4" d="m434.78,49.78c-1.76-.67-2.98-1.36-3.7-2.07h.03c-1.42-1.44-2.13-3.12-2.13-5.06,0-1.42.38-2.7,1.14-3.84.75-1.15,1.74-2.12,2.96-2.92,1.2-.8,2.57-1.42,4.09-1.86,1.52-.44,3.04-.65,4.57-.65,4.67,0,8.67,1.87,12,5.62.39.49.59,1.07.59,1.76,0,.84-.27,1.53-.82,2.08-.55.55-1.24.82-2.08.82-.6,0-1.1-.17-1.52-.5-.42-.34-.83-.7-1.21-1.09-1.91-1.9-4.22-2.85-6.94-2.85s-4.82.82-6.43,2.46c-.3.3-.45.71-.45,1.23s.24.88.73,1.06l13.09,4.31c1.83.71,3.06,1.4,3.68,2.07h-.02c1.42,1.44,2.12,3.12,2.12,5.06,0,1.44-.38,2.73-1.13,3.86-.75,1.14-1.74,2.11-2.95,2.92-1.21.81-2.57,1.43-4.09,1.86-1.51.43-3.03.65-4.56.65-4.69,0-8.69-1.86-12-5.57-.41-.54-.61-1.15-.61-1.82,0-.84.27-1.53.83-2.08.55-.55,1.24-.83,2.08-.83.61,0,1.13.18,1.56.54.44.36.83.71,1.18,1.05,1.9,1.9,4.21,2.85,6.96,2.85s4.82-.84,6.43-2.52c.28-.32.42-.7.42-1.15,0-.52-.25-.88-.75-1.09l-13.06-4.31h0Z"/>
      <path class="cls-4" d="m359.29,22.87c0-.82-.27-1.51-.82-2.08-.55-.57-1.25-.85-2.09-.85s-1.53.29-2.08.85c-.55.57-.83,1.26-.83,2.08v38.91h0v.09c0,.17.01.34.04.5,0,.03.02.05.03.08.12.52.36.98.76,1.39q.27.27,0,0c-.4-.41,0,0,0,0,.03.04.08.06.11.09.25.24.53.42.83.55h.02c.16.06.32.12.5.15.19.04.39.06.6.06.8,0,1.48-.28,2.05-.85.56-.57.85-1.26.85-2.06v-2.94h0V22.87h.03Z"/>
    </g>
    <g>
      <path class="cls-2" d="m57.83,35.68c-.3.05-.31.31-.16.53.12.29-.55,1.06-.37,1.75.04.33.2.59.33.71.05.66.28,1.18.86.87.08.03.41.12-.03-.5,1-.24,1.17.16.92.13-.11.08.31-.58-.04-.62-.34,0-.69-.74-1.26-.57-.06.08-.04.52-.1.53-.42-.15-.81.12-.75.54-.44,1.01,1.62-.88-.08-2.42-.06-.3-.23-.44.14-.35.07-.31.11-.26.19-.35.11.03,1.74.96,1.99,1.35-.02.34-3.57.12-3.02.43-.55.21,1.82.35,2.04.37-5.51,2.44-2.38-2.6-3.08-1.52-.11.18-.59.62-.73,1.55-.25,1.22,1.21,1.26,1.77,1.02.41.17,1.09-.29,1.92-.29-.49.28-1.68,1.33-2,1.29-.97-.05-2.42,1.27-2.71-2.14.74-1.89,2.24-3.98,4.04-4.44-.92.61-1.61,2.51-2.3,2.86,1.76-.33,1.2-2.8,4-2.54.24.04.53.02.86-.02.27.14.51.27.77.54,1.77.74,3.87,2.61,3.35,5.4,0-.22.39-.35.46-.61.56-2.65-1.52-4.3-3.18-5.23-.33-.31-1.02-.05-1.41-.1-.79-.12-1.47-.7-2.31-.72,1.62-.73,3.76.07,5.25,1.22.32.25.93.39,1.32.55-.61-.89-1.36-1.53-2.23-1.96-3.57-1.77-6.88,1.31-8.6,1.84l-.1.26-.14.04c-.27.31-.61.63-1.09.86l.81-.84c1.18-3.1,5.9-4.13,9.35-2.39.9.22,1.58,1.67,2.21,2.3,2.12,1.7,2,6.68-.26,8.04-2.62,2.73-7.32,2.71-9.26.41-1.89-2.13-2.02-4.8-1.17-6.62l-.07-.23-.2.13.18-.24c0-.42.06-.88.57-1.17.27-.11-.04.26.22.39.05-.07.12-.14.11-.14,0,0,.16.03.32.06-.07-.06.14-.07.27-.09-.09.64.03,1.34.24,2.04.37-.24.27-.39.3-.5-.17-.18-.27-.39-.16-.6-.14-.57.68-1.01,1.01-1.16l.46.02c.26,0,.66.4.54.33m3.88,7.18c-.43.11-.91.09-1.4,0l-.39.1-.48.21c-.77-.03-1.47-.26-2.02-.63.5.74,1.4,1.26,2.44,1.09-2.87.83-4.4-2.07-4.35-3.7l-.46-1.29c-.1-.29-.28-.54-.45-.8-.2,1.95.26,5.39,3.95,6.34,1.85.27,3.62-.14,5.24-1.57,2.08-1.29,2.37-5.7.55-7.72,2.08,3.46-.42,7.75-2.62,7.96m.26-.82c.52-.66,1.31-1.3,1.3-2.35.7-2.89-2.38-5.08-3.8-4.06,1.65-.11,4.1,1.37,3.8,4.06.03-2.58.71-.2-1.11,2.03,0,.07-.08.22-.2.31"/>
      <path class="cls-2" d="m53.14,39.5c.16-.93.37-1.75.82-2.43-.47.32-.83.64-1.12,1.07-.59,1.14-.15,2.23.11,3.43.35,1.75,1.64,3.7,4.12,4.5,2.53.86,5.5-.31,7.09-1.8.22-.13.74-.71.93-1.23-2.41,2.65-5.66,3.41-8.52,2.21-2.64-1.26-3.52-3.74-3.42-5.74"/>
      <path class="cls-2" d="m63.67,32.3c-1.12-.6-2.22-1-3.35-1.19.97.48,2.12,1.14,3.01,1.8,1.26.89,2.49,2.07,3.02,3.97-.25-2-1.3-3.51-2.69-4.58"/>
      <path class="cls-2" d="m65.09,43.03l.62-.81c.87-1.22,1.34-3.7.64-5.33.42,1.84-.43,4.28-1.45,5.27.31.16.32.5.19.87"/>
    </g>
    <path class="cls-1" d="m26.78,74.72c3.44-5.29,6.73-11.83,11.82-15.82,1.57,2.27,3.12,4.64,4.45,6.96,5.4-.98,14.21-15.73,11.42-11.59-2,2.97,7.32-6.96,7.32-6.96,0,0,2.11,1.14,4.63,4.48,2.02,2.67,3.55,3.7,5.36,6.47.7,1.07,1.68,3.38,2.69,4,1.82,1.1,3.07-.19,4.33.39,5.71,2.59,9.14,8.88,15.58,11.01-5.91-1.38-9.99-7.59-15.76-8.94.16.58,1.26,3.06,1.47,3.73-3.7-.41-12.43-10.12-15.38-12.18.11.77,3.11,5.92,3.17,6.71-5.13-5.47-9.54-1.44-12.94-3.48-2.26,1.96.59,4.59.74,7.21-1.78-.39-8.03,1.62-9.64.93.24,3.95-6.29,5.62-3.05,7.77-5.37-.05-1.36-3.55-4.92-6.74.4-.43.88-.71,1.34-1.06-.68-.87-1.38-1.27-2.46-1.71-3.63,2.43-5.77,6.27-9.58,8.28"/>
    <g>
      <path class="cls-5" d="m135.48,95.79c.46,0,.83.15,1.13.45.3.3.45.68.45,1.13s-.15.83-.46,1.14c-1.57,1.38-3.43,2.07-5.57,2.07-2.35,0-4.36-.83-6.03-2.5s-2.5-3.67-2.5-6.03.83-4.37,2.5-6.03c1.67-1.66,3.68-2.5,6.03-2.5s4.35.83,6.03,2.5c.83.82,1.46,1.74,1.87,2.75.42,1.01.63,2.1.63,3.28,0,.46-.16.83-.47,1.13-.31.3-.69.45-1.13.45h-12.06c.17.56.43,1.07.76,1.53.34.46.73.86,1.18,1.19s.95.59,1.49.77c.54.18,1.11.27,1.7.27.67,0,1.29-.1,1.84-.31.56-.2,1.08-.5,1.55-.91.31-.25.65-.38,1.05-.39m.68-5.32c-.17-.56-.43-1.07-.77-1.53-.34-.46-.74-.86-1.19-1.19s-.95-.59-1.49-.77c-.54-.18-1.1-.28-1.68-.28s-1.14.09-1.69.28c-.55.18-1.05.44-1.51.77-.46.33-.85.72-1.19,1.19-.34.46-.58.97-.75,1.53h10.27Z"/>
      <path class="cls-5" d="m156.59,83.54c2.02,0,3.8.62,5.34,1.87v-7.6c0-.46.15-.83.45-1.13s.68-.45,1.13-.45.82.15,1.13.45c.31.3.46.68.46,1.13v14.25c0,2.38-.83,4.39-2.5,6.03-1.68,1.67-3.69,2.5-6.03,2.5s-4.37-.83-6.03-2.5c-1.66-1.66-2.49-3.68-2.49-6.03s.83-4.37,2.49-6.03c1.67-1.66,3.68-2.5,6.03-2.5m5.34,8.53c0-.73-.14-1.42-.42-2.06-.28-.65-.66-1.21-1.14-1.7s-1.05-.87-1.7-1.16c-.65-.28-1.34-.43-2.08-.43s-1.45.14-2.1.43c-.65.29-1.21.67-1.69,1.15s-.85,1.05-1.13,1.7c-.28.65-.42,1.34-.42,2.07s.14,1.42.42,2.07c.28.64.66,1.21,1.13,1.7.48.48,1.04.86,1.69,1.15.65.28,1.35.42,2.1.42s1.44-.14,2.08-.42c.65-.29,1.21-.67,1.7-1.16.48-.49.86-1.05,1.14-1.7.28-.64.42-1.33.42-2.06"/>
      <path class="cls-5" d="m179.95,95.79c.46,0,.84.15,1.14.45.3.3.45.68.45,1.13s-.15.83-.46,1.14c-1.57,1.38-3.43,2.07-5.57,2.07-2.35,0-4.36-.83-6.03-2.5s-2.5-3.68-2.5-6.03.84-4.37,2.5-6.03c1.67-1.66,3.67-2.5,6.03-2.5s4.35.83,6.03,2.5c.83.83,1.46,1.74,1.87,2.75.42,1.01.62,2.1.62,3.28,0,.46-.15.83-.46,1.13-.31.3-.69.45-1.13.45h-12.06c.18.56.43,1.07.76,1.53.34.46.73.86,1.18,1.19s.95.59,1.49.77c.54.18,1.11.28,1.7.28.67,0,1.29-.1,1.84-.31.56-.2,1.07-.51,1.55-.91.3-.26.65-.38,1.05-.4m.69-5.32c-.17-.56-.43-1.07-.77-1.53-.34-.46-.73-.86-1.19-1.19-.45-.33-.95-.59-1.49-.77-.54-.18-1.11-.27-1.68-.27s-1.14.09-1.69.27-1.05.44-1.51.77c-.46.33-.85.72-1.19,1.19-.33.46-.59.97-.75,1.53h10.27Zm-1.84-11.53l-3.05,3.03c-.28.29-.65.43-1.09.43s-.84-.15-1.14-.45c-.3-.3-.45-.68-.45-1.13s.13-.8.4-1.08l3.04-3.03c.32-.32.7-.47,1.13-.47s.83.16,1.13.46c.3.31.45.69.45,1.14s-.14.83-.43,1.11"/>
      <path class="cls-5" d="m194.87,100.59c-2.04,0-3.82-.63-5.35-1.87v7.6c0,.46-.16.83-.46,1.13-.31.3-.69.45-1.13.45s-.83-.15-1.13-.45c-.3-.3-.45-.68-.45-1.13v-14.25c0-2.35.83-4.37,2.5-6.03,1.66-1.66,3.67-2.5,6.03-2.5s4.34.83,6.03,2.5c.83.83,1.46,1.74,1.87,2.75.42,1.01.62,2.1.62,3.28,0,2.38-.83,4.39-2.5,6.03-.85.84-1.78,1.47-2.78,1.88-1,.41-2.08.62-3.25.62m-5.35-8.53c0,.73.14,1.42.42,2.07.28.64.66,1.21,1.13,1.7.48.48,1.04.86,1.69,1.15.65.28,1.35.42,2.1.42s1.44-.14,2.09-.42c.65-.29,1.21-.67,1.7-1.16.48-.49.86-1.05,1.14-1.7.28-.64.42-1.33.42-2.06s-.14-1.42-.42-2.06c-.28-.65-.66-1.21-1.14-1.7s-1.05-.87-1.7-1.16c-.65-.28-1.35-.43-2.09-.43s-1.45.14-2.1.43c-.65.29-1.21.67-1.69,1.15s-.85,1.05-1.13,1.7c-.28.65-.42,1.34-.42,2.07"/>
      <path class="cls-5" d="m219.51,99.01v-.31c-.76.61-1.59,1.08-2.48,1.41-.9.32-1.85.48-2.86.48-2.35,0-4.36-.83-6.03-2.5s-2.5-3.68-2.5-6.03.84-4.37,2.5-6.03c1.67-1.66,3.68-2.5,6.03-2.5s4.35.83,6.03,2.5c1.66,1.66,2.5,3.67,2.5,6.03v6.94c0,.43-.16.81-.47,1.12-.31.31-.68.46-1.12.46s-.83-.15-1.13-.46c-.31-.31-.46-.68-.46-1.12m-5.34-12.29c-.75,0-1.45.14-2.1.43-.65.28-1.21.67-1.69,1.15s-.85,1.05-1.13,1.7c-.28.65-.42,1.34-.42,2.07s.14,1.42.42,2.07c.28.64.66,1.21,1.13,1.7.48.48,1.04.86,1.69,1.15.65.28,1.35.42,2.1.42s1.44-.14,2.09-.42c.65-.29,1.21-.67,1.7-1.16.48-.49.86-1.05,1.14-1.7.28-.65.42-1.33.42-2.07s-.14-1.42-.42-2.06c-.28-.65-.66-1.21-1.14-1.7s-1.05-.87-1.7-1.16c-.65-.28-1.35-.43-2.09-.43"/>
      <path class="cls-5" d="m228.13,85.12v.3c.76-.61,1.59-1.08,2.48-1.4.89-.33,1.85-.49,2.86-.49.45,0,.93.03,1.44.09.51.06.98.17,1.41.33.43.16.79.37,1.08.65.28.27.42.63.42,1.07,0,.23-.04.43-.13.63-.09.19-.2.36-.34.51s-.31.26-.51.34c-.19.08-.4.12-.62.12-.19,0-.42-.06-.67-.17-.64-.25-1.34-.38-2.09-.38s-1.44.14-2.08.42c-.65.28-1.21.66-1.7,1.14-.48.49-.86,1.05-1.14,1.7-.28.65-.42,1.35-.42,2.09v6.94c0,.43-.15.81-.47,1.12-.31.31-.68.46-1.12.46s-.82-.15-1.13-.46-.47-.68-.47-1.12v-13.89c0-.44.16-.81.47-1.12.31-.31.69-.47,1.13-.47s.81.15,1.12.47c.31.31.47.68.47,1.12"/>
      <path class="cls-5" d="m239.76,83.54v-5.73c0-.43.15-.81.46-1.12.31-.31.69-.46,1.14-.46s.81.16,1.12.46c.31.31.46.68.46,1.12v5.73h1.91c.43,0,.8.15,1.11.47.31.31.45.68.45,1.12s-.15.83-.45,1.13c-.31.31-.68.47-1.11.47h-1.91v7.66c0,2.02,1.02,3.03,3.05,3.03.44,0,.81.16,1.11.47s.45.68.45,1.12-.15.82-.45,1.13-.67.47-1.11.47c-4.15,0-6.23-2.07-6.23-6.21v-7.66"/>
      <path class="cls-5" d="m261.66,95.79c.46,0,.84.15,1.14.45.29.3.45.68.45,1.13s-.15.83-.46,1.14c-1.57,1.38-3.43,2.07-5.57,2.07-2.35,0-4.36-.83-6.03-2.5-1.67-1.66-2.5-3.67-2.5-6.03s.83-4.37,2.5-6.03c1.66-1.66,3.67-2.5,6.03-2.5s4.35.83,6.03,2.5c.83.82,1.46,1.74,1.87,2.75.42,1.01.63,2.1.63,3.28,0,.46-.16.83-.47,1.13-.3.3-.68.45-1.13.45h-12.06c.17.56.43,1.07.76,1.53s.72.86,1.18,1.19c.45.33.95.59,1.49.77s1.11.27,1.7.27c.67,0,1.29-.1,1.84-.31.56-.2,1.08-.5,1.56-.91.3-.25.66-.38,1.05-.39m.69-5.32c-.18-.56-.43-1.07-.77-1.53s-.73-.86-1.19-1.19c-.45-.33-.95-.59-1.49-.77-.54-.18-1.11-.28-1.69-.28s-1.14.09-1.69.28c-.55.18-1.05.44-1.5.77-.46.33-.86.72-1.19,1.19-.34.46-.59.97-.75,1.53h10.27Z"/>
      <path class="cls-5" d="m292.58,98.99c0,.44-.15.82-.46,1.13s-.69.47-1.12.47-.82-.16-1.13-.47-.46-.69-.46-1.13v-8.66c0-.49-.09-.95-.28-1.39s-.44-.82-.77-1.15c-.32-.33-.7-.59-1.15-.78-.44-.19-.92-.29-1.42-.29s-.96.1-1.4.29-.83.45-1.15.78c-.33.32-.59.71-.78,1.14-.19.44-.28.91-.28,1.4v8.66c0,.44-.15.82-.47,1.13-.31.31-.68.47-1.12.47s-.83-.16-1.14-.47c-.31-.31-.46-.69-.46-1.13v-8.66c0-.5-.1-.97-.29-1.4-.2-.43-.45-.82-.78-1.14-.33-.33-.7-.58-1.14-.78-.44-.19-.9-.29-1.39-.29s-.97.09-1.4.28c-.44.19-.82.45-1.16.78-.33.33-.58.71-.78,1.15-.19.44-.27.91-.27,1.4v8.66c0,.44-.16.82-.47,1.13s-.68.47-1.12.47-.82-.16-1.13-.47-.46-.69-.46-1.13v-13.87c0-.44.15-.81.46-1.12.31-.31.68-.47,1.12-.47.35,0,.67.1.94.3.27.19.46.46.56.79,1.08-.72,2.32-1.08,3.7-1.08,1.01,0,1.97.2,2.86.6.89.4,1.67,1.01,2.35,1.82,1.4-1.61,3.14-2.42,5.19-2.42.92,0,1.8.18,2.63.54.82.36,1.54.84,2.16,1.46.61.61,1.1,1.34,1.45,2.17.37.82.55,1.7.55,2.62v8.66h0Z"/>
      <path class="cls-5" d="m308.15,95.79c.45,0,.83.15,1.14.45.3.3.45.68.45,1.13s-.16.83-.46,1.14c-1.57,1.38-3.43,2.07-5.57,2.07-2.35,0-4.36-.83-6.03-2.5-1.67-1.66-2.49-3.67-2.49-6.03s.83-4.37,2.49-6.03c1.67-1.66,3.68-2.5,6.03-2.5s4.35.83,6.04,2.5c.83.82,1.45,1.74,1.87,2.75.41,1.01.62,2.1.62,3.28,0,.46-.15.83-.46,1.13-.31.3-.68.45-1.14.45h-12.06c.18.56.43,1.07.76,1.53.34.46.72.86,1.18,1.19.45.33.95.59,1.49.77.54.18,1.11.27,1.69.27.67,0,1.29-.1,1.84-.31.56-.2,1.08-.5,1.55-.91.3-.25.66-.38,1.05-.39m.68-5.32c-.17-.56-.43-1.07-.76-1.53-.35-.46-.74-.86-1.19-1.19-.46-.33-.95-.59-1.5-.77-.54-.18-1.1-.28-1.68-.28s-1.15.09-1.68.28c-.55.18-1.05.44-1.51.77-.46.33-.86.72-1.18,1.19-.34.46-.58.97-.75,1.53h10.26-.01Z"/>
      <path class="cls-5" d="m318.16,85.1c1.35-1.05,2.94-1.57,4.77-1.57,1.07,0,2.08.21,3.04.62.96.41,1.81.98,2.53,1.7.73.71,1.31,1.56,1.73,2.53s.64,2,.64,3.1v7.51c0,.45-.15.83-.46,1.14s-.69.46-1.12.46-.83-.15-1.14-.46c-.3-.31-.46-.69-.46-1.14v-7.51c0-.65-.12-1.26-.38-1.84-.25-.58-.6-1.08-1.03-1.52-.43-.43-.93-.77-1.51-1.03-.58-.25-1.19-.38-1.84-.38s-1.28.13-1.85.37c-.57.25-1.08.59-1.52,1.03s-.78.95-1.03,1.52c-.25.58-.38,1.19-.38,1.84v7.51c0,.45-.16.83-.46,1.14s-.68.46-1.12.46-.83-.15-1.13-.46c-.31-.31-.47-.69-.47-1.14v-13.86c0-.44.16-.82.47-1.13.31-.32.69-.47,1.13-.47s.82.15,1.12.47c.31.31.46.68.46,1.1"/>
      <path class="cls-5" d="m333.78,83.54v-5.73c0-.43.16-.81.46-1.12.3-.31.69-.46,1.13-.46s.82.16,1.12.46c.31.31.47.68.47,1.12v5.73h1.9c.44,0,.8.15,1.11.47.31.31.46.68.46,1.12s-.15.83-.46,1.13c-.31.31-.67.47-1.11.47h-1.9v7.66c0,2.02,1.01,3.03,3.04,3.03.43,0,.81.16,1.11.47s.46.68.46,1.12-.16.82-.46,1.13-.68.47-1.11.47c-4.15,0-6.23-2.07-6.23-6.21v-7.66"/>
      <path class="cls-5" d="m120.04,77.35c-.07-.24-.18-.45-.35-.64-.19-.21-.41-.34-.67-.41-.12-.04-.25-.06-.39-.06h-.01c-.43,0-.79.16-1.07.47s-.43.69-.43,1.14v21.28c0,.17.03.33.07.48.07.24.18.45.35.64.19.21.41.34.67.41.12.04.25.06.39.06h.01c.43,0,.79-.15,1.07-.47.28-.31.43-.69.43-1.14v-21.26h0c0-.19-.03-.34-.07-.5Z"/>
    </g>
    <g>
      <path class="cls-3" d="m59.78,80.33c-13.17,3.35-14.93,5.48-14.81,6.45.21,1.69,6.58,2.97,14.81,2.97s14.6-1.28,14.81-2.97c.12-.97-1.64-3.1-14.81-6.45h0Z"/>
      <path class="cls-3" d="m60.04,79.86c12.29,3.12,17.84,3.77,20.33,3.77,1.74,0,2.36-.32,2.36-.62,0-1.66-10.28-6.52-17.43-6.52-3.39,0-5.16,1.13-5.25,3.37h-.01Z"/>
      <path class="cls-3" d="m54.26,76.49c-6.32,0-16.12,4.11-17.33,6.22-.16.27-.09.39-.07.43.09.15.49.5,2.33.5,2.49,0,8.04-.66,20.33-3.77-.1-2.24-1.86-3.37-5.26-3.37h0Z"/>
    </g>
    <path class="cls-6" d="m50.58,86.68c.79-1.67,2.5-5.26,4.26-6.77,1.76-1.5,6.7-4.86,9.54-4.28,2.84.58,3.75.87,4.6,1.68s1.14,1.27,1.42,1.74c.29.46.34.57.34.57l.45-.46s-2.44-3.12-3.41-4.45c-.96-1.33-1.47-2.43-1.81-3.59-.34-1.16-.51-1.97-.29-2.32.22-.34.68-.46.91-.29s.51.58.51.58l.45-.46s.51.17.79.17.74-.23.8-.52c.06-.29-.46-1.1-.74-1.44-.28-.35-.68-.87-.79-1.1-.12-.23,0-.75-.06-1.04-.06-.28-.11-.52-.11-.52l-.23.58s-.57-1.25-1.08-1.74c-.5-.48-1.93-1.27-3.29-1.04-.25.04-.42.12-.42.12-.02,0,1.13.03,1.9.65.6.49,1.16,1.21,1.31,1.48.15.27.23.41.23.41l-.23.23-.45-.58-.12.99-.05.52s-.29.23-1.03,1.5c-.74,1.27-2.21,2.43-3.63,3.12-1.43.7-3.98,2.2-5,2.67-1.02.46-2.89.46-3.57.4s.45.28.96.63.57,1.68.17,3.36-1.64,6.42-1.64,6.42c0,0-.79,1.16-1.25,1.91s.57.87.57.87"/>
  </g>
  <g id="a_droite_du_logo" data-name="a droite du logo">
    <g id="NEO">
      <path d="m535.78,72.34c0-.44.17-.86.48-1.17.3-.31.72-.49,1.15-.49s.85.17,1.15.49c.31.31.48.73.48,1.17v3.1c3.23-3.18,6.68-4.75,10.37-4.75,3.62-.07,7.11,1.41,9.61,4.08,2.63,2.56,4.09,6.12,4.03,9.82v14.41c0,.43-.17.85-.48,1.15-.31.31-.73.49-1.17.49s-.85-.17-1.15-.49c-.31-.31-.48-.73-.48-1.17v-14.41c.06-2.8-1.04-5.49-3.03-7.42-1.91-2.02-4.56-3.14-7.31-3.1-2.77-.03-5.43,1.1-7.36,3.12-1.97,1.93-3.07,4.62-3.02,7.4v14.41c0,.44-.17.86-.48,1.17-.3.31-.72.49-1.15.48-.43,0-.85-.17-1.15-.48-.31-.31-.48-.73-.48-1.17v-26.64Z"/>
      <path class="cls-7" d="m592.17,91.31c.42-.13.87-.08,1.25.13.39.2.68.57.79,1,.13.4.11.84-.06,1.23-4.13,6.61-12.56,8.88-19.36,5.22-3.49-1.81-6.09-5.01-7.17-8.85-1.21-3.79-.82-7.92,1.06-11.41,1.78-3.55,4.93-6.2,8.7-7.3,7.77-2.43,16,2.01,18.38,9.91v.02c.13.42.1.88-.1,1.27-.19.39-.54.68-.95.8l-23.44,7.33c1.13,2.24,2.9,4.08,5.07,5.28,2.66,1.51,5.82,1.82,8.72.87,2.59-.77,4.81-2.49,6.24-4.82.2-.33.51-.57.88-.68h-.01Zm-.06-10.63c-1.1-2.25-2.86-4.1-5.03-5.3-5.58-3.01-12.5-.86-15.46,4.81,0,0,0,.02-.01.02-1.13,2.24-1.58,4.78-1.28,7.28l21.79-6.81h0Z"/>
      <g>
        <path d="m613.71,100.77c-8.21-.14-14.76-7.03-14.62-15.38.14-8.15,6.6-14.73,14.62-14.87,2.21,0,4.39.49,6.38,1.47.95.41,1.4,1.54.99,2.51-.41.97-1.51,1.42-2.46,1.01-.05-.02-.1-.05-.16-.08-5.55-2.68-12.18-.29-14.82,5.35s-.28,12.39,5.26,15.07c5.55,2.68,12.18.29,14.82-5.35.71-1.52,1.08-3.18,1.08-4.87.05-1-.08-2-.38-2.95-.32-1,.23-2.08,1.21-2.4.99-.32,2.04.23,2.36,1.23.41,1.32.59,2.71.54,4.09.04,8.34-6.57,15.13-14.77,15.17h-.06.01Z"/>
        <ellipse class="cls-7" cx="623.96" cy="76.82" rx="1.98" ry="2.01"/>
      </g>
    </g>
  </g>
  <g>
    <path d="m489.85,90.8c-.91,0-1.72-.23-2.43-.68-.72-.45-1.29-1.06-1.7-1.84s-.62-1.65-.62-2.63.23-1.86.68-2.64,1.06-1.4,1.84-1.85c.77-.45,1.64-.68,2.61-.68s1.83.23,2.6.68c.77.45,1.38,1.07,1.83,1.85.45.78.68,1.66.68,2.64h-.72c0,.98-.21,1.85-.62,2.63-.42.77-.98,1.39-1.7,1.84s-1.53.68-2.43.68h-.02Zm.37-1.67c.63,0,1.2-.15,1.69-.46.5-.3.89-.72,1.17-1.24.28-.53.43-1.12.43-1.77s-.14-1.27-.43-1.79c-.28-.53-.67-.94-1.17-1.24-.49-.3-1.06-.46-1.69-.46s-1.18.15-1.68.46-.9.72-1.19,1.24c-.29.53-.44,1.12-.44,1.79s.15,1.25.44,1.77c.29.53.69.94,1.19,1.24s1.06.46,1.68.46Zm4.16,1.62c-.27,0-.5-.09-.68-.27s-.27-.41-.27-.68v-2.84l.35-1.97,1.54.67v4.14c0,.27-.09.5-.27.68s-.4.27-.68.27h0Z"/>
    <path d="m501.03,90.71c-.38,0-.68-.2-.89-.61l-3.94-8.3c-.1-.21-.11-.42-.03-.62.08-.2.24-.36.47-.47.21-.11.42-.13.64-.06s.38.22.49.43l3.68,7.93h-.89l3.64-7.93c.11-.21.28-.35.51-.43.23-.07.46-.06.7.06.22.1.37.25.45.46s.06.42-.04.63l-3.94,8.3c-.19.41-.47.61-.85.61Z"/>
    <path d="m512.17,90.8c-1.03,0-1.94-.22-2.74-.66s-1.42-1.05-1.88-1.82c-.45-.77-.68-1.66-.68-2.67s.21-1.91.64-2.68,1.02-1.38,1.77-1.82c.76-.44,1.62-.66,2.6-.66s1.8.21,2.49.64,1.22,1.02,1.59,1.76c.36.75.55,1.61.55,2.59,0,.24-.08.43-.24.59-.16.15-.36.23-.61.23h-7.48v-1.49h7.43l-.76.52c-.01-.62-.14-1.17-.37-1.66-.24-.49-.57-.88-1-1.16s-.96-.43-1.58-.43c-.71,0-1.31.15-1.81.46s-.88.73-1.14,1.27c-.26.54-.39,1.15-.39,1.83s.15,1.29.46,1.82.74.95,1.28,1.26,1.17.46,1.88.46c.38,0,.78-.07,1.18-.21.4-.14.73-.31.97-.49.19-.14.39-.21.6-.21s.4.06.57.19c.21.19.32.39.33.61s-.09.41-.3.58c-.42.33-.95.61-1.57.82s-1.22.32-1.79.32h0Z"/>
    <path d="m523.17,90.8c-.99,0-1.87-.23-2.65-.68-.77-.45-1.38-1.06-1.82-1.84s-.66-1.65-.66-2.63.22-1.89.65-2.67c.43-.78,1.03-1.39,1.78-1.83s1.62-.66,2.6-.66c.73,0,1.4.14,2.01.42s1.15.7,1.63,1.25c.17.2.23.4.19.61-.05.21-.19.4-.41.56-.17.12-.36.16-.58.12-.21-.04-.4-.15-.57-.32-.61-.64-1.36-.97-2.27-.97-.63,0-1.19.15-1.67.44s-.86.7-1.13,1.22c-.27.52-.41,1.13-.41,1.84,0,.67.14,1.26.42,1.78.28.52.66.93,1.16,1.23.49.3,1.07.46,1.73.46.43,0,.81-.05,1.14-.16s.63-.27.9-.49c.2-.16.4-.25.61-.27s.4.04.56.18c.21.17.33.37.35.59.02.22-.05.41-.22.59-.89.83-2.01,1.24-3.34,1.24h0Z"/>
  </g>
</svg>