<svg xmlns="http://www.w3.org/2000/svg" viewBox="0 0 158 128"><defs><style>.a{fill:none;}.b{fill:#35b0e6;}.c{fill:#48ad3c;}.d{fill:#e7343b;}.e{fill:#ea5425;}.f{fill:#f39232;}.g{fill:#627cbd;}.h{fill:#4dade2;}</style></defs><path class="a" d="M80.37,68.63a5.39,5.39,0,0,0,4.52,1.84,6.36,6.36,0,0,0,6-4.26,2.84,2.84,0,0,1,.31-.63,12.22,12.22,0,0,1-.26-1.73l-4.21,1.9Z"/><path class="a" d="M84.89,57.81a6.28,6.28,0,0,0-6.31,6.34v.13l10.67-4.79A5.4,5.4,0,0,0,84.89,57.81Z"/><path class="a" d="M51.56,51.67a8.46,8.46,0,0,0-6,14.42,8.45,8.45,0,0,0,12-12A8.12,8.12,0,0,0,51.56,51.67Z"/><path class="a" d="M89.34,34.29A6.33,6.33,0,0,0,95.66,28,6.32,6.32,0,1,0,83,28a6.28,6.28,0,0,0,6.32,6.32Z"/><path class="a" d="M103.09,55.74a7,7,0,1,0,7,7v-.13a7,7,0,0,0-7-6.89Z"/><path class="a" d="M123.2,57.81a6.28,6.28,0,0,0-6.31,6.34v.13l10.67-4.79A5.4,5.4,0,0,0,123.2,57.81Z"/><path class="b" d="M56.46,78.69a3.76,3.76,0,0,0-2.4-.86,4.48,4.48,0,0,0-1.13.14,20.26,20.26,0,0,1-4.63.54A18.32,18.32,0,0,1,29.91,60.13,18.39,18.39,0,0,1,48.3,41.7a18.78,18.78,0,0,1,4.63.59,5,5,0,0,0,1.13.13,3.81,3.81,0,0,0,2.4-.85,4,4,0,0,0,1.65-3.3v-.1a3.8,3.8,0,0,0-3.16-4c-.46-.12-.93-.22-1.39-.31v2.58a2.14,2.14,0,0,1-.69,1.62,2.22,2.22,0,0,1-1.62.69h-.06a2.19,2.19,0,0,1-1.62-.69,2.14,2.14,0,0,1-.69-1.62V33.35l-.58,0a25.81,25.81,0,0,0-18.94,7.86A25.81,25.81,0,0,0,21.5,60.13a25.79,25.79,0,0,0,7.86,18.93A25.81,25.81,0,0,0,48.3,86.92,27.46,27.46,0,0,0,55,86.1a3.83,3.83,0,0,0,3.16-4V82A3.9,3.9,0,0,0,56.46,78.69Z"/><path class="c" d="M114.25,57.71a12.23,12.23,0,0,0-19.79-3.58,12.24,12.24,0,0,0-1.78,2.21,10.54,10.54,0,0,1,2.2,3.17,2.26,2.26,0,0,1,.23,1,2,2,0,0,1-.16.8,2.15,2.15,0,0,1-1.22,1.3l-2.81,1.27a12.22,12.22,0,0,0,.26,1.73,2.14,2.14,0,0,1,1.9-.94,2.22,2.22,0,0,1,1.89,1,2.09,2.09,0,0,1,.44,1.28,2.46,2.46,0,0,1-.15.82,10.89,10.89,0,0,1-1.51,2.89c.22.26.46.52.71.77A11.77,11.77,0,0,0,103.09,75a8,8,0,0,0,7-3.5,6.62,6.62,0,0,1-2.22,4.94,6.72,6.72,0,0,1-4.8,2.08,7.07,7.07,0,0,1-6.34-3.2,2.37,2.37,0,0,0-2-1.19,3.15,3.15,0,0,0-1,.19l-.07,0a2.44,2.44,0,0,0-1.57,1.62,2.39,2.39,0,0,0,.28,2.2c2.37,3.71,6,5.56,10.71,5.56a11.81,11.81,0,0,0,8.38-3.56,11.66,11.66,0,0,0,3.84-8.42,11,11,0,0,1-1.06-14Zm-4.14,5a7,7,0,1,1-7-7,7,7,0,0,1,7,6.89Z"/><path class="d" d="M81.57,35.68a11,11,0,0,0,15.54,0c.18-.18.34-.36.5-.55v-9a8.9,8.9,0,0,1,1-4.19,12.06,12.06,0,0,0-1.49-1.83,11,11,0,0,0-15.54,0c-.23.23-.44.47-.64.7V35A8.42,8.42,0,0,0,81.57,35.68Zm3.28-12.19A6.34,6.34,0,0,1,95.66,28a6.32,6.32,0,1,1-10.81-4.48Z"/><path class="b" d="M97.61,35.13V36.6a2.12,2.12,0,0,0,.69,1.62,2.22,2.22,0,0,0,1.62.69H100a2.22,2.22,0,0,0,1.62-.69,2.12,2.12,0,0,0,.69-1.62V26.16a4.51,4.51,0,0,1,4.56-4.56,4.42,4.42,0,0,1,3.23,1.33,4.46,4.46,0,0,1,1.31,3.23V36.6a2.12,2.12,0,0,0,.69,1.62,2.25,2.25,0,0,0,1.64.69h0a2.36,2.36,0,0,0,2.31-2.31V26.16a9.22,9.22,0,0,0-15.75-6.53A9.28,9.28,0,0,0,98.6,22a10.58,10.58,0,0,1,1.73,5.94A10.52,10.52,0,0,1,97.61,35.13Z"/><path class="e" d="M97.61,35.13a10.52,10.52,0,0,0,2.72-7.22A10.58,10.58,0,0,0,98.6,22a8.9,8.9,0,0,0-1,4.19Z"/><path class="d" d="M65.82,40.59h-.07a3.08,3.08,0,0,0-2.13.81,2.63,2.63,0,0,0-.9,2v7.14a14.62,14.62,0,0,1,0,19V74a2.5,2.5,0,0,0,.9,2,3,3,0,0,0,2.13.84h.07a3,3,0,0,0,2.12-.84,2.5,2.5,0,0,0,.9-2V43.4a2.63,2.63,0,0,0-.9-2A3,3,0,0,0,65.82,40.59Z"/><path class="d" d="M76.76,56.72V43.4a2.63,2.63,0,0,0-.9-2,3.07,3.07,0,0,0-2.12-.81h-.08a3.07,3.07,0,0,0-2.12.81,2.63,2.63,0,0,0-.9,2V74a2.5,2.5,0,0,0,.9,2,3,3,0,0,0,2.12.84h.08a3,3,0,0,0,2.12-.84,2.5,2.5,0,0,0,.9-2V71.46a10.93,10.93,0,0,1,0-14.74Z"/><path class="f" d="M53.56,18.1a4.51,4.51,0,1,1,9,0V29.91a2.12,2.12,0,0,0,.68,1.62,2.25,2.25,0,0,0,1.64.69h0a2.36,2.36,0,0,0,2.31-2.31V18.1a4.52,4.52,0,1,1,9,0V36.43a2.36,2.36,0,0,0,2.31,2.31h0a2.23,2.23,0,0,0,1.64-.69,2.2,2.2,0,0,0,.67-1.62V35a10.51,10.51,0,0,1-2.59-7.07,10.55,10.55,0,0,1,2.59-7.07V18.1a9.18,9.18,0,0,0-9.18-9.18c-3,0-5.31,1-6.84,3-1.54-2-3.82-3-6.85-3a8.86,8.86,0,0,0-6.49,2.69,8.86,8.86,0,0,0-2.69,6.49V33.35a27.13,27.13,0,0,1,4.68.5Z"/><path class="g" d="M49.57,38.05a2.19,2.19,0,0,0,1.62.69h.06a2.22,2.22,0,0,0,1.62-.69,2.14,2.14,0,0,0,.69-1.62V33.85a27.13,27.13,0,0,0-4.68-.5v3.08A2.14,2.14,0,0,0,49.57,38.05Z"/><path class="e" d="M80.93,35V20.84a10.55,10.55,0,0,0-2.59,7.07A10.51,10.51,0,0,0,80.93,35Z"/><path class="f" d="M90.87,66.21a6.36,6.36,0,0,1-6,4.26,5.39,5.39,0,0,1-4.52-1.84l6.34-2.88,4.21-1.9c0-.36,0-.72,0-1.09a11.73,11.73,0,0,1,1.81-6.42,11,11,0,0,0-15.56,0l-.36.4V71.46l.36.4A11,11,0,0,0,91.31,73a11,11,0,0,0,2.44-2.38,11.63,11.63,0,0,1-2.57-5A2.84,2.84,0,0,0,90.87,66.21ZM78.58,64.15a6.28,6.28,0,0,1,6.31-6.34,5.4,5.4,0,0,1,4.36,1.68L78.58,64.28Z"/><path class="f" d="M83.18,43.91h-3a1.21,1.21,0,0,0-1.17.75,1.5,1.5,0,0,0-.17.65,1.08,1.08,0,0,0,.34.76l4.85,4.79a1.44,1.44,0,0,0,1,.44h1.45a1.21,1.21,0,0,0,1.16-.7,1.4,1.4,0,0,0,.15-.6,1.31,1.31,0,0,0-.28-.78l-3.34-4.77A1.15,1.15,0,0,0,83.18,43.91Z"/><path class="e" d="M90.92,63.85l2.81-1.27A2.15,2.15,0,0,0,95,61.28a2,2,0,0,0,.16-.8,2.26,2.26,0,0,0-.23-1,10.54,10.54,0,0,0-2.2-3.17,11.73,11.73,0,0,0-1.81,6.42C90.87,63.13,90.89,63.49,90.92,63.85Z"/><path class="e" d="M95.41,66.92A2.09,2.09,0,0,0,95,65.64a2.22,2.22,0,0,0-1.89-1,2.14,2.14,0,0,0-1.9.94,11.63,11.63,0,0,0,2.57,5,10.89,10.89,0,0,0,1.51-2.89A2.46,2.46,0,0,0,95.41,66.92Z"/><path class="e" d="M73.9,64.09a10.53,10.53,0,0,0,2.86,7.37V56.72A10.53,10.53,0,0,0,73.9,64.09Z"/><path class="b" d="M133.28,65.64a2.22,2.22,0,0,0-1.89-1,2.17,2.17,0,0,0-2.21,1.57,6.36,6.36,0,0,1-6,4.26,5.41,5.41,0,0,1-4.52-1.84L125,65.75l7-3.17a2.15,2.15,0,0,0,1.22-1.3,2,2,0,0,0,.16-.8,2.26,2.26,0,0,0-.23-1,10.75,10.75,0,0,0-4-4.62,11,11,0,0,0-13.76,1.43,11.84,11.84,0,0,0-1.19,1.39,12,12,0,0,1,1.06,5v9l.13.14a10.59,10.59,0,0,0,7.76,3.23A10.71,10.71,0,0,0,129.62,73a10.58,10.58,0,0,0,3.95-5.27,2.46,2.46,0,0,0,.15-.82A2.09,2.09,0,0,0,133.28,65.64Zm-16.39-1.49a6.28,6.28,0,0,1,6.31-6.34,5.4,5.4,0,0,1,4.36,1.68l-10.67,4.79Z"/><path class="g" d="M115.31,62.72a12,12,0,0,0-1.06-5,11,11,0,0,0,1.06,14v-9Z"/><path class="c" d="M61.93,49.68a14.64,14.64,0,0,0-20.75,0,14.67,14.67,0,0,0,0,20.75,14.67,14.67,0,0,0,20.75,0c.28-.28.54-.57.79-.86v-19C62.47,50.25,62.21,50,61.93,49.68ZM57.52,66.09a8.45,8.45,0,0,1-12-12,8.45,8.45,0,0,1,12,12Z"/><path class="e" d="M62.72,50.54v19a14.62,14.62,0,0,0,0-19Z"/><path d="M35.65,106a3.23,3.23,0,0,1-1.64-.42,3.17,3.17,0,0,1-1.15-1.15,3.38,3.38,0,0,1-.43-1.65V97.49a.56.56,0,0,1,.17-.42.63.63,0,0,1,.86,0,.55.55,0,0,1,.16.42v3.13a3.23,3.23,0,0,1,1-.77,3,3,0,0,1,2.81.14,3,3,0,0,1,1.07,1.15,3.47,3.47,0,0,1,0,3.29A3.17,3.17,0,0,1,35.65,106Zm0-1a2.11,2.11,0,0,0,1.07-.28,2,2,0,0,0,.74-.79,2.18,2.18,0,0,0,.28-1.11,2.13,2.13,0,0,0-.28-1.11,2.08,2.08,0,0,0-2.87-.77,2,2,0,0,0-.74.77,2.23,2.23,0,0,0-.27,1.11,2.28,2.28,0,0,0,.27,1.11,2,2,0,0,0,.74.79A2.12,2.12,0,0,0,35.65,105Z"/><path d="M42.85,105.7a.56.56,0,0,1-.42,0,.6.6,0,0,1-.31-.3l-2.68-5a.45.45,0,0,1,0-.42.54.54,0,0,1,.31-.3.56.56,0,0,1,.42,0,.55.55,0,0,1,.3.3L43,105a.69.69,0,0,1,.09.43A.36.36,0,0,1,42.85,105.7Zm-1.39,3a.71.71,0,0,1-.28-.07.49.49,0,0,1-.28-.73l3.58-8a.51.51,0,0,1,.73-.28.48.48,0,0,1,.3.73l-3.59,8A.47.47,0,0,1,41.46,108.74Z"/><path d="M49.2,97.52a1.26,1.26,0,0,1,.38-.93,1.2,1.2,0,0,1,.91-.38,1.22,1.22,0,0,1,.91.38,1.34,1.34,0,0,1,.38.93V100A11.53,11.53,0,0,1,60,96.21a10.2,10.2,0,0,1,7.63,3.23,10.63,10.63,0,0,1,3.19,7.79v11.43a1.22,1.22,0,0,1-.38.91,1.27,1.27,0,0,1-.92.39,1.31,1.31,0,0,1-1.29-1.31V107.21a8,8,0,0,0-2.41-5.89A7.79,7.79,0,0,0,60,98.87a8.31,8.31,0,0,0-8.24,8.34v11.43a1.28,1.28,0,0,1-.38.93,1.22,1.22,0,0,1-.91.38,1.19,1.19,0,0,1-.91-.38,1.24,1.24,0,0,1-.38-.93Z"/><path class="h" d="M93.94,112.58a1.23,1.23,0,0,1,1,.1,1.25,1.25,0,0,1,.63.79,1.41,1.41,0,0,1,0,1,11.59,11.59,0,0,1-15.36,4.14,11.35,11.35,0,0,1-5.69-7,11.67,11.67,0,0,1,.84-9.06,11.28,11.28,0,0,1,6.9-5.79,11.66,11.66,0,0,1,14.59,7.86v0a1.31,1.31,0,0,1-.08,1,1.2,1.2,0,0,1-.76.63l-18.6,5.82a9.93,9.93,0,0,0,4,4.19,8.61,8.61,0,0,0,6.91.69,8.7,8.7,0,0,0,4.95-3.82A1.26,1.26,0,0,1,93.94,112.58Zm0-8.44a9.7,9.7,0,0,0-4-4.2,9,9,0,0,0-12.27,3.82h0a10.12,10.12,0,0,0-1,5.78Z"/><path d="M111,120.08a12,12,0,0,1,0-24,11.41,11.41,0,0,1,5.07,1.16,1.52,1.52,0,0,1,.78,2,1.47,1.47,0,0,1-2,.8l-.12-.06A8.76,8.76,0,0,0,103,104.22a9,9,0,0,0,4.18,12A8.75,8.75,0,0,0,119,111.93a9.06,9.06,0,0,0,.86-3.86,6.58,6.58,0,0,0-.3-2.34,1.53,1.53,0,0,1,1-1.91,1.49,1.49,0,0,1,1.87,1,9.67,9.67,0,0,1,.43,3.25,11.88,11.88,0,0,1-11.72,12Z"/><ellipse class="h" cx="119.15" cy="101.08" rx="1.57" ry="1.6"/></svg>