<?xml version="1.0" encoding="utf-8"?>
<!-- Generator: Adobe Illustrator 27.7.0, SVG Export Plug-In . SVG Version: 6.00 Build 0)  -->
<svg version="1.1" id="Calque_1" xmlns="http://www.w3.org/2000/svg" xmlns:xlink="http://www.w3.org/1999/xlink" x="0px" y="0px"
	 viewBox="0 0 424.7 170" style="enable-background:new 0 0 424.7 170;" xml:space="preserve">
<style type="text/css">
	.st0{fill:#FFFFFF;}
	.st1{fill:#F18934;}
	.st2{fill:#BCBEC0;}
	.st3{fill:#A348C0;}
	.st4{fill:#6FBE2E;}
	.st5{fill:#FF8D2E;}
	.st6{fill:#FF3A55;}
	.st7{fill:#46AFE6;}
	.st8{fill:#3F1E69;}
	.st9{fill:#04BAEE;}
	.st10{fill:#FF8B2E;}
	.st11{fill:#D20072;}
</style>
<g>
	<g id="byONE-contour_00000144332953728488775240000013106278104027135880_">
		<path class="st0" d="M343.9,64.5c-5.3-5.7-12.8-8.8-20.5-8.7c-6.7,0-13.2,2.5-19.2,7.5v-3c-0.1-2.7-2.4-4.8-5.1-4.6
			c-2.7,0.1-4.8,2.4-4.6,5.1l-0.1,53.2c0,1.3,0.5,2.6,1.4,3.5c0.9,0.9,2.1,1.5,3.4,1.5c2.7,0,4.9-2.1,5-4.8c0,0,0-0.1,0-0.1V85.1
			c-0.1-5.1,1.9-10.1,5.6-13.7l0.3-0.3c3.5-3.5,8.4-5.5,13.4-5.5h0.2c5.1,0.1,9.9,2.2,13.4,5.8c3.7,3.6,5.8,8.5,5.6,13.7v28.9
			c0,1.3,0.5,2.6,1.4,3.5c0.9,1,2.2,1.5,3.5,1.5c1.3,0,2.6-0.5,3.5-1.5c0.9-1,1.4-2.2,1.4-3.5V85.3C352.6,77.5,349.5,70,343.9,64.5z
			"/>
		<path d="M296,60.7c-0.1-1.8,1.3-3.3,3.1-3.4c1.8-0.1,3.3,1.3,3.4,3.1V67c6.5-6.3,13.5-9.5,20.8-9.5c7.3-0.1,14.3,2.9,19.3,8.2
			c5.3,5.2,8.2,12.3,8.1,19.7v28.8c0,0.9-0.3,1.8-1,2.4c-0.6,0.6-1.5,1-2.4,1c-0.9,0-1.7-0.3-2.3-1c-0.6-0.7-1-1.5-1-2.4V85.2
			c0.1-5.6-2.1-11-6.2-14.9c-7.9-8.2-20.9-8.4-29-0.5c-0.1,0.1-0.2,0.2-0.3,0.3l-0.3,0.3c-4,3.9-6.2,9.3-6.1,14.9V114
			c0,1.8-1.5,3.3-3.3,3.3c0,0-0.1,0-0.1,0c-0.9,0-1.7-0.4-2.3-1c-0.6-0.7-1-1.5-1-2.4L296,60.7L296,60.7z"/>
		<path class="st0" d="M417.8,77.2c-2.5-8-8-14.6-15.3-18.6c-7.3-3.9-15.8-4.7-23.7-2.2c-16.6,5.3-25.8,23-20.6,39.6
			c2.2,7.2,6.9,13.3,13.3,17.4c14.6,9.2,33.8,4.8,43-9.7c0.1-0.1,0.1-0.2,0.2-0.3l0.1-0.2c1-2.4,0.1-5.2-2.2-6.5
			c-1.2-0.6-2.5-0.8-3.8-0.4c-1.2,0.3-2.2,1-2.7,2.1c-1.3,2.1-2.9,3.9-4.8,5.5c-6.6,5.1-15.6,5.9-23,2c-3.5-1.9-6.5-4.8-8.6-8.2
			l45.1-14.2c1.3-0.3,2.4-1.2,3-2.4C418.1,79.8,418.2,78.5,417.8,77.2z M406.5,75.5l-40.1,12.6c-0.2-4,0.7-8.1,2.5-11.7l0.2-0.4V76
			c2.7-4.9,7.1-8.5,12.4-10.2c5.4-1.7,11.3-1.2,16.3,1.5C401.4,69.2,404.4,72.1,406.5,75.5z"/>
		<path class="st1" d="M409.1,97.8c0.8-0.3,1.8-0.2,2.5,0.3c1.6,0.9,2.2,2.8,1.5,4.4c-8.6,13.9-26.7,18.2-40.6,9.7
			c-0.1,0-0.2-0.1-0.2-0.1c-6-3.8-10.5-9.7-12.6-16.5c-5-15.7,3.7-32.4,19.4-37.4c7.5-2.4,15.7-1.7,22.7,1.9
			c7,3.7,12.2,10.1,14.5,17.6c0.3,0.8,0.2,1.7-0.2,2.5c-0.3,0.8-1.1,1.4-1.9,1.6l-47.1,14.8c2.3,4.5,5.8,8.2,10.2,10.6
			c8,4.2,17.7,3.4,24.8-2.1c2.1-1.7,3.9-3.7,5.3-6C407.7,98.5,408.4,98,409.1,97.8z M408.8,76.5c-2.2-4.5-5.8-8.2-10.2-10.6
			c-11.2-5.9-25.2-1.6-31.1,9.7c0,0,0,0,0,0v0.1c-2.3,4.5-3.2,9.6-2.5,14.6L408.8,76.5z"/>
		<path class="st0" d="M288.8,86.6L288.8,86.6c-0.5-6.4-2.7-12.5-6.4-17.8c1.1-1.1,2.2-2.2,3.2-3.4c2.4-2.9,2-5.3,1.3-6.9
			c-2.1-4.6-10.2-7.1-13-7.1c-0.2,0-0.4,0-0.6,0.1h-0.3l-0.3,0.1c-2.6,1-4,4.5-4.7,6.8c-4.8-1.6-9.9-2.4-14.9-2.4
			c-4.2,0-8.3,0.5-12.3,1.5c-0.5-1.3-1.2-2.6-2-3.7l-0.1-0.1l-0.2-0.3c-0.8-1.4-2.2-2.3-3.8-2.3H234h-0.3c-6.4,1.1-9.8,4.1-10.2,4.5
			c-1.7,1.5-2.4,3.9-1.7,6.1c0.6,2.1,1.8,4.1,3.4,5.7c-2.9,4.3-10.6,16.9-9.8,23.4c2.3,17.9,15.5,28.6,35.3,28.6
			c8.5,0,16.9-2,24.5-5.7C282.4,110.1,290,104.7,288.8,86.6z"/>
		<path d="M287.2,86.7c-0.5-6.6-3-12.9-7-18.2c0,0,1.3-0.8,4.1-4.2c5.7-6.9-7.1-11.3-10.5-11.3c-0.2,0-0.4,0.1-0.6,0.1
			c-2.9,1.2-4.1,7.4-4.1,7.4c-9.5-3.6-20-3.9-29.7-1c0.2-1.6-1.5-4.1-2-4.9c-0.5-0.8-1.1-2-2.7-2H234c-6.3,1.1-9.3,4.1-9.3,4.1
			c-4.1,3.6,2,10.1,2.7,10.3c-1.8,2.4-11.2,17-10.4,23.5c2.6,19.9,17.9,27.2,33.7,27.2c8.2,0,16.4-1.9,23.7-5.5
			C280.7,109.1,288.4,104.3,287.2,86.7z"/>
		<path class="st0" d="M274.9,68.2c-17-13-36.5-6-44.1,0.6c-6,5.3-8.4,14.3-9.9,18.7c-1.1,3.6-0.7,19.7,23.8,24.5
			c1.6,0.3,3.2,0.4,4.7,0.4h0.8c10.3-0.1,23.9-4.6,28.7-10.1C287.9,91.9,283,74.4,274.9,68.2z"/>
		<path class="st2" d="M278.8,102.4c-5.7,6.5-24,11.6-34.1,9.6c-15-3-20.9-10-23.1-15.9c1.8,6.8,7.6,15.1,23.8,17.9
			c4.2,0.7,27.6,0.3,36.1-12.2c0.7-1,1.5-4.3,1.8-8.5C282.6,96.7,281.1,99.8,278.8,102.4z"/>
		<path d="M231,85.5l0.8,2.9c1.6-2.1,8.5-9.3,13.5,1.4l1.4-2.6C246.6,87.3,241.5,72.9,231,85.5z"/>
		<path d="M267,88.2c2,0,3.7-1.3,3.7-3c0-1.7-1.7-3-3.7-3s-3.7,1.3-3.7,3S265,88.2,267,88.2z"/>
		<path d="M267,94.4c-5.7,0-10.4-4.1-10.4-9.2c0-5.1,4.7-9.2,10.4-9.2s10.4,4.1,10.4,9.2C277.4,90.3,272.7,94.4,267,94.4z M267,79.1
			c-4.1,0-7.4,2.8-7.4,6.1c0,3.4,3.3,6.1,7.4,6.1s7.4-2.8,7.4-6.1C274.4,81.9,271.1,79.1,267,79.1z"/>
		<path d="M249.3,94.8h8.4l-4.2,4.6L249.3,94.8z"/>
		<path d="M252.6,108.1c-3.1,0-6.8-1-10.7-4.2l1.8-2.4c4.2,3.4,8.4,4.4,12.6,2.8c1.9-0.6,3.6-1.7,5-3.1l2.2,2.1
			c-1.8,1.8-3.9,3.1-6.2,4C255.8,107.8,254.2,108.1,252.6,108.1z"/>
		<path class="st0" d="M246.6,100.2c-0.2,0-0.5,0-0.7,0.1l-1,0.4l-1,0.3l0.6-0.8l0.7-0.9c0.4-0.6,0.5-1.3,0.3-2
			c-0.2-0.7-0.7-1.2-1.4-1.4c-0.2-0.1-0.4-0.1-0.7-0.1c-1.2,0-2.1,1-2.1,2.2c0,0,0,0,0,0v1.1v1l-0.6-0.8l-0.6-0.9
			c-0.7-1-2-1.2-3-0.5c-0.2,0.1-0.4,0.3-0.5,0.5c-0.4,0.6-0.5,1.3-0.3,2c0.2,0.7,0.7,1.2,1.4,1.4l1.1,0.3l1,0.3l-1,0.3l-1.1,0.3
			c-0.7,0.2-1.2,0.7-1.4,1.4c-0.2,0.7-0.1,1.4,0.3,2c0.7,1,2,1.2,3,0.5c0.2-0.1,0.4-0.3,0.5-0.5l0.6-0.9l0.6-0.8v1v1.1
			c0,0.6,0.2,1.1,0.6,1.5c0.4,0.4,0.9,0.6,1.5,0.7c0.2,0,0.5,0,0.7-0.1c0.7-0.2,1.2-0.7,1.4-1.4c0.2-0.7,0.1-1.4-0.3-1.9l-0.7-0.9
			l-0.6-0.8l1,0.3l1,0.4c0.2,0.1,0.5,0.1,0.7,0.1c1.2-0.1,2.1-1.1,2-2.3c-0.1-1.1-0.9-2-2-2V100.2z"/>
		<path class="st3" d="M242,98c0-0.8,0.6-1.5,1.4-1.5c0.2,0,0.3,0,0.5,0.1l0,0c0.8,0.3,1.2,1.1,0.9,1.9c-0.1,0.2-0.1,0.3-0.2,0.4
			l-0.7,0.9l-1.9,2.6l-0.1-3.3L242,98z"/>
		<path class="st4" d="M238,101.1c-0.8-0.3-1.2-1.1-1-1.9c0-0.1,0.1-0.3,0.2-0.4l0,0c0.4-0.7,1.4-0.9,2-0.4c0.2,0.1,0.3,0.2,0.4,0.4
			l0.6,0.9l1.8,2.7l-3-0.9L238,101.1z"/>
		<path class="st5" d="M239.6,105.9c-0.4,0.7-1.4,0.9-2,0.4c-0.2-0.1-0.3-0.2-0.4-0.4l0,0c-0.5-0.7-0.3-1.6,0.3-2.1
			c0.1-0.1,0.3-0.2,0.4-0.2l1.1-0.3l3.1-0.9l-1.8,2.6L239.6,105.9z"/>
		<path class="st6" d="M244.6,105.8c0.5,0.7,0.4,1.6-0.3,2.1c-0.1,0.1-0.3,0.2-0.4,0.2l0,0c-0.8,0.2-1.6-0.2-1.9-1
			c0-0.2-0.1-0.3-0.1-0.5v-1.1l0.1-3.3l1.9,2.6L244.6,105.8z"/>
		<path class="st7" d="M246.1,101c0.8-0.3,1.6,0.1,1.9,0.9c0.1,0.2,0.1,0.3,0.1,0.5l0,0c0,0.8-0.7,1.5-1.5,1.5c-0.2,0-0.3,0-0.5-0.1
			l-1-0.4l-3-1.1l3-1L246.1,101z"/>
		<ellipse class="st3" cx="242" cy="102.4" rx="0.4" ry="0.4"/>
	</g>
	<g>
		<path class="st0" d="M153.9,147.8c-0.9,1.6-2,3.1-3.2,4.5c-12.2,13.8-29.1,17.7-45.9,10.6c-30.1-12.8-60.2-25.8-90.2-38.7
			c-5.9-2.6-6.8-4-4.9-10.3c1.9-6.2,3.8-12.3,5.9-18.5c1-3.1,2.2-6.1,3.2-9.1c0.6-1.7,1.4-3.9,0.6-5.6c-1-2-2.8-3.6-4.6-4.9
			c-2.5-1.7-5.3-3.1-7.4-5.3c-3.6-3.6-4.8-9.2-3.7-14.1s4.6-9.2,8.9-11.9c2.4-1.5,5.2-2.5,8-2.2c3.5,0.4,6.5,2.7,10,3.6
			c1.1,0.3,2.2,0.4,3.3,0c1.9-0.8,2.4-3.9,3.2-5.7c1.1-2.4,2.1-4.7,3.2-7.1c3.1-6.7,6.3-13.4,9.4-20.2c0.9-1.9,2-3.7,3-5.5
			c2-3.7,5-4.6,8.9-3.1c8.7,3.4,17.4,6.8,26,10.2c4.4,1.7,8.7,3.6,13.1,5.3c1.1,0.4,2.8,0.6,3.8,1.3c1.3,1,1.3,3.4,1.3,4.9
			c0,2.1-0.3,4.1-0.2,6.2c0.3,6.4,4.8,12.4,10.8,14.5c6,2.1,13.2,0.3,17.5-4.4c1.3-1.4,2.3-3.1,3.9-4.2c2.9-2.1,5.7-1.1,8.8-0.3
			c3.9,1,7.7,2.7,11.5,4.2c8.3,3.2,16.6,6.4,24.8,9.7c5.8,2.4,8.3,7.1,6.1,12.8c-11,27.7-20.1,56.3-34.6,82.6
			C154.2,147.4,154.1,147.6,153.9,147.8z"/>
		<g>
			<g>
				<path class="st8" d="M33.4,74.5c0.1-3,1.9-5.2,4.8-5.9c4.9-1.1,9.9-2.3,14.8-3.4c1-0.2,1.2-0.1,1.6,0.8c0.5,1.5,1,3,1.4,4.5
					c0.1,0.5,0.3,0.6,0.8,0.5c0.6-0.1,1.2-0.2,1.8-0.2c1.4,0,2.4,0.9,2.7,2.2c0.2,0.8-0.1,1.6-0.7,2c-0.7,0.5-1.4,0.9-2.2,1.2
					c-0.5,0.2-0.6,0.4-0.5,0.9c0.4,1.7,0.7,3.4,1,5.1c0.1,0.3,0.1,0.6,0.1,1c0.1,0.6-0.2,1-0.8,1.2c-2.3,0.6-4.5,1.2-6.8,1.8
					c-0.5,0.1-0.6,0.3-0.5,0.7c0.3,2.1-1.2,3.6-3.3,3.5c-1.1-0.1-1.6-0.8-1.9-1.7c-0.2-0.8-0.6-0.8-1.2-0.6c-1.9,0.5-3.8,1-5.7,1.5
					c-0.9,0.2-1.7-0.1-1.9-1c-1.1-4.5-2.6-8.9-3.2-13.5C33.5,74.9,33.5,74.6,33.4,74.5z"/>
				<path class="st9" d="M88,73.3c0-0.3,0-0.6-0.1-0.9c-0.5-2.8-2.5-4.7-5.3-5.1c-5-0.7-10.1-1.4-15.1-2c-1-0.1-1.2,0-1.5,1
					c-0.2,1-0.5,1.9-0.7,2.9c-0.1,0.5-0.2,1-0.3,1.5c-0.1,0.3-0.3,0.6,0,0.9c0.2,0.2,0.5,0.2,0.7,0.3c0.7,0.2,1.4,0.4,1.9,0.7
					s1.1,0.9,1.3,1.6c0.2,0.7,0.1,1.4-0.3,2c-0.5,0.6-1.2,0.8-1.9,0.8c-0.7,0.1-1.4,0-2.2,0.1c-0.4,0.1-0.7,0.2-0.7,0.6
					c-0.1,0.6-0.1,1.2-0.2,1.7c-0.1,1.1-0.2,2.3-0.4,3.4c0,0.3,0,0.6,0,1c0,0.7,0.3,1,0.9,1.1c2.3,0.4,4.6,0.8,7,1.1
					c0.5,0.1,0.6,0.2,0.6,0.7c-0.1,2.1,1.6,3.5,3.6,3.2c1.1-0.2,1.6-1,1.7-1.9c0.2-0.8,0.5-0.8,1.2-0.7c1.9,0.4,3.9,0.7,5.8,1
					c1,0.1,1.7-0.3,1.8-1.2c0.7-4.6,1.8-9.1,2-13.7C88,73.4,88,73.3,88,73.3z"/>
				<path class="st10" d="M35.8,110.8c0.8,2.9,3,4.7,6,4.7c5.1,0.1,10.1,0.1,15.2,0.1c1,0,1.2-0.1,1.3-1.2c0.1-1.1,0.3-2.2,0.3-3.3
					c0.1-0.9,0.3-1.7-0.7-2.1c-0.4-0.2-0.9-0.2-1.4-0.3c-0.8-0.3-1.4-0.9-1.6-1.7s-0.1-1.7,0.4-2.3c0.7-0.8,1.8-1.1,2.8-1.4
					c0.5-0.1,0.8-0.1,0.9-0.7c0-0.6,0-1.1,0-1.7c0-1.1,0-2.2-0.1-3.3c0-0.3-0.1-0.6-0.1-1c-0.1-0.6-0.4-1-1.1-1
					c-1.6-0.1-3.2-0.1-4.8-0.2c-0.6,0-1.6-0.2-2.2-0.1c-0.5,0.1-0.7,0.8-1,1.2c-0.5,0.9-1.4,1.5-2.4,1.5c-1,0-2-0.6-2.4-1.5
					c-0.1-0.4-0.2-0.8-0.4-1.2c-0.3-0.5-0.6-0.4-1.1-0.4c-0.6,0-1.3-0.1-1.9-0.1c-1.3-0.1-2.6-0.1-3.9-0.2c-1,0-1.6,0.5-1.7,1.4
					c-0.2,4.6-0.7,9.2-0.2,13.9C35.7,110.4,35.8,110.7,35.8,110.8z"/>
				<path class="st11" d="M88,110.5c0,0.3-0.1,0.6-0.2,0.8c-0.8,2.7-3,4.4-5.8,4.4c-5.1,0.1-10.1,0.2-15.2,0.3c-1,0-1.2-0.1-1.3-1.1
					c-0.1-1-0.2-2-0.3-3c0-0.5-0.1-1-0.1-1.5c0-0.3-0.1-0.6-0.3-0.8c-0.3-0.2-0.6-0.3-1-0.4c-0.5-0.1-0.9-0.1-1.4-0.3
					c-0.7-0.3-1.3-1-1.4-1.8c-0.2-0.8,0.1-1.6,0.5-2.2c0.2-0.4,0.6-0.7,1-0.8c0.5-0.2,1.1,0,1.6-0.1c0.2,0,0.3-0.1,0.5-0.2
					c0.2-0.2,0.1-0.7,0.1-1c0-0.4,0-0.8,0-1.2c0-1.1,0-2.3,0-3.4c0-0.3,0-0.6,0.1-1c0.1-0.6,0.4-1,1.1-1c1.4-0.1,2.9-0.1,4.3-0.2
					c0.7,0,1.5-0.1,2.2-0.1c0.2,0,0.4-0.1,0.6-0.1c0.3,0.1,0.4,0.4,0.5,0.6c0.1,0.3,0.2,0.6,0.4,0.9c0.5,0.9,1.5,1.4,2.4,1.4
					c1-0.1,1.9-0.8,2.2-1.7c0.1-0.3,0.1-0.6,0.3-0.8c0.3-0.5,0.7-0.5,1.2-0.6c0.6-0.1,1.3-0.1,1.9-0.1c1.4-0.1,2.7-0.1,4.1-0.2
					c1,0,1.6,0.5,1.7,1.4c0.2,4.6,0.7,9.2,0.4,13.9C88,110.4,88,110.4,88,110.5z"/>
			</g>
			<g>
				<path d="M99,77.8l1.6-9.5c0-0.2,0.2-0.3,0.4-0.3h2.1c0.2,0,0.3,0.1,0.4,0.3l1.6,4.3c0.1,0.3,0.6,0.3,0.7,0l1.6-4.3
					c0.1-0.2,0.2-0.3,0.4-0.3h2.1c0.2,0,0.4,0.1,0.4,0.3l1.6,9.5c0,0.2-0.1,0.5-0.4,0.5h-1.9c-0.2,0-0.4-0.1-0.4-0.3l-0.6-4.2
					c-0.1-0.4-0.6-0.5-0.8-0.1L106,78c-0.1,0.1-0.2,0.2-0.4,0.2h-0.5c-0.2,0-0.3-0.1-0.4-0.2l-1.7-4.3c-0.1-0.4-0.7-0.3-0.8,0.1
					l-0.6,4.1c0,0.2-0.2,0.3-0.4,0.3h-1.9C99.2,78.3,99,78,99,77.8z"/>
				<path d="M113.1,73.1c0-0.8,0.1-1.5,0.4-2.1c0.3-0.7,0.7-1.2,1.2-1.7s1.1-0.9,1.8-1.2c0.7-0.3,1.5-0.4,2.3-0.4
					c0.8,0,1.6,0.1,2.3,0.4c0.7,0.3,1.3,0.7,1.8,1.2s0.9,1.1,1.2,1.7c0.3,0.7,0.4,1.4,0.4,2.1c0,0.8-0.1,1.5-0.4,2.1
					c-0.3,0.7-0.7,1.2-1.2,1.7c-0.5,0.5-1.1,0.9-1.8,1.2c-0.7,0.3-1.5,0.4-2.3,0.4c-0.8,0-1.6-0.1-2.3-0.4c-0.7-0.3-1.3-0.7-1.8-1.2
					c-0.5-0.5-0.9-1.1-1.2-1.7C113.3,74.6,113.1,73.9,113.1,73.1z M115.9,73.1c0,0.4,0.1,0.8,0.2,1.1c0.2,0.3,0.4,0.6,0.6,0.9
					c0.3,0.3,0.6,0.5,0.9,0.6c0.4,0.1,0.7,0.2,1.1,0.2s0.8-0.1,1.1-0.2s0.7-0.3,0.9-0.6c0.3-0.3,0.5-0.6,0.6-0.9
					c0.2-0.3,0.2-0.7,0.2-1.1s-0.1-0.8-0.2-1.1c-0.2-0.3-0.4-0.6-0.6-0.9c-0.3-0.3-0.6-0.5-0.9-0.6c-0.4-0.1-0.7-0.2-1.1-0.2
					s-0.8,0.1-1.1,0.2c-0.4,0.1-0.7,0.3-0.9,0.6c-0.3,0.3-0.5,0.6-0.6,0.9C116,72.3,115.9,72.7,115.9,73.1z"/>
				<path d="M126.3,77.9v-9.5c0-0.2,0.2-0.4,0.4-0.4h2.1c0.1,0,0.2,0.1,0.3,0.1l4.1,5.3c0.2,0.3,0.7,0.1,0.7-0.2v-4.8
					c0-0.2,0.2-0.4,0.4-0.4h1.9c0.2,0,0.4,0.2,0.4,0.4v9.5c0,0.2-0.2,0.4-0.4,0.4h-2.1c-0.1,0-0.2-0.1-0.3-0.1l-4.1-5.3
					c-0.2-0.3-0.7-0.1-0.7,0.2v4.8c0,0.2-0.2,0.4-0.4,0.4h-1.9C126.4,78.3,126.3,78.1,126.3,77.9z"/>
				<path d="M115.4,103.5V83.8c0-0.4,0.4-0.8,0.8-0.8h4.3c0.2,0,0.5,0.1,0.6,0.3l8.5,10.9c0.5,0.6,1.4,0.3,1.4-0.5v-9.9
					c0-0.4,0.4-0.8,0.8-0.8h3.9c0.4,0,0.8,0.4,0.8,0.8v19.7c0,0.4-0.4,0.8-0.8,0.8h-4.3c-0.2,0-0.5-0.1-0.6-0.3l-8.5-10.9
					c-0.5-0.6-1.4-0.3-1.4,0.5v9.9c0,0.4-0.4,0.8-0.8,0.8h-3.9C115.7,104.3,115.4,103.9,115.4,103.5z"/>
				<path d="M110.2,87.7h-5c-0.4,0-0.8,0.4-0.8,0.8v1.9c0,0.4,0.4,0.8,0.8,0.8h4.6c0.4,0,0.8,0.4,0.8,0.8v3.1c0,0.4-0.4,0.8-0.8,0.8
					h-4.6c-0.4,0-0.8,0.4-0.8,0.8v2.1c0,0.4,0.4,0.8,0.8,0.8h5c0.4,0,0.8,0.4,0.8,0.8v3.1c0,0.4-0.4,0.8-0.8,0.8H99.7
					c-0.4,0-0.8-0.4-0.8-0.8V83.8c0-0.4,0.4-0.8,0.8-0.8h10.5c0.4,0,0.8,0.4,0.8,0.8v3.1C111,87.4,110.6,87.7,110.2,87.7z"/>
				<path d="M152.2,89.7v13.6c0,0.5-0.4,0.8-0.9,0.8h-3.1c-0.5,0-0.9-0.4-0.9-0.8V89.7c0-0.5-0.4-0.8-0.9-0.8h-5
					c-0.5,0-0.9-0.4-0.9-0.8V84c0-0.5,0.4-0.8,0.9-0.8h16.7c0.5,0,0.9,0.4,0.9,0.8v4.1c0,0.5-0.4,0.8-0.9,0.8h-5
					C152.6,88.9,152.2,89.3,152.2,89.7z"/>
			</g>
			<g>
				<path class="st8" d="M99.3,113.6v-0.1c0-0.1,0-0.1,0.1-0.1h0.3c0.1,0,0.1,0,0.1,0.1v0.1c0,0.1,0,0.2,0.1,0.3
					c0.1,0.1,0.2,0.1,0.3,0.1h0.4c0.1,0,0.3,0,0.3-0.1c0.1-0.1,0.1-0.2,0.1-0.3v-0.1c0-0.1,0-0.2-0.1-0.3c-0.1-0.1-0.2-0.1-0.3-0.1
					c-0.1,0-0.3,0-0.4-0.1c-0.1,0-0.3-0.1-0.4-0.1c-0.1,0-0.2-0.1-0.3-0.3c-0.1-0.1-0.1-0.3-0.1-0.5v-0.2c0-0.3,0.1-0.4,0.2-0.6
					c0.1-0.1,0.3-0.2,0.6-0.2h0.5c0.3,0,0.5,0.1,0.6,0.2c0.1,0.1,0.2,0.3,0.2,0.6v0.1c0,0.1,0,0.1-0.1,0.1h-0.3
					c-0.1,0-0.1,0-0.1-0.1v-0.1c0-0.1,0-0.3-0.1-0.3c-0.1-0.1-0.2-0.1-0.3-0.1h-0.3c-0.1,0-0.3,0-0.3,0.1c-0.1,0.1-0.1,0.2-0.1,0.3
					v0.2c0,0.2,0.1,0.3,0.3,0.3c0.1,0,0.2,0,0.3,0.1c0.1,0,0.2,0,0.4,0.1c0.1,0,0.2,0.1,0.3,0.1c0.1,0.1,0.2,0.1,0.2,0.3
					c0.1,0.1,0.1,0.3,0.1,0.4v0.2c0,0.3-0.1,0.4-0.2,0.6c-0.1,0.1-0.3,0.2-0.6,0.2h-0.6c-0.3,0-0.5-0.1-0.6-0.2
					C99.4,114.1,99.3,113.9,99.3,113.6z"/>
				<path class="st8" d="M104,114.4h-1.1c-0.3,0-0.5-0.1-0.6-0.2c-0.1-0.1-0.2-0.3-0.2-0.6v-1c0-0.3,0.1-0.5,0.2-0.6
					s0.3-0.2,0.6-0.2h0.4c0.3,0,0.5,0.1,0.6,0.2c0.1,0.1,0.2,0.3,0.2,0.6v0.7c0,0.1,0,0.1-0.1,0.1h-1.4c0,0-0.1,0-0.1,0.1v0.2
					c0,0.3,0.1,0.4,0.4,0.4h1c0.1,0,0.1,0,0.1,0.1L104,114.4C104.1,114.4,104.1,114.4,104,114.4z M102.7,113h0.9c0,0,0.1,0,0.1-0.1
					v-0.3c0-0.1,0-0.2-0.1-0.3c-0.1-0.1-0.2-0.1-0.3-0.1H103c-0.1,0-0.2,0-0.3,0.1c-0.1,0.1-0.1,0.2-0.1,0.3L102.7,113
					C102.6,113,102.6,113,102.7,113z"/>
				<path class="st8" d="M104.7,111.3v-0.5c0-0.1,0-0.1,0.1-0.1h0.3c0.1,0,0.1,0,0.1,0.1v0.5c0,0.1,0,0.1-0.1,0.1L104.7,111.3
					C104.8,111.4,104.7,111.4,104.7,111.3z M104.7,114.3v-2.5c0-0.1,0-0.1,0.1-0.1h0.3c0.1,0,0.1,0,0.1,0.1v2.5c0,0,0,0.1,0,0.1
					c0,0,0,0-0.1,0L104.7,114.3C104.8,114.4,104.7,114.4,104.7,114.3z"/>
				<path class="st8" d="M106.3,114.4H106c-0.1,0-0.1,0-0.1-0.1v-2.5c0-0.1,0-0.1,0.1-0.1h0.3c0.1,0,0.1,0,0.1,0.1v0.2h0
					c0.1-0.2,0.3-0.3,0.5-0.3h0.2c0.3,0,0.4,0.1,0.6,0.2c0.1,0.1,0.2,0.3,0.2,0.6v1.7c0,0.1,0,0.1-0.1,0.1h-0.3
					c-0.1,0-0.1,0-0.1-0.1v-1.7c0-0.3-0.1-0.4-0.4-0.4h-0.2c-0.3,0-0.4,0.1-0.4,0.4L106.3,114.4
					C106.4,114.4,106.4,114.4,106.3,114.4z"/>
				<path class="st8" d="M110.5,114.4h-1.1c-0.3,0-0.5-0.1-0.6-0.2c-0.1-0.1-0.2-0.3-0.2-0.6v-1c0-0.3,0.1-0.5,0.2-0.6
					s0.3-0.2,0.6-0.2h0.4c0.3,0,0.5,0.1,0.6,0.2s0.2,0.3,0.2,0.6v0.7c0,0.1,0,0.1-0.1,0.1h-1.4c0,0-0.1,0-0.1,0.1v0.2
					c0,0.3,0.1,0.4,0.4,0.4h1c0.1,0,0.1,0,0.1,0.1L110.5,114.4C110.6,114.4,110.5,114.4,110.5,114.4z M109.1,113h0.9
					c0,0,0.1,0,0.1-0.1v-0.3c0-0.1,0-0.2-0.1-0.3c-0.1-0.1-0.2-0.1-0.3-0.1h-0.3c-0.1,0-0.2,0-0.3,0.1c-0.1,0.1-0.1,0.2-0.1,0.3
					L109.1,113C109.1,113,109.1,113,109.1,113z"/>
				<path class="st8" d="M114.3,114.4h-1.1c-0.3,0-0.5-0.1-0.6-0.2c-0.1-0.1-0.2-0.3-0.2-0.6v-1c0-0.3,0.1-0.5,0.2-0.6
					c0.1-0.1,0.3-0.2,0.6-0.2h0.4c0.3,0,0.5,0.1,0.6,0.2s0.2,0.3,0.2,0.6v0.7c0,0.1,0,0.1-0.1,0.1h-1.4c0,0-0.1,0-0.1,0.1v0.2
					c0,0.3,0.1,0.4,0.4,0.4h1c0.1,0,0.1,0,0.1,0.1L114.3,114.4C114.3,114.4,114.3,114.4,114.3,114.4z M112.9,113h0.9
					c0,0,0.1,0,0.1-0.1v-0.3c0-0.1,0-0.2-0.1-0.3c-0.1-0.1-0.2-0.1-0.3-0.1h-0.3c-0.1,0-0.2,0-0.3,0.1c-0.1,0.1-0.1,0.2-0.1,0.3
					L112.9,113C112.8,113,112.9,113,112.9,113z"/>
				<path class="st8" d="M115,112.2h-0.2c0,0-0.1,0-0.1,0c0,0,0,0,0-0.1v-0.3c0-0.1,0-0.1,0.1-0.1h0.2c0,0,0.1,0,0.1-0.1v-0.5
					c0-0.1,0-0.1,0.1-0.1h0.3c0.1,0,0.1,0,0.1,0.1v0.5c0,0,0,0.1,0.1,0.1h0.5c0.1,0,0.1,0,0.1,0.1v0.3c0,0.1,0,0.1-0.1,0.1h-0.5
					c0,0-0.1,0-0.1,0.1v1.3c0,0.3,0.1,0.4,0.4,0.4h0.2c0.1,0,0.1,0,0.1,0.1v0.3c0,0.1,0,0.1-0.1,0.1h-0.3c-0.3,0-0.5-0.1-0.6-0.2
					c-0.1-0.1-0.2-0.3-0.2-0.6L115,112.2C115.1,112.2,115.1,112.2,115,112.2z"/>
				<path class="st8" d="M119.1,114.4h-0.3c-0.1,0-0.1,0-0.1-0.1v-1.1l-1-2c0,0,0-0.1,0-0.1c0,0,0,0,0.1,0h0.4c0,0,0.1,0,0.1,0.1
					l0.6,1.4h0l0.6-1.4c0-0.1,0.1-0.1,0.1-0.1h0.4c0,0,0,0,0.1,0c0,0,0,0,0,0.1l-1,2L119.1,114.4
					C119.2,114.4,119.2,114.4,119.1,114.4z"/>
				<path class="st8" d="M120.5,111.8h0.3c0.1,0,0.1,0,0.1,0.1l0.5,2.1h0l0.5-2.1c0-0.1,0.1-0.1,0.1-0.1h0.3c0.1,0,0.1,0,0.1,0.1
					l-0.7,2.5c0,0.1-0.1,0.1-0.1,0.1h-0.5c-0.1,0-0.1,0-0.1-0.1L120.5,111.8C120.4,111.8,120.4,111.8,120.5,111.8z"/>
				<path class="st8" d="M124.8,114.4h-1.1c-0.3,0-0.5-0.1-0.6-0.2c-0.1-0.1-0.2-0.3-0.2-0.6v-1c0-0.3,0.1-0.5,0.2-0.6
					c0.1-0.1,0.3-0.2,0.6-0.2h0.4c0.3,0,0.5,0.1,0.6,0.2c0.1,0.1,0.2,0.3,0.2,0.6v0.7c0,0.1,0,0.1-0.1,0.1h-1.4c0,0-0.1,0-0.1,0.1
					v0.2c0,0.3,0.1,0.4,0.4,0.4h1c0.1,0,0.1,0,0.1,0.1L124.8,114.4C124.9,114.4,124.9,114.4,124.8,114.4z M123.4,113h0.9
					c0,0,0.1,0,0.1-0.1v-0.3c0-0.1,0-0.2-0.1-0.3c-0.1-0.1-0.2-0.1-0.3-0.1h-0.3c-0.1,0-0.2,0-0.3,0.1c-0.1,0.1-0.1,0.2-0.1,0.3
					L123.4,113C123.4,113,123.4,113,123.4,113z"/>
				<path class="st8" d="M125.9,114.4h-0.3c-0.1,0-0.1,0-0.1-0.1v-3.5c0-0.1,0-0.1,0.1-0.1h0.3c0.1,0,0.1,0,0.1,0.1L125.9,114.4
					C126,114.4,126,114.4,125.9,114.4z"/>
				<path class="st8" d="M126.7,111.3v-0.5c0-0.1,0-0.1,0.1-0.1h0.3c0.1,0,0.1,0,0.1,0.1v0.5c0,0.1,0,0.1-0.1,0.1L126.7,111.3
					C126.7,111.4,126.7,111.4,126.7,111.3z M126.7,114.3v-2.5c0-0.1,0-0.1,0.1-0.1h0.3c0.1,0,0.1,0,0.1,0.1v2.5c0,0,0,0.1,0,0.1
					c0,0,0,0-0.1,0L126.7,114.3C126.7,114.4,126.7,114.4,126.7,114.3z"/>
				<path class="st8" d="M128.3,114.4H128c-0.1,0-0.1,0-0.1-0.1v-2.5c0-0.1,0-0.1,0.1-0.1h0.3c0.1,0,0.1,0,0.1,0.1v0.2h0
					c0.1-0.2,0.3-0.3,0.5-0.3h0.2c0.3,0,0.4,0.1,0.6,0.2c0.1,0.1,0.2,0.3,0.2,0.6v1.7c0,0.1,0,0.1-0.1,0.1h-0.3
					c-0.1,0-0.1,0-0.1-0.1v-1.7c0-0.3-0.1-0.4-0.4-0.4h-0.2c-0.3,0-0.4,0.1-0.4,0.4L128.3,114.4
					C128.4,114.4,128.4,114.4,128.3,114.4z"/>
				<path class="st8" d="M132.4,114.4h-1.1c-0.3,0-0.5-0.1-0.6-0.2c-0.1-0.1-0.2-0.3-0.2-0.6v-1c0-0.3,0.1-0.5,0.2-0.6
					c0.1-0.1,0.3-0.2,0.6-0.2h0.4c0.3,0,0.5,0.1,0.6,0.2s0.2,0.3,0.2,0.6v0.7c0,0.1,0,0.1-0.1,0.1h-1.4c0,0-0.1,0-0.1,0.1v0.2
					c0,0.3,0.1,0.4,0.4,0.4h1c0.1,0,0.1,0,0.1,0.1L132.4,114.4C132.5,114.4,132.5,114.4,132.4,114.4z M131.1,113h0.9
					c0,0,0.1,0,0.1-0.1v-0.3c0-0.1,0-0.2-0.1-0.3c-0.1-0.1-0.2-0.1-0.3-0.1h-0.3c-0.1,0-0.2,0-0.3,0.1c-0.1,0.1-0.1,0.2-0.1,0.3
					L131.1,113C131,113,131,113,131.1,113z"/>
				<path class="st8" d="M134.1,114.4h-1c-0.1,0-0.1,0-0.1-0.1v-0.3c0-0.1,0-0.1,0.1-0.1h0.9c0.2,0,0.3-0.1,0.3-0.2v-0.1
					c0-0.1-0.1-0.2-0.2-0.3l-0.6-0.3c-0.2-0.1-0.3-0.2-0.4-0.3c-0.1-0.1-0.1-0.2-0.1-0.4c0-0.4,0.2-0.7,0.7-0.7h0.9
					c0.1,0,0.1,0,0.1,0.1v0.3c0,0.1,0,0.1-0.1,0.1h-0.8c-0.1,0-0.2,0-0.2,0.1c-0.1,0-0.1,0.1-0.1,0.1v0.1c0,0.1,0.1,0.2,0.3,0.3
					l0.6,0.3c0.2,0.1,0.3,0.2,0.4,0.3s0.1,0.2,0.1,0.4C134.8,114.2,134.6,114.4,134.1,114.4z"/>
			</g>
			<g>
				<path class="st9" d="M137.4,114.4h-0.3c-0.1,0-0.1,0-0.1-0.1v-3.2c0-0.1,0-0.1,0.1-0.1h0.3c0.1,0,0.1,0,0.1,0.1l1.3,2.3h0v-2.2
					c0-0.1,0-0.1,0.1-0.1h0.3c0.1,0,0.1,0,0.1,0.1v3.2c0,0.1,0,0.1-0.1,0.1h-0.3c-0.1,0-0.1,0-0.1-0.1l-1.2-2.2h0L137.4,114.4
					C137.5,114.4,137.4,114.4,137.4,114.4z"/>
				<path class="st9" d="M140.9,114.4h-0.2c-0.2,0-0.4-0.1-0.6-0.2c-0.1-0.1-0.2-0.3-0.2-0.6v-1.7c0-0.1,0-0.1,0.1-0.1h0.3
					c0.1,0,0.1,0,0.1,0.1v1.7c0,0.3,0.1,0.4,0.4,0.4h0.2c0.3,0,0.4-0.1,0.4-0.4v-1.7c0-0.1,0-0.1,0.1-0.1h0.3c0.1,0,0.1,0,0.1,0.1
					v2.5c0,0.1,0,0.1-0.1,0.1h-0.3c-0.1,0-0.1,0-0.1-0.1v-0.2h0C141.4,114.3,141.2,114.4,140.9,114.4z"/>
				<path class="st9" d="M143,114.4h-0.3c-0.1,0-0.1,0-0.1-0.1v-2.5c0-0.1,0-0.1,0.1-0.1h0.3c0.1,0,0.1,0,0.1,0.1v0.2h0
					c0.1-0.2,0.3-0.3,0.5-0.3h0.2c0.3,0,0.5,0.1,0.6,0.3c0.1-0.1,0.1-0.2,0.3-0.3c0.1-0.1,0.2-0.1,0.4-0.1h0.2
					c0.3,0,0.4,0.1,0.6,0.2c0.1,0.1,0.2,0.3,0.2,0.6v1.7c0,0.1,0,0.1-0.1,0.1h-0.3c-0.1,0-0.1,0-0.1-0.1v-1.7c0-0.3-0.1-0.4-0.4-0.4
					H145c-0.3,0-0.4,0.2-0.4,0.5v1.7c0,0.1,0,0.1-0.1,0.1h-0.3c-0.1,0-0.1,0-0.1-0.1v-1.7c0-0.3-0.1-0.4-0.4-0.4h-0.2
					c-0.3,0-0.4,0.1-0.4,0.4L143,114.4C143.1,114.4,143.1,114.4,143,114.4z"/>
				<path class="st9" d="M148.6,114.4h-1.1c-0.3,0-0.5-0.1-0.6-0.2c-0.1-0.1-0.2-0.3-0.2-0.6v-1c0-0.3,0.1-0.5,0.2-0.6
					c0.1-0.1,0.3-0.2,0.6-0.2h0.4c0.3,0,0.5,0.1,0.6,0.2c0.1,0.1,0.2,0.3,0.2,0.6v0.7c0,0.1,0,0.1-0.1,0.1h-1.4c0,0-0.1,0-0.1,0.1
					v0.2c0,0.3,0.1,0.4,0.4,0.4h1c0.1,0,0.1,0,0.1,0.1L148.6,114.4C148.7,114.4,148.6,114.4,148.6,114.4z M147.2,113h0.9
					c0,0,0.1,0,0.1-0.1v-0.3c0-0.1,0-0.2-0.1-0.3c-0.1-0.1-0.2-0.1-0.3-0.1h-0.3c-0.1,0-0.2,0-0.3,0.1c-0.1,0.1-0.1,0.2-0.1,0.3
					L147.2,113C147.1,113,147.2,113,147.2,113z M147.9,110.8h0.4c0,0,0.1,0,0.1,0c0,0,0,0,0,0.1l-0.4,0.5c0,0-0.1,0.1-0.1,0.1h-0.2
					c-0.1,0-0.1,0,0-0.1l0.3-0.5C147.8,110.8,147.8,110.8,147.9,110.8z"/>
				<path class="st9" d="M149.7,114.4h-0.3c-0.1,0-0.1,0-0.1-0.1v-2.5c0-0.1,0-0.1,0.1-0.1h0.3c0.1,0,0.1,0,0.1,0.1v0.2h0
					c0-0.1,0.1-0.2,0.2-0.2c0.1-0.1,0.2-0.1,0.3-0.1h0.2c0.1,0,0.1,0,0.1,0.1v0.3c0,0.1,0,0.1-0.1,0.1h-0.3c-0.3,0-0.4,0.2-0.4,0.5
					L149.7,114.4C149.7,114.4,149.7,114.4,149.7,114.4z"/>
				<path class="st9" d="M151,111.3v-0.5c0-0.1,0-0.1,0.1-0.1h0.3c0.1,0,0.1,0,0.1,0.1v0.5c0,0.1,0,0.1-0.1,0.1L151,111.3
					C151,111.4,151,111.4,151,111.3z M151,114.3v-2.5c0-0.1,0-0.1,0.1-0.1h0.3c0.1,0,0.1,0,0.1,0.1v2.5c0,0,0,0.1,0,0.1
					c0,0,0,0-0.1,0L151,114.3C151,114.4,151,114.4,151,114.3z"/>
				<path class="st9" d="M153.1,114.4h-0.2c-0.3,0-0.5-0.1-0.6-0.2c-0.1-0.1-0.2-0.3-0.2-0.6v-1c0-0.3,0.1-0.5,0.2-0.6
					c0.1-0.1,0.3-0.2,0.6-0.2h1.2c0.1,0,0.1,0,0.1,0.1v3.2c0,0.1,0,0.1-0.1,0.1h-0.3c-0.1,0-0.1,0-0.1-0.1v-0.9h0
					C153.6,114.3,153.4,114.4,153.1,114.4z M153.7,113.5v-1.3c0,0,0-0.1-0.1-0.1H153c-0.2,0-0.4,0.1-0.4,0.4v1
					c0,0.3,0.1,0.4,0.4,0.4h0.2C153.5,114,153.7,113.8,153.7,113.5z"/>
				<path class="st9" d="M155.8,114.4h-0.2c-0.2,0-0.4-0.1-0.6-0.2c-0.1-0.1-0.2-0.3-0.2-0.6v-1.7c0-0.1,0-0.1,0.1-0.1h0.3
					c0.1,0,0.1,0,0.1,0.1v1.7c0,0.3,0.1,0.4,0.4,0.4h0.2c0.3,0,0.4-0.1,0.4-0.4v-1.7c0-0.1,0-0.1,0.1-0.1h0.3c0.1,0,0.1,0,0.1,0.1
					v2.5c0,0.1,0,0.1-0.1,0.1h-0.3c-0.1,0-0.1,0-0.1-0.1v-0.2h0C156.3,114.3,156.1,114.4,155.8,114.4z"/>
				<path class="st9" d="M159.4,114.4h-1.1c-0.3,0-0.5-0.1-0.6-0.2c-0.1-0.1-0.2-0.3-0.2-0.6v-1c0-0.3,0.1-0.5,0.2-0.6
					c0.1-0.1,0.3-0.2,0.6-0.2h0.4c0.3,0,0.5,0.1,0.6,0.2c0.1,0.1,0.2,0.3,0.2,0.6v0.7c0,0.1,0,0.1-0.1,0.1H158c0,0-0.1,0-0.1,0.1
					v0.2c0,0.3,0.1,0.4,0.4,0.4h1c0.1,0,0.1,0,0.1,0.1L159.4,114.4C159.5,114.4,159.4,114.4,159.4,114.4z M158,113h0.9
					c0,0,0.1,0,0.1-0.1v-0.3c0-0.1,0-0.2-0.1-0.3c-0.1-0.1-0.2-0.1-0.3-0.1h-0.3c-0.1,0-0.2,0-0.3,0.1s-0.1,0.2-0.1,0.3L158,113
					C158,113,158,113,158,113z"/>
			</g>
		</g>
	</g>
</g>
</svg>
