<?xml version="1.0" encoding="UTF-8"?>
<svg id="a" data-name="logo" xmlns="http://www.w3.org/2000/svg" width="132.89" height="65.7" viewBox="0 0 132.89 65.7">
  <g id="b" data-name="Social">
    <g id="c" data-name="couleur 01">
      <g id="d" data-name="Couleurs 01">
        <path d="M40.45,29.6l-5.36-6.11-2.36,2.58-1.16,.18h-1.01l-1.08,1.95-3.13,2.18-.17,.58h6.76l2.36,1.74v3.81l.84,.8s1.2-.11,1.76,1.1c.49,1.06,.49,1.31,.49,1.31l1.38,.07,.68-10.19Z" style="fill: #84a796;"/>
        <path d="M26.98,47.06l13.03-.95c0-.06-.01-.11-.02-.17,.8-1.72,.86-4.98,.86-4.98l-2.93-.21s-.05-1.22-.76-2.02-1.81-.51-1.81-.51c0,0-.07,2-.07,2.61-.4-.28-.89-.44-1.42-.44-.68,0-1.29,.27-1.74,.71-.21-.08-.45-.13-.69-.13-.7,0-1.31,.37-1.65,.93-.02,0-.04-.01-.06-.02h0c0-1.08-.87-1.94-1.93-1.94-.05,0-.11,0-.16,0h-.05c-.19,.02-.37,.07-.53,.14l-1.58,.4,1.51,6.58Z" style="fill: #535626;"/>
        <path d="M27.03,48.02l12.58-.69s-.15,2.5-2.88,5.75c-2.73,3.25-7.6,4.57-7.6,4.57l-2.09-9.63Z" style="fill: #e5e5e5;"/>
        <path d="M24.47,46.06l-1.32,.66-1.36-.66-1.54,.66-1.47-.77-1.43,.77-1.45-.66-1.13,.77-1.32-.87-1.39,.77-1.05-.44-.59-.32-.69,.66-2.39,.21s1.2,4.91,4.96,7.59c3.76,2.69,8.01,2.58,8.67,3.2s1.5,1.71,1.71,1.86c1.4-1.24,.64-1.71,1.82-2.18,1.17-.47,2.8-.15,2.8-.15l-2.8-11.09Z" style="fill: #0a636c;"/>
        <path d="M22.21,26.14c0-1.13,.92-2.05,2.05-2.05s2.05,.92,2.05,2.05h-4.1Z" style="fill: #a8573b;"/>
        <path d="M10.52,34.15c0-1.44,1.17-2.61,2.61-2.61s2.61,1.17,2.61,2.61h-5.22Z" style="fill: #a8573b;"/>
        <polygon points="23.91 30.85 19.92 30.85 17.52 32 21.22 32.41 23.91 30.85" style="fill: #a8573b;"/>
        <path d="M24.7,35.65l-5.62-.18-2.73,1.12s6.98,.17,7.05,.1,1.3-1.04,1.3-1.04Z" style="fill: #a8573b;"/>
        <polygon points="25.9 31.65 25.9 33.45 30.64 33.58 32.85 32.08 32.42 31.83 25.9 31.65" style="fill: #a8573b;"/>
        <polygon points="26.63 36.2 26.63 37.7 32.17 37.81 33.61 36.2 26.63 36.2" style="fill: #a8573b;"/>
        <polygon points="24.04 39.48 25.46 45.54 24.17 46.2 22.83 45.76 21.44 46.2 19.59 45.76 18.04 46.2 17.02 45.76 15.2 46.31 13.98 45.54 12.97 46.2 11.26 45.76 9.46 46.31 8.85 45.95 8.57 44.92 9.34 38.73 9.12 34.91 14.88 35.04 15.4 38.8 16.7 38.73 24.04 39.48" style="fill: #c6a068;"/>
        <polygon points="17.01 35.44 17.01 32.41 21.22 32.41 21.22 35.23 17.01 35.96 17.01 35.44" style="fill: #c6a068;"/>
        <polygon points="15.4 36.7 22.21 36.87 22.21 39.29 16.1 38.73 15.2 38.73 14.9 37.01 15.4 36.7" style="fill: #c6a068;"/>
        <polygon points="25.9 33.45 30.64 33.58 30.64 36.36 26.72 36.36 26.63 35.44 25.66 35.47 25.9 33.45" style="fill: #c6a068;"/>
        <polygon points="26.63 37.7 26.63 39.8 28.15 41 28.69 41 30.12 40.95 31.06 41 31.8 40.67 32.17 40.42 32 38.01 26.63 37.7" style="fill: #c6a068;"/>
      </g>
    </g>
    <g>
      <path d="M21.77,20.3c.18,0,.35-.02,.53-.03,.28,1.08,.93,1.85,.97,1.89l.41,.47,.41-.47s.68-.8,.96-1.87c.1,.01,.21,.02,.37,.02,1.89,0,3.67-.74,5.01-2.08,1.1-1.1,2.56-1.7,4.11-1.7s3.01,.61,4.11,1.7l.9-.9c-1.34-1.34-3.12-2.08-5.01-2.08s-3.67,.74-5.01,2.08c-1.1,1.1-2.56,1.7-4.11,1.7-.11,0-.17,0-.24,0-.06-1.36-.54-2.73-1.5-2.73s-1.44,1.35-1.5,2.71c-1.62,.12-3.13-.45-4.35-1.68-1.34-1.34-3.12-2.08-5.01-2.08s-3.67,.74-5.01,2.08l.9,.9c1.1-1.1,2.56-1.7,4.11-1.7s3.01,.61,4.11,1.7c1.35,1.35,3.05,2.07,4.85,2.07Zm1.91-2.87c.16,.2,.42,.85,.42,1.89,0,.58-.21,1.11-.42,1.5-.21-.39-.42-.92-.42-1.5,0-1.04,.26-1.69,.42-1.89Z" style="fill: #010203;"/>
      <path d="M39.59,20.56h-7.79v1.09h6.7v5.59l-1.89-2.06-1.47-1.93-2.08,1.88-1.13,1.37-1.77-.14-1.24,2.24-2.59,1.86h-.06v-3.97h-.48c-.03-.72-.43-1.35-1.01-1.71-.34-.21-.75-.57-.75-.97l-.14-.51c-.02-.09-.11-.15-.2-.15h-.05c-.09,0-.18,.06-.2,.15l-.14,.51c0,.4-.4,.76-.75,.97-.58,.36-.97,.99-1.01,1.71h-.43v3.97h-.54l-4.18,1.49,.03,.07v.91l-1.67,.57c-.61-.94-1.67-1.56-2.87-1.56-1.89,0-3.43,1.54-3.43,3.43v3.94l-.76,6.38v.07h.03v.08l.02,.08c.07,.23,.15,.46,.23,.69h-.02s.03,.06,.05,.09c1.05,2.99,2.97,5.67,5.51,7.6,2.23,1.7,4.81,2.77,7.55,3.15,.74,.1,1.41,.49,1.87,1.08l.73,.94,.82-1.05c.43-.56,1.06-.94,1.75-1.06,3.89-.69,7.4-2.78,9.91-5.97,.53-.67,1-1.38,1.4-2.1,.38-.67,.71-1.38,.99-2.1,.26-.67,.47-1.37,.64-2.06,.29-1.23,.44-2.5,.44-3.78h-.04V20.56Zm-1.4,23.86l-1.98,.16c.37-.47,.93-.76,1.56-.76,.19,0,.37,.03,.55,.08-.03,.2-.08,.4-.12,.6v-.09Zm-5.37,5.1l.39,2.01-5.4,.45-.47-2,5.47-.45Zm-22.54-.5c-.27-.46-.51-.93-.73-1.41,.05,0,.1,0,.15,0,.57,0,1.09-.24,1.46-.63,.37,.39,.88,.63,1.46,.63s1.09-.24,1.46-.63c.37,.39,.88,.63,1.46,.63s1.09-.24,1.46-.63c.37,.39,.88,.63,1.46,.63s1.09-.24,1.46-.63c.37,.39,.88,.63,1.46,.63s1.09-.24,1.46-.63c.37,.39,.88,.63,1.46,.63,.5,0,.94-.19,1.29-.49l.26,1.09h0c0,.49-.4,.88-.88,.88s-.88-.4-.88-.88h-1.09c0,.49-.4,.88-.88,.88s-.88-.4-.88-.88h-1.09c0,.49-.4,.88-.88,.88s-.88-.4-.88-.88h-1.09c0,.49-.4,.88-.88,.88s-.88-.4-.88-.88h-1.09c0,.49-.4,.88-.88,.88s-.88-.4-.88-.88h-1.09c0,.49-.4,.88-.88,.88-.13,0-.26-.04-.37-.09Zm-.73-13.2h4.68v.95h0v2.33h0v.55h2.25l7.55,.96,.23,1.01h0l.94,4.02h-.03c0,.5-.41,.91-.91,.91s-.91-.41-.91-.91h-1.09c0,.5-.41,.91-.91,.91s-.91-.41-.91-.91h-1.09c0,.5-.41,.91-.91,.91s-.91-.41-.91-.91h-1.09c0,.5-.41,.91-.91,.91s-.91-.41-.91-.91h-1.09c0,.5-.41,.91-.91,.91s-.91-.41-.91-.91h-1.09c0,.5-.41,.91-.91,.91-.28,0-.54-.13-.71-.35-.06-.18-.13-.36-.18-.55l.74-6.22v-3.6Zm7.98-2.66h3.25v2.11h-1.18l-2.07,.58v-2.69Zm18.99,5.94c.79,.1,1.41,.77,1.41,1.6,0,.03-.01,.06-.01,.09-.41-.21-.86-.33-1.34-.33-.02,0-.04,0-.06,0v-1.36Zm-1.68,3.64c.27-.7,.95-1.2,1.74-1.2s1.51,.51,1.76,1.25c-.19-.04-.38-.06-.57-.06-.76,0-1.46,.28-2.01,.75-.22-.33-.55-.59-.92-.74Zm-8.35,2.65c.25-.78,.98-1.34,1.84-1.34,.4,0,.77,.12,1.09,.34-.18,.23-.33,.5-.42,.8l-2.51,.21Zm-1.57-5.78l-1.88-.24v-1.66l3.43-1.1v3.3c-.5,.03-.97,.2-1.37,.48l-.09-.4h0l-.09-.38Zm-1.25-3.25l-1.3,.42-3.87-.07,1.24-.34h3.93Zm2.85-2.11l4.33,.08v1.89h-3.29v-.94h-1.04v-1.02Zm7.19,8.38c-.08,.02-.16,.04-.24,.07-.18-.38-.43-.71-.74-.99,.16-.08,.35-.12,.53-.12,.29,0,.56,.1,.78,.27-.15,.24-.26,.49-.33,.77Zm-7.75,1.46l-.58-2.47c.31-.39,.76-.63,1.27-.63,.9,0,1.64,.73,1.64,1.64,0,.11-.02,.23-.04,.34-.92,.02-1.75,.45-2.29,1.13Zm1.6-4.03v-1.2h4.8v1.83c-.23,.1-.45,.23-.64,.4-.37-.14-.76-.22-1.17-.22-.54,0-1.07,.14-1.54,.4-.32-.55-.83-.98-1.45-1.2Zm5.12-2.29h-5.12v-.46h5.58l-.46,.46Zm-17.36-.03l6.63,.12v1.37l-5.37-.68h-1.26v-.81Zm14.96,5.94c-.28-.24-.61-.43-.95-.55,.03-.17,.05-.34,.05-.51,0-.11,0-.21-.02-.31,.35-.23,.76-.36,1.19-.36,.9,0,1.68,.55,2.01,1.35-.08,.09-.15,.19-.21,.29-.37-.14-.76-.21-1.18-.17-.32,.03-.62,.12-.89,.26Zm4.5-2.62c-.38-.32-.84-.5-1.33-.54v-1.98l.99-.99,.99,.99v2.15c-.23,.1-.44,.23-.64,.38Zm-.21-4.85h-2.63v-2.16l1.44-1.15,1.19,.86v2.45Zm-3.36-2.97l-4.69-.08v-.49h5.41l-.72,.58Zm-5.78,2.03h-3.57v-2.27l3.57-1.23v3.5Zm2.62,17.78l1.79-.15,.39,1.97c-.51,.26-1.04,.49-1.59,.7l-.59-2.52Zm2.88-.24l2.59-.21c-.71,.65-1.49,1.22-2.3,1.72l-.29-1.5Zm-3.85-3.91l-.57-2.42,1.82-.15,.48,2.43-1.73,.14Zm4.19-4.4c.43-.04,.84,.11,1.14,.39l-2.16,.18c.24-.31,.6-.53,1.02-.57Zm2.4,.28c-.11-.22-.26-.41-.43-.59,.15-.31,.46-.52,.83-.52,.47,0,.85,.35,.91,.79-.03,.07-.07,.14-.09,.21l-1.22,.1Zm-3.94-15.45l1.02-1.84,1.65,.13,1.41-1.72,1.17-1.05,.77,1.01,2.74,2.99v10.24c-.47-.64-1.22-1.07-2.06-1.1l-.76-.76v-4.03l-2.32-1.67-.06,.04h-6.65l3.1-2.23Zm-5.27,1.12v-2.88h.7v2.88h-.7Zm-.94-4.9c.6-.08,1.1,.36,1.16,.93h-2.04c.06-.47,.41-.87,.89-.93Zm-1.32,2.02h1.17v2.88h-1.17v-2.88Zm-1.44,3.97h1.94l-1.49,.51h-1.88l1.43-.51Zm-4.34,2.54v2.06l-1.11,.31v-1.08c0-.3-.04-.59-.12-.87l1.23-.42Zm-4.54-1.06c1.06,0,1.95,.72,2.24,1.69h-4.48c.28-.97,1.17-1.69,2.24-1.69Zm-.86,17.13c.41-.08,.77-.28,1.05-.57,.36,.38,.87,.61,1.43,.61s1.07-.24,1.43-.61c.36,.38,.87,.61,1.43,.61s1.07-.24,1.43-.61c.36,.38,.87,.61,1.43,.61s1.07-.24,1.43-.61c.36,.38,.87,.61,1.43,.61s1.07-.24,1.43-.61c.36,.38,.87,.61,1.43,.61,.47,0,.9-.17,1.24-.45l.28,1.18h0c0,.47-.38,.84-.84,.84s-.84-.38-.84-.84h-1.09c0,.47-.38,.84-.84,.84s-.84-.38-.84-.84h-1.09c0,.47-.38,.84-.84,.84s-.84-.38-.84-.84h-1.09c0,.47-.38,.84-.84,.84s-.84-.38-.84-.84h-1.09c0,.47-.38,.84-.84,.84s-.84-.38-.84-.84h-1.09c0,.28-.14,.52-.35,.68-.42-.46-.81-.94-1.17-1.45Zm1.95,2.23s.08-.07,.12-.11c.35,.36,.84,.59,1.39,.59s1.04-.23,1.39-.59c.35,.36,.84,.59,1.39,.59s1.04-.23,1.39-.59c.35,.36,.84,.59,1.39,.59s1.04-.23,1.39-.59c.35,.36,.85,.59,1.39,.59s1.04-.23,1.39-.59c.35,.36,.85,.59,1.39,.59,.45,0,.87-.16,1.2-.43l.28,1.21h0c0,.47-.38,.84-.84,.84s-.84-.38-.84-.84h-1.09c0,.47-.38,.84-.84,.84s-.84-.38-.84-.84h-1.09c0,.47-.38,.84-.84,.84s-.84-.38-.84-.84h-1.09c0,.47-.38,.84-.84,.84s-.84-.38-.84-.84h-1.09c0,.29-.16,.55-.4,.71-.47-.28-.93-.58-1.38-.92-.42-.32-.82-.67-1.21-1.04Zm10.38,4.13c-1.83,0-3.61-.33-5.28-.95,.47-.04,.9-.25,1.21-.57,.35,.36,.85,.59,1.39,.59s1.04-.23,1.39-.59c.35,.36,.84,.59,1.39,.59s1.04-.23,1.39-.59c.35,.36,.85,.59,1.39,.59,.46,0,.87-.17,1.2-.43l.18,.76c-1.36,.4-2.79,.6-4.26,.6Zm11.94-5.81c-.19,.24-.38,.47-.58,.7l-.41,.03-.39-2.01,2.4-.2c-.31,.5-.64,1-1.01,1.48Zm2.22-3.91c-.17,.44-.37,.87-.58,1.29l-7.02,.58-.48-2.43,8.49-.7c-.12,.43-.26,.85-.42,1.27Z" style="fill: #010203;"/>
      <polygon points="15.56 20.56 7.71 20.56 7.71 28.26 8.8 28.26 8.8 21.65 15.56 21.65 15.56 20.56" style="fill: #010203;"/>
      <rect x="11.36" y="37.12" width="1.09" height="1.67" style="fill: #010203;"/>
      <path d="M10.45,22.48c-.2-.2-.86-.13-.86-.13,0,0-.07,.66,.13,.86s.53,.2,.73,0c.2-.2,.2-.53,0-.73Z" style="fill: #010203;"/>
      <path d="M12,22.48c-.2-.2-.86-.13-.86-.13,0,0-.07,.66,.13,.86,.2,.2,.53,.2,.73,0,.2-.2,.2-.53,0-.73Z" style="fill: #010203;"/>
      <path d="M12.68,22.36s-.07,.66,.13,.86c.2,.2,.53,.2,.73,0,.2-.2,.2-.53,0-.73s-.86-.13-.86-.13Z" style="fill: #010203;"/>
      <path d="M10.45,24.03c-.2-.2-.86-.13-.86-.13,0,0-.07,.66,.13,.86,.2,.2,.53,.2,.73,0s.2-.53,0-.73Z" style="fill: #010203;"/>
      <path d="M11.14,23.9s-.07,.66,.13,.86,.53,.2,.73,0,.2-.53,0-.73-.86-.13-.86-.13Z" style="fill: #010203;"/>
      <path d="M9.59,25.45s-.07,.66,.13,.86c.2,.2,.53,.2,.73,0s.2-.53,0-.73-.86-.13-.86-.13Z" style="fill: #010203;"/>
      <path d="M7.97,11.89l-.23,.04s-.04,.02-.04,.11,.01,.11,.04,.11c.12,0,.53-.04,.96-.04s.94,.04,1.06,.04c.03,0,.04-.02,.04-.11s-.01-.11-.04-.11l-.33-.04c-.05,0-.06-.02-.06-.07v-1.26c.2,.13,.54,.23,.83,.23,.84,0,1.39-.52,1.39-1.24s-.57-1.18-1.57-1.18c-.35,0-.47,.02-.81,.02h-.38c-.38,0-.94-.04-1.09-.04-.03,0-.04,.02-.04,.11s.01,.11,.04,.11l.23,.04c.05,.01,.06,.02,.06,.07v3.13c0,.05-.01,.06-.06,.07Zm1.4-3.23c0-.05,.01-.06,.06-.06h.03c.37,0,.69,.29,.69,.83,0,.64-.29,.92-.59,.92-.09,0-.14-.01-.19-.02v-1.66Z" style="fill: #010203;"/>
      <path d="M13.23,12.2c.96,0,1.62-.51,1.62-1.39s-.62-1.34-1.52-1.34c-.96,0-1.62,.51-1.62,1.39s.62,1.34,1.52,1.34Zm-.2-2.54c.05,0,.1,.02,.16,.08,.22,.22,.54,1.39,.54,1.93,0,.27-.09,.34-.19,.34-.05,0-.1-.02-.16-.08-.22-.22-.54-1.39-.54-1.93,0-.27,.09-.34,.19-.34Z" style="fill: #010203;"/>
      <path d="M15.27,11.89l-.18,.04s-.04,.02-.04,.11,.01,.11,.04,.11c.12,0,.46-.04,.84-.04,.53,0,.87,.04,.99,.04,.03,0,.04-.02,.04-.11s-.01-.11-.04-.11l-.33-.04c-.05,0-.06-.02-.06-.07v-1.33s.04-.02,.07-.02c.07,0,.17,.05,.29,.13,.11,.08,.19,.11,.28,.11,.24,0,.53-.24,.53-.73,0-.07-.01-.14-.03-.21h.02l.19,.03c.06,.01,.06,.02,.06,.07v1.42c0,.56,.28,.9,.83,.9,.48,0,.84-.33,.97-.65,.02-.05-.07-.13-.12-.13-.03,0-.06,.03-.13,.03-.22,0-.35-.12-.35-.6v-1.02c.18,0,.4,0,.58,0,.05,0,.07-.02,.07-.16s-.02-.17-.07-.17h-.58c0-.22-.02-.45-.04-.6,0-.04-.02-.04-.1-.04s-.09,.01-.12,.04c-.34,.35-.63,.53-1.17,.66-.03,0-.04,.03-.04,.11,0,.03,0,.04,0,.06-.06-.16-.19-.27-.4-.27-.32,0-.6,.38-.76,.88,0-.34,.02-.75,.02-.84,0-.04-.1-.08-.13-.08-.02,0-.03,0-.04,.02-.41,.29-.82,.55-1.24,.71-.03,.01-.04,.02-.04,.1,0,.08,.01,.09,.04,.1l.18,.03c.05,.01,.06,.02,.06,.07v1.36c0,.05-.01,.06-.06,.07Z" style="fill: #010203;"/>
      <path d="M20.19,8.61c0,.34,.25,.59,.59,.59s.59-.26,.59-.59-.25-.59-.59-.59-.59,.26-.59,.59Z" style="fill: #010203;"/>
      <path d="M20.06,11.89l-.18,.04s-.04,.02-.04,.11,.01,.11,.04,.11c.11,0,.46-.04,.84-.04s.71,.04,.83,.04c.03,0,.04-.02,.04-.11s-.01-.11-.04-.11l-.18-.04c-.05-.01-.06-.02-.06-.07v-1.23c0-.64,.04-.99,.04-1.07,0-.04-.1-.08-.13-.08-.02,0-.03,0-.04,.02-.41,.28-.87,.55-1.3,.71-.03,.01-.04,.02-.04,.1,0,.08,.01,.09,.04,.1l.18,.03c.05,.01,.06,.02,.06,.07v1.36c0,.05-.01,.06-.06,.07Z" style="fill: #010203;"/>
      <path d="M21.59,9.71l.16,.03c.05,.01,.05,.02,.08,.07l.71,1.34c.09,.18,.37,.72,.47,.94,.03,.06,.05,.08,.17,.08s.13-.02,.17-.08c.1-.22,.42-.77,.52-.94l.43-.7c.32-.53,.36-.58,.45-.64l.21-.11s.04-.02,.04-.11-.01-.11-.04-.11c-.12,0-.38,.04-.65,.04s-.6-.04-.72-.04c-.03,0-.04,.02-.04,.11s.01,.1,.04,.11l.3,.1c.15,.05,.16,.1-.04,.65l-.16,.44-.57-1.09c-.03-.05-.02-.07,.04-.07l.3-.03s.04-.02,.04-.11-.01-.11-.04-.11c-.12,0-.75,.04-1.03,.04-.38,0-.71-.04-.83-.04-.03,0-.04,.02-.04,.11s.01,.11,.04,.11Z" style="fill: #010203;"/>
      <path d="M26.2,12.2c.56,0,1.14-.35,1.35-.88,.02-.05-.11-.15-.15-.11-.14,.12-.29,.21-.5,.21-.19,0-.33-.05-.52-.25-.14-.14-.28-.39-.36-.65,.49,.02,1.08,0,1.49-.02,.03,0,.05-.02,.06-.04,.01-.04,.01-.09,.01-.13,0-.5-.42-.87-1.19-.87-.92,0-1.55,.55-1.55,1.39s.59,1.34,1.36,1.34Zm.07-2.57c.14,0,.23,.1,.23,.3,0,.26-.11,.43-.35,.46l-.17,.02c-.02-.11-.04-.22-.04-.33,0-.31,.16-.45,.32-.45Z" style="fill: #010203;"/>
      <path d="M29.15,12.2c.64,0,1.13-.37,1.29-.75,.02-.05-.11-.14-.16-.11-.13,.11-.24,.17-.39,.17-.17,0-.27-.05-.42-.2-.31-.31-.54-.91-.54-1.36,0-.2,.08-.27,.19-.27s.19,.06,.38,.42c.15,.28,.32,.43,.55,.43s.39-.16,.39-.36c0-.34-.37-.69-1.02-.69-.91,0-1.59,.56-1.59,1.39s.56,1.34,1.33,1.34Z" style="fill: #010203;"/>
      <path d="M30.85,11.89l-.18,.04s-.04,.02-.04,.11,.01,.11,.04,.11c.12,0,.46-.04,.84-.04s.68,.04,.8,.04c.03,0,.04-.02,.04-.11s-.01-.1-.04-.11l-.14-.04c-.05-.02-.06-.02-.06-.07v-1.65s.08-.02,.11-.02c.35,0,.46,.17,.46,.65v1.02c0,.05-.01,.06-.06,.07l-.14,.04s-.04,.02-.04,.11,.01,.11,.04,.11c.12,0,.42-.04,.8-.04s.71,.04,.83,.04c.03,0,.04-.02,.04-.11s-.01-.11-.04-.11l-.18-.04c-.05-.01-.06-.02-.06-.07v-1.47c0-.56-.34-.88-.88-.88-.42,0-.73,.26-.89,.54v-.72c0-.64,.04-.99,.04-1.07,0-.04-.1-.08-.13-.08-.02,0-.03,0-.04,.02-.41,.28-.87,.55-1.3,.71-.03,.01-.04,.02-.04,.1,0,.08,.01,.09,.04,.1l.18,.03c.05,.01,.06,.02,.06,.07v2.66c0,.05-.01,.06-.06,.07Z" style="fill: #010203;"/>
      <path d="M34.29,13.29c.86,0,1.45-.58,1.45-1.34,0-.33-.03-.73-.03-1.11v-.25c0-.64,.04-.99,.04-1.07,0-.04-.1-.08-.13-.08-.02,0-.03,0-.04,.02-.41,.27-.87,.55-1.3,.71-.03,.01-.04,.02-.04,.1,0,.08,.01,.09,.04,.1l.18,.03c.05,.01,.06,.02,.06,.07v1.56c0,.63-.07,.81-.31,1.07-.02,.02-.02,.03-.02,.05,0,.04,.07,.14,.1,.14Z" style="fill: #010203;"/>
      <path d="M35.19,9.2c.35,0,.59-.26,.59-.59s-.25-.59-.59-.59-.59,.26-.59,.59,.25,.59,.59,.59Z" style="fill: #010203;"/>
      <path d="M36.16,9.72l.18,.04c.05,.01,.06,.02,.06,.07v1.45c0,.56,.34,.9,.88,.9,.46,0,.79-.33,.93-.64,.01,.14,.06,.39,.1,.56,.02,.05,.14,.08,.18,.07,.39-.11,.8-.21,1.11-.27,.03,0,.04-.02,.04-.1s-.01-.1-.04-.11l-.18-.04c-.05-.01-.06-.02-.06-.07v-1.02c0-.64,.04-.93,.04-1.02,0-.04-.04-.08-.08-.08s-.94,.01-1.39,.02c-.03,0-.05,.03-.05,.12s.01,.1,.04,.11l.18,.04c.05,.01,.06,.02,.06,.07v1.64s-.08,.02-.11,.02c-.35,0-.46-.17-.46-.65v-.27c0-.64,.04-.93,.04-1.02,0-.04-.04-.08-.08-.08s-.94,.01-1.39,.02c-.03,0-.05,.03-.05,.12s.01,.1,.04,.11Z" style="fill: #010203;"/>
      <g>
        <path d="M19.98,7.06c-.17,0-.32-.03-.47-.1s-.27-.16-.39-.27c-.11-.12-.2-.25-.26-.41s-.09-.32-.09-.5,.03-.34,.09-.5,.15-.29,.26-.41c.11-.12,.24-.21,.39-.27s.3-.1,.47-.1c.2,0,.38,.05,.55,.14s.31,.22,.42,.37l-.22,.12c-.09-.12-.2-.21-.33-.28-.13-.07-.27-.1-.42-.1-.13,0-.26,.03-.38,.08-.12,.05-.22,.13-.31,.22-.09,.09-.16,.2-.21,.33-.05,.12-.07,.26-.07,.4s.02,.27,.07,.4,.12,.23,.21,.33c.09,.09,.19,.17,.31,.22,.12,.05,.24,.08,.37,.08,.15,0,.29-.03,.42-.1,.13-.07,.24-.16,.32-.27l.22,.12c-.11,.15-.25,.28-.42,.37-.17,.09-.35,.14-.55,.14Z" style="fill: #010203;"/>
        <path d="M21.43,4.92s-.07-.01-.1-.04c-.03-.03-.04-.06-.04-.1s.01-.07,.04-.1c.03-.03,.06-.04,.1-.04s.07,.01,.1,.04,.04,.06,.04,.1-.01,.07-.04,.1c-.03,.03-.06,.04-.1,.04Zm-.12,.34h.25v1.76h-.25v-1.76Z" style="fill: #010203;"/>
        <path d="M22.94,5.51h-.42v1.51h-.25v-1.51h-.32v-.25h.32v-.55h.24v.55h.42v.25Z" style="fill: #010203;"/>
        <path d="M24.67,5.26h.25v1.76h-.25v-.33c-.06,.11-.14,.2-.25,.27-.1,.07-.23,.1-.37,.1-.13,0-.25-.02-.36-.07s-.21-.12-.3-.2c-.09-.09-.15-.18-.2-.3-.05-.11-.07-.23-.07-.36s.02-.25,.07-.36c.05-.11,.11-.21,.2-.29,.08-.08,.18-.15,.29-.2,.11-.05,.23-.07,.35-.07,.15,0,.28,.03,.38,.1,.11,.07,.2,.16,.26,.27v-.33Zm-.62,1.56c.13,0,.23-.03,.32-.09,.09-.06,.16-.15,.2-.25s.07-.22,.07-.35c0-.13-.03-.24-.08-.34-.05-.1-.12-.18-.21-.24-.09-.06-.2-.09-.32-.09s-.24,.03-.34,.09c-.1,.06-.18,.15-.24,.25-.06,.1-.09,.22-.08,.35,0,.13,.04,.24,.1,.34,.06,.1,.15,.18,.25,.24,.1,.06,.22,.09,.34,.09Zm-.34-2.31h.25l.14,.51h-.12l-.27-.51Z" style="fill: #010203;"/>
        <path d="M27.62,4.38h.25v2.64h-.25v-.33c-.06,.11-.14,.2-.25,.27-.11,.07-.23,.1-.38,.1-.13,0-.25-.02-.36-.07s-.21-.11-.29-.2c-.08-.09-.15-.18-.2-.29s-.07-.23-.07-.36,.02-.25,.07-.36c.05-.11,.11-.21,.2-.3,.09-.08,.18-.15,.29-.2s.23-.07,.36-.07c.15,0,.27,.03,.38,.1,.11,.07,.19,.16,.25,.27v-1.2Zm-.63,2.44c.13,0,.23-.03,.32-.09,.09-.06,.16-.14,.21-.25,.05-.1,.07-.22,.07-.34s-.02-.25-.07-.35c-.05-.1-.12-.19-.21-.25-.09-.06-.2-.09-.32-.09s-.24,.03-.34,.09c-.1,.06-.18,.14-.24,.25-.06,.1-.09,.22-.09,.35s.03,.24,.09,.35c.06,.1,.14,.19,.25,.25,.1,.06,.21,.09,.33,.09Z" style="fill: #010203;"/>
        <path d="M28.44,4.92s-.07-.01-.1-.04c-.03-.03-.04-.06-.04-.1s.01-.07,.04-.1,.06-.04,.1-.04,.07,.01,.1,.04c.03,.03,.04,.06,.04,.1s-.01,.07-.04,.1c-.03,.03-.06,.04-.1,.04Zm-.12,.34h.25v1.76h-.25v-1.76Z" style="fill: #010203;"/>
      </g>
    </g>
  </g>
  <g id="e" data-name="a droite du logo">
    <g id="f" data-name="by">
      <path d="M48.19,38.21c-.52,0-.99-.12-1.4-.36-.41-.24-.74-.57-.98-.98-.24-.41-.36-.88-.37-1.4v-4.5c0-.15,.05-.27,.14-.37,.1-.09,.22-.14,.36-.14s.28,.05,.37,.14c.09,.09,.14,.21,.14,.37v2.67c.23-.28,.51-.5,.84-.66,.33-.16,.69-.24,1.08-.24,.49,0,.92,.12,1.31,.36,.39,.24,.69,.57,.91,.98,.22,.41,.33,.88,.33,1.4s-.12,.99-.36,1.4c-.24,.41-.57,.74-.98,.98-.41,.24-.88,.36-1.41,.36Zm0-.89c.34,0,.64-.08,.91-.24,.27-.16,.48-.38,.63-.67,.16-.28,.23-.6,.23-.95s-.08-.67-.23-.95c-.16-.28-.37-.5-.63-.66-.27-.16-.57-.24-.91-.24s-.63,.08-.9,.24c-.27,.16-.48,.38-.63,.66-.15,.28-.23,.59-.23,.95s.08,.66,.23,.95c.15,.28,.36,.51,.63,.67,.27,.16,.57,.24,.9,.24Z" style="fill: #010203;"/>
      <path d="M54.32,37.95c-.13,.05-.24,.06-.35,.01-.11-.04-.2-.13-.26-.25l-2.29-4.3c-.07-.13-.07-.25-.02-.36s.14-.2,.26-.25c.13-.05,.25-.06,.36-.01,.11,.04,.2,.13,.26,.25l2.19,4.3c.07,.13,.09,.25,.07,.36-.02,.12-.09,.2-.21,.25Zm-1.18,2.59c-.07,0-.15-.02-.24-.06-.29-.13-.37-.34-.24-.62l3.04-6.8c.13-.28,.34-.36,.63-.24,.3,.13,.38,.33,.25,.62l-3.05,6.79c-.08,.2-.21,.31-.39,.31Z" style="fill: #010203;"/>
    </g>
    <g id="g" data-name="one">
      <path d="M86.95,27.05c-.03-.64,.45-1.16,1.06-1.19,.64-.03,1.15,.46,1.18,1.07v2.26c2.24-2.17,4.63-3.27,7.17-3.27,2.51-.03,4.93,.98,6.65,2.82,1.81,1.78,2.81,4.22,2.78,6.76v9.92c0,.31-.12,.61-.33,.83-.21,.21-.51,.34-.82,.34s-.6-.12-.79-.34c-.21-.21-.33-.52-.33-.83v-9.95c.03-1.93-.73-3.8-2.12-5.11-2.75-2.85-7.26-2.88-10.07-.09l-.09,.09c-1.36,1.35-2.15,3.18-2.09,5.11v9.92c0,.64-.51,1.13-1.15,1.13-.3,0-.57-.12-.79-.34s-.33-.52-.33-.83l.06-18.3h0Z" style="fill: #010203;"/>
      <path d="M125.84,39.81c.27-.09,.6-.06,.88,.09,.54,.31,.76,.98,.51,1.53-2.99,4.84-9.29,6.27-14.07,3.27-2.06-1.32-3.6-3.31-4.33-5.66-.85-2.6-.57-5.45,.7-7.87,2.63-5.05,8.77-6.98,13.76-4.35,2.39,1.25,4.17,3.46,4.99,6.06,.09,.28,.06,.61-.06,.86-.12,.28-.36,.49-.67,.55l-16.18,5.11c.79,1.53,2,2.82,3.51,3.64,2.75,1.44,6.08,1.16,8.53-.73,.73-.58,1.33-1.25,1.81-2.05,.12-.24,.33-.4,.6-.46Zm-.09-7.35c-.76-1.56-2-2.82-3.51-3.64-3.87-2.05-8.65-.55-10.71,3.34v.03c-.79,1.56-1.09,3.31-.88,5.02l15.09-4.74Z" style="fill: #f18934;"/>
      <g>
        <path id="h" data-name="contour + oreilles" d="M83.88,35.99c-.18-2.3-1.03-4.47-2.42-6.24,0,0,.45-.28,1.42-1.44,1.97-2.36-2.45-3.89-3.6-3.89-.06,0-.15,.03-.21,.03-1,.4-1.42,2.54-1.42,2.54-1.78-.67-3.63-1.01-5.54-1.01-2.75,0-4.69,.67-4.69,.67,.06-.55-.51-1.41-.7-1.68-.18-.24-.39-.67-.94-.67h-.21c-2.18,.37-3.21,1.41-3.21,1.41-1.39,1.25,.7,3.49,.94,3.55-.64,.83-3.84,5.85-3.57,8.08,.88,6.86,6.17,9.37,11.58,9.37,2.9,0,5.87-.73,8.17-1.9,2.18-1.1,4.81-2.75,4.39-8.81Z" style="fill: #010203;"/>
        <path id="i" data-name="fond visage" d="M79.68,29.62c-5.84-4.5-12.55-2.08-15.18,.21-2.06,1.81-2.9,4.93-3.42,6.43-.39,1.25-.24,6.76,8.2,8.42,.51,.09,1.06,.15,1.63,.15h.27c3.54-.03,8.23-1.59,9.86-3.46,3.12-3.61,1.42-9.61-1.36-11.75Z" style="fill: #fff;"/>
        <path id="j" data-name="ombre menton" d="M81.01,41.37c-1.97,2.23-8.26,3.98-11.74,3.31-5.14-1.01-7.2-3.43-7.96-5.45,.64,2.33,2.6,5.2,8.2,6.15,1.45,.24,9.5,.09,12.4-4.19,.24-.34,.51-1.47,.6-2.94-.21,1.13-.7,2.2-1.51,3.12Z" style="fill: #bcbec0;"/>
        <path id="k" data-name="oeil gauche" d="M64.56,35.56l.27,1.01c.54-.7,2.93-3.18,4.63,.49l.48-.89s-1.75-4.93-5.38-.61Z" style="fill: #010203;"/>
        <g id="l" data-name="oeil droit">
          <path d="M76.96,36.51c.7,0,1.27-.46,1.27-1.04s-.57-1.04-1.27-1.04-1.27,.46-1.27,1.04c0,.58,.57,1.04,1.27,1.04Z" style="fill: #010203;"/>
          <path d="M76.96,38.62c-1.97,0-3.57-1.41-3.57-3.15s1.6-3.15,3.57-3.15,3.57,1.41,3.57,3.15-1.6,3.15-3.57,3.15Zm0-5.23c-1.39,0-2.54,.95-2.54,2.11s1.12,2.11,2.54,2.11,2.54-.95,2.54-2.11-1.15-2.11-2.54-2.11Z" style="fill: #010203;"/>
        </g>
        <path id="m" data-name="nez" d="M70.85,38.77h2.9l-1.45,1.59-1.45-1.59Z"/>
        <path id="n" data-name="bouche" d="M72,43.33c-1.06,0-2.33-.34-3.69-1.44l.64-.83c1.45,1.16,2.9,1.5,4.33,.98,.64-.21,1.24-.58,1.72-1.07l.76,.7c-.6,.61-1.36,1.07-2.15,1.38-.48,.18-1.03,.28-1.6,.28Z" style="fill: #010203;"/>
        <g id="o" data-name="fleur">
          <path d="M69.92,40.63c-.08,0-.16,.01-.24,.04l-.36,.13-.33,.11,.21-.28,.23-.31c.14-.19,.19-.44,.11-.67-.07-.23-.25-.41-.47-.48-.07-.02-.15-.04-.23-.04-.2,0-.39,.08-.52,.22-.14,.14-.21,.33-.21,.53v.73l-.18-.29-.22-.31c-.14-.2-.36-.32-.6-.32s-.45,.11-.59,.31c-.14,.19-.18,.45-.1,.67,.08,.23,.26,.41,.48,.47l.36,.11,.33,.1-.33,.1-.36,.11c-.23,.07-.41,.25-.48,.47-.08,.23-.04,.48,.1,.67,.14,.19,.36,.31,.59,.31s.47-.12,.6-.32l.22-.31,.2-.29v.73c-.02,.2,.06,.39,.2,.53,.14,.14,.33,.22,.52,.22,.08,0,.15-.01,.23-.04,.23-.07,.4-.26,.47-.48,.07-.23,.03-.48-.11-.67l-.23-.31-.21-.28,.33,.11,.36,.13c.08,.03,.16,.04,.24,.04,.4,0,.73-.33,.73-.74s-.33-.74-.73-.74Z" style="fill: #fff;"/>
          <g>
            <path d="M68.34,39.89c0-.35,.33-.61,.66-.5h0c.33,.11,.46,.52,.25,.8l-.23,.31-.66,.88-.02-1.1v-.38Z" style="fill: #a348c0;"/>
            <path d="M66.96,40.94c-.33-.1-.47-.51-.26-.79h0c.21-.29,.63-.28,.83,0l.22,.31,.62,.91-1.04-.32-.36-.11Z" style="fill: #6fbe2e;"/>
            <path d="M67.53,42.59c-.2,.29-.62,.29-.83,0h0c-.21-.29-.07-.69,.26-.79l.36-.11,1.04-.32-.62,.91-.22,.31Z" style="fill: #ff8d2e;"/>
            <path d="M69.25,42.56c.21,.28,.08,.69-.25,.8h0c-.33,.11-.67-.15-.66-.5v-.38l.03-1.1,.66,.88,.23,.31Z" style="fill: #ff3a55;"/>
            <path d="M69.76,40.89c.33-.12,.67,.13,.67,.49h0c0,.35-.34,.6-.67,.49l-.36-.13-1.03-.36,1.03-.36,.36-.13Z" style="fill: #46afe6;"/>
          </g>
          <circle cx="68.37" cy="41.37" r=".13" style="fill: #a348c0;"/>
        </g>
      </g>
    </g>
  </g>
</svg>