<?xml version="1.0" encoding="UTF-8"?>
<svg id="Calque_2" data-name="Calque 2" xmlns="http://www.w3.org/2000/svg" viewBox="0 0 390.19 193.87">
  <defs>
    <style>
      .cls-1 {
        fill: #fff;
      }

      .cls-2 {
        fill: #ffb84c;
      }

      .cls-3 {
        fill: #d20072;
      }

      .cls-4 {
        fill: #191919;
      }

      .cls-5 {
        fill: none;
        stroke: #1d1d1b;
        stroke-miterlimit: 10;
        stroke-width: .99px;
      }

      .cls-6 {
        fill: #4dade2;
      }
    </style>
  </defs>
  <g id="en_dessous_du_logo" data-name="en dessous du logo">
    <g id="NEO">
      <path class="cls-4" d="m16.83,134.29c0-.68.26-1.34.74-1.82.47-.49,1.11-.76,1.78-.76.67-.01,1.32.26,1.79.76.48.48.75,1.13.74,1.82v4.81c5.02-4.94,10.36-7.38,16.09-7.38,5.62-.1,11.03,2.19,14.92,6.33,4.08,3.97,6.35,9.5,6.25,15.24v22.36c0,.67-.27,1.32-.74,1.78-.48.49-1.13.76-1.81.76-.67.01-1.32-.26-1.79-.76-.48-.48-.75-1.13-.74-1.81v-22.37c.09-4.34-1.62-8.52-4.71-11.52-2.96-3.14-7.07-4.88-11.35-4.81-4.3-.04-8.43,1.7-11.43,4.84-3.06,3-4.76,7.16-4.69,11.49v22.36c.01.68-.26,1.34-.74,1.82-.47.49-1.12.76-1.79.75-.67.01-1.31-.26-1.78-.75-.48-.48-.75-1.13-.74-1.82v-41.32Z"/>
      <path class="cls-6" d="m104.36,163.74c.65-.2,1.35-.13,1.94.2.61.32,1.05.88,1.23,1.55.2.62.17,1.3-.09,1.9-6.41,10.25-19.49,13.78-30.05,8.1-5.42-2.81-9.45-7.78-11.13-13.73-1.87-5.88-1.28-12.29,1.65-17.71,2.76-5.52,7.65-9.62,13.5-11.33,12.05-3.77,24.83,3.12,28.53,15.38,0,.01,0,.02,0,.03.21.65.15,1.37-.16,1.98-.3.61-.84,1.05-1.48,1.24l-36.39,11.38c1.76,3.47,4.5,6.33,7.87,8.2,4.13,2.34,9.03,2.83,13.53,1.35,4.02-1.2,7.46-3.86,9.68-7.47.31-.51.8-.89,1.36-1.06Zm-.09-16.5c-1.71-3.49-4.43-6.37-7.81-8.23-8.66-4.68-19.4-1.33-24,7.47,0,.01-.01.02-.02.04-1.76,3.48-2.45,7.41-1.99,11.29l33.82-10.57Z"/>
      <g>
        <path class="cls-4" d="m137.79,178.42c-12.75-.22-22.91-10.91-22.69-23.87.21-12.66,10.25-22.86,22.69-23.08,3.43-.01,6.82.76,9.91,2.28,1.48.64,2.17,2.38,1.54,3.89-.63,1.51-2.34,2.2-3.82,1.56-.08-.04-.16-.08-.24-.12-8.61-4.16-18.9-.44-23,8.31-4.09,8.75-.44,19.23,8.17,23.39,8.61,4.16,18.9.44,23-8.31,1.1-2.36,1.68-4.94,1.67-7.55.08-1.55-.12-3.1-.58-4.58-.49-1.56.35-3.22,1.88-3.72,1.53-.5,3.17.36,3.66,1.91.63,2.05.92,4.2.84,6.35.06,12.94-10.2,23.48-22.92,23.54-.03,0-.07,0-.1,0Z"/>
        <ellipse class="cls-6" cx="153.69" cy="141.25" rx="3.07" ry="3.13"/>
      </g>
    </g>
  </g>
  <g>
    <circle class="cls-1" cx="64.44" cy="63.23" r="48.82"/>
    <g>
      <line class="cls-5" x1="135.78" y1="15.64" x2="135.78" y2="110.81"/>
      <g>
        <path class="cls-3" d="m91.04,22.28c-2.01,0-5.61,0-7.17,0-3.09,0-4.53,4.37-4.53,4.37l-20.06,51.13c-4.75,13.05-14.26,25.09-22.95,25.09-.12,0-.24-.01-.36-.02,8.02,5.78,17.85,9.2,28.49,9.2,26.96,0,48.82-21.87,48.82-48.84,0-17.15-8.85-32.22-22.23-40.93Zm8.44,27.05c-.95,1.44-2.02,2.76-3.22,3.97-1.2,1.21-2.36,2.25-3.49,3.12-1.13.87-2.06,1.47-2.78,1.8l-3-.62c.54-.31,1.21-.78,1.99-1.42.79-.64,1.58-1.39,2.38-2.23.8-.85,1.51-1.77,2.13-2.77.62-1,1.04-2.02,1.25-3.05.19-.97-.14-1.64-1.02-2-.39-.14-.85-.32-1.37-.54-.52-.23-.97-.56-1.35-.99-.39-.44-.7-.96-.93-1.57-.23-.62-.25-1.38-.06-2.3.35-1.71,1.2-2.86,2.54-3.45,1.34-.59,2.69-.74,4.06-.46,1.14.24,2.05.65,2.74,1.23.68.59,1.2,1.26,1.55,2.02.36.75.56,1.55.63,2.4.06.85,0,1.68-.15,2.47-.31,1.48-.94,2.95-1.89,4.39Z"/>
        <path class="cls-3" d="m47.26,32.72h0l12.41,26.59,14.77-37.47,1.1-3.12h9c-6.13-2.77-12.92-4.32-20.08-4.32-13.93,0-26.49,5.85-35.38,15.21h16.92l1.28,3.12Z"/>
        <path class="cls-3" d="m35.36,91.06c5.44,0,5.57,5.02,7.07,5.02,2.03,0,9.19-14.43,12.32-23.95l-16.94-36.12s-1.23-3.3-4.49-3.3h-6.99c-6.69,8.36-10.7,18.95-10.7,30.49,0,13.46,5.45,25.65,14.25,34.48-.05-.26-.08-.53-.08-.8,0-3.67,2.58-5.84,5.57-5.84Z"/>
      </g>
      <g>
        <path d="m180.68,58.36c-2.1,5.55-6.99,7.95-11.71,7.95-7.65,0-12.89-4.68-12.89-12.45s5.72-12.32,12.59-12.32c7.78,0,12.59,5.94,12.11,14.29h-17.44c.22,3.32,2.8,4.9,5.42,4.9s4.46-.96,5.29-2.36h6.64Zm-17.26-6.9h10.18c-.09-2.93-2.23-4.41-4.94-4.41-2.53,0-4.85,1.31-5.24,4.41Z"/>
        <path d="m184.92,57.18v-6.07h15.43v6.07h-15.43Z"/>
        <path class="cls-2" d="m214.4,63.87c-3.13-1.68-5.59-4.01-7.37-6.99-1.79-2.98-2.68-6.35-2.68-10.11s.89-7.13,2.68-10.11,4.25-5.31,7.37-6.99c3.13-1.68,6.64-2.52,10.55-2.52,3.29,0,6.26.58,8.92,1.73,2.66,1.16,4.89,2.82,6.7,4.99l-5.64,5.21c-2.57-2.96-5.75-4.45-9.55-4.45-2.35,0-4.45.52-6.29,1.54-1.84,1.03-3.28,2.47-4.31,4.31s-1.54,3.94-1.54,6.29.52,4.45,1.54,6.29c1.03,1.84,2.47,3.28,4.31,4.31s3.94,1.54,6.29,1.54c3.8,0,6.98-1.5,9.55-4.5l5.64,5.21c-1.81,2.21-4.05,3.89-6.72,5.04-2.68,1.16-5.66,1.73-8.95,1.73-3.87,0-7.37-.83-10.49-2.51Z"/>
        <path d="m268.06,53.9c0,8.52-5.94,12.41-12.45,12.41s-12.45-3.89-12.45-12.41,5.94-12.37,12.45-12.37,12.45,3.85,12.45,12.37Zm-17.57,0c0,4.94,2.18,6.82,5.11,6.82s5.11-1.88,5.11-6.82-2.27-6.77-5.11-6.77c-2.84,0-5.11,1.79-5.11,6.77Z"/>
        <path d="m279.03,65.74h-7.21v-31.68h7.21v31.68Z"/>
        <path d="m291.4,65.74h-7.21v-31.68h7.21v31.68Z"/>
        <path d="m319.76,58.36c-2.1,5.55-6.99,7.95-11.71,7.95-7.65,0-12.89-4.68-12.89-12.45s5.72-12.32,12.59-12.32c7.78,0,12.59,5.94,12.11,14.29h-17.44c.22,3.32,2.8,4.9,5.42,4.9s4.46-.96,5.29-2.36h6.64Zm-21.89-24.3h8.17l4.15,5.07h-5.42l-6.91-5.07Zm4.63,17.39h10.18c-.09-2.93-2.23-4.41-4.94-4.41-2.53,0-4.85,1.31-5.24,4.41Z"/>
        <path d="m340.13,42.23h7.17v20.36c0,8.7-5.55,11.36-12.06,11.36-6.95,0-11.01-3.76-11.76-8.09h6.77c.57,2.01,2.27,3.01,4.9,3.01,3.63,0,4.98-1.84,4.98-4.9v-2.8c-1.53,2.58-4.68,3.71-7.25,3.71-6.03,0-10.36-4.15-10.36-11.63s4.33-11.58,10.36-11.58c2.58,0,5.72,1.14,7.25,3.71v-3.19Zm-10.14,11.06c0,4.15,2.36,6.03,5.24,6.03s5.2-1.44,5.2-6.03-2.36-5.99-5.2-5.99c-2.88,0-5.24,1.84-5.24,5.99Z"/>
        <path d="m375.65,58.36c-2.1,5.55-6.99,7.95-11.71,7.95-7.65,0-12.89-4.68-12.89-12.45s5.72-12.32,12.59-12.32c7.78,0,12.59,5.94,12.11,14.29h-17.44c.22,3.32,2.8,4.9,5.42,4.9s4.46-.96,5.29-2.36h6.64Zm-17.26-6.9h10.18c-.09-2.93-2.23-4.41-4.94-4.41-2.53,0-4.85,1.31-5.24,4.41Z"/>
        <path d="m159.69,81.58l4.22,7.24,4.27-7.24h5.15l-7.29,11.58v7.29h-4.45v-7.34l-7.11-11.53h5.21Z"/>
        <path d="m179.47,96.31l2.84-9.87h4.42l-5,14h-4.76l-5.1-14h4.63l2.97,9.87Z"/>
        <path d="m201.57,96.05c-1.25,3.31-4.16,4.74-6.98,4.74-4.56,0-7.68-2.79-7.68-7.42s3.41-7.34,7.5-7.34c4.63,0,7.5,3.54,7.21,8.51h-10.38c.13,1.98,1.67,2.92,3.23,2.92s2.65-.57,3.15-1.41h3.95Zm-10.28-4.11h6.06c-.05-1.74-1.33-2.63-2.94-2.63-1.51,0-2.89.78-3.12,2.63Z"/>
        <path d="m208.18,100.45h-4.29v-18.87h4.29v18.87Z"/>
        <path d="m215.55,81.58v3.44h-4.29v-3.44h4.29Zm.03,4.87v14h-4.32v-14h4.32Z"/>
        <path d="m222.94,88.29c.62-1.04,2.16-2.16,4.35-2.16,3.59,0,4.71,2.11,4.71,5.91v8.41h-4.3v-7.34c0-2.01-.08-3.64-2.16-3.64-1.82,0-2.6,1.22-2.6,3.8v7.18h-4.29v-14h4.29v1.85h0Z"/>
        <path d="m248.63,96.05c-1.25,3.31-4.16,4.74-6.98,4.74-4.56,0-7.68-2.79-7.68-7.42s3.41-7.34,7.5-7.34c4.63,0,7.5,3.54,7.21,8.51h-10.39c.13,1.98,1.67,2.92,3.23,2.92s2.65-.57,3.15-1.41h3.96Zm-10.28-4.11h6.06c-.05-1.74-1.33-2.63-2.94-2.63-1.51,0-2.89.78-3.12,2.63Z"/>
        <path d="m259.56,90.56c-.26-1.04-1.38-1.35-2.73-1.35-1.46,0-2.24.39-2.24,1.04s.49,1.02,1.72,1.25l2.6.47c3.38.62,4.97,1.61,4.97,4.09,0,3.15-2.89,4.74-6.77,4.74s-6.38-1.61-6.87-4.89h3.98c.37,1.35,1.46,1.77,2.94,1.77s2.6-.42,2.6-1.25c0-.62-.57-1.02-2.19-1.3l-2.5-.42c-2.71-.44-4.56-1.82-4.56-4.29,0-2.81,2.94-4.32,6.4-4.32,3.2,0,6.09,1.3,6.64,4.48h-4.01Z"/>
      </g>
    </g>
  </g>
</svg>