<svg xmlns="http://www.w3.org/2000/svg" viewBox="0 0 158 128"><path d="M113.16,53.75s-.73-34.32-48.25-35.84C22.86,16.56,13.38,44.59,13.43,63c0,10.59,8,20.2,24.1,17.53C56,77.45,56.92,85.41,82.34,86,110,86.63,113.16,53.75,113.16,53.75Z" fill="#ea5c89"/><path d="M86.34,8C85.75,7.84,79.18,21.16,99,36.65,99,36.65,107.51,14.9,86.34,8Z" fill="#4ab594"/><line x1="87.9" y1="10.08" x2="98.75" y2="31.84" fill="none" stroke="#22a47c" stroke-linecap="round" stroke-miterlimit="10" stroke-width="2"/><polyline points="93.29 13.02 91.65 17.61 86.4 14.49" fill="none" stroke="#22a47c" stroke-linecap="round" stroke-miterlimit="10" stroke-width="2"/><polyline points="88.69 19.93 94.51 23.38 96.3 17.48" fill="none" stroke="#22a47c" stroke-linecap="round" stroke-miterlimit="10" stroke-width="2"/><polyline points="91.18 25.11 96.59 27.51 98.48 23.56" fill="none" stroke="#22a47c" stroke-linecap="round" stroke-miterlimit="10" stroke-width="2"/><path d="M100.37,39.43a60,60,0,0,0,6.92-2.22c1.67-.82,2.31-2.51.32-3.43s-2.62-2.28-.41-3.41,6.7-2.9,4.93-4-3.51.72-3.77-1.42,3.41-2,4.63-4.65-.27-2.69-1.36-2.19-3-.17-2.1-2.15,3-4,1.79-7.08-4,3.15-4.53,4.49-1.26,4-3.36,1.08-3.26-.31-2.44,2.29,1.1,6,0,5.67-2.32-2.58-3.32-2.63-1.26,3.52.4,6.14c1.83,2.9-.59,2.37-3.39.83-1.32-.73-2.73,3,.84,8.64l2.63,4.1Z" fill="#1d9f75"/><path d="M100,37.54s4.4-.59,5-1.24,1.2-1.41-.12-2.13-2.93-1.68-1.29-2.81,4.63-2.21,4.3-3.18-2.07-1.29-2.24-1.82,3.26-3.85,3.19-4.56-.57-1.06-1.52-.78-.58-1.07,0-2.38-.32-2.6-1.14-1.22-1.3,2.49-2.18,1.43-1.37.38-1.25,1.6.7,4.4-.08,4.9-2.14-1-2.61-1.18-1.28.93-.3,2.53,1.28,3.84.8,4.34-2-.24-2.53-.72-1.43.48-.9,1.94A26.79,26.79,0,0,0,100,37.54Z" fill="none" stroke="#4ab594" stroke-miterlimit="10" stroke-width="2"/><path d="M128.39,52.71c0-.12,0-.24,0-.37h-.16l0,.37Z" fill="#017f7d"/><path d="M115.14,83.53h2v-.15h-6.36v.15h4.38Z" fill="#017f7d"/><path d="M131,36.48a24.56,24.56,0,0,1,3.11,7.89c.81.34,4.53,2.35,5.64,10.52,1.15,8.53-.77,11.81-2.23,12.58a34.22,34.22,0,0,1-.09,7.32c9.55-1.88,8.21-18.69,3.33-29.31C136.47,36.05,132,36.3,131,36.48Z" fill="#33b1b8"/><path d="M107.41,28.64c.53,0,1.07-.05,1.64-.05a13.49,13.49,0,0,1,2.88.11c0-.51.21-2.37,3-2.37a2.58,2.58,0,0,1,2.91,2.74,16.7,16.7,0,0,1,3,.64h0a7.81,7.81,0,0,1,1.3.15c0-.57-.4-6.17-7.63-6.17C107.83,23.69,107.4,27.59,107.41,28.64Z" fill="#1d6b67"/><path d="M137.56,67.55v-.08c-.42-5.79-1.69-13.11-3.06-21.29-.11-.63-.23-1.23-.35-1.81a.29.29,0,0,1,0-.09,24.4,24.4,0,0,0-3.09-7.8l0-.07a15.12,15.12,0,0,0-6.08-5.55q-.59-.28-1.11-.48a13.77,13.77,0,0,0-1.75-.52,7.81,7.81,0,0,0-1.3-.15h0a16.7,16.7,0,0,0-3-.64,28.9,28.9,0,0,0-4.84-.21c5.1,1,13.56,5,15.15,20.8h0v.09q.06.68.12,1.32c0,.43.08.85.11,1.27l0,.37c1.64,19.87-1.11,29.78-11.26,30.74A87.35,87.35,0,0,0,127.84,83l.18,0c3.47-.5,5.68-1.49,7.57-3.49a8.41,8.41,0,0,0,1.87-4.61s0-.05,0-.08A34.14,34.14,0,0,0,137.56,67.55Z" fill="#13817f"/><path d="M94.5,64.15a19.61,19.61,0,0,0-.09,2.49,22.52,22.52,0,0,0,.3,3.42c.8,4.79,3.5,10.74,12,10.74,10,0,13.31-5.58,14.41-10.74a24.18,24.18,0,0,0,.45-3.42c.06-.92.08-1.76.08-2.49Z" fill="#13817f"/><path d="M128.24,47c-.75-17.35-10.18-17.11-15.28-18.11h0l-.33-.06-.62-.09h-.08a13.49,13.49,0,0,0-2.88-.11c-.56,0-1.1,0-1.63.05h-.09C91.52,29.77,93.27,46.59,91.55,65.16,90,81.92,100.14,83.42,110.76,83.52H111a0,0,0,0,0,0,0c1.23,0,2.47,0,3.69,0h.74c.59,0,1.15,0,1.69-.07h0C130.43,82.49,129.87,66.84,128.24,47Zm-7.11,23.09C120,75.22,116.7,80.8,106.72,80.8c-8.51,0-11.21-6-12-10.74-.1-.62-.18-1.23-.22-1.8a.31.31,0,0,1,0-.1c0-.54-.07-1.06-.07-1.52h27.17A24.18,24.18,0,0,1,121.13,70.06Z" fill="#33b1b8"/><path d="M120.57,68.43h.54a.24.24,0,1,0,0-.47h-.54a.24.24,0,0,0,0,.47Z" fill="#1d6b67"/><path d="M117.7,68.2a.23.23,0,0,0,.23.23H119a.23.23,0,0,0,.23-.23A.23.23,0,0,0,119,68h-1.09A.23.23,0,0,0,117.7,68.2Zm-2.64,0a.23.23,0,0,0,.23.23h1.09a.23.23,0,0,0,.23-.23.24.24,0,0,0-.23-.24h-1.09A.23.23,0,0,0,115.06,68.2Zm-2.65,0a.23.23,0,0,0,.24.23h1.09a.23.23,0,0,0,.23-.23.24.24,0,0,0-.23-.24h-1.09A.24.24,0,0,0,112.41,68.2Zm-2.63,0a.23.23,0,0,0,.23.23h1.08a.23.23,0,0,0,.24-.23.24.24,0,0,0-.24-.24H110A.23.23,0,0,0,109.78,68.2Zm-2.65,0a.23.23,0,0,0,.24.23h1.09a.23.23,0,0,0,.23-.23.24.24,0,0,0-.23-.24h-1.09A.24.24,0,0,0,107.13,68.2Zm-2.64,0a.23.23,0,0,0,.24.23h1.08a.23.23,0,0,0,.24-.23.24.24,0,0,0-.24-.24h-1.08A.24.24,0,0,0,104.49,68.2Zm-2.64,0a.23.23,0,0,0,.24.23h1.09a.23.23,0,0,0,.23-.23.24.24,0,0,0-.23-.24h-1.09A.24.24,0,0,0,101.85,68.2Zm-2.64,0a.23.23,0,0,0,.24.23h1.08a.23.23,0,0,0,.24-.23.24.24,0,0,0-.24-.24H99.45A.24.24,0,0,0,99.21,68.2Zm-2.64,0a.23.23,0,0,0,.24.23H97.9a.23.23,0,0,0,.23-.23A.24.24,0,0,0,97.9,68H96.81A.24.24,0,0,0,96.57,68.2Z" fill="#1d6b67"/><path d="M94.71,68.43h.54a.24.24,0,1,0,0-.47h-.54a.24.24,0,0,0,0,.47Z" fill="#1d6b67"/><path d="M123.88,30.73a16.91,16.91,0,0,1,1.57,1.66.29.29,0,0,0,.24.11.31.31,0,0,0,.2-.07.32.32,0,0,0,0-.44c-.4-.48-.75-.85-1-1.13s-.76-.35-1.11-.48A.31.31,0,0,0,123.88,30.73Zm2.71,3.12c.44.61.87,1.26,1.28,1.92a.3.3,0,0,0,.26.15.29.29,0,0,0,.16,0,.31.31,0,0,0,.11-.43c-.41-.68-.85-1.34-1.31-2a.31.31,0,0,0-.43-.07A.32.32,0,0,0,126.59,33.85Zm2.19,3.53c.35.68.69,1.38,1,2.09a.31.31,0,0,0,.29.19l.12,0a.31.31,0,0,0,.16-.41c-.31-.72-.65-1.44-1-2.13a.31.31,0,0,0-.42-.13A.3.3,0,0,0,128.78,37.38Zm1.67,3.81c.26.72.5,1.46.71,2.2a.31.31,0,0,0,.3.22h.09a.31.31,0,0,0,.21-.38c-.21-.76-.46-1.51-.72-2.25a.31.31,0,0,0-.59.22Zm1.16,4c.17.74.31,1.51.43,2.27a.3.3,0,0,0,.3.27h0a.3.3,0,0,0,.26-.35c-.12-.78-.26-1.56-.43-2.32a.31.31,0,0,0-.61.14Zm.69,4.12c.12.82.25,1.67.35,2.31a.3.3,0,0,0,.3.27H133a.31.31,0,0,0,.26-.35c-.1-.65-.23-1.49-.35-2.31a.31.31,0,1,0-.61.09Zm.64,4.16c.11.76.23,1.52.35,2.3a.31.31,0,0,0,.31.27h0a.31.31,0,0,0,.27-.35l-.36-2.31a.32.32,0,0,0-.36-.26A.32.32,0,0,0,132.94,53.46Zm.62,4.15c.11.82.21,1.58.3,2.31a.31.31,0,0,0,.31.27h0a.31.31,0,0,0,.27-.35c-.09-.73-.19-1.49-.3-2.32a.32.32,0,0,0-.36-.26A.31.31,0,0,0,133.56,57.61Zm.51,4.16c.08.8.14,1.58.19,2.31a.32.32,0,0,0,.31.3h0a.31.31,0,0,0,.29-.33c0-.74-.11-1.53-.19-2.33a.31.31,0,0,0-.35-.28A.3.3,0,0,0,134.07,61.77Zm.31,5.75v.74a.3.3,0,0,0,.3.31h0a.3.3,0,0,0,.31-.3c0-.25,0-.5,0-.75,0-.51,0-1,0-1.6a.32.32,0,0,0-.32-.3.3.3,0,0,0-.3.32C134.37,66.48,134.38,67,134.38,67.52Zm-.08,5.24h0a.32.32,0,0,0,.31-.26c.11-.74.2-1.53.26-2.35a.31.31,0,1,0-.62,0c-.06.8-.15,1.57-.26,2.29A.32.32,0,0,0,134.3,72.76Zm-1.12,4,.11,0a.31.31,0,0,0,.29-.2,16.74,16.74,0,0,0,.71-2.27.31.31,0,1,0-.6-.14,16.86,16.86,0,0,1-.69,2.18A.33.33,0,0,0,133.18,76.8ZM131,80.34a.32.32,0,0,0,.2.08.34.34,0,0,0,.24-.11,12.63,12.63,0,0,0,1.36-2,.32.32,0,0,0-.12-.43.31.31,0,0,0-.42.12,11.42,11.42,0,0,1-1.3,1.86A.32.32,0,0,0,131,80.34Zm-3.35,2.49a.28.28,0,0,0,.22.16h0a.28.28,0,0,0,.13,0h0a11.3,11.3,0,0,0,2-1.31.31.31,0,1,0-.4-.48,10.63,10.63,0,0,1-1.89,1.24A.31.31,0,0,0,127.62,82.83Z" fill="#1d6b67"/><path d="M96,70.59a7.2,7.2,0,0,0,.26.73.31.31,0,0,0,.29.2l.11,0a.33.33,0,0,0,.18-.41,6.07,6.07,0,0,1-.24-.67.32.32,0,0,0-.39-.22A.32.32,0,0,0,96,70.59Zm21.82,2.33a.32.32,0,0,0,.16,0,.31.31,0,0,0,.27-.15,12.22,12.22,0,0,0,1.06-2.15.31.31,0,1,0-.58-.21,13.53,13.53,0,0,1-1,2A.32.32,0,0,0,117.84,72.92Zm-20.74.13a15.22,15.22,0,0,0,1.35,2,.32.32,0,0,0,.24.11.31.31,0,0,0,.2-.07.32.32,0,0,0,0-.44,13.22,13.22,0,0,1-1.28-1.88.32.32,0,0,0-.55.31Zm18,3.06a.34.34,0,0,0,.23.1.32.32,0,0,0,.21-.08,13.61,13.61,0,0,0,1.63-1.75.31.31,0,0,0-.06-.43.3.3,0,0,0-.43,0,13.06,13.06,0,0,1-1.56,1.67A.31.31,0,0,0,115.12,76.11Zm-15.34.29a10.51,10.51,0,0,0,2,1.39.26.26,0,0,0,.15,0,.31.31,0,0,0,.27-.15.31.31,0,0,0-.12-.43,10.17,10.17,0,0,1-1.84-1.32.31.31,0,0,0-.41.47Zm11.74,1.82a.3.3,0,0,0,.29.2l.11,0A11.53,11.53,0,0,0,114,77.3a.3.3,0,0,0,.09-.43.3.3,0,0,0-.43-.09,11.59,11.59,0,0,1-2,1A.3.3,0,0,0,111.52,78.22Zm-8,.36a11.14,11.14,0,0,0,2.33.54h0a.3.3,0,0,0,.3-.27.31.31,0,0,0-.27-.35,10.07,10.07,0,0,1-2.2-.51.32.32,0,0,0-.4.2A.31.31,0,0,0,103.48,78.58Zm3.92.33a.3.3,0,0,0,.31.3h0a11.47,11.47,0,0,0,2.37-.27.31.31,0,1,0-.12-.6,12,12,0,0,1-2.26.25A.31.31,0,0,0,107.4,78.91Z" fill="#1d6b67"/><path d="M107.81,54.25s-3,.66-4.71.82-1.94,4.16,2.77,5.56,9.14-2.45,8.87-5.91S109.56,53.82,107.81,54.25Z" fill="#fff"/><path d="M130.43,29.17a.4.4,0,0,0,.35-.21l4-7.57a.38.38,0,0,0-.16-.52.39.39,0,0,0-.53.16l-4,7.56a.39.39,0,0,0,.16.53A.41.41,0,0,0,130.43,29.17Z" fill="#1d1939"/><path d="M127.69,28.51a.38.38,0,0,0,.37-.27l1.44-4.57a.38.38,0,0,0-.26-.48.38.38,0,0,0-.48.25L127.32,28a.4.4,0,0,0,.26.49Z" fill="#1d1939"/><path d="M125.21,28.25h0a.38.38,0,0,0,.36-.41l-.26-3.92a.39.39,0,0,0-.41-.36.4.4,0,0,0-.37.41l.27,3.92A.38.38,0,0,0,125.21,28.25Z" fill="#1d1939"/><path d="M132.26,31.77a.37.37,0,0,0,.26-.1l3.79-3.52a.4.4,0,0,0,0-.55.38.38,0,0,0-.55,0L132,31.1a.39.39,0,0,0,.27.67Z" fill="#1d1939"/><path d="M133,33.86h.07l4.69-.79a.39.39,0,1,0-.13-.76l-4.69.78a.39.39,0,0,0-.32.45A.38.38,0,0,0,133,33.86Z" fill="#1d1939"/><ellipse cx="100.9" cy="44.8" rx="2.37" ry="2.46" transform="translate(-0.43 0.97) rotate(-0.55)" fill="#1d1939"/><ellipse cx="100.21" cy="44.06" rx="0.93" ry="0.97" transform="translate(-0.42 0.96) rotate(-0.55)" fill="#fff"/><ellipse cx="115.95" cy="44.86" rx="2.37" ry="2.46" transform="translate(-0.43 1.12) rotate(-0.55)" fill="#1d1939"/><ellipse cx="115.18" cy="44.12" rx="0.93" ry="0.97" transform="translate(-0.42 1.11) rotate(-0.55)" fill="#fff"/><path d="M117.84,35a8.56,8.56,0,0,0-8.16,6.23l-3.15-.07a8.87,8.87,0,1,0,.14,1.66,1.93,1.93,0,0,0,0-.24l2.72.06c0,.37-.07.75-.08,1.14A8.51,8.51,0,1,0,117.84,35ZM98.14,50.22a7.41,7.41,0,1,1,7.17-7.37A7.27,7.27,0,0,1,98.14,50.22Zm19.63,1.05a7.41,7.41,0,1,1,7.16-7.38A7.29,7.29,0,0,1,117.77,51.27Z" fill="#fbc02c"/><path d="M55.65,30.56a1.84,1.84,0,0,1,.24.69,6.54,6.54,0,0,1,0,.88v14c0,1.16-.32,1.85-1,2.05a4.11,4.11,0,0,1-1.21.15,4,4,0,0,1-1.16-.13,1.85,1.85,0,0,1-.66-.3,1.23,1.23,0,0,1-.36-.51,5.21,5.21,0,0,1-.12-1.31V37.64c-.42.52-1,1.35-1.85,2.49S48.29,42,48.07,42.26l-.45.59a2.4,2.4,0,0,1-.62.46,2.09,2.09,0,0,1-1.06.29,2,2,0,0,1-1-.27,2.28,2.28,0,0,1-.67-.51l-.2-.28c-.34-.42-1-1.32-2-2.69l-1.62-2.21v8.51a6.28,6.28,0,0,1,0,.87,1.8,1.8,0,0,1-.24.65c-.25.45-.91.68-2,.68s-1.67-.23-1.92-.68A1.67,1.67,0,0,1,36,47a6.86,6.86,0,0,1,0-.91v-14a6.28,6.28,0,0,1,0-.87,1.76,1.76,0,0,1,.24-.67c.25-.44.91-.66,2-.66a3.61,3.61,0,0,1,1.17.17,1.51,1.51,0,0,1,.65.34l.15.15,5.74,7.53q4.29-5.68,5.73-7.51c.29-.45,1-.68,2-.68S55.42,30.11,55.65,30.56Z" fill="#fff"/><path d="M59.69,36.73a6.94,6.94,0,0,1,9.68,0,6.5,6.5,0,0,1,2.1,5,6.58,6.58,0,0,1-1.09,3.72,6.7,6.7,0,0,1-2.64,2.4,7.1,7.1,0,0,1-3.22.77,6.83,6.83,0,0,1-3.23-.82,7.09,7.09,0,0,1-2.64-2.42,6.35,6.35,0,0,1-1.08-3.63A6.54,6.54,0,0,1,59.69,36.73Zm3.16,6.81a2.49,2.49,0,0,0,3.31,0,2.52,2.52,0,0,0,0-3.71,2.72,2.72,0,0,0-1.69-.61,2.59,2.59,0,0,0-1.69.64A2.22,2.22,0,0,0,62,41.69,2.19,2.19,0,0,0,62.85,43.54Z" fill="#fff"/><path d="M80.51,35.06A5.33,5.33,0,0,1,84.72,37a6.94,6.94,0,0,1,1.68,4.72v4.44a8.42,8.42,0,0,1,0,.87,2.17,2.17,0,0,1-.22.65c-.23.45-.89.68-2,.68s-1.88-.31-2.07-.94A4.08,4.08,0,0,1,82,46.13V41.68a2.19,2.19,0,0,0-.59-1.62,2.22,2.22,0,0,0-1.59-.58,2.19,2.19,0,0,0-1.62.61,2.12,2.12,0,0,0-.62,1.59v4.47a6.28,6.28,0,0,1,0,.87,1.63,1.63,0,0,1-.24.65c-.22.45-.87.68-1.94.68s-1.71-.23-2-.68a2.2,2.2,0,0,1-.21-.67,6.46,6.46,0,0,1,0-.87v-9a6,6,0,0,1,0-.84,1.63,1.63,0,0,1,.24-.65c.23-.42.88-.63,1.94-.63s1.66.19,1.9.58a2,2,0,0,1,.25,1,2.76,2.76,0,0,1,.45-.51,4.92,4.92,0,0,1,.69-.53A3.27,3.27,0,0,1,80.51,35.06Z" fill="#fff"/><path d="M36.07,62.93a3,3,0,0,1-.77,2.3,2.38,2.38,0,0,1-1.7.75h-6a1.4,1.4,0,0,0,.83,1.19,3.33,3.33,0,0,0,1.67.48,7,7,0,0,0,2.3-.31l.28-.1a2.63,2.63,0,0,1,1-.28c.54,0,1,.38,1.39,1.14a2.75,2.75,0,0,1,.33,1.16q0,2.25-5.39,2.25a8.13,8.13,0,0,1-3.32-.64,5.63,5.63,0,0,1-2.26-1.71,7.26,7.26,0,0,1-1.59-4.57,6.62,6.62,0,0,1,2.06-5.09,7.27,7.27,0,0,1,5.14-1.91,5.73,5.73,0,0,1,5.15,2.48A5.06,5.06,0,0,1,36.07,62.93Zm-7.37-6.3a1.67,1.67,0,0,1-.76.18c-.51,0-.92-.5-1.24-1.49a3.24,3.24,0,0,1-.2-1,1.13,1.13,0,0,1,.17-.66,1.79,1.79,0,0,1,.91-.53l4.17-1.28a5.57,5.57,0,0,1,.76-.18c.51,0,.91.5,1.21,1.49a3.19,3.19,0,0,1,.21,1,1,1,0,0,1-.18.65,1.68,1.68,0,0,1-.91.53Zm2,7q1,0,1-.81a1.13,1.13,0,0,0-.44-.93A2,2,0,0,0,30,61.58a2.59,2.59,0,0,0-1.63.67,1.88,1.88,0,0,0-.81,1.43Z" fill="#fff"/><path d="M41.88,64.53a2,2,0,0,0,.71,1.66,2.28,2.28,0,0,0,1.5.6,2.63,2.63,0,0,0,1.49-.47,2.27,2.27,0,0,1,1.13-.47c.5,0,1.12.45,1.84,1.34a2.21,2.21,0,0,1,.58,1.31c0,.64-.46,1.24-1.39,1.8a6,6,0,0,1-3.53,1,7.28,7.28,0,0,1-4.52-1.69A6,6,0,0,1,38,67.46a6.75,6.75,0,0,1-.65-3A6.52,6.52,0,0,1,38,61.52a6,6,0,0,1,1.7-2.14,7,7,0,0,1,4.47-1.66A6.92,6.92,0,0,1,46,58a6.56,6.56,0,0,1,1.34.52l.4.25.71.48a1.46,1.46,0,0,1,.65,1.15,2.64,2.64,0,0,1-.53,1.45c-.6.93-1.18,1.39-1.74,1.39a2.9,2.9,0,0,1-1.36-.55,1.83,1.83,0,0,0-1.31-.43,2.37,2.37,0,0,0-1.57.61A2.05,2.05,0,0,0,41.88,64.53Z" fill="#fff"/><path d="M52.52,59.54a6.94,6.94,0,0,1,9.67,0,6.53,6.53,0,0,1,2.1,5,6.61,6.61,0,0,1-1.08,3.73,6.84,6.84,0,0,1-2.64,2.4,7.24,7.24,0,0,1-3.23.77,6.83,6.83,0,0,1-3.23-.82,7.27,7.27,0,0,1-2.64-2.43,6.31,6.31,0,0,1-1.07-3.62A6.5,6.5,0,0,1,52.52,59.54Zm3.16,6.8a2.63,2.63,0,0,0,1.64.62A2.79,2.79,0,0,0,59,66.33a2.21,2.21,0,0,0,.83-1.87A2.18,2.18,0,0,0,59,62.62a2.71,2.71,0,0,0-1.7-.61,2.65,2.65,0,0,0-1.69.63,2.25,2.25,0,0,0-.78,1.86A2.16,2.16,0,0,0,55.68,66.34Z" fill="#fff"/><path d="M65.93,53.83c0-.39,0-.68,0-.88a2.59,2.59,0,0,1,.22-.67c.23-.45.89-.68,2-.68s1.66.23,1.92.68a2.28,2.28,0,0,1,.24.69c0,.2,0,.49,0,.88v11.7a2.64,2.64,0,0,0,.16,1.15c.1.16.32.24.67.24a3.53,3.53,0,0,1,.69,0,1.12,1.12,0,0,1,.43.21c.34.22.51.82.51,1.79s-.17,1.71-.51,2-1.48.35-3.13.15a3.17,3.17,0,0,1-2.53-1.29,8.29,8.29,0,0,1-.71-3.94Z" fill="#fff"/><path d="M86.78,62.93a3.07,3.07,0,0,1-.77,2.3A2.42,2.42,0,0,1,84.3,66h-6a1.39,1.39,0,0,0,.84,1.19,3.29,3.29,0,0,0,1.66.48,7,7,0,0,0,2.3-.31l.28-.1a2.63,2.63,0,0,1,1-.28c.54,0,1,.38,1.39,1.14a2.75,2.75,0,0,1,.33,1.16q0,2.25-5.38,2.25a8.06,8.06,0,0,1-3.32-.64,5.66,5.66,0,0,1-2.27-1.71,7.26,7.26,0,0,1-1.59-4.57,6.62,6.62,0,0,1,2.06-5.09,7.28,7.28,0,0,1,5.14-1.91,5.76,5.76,0,0,1,5.16,2.48A5.13,5.13,0,0,1,86.78,62.93Zm-5.33.75q1,0,1-.81a1.11,1.11,0,0,0-.45-.93,1.93,1.93,0,0,0-1.26-.36,2.59,2.59,0,0,0-1.63.67,1.88,1.88,0,0,0-.81,1.43Z" fill="#fff"/><path d="M28.77,103.73a3,3,0,0,1-1.56-.41,3,3,0,0,1-1.1-1.09,3.27,3.27,0,0,1-.41-1.57v-5a.57.57,0,0,1,.16-.41.59.59,0,0,1,.41-.15.56.56,0,0,1,.41.15.53.53,0,0,1,.16.41v3a2.94,2.94,0,0,1,.94-.73A2.72,2.72,0,0,1,29,97.61a2.78,2.78,0,0,1,1.46.4,3,3,0,0,1,1,1.09,3.21,3.21,0,0,1,.37,1.56,3,3,0,0,1-.41,1.57,2.92,2.92,0,0,1-1.09,1.09A3.06,3.06,0,0,1,28.77,103.73Zm0-1a1.93,1.93,0,0,0,1-.27,2,2,0,0,0,.71-.75,2.19,2.19,0,0,0,.26-1.06,2.12,2.12,0,0,0-.26-1,2,2,0,0,0-.71-.74,1.93,1.93,0,0,0-1-.27,1.91,1.91,0,0,0-1,.27,1.94,1.94,0,0,0-.71.74,2.12,2.12,0,0,0-.26,1,2.19,2.19,0,0,0,.26,1.06,1.91,1.91,0,0,0,1.72,1Z" fill="#000000"/><path d="M35.61,103.44a.51.51,0,0,1-.69-.26l-2.56-4.8a.44.44,0,0,1,0-.4.5.5,0,0,1,.29-.28.56.56,0,0,1,.4,0,.5.5,0,0,1,.29.28l2.44,4.8a.67.67,0,0,1,.09.4A.36.36,0,0,1,35.61,103.44Zm-1.32,2.89a.67.67,0,0,1-.27-.07.46.46,0,0,1-.26-.69L37.15,98a.5.5,0,0,1,.71-.27.46.46,0,0,1,.27.7L34.73,106A.47.47,0,0,1,34.29,106.33Z" fill="#000000"/><path d="M72,96.59a1.25,1.25,0,1,1,2.5-.14V99a11.36,11.36,0,0,1,8-3.65,10,10,0,0,1,7.42,3.14A10.37,10.37,0,0,1,93,106v11.06a1.35,1.35,0,0,1-.37.92,1.31,1.31,0,0,1-.91.38,1.16,1.16,0,0,1-.88-.38,1.31,1.31,0,0,1-.37-.92V106a7.67,7.67,0,0,0-2.37-5.7,7.88,7.88,0,0,0-11.24-.11l-.1.11a7.72,7.72,0,0,0-2.33,5.7v11.07a1.26,1.26,0,0,1-1.28,1.26,1.23,1.23,0,0,1-.88-.38,1.34,1.34,0,0,1-.37-.92L72,96.59Z" fill="#000000"/><path d="M115.41,110.83a1.25,1.25,0,0,1,1,.1,1.35,1.35,0,0,1,.57,1.71,11.33,11.33,0,0,1-15.69,3.66A11.52,11.52,0,0,1,96.44,110a11.44,11.44,0,0,1,16.13-13.63,11.49,11.49,0,0,1,5.57,6.76,1.32,1.32,0,0,1-.06,1,1.06,1.06,0,0,1-.75.61l-18,5.71a9.57,9.57,0,0,0,3.91,4.06,8.83,8.83,0,0,0,9.52-.82,8.67,8.67,0,0,0,2-2.29A1,1,0,0,1,115.41,110.83Zm-.1-8.2a9.26,9.26,0,0,0-3.92-4.06,8.83,8.83,0,0,0-12,3.72v0a9.8,9.8,0,0,0-1,5.6Z" fill="#f18934"/><path d="M68.59,106.56a12.91,12.91,0,0,0-2.7-7A7.8,7.8,0,0,0,67.48,98c2.19-2.63-2.73-4.34-4-4.34-.06,0-.17,0-.23,0-1.12.44-1.59,2.83-1.59,2.83a18,18,0,0,0-11.41-.38,3.76,3.76,0,0,0-.77-1.87c-.21-.28-.44-.75-1.05-.75h-.24a6.71,6.71,0,0,0-3.57,1.57c-1.56,1.4.77,3.89,1,4-.71.92-4.29,6.52-4,9,1,7.65,6.88,10.46,12.93,10.46a20.81,20.81,0,0,0,9.11-2.12C66.13,115.17,69.07,113.32,68.59,106.56Z" fill="#000000"/><path d="M63.9,99.46A13.74,13.74,0,0,0,47,99.7c-2.3,2-3.24,5.5-3.82,7.17-.44,1.4-.27,7.55,9.15,9.39a10.51,10.51,0,0,0,1.82.17h.31c3.95,0,9.18-1.77,11-3.86C68.9,108.54,67,101.85,63.9,99.46Z" fill="#fff"/><path d="M65.39,112.57c-2.2,2.5-9.22,4.44-13.1,3.69-5.74-1.13-8-3.82-8.88-6.08.71,2.6,2.91,5.81,9.15,6.87,1.62.27,10.6.1,13.84-4.68a8.37,8.37,0,0,0,.67-3.28A7.08,7.08,0,0,1,65.39,112.57Z" fill="#bcbec0"/><path d="M47,106.08l.3,1.13c.61-.79,3.27-3.55,5.16.55l.54-1S51.08,101.27,47,106.08Z" fill="#000000"/><path d="M60.86,107.14A1.18,1.18,0,1,0,59.45,106,1.31,1.31,0,0,0,60.86,107.14Z" fill="#000000"/><path d="M60.86,109.5a3.55,3.55,0,1,1,4-3.52A3.77,3.77,0,0,1,60.86,109.5Zm0-5.84A2.4,2.4,0,1,0,63.7,106,2.64,2.64,0,0,0,60.86,103.66Z" fill="#000000"/><path d="M54.05,109.67h3.24l-1.62,1.78Z" fill="#000000"/><path d="M55.33,114.76a6.47,6.47,0,0,1-4.12-1.61l.71-.92a4.8,4.8,0,0,0,4.83,1.09,5,5,0,0,0,1.92-1.19l.84.78a6.68,6.68,0,0,1-2.39,1.54A5,5,0,0,1,55.33,114.76Z" fill="#000000"/><path d="M53,111.74a.75.75,0,0,0-.26.05l-.4.14-.37.13.23-.32.26-.34a.83.83,0,0,0,.13-.75.86.86,0,0,0-.53-.54,1.09,1.09,0,0,0-.26,0,.81.81,0,0,0-.58.25.83.83,0,0,0-.24.6v.82l-.22-.32-.24-.35a.82.82,0,0,0-.68-.36.82.82,0,0,0-.77,1.09.78.78,0,0,0,.54.53l.4.13.37.11-.37.12-.4.12a.82.82,0,0,0-.54.53.83.83,0,0,0,.11.75.81.81,0,0,0,.66.34.84.84,0,0,0,.68-.35l.24-.35.22-.32v.82a.82.82,0,0,0,.24.59.81.81,0,0,0,.58.25.75.75,0,0,0,.26,0,.82.82,0,0,0,.53-.54.84.84,0,0,0-.13-.75l-.26-.34-.23-.31.37.13.4.14a.75.75,0,0,0,.26,0,.83.83,0,0,0,0-1.66Z" fill="#fff"/><path d="M51.25,110.91a.56.56,0,0,1,.74-.55h0a.58.58,0,0,1,.28.89l-.26.34-.73,1,0-1.23Z" fill="#a348c0"/><path d="M49.71,112.09a.58.58,0,0,1-.29-.89h0a.56.56,0,0,1,.92,0l.24.35.7,1-1.17-.36Z" fill="#6fbe2e"/><path d="M50.34,113.93a.56.56,0,0,1-.92,0h0a.57.57,0,0,1,.29-.88l.4-.13,1.17-.36-.7,1Z" fill="#ff8d2e"/><path d="M52.27,113.9a.58.58,0,0,1-.28.89h0a.57.57,0,0,1-.74-.56v-.43l0-1.23.73,1Z" fill="#ff3a55"/><path d="M52.83,112a.57.57,0,0,1,.75.54h0a.56.56,0,0,1-.75.54l-.4-.14-1.15-.4,1.15-.4Z" fill="#46afe6"/><circle cx="51.28" cy="112.57" r="0.14" fill="#a348c0"/></svg>