<!-- Generated by IcoMoon.io -->
<svg version="1.1" xmlns="http://www.w3.org/2000/svg" width="32" height="32" viewBox="0 0 32 32">
<title>attached</title>
<path fill="#fff" d="M24.727 22.347h-16.727c-3.215 0-5.818-2.84-5.818-6.347s2.604-6.347 5.818-6.347h18.182c2.007 0 3.636 1.777 3.636 3.967s-1.629 3.967-3.636 3.967h-15.273c-0.8 0-1.455-0.714-1.455-1.587s0.655-1.587 1.455-1.587h13.818v-2.38h-13.818c-2.007 0-3.636 1.777-3.636 3.967s1.629 3.967 3.636 3.967h15.273c3.215 0 5.818-2.84 5.818-6.347s-2.604-6.347-5.818-6.347h-18.182c-4.422 0-8 3.903-8 8.727s3.578 8.727 8 8.727h16.727v-2.38z"></path>
</svg>
