<!-- Generated by IcoMoon.io -->
<svg version="1.1" xmlns="http://www.w3.org/2000/svg" width="24" height="24" viewBox="0 0 24 24">
<title>bigfiles</title>
<path d="M20.624 10.699l-3.868-6.51c-0.192-0.312-0.625-0.432-0.961-0.24l-6.486 3.868c-0.144 0.096-0.264 0.24-0.312 0.408-0.048 0.192-0.024 0.384 0.072 0.529l3.844 6.51c0.144 0.216 0.36 0.336 0.601 0.336 0.12 0 0.264-0.048 0.36-0.096l6.486-3.868c0.336-0.192 0.456-0.625 0.264-0.937zM19.063 10.795l-5.285 3.147-3.147-5.285 5.285-3.147 3.147 5.285zM22.114 12.116c-0.192-0.336-0.625-0.432-0.961-0.24l-6.991 4.156c-0.48-0.288-1.081-0.384-1.634-0.264l-6.174-10.426c-0.096-0.168-0.264-0.288-0.456-0.312l-3.291-0.649c-0.36-0.072-0.745 0.168-0.817 0.553s0.192 0.745 0.553 0.817l2.979 0.577 6.006 10.114c-0.649 0.721-0.793 1.802-0.264 2.667 0.625 1.081 2.018 1.441 3.075 0.793 0.985-0.577 1.369-1.778 0.937-2.787l6.799-4.036c0.336-0.192 0.432-0.625 0.24-0.961z"></path>
</svg>
