<!-- Generated by IcoMoon.io -->
<svg version="1.1" xmlns="http://www.w3.org/2000/svg" width="29" height="24" viewBox="0 0 29 24">
<title>bullhorn</title>
<path d="M6.030 10.471c0.216 0 0.384-0.216 0.384-0.432s-0.168-0.384-0.384-0.384h-2.402c-0.216 0-0.432 0.168-0.432 0.384s0.216 0.432 0.432 0.432h2.402zM6.030 12.201c0.216 0 0.384-0.216 0.384-0.408s-0.168-0.408-0.384-0.408h-2.402c-0.216 0-0.432 0.192-0.432 0.408s0.216 0.408 0.432 0.408h2.402zM11.075 12.537c2.859 0 5.069 1.009 6.967 2.907v-9.033c-1.874 1.97-4.108 3.027-6.967 3.027v3.099zM23.014 7.252l-0.793-0.817 3.291-3.267 0.817 0.769zM23.615 11.456v-1.153h5.525v1.153h-5.525zM22.222 15.564l0.793-0.817 3.315 3.315-0.817 0.769zM19.147 3.168c0.48 0 0.865 0.36 0.865 0.817v13.862c0 0.456-0.384 0.817-0.865 0.817s-0.841-0.36-0.841-0.817c-1.417-1.73-3.892-3.964-7.615-3.964h-1.537l3.363 5.67-2.042 1.489c-0.504 0.264-1.057-0.072-1.345-0.432l-4.18-6.727h-2.258s-2.090-1.129-2.090-2.931 2.090-2.835 2.090-2.835h8c3.724 0 6.198-2.306 7.615-4.132 0-0.456 0.36-0.817 0.841-0.817z"></path>
</svg>
