<!-- Generated by IcoMoon.io -->
<svg version="1.1" xmlns="http://www.w3.org/2000/svg" width="22" height="24" viewBox="0 0 22 24">
<title>calendar</title>
<path d="M1.706 22.459h3.868v-3.868h-3.868v3.868zM6.438 22.459h4.276v-3.868h-4.276v3.868zM1.706 17.726h3.868v-4.276h-3.868v4.276zM6.438 17.726h4.276v-4.276h-4.276v4.276zM1.706 12.585h3.868v-3.868h-3.868v3.868zM11.579 22.459h4.3v-3.868h-4.3v3.868zM6.438 12.585h4.276v-3.868h-4.276v3.868zM16.72 22.459h3.868v-3.868h-3.868v3.868zM11.579 17.726h4.3v-4.276h-4.3v4.276zM6.871 6.147v-3.868q0-0.168-0.144-0.288t-0.288-0.144h-0.865q-0.168 0-0.288 0.144t-0.144 0.288v3.868q0 0.168 0.144 0.312t0.288 0.12h0.865q0.168 0 0.288-0.12t0.144-0.312zM16.72 17.726h3.868v-4.276h-3.868v4.276zM11.579 12.585h4.3v-3.868h-4.3v3.868zM16.72 12.585h3.868v-3.868h-3.868v3.868zM17.153 6.147v-3.868q0-0.168-0.12-0.288t-0.312-0.144h-0.841q-0.168 0-0.312 0.144t-0.12 0.288v3.868q0 0.168 0.12 0.312t0.312 0.12h0.841q0.192 0 0.312-0.12t0.12-0.312zM22.318 5.282v17.177q0 0.697-0.529 1.201t-1.201 0.504h-18.882q-0.697 0-1.201-0.504t-0.504-1.201v-17.177q0-0.697 0.504-1.201t1.201-0.504h1.73v-1.297q0-0.889 0.625-1.513t1.513-0.625h0.865q0.889 0 1.513 0.625t0.625 1.513v1.297h5.141v-1.297q0-0.889 0.649-1.513t1.513-0.625h0.841q0.889 0 1.538 0.625t0.625 1.513v1.297h1.706q0.697 0 1.201 0.504t0.529 1.201z"></path>
</svg>
