<!-- Generated by IcoMoon.io -->
<svg version="1.1" xmlns="http://www.w3.org/2000/svg" width="32" height="32" viewBox="0 0 32 32">
<title>camera-on</title>
<path fill="#2a9cc8" d="M23.256 6.472l-2.248-3.365c-0.596-0.889-1.592-1.42-2.663-1.42h-4.689c-1.071 0-2.067 0.531-2.663 1.42l-2.248 3.365h-5.544c-1.765 0-3.2 1.432-3.2 3.192v17.548c0 1.758 1.435 3.104 3.2 3.104h25.6c1.765 0 3.2-1.346 3.2-3.104v-17.548c0-1.76-1.435-3.192-3.2-3.192h-5.544zM7.579 18.526c0-4.648 3.773-8.421 8.421-8.421s8.421 3.773 8.421 8.421c0 4.648-3.773 8.421-8.421 8.421s-8.421-3.773-8.421-8.421z"></path>
<path fill="#2a9cc8" d="M10.947 18.526c0-2.789 2.264-5.053 5.053-5.053s5.053 2.264 5.053 5.053c0 2.789-2.264 5.053-5.053 5.053s-5.053-2.264-5.053-5.053z"></path>
</svg>
