<?xml version="1.0" standalone="no"?><!-- Generator: Gravit.io --><svg xmlns="http://www.w3.org/2000/svg" xmlns:xlink="http://www.w3.org/1999/xlink" style="isolation:isolate" viewBox="0 0 19 17" width="19" height="17"><defs><clipPath id="_clipPath_Y652eOe40tVyywfxy2rXQHjEyhJz1FWA"><rect width="19" height="17"/></clipPath></defs><g clip-path="url(#_clipPath_Y652eOe40tVyywfxy2rXQHjEyhJz1FWA)"><path d=" M 13.808 2.843 L 12.473 0.845 C 12.119 0.317 11.528 0.002 10.892 0.002 L 8.108 0.002 C 7.472 0.002 6.881 0.317 6.527 0.845 L 5.192 2.843 L 1.9 2.843 C 0.852 2.843 0 3.693 0 4.738 L 0 15.157 C 0 16.201 0.852 17 1.9 17 L 17.1 17 C 18.148 17 19 16.201 19 15.157 L 19 4.738 C 19 3.693 18.148 2.843 17.1 2.843 L 13.808 2.843 Z  M 4.5 10 C 4.5 7.24 6.74 5 9.5 5 C 12.26 5 14.5 7.24 14.5 10 C 14.5 12.76 12.26 15 9.5 15 C 6.74 15 4.5 12.76 4.5 10 Z " fill-rule="evenodd" fill="rgb(42,156,200)"/><path d=" M 6.5 10 C 6.5 8.344 7.844 7 9.5 7 C 11.156 7 12.5 8.344 12.5 10 C 12.5 11.656 11.156 13 9.5 13 C 7.844 13 6.5 11.656 6.5 10 Z " fill="rgb(42,156,200)"/></g></svg>