<!-- Generated by IcoMoon.io -->
<svg version="1.1" xmlns="http://www.w3.org/2000/svg" width="32" height="32" viewBox="0 0 32 32">
<title>cancel</title>
<path d="M21.333 19.731l-1.602 1.602-3.731-3.731-3.731 3.731-1.602-1.602 3.731-3.731-3.731-3.731 1.602-1.602 3.731 3.731 3.731-3.731 1.602 1.602-3.731 3.731 3.731 3.731zM16 3.556c-6.872 0-12.444 5.573-12.444 12.444s5.573 12.444 12.444 12.444c6.873 0 12.444-5.573 12.444-12.444s-5.571-12.444-12.444-12.444v0z"></path>
<path d="M21.333 19.731l-1.602 1.602-3.731-3.731-3.731 3.731-1.602-1.602 3.731-3.731-3.731-3.731 1.602-1.602 3.731 3.731 3.731-3.731 1.602 1.602-3.731 3.731 3.731 3.731zM16 3.556c-6.872 0-12.444 5.573-12.444 12.444s5.573 12.444 12.444 12.444c6.873 0 12.444-5.573 12.444-12.444s-5.571-12.444-12.444-12.444v0z"></path>
</svg>
