<!-- Generated by IcoMoon.io -->
<svg version="1.1" xmlns="http://www.w3.org/2000/svg" width="24" height="24" viewBox="0 0 24 24">
<title>chat2</title>
<path d="M18.882 10.447q0 1.85-1.273 3.435t-3.435 2.498-4.733 0.913q-1.153 0-2.354-0.216-1.682 1.177-3.724 1.73-0.504 0.12-1.153 0.216h-0.048q-0.144 0-0.288-0.12t-0.144-0.288q-0.024-0.024-0.024-0.072t0.024-0.096 0.024-0.072l0.024-0.072t0.048-0.072 0.048-0.072 0.072-0.072 0.048-0.048q0.072-0.072 0.312-0.336t0.36-0.384 0.288-0.408 0.336-0.504 0.264-0.601q-1.658-0.961-2.595-2.354t-0.961-3.003q0-1.874 1.273-3.459t3.435-2.498 4.733-0.913 4.733 0.913 3.435 2.498 1.273 3.459zM24.023 13.858q0 1.61-0.961 3.027t-2.595 2.354q0.12 0.336 0.264 0.601t0.336 0.504 0.312 0.384 0.336 0.408 0.312 0.336q0 0 0.048 0.048t0.072 0.072 0.048 0.072 0.048 0.072l0.024 0.072t0.024 0.072 0.024 0.096-0.024 0.072q-0.048 0.192-0.168 0.312t-0.288 0.096q-0.673-0.096-1.153-0.216-2.066-0.553-3.748-1.73-1.201 0.216-2.354 0.216-3.628 0-6.318-1.778 0.769 0.072 1.177 0.072 2.162 0 4.132-0.601t3.555-1.73q1.658-1.249 2.571-2.859t0.889-3.387q0-1.033-0.312-2.042 1.73 0.937 2.739 2.378t1.009 3.075z"></path>
</svg>
