<!-- Generated by IcoMoon.io -->
<svg version="1.1" xmlns="http://www.w3.org/2000/svg" width="18" height="24" viewBox="0 0 18 24">
<title>check-1</title>
<path d="M13.765 20.921h-10.018q-1.562 0-2.643-1.105t-1.105-2.643v-10.042q0-1.562 1.105-2.643t2.643-1.105h6.246q0.529 0 0.889 0.384t0.384 0.865-0.384 0.889-0.889 0.384h-6.246q-0.504 0-0.889 0.36t-0.36 0.865v10.042q0 0.504 0.36 0.865t0.889 0.36h10.018q0.504 0 0.865-0.36t0.384-0.865v-3.772q0-0.504 0.384-0.865t0.889-0.384 0.865 0.384 0.36 0.865v3.772q0 1.562-1.105 2.643t-2.643 1.105zM10.21 15.684q-0.697 0-1.177-0.48l-3.315-3.315q-0.48-0.529-0.48-1.201t0.48-1.177 1.153-0.48 1.177 0.48l1.802 1.778 4.324-6.823q0.336-0.601 1.009-0.793t1.273 0.12 0.793 1.009-0.168 1.273l-5.405 8.745q-0.432 0.865-1.465 0.865z"></path>
</svg>
