<!-- Generated by IcoMoon.io -->
<svg version="1.1" xmlns="http://www.w3.org/2000/svg" width="31" height="24" viewBox="0 0 31 24">
<title>cubes</title>
<path d="M8.576 22.026l5.141-2.571v-4.228l-5.141 2.21v4.588zM7.712 15.924l5.429-2.306-5.429-2.33-5.405 2.33zM22.318 22.026l5.141-2.571v-4.228l-5.141 2.21v4.588zM21.453 15.924l5.405-2.306-5.405-2.33-5.429 2.33zM15.447 12.008l5.141-2.21v-3.579l-5.141 2.21v3.579zM14.582 6.915l5.91-2.522-5.91-2.546-5.91 2.546zM29.164 13.858v5.597q0 0.48-0.24 0.889t-0.697 0.625l-6.006 3.003q-0.336 0.192-0.769 0.192t-0.769-0.192l-6.006-3.003q-0.072-0.024-0.096-0.048-0.024 0.024-0.096 0.048l-6.006 3.003q-0.336 0.192-0.769 0.192t-0.745-0.192l-6.006-3.003q-0.456-0.216-0.697-0.625t-0.264-0.889v-5.597q0-0.504 0.288-0.937t0.769-0.625l5.814-2.498v-5.357q0-0.529 0.288-0.961t0.745-0.625l6.006-2.571q0.312-0.144 0.673-0.144t0.673 0.144l6.006 2.571q0.48 0.216 0.769 0.625t0.288 0.961v5.357l5.814 2.498q0.48 0.192 0.769 0.625t0.264 0.937z"></path>
</svg>
