<!-- Generated by IcoMoon.io -->
<svg version="1.1" xmlns="http://www.w3.org/2000/svg" width="24" height="24" viewBox="0 0 24 24">
<title>deleted_files</title>
<path d="M3.375 3.375c-1.197 0-2.156 0.96-2.156 2.156v12.938c0 1.191 0.965 2.156 2.156 2.156v0h17.25c1.191 0 2.156-0.965 2.156-2.156v0-10.781c0-1.197-0.97-2.156-2.156-2.156h-8.625l-2.156-2.156zM15.432 8.437h2.455l0.491 0.491h1.716v0.981h-6.871v-0.981h1.718zM13.714 10.4h5.89v5.89c-0 0.542-0.439 0.981-0.981 0.981h-3.925c-0.001 0-0.001 0-0.002 0-0.542 0-0.981-0.439-0.981-0.981v-0z"></path>
</svg>
