<?xml version="1.0" encoding="UTF-8" standalone="no"?>
<!DOCTYPE svg PUBLIC "-//W3C//DTD SVG 1.1//EN" "http://www.w3.org/Graphics/SVG/1.1/DTD/svg11.dtd">
<svg width="100%" height="100%" viewBox="0 0 22 24" version="1.1" xmlns="http://www.w3.org/2000/svg" xmlns:xlink="http://www.w3.org/1999/xlink" xml:space="preserve" style="fill-rule:evenodd;clip-rule:evenodd;stroke-linejoin:round;stroke-miterlimit:1.41421;">
    <g transform="matrix(1,0,0,1,0,-0.000291958)">
        <g>
            <path d="M21.174,3.015C21.26,3.034 21.342,3.056 21.423,3.094C21.661,3.205 21.85,3.41 21.94,3.658C21.98,3.77 21.995,3.882 22,4L22,23C21.995,23.118 21.98,23.23 21.94,23.342C21.839,23.618 21.618,23.839 21.342,23.94C21.23,23.98 21.118,23.995 21,24L1,24C0.882,23.995 0.77,23.98 0.658,23.94C0.382,23.839 0.161,23.618 0.06,23.342C0.02,23.23 0.005,23.118 0,23L0,4C0.005,3.882 0.02,3.77 0.06,3.658C0.161,3.382 0.382,3.161 0.658,3.06C0.77,3.02 0.882,3.005 1,3L5,3L5,5L2,5L2,22L20,22L20,5L16,5L16,3L21,3L21.087,3.004C21.116,3.008 21.145,3.011 21.174,3.015Z" style="fill:rgb(151,151,151);fill-rule:nonzero;"/>
            <g id="Ajuster">
                <path d="M16.024,0C16.121,0.005 16.216,0.019 16.309,0.049C16.587,0.139 16.816,0.352 16.926,0.623C16.969,0.729 16.991,0.838 16.999,0.952C16.999,3.45 16.999,4.615 16.999,7.048C16.987,7.211 16.945,7.366 16.862,7.507C16.671,7.832 16.303,8.025 15.928,7.997C15.831,7.99 15.736,7.969 15.645,7.935C15.54,7.895 15.441,7.837 15.355,7.764C15.257,7.681 15.174,7.579 15.115,7.465C15.046,7.334 15.012,7.194 15.001,7.048C15.001,4.41 15.001,3.432 15.001,0.952C15.008,0.855 15.024,0.76 15.057,0.668C15.148,0.408 15.348,0.193 15.601,0.083C15.705,0.038 15.814,0.014 15.928,0.003C15.976,0 15.975,0 16.024,0Z" style="fill:rgb(151,151,151);fill-rule:nonzero;"/>
                <path d="M6.024,0C6.121,0.005 6.216,0.019 6.309,0.049C6.587,0.139 6.816,0.352 6.926,0.623C6.969,0.729 6.991,0.838 6.999,0.952C6.999,3.198 6.999,4.425 6.999,7.048C6.988,7.194 6.954,7.334 6.885,7.465C6.826,7.579 6.743,7.681 6.645,7.764C6.559,7.837 6.46,7.895 6.355,7.935C6.264,7.969 6.169,7.99 6.072,7.997C5.697,8.025 5.329,7.832 5.138,7.507C5.055,7.366 5.013,7.211 5.001,7.048C5.001,4.549 5.001,3.323 5.001,0.952C5.008,0.855 5.024,0.76 5.057,0.668C5.148,0.408 5.348,0.193 5.601,0.083C5.705,0.038 5.814,0.014 5.928,0.003C5.976,0 5.976,0 6.024,0Z" style="fill:rgb(151,151,151);fill-rule:nonzero;"/>
                <path d="M11.04,3.001C11.187,3.01 11.328,3.044 11.459,3.112C11.577,3.173 11.682,3.257 11.767,3.359C11.844,3.451 11.904,3.556 11.943,3.668C12.064,4.011 11.985,4.402 11.741,4.671C11.67,4.75 11.586,4.817 11.494,4.869C11.354,4.949 11.2,4.99 11.04,4.999C9.191,4.999 8.666,4.999 6.96,4.999C6.813,4.99 6.672,4.956 6.541,4.888C6.423,4.827 6.318,4.743 6.233,4.641C6.156,4.549 6.096,4.444 6.057,4.332C6.021,4.232 6.002,4.126 6,4.02C5.993,3.657 6.19,3.31 6.506,3.131C6.646,3.051 6.8,3.01 6.96,3.001C8.47,3.001 9.283,3.001 11.04,3.001Z" style="fill:rgb(151,151,151);fill-rule:nonzero;"/>
                <path d="M16.063,10.002C16.126,10.008 16.187,10.016 16.249,10.031C16.391,10.068 16.524,10.136 16.637,10.229C16.967,10.503 17.087,10.97 16.93,11.368C16.891,11.466 16.837,11.557 16.771,11.637C16.69,11.734 16.592,11.816 16.482,11.876C16.351,11.948 16.211,11.984 16.063,11.998C11.772,11.999 10.193,11.999 6,12C5.937,11.998 5.875,11.994 5.813,11.982C5.668,11.955 5.531,11.895 5.412,11.809C5.327,11.747 5.253,11.673 5.191,11.588C4.992,11.313 4.945,10.947 5.07,10.632C5.109,10.534 5.163,10.443 5.229,10.363C5.31,10.266 5.408,10.184 5.518,10.124C5.649,10.052 5.789,10.016 5.937,10.002C9.704,10.002 11.446,10.002 16.063,10.002Z" style="fill:rgb(151,151,151);fill-rule:nonzero;"/>
                <path d="M16.063,15.002C16.126,15.008 16.187,15.016 16.249,15.031C16.391,15.068 16.524,15.136 16.637,15.229C16.718,15.296 16.788,15.376 16.844,15.464C17.074,15.826 17.044,16.307 16.771,16.637C16.69,16.734 16.592,16.816 16.482,16.876C16.351,16.948 16.211,16.984 16.063,16.998C11.966,16.999 10.951,16.999 6,17C5.937,16.998 5.875,16.994 5.813,16.982C5.668,16.955 5.531,16.895 5.412,16.809C5.327,16.747 5.253,16.673 5.191,16.588C4.992,16.313 4.945,15.947 5.07,15.632C5.109,15.534 5.163,15.443 5.229,15.363C5.31,15.266 5.408,15.184 5.518,15.124C5.649,15.052 5.789,15.016 5.937,15.002C9.915,15.002 11.899,15.002 16.063,15.002Z" style="fill:rgb(151,151,151);fill-rule:nonzero;"/>
            </g>
        </g>
    </g>
</svg>
