<!-- Generated by IcoMoon.io -->
<svg version="1.1" xmlns="http://www.w3.org/2000/svg" width="32" height="32" viewBox="0 0 32 32">
<title>devoirs-off</title>
<path fill="#979797" d="M29.565 4.020c0.115 0.025 0.224 0.055 0.332 0.105 0.317 0.148 0.569 0.421 0.689 0.752 0.053 0.149 0.073 0.299 0.080 0.456v25.333c-0.007 0.157-0.027 0.307-0.080 0.456-0.135 0.368-0.429 0.663-0.797 0.797-0.149 0.053-0.299 0.073-0.456 0.080h-26.667c-0.157-0.007-0.307-0.027-0.456-0.080-0.368-0.135-0.663-0.429-0.797-0.797-0.053-0.149-0.073-0.299-0.080-0.456v-25.333c0.007-0.157 0.027-0.307 0.080-0.456 0.135-0.368 0.429-0.663 0.797-0.797 0.149-0.053 0.299-0.073 0.456-0.080h5.333v2.667h-4v22.667h24v-22.667h-5.333v-2.667l6.783 0.005c0.039 0.005 0.077 0.009 0.116 0.015z"></path>
<path fill="#979797" d="M22.699-0c0.129 0.007 0.256 0.025 0.38 0.065 0.371 0.12 0.676 0.404 0.823 0.765 0.057 0.141 0.087 0.287 0.097 0.439 0 3.331 0 4.884 0 8.128-0.016 0.217-0.072 0.424-0.183 0.612-0.255 0.433-0.745 0.691-1.245 0.653-0.129-0.009-0.256-0.037-0.377-0.083-0.14-0.053-0.272-0.131-0.387-0.228-0.131-0.111-0.241-0.247-0.32-0.399-0.092-0.175-0.137-0.361-0.152-0.556 0-3.517 0-4.821 0-8.128 0.009-0.129 0.031-0.256 0.075-0.379 0.121-0.347 0.388-0.633 0.725-0.78 0.139-0.060 0.284-0.092 0.436-0.107 0.064-0.004 0.063-0.004 0.128-0.004z"></path>
<path fill="#979797" d="M9.365-0c0.129 0.007 0.256 0.025 0.38 0.065 0.371 0.12 0.676 0.404 0.823 0.765 0.057 0.141 0.087 0.287 0.097 0.439 0 2.995 0 4.631 0 8.128-0.015 0.195-0.060 0.381-0.152 0.556-0.079 0.152-0.189 0.288-0.32 0.399-0.115 0.097-0.247 0.175-0.387 0.228-0.121 0.045-0.248 0.073-0.377 0.083-0.5 0.037-0.991-0.22-1.245-0.653-0.111-0.188-0.167-0.395-0.183-0.612 0-3.332 0-4.967 0-8.128 0.009-0.129 0.031-0.256 0.075-0.379 0.121-0.347 0.388-0.633 0.725-0.78 0.139-0.060 0.284-0.092 0.436-0.107 0.064-0.004 0.064-0.004 0.128-0.004z"></path>
<path fill="#979797" d="M16.053 4.001c0.196 0.012 0.384 0.057 0.559 0.148 0.157 0.081 0.297 0.193 0.411 0.329 0.103 0.123 0.183 0.263 0.235 0.412 0.161 0.457 0.056 0.979-0.269 1.337-0.095 0.105-0.207 0.195-0.329 0.264-0.187 0.107-0.392 0.161-0.605 0.173-2.465 0-3.165 0-5.44 0-0.196-0.012-0.384-0.057-0.559-0.148-0.157-0.081-0.297-0.193-0.411-0.329-0.103-0.123-0.183-0.263-0.235-0.412-0.048-0.133-0.073-0.275-0.076-0.416-0.009-0.484 0.253-0.947 0.675-1.185 0.187-0.107 0.392-0.161 0.605-0.173 2.013 0 3.097 0 5.44 0z"></path>
<path fill="#979797" d="M22.751 13.336c0.084 0.008 0.165 0.019 0.248 0.039 0.189 0.049 0.367 0.14 0.517 0.264 0.44 0.365 0.6 0.988 0.391 1.519-0.052 0.131-0.124 0.252-0.212 0.359-0.108 0.129-0.239 0.239-0.385 0.319-0.175 0.096-0.361 0.144-0.559 0.163-5.721 0.001-7.827 0.001-13.417 0.003-0.084-0.003-0.167-0.008-0.249-0.024-0.193-0.036-0.376-0.116-0.535-0.231-0.113-0.083-0.212-0.181-0.295-0.295-0.265-0.367-0.328-0.855-0.161-1.275 0.052-0.131 0.124-0.252 0.212-0.359 0.108-0.129 0.239-0.239 0.385-0.319 0.175-0.096 0.361-0.144 0.559-0.163 5.023 0 7.345 0 13.501 0z"></path>
<path fill="#979797" d="M22.751 20.002c0.084 0.008 0.165 0.019 0.248 0.039 0.189 0.049 0.367 0.14 0.517 0.264 0.108 0.089 0.201 0.196 0.276 0.313 0.307 0.483 0.267 1.124-0.097 1.564-0.108 0.129-0.239 0.239-0.385 0.319-0.175 0.096-0.361 0.144-0.559 0.163-5.463 0.001-6.816 0.001-13.417 0.003-0.084-0.003-0.167-0.008-0.249-0.024-0.193-0.036-0.376-0.116-0.535-0.231-0.113-0.083-0.212-0.181-0.295-0.295-0.265-0.367-0.328-0.855-0.161-1.275 0.052-0.131 0.124-0.252 0.212-0.359 0.108-0.129 0.239-0.239 0.385-0.319 0.175-0.096 0.361-0.144 0.559-0.163 5.304 0 7.949 0 13.501 0z"></path>
</svg>
