<!-- Generated by IcoMoon.io -->
<svg version="1.1" xmlns="http://www.w3.org/2000/svg" width="24" height="24" viewBox="0 0 24 24">
<title>devoirs-on</title>
<path d="M22.944 3.665c-0.097-0.248-0.279-0.445-0.51-0.56l-0.006-0.003c-0.073-0.032-0.158-0.058-0.246-0.074l-0.007-0.001c-0.028 0-0.056-0.009-0.084-0.009h-4.087v4.050c-0.010 0.171-0.061 0.328-0.143 0.464l0.003-0.005c-0.177 0.296-0.496 0.49-0.86 0.49-0.027 0-0.054-0.001-0.081-0.003l0.004 0c-0.103-0.009-0.199-0.033-0.288-0.068l0.007 0.002c-0.112-0.040-0.209-0.098-0.292-0.17l0.001 0.001c-0.095-0.086-0.176-0.185-0.241-0.294l-0.003-0.006c-0.062-0.12-0.102-0.26-0.112-0.409l-0-0.003v-4.050h-8.006v4.050c-0.008 0.152-0.049 0.293-0.115 0.418l0.003-0.005c-0.062 0.119-0.143 0.219-0.242 0.299l-0.002 0.001c-0.082 0.071-0.179 0.129-0.284 0.167l-0.006 0.002c-0.108 0.044-0.233 0.069-0.363 0.069-0.363 0-0.68-0.195-0.853-0.486l-0.003-0.005c-0.075-0.133-0.126-0.289-0.14-0.455l-0-0.004v-4.059h-3.984c-0.122 0.004-0.237 0.024-0.347 0.059l0.009-0.002c-0.278 0.106-0.494 0.322-0.598 0.593l-0.002 0.007c-0.035 0.101-0.056 0.217-0.056 0.337v19.003c0.004 0.122 0.024 0.237 0.059 0.346l-0.002-0.009c0.106 0.278 0.322 0.494 0.593 0.598l0.007 0.002c0.101 0.035 0.217 0.056 0.337 0.056h19.997c0.122-0.004 0.237-0.024 0.346-0.059l-0.009 0.002c0.278-0.106 0.494-0.322 0.598-0.593l0.002-0.007c0.035-0.101 0.056-0.217 0.056-0.337v-18.994c0.001-0.018 0.002-0.039 0.002-0.060 0-0.103-0.018-0.201-0.051-0.293l0.002 0.006zM17.779 16.649c-0.081 0.095-0.177 0.173-0.285 0.232l-0.005 0.003c-0.122 0.070-0.266 0.114-0.42 0.122l-0.002 0h-10.059c-0.068-0.002-0.132-0.009-0.195-0.020l0.008 0.001c-0.153-0.031-0.288-0.089-0.407-0.171l0.004 0.002c-0.085-0.066-0.159-0.14-0.223-0.222l-0.002-0.003c-0.118-0.165-0.189-0.37-0.189-0.592 0-0.131 0.025-0.256 0.069-0.371l-0.002 0.007c0.044-0.104 0.097-0.193 0.161-0.274l-0.002 0.002c0.081-0.095 0.177-0.173 0.285-0.232l0.005-0.003c0.122-0.070 0.266-0.114 0.42-0.122l0.002-0h10.125c0.070 0.005 0.134 0.015 0.196 0.030l-0.009-0.002c0.148 0.039 0.277 0.107 0.386 0.198l-0.002-0.001c0.080 0.066 0.149 0.144 0.204 0.23l0.002 0.004c0.099 0.154 0.159 0.343 0.159 0.545 0 0.242-0.085 0.464-0.226 0.638l0.001-0.002zM17.938 11.381c-0.044 0.104-0.097 0.193-0.161 0.274l0.002-0.002c-0.081 0.094-0.177 0.173-0.285 0.232l-0.005 0.003c-0.121 0.070-0.266 0.114-0.42 0.122l-0.002 0h-10.059c-0.068-0.002-0.132-0.009-0.195-0.020l0.008 0.001c-0.153-0.031-0.288-0.089-0.407-0.171l0.004 0.002c-0.085-0.066-0.159-0.14-0.223-0.222l-0.002-0.003c-0.118-0.165-0.189-0.37-0.189-0.592 0-0.131 0.025-0.256 0.069-0.371l-0.002 0.007c0.044-0.104 0.097-0.193 0.161-0.274l-0.002 0.002c0.081-0.095 0.177-0.173 0.285-0.232l0.005-0.003c0.122-0.070 0.266-0.114 0.42-0.122l0.002-0h10.125c0.070 0.005 0.134 0.015 0.196 0.030l-0.009-0.002c0.148 0.039 0.277 0.107 0.386 0.198l-0.002-0.001c0.223 0.191 0.364 0.472 0.364 0.787 0 0.128-0.023 0.251-0.066 0.364l0.002-0.007z"></path>
</svg>
