<?xml version="1.0" encoding="utf-8"?>
<!-- Generator: Adobe Illustrator 22.1.0, SVG Export Plug-In . SVG Version: 6.00 Build 0)  -->
<svg version="1.1" id="Calque_1" xmlns="http://www.w3.org/2000/svg" xmlns:xlink="http://www.w3.org/1999/xlink" x="0px" y="0px"
	 viewBox="0 0 256 256" style="enable-background:new 0 0 256 256;" xml:space="preserve">
<style type="text/css">
	.st0{fill:#2B9CCA;}
</style>
<path class="st0" d="M244.7,39c-1-2.6-3-4.8-5.5-6c-0.9-0.4-1.7-0.6-2.7-0.8c-0.3,0-0.6-0.1-0.9-0.1l-0.9,0H192
	c0,13.6,0,23.6,0,43.2c-0.1,1.7-0.6,3.4-1.5,4.9c-2,3.5-6,5.5-10,5.2c-1-0.1-2-0.3-3-0.7c-1.1-0.4-2.2-1-3.1-1.8
	c-1-0.9-1.9-2-2.6-3.2c-0.7-1.4-1.1-2.9-1.2-4.4c0-21.4,0-31.6,0-43.2c-38.5,0-52.4,0-85.4,0c0,13.3,0,22.6,0,43.2
	c-0.1,1.6-0.5,3.1-1.2,4.4c-0.6,1.2-1.5,2.3-2.6,3.2c-0.9,0.8-2,1.4-3.1,1.8c-1,0.4-2,0.6-3,0.7c-4,0.3-7.9-1.8-10-5.2
	c-0.9-1.5-1.3-3.2-1.5-4.9c0-14.3,0-23.7,0-32.5h0V32H21.3c-1.3,0.1-2.5,0.2-3.6,0.6c-2.9,1.1-5.3,3.4-6.4,6.4
	c-0.4,1.2-0.6,2.4-0.6,3.6v202.7c0.1,1.3,0.2,2.5,0.6,3.6c1.1,2.9,3.4,5.3,6.4,6.4c1.2,0.4,2.4,0.6,3.6,0.6h213.3
	c1.3-0.1,2.5-0.2,3.6-0.6c2.9-1.1,5.3-3.4,6.4-6.4c0.4-1.2,0.6-2.4,0.6-3.6V42.7C245.3,41.4,245.1,40.2,244.7,39z M189.6,177.5
	c-0.9,1-1.9,1.9-3.1,2.5c-1.4,0.8-2.9,1.2-4.5,1.3c-46.1,0-63.7,0-107.3,0c-0.7,0-1.3-0.1-2-0.2c-1.5-0.3-3-0.9-4.3-1.8
	c-0.9-0.7-1.7-1.5-2.4-2.4c-2.1-2.9-2.6-6.8-1.3-10.2c0.4-1,1-2,1.7-2.9c0.9-1,1.9-1.9,3.1-2.5c1.4-0.8,2.9-1.2,4.5-1.3
	c49.2,0,53.5,0,108,0c0.7,0.1,1.3,0.1,2,0.3c1.5,0.4,2.9,1.1,4.1,2.1c0.9,0.7,1.6,1.6,2.2,2.5C192.8,168.8,192.5,173.9,189.6,177.5z
	 M191.3,121.3c-0.4,1-1,2-1.7,2.9c-0.9,1-1.9,1.9-3.1,2.5c-1.4,0.8-2.9,1.2-4.5,1.3c-44.2,0-58.7,0-107.3,0c-0.7,0-1.3-0.1-2-0.2
	c-1.5-0.3-3-0.9-4.3-1.8c-0.9-0.7-1.7-1.5-2.4-2.4c-2.1-2.9-2.6-6.8-1.3-10.2c0.4-1,1-2,1.7-2.9c0.9-1,1.9-1.9,3.1-2.5
	c1.4-0.8,2.9-1.2,4.5-1.3c45.3,0,61.8,0,108,0c0.7,0.1,1.3,0.1,2,0.3c1.5,0.4,2.9,1.1,4.1,2.1C191.6,112,192.9,117,191.3,121.3z"/>
</svg>
