<!-- Generated by IcoMoon.io -->
<svg version="1.1" xmlns="http://www.w3.org/2000/svg" width="32" height="32" viewBox="0 0 32 32">
<title>draft</title>
<path fill="#858fa9" d="M4.362 7.394c1.179-1.196 2.358-2.274 2.88-2.055 0.842 0.337 0 1.735-0.505 2.56-0.421 0.707-4.817 6.552-4.817 10.627 0 2.156 0.808 3.941 2.257 5.019 1.263 0.943 2.931 1.229 4.446 0.775 1.802-0.522 3.284-2.358 5.154-4.665 2.038-2.509 4.766-5.794 6.872-5.794 2.745 0 2.779 1.701 2.964 3.015-6.366 1.078-9.061 6.181-9.061 9.044s2.425 5.204 5.406 5.204c2.745 0 7.225-2.24 7.899-10.274h4.143v-4.211h-4.16c-0.253-2.779-1.836-7.074-6.787-7.074-3.789 0-7.040 3.217-8.32 4.783-0.977 1.229-3.469 4.177-3.857 4.581-0.421 0.505-1.145 1.415-1.869 1.415-0.758 0-1.213-1.398-0.606-3.234 0.589-1.836 2.358-4.817 3.116-5.928 1.314-1.92 2.189-3.234 2.189-5.524 0-3.655-2.762-4.817-4.227-4.817-2.223 0-4.16 1.684-4.581 2.105-0.606 0.606-1.112 1.112-1.482 1.566l2.947 2.88zM20.008 27.032c-0.522 0-1.246-0.438-1.246-1.213 0-1.011 1.229-3.705 4.834-4.648-0.505 4.531-2.408 5.861-3.587 5.861z"></path>
</svg>
