<!-- Generated by IcoMoon.io -->
<svg version="1.1" xmlns="http://www.w3.org/2000/svg" width="24" height="24" viewBox="0 0 24 24">
<title>eye-slash</title>
<path d="M10.050 16.056l6-6.038c0.3 0.6 0.45 1.275 0.45 1.913 0 2.513-1.987 4.538-4.5 4.575-0.675 0-1.35-0.15-1.95-0.45zM8.813 15.156l-4.238 4.238c0 0-0.037 0.038-0.037 0.038-0.3 0.3-0.787 0.262-1.050-0.038s-0.3-0.75 0-1.050l1.125-1.125c-1.988-1.312-3.563-3.112-4.613-5.25 2.25-4.575 6.9-7.5 12-7.5 1.575 0 3.112 0.262 4.575 0.825l1.8-1.8c0.263-0.225 0.675-0.225 0.938 0 0.337 0.262 0.375 0.713 0.112 1.050l-10.612 10.613zM7.5 12.006c-0.038-2.512 1.988-4.538 4.5-4.575 0.675 0 1.35 0.15 1.95 0.45l1.425-1.387c-5.288-1.575-10.95 0.675-13.688 5.475 0.975 1.688 2.363 3.15 4.012 4.163l2.25-2.25c-0.3-0.563-0.45-1.2-0.45-1.875zM19.388 6.719l-1.088 1.087c1.65 1.050 3.038 2.475 4.012 4.162-2.1 3.712-6.038 6-10.313 6-1.125 0-2.288-0.15-3.375-0.488l-1.2 1.163c1.462 0.525 3 0.825 4.575 0.825 5.1 0 9.75-2.925 12-7.5-1.050-2.138-2.663-3.938-4.612-5.25z"></path>
</svg>
