<!-- Generated by IcoMoon.io -->
<svg version="1.1" xmlns="http://www.w3.org/2000/svg" width="24" height="24" viewBox="0 0 24 24">
<title>eye</title>
<path d="M12 4.562c-5.1 0-9.75 2.925-12 7.5 3.225 6.638 11.212 9.375 17.85 6.15 2.663-1.313 4.837-3.488 6.15-6.15-2.25-4.575-6.9-7.5-12-7.5zM6.15 16.487c-1.875-1.050-3.412-2.588-4.463-4.425 2.1-3.713 6.038-6 10.313-6s8.212 2.287 10.313 6c-3.263 5.7-10.5 7.687-16.163 4.425zM12.038 7.525c0 0-0.038 0 0 0-2.55-0.037-4.575 1.988-4.613 4.5 0 2.513 1.988 4.537 4.5 4.575 2.512 0 4.537-1.987 4.575-4.5 0 0 0-0.038 0-0.038 0-2.475-1.987-4.5-4.462-4.537zM10.5 12.062c-0.825 0-1.5-0.675-1.5-1.5s0.675-1.5 1.5-1.5 1.5 0.675 1.5 1.5-0.675 1.5-1.5 1.5z"></path>
</svg>
