<!-- Generated by IcoMoon.io -->
<svg version="1.1" xmlns="http://www.w3.org/2000/svg" width="21" height="24" viewBox="0 0 21 24">
<title>file-powerpoint</title>
<path d="M18.505 6.079q0.336 0.336 0.568 0.883t0.231 1.051v13.497q0 0.484-0.315 0.799t-0.799 0.336h-15.768q-0.484 0-0.799-0.336t-0.336-0.799v-18.753q0-0.484 0.336-0.799t0.799-0.336h10.512q0.462 0 1.030 0.231t0.883 0.568zM13.291 3.22v4.415h4.415q-0.105-0.357-0.252-0.484l-3.679-3.679q-0.126-0.147-0.484-0.252zM17.811 21.153v-12.025h-4.877q-0.484 0-0.799-0.336t-0.336-0.778v-4.898h-9.019v18.038h15.032zM6.164 18.398v1.24h3.847v-1.24h-1.093v-1.955h1.598q0.904 0 1.388-0.189 0.778-0.252 1.261-1.009t0.462-1.724q0-0.946-0.441-1.64t-1.177-1.030q-0.568-0.21-1.514-0.21h-4.331v1.24h1.093v6.517h-1.093zM10.305 15.119h-1.388v-3.154h1.409q0.61 0 0.967 0.21 0.652 0.399 0.652 1.345 0 1.051-0.715 1.409-0.378 0.189-0.925 0.189z"></path>
</svg>
