<!-- Generated by IcoMoon.io -->
<svg version="1.1" xmlns="http://www.w3.org/2000/svg" width="21" height="24" viewBox="0 0 21 24">
<title>file-archive1</title>
<path d="M8.792 6.121v-1.493h-1.493v1.493h1.493zM10.305 7.634v-1.514h-1.514v1.514h1.514zM8.792 9.127v-1.493h-1.493v1.493h1.493zM10.305 10.641v-1.514h-1.514v1.514h1.514zM18.505 6.079q0.336 0.336 0.568 0.883t0.231 1.051v13.497q0 0.484-0.315 0.799t-0.799 0.336h-15.768q-0.484 0-0.799-0.336t-0.336-0.799v-18.753q0-0.484 0.336-0.799t0.799-0.336h10.512q0.462 0 1.030 0.231t0.883 0.568zM13.291 3.22v4.415h4.415q-0.105-0.357-0.252-0.484l-3.679-3.679q-0.126-0.147-0.484-0.252zM17.811 21.153v-12.025h-4.877q-0.484 0-0.799-0.336t-0.336-0.778v-4.898h-1.493v1.514h-1.514v-1.514h-6.013v18.038h15.032zM10.453 12.68l1.261 4.1q0.084 0.315 0.084 0.61 0 0.967-0.841 1.619t-2.165 0.631-2.144-0.631-0.862-1.619q0-0.294 0.105-0.61 0.252-0.736 1.409-4.646v-1.493h1.493v1.493h0.925q0.273 0 0.463 0.147t0.273 0.399zM8.792 18.146q0.631 0 1.072-0.231t0.441-0.526-0.441-0.526-1.072-0.231-1.051 0.231-0.441 0.526 0.441 0.526 1.051 0.231z"></path>
</svg>
