<!-- Generated by IcoMoon.io -->
<svg version="1.1" xmlns="http://www.w3.org/2000/svg" width="21" height="24" viewBox="0 0 21 24">
<title>file-word</title>
<path d="M18.505 6.079q0.336 0.336 0.568 0.883t0.231 1.051v13.497q0 0.484-0.315 0.799t-0.799 0.336h-15.768q-0.484 0-0.799-0.336t-0.336-0.799v-18.753q0-0.484 0.336-0.799t0.799-0.336h10.512q0.462 0 1.030 0.231t0.883 0.568zM13.291 3.22v4.415h4.415q-0.105-0.357-0.252-0.484l-3.679-3.679q-0.126-0.147-0.484-0.252zM17.811 21.153v-12.025h-4.877q-0.484 0-0.799-0.336t-0.336-0.778v-4.898h-9.019v18.038h15.032zM4.019 10.641v1.24h0.82l1.934 7.758h1.85l1.514-5.697q0.084-0.231 0.105-0.526 0.042-0.189 0.042-0.294h0.042l0.021 0.294q0.021 0.021 0.042 0.231t0.063 0.294l1.514 5.697h1.871l1.913-7.758h0.82v-1.24h-3.511v1.24h1.051l-1.156 5.151q-0.063 0.231-0.084 0.526l-0.021 0.252h-0.063l-0.021-0.252q-0.021-0.042-0.042-0.231t-0.063-0.294l-1.703-6.391h-1.324l-1.703 6.391q-0.021 0.105-0.042 0.273t-0.042 0.252l-0.042 0.252h-0.042l-0.042-0.252q-0.021-0.294-0.063-0.526l-1.177-5.151h1.051v-1.24h-3.511z"></path>
</svg>
