<!-- Generated by IcoMoon.io -->
<svg version="1.1" xmlns="http://www.w3.org/2000/svg" width="32" height="32" viewBox="0 0 32 32">
<title>file-audio</title>
<path d="M18.667 2.667l8 8v16c0 1.473-1.194 2.667-2.667 2.667v0h-16c-1.473 0-2.667-1.194-2.667-2.667v0-21.333c0-1.473 1.194-2.667 2.667-2.667v0h10.667zM24 26.667v-14.667h-6.667v-6.667h-9.333v21.333h16zM17.333 13.333v2.667h-2.667v6.667c0 1.473-1.194 2.667-2.667 2.667v0c-1.473 0-2.667-1.194-2.667-2.667v0c0-1.473 1.194-2.667 2.667-2.667v0c0.533 0 0.933 0.133 1.333 0.4v-7.067h4z"></path>
</svg>
