<!-- Generated by IcoMoon.io -->
<svg version="1.1" xmlns="http://www.w3.org/2000/svg" width="21" height="24" viewBox="0 0 21 24">
<title>file-archive</title>
<path d="M8.576 5.282v-1.706h-1.706v1.706h1.706zM10.306 7.011v-1.73h-1.73v1.73h1.73zM8.576 8.717v-1.706h-1.706v1.706h1.706zM10.306 10.447v-1.73h-1.73v1.73h1.73zM19.675 5.234q0.384 0.384 0.649 1.009t0.264 1.201v15.423q0 0.553-0.36 0.913t-0.913 0.384h-18.018q-0.553 0-0.913-0.384t-0.384-0.913v-21.429q0-0.553 0.384-0.913t0.913-0.384h12.012q0.529 0 1.177 0.264t1.009 0.649zM13.717 1.967v5.045h5.045q-0.12-0.408-0.288-0.553l-4.204-4.204q-0.144-0.168-0.553-0.288zM18.882 22.459v-13.741h-5.573q-0.553 0-0.913-0.384t-0.384-0.889v-5.597h-1.706v1.73h-1.73v-1.73h-6.871v20.612h17.177zM10.474 12.777l1.441 4.685q0.096 0.36 0.096 0.697 0 1.105-0.961 1.85t-2.474 0.721-2.45-0.721-0.985-1.85q0-0.336 0.12-0.697 0.288-0.841 1.61-5.309v-1.706h1.706v1.706h1.057q0.312 0 0.529 0.168t0.312 0.456zM8.576 19.023q0.721 0 1.225-0.264t0.504-0.601-0.504-0.601-1.225-0.264-1.201 0.264-0.504 0.601 0.504 0.601 1.201 0.264z"></path>
</svg>
