<!-- Generated by IcoMoon.io -->
<svg version="1.1" xmlns="http://www.w3.org/2000/svg" width="21" height="24" viewBox="0 0 21 24">
<title>file-pdf</title>
<path d="M19.675 5.234q0.384 0.384 0.649 1.009t0.264 1.201v15.423q0 0.553-0.36 0.913t-0.913 0.384h-18.018q-0.553 0-0.913-0.384t-0.384-0.913v-21.429q0-0.553 0.384-0.913t0.913-0.384h12.012q0.528 0 1.177 0.264t1.009 0.649zM13.717 1.967v5.045h5.045q-0.12-0.408-0.288-0.553l-4.204-4.204q-0.144-0.168-0.553-0.288zM18.882 22.459v-13.741h-5.573q-0.553 0-0.913-0.384t-0.384-0.889v-5.597h-10.306v20.612h17.177zM11.988 14.507q0.432 0.336 1.129 0.745 0.793-0.096 1.562-0.096 1.97 0 2.378 0.649 0.216 0.312 0.024 0.697 0 0.024-0.024 0.024l-0.024 0.048q-0.072 0.504-0.937 0.504-0.649 0-1.538-0.264t-1.754-0.697q-2.955 0.312-5.261 1.105-2.042 3.507-3.243 3.507-0.192 0-0.36-0.096l-0.336-0.168q0 0-0.072-0.048-0.144-0.144-0.096-0.48 0.12-0.553 0.769-1.225t1.754-1.297q0.192-0.12 0.312 0.072 0.024 0.024 0.024 0.048 0.697-1.129 1.441-2.643 0.913-1.826 1.393-3.507-0.312-1.105-0.408-2.138t0.096-1.706q0.144-0.529 0.553-0.529h0.288q0.312 0 0.48 0.192 0.24 0.288 0.12 0.913-0.024 0.072-0.048 0.096 0 0.048 0 0.12v0.408q-0.024 1.634-0.192 2.571 0.745 2.186 1.97 3.195zM4.276 20.008q0.697-0.312 1.826-2.114-0.697 0.528-1.177 1.129t-0.649 0.985zM9.609 7.684q-0.216 0.553-0.048 1.754 0.024-0.096 0.096-0.577 0-0.048 0.096-0.577 0.024-0.072 0.072-0.12-0.024 0-0.024-0.024t0-0.024-0.024-0.024q0-0.288-0.168-0.48 0 0.024 0 0.024v0.048zM7.928 16.525q1.826-0.721 3.82-1.081-0.024 0-0.168-0.12t-0.216-0.192q-1.033-0.889-1.706-2.354-0.36 1.153-1.105 2.643-0.408 0.745-0.625 1.105zM16.6 16.309q-0.312-0.312-1.874-0.312 1.009 0.384 1.658 0.384 0.192 0 0.24-0.024 0 0-0.024-0.048z"></path>
</svg>
