<!-- Generated by IcoMoon.io -->
<svg version="1.1" xmlns="http://www.w3.org/2000/svg" width="21" height="24" viewBox="0 0 21 24">
<title>file-excel</title>
<path d="M18.505 6.079q0.336 0.336 0.568 0.883t0.231 1.051v13.497q0 0.484-0.315 0.799t-0.799 0.336h-15.768q-0.484 0-0.799-0.336t-0.336-0.799v-18.753q0-0.484 0.336-0.799t0.799-0.336h10.512q0.462 0 1.030 0.231t0.883 0.568zM13.291 3.22v4.415h4.415q-0.105-0.357-0.252-0.484l-3.679-3.679q-0.126-0.147-0.484-0.252zM17.811 21.153v-12.025h-4.877q-0.484 0-0.799-0.336t-0.336-0.778v-4.898h-9.019v18.038h15.032zM6.311 18.398v1.24h3.301v-1.24h-0.883l1.219-1.892q0.063-0.084 0.105-0.189t0.105-0.168 0.042-0.042h0.021q0 0.042 0.063 0.126 0.021 0.042 0.042 0.084t0.063 0.084 0.084 0.105l1.261 1.892h-0.904v1.24h3.427v-1.24h-0.799l-2.25-3.196 2.271-3.322h0.799v-1.24h-3.28v1.24h0.862l-1.198 1.871q-0.042 0.084-0.126 0.189t-0.105 0.168l-0.021 0.021h-0.021q0-0.042-0.063-0.105-0.063-0.126-0.189-0.273l-1.24-1.871h0.883v-1.24h-3.406v1.24h0.799l2.228 3.196-2.292 3.322h-0.799z"></path>
</svg>
