<!-- Generated by IcoMoon.io -->
<svg version="1.1" xmlns="http://www.w3.org/2000/svg" width="32" height="32" viewBox="0 0 32 32">
<title>filter</title>
<path fill="#fff" d="M27.2 4.8c0.882 0 1.6 0.717 1.6 1.6s-0.718 1.6-1.6 1.6c-0.882 0-1.6-0.717-1.6-1.6s0.718-1.6 1.6-1.6zM27.2 11.2c2.646 0 4.8-2.154 4.8-4.8s-2.154-4.8-4.8-4.8c-2.083 0-3.842 1.341-4.504 3.2h-22.696v3.2h22.696c0.662 1.859 2.421 3.2 4.504 3.2z"></path>
<path fill="#fff" d="M11.2 17.6c-0.882 0-1.6-0.717-1.6-1.6s0.718-1.6 1.6-1.6c0.882 0 1.6 0.717 1.6 1.6s-0.718 1.6-1.6 1.6zM11.2 11.2c-2.083 0-3.842 1.341-4.504 3.2h-6.696v3.2h6.696c0.662 1.859 2.421 3.2 4.504 3.2s3.842-1.341 4.504-3.2h16.296v-3.2h-16.296c-0.662-1.859-2.421-3.2-4.504-3.2z"></path>
<path fill="#fff" d="M27.2 27.2c-0.882 0-1.6-0.717-1.6-1.6s0.718-1.6 1.6-1.6c0.882 0 1.6 0.717 1.6 1.6s-0.718 1.6-1.6 1.6zM27.2 20.8c-2.083 0-3.842 1.341-4.504 3.2h-22.696v3.2h22.696c0.662 1.859 2.421 3.2 4.504 3.2 2.646 0 4.8-2.154 4.8-4.8s-2.154-4.8-4.8-4.8z"></path>
</svg>
