<!-- Generated by IcoMoon.io -->
<svg version="1.1" xmlns="http://www.w3.org/2000/svg" width="15" height="24" viewBox="0 0 15 24">
<title>flow-cascade</title>
<path d="M12.492 17.678q1.201 0 2.042 0.841t0.841 2.042-0.841 2.042-2.042 0.841q-1.922 0-2.643-1.778h-3.94q-2.114 0-3.147-1.297t-1.033-2.835v-11.147q-1.73-0.817-1.73-2.643 0-1.201 0.841-2.042t2.042-0.841 2.042 0.841 0.841 2.042q0 1.826-1.73 2.643v2.739q0 1.874 1.874 1.874h3.94q0.721-1.73 2.643-1.73 1.201 0 2.042 0.841t0.841 2.042-0.841 2.042-2.042 0.841q-1.922 0-2.643-1.778h-3.94q-1.009 0-1.874-0.384v4.661q0 1.874 1.874 1.874h3.94q0.721-1.73 2.643-1.73zM12.492 10.471q-0.673 0-1.177 0.48t-0.504 1.201q0 0.673 0.504 1.153t1.177 0.48 1.177-0.48 0.504-1.153q0-0.721-0.504-1.201t-1.177-0.48zM1.201 3.744q0 0.673 0.504 1.153t1.177 0.48 1.177-0.48 0.504-1.153q0-0.721-0.504-1.201t-1.177-0.48-1.177 0.48-0.504 1.201zM12.492 22.194q0.673 0 1.177-0.48t0.504-1.153q0-0.721-0.504-1.201t-1.177-0.48-1.177 0.48-0.504 1.201q0 0.673 0.504 1.153t1.177 0.48z"></path>
</svg>
