<!-- Generated by IcoMoon.io -->
<svg version="1.1" xmlns="http://www.w3.org/2000/svg" width="21" height="24" viewBox="0 0 21 24">
<title>help-circled</title>
<path d="M12.012 18.591v-2.571q0-0.192-0.12-0.312t-0.312-0.12h-2.571q-0.192 0-0.312 0.12t-0.12 0.312v2.571q0 0.192 0.12 0.312t0.312 0.12h2.571q0.192 0 0.312-0.12t0.12-0.312zM15.447 9.582q0-1.177-0.745-2.186t-1.85-1.562-2.282-0.553q-3.267 0-4.973 2.859-0.216 0.312 0.096 0.577l1.778 1.321q0.096 0.096 0.24 0.096 0.216 0 0.336-0.168 0.721-0.913 1.153-1.225 0.456-0.336 1.153-0.336 0.649 0 1.153 0.36t0.504 0.793q0 0.504-0.264 0.817t-0.913 0.601q-0.841 0.36-1.562 1.153t-0.697 1.682v0.48q0 0.192 0.12 0.312t0.312 0.12h2.571q0.192 0 0.312-0.12t0.12-0.312q0-0.24 0.288-0.649t0.721-0.673q0.432-0.24 0.673-0.384t0.601-0.456 0.601-0.649 0.384-0.817 0.168-1.081zM20.588 12.152q0 2.811-1.369 5.165t-3.748 3.748-5.165 1.393-5.189-1.393-3.724-3.748-1.393-5.165 1.393-5.165 3.724-3.748 5.189-1.393 5.165 1.393 3.748 3.748 1.369 5.165z"></path>
</svg>
