<!-- Generated by IcoMoon.io -->
<svg version="1.1" xmlns="http://www.w3.org/2000/svg" width="22" height="24" viewBox="0 0 22 24">
<title>home</title>
<path d="M18.882 13.45v6.414q0 0.36-0.264 0.601t-0.601 0.264h-5.141v-5.141h-3.435v5.141h-5.141q-0.36 0-0.601-0.264t-0.264-0.601v-6.414q0-0.024 0-0.048t0-0.048l7.712-6.342 7.712 6.342q0.024 0.024 0.024 0.096zM21.861 12.513l-0.817 0.985q-0.12 0.12-0.288 0.144h-0.048q-0.168 0-0.288-0.072l-9.273-7.736-9.273 7.736q-0.168 0.096-0.312 0.072-0.168-0.024-0.288-0.144l-0.841-0.985q-0.096-0.144-0.072-0.312t0.144-0.288l9.633-8.024q0.432-0.36 1.009-0.36t1.033 0.36l3.267 2.715v-2.595q0-0.192 0.12-0.312t0.312-0.12h2.571q0.192 0 0.312 0.12t0.12 0.312v5.453l2.931 2.45q0.144 0.096 0.144 0.288t-0.096 0.312z"></path>
</svg>
