<!-- Generated by IcoMoon.io -->
<svg version="1.1" xmlns="http://www.w3.org/2000/svg" width="32" height="32" viewBox="0 0 32 32">
<title>icon-notif-off</title>
<path fill="#fff" d="M27.213 24.389c-1.913-1.586-3.010-3.925-3.010-6.415v-3.908c0-3.662-2.433-6.766-5.769-7.782 0.201-0.376 0.32-0.809 0.32-1.267 0-1.48-1.204-2.684-2.684-2.684s-2.684 1.204-2.684 2.684c0 0.458 0.113 0.89 0.32 1.267-3.336 1.016-5.769 4.12-5.769 7.782v3.908c0 2.489-1.097 4.828-3.010 6.415-0.464 0.383-0.633 0.997-0.426 1.568 0.207 0.564 0.727 0.934 1.329 0.934h5.822c0.414 2.069 2.239 3.631 4.427 3.631s4.013-1.561 4.427-3.631h5.817c0.602 0 1.122-0.364 1.329-0.934 0.194-0.571 0.025-1.185-0.439-1.568zM16.063 4.102c0.502 0 0.916 0.408 0.916 0.915s-0.414 0.909-0.916 0.909c-0.502 0-0.915-0.408-0.915-0.915s0.414-0.909 0.915-0.909zM16.066 28.747c-1.204 0-2.226-0.784-2.596-1.862h5.198c-0.37 1.085-1.398 1.862-2.602 1.862zM6.739 25.116c1.894-1.887 2.96-4.44 2.96-7.142v-3.908c0-3.512 2.853-6.365 6.365-6.365s6.365 2.853 6.365 6.365v3.908c0 2.703 1.066 5.255 2.96 7.142z"></path>
</svg>
