<!-- Generated by IcoMoon.io -->
<svg version="1.1" xmlns="http://www.w3.org/2000/svg" width="24" height="24" viewBox="0 0 24 24">
<title>icon-apps-off</title>
<path fill="#858fa8" d="M1.238 0c-0.686 0-1.238 0.553-1.238 1.238v8.404c0 0.686 0.553 1.238 1.238 1.238h8.404c0.686 0 1.238-0.553 1.238-1.238v-8.404c0-0.686-0.553-1.238-1.238-1.238h-8.404zM1.768 1.73h7.336v7.336h-7.336v-7.336z"></path>
<path fill="#858fa8" d="M14.357 0c-0.686 0-1.238 0.553-1.238 1.238v8.404c0 0.686 0.553 1.238 1.238 1.238h8.404c0.686 0 1.238-0.553 1.238-1.238v-8.404c0-0.686-0.553-1.238-1.238-1.238h-8.404zM14.887 1.73h7.336v7.336h-7.336v-7.336z"></path>
<path fill="#858fa8" d="M1.238 13.119c-0.686 0-1.238 0.553-1.238 1.238v8.404c0 0.686 0.553 1.238 1.238 1.238h8.404c0.686 0 1.238-0.553 1.238-1.238v-8.404c0-0.686-0.553-1.238-1.238-1.238h-8.404zM1.768 14.85h7.336v7.338h-7.336v-7.338z"></path>
<path fill="#858fa8" d="M14.357 13.119c-0.686 0-1.238 0.553-1.238 1.238v8.404c0 0.686 0.553 1.238 1.238 1.238h8.404c0.686 0 1.238-0.553 1.238-1.238v-8.404c0-0.686-0.553-1.238-1.238-1.238h-8.404zM14.887 14.85h7.336v7.338h-7.336v-7.338z"></path>
</svg>
