<!-- Generated by IcoMoon.io -->
<svg version="1.1" xmlns="http://www.w3.org/2000/svg" width="24" height="24" viewBox="0 0 24 24">
<title>icon-apps-on</title>
<path fill="#299cc8" d="M1.237 0h8.406c0.683 0 1.237 0.554 1.237 1.237v8.406c0 0.683-0.554 1.237-1.237 1.237h-8.406c-0.683 0-1.237-0.554-1.237-1.237v-8.406c0-0.683 0.554-1.237 1.237-1.237z"></path>
<path fill="#299cc8" d="M14.357 0h8.406c0.683 0 1.237 0.554 1.237 1.237v8.406c0 0.683-0.554 1.237-1.237 1.237h-8.406c-0.683 0-1.237-0.554-1.237-1.237v-8.406c0-0.683 0.554-1.237 1.237-1.237z"></path>
<path fill="#299cc8" d="M1.237 13.119h8.406c0.683 0 1.237 0.554 1.237 1.237v8.406c0 0.683-0.554 1.237-1.237 1.237h-8.406c-0.683 0-1.237-0.554-1.237-1.237v-8.406c0-0.683 0.554-1.237 1.237-1.237z"></path>
<path fill="#299cc8" d="M14.357 13.119h8.406c0.683 0 1.237 0.554 1.237 1.237v8.406c0 0.683-0.554 1.237-1.237 1.237h-8.406c-0.683 0-1.237-0.554-1.237-1.237v-8.406c0-0.683 0.554-1.237 1.237-1.237z"></path>
</svg>
