<!-- Generated by IcoMoon.io -->
<svg version="1.1" xmlns="http://www.w3.org/2000/svg" width="32" height="32" viewBox="0 0 32 32">
<title>inbox1</title>
<path fill="#858fa9" d="M28.444 0h-24.907c-1.963 0-3.52 1.591-3.52 3.556l-0.018 24.889c0 1.963 1.575 3.556 3.538 3.556h24.907c1.964 0 3.556-1.593 3.556-3.556v-24.889c0-1.964-1.591-3.556-3.556-3.556v0zM28.444 21.333h-7.111c0 2.946-2.388 5.333-5.333 5.333s-5.333-2.388-5.333-5.333h-7.129v-17.778h24.907v17.778zM23.111 12.444h-3.556v-5.333h-7.111v5.333h-3.556l7.111 7.111 7.111-7.111z"></path>
</svg>
