<!-- Generated by IcoMoon.io -->
<svg version="1.1" xmlns="http://www.w3.org/2000/svg" width="21" height="24" viewBox="0 0 21 24">
<title>inbox-1</title>
<path d="M13.717 13.017h4.228q0-0.048-0.024-0.12t-0.048-0.096l-2.835-6.654h-9.489l-2.835 6.654q-0.024 0.024-0.048 0.096t-0.024 0.12h4.228l1.273 2.571h4.3zM20.588 13.402v6.462q0 0.36-0.24 0.601t-0.625 0.264h-18.858q-0.36 0-0.601-0.264t-0.264-0.601v-6.462q0-0.817 0.336-1.634l3.195-7.399q0.12-0.336 0.48-0.577t0.697-0.216h11.171q0.336 0 0.697 0.216t0.48 0.577l3.195 7.399q0.336 0.817 0.336 1.634z"></path>
</svg>
