<!-- Generated by IcoMoon.io -->
<svg version="1.1" xmlns="http://www.w3.org/2000/svg" width="32" height="32" viewBox="0 0 32 32">
<title>informations</title>
<path d="M17.078 24h-2.504c-0.383 0-0.661-0.313-0.661-0.661v-9.426h3.826v9.426c0 0.348-0.313 0.661-0.661 0.661z"></path>
<path d="M17.739 12.174h-3.826v-3.165c0-0.383 0.313-0.661 0.661-0.661h2.504c0.383 0 0.661 0.313 0.661 0.661z"></path>
<path d="M16 32c-8.835 0-16-7.165-16-16s7.165-16 16-16c8.835 0 16 7.165 16 16s-7.165 16-16 16zM16 2.783c-7.304 0-13.217 5.913-13.217 13.217s5.913 13.217 13.217 13.217c7.304 0 13.217-5.913 13.217-13.217s-5.913-13.217-13.217-13.217z"></path>
</svg>
