<!-- Generated by IcoMoon.io -->
<svg version="1.1" xmlns="http://www.w3.org/2000/svg" width="32" height="32" viewBox="0 0 32 32">
<title>interrogation-mark</title>
<path d="M17.432 23.357c0.048-0.619-0.131-1.143-0.536-1.571s-0.916-0.643-1.535-0.643c-0.571 0-1.071 0.19-1.5 0.571s-0.643 0.881-0.643 1.5c0 0.619 0.19 1.131 0.571 1.535s0.857 0.607 1.428 0.607c0.619 0 1.143-0.179 1.571-0.536s0.643-0.845 0.643-1.464zM20.931 14.216c0.571-0.809 0.857-1.666 0.857-2.571 0-1.571-0.595-2.809-1.785-3.713-1.143-0.857-2.618-1.285-4.427-1.285-1.333 0-2.452 0.309-3.356 0.928-1.333 0.905-1.999 2.523-1.999 4.856h3.499c0-1 0.095-1.642 0.286-1.928 0.428-0.714 1.047-1.071 1.857-1.071s1.404 0.262 1.785 0.786c0.381 0.524 0.571 1.071 0.571 1.642 0 0.381-0.19 0.857-0.571 1.428-0.095 0.19-0.333 0.428-0.714 0.714-1.238 0.714-2.071 1.428-2.499 2.142-0.381 0.619-0.619 1.595-0.714 2.928 0 0.19 0.095 0.286 0.286 0.286h2.785c0.238 0 0.357-0.095 0.357-0.286 0-0.524 0.048-0.976 0.143-1.357 0.143-0.428 0.428-0.833 0.857-1.214l1-0.643c0.905-0.666 1.5-1.214 1.785-1.642z"></path>
</svg>
