<!-- Generated by IcoMoon.io -->
<svg version="1.1" xmlns="http://www.w3.org/2000/svg" width="32" height="32" viewBox="0 0 32 32">
<title>keyboard-on</title>
<path fill="#2a9cc8" d="M2.667 4.667c-1.471 0-2.667 1.196-2.667 2.667v17.333c0 1.471 1.196 2.667 2.667 2.667h26.667c1.471 0 2.667-1.196 2.667-2.667v-17.333c0-1.471-1.196-2.667-2.667-2.667h-26.667zM21.333 23.333h-10.667v-2.667h10.667v2.667zM9.333 14c0 0.737-0.597 1.333-1.333 1.333s-1.333-0.596-1.333-1.333c0-0.736 0.597-1.333 1.333-1.333s1.333 0.597 1.333 1.333zM13.333 14c0 0.737-0.597 1.333-1.333 1.333s-1.333-0.596-1.333-1.333c0-0.736 0.597-1.333 1.333-1.333s1.333 0.597 1.333 1.333zM17.333 14c0 0.737-0.597 1.333-1.333 1.333s-1.333-0.596-1.333-1.333c0-0.736 0.597-1.333 1.333-1.333s1.333 0.597 1.333 1.333zM21.333 14c0 0.737-0.597 1.333-1.333 1.333s-1.333-0.596-1.333-1.333c0-0.736 0.597-1.333 1.333-1.333s1.333 0.597 1.333 1.333zM24 15.333c-0.736 0-1.333-0.596-1.333-1.333 0-0.736 0.597-1.333 1.333-1.333s1.333 0.597 1.333 1.333c0 0.737-0.597 1.333-1.333 1.333zM9.333 10c0 0.737-0.597 1.333-1.333 1.333s-1.333-0.596-1.333-1.333c0-0.736 0.597-1.333 1.333-1.333s1.333 0.597 1.333 1.333zM13.333 10c0 0.737-0.597 1.333-1.333 1.333s-1.333-0.596-1.333-1.333c0-0.736 0.597-1.333 1.333-1.333s1.333 0.597 1.333 1.333zM16 11.333c-0.736 0-1.333-0.596-1.333-1.333 0-0.736 0.597-1.333 1.333-1.333s1.333 0.597 1.333 1.333c0 0.737-0.597 1.333-1.333 1.333zM21.333 10c0 0.737-0.597 1.333-1.333 1.333s-1.333-0.596-1.333-1.333c0-0.736 0.597-1.333 1.333-1.333s1.333 0.597 1.333 1.333zM24 11.333c-0.736 0-1.333-0.596-1.333-1.333 0-0.736 0.597-1.333 1.333-1.333s1.333 0.597 1.333 1.333c0 0.737-0.597 1.333-1.333 1.333zM9.333 18c0 0.737-0.597 1.333-1.333 1.333s-1.333-0.596-1.333-1.333c0-0.736 0.597-1.333 1.333-1.333s1.333 0.597 1.333 1.333zM13.333 18c0 0.737-0.597 1.333-1.333 1.333s-1.333-0.596-1.333-1.333c0-0.736 0.597-1.333 1.333-1.333s1.333 0.597 1.333 1.333zM17.333 18c0 0.737-0.597 1.333-1.333 1.333s-1.333-0.596-1.333-1.333c0-0.736 0.597-1.333 1.333-1.333s1.333 0.597 1.333 1.333zM21.333 18c0 0.737-0.597 1.333-1.333 1.333s-1.333-0.596-1.333-1.333c0-0.736 0.597-1.333 1.333-1.333s1.333 0.597 1.333 1.333zM25.333 18c0 0.737-0.597 1.333-1.333 1.333s-1.333-0.596-1.333-1.333c0-0.736 0.597-1.333 1.333-1.333s1.333 0.597 1.333 1.333z"></path>
</svg>
