<?xml version="1.0" standalone="no"?><!-- Generator: Gravit.io --><svg xmlns="http://www.w3.org/2000/svg" xmlns:xlink="http://www.w3.org/1999/xlink" style="isolation:isolate" viewBox="0 0 24 17" width="24" height="17"><defs><clipPath id="_clipPath_bJV2MP418ZdKYod07ePTLdkbRkvWmYTK"><rect width="24" height="17"/></clipPath></defs><g clip-path="url(#_clipPath_bJV2MP418ZdKYod07ePTLdkbRkvWmYTK)"><clipPath id="_clipPath_ZYlctP6ignOh7Kw2rUDwOljdkPoJFBae"><rect x="0" y="0" width="24" height="17" transform="matrix(1,0,0,1,0,0)" fill="rgb(255,255,255)"/></clipPath><g clip-path="url(#_clipPath_ZYlctP6ignOh7Kw2rUDwOljdkPoJFBae)"><g id="Group"><path d=" M 2 0 C 0.897 0 0 0.897 0 2 L 0 15 C 0 16.103 0.897 17 2 17 L 22 17 C 23.103 17 24 16.103 24 15 L 24 2 C 24 0.897 23.103 0 22 0 L 2 0 Z  M 16 14 L 8 14 L 8 12 L 16 12 L 16 14 Z  M 7 7 C 7 7.553 6.552 8 6 8 C 5.448 8 5 7.553 5 7 C 5 6.448 5.448 6 6 6 C 6.552 6 7 6.448 7 7 Z  M 10 7 C 10 7.553 9.552 8 9 8 C 8.448 8 8 7.553 8 7 C 8 6.448 8.448 6 9 6 C 9.552 6 10 6.448 10 7 Z  M 13 7 C 13 7.553 12.552 8 12 8 C 11.448 8 11 7.553 11 7 C 11 6.448 11.448 6 12 6 C 12.552 6 13 6.448 13 7 Z  M 16 7 C 16 7.553 15.552 8 15 8 C 14.448 8 14 7.553 14 7 C 14 6.448 14.448 6 15 6 C 15.552 6 16 6.448 16 7 Z  M 18 8 C 17.448 8 17 7.553 17 7 C 17 6.448 17.448 6 18 6 C 18.552 6 19 6.448 19 7 C 19 7.553 18.552 8 18 8 Z  M 7 4 C 7 4.553 6.552 5 6 5 C 5.448 5 5 4.553 5 4 C 5 3.448 5.448 3 6 3 C 6.552 3 7 3.448 7 4 Z  M 10 4 C 10 4.553 9.552 5 9 5 C 8.448 5 8 4.553 8 4 C 8 3.448 8.448 3 9 3 C 9.552 3 10 3.448 10 4 Z  M 12 5 C 11.448 5 11 4.553 11 4 C 11 3.448 11.448 3 12 3 C 12.552 3 13 3.448 13 4 C 13 4.553 12.552 5 12 5 Z  M 16 4 C 16 4.553 15.552 5 15 5 C 14.448 5 14 4.553 14 4 C 14 3.448 14.448 3 15 3 C 15.552 3 16 3.448 16 4 Z  M 18 5 C 17.448 5 17 4.553 17 4 C 17 3.448 17.448 3 18 3 C 18.552 3 19 3.448 19 4 C 19 4.553 18.552 5 18 5 Z  M 7 10 C 7 10.553 6.552 11 6 11 C 5.448 11 5 10.553 5 10 C 5 9.448 5.448 9 6 9 C 6.552 9 7 9.448 7 10 Z  M 10 10 C 10 10.553 9.552 11 9 11 C 8.448 11 8 10.553 8 10 C 8 9.448 8.448 9 9 9 C 9.552 9 10 9.448 10 10 Z  M 13 10 C 13 10.553 12.552 11 12 11 C 11.448 11 11 10.553 11 10 C 11 9.448 11.448 9 12 9 C 12.552 9 13 9.448 13 10 Z  M 16 10 C 16 10.553 15.552 11 15 11 C 14.448 11 14 10.553 14 10 C 14 9.448 14.448 9 15 9 C 15.552 9 16 9.448 16 10 Z  M 19 10 C 19 10.553 18.552 11 18 11 C 17.448 11 17 10.553 17 10 C 17 9.448 17.448 9 18 9 C 18.552 9 19 9.448 19 10 Z " fill-rule="evenodd" fill="rgb(133,143,169)"/></g></g></g></svg>