<!-- Generated by IcoMoon.io -->
<svg version="1.1" xmlns="http://www.w3.org/2000/svg" width="32" height="32" viewBox="0 0 32 32">
<title>latest_result</title>
<path fill="#b2becd" d="M18.286 1.882c-7.573 0-13.714 6.322-13.714 14.118h-4.571l5.928 6.102 0.107 0.22 6.156-6.322h-4.571c0-6.071 4.77-10.98 10.667-10.98s10.667 4.91 10.667 10.98c0 6.071-4.77 10.98-10.667 10.98-2.941 0-5.608-1.239-7.528-3.231l-2.164 2.227c2.484 2.557 5.897 4.141 9.691 4.141 7.573 0 13.714-6.322 13.714-14.118s-6.141-14.118-13.714-14.118zM16.941 9.412v7.489l6.445 3.805 1.084-1.812-5.271-3.116v-6.366h-2.259z"></path>
</svg>
