<!-- Generated by IcoMoon.io -->
<svg version="1.1" xmlns="http://www.w3.org/2000/svg" width="32" height="32" viewBox="0 0 32 32">
<title>messagerie-on</title>
<path fill="#2a9cc8" d="M15.3 14.9l13-10.4c-0.443-0.187-0.958-0.297-1.499-0.3h-23.001c-0.015-0-0.032-0-0.050-0-0.524 0-1.023 0.111-1.473 0.31l0.023-0.009zM30.3 6.5l-0.2 0.2-14.8 11.8-14.8-11.9-0.1-0.1c-0.253 0.424-0.402 0.936-0.402 1.482 0 0.042 0.001 0.083 0.003 0.124l-0-0.006v15.8c-0.001 0.024-0.001 0.052-0.001 0.080 0 2.103 1.699 3.809 3.8 3.82h23.001c2.108-0.045 3.8-1.764 3.8-3.879 0-0.007-0-0.015-0-0.022v0.001-15.8c0-0.015 0-0.032 0-0.050 0-0.559-0.11-1.091-0.31-1.578l0.010 0.028z"></path>
</svg>
