<!-- Generated by IcoMoon.io -->
<svg version="1.1" xmlns="http://www.w3.org/2000/svg" width="32" height="32" viewBox="0 0 32 32">
<title>messagerie-off</title>
<path fill="#858fa9" d="M31.64 6.86c-0.559-1.391-1.675-2.458-3.064-2.939l-0.036-0.011c-0.483-0.171-1.040-0.27-1.62-0.27h-21.92c-0.644 0.016-1.254 0.147-1.815 0.372l0.035-0.012c-1.355 0.55-2.4 1.625-2.898 2.965l-0.012 0.035c-0.177 0.473-0.289 1.020-0.31 1.591l-0 0.009v14.8c0.017 0.63 0.144 1.226 0.362 1.775l-0.012-0.035c0.552 1.353 1.626 2.398 2.965 2.898l0.035 0.012c0.489 0.187 1.055 0.3 1.646 0.31l0.004 0h22c2.739-0.055 4.945-2.261 5-4.995l0-0.005v-14.76c-0.026-0.632-0.156-1.226-0.373-1.777l0.013 0.037zM26.73 6.55l-10.73 8.33-10.72-8.34zM29.090 23.39c-0.017 0.249-0.070 0.48-0.155 0.696l0.005-0.016c-0.234 0.581-0.692 1.029-1.265 1.245l-0.015 0.005c-0.189 0.074-0.408 0.121-0.636 0.13l-0.004 0h-22.020c-0.232-0.009-0.451-0.056-0.654-0.135l0.014 0.005c-0.59-0.217-1.049-0.667-1.275-1.235l-0.005-0.015c-0.080-0.2-0.133-0.431-0.15-0.673l-0-0.007v-14.72c-0.005-0.040-0.007-0.087-0.007-0.135s0.003-0.095 0.008-0.141l-0.001 0.006 13.070 10.17 13.050-10.15c0 0.070 0 0.13 0 0.19z"></path>
</svg>
