<?xml version="1.0" encoding="UTF-8"?>
<svg width="16px" height="4px" viewBox="0 0 16 4" version="1.1" xmlns="http://www.w3.org/2000/svg" xmlns:xlink="http://www.w3.org/1999/xlink">
    <!-- Generator: Sketch 48.2 (47327) - http://www.bohemiancoding.com/sketch -->
    <title>More_Icon</title>
    <desc>Created with Sketch.</desc>
    <defs></defs>
    <g id="Navigation_Conversation" stroke="none" stroke-width="1" fill="none" fill-rule="evenodd" transform="translate(-324.000000, -52.000000)">
        <g id="Navigation" fill="#FFFFFF">
            <path d="M332,50 C333.1,50 334,49.1 334,48 C334,46.9 333.1,46 332,46 C330.9,46 330,46.9 330,48 C330,49.1 330.9,50 332,50 Z M332,52 C330.9,52 330,52.9 330,54 C330,55.1 330.9,56 332,56 C333.1,56 334,55.1 334,54 C334,52.9 333.1,52 332,52 Z M332,58 C330.9,58 330,58.9 330,60 C330,61.1 330.9,62 332,62 C333.1,62 334,61.1 334,60 C334,58.9 333.1,58 332,58 Z" id="More_Icon" transform="translate(332.000000, 54.000000) rotate(-270.000000) translate(-332.000000, -54.000000) "></path>
        </g>
    </g>
</svg>