<!-- Generated by IcoMoon.io -->
<svg version="1.1" xmlns="http://www.w3.org/2000/svg" width="45" height="32" viewBox="0 0 45 32">
<title>new_message</title>
<path d="M39.063 0h-32.243c-1.288 0-2.472 0.618-3.193 1.597l17.873 17.409c0.773 0.773 2.112 0.773 2.884 0l17.667-17.667c-0.773-0.824-1.803-1.339-2.987-1.339z"></path>
<path d="M42.978 3.298l-11.746 11.741 2.341 2.275c1.237-0.732 2.662-1.177 4.203-1.176 2.005 0 3.818 0.738 5.251 1.923v-14.093c0-0.206 0.001-0.463-0.050-0.669zM31.566 29.873c-1.282-1.459-2.084-3.352-2.085-5.447-0.001-2.275 0.92-4.333 2.403-5.831l-2.141-2.063-3.919 3.913c-0.773 0.824-1.852 1.187-2.882 1.187s-2.11-0.415-2.882-1.187l-3.969-3.863-12.515 11.59c0.721 1.030 1.905 1.7 3.245 1.7z"></path>
<path d="M14.598 15.143l-11.743-11.434c0 0.103 0 0.155 0 0.258v21.89c0 0.052 0 0.103 0 0.155z"></path>
<path d="M37.801 16.868c-0.001 0-0.002 0-0.004 0-4.178 0-7.565 3.387-7.565 7.565 0 0.001 0 0.003 0 0.004v-0c0.001 4.177 3.388 7.563 7.565 7.563 0.001 0 0.003 0 0.004 0h-0c4.177-0.001 7.562-3.386 7.563-7.563v-0c0-0.001 0-0.003 0-0.004 0-4.177-3.386-7.564-7.563-7.565h-0zM37.868 20.283c0.597 0 1.103 0.483 1.103 1.103v2.088h2.088c0.62 0 1.103 0.506 1.103 1.103s-0.483 1.103-1.103 1.103h-2.088v2.088c0 0.597-0.506 1.103-1.103 1.103s-1.103-0.483-1.103-1.103v-2.088h-2.088c-0.597 0-1.103-0.506-1.103-1.103s0.483-1.103 1.103-1.103h2.088v-2.088c0-0.597 0.506-1.103 1.103-1.103z"></path>
</svg>
