<!-- Generated by IcoMoon.io -->
<svg version="1.1" xmlns="http://www.w3.org/2000/svg" width="27" height="24" viewBox="0 0 27 24">
<title>newspaper</title>
<path d="M13.717 7.011h-5.141v5.141h5.141v-5.141zM15.447 15.588v1.706h-8.576v-1.706h8.576zM15.447 5.282v8.576h-8.576v-8.576h8.576zM24.023 15.588v1.706h-6.871v-1.706h6.871zM24.023 12.152v1.706h-6.871v-1.706h6.871zM24.023 8.717v1.73h-6.871v-1.73h6.871zM24.023 5.282v1.73h-6.871v-1.73h6.871zM3.435 18.158v-12.877h-1.73v12.877q0 0.336 0.264 0.601t0.601 0.264 0.601-0.264 0.264-0.601zM25.729 18.158v-14.582h-20.588v14.582q0 0.432-0.144 0.865h19.891q0.336 0 0.601-0.264t0.24-0.601zM27.459 1.846v16.312q0 1.081-0.745 1.826t-1.826 0.745h-22.318q-1.057 0-1.826-0.745t-0.745-1.826v-14.582h3.435v-1.73h24.023z"></path>
</svg>
