<!-- Generated by IcoMoon.io -->
<svg version="1.1" xmlns="http://www.w3.org/2000/svg" width="32" height="32" viewBox="0 0 32 32">
<title>nouveautes-on</title>
<path fill="#858fa9" d="M16.109 0.001c-0.11-0.001-0.109-0.001-0.217 0-0.287 0.011-0.572 0.042-0.852 0.104-0.52 0.116-1.017 0.329-1.46 0.625-0.209 0.14-0.402 0.298-0.586 0.468-3.992 3.881-7.965 7.784-11.831 11.793-0.144 0.162-0.283 0.328-0.406 0.508-0.269 0.394-0.474 0.834-0.602 1.295-0.127 0.46-0.177 0.939-0.148 1.414 0.061 1.025 0.492 2.017 1.203 2.76 0.292 0.305 0.629 0.568 0.998 0.778s0.771 0.364 1.185 0.459c0.213 0.047 0.426 0.075 0.641 0.095l0.164 0.010c0.054 0.001 0.11 0.003 0.164 0.003v8.739c0.010 0.335 0.061 0.664 0.177 0.979 0.291 0.796 0.934 1.439 1.731 1.73 0.317 0.116 0.646 0.17 0.982 0.177 5.874 0 11.748 0.145 17.621-0.003 0.131-0.010 0.163-0.010 0.292-0.031 0.238-0.035 0.47-0.101 0.692-0.195 0.737-0.312 1.324-0.928 1.599-1.679 0.1-0.274 0.151-0.558 0.173-0.849l0.004-0.129v-8.739h0.013c0.214-0.004 0.426-0.016 0.639-0.047 0.423-0.064 0.836-0.189 1.223-0.372 0.382-0.182 0.739-0.42 1.053-0.704 0.883-0.797 1.409-1.953 1.434-3.14 0.011-0.477-0.057-0.953-0.201-1.406-0.144-0.458-0.366-0.891-0.652-1.276-0.127-0.173-0.269-0.331-0.417-0.486-3.908-3.892-7.768-7.834-11.722-11.68-0.184-0.172-0.377-0.329-0.586-0.468-0.444-0.296-0.941-0.51-1.462-0.626-0.28-0.063-0.563-0.093-0.85-0.104zM10.88 12.389c0-2.63 2.294-4.765 5.12-4.765s5.12 2.135 5.12 4.765c0 2.63-2.294 4.765-5.12 4.765s-5.12-2.135-5.12-4.765z"></path>
<path fill="#858fa9" d="M14.080 12.48c0-1.060 0.86-1.92 1.92-1.92s1.92 0.86 1.92 1.92c0 1.060-0.86 1.92-1.92 1.92s-1.92-0.86-1.92-1.92z"></path>
</svg>
