<!-- Generated by IcoMoon.io -->
<svg version="1.1" xmlns="http://www.w3.org/2000/svg" width="32" height="32" viewBox="0 0 32 32">
<title>nouveautes-off</title>
<path fill="#858fa9" d="M16.109-0.234c0.287 0.011 0.57 0.042 0.85 0.106 0.521 0.118 1.018 0.335 1.462 0.635 0.209 0.142 0.403 0.301 0.586 0.476 3.955 3.902 7.814 7.902 11.722 11.852 0.148 0.157 0.289 0.317 0.417 0.493 0.285 0.391 0.508 0.83 0.652 1.295 0.144 0.46 0.212 0.943 0.201 1.427-0.025 1.205-0.551 2.377-1.434 3.187-0.314 0.288-0.671 0.529-1.053 0.714-0.387 0.186-0.8 0.313-1.223 0.378-0.213 0.032-0.424 0.044-0.639 0.048h-0.013v8.868l-0.004 0.131c-0.022 0.296-0.073 0.584-0.173 0.862-0.275 0.762-0.862 1.388-1.599 1.704-0.222 0.095-0.454 0.162-0.692 0.198-0.13 0.020-0.162 0.020-0.292 0.031-5.873 0.15-11.747 0.003-17.621 0.003-0.336-0.008-0.665-0.062-0.982-0.18-0.797-0.296-1.44-0.948-1.731-1.756-0.116-0.32-0.168-0.653-0.177-0.993v-8.868c-0.054 0-0.109-0.001-0.164-0.003l-0.164-0.010c-0.216-0.020-0.428-0.048-0.641-0.096-0.414-0.097-0.816-0.253-1.185-0.466s-0.707-0.479-0.998-0.789c-0.712-0.754-1.142-1.759-1.203-2.8-0.029-0.482 0.021-0.968 0.148-1.434 0.128-0.468 0.332-0.915 0.602-1.315 0.123-0.182 0.262-0.351 0.406-0.516 3.866-4.067 7.839-8.028 11.831-11.966 0.184-0.173 0.377-0.333 0.586-0.476 0.443-0.3 0.94-0.516 1.46-0.634 0.28-0.064 0.565-0.095 0.852-0.106 0.108-0.001 0.107-0.001 0.217 0zM15.963 2.71c-0.364 0.013-0.696 0.154-0.964 0.404-3.948 3.896-7.878 7.812-11.701 11.835-0.168 0.19-0.291 0.412-0.349 0.662-0.152 0.648 0.16 1.344 0.743 1.652 0.191 0.1 0.401 0.151 0.616 0.163 0.504 0.009 1.006 0.001 1.51 0.001 0.172 0.008 0.335 0.029 0.497 0.090 0.402 0.147 0.724 0.474 0.87 0.88 0.059 0.164 0.081 0.329 0.087 0.503 0 3.435 0 6.868 0 10.303 0 0.007-0.003 0.015 0.001 0.019 0.004 0.006 0.012 0.002 0.017 0.002 5.806 0 11.612 0 17.418 0 0.005 0 0.013 0.004 0.017-0.002 0.004-0.004 0.001-0.012 0.001-0.019 0-3.435 0-6.868 0-10.303 0.006-0.174 0.028-0.339 0.087-0.503 0.145-0.406 0.468-0.733 0.868-0.88 0.163-0.060 0.327-0.082 0.499-0.090 0.503 0 1.007 0.008 1.51-0.001 0.217-0.012 0.426-0.063 0.619-0.165 0.582-0.307 0.892-1.004 0.74-1.649-0.058-0.251-0.182-0.473-0.351-0.664-3.839-4.039-7.606-8.17-11.754-11.884-0.249-0.211-0.548-0.333-0.873-0.353-0.037-0.001-0.074-0.001-0.111-0.001z"></path>
<path fill="#858fa9" d="M16.112 8.604c0.185 0.007 0.368 0.020 0.552 0.050 0.46 0.070 0.909 0.218 1.324 0.433 0.844 0.437 1.533 1.155 1.944 2.018 0.188 0.393 0.317 0.815 0.381 1.245 0.068 0.445 0.068 0.898 0 1.343-0.064 0.43-0.193 0.851-0.381 1.244-0.228 0.479-0.541 0.915-0.922 1.282-0.38 0.368-0.826 0.664-1.311 0.872-0.537 0.232-1.117 0.349-1.699 0.349s-1.162-0.118-1.699-0.349c-0.484-0.207-0.931-0.504-1.311-0.872-0.381-0.367-0.694-0.803-0.922-1.282-0.188-0.393-0.317-0.814-0.381-1.244-0.068-0.445-0.068-0.899 0-1.343 0.064-0.43 0.193-0.852 0.381-1.245 0.412-0.863 1.101-1.581 1.945-2.018 0.414-0.216 0.864-0.363 1.324-0.433 0.183-0.029 0.367-0.043 0.551-0.050 0.114-0.002 0.112-0.002 0.224 0zM15.962 11.548c-0.216 0.009-0.428 0.061-0.621 0.161-0.378 0.196-0.662 0.56-0.758 0.98-0.040 0.171-0.048 0.348-0.026 0.522 0.019 0.143 0.058 0.284 0.116 0.415 0.072 0.162 0.174 0.31 0.3 0.436 0.124 0.127 0.27 0.23 0.43 0.303 0.176 0.081 0.367 0.124 0.559 0.13 0.193 0.004 0.388-0.030 0.569-0.102 0.164-0.067 0.316-0.162 0.445-0.282 0.131-0.119 0.24-0.264 0.32-0.422 0.066-0.127 0.111-0.266 0.136-0.407 0.030-0.172 0.030-0.349 0-0.521-0.074-0.426-0.34-0.803-0.71-1.018-0.188-0.109-0.394-0.171-0.608-0.19-0.051-0.003-0.1-0.004-0.152-0.004z"></path>
</svg>
