<!-- Generated by IcoMoon.io -->
<svg version="1.1" xmlns="http://www.w3.org/2000/svg" width="24" height="24" viewBox="0 0 24 24">
<title>pad1-1</title>
<path d="M15.087 17.822h-5.597v-0.504h5.597v0.504zM12.78 16.333h-3.291v-0.504h3.291v0.504zM13.765 14.843h-4.276v-0.48h4.276v0.48zM15.423 13.378h-5.934v-0.504h5.934v0.504zM12.78 11.888h-3.291v-0.504h3.291v0.504zM16.889 8.669h-8.889v11.868h8.889v-11.868zM6.534 22.002v-14.798h11.844v14.798h-11.844zM4.492 9.918c-0.601 0.601-0.961 1.249-1.009 1.778l3.676 3.844c0 0 0.36-0.456 0.336-1.249 0.937-0.48 1.105-0.913 1.273-1.297 0.817 0.024 1.153-0.288 1.153-0.288l-3.676-3.844c-0.24 0.048-0.937 0.216-1.754 1.057zM0.553 8.405c0.072 0.048 0.48 0.601 0.721 0.937 0.024-0.36 0.168-1.033 0.913-1.802 0.769-0.769 1.441-0.937 1.802-0.961-0.312-0.24-0.721-0.601-0.865-0.721-0.384-0.384-1.129-0.649-2.21 0.264s-0.769 1.85-0.36 2.282zM8.024 14.795c0 0.36-0.336 1.057-0.336 1.057l4.228 1.802-1.706-4.372c0 0-0.168 0.168-0.889 0.168-0.24 0.769-1.009 1.249-1.297 1.345zM2.643 8.020c-1.033 1.081-0.889 1.826-0.889 1.826l0.408 0.408c0.048-0.456 0.36-1.105 0.961-1.706 0.961-0.985 1.754-1.105 1.754-1.105l-0.432-0.432c0 0-0.793-0.024-1.802 1.009zM3.507 8.933c-0.985 1.033-0.841 1.754-0.841 1.754l0.36 0.384c0.072-0.432 0.384-1.057 0.937-1.634 0.913-0.937 1.682-1.057 1.682-1.057l-0.408-0.408c0 0-0.769-0.024-1.73 0.961zM17.946 6.051l-3.676 3.82c0 0 0.312 0.312 1.129 0.288 0.168 0.384 0.336 0.841 1.297 1.297-0.048 0.793 0.336 1.249 0.336 1.249l3.676-3.844c-0.048-0.504-0.432-1.177-1.033-1.778-0.817-0.841-1.513-1.009-1.73-1.033zM23.255 3.288c-1.081-0.913-1.826-0.649-2.21-0.264-0.12 0.144-0.553 0.48-0.841 0.745 0.336 0.024 1.033 0.168 1.778 0.937 0.769 0.769 0.913 1.441 0.913 1.802 0.264-0.336 0.649-0.865 0.721-0.937 0.408-0.432 0.721-1.369-0.36-2.282zM14.847 10.615c-0.721 0-0.889-0.168-0.889-0.168l-1.682 4.372 4.204-1.802c0 0-0.336-0.697-0.312-1.057-0.288-0.096-1.081-0.577-1.321-1.345zM19.723 4.177l-0.408 0.432c0 0 0.793 0.144 1.73 1.105 0.601 0.601 0.913 1.249 0.985 1.706l0.384-0.408c0 0 0.144-0.745-0.889-1.802-1.009-1.057-1.802-1.033-1.802-1.033zM18.93 5.138l-0.408 0.408c0 0 0.769 0.12 1.682 1.057 0.577 0.601 0.889 1.201 0.937 1.634l0.384-0.384c0 0 0.12-0.721-0.865-1.73-0.961-1.009-1.73-0.985-1.73-0.985z"></path>
</svg>
