<!-- Generated by IcoMoon.io -->
<svg version="1.1" xmlns="http://www.w3.org/2000/svg" width="26" height="24" viewBox="0 0 26 24">
<title>picture</title>
<path d="M8.576 7.852q0 1.081-0.745 1.826t-1.826 0.769-1.826-0.769-0.745-1.826 0.745-1.826 1.826-0.745 1.826 0.745 0.745 1.826zM22.318 13.017v6.006h-18.882v-2.571l4.276-4.3 2.162 2.138 6.847-6.847zM23.591 3.576h-21.453q-0.168 0-0.288 0.12t-0.144 0.312v16.288q0 0.168 0.144 0.312t0.288 0.12h21.453q0.168 0 0.312-0.12t0.12-0.312v-16.288q0-0.192-0.12-0.312t-0.312-0.12zM25.729 4.009v16.288q0 0.889-0.625 1.513t-1.513 0.649h-21.453q-0.865 0-1.513-0.649t-0.625-1.513v-16.288q0-0.889 0.625-1.513t1.513-0.649h21.453q0.889 0 1.513 0.649t0.625 1.513z"></path>
</svg>
