<!-- Generated by IcoMoon.io -->
<svg version="1.1" xmlns="http://www.w3.org/2000/svg" width="32" height="32" viewBox="0 0 32 32">
<title>pronote</title>
<path d="M5.764 3.124c-1.393 0-1.759 0.11-1.979 0.586-0.147 0.367-0.293 3.042-0.293 6.524 0 5.351 0.073 5.901 0.476 6.048 0.476 0.11 1.759-0.037 2.492-0.257 0.22-0.073 0.33-0.733 0.33-1.833v-1.723l1.026-0.33c1.539-0.44 2.602-1.869 2.786-3.665 0.147-1.136 0.22-0.513 0.476 2.969 0.183 2.419 0.403 4.545 0.476 4.728 0.22 0.403 2.089 0.44 3.005 0.037 0.403-0.183 0.696-0.55 0.696-0.806 0-0.367 0.11-0.33 0.55 0.147 0.953 1.1 3.555 0.623 3.555-0.586 0-0.367-0.367-1.319-0.806-2.126l-0.806-1.466 0.55-0.953c0.696-1.319 0.696-3.702 0-5.021-0.916-1.723-1.759-2.126-4.215-2.052-2.419 0.073-3.042 0.44-3.335 1.979l-0.183 0.916-0.586-1.026c-0.843-1.429-2.162-2.089-4.215-2.089zM23.944 3.527c-0.147 0-0.293 0-0.44 0.037-2.529 0.696-3.812 3.042-4.032 7.22-0.11 2.419-0.073 2.895 0.44 3.775 0.293 0.586 0.953 1.246 1.429 1.466 2.199 1.1 4.838 0.037 5.901-2.309 0.88-1.979 0.88-6.451 0-8.027-0.623-1.173-2.162-2.126-3.299-2.162zM15.111 7.486c0.44 0 1.026 0.733 0.806 1.026-0.403 0.476-1.21 0.183-1.21-0.403 0-0.367 0.183-0.623 0.403-0.623zM6.864 7.486c0.33 0.037 0.733 0.367 0.733 0.77 0 0.623-0.77 0.586-0.99 0-0.073-0.293-0.073-0.586 0-0.66 0.073-0.11 0.183-0.11 0.257-0.11zM23.65 7.815c0.073 0 0.11 0 0.183 0.037 0.476 0.073 0.623 0.33 0.696 1.319 0.037 0.66 0 1.686-0.073 2.272-0.147 0.696-0.33 1.026-0.696 1.026-0.806 0-0.916-0.476-0.696-2.712 0.147-1.613 0.22-1.943 0.586-1.943zM6.681 17.308c-0.147 0-0.33 0.037-0.55 0.073-1.246 0.293-1.576 0.953-1.393 2.712 0.11 0.806 0.11 1.466 0.037 1.466s-0.513-0.843-0.99-1.869c-0.806-1.796-0.843-1.869-1.906-1.869-1.979 0-2.126 0.586-1.649 6.707 0.623 7.33 0.476 6.671 1.466 6.671 0.476 0 1.173-0.11 1.503-0.183 0.623-0.22 0.66-0.33 0.55-2.089-0.147-2.016-0.11-2.016 1.209 0.55 0.66 1.246 0.843 1.429 1.686 1.429 1.393 0 1.796-0.293 1.796-1.209v-0.843l0.733 1.063c0.403 0.55 0.99 1.136 1.283 1.283 0.33 0.147 1.173 0.293 1.906 0.293 1.869 0.037 3.299-0.953 4.068-2.712 0.513-1.209 0.55-1.686 0.403-4.032-0.22-3.042-0.696-4.215-2.089-5.278-2.456-1.906-5.828 0.44-6.267 4.325-0.183 1.503-0.22 1.319-0.476-2.199s-0.403-4.325-1.319-4.288zM17.859 17.455l-0.367 0.806c-0.22 0.44-0.403 1.393-0.403 2.126-0.037 1.209 0.037 1.319 0.806 1.466l0.806 0.183v4.178c0 2.309 0.037 4.325 0.073 4.435 0.11 0.403 2.456 0.257 2.749-0.147 0.147-0.22 0.367-2.126 0.513-4.288l0.22-3.885 0.806-0.11c1.209-0.147 1.503-0.586 1.503-2.199 0-0.843-0.147-1.649-0.33-1.796-0.183-0.183-1.686-0.403-3.372-0.55l-3.005-0.22zM29.258 18.774c-1.173 0-2.492 0.073-2.969 0.183-1.429 0.293-1.503 0.806-1.173 7.037 0.183 3.115 0.367 5.754 0.44 5.901 0.147 0.22 3.702 0.073 5.534-0.257l0.916-0.147-0.11-1.796-0.073-1.759-1.576-0.11c-1.796-0.11-2.053-0.513-0.476-0.806 1.063-0.22 1.1-0.257 1.1-1.429 0-1.796-0.22-2.162-1.246-2.162-1.503 0-1.063-0.586 0.513-0.696 1.356-0.073 1.429-0.147 1.503-0.99 0.073-0.513 0.037-1.356-0.073-1.943l-0.183-1.026h-2.126zM12.435 22.916c0.147-0.037 0.367 0.073 0.55 0.22 0.293 0.293 0.367 0.916 0.33 2.419-0.073 2.016-0.367 2.566-0.99 1.869-0.403-0.476-0.44-4.178-0.037-4.471 0.037-0.037 0.073-0.037 0.147-0.037z"></path>
</svg>
