<!-- Generated by IcoMoon.io -->
<svg version="1.1" xmlns="http://www.w3.org/2000/svg" width="116" height="32" viewBox="0 0 116 32">
<title>pronote-old</title>
<path fill="#763294" d="M62.464 0.448c-1.312 0.096-1.664 0.32-2.176 1.344l-0.384 0.8 0.224 2.592c0.288 3.264 0.288 3.232 0.032 2.944-0.256-0.256-3.296-5.76-3.296-5.92 0-0.096-0.16-0.352-0.384-0.64l-0.384-0.448-1.984 0.096c-2.208 0.096-2.4 0.192-2.976 1.152-0.32 0.544-0.384 0.832-0.384 1.76 0 1.248 0.32 5.12 0.736 9.12 0.16 1.472 0.384 4.288 0.512 6.24s0.288 3.712 0.32 3.904c0.096 0.512 0.576 0.576 2.528 0.448s2.848-0.352 3.104-0.736c0.096-0.192 0.064-1.184-0.128-3.552-0.128-1.792-0.224-3.296-0.192-3.36 0.032-0.032 0.896 1.376 1.856 3.104 0.992 1.76 1.888 3.328 1.984 3.52 0.384 0.576 0.736 0.64 2.88 0.512 2.080-0.16 2.592-0.352 2.848-0.96 0.16-0.48-0.064-3.872-0.576-9.568-0.256-2.688-0.576-6.432-0.736-8.352-0.352-4.512-0.16-4.32-3.424-4zM85.632 0.864c-0.192 0.16-0.416 0.48-0.48 0.704-0.032 0.224-0.256 0.576-0.448 0.8-0.32 0.32-0.384 0.608-0.576 1.952-0.384 3.072-0.256 3.52 1.088 3.52 1.056 0.032 1.824 0.256 2.176 0.672 0.416 0.48 0.416 1.184-0.032 8.352-0.224 3.104-0.384 5.664-0.384 5.76 0 0.864 2.4 1.12 5.344 0.544 0.16 0 0.416-0.192 0.512-0.384 0.256-0.384 0.288-0.736 0.928-10.496 0.096-1.856 0.224-3.488 0.288-3.616 0.064-0.192 0.256-0.256 0.768-0.224 0.384 0 1.184-0.064 1.792-0.128 1.76-0.192 1.76-0.16 1.792-3.456l0.032-2.752-0.384-0.384c-0.448-0.448-0.8-0.512-4.512-0.64-1.248-0.064-3.264-0.192-4.512-0.32-2.912-0.256-2.944-0.256-3.392 0.096zM4.128 2.336c-0.384 0.128-0.576 0.384-0.704 0.928-0.032 0.224-0.224 0.544-0.416 0.672l-0.32 0.256-0.064 9.792c-0.032 5.376-0.032 9.952 0.032 10.112 0.192 0.64 1.76 0.8 4.32 0.416 1.952-0.256 1.92-0.224 1.824-3.104-0.064-1.248-0.032-2.56 0.032-2.88 0.128-0.576 0.128-0.576 1.056-0.704 0.544-0.096 1.28-0.288 1.696-0.416 1.856-0.64 3.776-2.4 4.512-4.128 0.384-0.928 0.416-1.12 0.416-2.816-0.032-1.408-0.096-2.048-0.32-2.848-0.768-2.464-2.88-4.448-5.408-5.088-0.896-0.192-6.176-0.384-6.656-0.192zM9.792 9.632c0.64 0.384 1.056 0.864 1.184 1.44 0.096 0.32 0.032 0.416-0.384 0.544-0.544 0.192-1.152 0.192-1.632 0.032-0.32-0.128-0.384-0.224-0.384-0.864 0-0.864 0.224-1.472 0.48-1.472 0.096 0 0.448 0.128 0.736 0.32zM23.712 2.496c-0.416 0.064-1.76 0.192-2.944 0.224-1.952 0.128-2.176 0.16-2.496 0.448-0.192 0.192-0.384 0.512-0.448 0.736-0.032 0.192-0.256 0.512-0.448 0.672-0.416 0.416-0.544 1.44-0.448 3.264 0.16 2.048 0.672 8.704 0.832 10.624 0.064 0.928 0.192 2.624 0.288 3.776 0.16 2.688 0.224 2.784 1.984 2.784 1.376 0 4.16-0.384 4.608-0.608 0.544-0.288 0.672-0.608 0.672-1.696 0-0.576 0.032-1.056 0.128-1.056 0.032 0 0.416 0.512 0.8 1.12 1.024 1.536 1.12 1.6 3.136 1.536 2.048-0.064 3.584-0.352 4.032-0.8 0.384-0.352 0.448-1.024 0.128-1.888-0.096-0.288-0.8-1.504-1.568-2.752-0.736-1.216-1.408-2.368-1.472-2.528-0.064-0.224 0.096-0.544 0.64-1.28 1.152-1.6 1.376-2.304 1.376-4.608 0-1.632-0.064-2.144-0.32-2.976-0.704-2.24-2.848-4.288-5.056-4.832-0.896-0.256-2.56-0.32-3.424-0.16zM25.536 9.472c0.672 0.192 1.664 1.12 1.664 1.568 0 0.192-0.128 0.352-0.384 0.448-0.512 0.192-2.272 0.192-2.496-0.032-0.16-0.16-0.256-1.504-0.096-1.92 0.128-0.288 0.512-0.288 1.312-0.064zM74.336 2.752c-1.824 0.384-3.936 1.952-5.248 3.872-1.536 2.272-1.696 2.976-1.856 7.424-0.096 3.616 0.064 5.184 0.64 6.464 0.832 1.856 2.336 3.168 4.256 3.776 1.184 0.384 3.68 0.416 5.024 0.064 2.432-0.608 4.48-2.144 5.408-4.064 0.832-1.664 0.96-2.432 0.96-5.28-0.032-2.592-0.416-6.144-0.8-7.264-0.736-2.048-2.368-3.68-4.736-4.672-0.864-0.384-2.624-0.512-3.648-0.32zM75.872 9.824c0.416 0.224 0.704 0.544 0.928 0.992 0.256 0.544 0.288 0.864 0.288 3.488 0 1.536-0.064 3.008-0.128 3.2-0.288 0.768-1.792 0.768-2.496 0.032-0.416-0.48-0.512-1.248-0.544-4.192-0.032-2.496 0.096-3.328 0.608-3.68 0.416-0.288 0.608-0.256 1.344 0.16zM107.264 2.72c-0.32 0.032-1.888 0.128-3.52 0.256-3.2 0.192-3.392 0.256-3.584 1.12-0.064 0.224-0.288 0.576-0.48 0.8-0.352 0.352-0.352 0.416-0.288 1.408 0.032 0.576 0.288 4.928 0.544 9.696 0.448 8.416 0.48 8.672 0.8 8.992l0.32 0.352 3.392-0.16c4.416-0.224 7.2-0.448 7.872-0.608 0.32-0.096 0.64-0.288 0.704-0.448 0.224-0.416 0.128-4.736-0.128-5.184-0.32-0.576-0.608-0.64-3.424-0.544l-2.72 0.128v-0.768c0-0.48 0.096-0.768 0.192-0.8s0.96-0.16 1.92-0.256c1.728-0.192 1.728-0.192 1.888-0.608 0.064-0.256 0.064-1.28 0-2.528-0.096-1.984-0.128-2.144-0.448-2.464-0.352-0.352-0.384-0.352-2.016-0.256-1.888 0.128-1.984 0.064-1.824-0.704l0.096-0.48 1.088-0.032c1.024-0.032 3.456-0.256 4.192-0.416 0.544-0.128 0.576-0.576 0.384-3.392-0.192-3.36-0.096-3.232-2.592-3.168-0.96 0-2.048 0.032-2.368 0.064zM41.76 3.008c-1.504 0.256-3.552 1.408-4.64 2.592-0.832 0.896-1.984 2.688-2.336 3.616s-0.832 3.872-1.056 6.592c-0.192 2.432-0.064 3.68 0.608 5.12 1.216 2.592 3.456 3.936 6.592 3.936 2.752 0 4.832-0.736 6.496-2.272 1.088-1.024 2.048-2.88 2.4-4.608 0.288-1.536 0.448-5.888 0.256-7.808-0.256-2.176-0.544-2.944-1.888-4.64-0.544-0.672-2.24-1.824-3.2-2.208-0.8-0.288-2.528-0.48-3.232-0.32zM42.624 10.048c1.248 0.64 1.568 1.696 1.248 4.064-0.128 0.928-0.256 2.112-0.32 2.656-0.128 1.248-0.384 1.568-1.28 1.568-1.088 0-1.824-0.736-1.824-1.824 0-1.216 0.384-5.504 0.544-5.92 0.16-0.384 0.672-0.864 0.96-0.864 0.032 0 0.352 0.16 0.672 0.32z"></path>
</svg>
