<!-- Generated by IcoMoon.io -->
<svg version="1.1" xmlns="http://www.w3.org/2000/svg" width="32" height="32" viewBox="0 0 32 32">
<title>refresh1</title>
<path fill="#fff" d="M16 13.778v0c1.227 0 2.222 0.995 2.222 2.222v13.333c0 1.227-0.995 2.222-2.222 2.222v0c-1.227 0-2.222-0.995-2.222-2.222v-13.333c0-1.227 0.995-2.222 2.222-2.222z"></path>
<path fill="#fff" d="M17.571 1.858v0c0.868 0.868 0.868 2.275 0 3.143l-12.571 12.571c-0.868 0.868-2.275 0.868-3.143 0v0c-0.868-0.868-0.868-2.275 0-3.143l12.571-12.571c0.868-0.868 2.275-0.868 3.143 0z"></path>
<path fill="#fff" d="M30.142 17.571v0c-0.868 0.868-2.275 0.868-3.143 0l-12.571-12.571c-0.868-0.868-0.868-2.275 0-3.143v0c0.868-0.868 2.275-0.868 3.143 0l12.571 12.571c0.868 0.868 0.868 2.275 0 3.143z"></path>
</svg>
