<!-- Generated by IcoMoon.io -->
<svg version="1.1" xmlns="http://www.w3.org/2000/svg" width="24" height="24" viewBox="0 0 24 24">
<title>reservation</title>
<path d="M7.447 1.414c-0.408 0.168-0.48 0.432-0.48 2.33 0 1.658 0.024 1.898 0.216 2.066 0.12 0.12 0.36 0.216 0.529 0.216 0.697-0.024 0.817-0.384 0.817-2.402 0-1.634 0-1.706-0.288-1.994s-0.432-0.336-0.793-0.216zM15.855 1.558c-0.288 0.216-0.288 0.312-0.336 1.874-0.048 1.778 0 2.114 0.288 2.402 0.264 0.264 0.817 0.24 1.057-0.024 0.168-0.192 0.192-0.529 0.192-2.090 0-1.994-0.048-2.186-0.601-2.33-0.216-0.048-0.408 0-0.601 0.168zM3.243 4.009c-0.336 0.192-0.649 0.48-0.889 0.841-0.312 0.504-0.36 0.721-0.408 1.778l-0.048 1.201h20.228l-0.048-1.177c-0.048-1.417-0.312-2.018-1.081-2.522-0.456-0.312-0.601-0.336-1.97-0.36l-1.489-0.048v0.961c0 0.865-0.024 1.009-0.312 1.321-0.384 0.48-0.985 0.601-1.465 0.312s-0.625-0.649-0.625-1.682v-0.889h-6.246v0.889c0 1.033-0.12 1.393-0.625 1.682-0.48 0.288-1.057 0.168-1.465-0.312-0.264-0.312-0.312-0.456-0.312-1.321v-0.937h-1.345c-1.201 0-1.441 0.024-1.898 0.264zM1.922 14.579c0 6.895 0.024 6.967 0.841 7.712 0.264 0.24 0.625 0.48 0.817 0.529 0.432 0.12 16.456 0.12 16.889 0 0.168-0.048 0.529-0.288 0.793-0.529 0.841-0.745 0.841-0.817 0.841-7.712v-6.030h-20.18v6.030zM6.943 11.143l-0.024 2.018h-4.324l-0.048-2.018-0.024-1.994h4.444l-0.024 1.994zM11.771 11.047v1.898l-0.625-0.312c-0.865-0.408-2.306-0.432-3.051-0.024-0.288 0.144-0.553 0.264-0.577 0.264-0.048 0-0.072-0.841-0.072-1.874v-1.85h4.324v1.898zM16.672 11.143l-0.024 2.018-2.138 0.048-2.138 0.024v-4.084h4.324l-0.024 1.994zM21.477 11.143l-0.024 2.018h-4.204l-0.048-2.018-0.024-1.994h4.324l-0.024 1.994zM6.246 14.363c-0.529 1.033-0.577 2.018-0.168 3.099 0.072 0.192-0.048 0.216-1.73 0.216h-1.826v-3.964h4.084l-0.36 0.649zM11.771 15.684v1.994h-4.324v-3.964h4.324v1.97zM16.696 15.684v1.994h-1.874c-1.73 0-1.874-0.024-1.778-0.216 0.048-0.12 0.168-0.529 0.24-0.913 0.192-0.889 0.072-1.73-0.36-2.378l-0.312-0.456h4.084v1.97zM21.501 15.684v1.994h-4.324v-3.964h4.324v1.97zM6.751 18.351c0.192 0.168 0.216 0.408 0.216 2.114v1.922l-1.61-0.048c-1.393-0.024-1.658-0.072-1.946-0.288-0.745-0.553-0.817-0.769-0.865-2.402l-0.048-1.489h2.018c1.706 0 2.042 0.024 2.234 0.192zM11.771 18.303c0 0.336-0.817 0.841-1.586 0.985-0.673 0.144-0.721 0.36-0.072 0.288 0.432-0.048 0.985-0.24 1.586-0.553 0.048-0.024 0.072 0.721 0.072 1.658v1.682h-4.324v-1.634c0-1.513 0.024-1.634 0.216-1.562 0.889 0.36 1.225 0.456 1.417 0.384 0.168-0.072 0.024-0.192-0.673-0.529-0.529-0.264-0.913-0.529-0.937-0.673-0.024-0.192 0.144-0.192 2.138-0.192 1.73 0 2.162 0.024 2.162 0.144zM16.696 20.248v2.114h-4.324v-1.922c0-1.057 0.048-1.994 0.072-2.090 0.072-0.168 0.384-0.192 2.162-0.192h2.090v2.090zM21.501 19.648c-0.048 1.634-0.144 1.85-0.889 2.402-0.288 0.24-0.504 0.264-1.85 0.264h-1.513l-0.048-2.090-0.024-2.066h4.348l-0.024 1.489z"></path>
</svg>
