<!-- Generated by IcoMoon.io -->
<svg version="1.1" xmlns="http://www.w3.org/2000/svg" width="24" height="24" viewBox="0 0 24 24">
<title>scrapbook</title>
<path d="M2.729 16.934v-0.099c0-0.175 0.143-0.319 0.319-0.319h1.361c0.175 0 0.319 0.143 0.319 0.319v0.099c0 0.175-0.143 0.319-0.319 0.319h-1.361c-0.175 0-0.319-0.143-0.319-0.319zM3.048 13.922h1.361c0.175 0 0.319-0.143 0.319-0.319v-0.099c0-0.175-0.143-0.319-0.319-0.319h-1.361c-0.175 0-0.319 0.143-0.319 0.319v0.099c0 0.175 0.143 0.319 0.319 0.319zM3.048 10.61h1.361c0.175 0 0.319-0.143 0.319-0.319v-0.099c0-0.175-0.143-0.319-0.319-0.319h-1.361c-0.175 0-0.319 0.143-0.319 0.319v0.099c0 0.175 0.143 0.319 0.319 0.319zM3.048 7.244h1.361c0.175 0 0.319-0.143 0.319-0.319v-0.099c0-0.175-0.143-0.319-0.319-0.319h-1.361c-0.175 0-0.319 0.143-0.319 0.319v0.099c0 0.175 0.143 0.319 0.319 0.319zM14.386 4.28l4.386-1.224v4.067c-0.293-0.073-0.66-0.073-1.004 0.048-0.784 0.271-1.246 0.956-1.077 1.52s0.931 0.81 1.689 0.539c0.663-0.22 1.128-0.634 1.128-1.224 0-0.587 0-6.467 0-6.467 0-0.344-0.245-0.539-0.638-0.398l-4.73 1.275c-0.392 0.121-0.491 0.344-0.491 0.711v2.059h0.736c0-0.532 0-0.905 0-0.905zM12.037 13.562c1.38 0.379 2.76 0.759 4.137 1.141v2.958c-0.513 0.191-1.030 0.424-1.517 0.657-0.169 0.099-0.22 0.194-0.121 0.392 0.22 0.418 0.367 0.883 0.513 1.323 0 0.051 0.022 0.099-0.026 0.099l-0.048-0.048c-0.392-0.367-0.711-0.759-1.173-1.128-0.296-0.245-0.59-0.319-0.982-0.198-0.708 0.245-1.444 0.465-2.155 0.663-0.198 0.048-0.392 0.121-0.59 0.121-0.099-0.121-0.026-0.194 0-0.293 0.488-1.814 0.979-3.627 1.469-5.416 0.073-0.296 0.198-0.344 0.491-0.271zM12.843 16.115c0.344 0.147 0.711 0.048 0.857-0.245s0-0.685-0.293-0.835c-0.344-0.169-0.736-0.048-0.883 0.271-0.147 0.271 0 0.663 0.319 0.81zM4.728 20.297v-0.099c0-0.175-0.143-0.319-0.319-0.319h-1.361c-0.175 0-0.319 0.143-0.319 0.319v0.099c0 0.175 0.143 0.319 0.319 0.319h1.361c0.175 0 0.319-0.143 0.319-0.319zM20.853 15.283c-1.562-0.408-3.121-0.829-4.679-1.256v0.676c1.288 0.354 2.572 0.711 3.85 1.065 0.147 0.026 0.392 0 0.319 0.271-0.344 1.275-0.688 2.524-1.055 3.873-0.316-0.561-0.587-1.077-0.905-1.543-0.711-1.128-0.857-1.176-2.132-0.736-0.026 0.010-0.051 0.019-0.077 0.029v3.793c0 0.271-0.22 0.465-0.465 0.465h-0.587c1.218 0.335 2.435 0.679 3.65 1.007 0.319 0.073 0.44 0.048 0.539-0.271 0.612-2.301 1.224-4.58 1.861-6.859 0.099-0.341 0-0.414-0.319-0.513zM9.509 20.402c-0.319-0.099-0.418-0.172-0.344-0.513 0.638-2.279 1.275-4.558 1.887-6.859 0.073-0.319 0.22-0.344 0.539-0.271 1.527 0.424 3.057 0.848 4.584 1.269v-8.377c0-0.245-0.22-0.465-0.465-0.465h-1.323c0 1.256 0 3.42 0 3.799 0 0.418-0.465 1.004-1.103 1.224-0.784 0.271-1.543 0.026-1.715-0.539s0.319-1.25 1.077-1.52c0.367-0.121 0.711-0.121 1.004-0.048v-2.917h-9.288c-0.245 0-0.465 0.22-0.465 0.465v0.685c0.198 0 0.367 0 0.564 0 0.172-0.026 0.344 0.048 0.465 0.194 0.147 0.198 0.172 0.392 0.048 0.612-0.099 0.198-0.319 0.293-0.539 0.293-0.172-0.026-0.344 0-0.539 0v2.231c0.198 0 0.392 0 0.564 0 0.344 0 0.587 0.22 0.587 0.539s-0.245 0.564-0.587 0.564c-0.172 0-0.367 0-0.564 0v2.254c0.099 0 0.198 0 0.293 0 0.59 0 0.857 0.172 0.857 0.539 0 0.392-0.245 0.564-0.857 0.564-0.099 0-0.194 0-0.293 0v2.231c0.198 0 0.392 0 0.564 0 0.418-0.026 0.711 0.367 0.564 0.736-0.099 0.245-0.293 0.367-0.564 0.367-0.198 0-0.367 0-0.564 0v2.206c0.198 0 0.367 0 0.539 0 0.418 0.026 0.685 0.392 0.539 0.784-0.073 0.22-0.293 0.367-0.612 0.367-0.147 0.026-0.293 0-0.465 0v0.638c0 0.271 0.22 0.465 0.491 0.465h10.735c-0.328-0.089-0.653-0.179-0.982-0.268-1.543-0.418-3.089-0.857-4.631-1.25z"></path>
</svg>
