<!-- Generated by IcoMoon.io -->
<svg version="1.1" xmlns="http://www.w3.org/2000/svg" width="32" height="32" viewBox="0 0 32 32">
<title>search</title>
<path fill="#fff" d="M12.99 22.733c-2.601 0-5.048-1.013-6.888-2.853-1.841-1.84-2.855-4.287-2.855-6.89 0-2.601 1.013-5.048 2.855-6.888 1.84-1.841 4.287-2.855 6.888-2.855s5.048 1.013 6.888 2.855c1.841 1.84 2.855 4.287 2.855 6.888 0 2.603-1.013 5.050-2.855 6.89-1.84 1.84-4.287 2.853-6.888 2.853v0zM32 29.704l-8.755-8.757c1.767-2.267 2.736-5.035 2.736-7.957 0-3.47-1.353-6.732-3.806-9.184-2.452-2.455-5.714-3.806-9.184-3.806s-6.732 1.351-9.184 3.806c-2.454 2.452-3.806 5.714-3.806 9.184s1.353 6.732 3.806 9.184c2.452 2.455 5.714 3.806 9.184 3.806 2.921 0 5.69-0.968 7.957-2.738l8.757 8.757 2.296-2.296z"></path>
</svg>
