<!-- Generated by IcoMoon.io -->
<svg version="1.1" xmlns="http://www.w3.org/2000/svg" width="22" height="24" viewBox="0 0 22 24">
<title>share</title>
<path d="M19.195 17.51q1.105 0 1.898 0.793t0.793 1.898-0.793 1.898-1.874 0.793-1.898-0.793-0.793-1.922q0-0.432 0.192-0.937l-4.060-2.931q-1.177 1.201-2.835 1.201t-2.835-1.177-1.201-2.859q0-0.216 0.072-0.625l-3.219-1.057q-0.384 0.336-0.865 0.336-0.577 0-0.961-0.384t-0.384-0.961 0.384-0.937 0.961-0.384q0.48 0 0.817 0.312t0.456 0.745l3.243 1.081q0.504-0.985 1.465-1.562t2.066-0.577q1.249 0 2.306 0.745l4.781-4.781q-0.384-0.721-0.384-1.321 0-1.105 0.793-1.898t1.898-0.793 1.874 0.793 0.793 1.898-0.793 1.874-1.898 0.793q-0.625 0-1.321-0.408l-4.781 4.805q0.745 1.057 0.745 2.306 0 0.889-0.408 1.754l4.060 2.907q0.793-0.625 1.706-0.625z"></path>
</svg>
