<!-- Generated by IcoMoon.io -->
<svg version="1.1" xmlns="http://www.w3.org/2000/svg" width="24" height="24" viewBox="0 0 24 24">
<title>shared_files</title>
<path d="M3.375 3.375c-1.197 0-2.156 0.96-2.156 2.156v12.938c0 1.191 0.965 2.156 2.156 2.156v0h17.25c1.191 0 2.156-0.965 2.156-2.156v0-10.781c0-1.197-0.97-2.156-2.156-2.156h-8.625l-2.156-2.156zM18.852 8.064c0 0 0 0 0 0 0.787 0 1.425 0.638 1.425 1.425 0 0 0 0 0 0v-0c0 0 0 0 0 0 0 0.787-0.638 1.425-1.425 1.425-0 0-0 0-0 0h0c-0.375 0-0.712-0.148-0.969-0.385l-3.35 1.954c0.024 0.109 0.044 0.219 0.044 0.333s-0.020 0.221-0.044 0.331l3.388 1.973c0.247-0.223 0.57-0.366 0.931-0.366 0 0 0 0 0 0 0.766 0 1.387 0.621 1.387 1.387 0 0 0 0 0 0v-0c0 0.765-0.623 1.381-1.388 1.381s-1.388-0.616-1.388-1.381c0-0.109 0.014-0.214 0.038-0.314l-3.382-1.971c-0.257 0.238-0.593 0.383-0.969 0.383-0 0-0 0-0 0-0.787 0-1.424-0.637-1.425-1.423v-0c0-0 0-0 0-0 0-0.787 0.638-1.425 1.425-1.425 0 0 0 0 0 0h-0c0.375 0 0.712 0.146 0.969 0.383l3.35-1.952c-0.024-0.109-0.044-0.219-0.044-0.333 0-0 0-0 0-0 0-0.787 0.638-1.425 1.425-1.425 0 0 0 0 0 0h-0z"></path>
</svg>
