<!-- Generated by IcoMoon.io -->
<svg version="1.1" xmlns="http://www.w3.org/2000/svg" width="32" height="32" viewBox="0 0 32 32">
<title>share-variant</title>
<path d="M24 21.44c-1.013 0-1.92 0.4-2.613 1.027l-9.507-5.533c0.067-0.307 0.12-0.613 0.12-0.933s-0.053-0.627-0.12-0.933l9.4-5.48c0.72 0.667 1.667 1.080 2.72 1.080 2.209 0 4-1.791 4-4v0c0-2.209-1.791-4-4-4v0c-2.209 0-4 1.791-4 4v0c0 0.32 0.053 0.627 0.12 0.933l-9.4 5.48c-0.72-0.667-1.667-1.080-2.72-1.080-2.209 0-4 1.791-4 4v0c0 2.209 1.791 4 4 4v0c1.053 0 2-0.413 2.72-1.080l9.493 5.533c-0.067 0.28-0.107 0.573-0.107 0.88 0 2.147 1.747 3.88 3.893 3.88s3.893-1.733 3.893-3.88c0-2.15-1.743-3.893-3.893-3.893v0z"></path>
</svg>
