<!-- Generated by IcoMoon.io -->
<svg version="1.1" xmlns="http://www.w3.org/2000/svg" width="24" height="24" viewBox="0 0 24 24">
<title>slideshare</title>
<path d="M11.699 10.062q0 1.105-0.841 1.898t-2.042 0.817-2.042-0.817-0.865-1.898q0-1.129 0.865-1.922t2.042-0.793 2.042 0.793 0.841 1.922zM18.426 10.062q0 1.105-0.841 1.898t-2.042 0.817q-1.201 0-2.042-0.817t-0.865-1.898q0-1.129 0.865-1.922t2.042-0.793q1.201 0 2.042 0.793t0.841 1.922zM21.453 12.465v-8.937q0-1.153-0.432-1.658t-1.489-0.48h-14.895q-1.129 0-1.513 0.456t-0.408 1.682v9.033q0.577 0.312 1.201 0.529t1.081 0.384 1.081 0.24 0.961 0.144 0.937 0.048 0.769 0.024 0.769-0.048 0.601-0.024q0.913 0 1.273 0.36 0.072 0.096 0.12 0.12 0.36 0.336 0.817 0.697 0.096-1.225 1.586-1.177 0.072 0 0.504 0.024t0.577 0.024 0.601 0.024 0.721-0.024 0.721-0.048 0.817-0.12 0.841-0.168 0.889-0.264 0.913-0.36 0.961-0.48zM23.639 12.417q-1.634 1.994-4.997 3.363 1.129 3.82-0.312 6.246-0.865 1.513-2.45 1.97-1.393 0.432-2.426-0.192-1.153-0.673-1.105-2.21l-0.024-4.372q-0.096-0.024-0.312-0.072t-0.312-0.072l-0.024 4.516q0.048 1.538-1.105 2.21-1.057 0.625-2.45 0.192-1.586-0.48-2.45-1.994-1.393-2.426-0.288-6.222-3.363-1.369-4.997-3.363-0.336-0.504-0.048-0.865t0.793 0.024q0.048 0.024 0.168 0.096t0.144 0.096v-9.297q0-0.961 0.625-1.658t1.538-0.673h16.84q0.889 0 1.538 0.673t0.625 1.658v9.297l0.288-0.192q0.504-0.36 0.793-0.024t-0.048 0.865z"></path>
</svg>
