<!-- Generated by IcoMoon.io -->
<svg version="1.1" xmlns="http://www.w3.org/2000/svg" width="32" height="32" viewBox="0 0 32 32">
<title>users</title>
<path d="M23.824 9.95c-2.247 0-4.064 1.864-4.064 4.112s1.817 4.064 4.064 4.064c2.247 0 4.064-1.817 4.064-4.064s-1.817-4.112-4.064-4.112zM20.296 19.651c1.055 0.751 1.747 1.672 1.747 2.766v3.884h9.957v-3.061c0-2.725-5.449-4.11-8.175-4.11h-0.003c-0.957 0-2.252 0.182-3.527 0.522z"></path>
<path d="M9.898 6.503c-2.72 0-4.92 2.258-4.92 4.979s2.199 4.92 4.92 4.92c2.72 0 4.92-2.199 4.92-4.92s-2.199-4.979-4.92-4.979zM9.898 17.618c-3.3 0.001-9.898 1.678-9.898 4.977v3.706h19.798v-3.706c0-3.299-6.598-4.976-9.898-4.977h-0.002z"></path>
</svg>
