<!-- Generated by IcoMoon.io -->
<svg version="1.1" xmlns="http://www.w3.org/2000/svg" width="27" height="24" viewBox="0 0 27 24">
<title>wikipedia</title>
<path d="M0 4.297v-0.504l0.048-0.048h5.982l0.048 0.048v0.48q0 0.192-0.24 0.192l-0.625 0.024q-0.793 0.024-0.793 0.48 0 0.312 0.168 0.673 1.201 2.931 5.333 11.627l0.144 0.024 2.667-5.309q-0.312-0.721-0.529-1.177l-1.826-3.604-0.48-0.961q-0.625-1.225-0.817-1.465t-0.793-0.312q-0.336-0.048-0.336-0.168v-0.504l0.072-0.048h4.733l0.12 0.024v0.504q0 0.192-0.24 0.192l-0.36 0.048q-0.312 0.048-0.456 0.12t-0.12 0.288 0.096 0.408 0.336 0.745l1.754 3.604 1.946-3.892q0.384-0.769 0.12-1.033-0.144-0.192-0.889-0.264l-0.216-0.024q-0.096 0-0.168-0.072-0.072-0.024-0.072-0.144v-0.456l0.072-0.048q1.369-0.024 4.468 0l0.048 0.048v0.48q0 0.192-0.216 0.192-0.529 0.024-0.721 0.096t-0.408 0.384q-0.553 0.817-0.721 1.153l-2.522 4.709-0.072 0.168 3.075 6.294 0.192 0.072 4.853-11.555q0.288-0.673-0.072-0.985-0.312-0.288-0.937-0.312l-0.456-0.024q-0.072 0-0.144-0.072-0.096-0.048-0.096-0.144v-0.48l0.072-0.048h5.501l0.048 0.048v0.48q0 0.168-0.216 0.216-1.105 0.048-1.586 0.456-0.48 0.384-0.817 1.177l-6.006 13.621q-0.24 0.553-0.529 0.721t-0.577-0.024-0.553-0.721q-0.913-1.802-2.931-6.318-2.522 5.189-3.147 6.342-0.985 1.706-1.706 0.024-0.769-1.802-3.123-6.847t-3.123-6.871q-0.384-1.009-0.673-1.249-0.264-0.24-1.249-0.312-0.336-0.048-0.336-0.168z"></path>
</svg>
