<!-- Generated by IcoMoon.io -->
<svg version="1.1" xmlns="http://www.w3.org/2000/svg" width="29" height="24" viewBox="0 0 29 24">
<title>workspace_folder</title>
<path d="M3.663 0h4.764c2.793-0.16 4.894 1.338 4.883 4.288v0h8.635q4.118-0.575 5.687 1.399 1.39 1.736 0.893 5.36v9.29c-0.303 2.67-2.432 3.868-4.973 3.663v0h-19.891c-2.371-0.269-3.747-2.039-3.663-4.377v0-15.96c0.231-2.038 1.625-3.46 3.663-3.663v0zM11.821 0.774v0zM27.067 5.062v0zM11.821 0.774v0zM27.067 5.062v0zM27.305 22.928v0z"></path>
</svg>
